*
*
G04 PADS 9.5 Build Number: 522968 generated Gerber (RS-274-X) file*
G04 PC Version=2.1*
*
%IN "carrier13.revD.layout.p"*%
*
%MOIN*%
*
%FSLAX35Y35*%
*
*
*
*
G04 PC Standard Apertures*
*
*
G04 Thermal Relief Aperture macro.*
%AMTER*
1,1,$1,0,0*
1,0,$1-$2,0,0*
21,0,$3,$4,0,0,45*
21,0,$3,$4,0,0,135*
%
*
*
G04 Annular Aperture macro.*
%AMANN*
1,1,$1,0,0*
1,0,$2,0,0*
%
*
*
G04 Odd Aperture macro.*
%AMODD*
1,1,$1,0,0*
1,0,$1-0.005,0,0*
%
*
*
G04 PC Custom Aperture Macros*
*
*
*
*
*
*
G04 PC Aperture Table*
*
%ADD010C,0.001*%
%ADD012C,0.005*%
%ADD013C,0.01*%
%ADD048C,0.007*%
%ADD180C,0.004*%
%ADD244C,0.00394*%
*
*
*
*
G04 PC Circuitry*
G04 Layer Name carrier13.revD.layout.p - circuitry*
%LPD*%
*
*
G04 PC Custom Flashes*
G04 Layer Name carrier13.revD.layout.p - flashes*
%LPD*%
*
*
G04 PC Circuitry*
G04 Layer Name carrier13.revD.layout.p - circuitry*
%LPD*%
*
G54D10*
G54D12*
G01X122638Y161024D02*
X110827D01*
Y175787*
X115748Y180709*
X122638*
X242717Y161024D02*
X254528D01*
Y180709*
X242717*
X125591Y188286D02*
X125363Y188442D01*
X125022Y188911*
Y185630*
X125591Y155806D02*
X125363Y155962D01*
X125022Y156431*
Y153150*
X123318Y156431D02*
X123659Y156275D01*
X123886Y155806*
X124000Y155025*
Y154556*
X123886Y153775*
X123659Y153306*
X123318Y153150*
X123091*
X122750Y153306*
X122522Y153775*
X122409Y154556*
Y155025*
X122522Y155806*
X122750Y156275*
X123091Y156431*
X123318*
X120704D02*
X121045Y156275D01*
X121272Y155806*
X121386Y155025*
Y154556*
X121272Y153775*
X121045Y153306*
X120704Y153150*
X120477*
X120136Y153306*
X119909Y153775*
X119795Y154556*
Y155025*
X119909Y155806*
X120136Y156275*
X120477Y156431*
X120704*
X242224D02*
X243360D01*
X243474Y155025*
X243360Y155181*
X243019Y155337*
X242678*
X242337Y155181*
X242110Y154868*
X241996Y154400*
X242110Y154087*
X242224Y153618*
X242451Y153306*
X242792Y153150*
X243133*
X243474Y153306*
X243587Y153462*
X243701Y153775*
X240974Y155806D02*
X240746Y155962D01*
X240405Y156431*
Y153150*
X243208Y188911D02*
X244344D01*
X244458Y187505*
X244344Y187661*
X244003Y187817*
X243662*
X243321Y187661*
X243094Y187349*
X242980Y186880*
X243094Y186567*
X243208Y186099*
X243435Y185786*
X243776Y185630*
X244117*
X244458Y185786*
X244571Y185942*
X244685Y186255*
X241276Y188911D02*
X241617Y188755D01*
X241844Y188286*
X241958Y187505*
Y187036*
X241844Y186255*
X241617Y185786*
X241276Y185630*
X241049*
X240708Y185786*
X240480Y186255*
X240367Y187036*
Y187505*
X240480Y188286*
X240708Y188755*
X241049Y188911*
X241276*
X311614Y212205D02*
X299803D01*
Y226969*
X304724Y231890*
X311614*
X431693Y212205D02*
X443504D01*
Y231890*
X431693*
X314567Y239467D02*
X314340Y239624D01*
X313999Y240092*
Y236811*
X314567Y206987D02*
X314340Y207143D01*
X313999Y207612*
Y204331*
X312294Y207612D02*
X312635Y207456D01*
X312862Y206987*
X312976Y206206*
Y205737*
X312862Y204956*
X312635Y204487*
X312294Y204331*
X312067*
X311726Y204487*
X311499Y204956*
X311385Y205737*
Y206206*
X311499Y206987*
X311726Y207456*
X312067Y207612*
X312294*
X309681D02*
X310021Y207456D01*
X310249Y206987*
X310362Y206206*
Y205737*
X310249Y204956*
X310021Y204487*
X309681Y204331*
X309453*
X309112Y204487*
X308885Y204956*
X308771Y205737*
Y206206*
X308885Y206987*
X309112Y207456*
X309453Y207612*
X309681*
X431200D02*
X432336D01*
X432450Y206206*
X432336Y206362*
X431995Y206518*
X431654*
X431314Y206362*
X431086Y206049*
X430973Y205581*
X431086Y205268*
X431200Y204799*
X431427Y204487*
X431768Y204331*
X432109*
X432450Y204487*
X432564Y204643*
X432677Y204956*
X429950Y206987D02*
X429723Y207143D01*
X429382Y207612*
Y204331*
X432184Y240092D02*
X433321D01*
X433434Y238686*
X433321Y238842*
X432980Y238999*
X432639*
X432298Y238842*
X432071Y238530*
X431957Y238061*
X432071Y237749*
X432184Y237280*
X432411Y236967*
X432752Y236811*
X433093*
X433434Y236967*
X433548Y237124*
X433661Y237436*
X430252Y240092D02*
X430593Y239936D01*
X430821Y239467*
X430934Y238686*
Y238217*
X430821Y237436*
X430593Y236967*
X430252Y236811*
X430025*
X429684Y236967*
X429457Y237436*
X429343Y238217*
Y238686*
X429457Y239467*
X429684Y239936*
X430025Y240092*
X430252*
X134449Y231890D02*
X127559D01*
X122638Y226969*
Y212205*
X134449*
X278150D02*
X289961D01*
Y231890*
X278150*
X137402Y239467D02*
X137174Y239624D01*
X136833Y240092*
Y236811*
X137402Y206003D02*
X137174Y206159D01*
X136833Y206628*
Y203346*
X135697Y205846D02*
Y206003D01*
X135583Y206315*
X135470Y206471*
X135242Y206628*
X134788*
X134561Y206471*
X134447Y206315*
X134333Y206003*
Y205690*
X134447Y205378*
X134674Y204909*
X135811Y203346*
X134220*
X132515Y206628D02*
X132856Y206471D01*
X133083Y206003*
X133197Y205221*
Y204753*
X133083Y203971*
X132856Y203503*
X132515Y203346*
X132288*
X131947Y203503*
X131720Y203971*
X131606Y204753*
Y205221*
X131720Y206003*
X131947Y206471*
X132288Y206628*
X132515*
X277770Y207143D02*
X277884Y207456D01*
X278225Y207612*
X278452*
X278793Y207456*
X279020Y206987*
X279134Y206206*
Y205424*
X279020Y204799*
X278793Y204487*
X278452Y204331*
X278338*
X277997Y204487*
X277770Y204799*
X277657Y205268*
Y205424*
X277770Y205893*
X277997Y206206*
X278338Y206362*
X278452*
X278793Y206206*
X279020Y205893*
X279134Y205424*
X276634Y206987D02*
X276407Y207143D01*
X276066Y207612*
Y204331*
X278754Y239624D02*
X278868Y239936D01*
X279209Y240092*
X279436*
X279777Y239936*
X280004Y239467*
X280118Y238686*
Y237905*
X280004Y237280*
X279777Y236967*
X279436Y236811*
X279323*
X278982Y236967*
X278754Y237280*
X278641Y237749*
Y237905*
X278754Y238374*
X278982Y238686*
X279323Y238842*
X279436*
X279777Y238686*
X280004Y238374*
X280118Y237905*
X276936Y240092D02*
X277277Y239936D01*
X277504Y239467*
X277618Y238686*
Y238217*
X277504Y237436*
X277277Y236967*
X276936Y236811*
X276709*
X276368Y236967*
X276141Y237436*
X276027Y238217*
Y238686*
X276141Y239467*
X276368Y239936*
X276709Y240092*
X276936*
X327362Y180709D02*
X320472D01*
X315551Y175787*
Y161024*
X327362*
X471063D02*
X482874D01*
Y180709*
X471063*
X330315Y188286D02*
X330088Y188442D01*
X329747Y188911*
Y185630*
X330315Y154822D02*
X330088Y154978D01*
X329747Y155447*
Y152165*
X328610Y154665D02*
Y154822D01*
X328497Y155134*
X328383Y155290*
X328156Y155447*
X327701*
X327474Y155290*
X327360Y155134*
X327247Y154822*
Y154509*
X327360Y154197*
X327588Y153728*
X328724Y152165*
X327133*
X325429Y155447D02*
X325770Y155290D01*
X325997Y154822*
X326110Y154040*
Y153572*
X325997Y152790*
X325770Y152322*
X325429Y152165*
X325201*
X324860Y152322*
X324633Y152790*
X324520Y153572*
Y154040*
X324633Y154822*
X324860Y155290*
X325201Y155447*
X325429*
X470684Y155962D02*
X470797Y156275D01*
X471138Y156431*
X471365*
X471706Y156275*
X471934Y155806*
X472047Y155025*
Y154243*
X471934Y153618*
X471706Y153306*
X471365Y153150*
X471252*
X470911Y153306*
X470684Y153618*
X470570Y154087*
Y154243*
X470684Y154712*
X470911Y155025*
X471252Y155181*
X471365*
X471706Y155025*
X471934Y154712*
X472047Y154243*
X469547Y155806D02*
X469320Y155962D01*
X468979Y156431*
Y153150*
X471668Y188442D02*
X471781Y188755D01*
X472122Y188911*
X472350*
X472691Y188755*
X472918Y188286*
X473031Y187505*
Y186724*
X472918Y186099*
X472691Y185786*
X472350Y185630*
X472236*
X471895Y185786*
X471668Y186099*
X471554Y186567*
Y186724*
X471668Y187192*
X471895Y187505*
X472236Y187661*
X472350*
X472691Y187505*
X472918Y187192*
X473031Y186724*
X469850Y188911D02*
X470191Y188755D01*
X470418Y188286*
X470531Y187505*
Y187036*
X470418Y186255*
X470191Y185786*
X469850Y185630*
X469622*
X469281Y185786*
X469054Y186255*
X468941Y187036*
Y187505*
X469054Y188286*
X469281Y188755*
X469622Y188911*
X469850*
X160089Y334350D02*
X157726D01*
X160089Y331988D02*
X157726D01*
X157874Y335039D02*
X160236D01*
X157874Y337402D02*
X160236D01*
X165502Y324606D02*
Y326969D01*
X163140Y324606D02*
Y326969D01*
X194783Y419341D02*
Y416978D01*
X197146Y419341D02*
Y416978D01*
X193947D02*
Y419341D01*
X191585Y416978D02*
Y419341D01*
X161565Y386614D02*
Y384252D01*
X163927Y386614D02*
Y384252D01*
X167864D02*
Y386614D01*
X165502Y384252D02*
Y386614D01*
X187402Y410827D02*
X189764D01*
X187402Y413189D02*
X189764D01*
X188041Y416388D02*
X185679D01*
X188041Y414026D02*
X185679D01*
X163533Y391142D02*
X165896D01*
X163533Y393504D02*
X165896D01*
X184843Y372933D02*
Y375295D01*
X182480Y372933D02*
Y375295D01*
X122293Y345423D02*
Y343061D01*
X124656Y345423D02*
Y343061D01*
X190108Y323622D02*
Y325984D01*
X187746Y323622D02*
Y325984D01*
X182579Y344931D02*
Y342569D01*
X184941Y344931D02*
Y342569D01*
X183071Y307283D02*
Y304921D01*
X185433Y307283D02*
Y304921D01*
X155659Y291535D02*
X153297D01*
X155659Y289173D02*
X153297D01*
X140157Y296457D02*
X137795D01*
X140157Y294094D02*
X137795D01*
X125935Y343356D02*
Y340207D01*
X129872Y343317D02*
Y340167D01*
X186713Y325197D02*
Y328346D01*
X182776Y325236D02*
Y328386D01*
X185974Y343848D02*
Y340699D01*
X189911Y343809D02*
Y340659D01*
X186467Y306201D02*
Y303051D01*
X190404Y306161D02*
Y303012D01*
X156299Y296506D02*
X153150D01*
X156260Y292569D02*
X153110D01*
X138829Y293061D02*
X135679D01*
X138789Y289124D02*
X135640D01*
X124656Y301722D02*
Y304085D01*
X122293Y301722D02*
Y304085D01*
X129331Y320177D02*
Y322539D01*
X126969Y320177D02*
Y322539D01*
X129626Y303051D02*
Y306201D01*
X125689Y303091D02*
Y306240D01*
X125935Y322244D02*
Y325394D01*
X121998Y322283D02*
Y325433D01*
X363097Y110049D02*
X365459D01*
X363097Y112412D02*
X365459D01*
X306319Y247681D02*
Y245319D01*
X308681Y247681D02*
Y245319D01*
X160236Y340846D02*
X157874D01*
X160236Y338484D02*
X157874D01*
X156496Y354823D02*
X158858D01*
X156496Y357185D02*
X158858D01*
X161909Y346260D02*
Y342323D01*
X156791*
X161909Y349803D02*
Y353740D01*
X156791*
Y346063D02*
Y350000D01*
X381988Y131004D02*
Y143799D01*
X386417*
Y142323*
X388386*
Y143799*
X392815*
Y131004*
X381988*
X476280Y240059D02*
X478642D01*
X476280Y242421D02*
X478642D01*
X385604Y145622D02*
X387966D01*
X385604Y147984D02*
X387966D01*
X366240Y266043D02*
Y246260D01*
X383957*
Y260039*
X377953Y266043*
X366240*
X457434Y265504D02*
Y245721D01*
X475150*
Y259500*
X469146Y265504*
X457434*
X167052Y372023D02*
X174926D01*
Y376698*
X167052*
Y372023*
X169033Y375344D02*
G75*
G03X169033I-627J0D01*
G01X144414Y372023D02*
X152288D01*
Y376698*
X144414*
Y372023*
X146395Y375344D02*
G03X146395I-627J0D01*
G01X121777Y372023D02*
X129651D01*
Y376698*
X121777*
Y372023*
X123757Y375344D02*
G03X123757I-627J0D01*
G01X189690Y372023D02*
X197564D01*
Y376698*
X189690*
Y372023*
X191671Y375344D02*
G03X191671I-628J0D01*
G01X197392Y406398D02*
Y408760D01*
X195030Y406398D02*
Y408760D01*
X174754Y406398D02*
Y408760D01*
X172392Y406398D02*
Y408760D01*
X152116Y406398D02*
Y408760D01*
X149754Y406398D02*
Y408760D01*
X129478Y406398D02*
Y408760D01*
X127116Y406398D02*
Y408760D01*
X186171Y391142D02*
X188533D01*
X186171Y393504D02*
X188533D01*
X140896Y391142D02*
X143258D01*
X140896Y393504D02*
X143258D01*
X118258Y391142D02*
X120620D01*
X118258Y393504D02*
X120620D01*
X197146Y384252D02*
Y386614D01*
X194783Y384252D02*
Y386614D01*
X174508Y384252D02*
Y386614D01*
X172146Y384252D02*
Y386614D01*
X151870Y384252D02*
Y386614D01*
X149508Y384252D02*
Y386614D01*
X129232Y384252D02*
Y386614D01*
X126870Y384252D02*
Y386614D01*
X171309Y416978D02*
Y419341D01*
X168947Y416978D02*
Y419341D01*
X148671Y416978D02*
Y419341D01*
X146309Y416978D02*
Y419341D01*
X126033Y416978D02*
Y419341D01*
X123671Y416978D02*
Y419341D01*
X172146D02*
Y416978D01*
X174508Y419341D02*
Y416978D01*
X149508Y419341D02*
Y416978D01*
X151870Y419341D02*
Y416978D01*
X126870Y419341D02*
Y416978D01*
X129232Y419341D02*
Y416978D01*
X164764Y410827D02*
X167126D01*
X164764Y413189D02*
X167126D01*
X142126Y410827D02*
X144488D01*
X142126Y413189D02*
X144488D01*
X119488Y410827D02*
X121850D01*
X119488Y413189D02*
X121850D01*
X184203Y386614D02*
Y384252D01*
X186565Y386614D02*
Y384252D01*
X138927Y386614D02*
Y384252D01*
X141289Y386614D02*
Y384252D01*
X116289Y386614D02*
Y384252D01*
X118652Y386614D02*
Y384252D01*
X190502D02*
Y386614D01*
X188140Y384252D02*
Y386614D01*
X145226Y384252D02*
Y386614D01*
X142864Y384252D02*
Y386614D01*
X122589Y384252D02*
Y386614D01*
X120226Y384252D02*
Y386614D01*
X165404Y416388D02*
X163041D01*
X165404Y414026D02*
X163041D01*
X142766Y416388D02*
X140404D01*
X142766Y414026D02*
X140404D01*
X120128Y416388D02*
X117766D01*
X120128Y414026D02*
X117766D01*
X194783Y395472D02*
Y393110D01*
X197146Y395472D02*
Y393110D01*
X172146Y395472D02*
Y393110D01*
X174508Y395472D02*
Y393110D01*
X149508Y395472D02*
Y393110D01*
X151870Y395472D02*
Y393110D01*
X126870Y395472D02*
Y393110D01*
X129232Y395472D02*
Y393110D01*
X219144Y301722D02*
Y304085D01*
X216781Y301722D02*
Y304085D01*
X254577Y334350D02*
X252215D01*
X254577Y331988D02*
X252215D01*
X216781Y345423D02*
Y343061D01*
X219144Y345423D02*
Y343061D01*
X284596Y323622D02*
Y325984D01*
X282234Y323622D02*
Y325984D01*
X277067Y344931D02*
Y342569D01*
X279429Y344931D02*
Y342569D01*
X277559Y307283D02*
Y304921D01*
X279921Y307283D02*
Y304921D01*
X250148Y291535D02*
X247785D01*
X250148Y289173D02*
X247785D01*
X234646Y296457D02*
X232283D01*
X234646Y294094D02*
X232283D01*
X223819Y320177D02*
Y322539D01*
X221457Y320177D02*
Y322539D01*
X279331Y372933D02*
Y375295D01*
X276969Y372933D02*
Y375295D01*
X291880Y406398D02*
Y408760D01*
X289518Y406398D02*
Y408760D01*
X256398Y346260D02*
Y342323D01*
X251280*
X256398Y349803D02*
Y353740D01*
X251280*
Y346063D02*
Y350000D01*
X284178Y372023D02*
X292052D01*
Y376698*
X284178*
Y372023*
X286159Y375344D02*
G03X286159I-628J0D01*
G01X261540Y372023D02*
X269414D01*
Y376698*
X261540*
Y372023*
X263521Y375344D02*
G03X263521I-627J0D01*
G01X238903Y372023D02*
X246777D01*
Y376698*
X238903*
Y372023*
X240883Y375344D02*
G03X240883I-627J0D01*
G01X216265Y372023D02*
X224139D01*
Y376698*
X216265*
Y372023*
X218245Y375344D02*
G03X218245I-627J0D01*
G01X269242Y406398D02*
Y408760D01*
X266880Y406398D02*
Y408760D01*
X246604Y406398D02*
Y408760D01*
X244242Y406398D02*
Y408760D01*
X223967Y406398D02*
Y408760D01*
X221604Y406398D02*
Y408760D01*
X258022Y391142D02*
X260384D01*
X258022Y393504D02*
X260384D01*
X235384Y391142D02*
X237746D01*
X235384Y393504D02*
X237746D01*
X212746Y391142D02*
X215108D01*
X212746Y393504D02*
X215108D01*
X280659Y391142D02*
X283022D01*
X280659Y393504D02*
X283022D01*
X268996Y384252D02*
Y386614D01*
X266634Y384252D02*
Y386614D01*
X246358Y384252D02*
Y386614D01*
X243996Y384252D02*
Y386614D01*
X223720Y384252D02*
Y386614D01*
X221358Y384252D02*
Y386614D01*
X291634Y384252D02*
Y386614D01*
X289272Y384252D02*
Y386614D01*
X265797Y416978D02*
Y419341D01*
X263435Y416978D02*
Y419341D01*
X243159Y416978D02*
Y419341D01*
X240797Y416978D02*
Y419341D01*
X220522Y416978D02*
Y419341D01*
X218159Y416978D02*
Y419341D01*
X288435Y416978D02*
Y419341D01*
X286073Y416978D02*
Y419341D01*
X254724Y340846D02*
X252362D01*
X254724Y338484D02*
X252362D01*
X264272Y353789D02*
Y351427D01*
X266634Y353789D02*
Y351427D01*
X281201Y325197D02*
Y328346D01*
X277264Y325236D02*
Y328386D01*
X280463Y343848D02*
Y340699D01*
X284400Y343809D02*
Y340659D01*
X280955Y306201D02*
Y303051D01*
X284892Y306161D02*
Y303012D01*
X250787Y296506D02*
X247638D01*
X250748Y292569D02*
X247598D01*
X233317Y293061D02*
X230167D01*
X233278Y289124D02*
X230128D01*
X224114Y303051D02*
Y306201D01*
X220177Y303091D02*
Y306240D01*
X220423Y322244D02*
Y325394D01*
X216486Y322283D02*
Y325433D01*
X220423Y343356D02*
Y340207D01*
X224360Y343317D02*
Y340167D01*
X259990Y324606D02*
Y326969D01*
X257628Y324606D02*
Y326969D01*
X252362Y335039D02*
X254724D01*
X252362Y337402D02*
X254724D01*
X266634Y419341D02*
Y416978D01*
X268996Y419341D02*
Y416978D01*
X243996Y419341D02*
Y416978D01*
X246358Y419341D02*
Y416978D01*
X221358Y419341D02*
Y416978D01*
X223720Y419341D02*
Y416978D01*
X289272Y419341D02*
Y416978D01*
X291634Y419341D02*
Y416978D01*
X259252Y410827D02*
X261614D01*
X259252Y413189D02*
X261614D01*
X236614Y410827D02*
X238976D01*
X236614Y413189D02*
X238976D01*
X213976Y410827D02*
X216339D01*
X213976Y413189D02*
X216339D01*
X281890Y410827D02*
X284252D01*
X281890Y413189D02*
X284252D01*
X256053Y386614D02*
Y384252D01*
X258415Y386614D02*
Y384252D01*
X233415Y386614D02*
Y384252D01*
X235778Y386614D02*
Y384252D01*
X210778Y386614D02*
Y384252D01*
X213140Y386614D02*
Y384252D01*
X278691Y386614D02*
Y384252D01*
X281053Y386614D02*
Y384252D01*
X262352D02*
Y386614D01*
X259990Y384252D02*
Y386614D01*
X239715Y384252D02*
Y386614D01*
X237352Y384252D02*
Y386614D01*
X217077Y384252D02*
Y386614D01*
X214715Y384252D02*
Y386614D01*
X284990Y384252D02*
Y386614D01*
X282628Y384252D02*
Y386614D01*
X259892Y416388D02*
X257530D01*
X259892Y414026D02*
X257530D01*
X237254Y416388D02*
X234892D01*
X237254Y414026D02*
X234892D01*
X214616Y416388D02*
X212254D01*
X214616Y414026D02*
X212254D01*
X282530Y416388D02*
X280167D01*
X282530Y414026D02*
X280167D01*
X266634Y395472D02*
Y393110D01*
X268996Y395472D02*
Y393110D01*
X243996Y395472D02*
Y393110D01*
X246358Y395472D02*
Y393110D01*
X221358Y395472D02*
Y393110D01*
X223720Y395472D02*
Y393110D01*
X289272Y395472D02*
Y393110D01*
X291634Y395472D02*
Y393110D01*
X350886Y346260D02*
Y342323D01*
X345768*
X350886Y349803D02*
Y353740D01*
X345768*
Y346063D02*
Y350000D01*
X378666Y372023D02*
X386540D01*
Y376698*
X378666*
Y372023*
X380647Y375344D02*
G03X380647I-627J0D01*
G01X356029Y372023D02*
X363903D01*
Y376698*
X356029*
Y372023*
X358009Y375344D02*
G03X358009I-627J0D01*
G01X333391Y372023D02*
X341265D01*
Y376698*
X333391*
Y372023*
X335371Y375344D02*
G03X335371I-627J0D01*
G01X310753Y372023D02*
X318627D01*
Y376698*
X310753*
Y372023*
X312734Y375344D02*
G03X312734I-628J0D01*
G01X349065Y334350D02*
X346703D01*
X349065Y331988D02*
X346703D01*
X311270Y345423D02*
Y343061D01*
X313632Y345423D02*
Y343061D01*
X379085Y323622D02*
Y325984D01*
X376722Y323622D02*
Y325984D01*
X371555Y344931D02*
Y342569D01*
X373917Y344931D02*
Y342569D01*
X372047Y307283D02*
Y304921D01*
X374409Y307283D02*
Y304921D01*
X344636Y291535D02*
X342274D01*
X344636Y289173D02*
X342274D01*
X329134Y296457D02*
X326772D01*
X329134Y294094D02*
X326772D01*
X313632Y301722D02*
Y304085D01*
X311270Y301722D02*
Y304085D01*
X318307Y320177D02*
Y322539D01*
X315945Y320177D02*
Y322539D01*
X386368Y406398D02*
Y408760D01*
X384006Y406398D02*
Y408760D01*
X363730Y406398D02*
Y408760D01*
X361368Y406398D02*
Y408760D01*
X341093Y406398D02*
Y408760D01*
X338730Y406398D02*
Y408760D01*
X318455Y406398D02*
Y408760D01*
X316093Y406398D02*
Y408760D01*
X375148Y391142D02*
X377510D01*
X375148Y393504D02*
X377510D01*
X352510Y391142D02*
X354872D01*
X352510Y393504D02*
X354872D01*
X329872Y391142D02*
X332234D01*
X329872Y393504D02*
X332234D01*
X307234Y391142D02*
X309596D01*
X307234Y393504D02*
X309596D01*
X386122Y384252D02*
Y386614D01*
X383760Y384252D02*
Y386614D01*
X363484Y384252D02*
Y386614D01*
X361122Y384252D02*
Y386614D01*
X340846Y384252D02*
Y386614D01*
X338484Y384252D02*
Y386614D01*
X318209Y384252D02*
Y386614D01*
X315846Y384252D02*
Y386614D01*
X382923Y416978D02*
Y419341D01*
X380561Y416978D02*
Y419341D01*
X360285Y416978D02*
Y419341D01*
X357923Y416978D02*
Y419341D01*
X337648Y416978D02*
Y419341D01*
X335285Y416978D02*
Y419341D01*
X315010Y416978D02*
Y419341D01*
X312648Y416978D02*
Y419341D01*
X349213Y340846D02*
X346850D01*
X349213Y338484D02*
X346850D01*
X345472Y354823D02*
X347835D01*
X345472Y357185D02*
X347835D01*
X314911Y343356D02*
Y340207D01*
X318848Y343317D02*
Y340167D01*
X375689Y325197D02*
Y328346D01*
X371752Y325236D02*
Y328386D01*
X374951Y343848D02*
Y340699D01*
X378888Y343809D02*
Y340659D01*
X375443Y306201D02*
Y303051D01*
X379380Y306161D02*
Y303012D01*
X345276Y296506D02*
X342126D01*
X345236Y292569D02*
X342087D01*
X327805Y293061D02*
X324656D01*
X327766Y289124D02*
X324616D01*
X318602Y303051D02*
Y306201D01*
X314665Y303091D02*
Y306240D01*
X314911Y322244D02*
Y325394D01*
X310974Y322283D02*
Y325433D01*
X354478Y324606D02*
Y326969D01*
X352116Y324606D02*
Y326969D01*
X346850Y335039D02*
X349213D01*
X346850Y337402D02*
X349213D01*
X383760Y419341D02*
Y416978D01*
X386122Y419341D02*
Y416978D01*
X361122Y419341D02*
Y416978D01*
X363484Y419341D02*
Y416978D01*
X338484Y419341D02*
Y416978D01*
X340846Y419341D02*
Y416978D01*
X315846Y419341D02*
Y416978D01*
X318209Y419341D02*
Y416978D01*
X376378Y410827D02*
X378740D01*
X376378Y413189D02*
X378740D01*
X353740Y410827D02*
X356102D01*
X353740Y413189D02*
X356102D01*
X331102Y410827D02*
X333465D01*
X331102Y413189D02*
X333465D01*
X308465Y410827D02*
X310827D01*
X308465Y413189D02*
X310827D01*
X373179Y386614D02*
Y384252D01*
X375541Y386614D02*
Y384252D01*
X350541Y386614D02*
Y384252D01*
X352904Y386614D02*
Y384252D01*
X327904Y386614D02*
Y384252D01*
X330266Y386614D02*
Y384252D01*
X305266Y386614D02*
Y384252D01*
X307628Y386614D02*
Y384252D01*
X379478D02*
Y386614D01*
X377116Y384252D02*
Y386614D01*
X356841Y384252D02*
Y386614D01*
X354478Y384252D02*
Y386614D01*
X334203Y384252D02*
Y386614D01*
X331841Y384252D02*
Y386614D01*
X311565Y384252D02*
Y386614D01*
X309203Y384252D02*
Y386614D01*
X377018Y416388D02*
X374656D01*
X377018Y414026D02*
X374656D01*
X354380Y416388D02*
X352018D01*
X354380Y414026D02*
X352018D01*
X331742Y416388D02*
X329380D01*
X331742Y414026D02*
X329380D01*
X309104Y416388D02*
X306742D01*
X309104Y414026D02*
X306742D01*
X383760Y395472D02*
Y393110D01*
X386122Y395472D02*
Y393110D01*
X361122Y395472D02*
Y393110D01*
X363484Y395472D02*
Y393110D01*
X338484Y395472D02*
Y393110D01*
X340846Y395472D02*
Y393110D01*
X315846Y395472D02*
Y393110D01*
X318209Y395472D02*
Y393110D01*
X445374Y346260D02*
Y342323D01*
X440256*
X445374Y349803D02*
Y353740D01*
X440256*
Y346063D02*
Y350000D01*
X473155Y372023D02*
X481029D01*
Y376698*
X473155*
Y372023*
X475135Y375344D02*
G03X475135I-627J0D01*
G01X450517Y372023D02*
X458391D01*
Y376698*
X450517*
Y372023*
X452497Y375344D02*
G03X452497I-627J0D01*
G01X427879Y372023D02*
X435753D01*
Y376698*
X427879*
Y372023*
X429860Y375344D02*
G03X429860I-628J0D01*
G01X405241Y372023D02*
X413115D01*
Y376698*
X405241*
Y372023*
X407222Y375344D02*
G03X407222I-628J0D01*
G01X443553Y334350D02*
X441191D01*
X443553Y331988D02*
X441191D01*
X405758Y345423D02*
Y343061D01*
X408120Y345423D02*
Y343061D01*
X473573Y323622D02*
Y325984D01*
X471211Y323622D02*
Y325984D01*
X466043Y344931D02*
Y342569D01*
X468406Y344931D02*
Y342569D01*
X466535Y307283D02*
Y304921D01*
X468898Y307283D02*
Y304921D01*
X439124Y291535D02*
X436762D01*
X439124Y289173D02*
X436762D01*
X423622Y296457D02*
X421260D01*
X423622Y294094D02*
X421260D01*
X408120Y301722D02*
Y304085D01*
X405758Y301722D02*
Y304085D01*
X412795Y320177D02*
Y322539D01*
X410433Y320177D02*
Y322539D01*
X468307Y372933D02*
Y375295D01*
X465945Y372933D02*
Y375295D01*
X480856Y406398D02*
Y408760D01*
X478494Y406398D02*
Y408760D01*
X458219Y406398D02*
Y408760D01*
X455856Y406398D02*
Y408760D01*
X435581Y406398D02*
Y408760D01*
X433219Y406398D02*
Y408760D01*
X412943Y406398D02*
Y408760D01*
X410581Y406398D02*
Y408760D01*
X469636Y391142D02*
X471998D01*
X469636Y393504D02*
X471998D01*
X446998Y391142D02*
X449360D01*
X446998Y393504D02*
X449360D01*
X424360Y391142D02*
X426722D01*
X424360Y393504D02*
X426722D01*
X401722Y391142D02*
X404085D01*
X401722Y393504D02*
X404085D01*
X480610Y384252D02*
Y386614D01*
X478248Y384252D02*
Y386614D01*
X457972Y384252D02*
Y386614D01*
X455610Y384252D02*
Y386614D01*
X435335Y384252D02*
Y386614D01*
X432972Y384252D02*
Y386614D01*
X412697Y384252D02*
Y386614D01*
X410335Y384252D02*
Y386614D01*
X477411Y416978D02*
Y419341D01*
X475049Y416978D02*
Y419341D01*
X454774Y416978D02*
Y419341D01*
X452411Y416978D02*
Y419341D01*
X432136Y416978D02*
Y419341D01*
X429774Y416978D02*
Y419341D01*
X409498Y416978D02*
Y419341D01*
X407136Y416978D02*
Y419341D01*
X443701Y340846D02*
X441339D01*
X443701Y338484D02*
X441339D01*
X439961Y354823D02*
X442323D01*
X439961Y357185D02*
X442323D01*
X195944Y338806D02*
Y336444D01*
X198306Y338806D02*
Y336444D01*
X197681Y345694D02*
Y348056D01*
X195319Y345694D02*
Y348056D01*
X272681Y258181D02*
X270319D01*
X272681Y255819D02*
X270319D01*
X288806Y345694D02*
Y348056D01*
X286444Y345694D02*
Y348056D01*
X380819Y338931D02*
Y336569D01*
X383181Y338931D02*
Y336569D01*
Y345696D02*
Y348058D01*
X380819Y345696D02*
Y348058D01*
X475444Y338929D02*
Y336567D01*
X477806Y338929D02*
Y336567D01*
Y345819D02*
Y348181D01*
X475444Y345819D02*
Y348181D01*
X409400Y343356D02*
Y340207D01*
X413337Y343317D02*
Y340167D01*
X470177Y325197D02*
Y328346D01*
X466240Y325236D02*
Y328386D01*
X469439Y343848D02*
Y340699D01*
X473376Y343809D02*
Y340659D01*
X469931Y306201D02*
Y303051D01*
X473868Y306161D02*
Y303012D01*
X439764Y296506D02*
X436614D01*
X439724Y292569D02*
X436575D01*
X422293Y293061D02*
X419144D01*
X422254Y289124D02*
X419104D01*
X413091Y303051D02*
Y306201D01*
X409154Y303091D02*
Y306240D01*
X409400Y322244D02*
Y325394D01*
X405463Y322283D02*
Y325433D01*
X448967Y324606D02*
Y326969D01*
X446604Y324606D02*
Y326969D01*
X441339Y335039D02*
X443701D01*
X441339Y337402D02*
X443701D01*
X478248Y419341D02*
Y416978D01*
X480610Y419341D02*
Y416978D01*
X455610Y419341D02*
Y416978D01*
X457972Y419341D02*
Y416978D01*
X432972Y419341D02*
Y416978D01*
X435335Y419341D02*
Y416978D01*
X410335Y419341D02*
Y416978D01*
X412697Y419341D02*
Y416978D01*
X470866Y410827D02*
X473228D01*
X470866Y413189D02*
X473228D01*
X448228Y410827D02*
X450591D01*
X448228Y413189D02*
X450591D01*
X425591Y410827D02*
X427953D01*
X425591Y413189D02*
X427953D01*
X402953Y410827D02*
X405315D01*
X402953Y413189D02*
X405315D01*
X467667Y386614D02*
Y384252D01*
X470030Y386614D02*
Y384252D01*
X445030Y386614D02*
Y384252D01*
X447392Y386614D02*
Y384252D01*
X422392Y386614D02*
Y384252D01*
X424754Y386614D02*
Y384252D01*
X399754Y386614D02*
Y384252D01*
X402116Y386614D02*
Y384252D01*
X473967D02*
Y386614D01*
X471604Y384252D02*
Y386614D01*
X451329Y384252D02*
Y386614D01*
X448967Y384252D02*
Y386614D01*
X428691Y384252D02*
Y386614D01*
X426329Y384252D02*
Y386614D01*
X406053Y384252D02*
Y386614D01*
X403691Y384252D02*
Y386614D01*
X471506Y416388D02*
X469144D01*
X471506Y414026D02*
X469144D01*
X448868Y416388D02*
X446506D01*
X448868Y414026D02*
X446506D01*
X426230Y416388D02*
X423868D01*
X426230Y414026D02*
X423868D01*
X403593Y416388D02*
X401230D01*
X403593Y414026D02*
X401230D01*
X478248Y395472D02*
Y393110D01*
X480610Y395472D02*
Y393110D01*
X455610Y395472D02*
Y393110D01*
X457972Y395472D02*
Y393110D01*
X432972Y395472D02*
Y393110D01*
X435335Y395472D02*
Y393110D01*
X410335Y395472D02*
Y393110D01*
X412697Y395472D02*
Y393110D01*
X220768Y137697D02*
Y140059D01*
X218406Y137697D02*
Y140059D01*
X203460Y354975D02*
Y357337D01*
X201098Y354975D02*
Y357337D01*
X392929Y355649D02*
Y358011D01*
X390567Y355649D02*
Y358011D01*
X178831Y125945D02*
X174894D01*
Y131063*
X182374Y125945D02*
X186311D01*
Y131063*
X178634D02*
X182571D01*
X380118Y241732D02*
X382480D01*
X380118Y244094D02*
X382480D01*
X170715Y129458D02*
Y127096D01*
X173077Y129458D02*
Y127096D01*
X189219Y129458D02*
Y127096D01*
X191582Y129458D02*
Y127096D01*
X456004Y221752D02*
X453642D01*
X456004Y219390D02*
X453642D01*
X165006Y128868D02*
Y125718D01*
X168943Y128828D02*
Y125679D01*
X205062Y436841D02*
X198662D01*
X205062Y429951D02*
X198662D01*
X389264Y429732D02*
X395664D01*
X389264Y436622D02*
X395664D01*
X183612Y399016D02*
Y405315D01*
X195030Y399016D02*
Y405315D01*
X196211Y400689D02*
G03X196211I-985J0D01*
G01X255463Y399016D02*
Y405315D01*
X266880Y399016D02*
Y405315D01*
X268061Y400689D02*
G03X268061I-984J0D01*
G01X232825Y399016D02*
Y405315D01*
X244242Y399016D02*
Y405315D01*
X245423Y400689D02*
G03X245423I-984J0D01*
G01X210187Y399016D02*
Y405315D01*
X221604Y399016D02*
Y405315D01*
X222785Y400689D02*
G03X222785I-984J0D01*
G01X372589Y399016D02*
Y405315D01*
X384006Y399016D02*
Y405315D01*
X385187Y400689D02*
G03X385187I-984J0D01*
G01X349951Y399016D02*
Y405315D01*
X361368Y399016D02*
Y405315D01*
X362549Y400689D02*
G03X362549I-984J0D01*
G01X327313Y399016D02*
Y405315D01*
X338730Y399016D02*
Y405315D01*
X339911Y400689D02*
G03X339911I-984J0D01*
G01X304675Y399016D02*
Y405315D01*
X316093Y399016D02*
Y405315D01*
X317274Y400689D02*
G03X317274I-985J0D01*
G01X467077Y399016D02*
Y405315D01*
X478494Y399016D02*
Y405315D01*
X479675Y400689D02*
G03X479675I-984J0D01*
G01X444439Y399016D02*
Y405315D01*
X455856Y399016D02*
Y405315D01*
X457037Y400689D02*
G03X457037I-984J0D01*
G01X421801Y399016D02*
Y405315D01*
X433219Y399016D02*
Y405315D01*
X434400Y400689D02*
G03X434400I-985J0D01*
G01X160974Y399016D02*
Y405315D01*
X172392Y399016D02*
Y405315D01*
X173573Y400689D02*
G03X173573I-984J0D01*
G01X399163Y399016D02*
Y405315D01*
X410581Y399016D02*
Y405315D01*
X411762Y400689D02*
G03X411762I-984J0D01*
G01X138337Y399016D02*
Y405315D01*
X149754Y399016D02*
Y405315D01*
X150935Y400689D02*
G03X150935I-984J0D01*
G01X115699Y399016D02*
Y405315D01*
X127116Y399016D02*
Y405315D01*
X128297Y400689D02*
G03X128297I-984J0D01*
G01X278100Y399016D02*
Y405315D01*
X289518Y399016D02*
Y405315D01*
X290699Y400689D02*
G03X290699I-984J0D01*
G01X162156Y325246D02*
Y318947D01*
X150738Y325246D02*
Y318947D01*
X151526Y323573D02*
G03X151526I-985J0D01*
G01X256644Y325246D02*
Y318947D01*
X245226Y325246D02*
Y318947D01*
X246014Y323573D02*
G03X246014I-984J0D01*
G01X351132Y325246D02*
Y318947D01*
X339715Y325246D02*
Y318947D01*
X340502Y323573D02*
G03X340502I-984J0D01*
G01X445620Y325246D02*
Y318947D01*
X434203Y325246D02*
Y318947D01*
X434990Y323573D02*
G03X434990I-984J0D01*
G01X379921Y112992D02*
Y109055D01*
X374803*
X379921Y116535D02*
Y120472D01*
X374803*
Y112795D02*
Y116732D01*
X373819Y372933D02*
Y375295D01*
X371457Y372933D02*
Y375295D01*
X351181Y372933D02*
Y375295D01*
X348819Y372933D02*
Y375295D01*
X328543Y372933D02*
Y375295D01*
X326181Y372933D02*
Y375295D01*
X305906Y372933D02*
Y375295D01*
X303543Y372933D02*
Y375295D01*
X256693Y372933D02*
Y375295D01*
X254331Y372933D02*
Y375295D01*
X234055Y372933D02*
Y375295D01*
X231693Y372933D02*
Y375295D01*
X211417Y372933D02*
Y375295D01*
X209055Y372933D02*
Y375295D01*
X139567Y372933D02*
Y375295D01*
X137205Y372933D02*
Y375295D01*
X116929Y372933D02*
Y375295D01*
X114567Y372933D02*
Y375295D01*
X445669Y372933D02*
Y375295D01*
X443307Y372933D02*
Y375295D01*
X423031Y372933D02*
Y375295D01*
X420669Y372933D02*
Y375295D01*
X400394Y372933D02*
Y375295D01*
X398031Y372933D02*
Y375295D01*
X162205Y372933D02*
Y375295D01*
X159843Y372933D02*
Y375295D01*
X178051Y296457D02*
X175689D01*
X178051Y294094D02*
X175689D01*
X169783Y353789D02*
Y351427D01*
X172146Y353789D02*
Y351427D01*
X176476Y293307D02*
X173327D01*
X176437Y289370D02*
X173287D01*
X272539Y296457D02*
X270177D01*
X272539Y294094D02*
X270177D01*
X250984Y354823D02*
X253346D01*
X250984Y357185D02*
X253346D01*
X270965Y293307D02*
X267815D01*
X270925Y289370D02*
X267776D01*
X138287Y353789D02*
Y351427D01*
X140650Y353789D02*
Y351427D01*
X232776Y353789D02*
Y351427D01*
X235138Y353789D02*
Y351427D01*
X367028Y296457D02*
X364665D01*
X367028Y294094D02*
X364665D01*
X358760Y353789D02*
Y351427D01*
X361122Y353789D02*
Y351427D01*
X327264Y353789D02*
Y351427D01*
X329626Y353789D02*
Y351427D01*
X365453Y293307D02*
X362303D01*
X365413Y289370D02*
X362264D01*
X453248Y353789D02*
Y351427D01*
X455610Y353789D02*
Y351427D01*
X421752Y353789D02*
Y351427D01*
X424114Y353789D02*
Y351427D01*
X461516Y296457D02*
X459154D01*
X461516Y294094D02*
X459154D01*
X459941Y293307D02*
X456791D01*
X459902Y289370D02*
X456752D01*
X397539Y353002D02*
X399902D01*
X397539Y355364D02*
X399902D01*
X207579Y352510D02*
X209941D01*
X207579Y354872D02*
X209941D01*
X224803Y135236D02*
X227165D01*
X224803Y137598D02*
X227165D01*
X120374Y372933D02*
Y375295D01*
X118012Y372933D02*
Y375295D01*
X188287Y372933D02*
Y375295D01*
X185925Y372933D02*
Y375295D01*
X165650Y372933D02*
Y375295D01*
X163287Y372933D02*
Y375295D01*
X143012Y372933D02*
Y375295D01*
X140650Y372933D02*
Y375295D01*
X282776Y372933D02*
Y375295D01*
X280413Y372933D02*
Y375295D01*
X260138Y372933D02*
Y375295D01*
X257776Y372933D02*
Y375295D01*
X237500Y372933D02*
Y375295D01*
X235138Y372933D02*
Y375295D01*
X214862Y372933D02*
Y375295D01*
X212500Y372933D02*
Y375295D01*
X377264Y372933D02*
Y375295D01*
X374902Y372933D02*
Y375295D01*
X354626Y372933D02*
Y375295D01*
X352264Y372933D02*
Y375295D01*
X331988Y372933D02*
Y375295D01*
X329626Y372933D02*
Y375295D01*
X309350Y372933D02*
Y375295D01*
X306988Y372933D02*
Y375295D01*
X471752Y372933D02*
Y375295D01*
X469390Y372933D02*
Y375295D01*
X449114Y372933D02*
Y375295D01*
X446752Y372933D02*
Y375295D01*
X426476Y372933D02*
Y375295D01*
X424114Y372933D02*
Y375295D01*
X403839Y372933D02*
Y375295D01*
X401476Y372933D02*
Y375295D01*
X130819Y145819D02*
X133181D01*
X130819Y148181D02*
X133181D01*
X137447Y134396D02*
Y132033D01*
X139809Y134396D02*
Y132033D01*
X148031Y134154D02*
Y131791D01*
X150394Y134154D02*
Y131791D01*
X300161Y248500D02*
Y273795D01*
X282642*
Y253224*
X287366Y248500*
X300161*
X276181Y266319D02*
Y268681D01*
X273819Y266319D02*
Y268681D01*
X413181Y138681D02*
X410819D01*
X413181Y136319D02*
X410819D01*
X286444Y338931D02*
Y336569D01*
X288806Y338931D02*
Y336569D01*
X413575Y144969D02*
X410425D01*
X413535Y141031D02*
X410386D01*
X411075Y121469D02*
X407925D01*
X411035Y117531D02*
X407886D01*
X417866Y113484D02*
Y111516D01*
X416636Y112500D02*
X419096D01*
X474720Y104591D02*
Y104091D01*
X435720*
Y147091*
X474720*
Y146591*
X413181Y133181D02*
X410819D01*
X413181Y130819D02*
X410819D01*
X272681Y249181D02*
X270319D01*
X272681Y246819D02*
X270319D01*
X272681Y253681D02*
X270319D01*
X272681Y251319D02*
X270319D01*
X266681Y262319D02*
Y264681D01*
X264319Y262319D02*
Y264681D01*
X271681Y263819D02*
Y266181D01*
X269319Y263819D02*
Y266181D01*
X310181Y264319D02*
Y266681D01*
X307819Y264319D02*
Y266681D01*
X315181Y262319D02*
Y264681D01*
X312819Y262319D02*
Y264681D01*
X310819Y255819D02*
X313181D01*
X310819Y258181D02*
X313181D01*
X310819Y251319D02*
X313181D01*
X310819Y253681D02*
X313181D01*
X114016Y187193D02*
Y189693D01*
X113902Y190162*
X113788Y190318*
X113561Y190474*
X113334*
X113107Y190318*
X112993Y190162*
X112879Y189693*
Y189381*
X116402Y187662D02*
X116288Y187349D01*
X115947Y187193*
X115720*
X115379Y187349*
X115152Y187818*
X115038Y188599*
Y189381*
X115038D02*
X115152Y190006D01*
X115152D02*
X115379Y190318D01*
X115720Y190474*
X115834*
X116175Y190318*
X116402Y190006*
X116402D02*
X116516Y189537D01*
Y189381*
X116516D02*
X116402Y188912D01*
X116175Y188599*
X115834Y188443*
X115720*
X115379Y188599*
X115152Y188912*
X115038Y189381*
X301275Y237314D02*
Y239814D01*
X301161Y240283*
X301047Y240439*
X300820Y240595*
X300593*
X300366Y240439*
X300252Y240283*
X300138Y239814*
Y239502*
X303888Y237314D02*
X302752Y240595D01*
X302297Y237314D02*
X303888D01*
X125285Y238279D02*
Y240779D01*
X125172Y241247*
X125172D02*
X125058Y241404D01*
X124831Y241560*
X124603*
X124376Y241404*
X124262Y241247*
X124262D02*
X124149Y240779D01*
Y240466*
X127785Y238279D02*
X126649D01*
X126535Y239685*
X126649Y239529*
X126990Y239372*
X126990D02*
X127331D01*
X127331D02*
X127672Y239529D01*
X127899Y239841*
X128012Y240310*
X127899Y240622*
X127899D02*
X127785Y241091D01*
X127558Y241404*
X127217Y241560*
X126876*
X126535Y241404*
X126422Y241247*
X126422D02*
X126308Y240935D01*
X317174Y186388D02*
Y188888D01*
X317060Y189357*
X316947Y189513*
X316719Y189670*
X316492*
X316265Y189513*
X316151Y189357*
X316038Y188888*
Y188576*
X318765Y186388D02*
X318424Y186545D01*
X318310Y186857*
Y187170*
X318424Y187482*
X318651Y187638*
X319106Y187795*
X319447Y187951*
X319674Y188263*
X319788Y188576*
Y189045*
X319674Y189357*
X319560Y189513*
X319219Y189670*
X318765*
X318424Y189513*
X318310Y189357*
X318197Y189045*
Y188576*
X318310Y188263*
X318538Y187951*
X318879Y187795*
X319333Y187638*
X319560Y187482*
X319674Y187170*
Y186857*
X319560Y186545*
X319219Y186388*
X318765*
X168159Y333249D02*
X168248Y333495D01*
X168427Y333741*
X168606Y333864*
X168964*
X169143Y333741*
X169322Y333495*
X169411Y333249*
X169501Y332880*
Y332265*
X169411Y331896*
X169322Y331649*
X169143Y331403*
X168964Y331280*
X168606*
X168427Y331403*
X168248Y331649*
X168159Y331896*
X166190Y333003D02*
X166280Y332634D01*
X166459Y332388*
X166727Y332265*
X166817*
X167085Y332388*
X167264Y332634*
X167353Y333003*
Y333126*
X167264Y333495*
X167085Y333741*
X166817Y333864*
X166727*
X166459Y333741*
X166280Y333495*
X166190Y333003*
Y332388*
X166280Y331772*
X166459Y331403*
X166727Y331280*
X166906*
X167174Y331403*
X167264Y331649*
X168971Y337260D02*
Y334677D01*
Y337260D02*
X168166D01*
X167897Y337137*
X167808Y337014*
X167718Y336768*
Y336522*
X167808Y336276*
X167897Y336153*
X168166Y336030*
X168971*
X168345D02*
X167718Y334677D01*
X166197Y337260D02*
X166913Y334677D01*
X166197Y337260D02*
X165481Y334677D01*
X166644Y335538D02*
X165750D01*
X163513Y337260D02*
X164408D01*
X164497Y336153*
X164408Y336276*
X164139Y336399*
X163871*
X163602Y336276*
X163423Y336030*
X163334Y335661*
X163423Y335415*
X163513Y335046*
X163692Y334800*
X163960Y334677*
X164229*
X164497Y334800*
X164586Y334923*
X164676Y335169*
X169483Y320891D02*
Y317610D01*
Y320891D02*
X168460D01*
X168119Y320735*
X168005Y320579*
X167892Y320266*
Y319954*
X168005Y319641*
X168119Y319485*
X168460Y319329*
X169483*
X168687D02*
X167892Y317610D01*
X165960Y320891D02*
X166869Y317610D01*
X165960Y320891D02*
X165051Y317610D01*
X166528Y318704D02*
X165392D01*
X164028Y320266D02*
X163801Y320422D01*
X163460Y320891*
Y317610*
X118112Y342827D02*
X118226Y343139D01*
X118453Y343452*
X118680Y343608*
X119135*
X119362Y343452*
X119589Y343139*
X119703Y342827*
X119816Y342358*
Y341577*
X119703Y341108*
X119589Y340795*
X119362Y340483*
X119135Y340327*
X118680*
X118453Y340483*
X118226Y340795*
X118112Y341108*
X117089Y342983D02*
X116862Y343139D01*
X116521Y343608*
Y340327*
X193671Y325657D02*
X193784Y325970D01*
X194011Y326282*
X194239Y326438*
X194693*
X194921Y326282*
X195148Y325970*
X195261Y325657*
X195375Y325188*
Y324407*
X195261Y323938*
X195148Y323626*
X194921Y323313*
X194693Y323157*
X194239*
X194011Y323313*
X193784Y323626*
X193671Y323938*
X192534Y325657D02*
Y325813D01*
X192421Y326126*
X192307Y326282*
X192080Y326438*
X191625*
X191398Y326282*
X191284Y326126*
X191171Y325813*
Y325501*
X191284Y325188*
X191511Y324720*
X192648Y323157*
X191057*
X177920Y344500D02*
X178034Y344813D01*
X178261Y345125*
X178489Y345281*
X178943*
X179170Y345125*
X179398Y344813*
X179511Y344500*
X179625Y344031*
Y343250*
X179511Y342781*
X179398Y342469*
X179170Y342156*
X178943Y342000*
X178489*
X178261Y342156*
X178034Y342469*
X177920Y342781*
X176670Y345281D02*
X175420D01*
X176102Y344031*
X175761*
X175534Y343875*
X175420Y343719*
X175307Y343250*
Y342938*
X175420Y342469*
X175648Y342156*
X175989Y342000*
X176330*
X176670Y342156*
X176784Y342313*
X176898Y342625*
X175526Y309429D02*
X175640Y309741D01*
X175867Y310054*
X176095Y310210*
X176549*
X176776Y310054*
X177004Y309741*
X177117Y309429*
X177231Y308960*
Y308179*
X177117Y307710*
X177004Y307397*
X176776Y307085*
X176549Y306929*
X176095*
X175867Y307085*
X175640Y307397*
X175526Y307710*
X173367Y310210D02*
X174504Y308022D01*
X172799*
X173367Y310210D02*
Y306929D01*
X155382Y285571D02*
X155496Y285883D01*
X155723Y286196*
X155950Y286352*
X156405*
X156632Y286196*
X156859Y285883*
X156973Y285571*
X157087Y285102*
Y284321*
X156973Y283852*
X156859Y283540*
X156632Y283227*
X156405Y283071*
X155950*
X155723Y283227*
X155496Y283540*
X155382Y283852*
X152882Y286352D02*
X154018D01*
X154132Y284946*
X154018Y285102*
X153678Y285258*
X153337*
X152996Y285102*
X152768Y284790*
X152655Y284321*
X152768Y284008*
X152882Y283540*
X153109Y283227*
X153450Y283071*
X153791*
X154132Y283227*
X154246Y283383*
X154359Y283696*
X140013Y302166D02*
X140126Y302479D01*
X140354Y302791*
X140581Y302947*
X141036*
X141263Y302791*
X141490Y302479*
X141604Y302166*
X141717Y301697*
Y300916*
X141604Y300447*
X141490Y300135*
X141263Y299822*
X141036Y299666*
X140581*
X140354Y299822*
X140126Y300135*
X140013Y300447*
X137626Y302479D02*
X137740Y302791D01*
X138081Y302947*
X138308*
X138649Y302791*
X138876Y302322*
X138990Y301541*
Y300760*
X138876Y300135*
X138649Y299822*
X138308Y299666*
X138195*
X137854Y299822*
X137626Y300135*
X137513Y300604*
Y300760*
X137626Y301229*
X137854Y301541*
X138195Y301697*
X138308*
X138649Y301541*
X138876Y301229*
X138990Y300760*
X136236Y341923D02*
X136349Y342236D01*
X136577Y342548*
X136804Y342704*
X137258*
X137486Y342548*
X137713Y342236*
X137827Y341923*
X137940Y341454*
Y340673*
X137827Y340204*
X137713Y339892*
X137486Y339579*
X137258Y339423*
X136804*
X136577Y339579*
X136349Y339892*
X136236Y340204*
X134304Y342704D02*
X135213Y339423D01*
X134304Y342704D02*
X133395Y339423D01*
X134872Y340517D02*
X133736D01*
X132372Y342079D02*
X132145Y342236D01*
X131804Y342704*
Y339423*
X177820Y325240D02*
X177933Y325553D01*
X178161Y325865*
X178388Y326021*
X178843*
X179070Y325865*
X179297Y325553*
X179411Y325240*
X179524Y324771*
Y323990*
X179411Y323521*
X179297Y323209*
X179070Y322896*
X178843Y322740*
X178388*
X178161Y322896*
X177933Y323209*
X177820Y323521*
X175888Y326021D02*
X176797Y322740D01*
X175888Y326021D02*
X174979Y322740D01*
X176456Y323834D02*
X175320D01*
X173843Y325240D02*
Y325396D01*
X173729Y325709*
X173615Y325865*
X173388Y326021*
X172933*
X172706Y325865*
X172593Y325709*
X172479Y325396*
Y325084*
X172593Y324771*
X172820Y324303*
X173956Y322740*
X172365*
X190323Y354469D02*
X190437Y354781D01*
X190664Y355094*
X190664D02*
X190891Y355250D01*
X191346*
X191573Y355094*
X191573D02*
X191800Y354781D01*
X191914Y354469*
X191914D02*
X192028Y354000D01*
Y353219*
X192028D02*
X191914Y352750D01*
X191800Y352437*
X191573Y352125*
X191346Y351969*
X191346D02*
X190891D01*
X190891D02*
X190664Y352125D01*
X190437Y352437*
X190323Y352750*
X188391Y355250D02*
X189300Y351969D01*
X188391Y355250D02*
X187482Y351969D01*
X188959Y353062D02*
X187823D01*
X186232Y355250D02*
X184982D01*
X185664Y354000*
X185323*
X185096Y353844*
X185096D02*
X184982Y353687D01*
X184868Y353219*
X184868D02*
Y352906D01*
X184982Y352437*
X185209Y352125*
X185550Y351969*
X185550D02*
X185891D01*
X185891D02*
X186232Y352125D01*
X186346Y352281*
X186459Y352594*
X196629Y303044D02*
X196743Y303356D01*
X196970Y303669*
X197197Y303825*
X197652*
X197879Y303669*
X198106Y303356*
X198220Y303044*
X198334Y302575*
Y301794*
X198220Y301325*
X198106Y301013*
X197879Y300700*
X197652Y300544*
X197197*
X196970Y300700*
X196743Y301013*
X196629Y301325*
X194697Y303825D02*
X195606Y300544D01*
X194697Y303825D02*
X193788Y300544D01*
X195265Y301638D02*
X194129D01*
X191629Y303825D02*
X192765Y301638D01*
X191061*
X191629Y303825D02*
Y300544D01*
X164102Y299678D02*
X164215Y299991D01*
X164443Y300303*
X164670Y300459*
X165125*
X165352Y300303*
X165579Y299991*
X165693Y299678*
X165806Y299209*
Y298428*
X165693Y297959*
X165579Y297647*
X165352Y297334*
X165125Y297178*
X164670*
X164443Y297334*
X164215Y297647*
X164102Y297959*
X162170Y300459D02*
X163079Y297178D01*
X162170Y300459D02*
X161261Y297178D01*
X162738Y298272D02*
X161602D01*
X158761Y300459D02*
X159897D01*
X160011Y299053*
X159897Y299209*
X159556Y299366*
X159215*
X158875Y299209*
X158647Y298897*
X158534Y298428*
X158647Y298116*
X158761Y297647*
X158988Y297334*
X159329Y297178*
X159670*
X160011Y297334*
X160125Y297491*
X160238Y297803*
X128795Y292000D02*
X128909Y292313D01*
X128909D02*
X129136Y292625D01*
X129364Y292781*
X129818*
X130045Y292625*
X130273Y292313*
X130273D02*
X130386Y292000D01*
X130500Y291531*
Y290750*
X130386Y290281*
X130273Y289969*
X130045Y289656*
X129818Y289500*
X129364*
X129136Y289656*
X128909Y289969*
X128795Y290281*
X126864Y292781D02*
X127773Y289500D01*
X126864Y292781D02*
X125955Y289500D01*
X127432Y290594D02*
X126295D01*
X123568Y292313D02*
X123682Y292625D01*
X124023Y292781*
X124250*
X124591Y292625*
X124818Y292156*
X124932Y291375*
Y290594*
X124818Y289969*
X124591Y289656*
X124250Y289500*
X124136*
X123795Y289656*
X123568Y289969*
X123455Y290438*
X123455D02*
Y290594D01*
X123568Y291063*
X123568D02*
X123795Y291375D01*
X124136Y291531*
X124250*
X124591Y291375*
X124818Y291063*
X124818D02*
X124932Y290594D01*
X117615Y303748D02*
X117728Y304061D01*
X117956Y304373*
X118183Y304529*
X118638*
X118865Y304373*
X119092Y304061*
X119206Y303748*
X119319Y303279*
Y302498*
X119206Y302029*
X119092Y301717*
X118865Y301404*
X118638Y301248*
X118183*
X117956Y301404*
X117728Y301717*
X117615Y302029*
X115001Y304529D02*
X116138Y301248D01*
X116592Y304529D02*
X115001D01*
X136600Y324247D02*
X136714Y324559D01*
X136941Y324872*
X137168Y325028*
X137623*
X137850Y324872*
X138077Y324559*
X138191Y324247*
X138304Y323778*
Y322997*
X138191Y322528*
X138077Y322215*
X137850Y321903*
X137623Y321747*
X137168*
X136941Y321903*
X136714Y322215*
X136600Y322528*
X135009Y325028D02*
X135350Y324872D01*
X135464Y324559*
Y324247*
X135350Y323934*
X135123Y323778*
X134668Y323622*
X134327Y323465*
X134100Y323153*
X133986Y322840*
Y322372*
X134100Y322059*
X134214Y321903*
X134554Y321747*
X135009*
X135350Y321903*
X135464Y322059*
X135577Y322372*
Y322840*
X135464Y323153*
X135236Y323465*
X134895Y323622*
X134441Y323778*
X134214Y323934*
X134100Y324247*
Y324559*
X134214Y324872*
X134554Y325028*
X135009*
X139384Y309403D02*
X139498Y309716D01*
X139725Y310028*
X139953Y310185*
X140407*
X140634Y310028*
X140862Y309716*
X140975Y309403*
X141089Y308935*
Y308153*
X140975Y307685*
X140862Y307372*
X140634Y307060*
X140407Y306903*
X139953*
X139725Y307060*
X139498Y307372*
X139384Y307685*
X137453Y310185D02*
X138362Y306903D01*
X137453Y310185D02*
X136544Y306903D01*
X138021Y307997D02*
X136884D01*
X133930Y310185D02*
X135066Y306903D01*
X135521Y310185D02*
X133930D01*
X119350Y325102D02*
X119463Y325415D01*
X119690Y325727*
X119918Y325883*
X120372*
X120600Y325727*
X120827Y325415*
X120940Y325102*
X121054Y324633*
Y323852*
X120940Y323383*
X120827Y323071*
X120600Y322758*
X120372Y322602*
X119918*
X119690Y322758*
X119463Y323071*
X119350Y323383*
X117418Y325883D02*
X118327Y322602D01*
X117418Y325883D02*
X116509Y322602D01*
X117986Y323696D02*
X116850D01*
X114918Y325883D02*
X115259Y325727D01*
X115372Y325415*
Y325102*
X115259Y324790*
X115031Y324633*
X114577Y324477*
X114236Y324321*
X114009Y324008*
X113895Y323696*
Y323227*
X114009Y322915*
X114122Y322758*
X114463Y322602*
X114918*
X115259Y322758*
X115372Y322915*
X115486Y323227*
Y323696*
X115372Y324008*
X115145Y324321*
X114804Y324477*
X114350Y324633*
X114122Y324790*
X114009Y325102*
Y325415*
X114122Y325727*
X114463Y325883*
X114918*
X366732Y108203D02*
Y104921D01*
Y108203D02*
X365710D01*
X365369Y108046*
X365255Y107890*
X365141Y107578*
Y107265*
X365255Y106953*
X365369Y106796*
X365710Y106640*
X366732*
X365937D02*
X365141Y104921D01*
X364119Y108203D02*
Y104921D01*
Y108203D02*
X363323D01*
X362982Y108046*
X362755Y107734*
X362641Y107421*
X362528Y106953*
Y106171*
X362641Y105703*
X362755Y105390*
X362982Y105078*
X363323Y104921*
X364119*
X361505Y107578D02*
X361278Y107734D01*
X360937Y108203*
Y104921*
X317784Y245217D02*
X317897Y245529D01*
X318125Y245842*
X318352Y245998*
X318806*
X319034Y245842*
X319261Y245529*
X319375Y245217*
X319488Y244748*
Y243967*
X319375Y243498*
X319261Y243185*
X319034Y242873*
X318806Y242717*
X318352*
X318125Y242873*
X317897Y243185*
X317784Y243498*
X316761Y245373D02*
X316534Y245529D01*
X316193Y245998*
Y242717*
X314488Y245998D02*
X314829Y245842D01*
X315056Y245373*
X315170Y244592*
Y244123*
X315056Y243342*
X314829Y242873*
X314488Y242717*
X314261*
X313920Y242873*
X313693Y243342*
X313579Y244123*
Y244592*
X313693Y245373*
X313920Y245842*
X314261Y245998*
X314488*
X312443Y245217D02*
Y245373D01*
X312329Y245685*
X312215Y245842*
X311988Y245998*
X311534*
X311306Y245842*
X311193Y245685*
X311079Y245373*
Y245060*
X311193Y244748*
X311420Y244279*
X312556Y242717*
X310965*
X167943Y340422D02*
X168032Y340668D01*
X168211Y340914*
X168390Y341038*
X168748*
X168927Y340914*
X169106Y340668*
X169195Y340422*
X169285Y340053*
Y339438*
X169195Y339069*
X169106Y338823*
X168927Y338577*
X168748Y338454*
X168390*
X168211Y338577*
X168032Y338823*
X167943Y339069*
X165795Y340422D02*
X165885Y340668D01*
X166064Y340914*
X166243Y341038*
X166601*
X166780Y340914*
X166959Y340668*
X167048Y340422*
X167137Y340053*
Y339438*
X167048Y339069*
X166959Y338823*
X166780Y338577*
X166601Y338454*
X166243*
X166064Y338577*
X165885Y338823*
X165795Y339069*
Y339438*
X166243D02*
X165795D01*
X164990Y340545D02*
X164811Y340668D01*
X164543Y341038*
Y338454*
X150562Y357005D02*
X150675Y357317D01*
X150903Y357630*
X151130Y357786*
X151584*
X151812Y357630*
X152039Y357317*
X152153Y357005*
X152266Y356536*
Y355755*
X152153Y355286*
X152039Y354973*
X151812Y354661*
X151584Y354505*
X151130*
X150903Y354661*
X150675Y354973*
X150562Y355286*
X147834Y357005D02*
X147948Y357317D01*
X148175Y357630*
X148403Y357786*
X148857*
X149084Y357630*
X149312Y357317*
X149425Y357005*
X149539Y356536*
Y355755*
X149425Y355286*
X149312Y354973*
X149084Y354661*
X148857Y354505*
X148403*
X148175Y354661*
X147948Y354973*
X147834Y355286*
Y355755*
X148403D02*
X147834D01*
X146698Y357005D02*
Y357161D01*
X146584Y357473*
X146471Y357630*
X146244Y357786*
X145789*
X145562Y357630*
X145448Y357473*
X145334Y357161*
Y356848*
X145448Y356536*
X145675Y356067*
X146812Y354505*
X145221*
X152434Y348634D02*
X151525Y345353D01*
X150616Y348634D02*
X151525Y345353D01*
X149593Y348634D02*
Y345353D01*
Y348634D02*
X148571D01*
X148230Y348478*
X148116Y348322*
X148002Y348009*
Y347697*
X148116Y347384*
X148230Y347228*
X148571Y347072*
X149593D02*
X148571D01*
X148230Y346916*
X148116Y346759*
X148002Y346447*
Y345978*
X148116Y345666*
X148230Y345509*
X148571Y345353*
X149593*
X146298Y348634D02*
X146639Y348478D01*
X146866Y348009*
X146980Y347228*
Y346759*
X146866Y345978*
X146639Y345509*
X146298Y345353*
X146071*
X145730Y345509*
X145502Y345978*
X145389Y346759*
Y347228*
X145502Y348009*
X145730Y348478*
X146071Y348634*
X146298*
X394291Y129856D02*
Y126575D01*
Y129856D02*
X392814D01*
X394291Y128294D02*
X393382D01*
X394291Y126575D02*
X392814D01*
X391791Y129856D02*
Y126575D01*
Y129856D02*
X390314D01*
X391791Y128294D02*
X390882D01*
X391791Y126575D02*
X390314D01*
X389291Y129856D02*
Y126575D01*
Y129856D02*
X388269D01*
X387928Y129700*
X387814Y129544*
X387700Y129231*
Y128762*
X387814Y128450*
X387928Y128294*
X388269Y128137*
X389291*
X386678Y129856D02*
Y126575D01*
Y129856D02*
X385655D01*
X385314Y129700*
X385200Y129544*
X385087Y129231*
Y128919*
X385200Y128606*
X385314Y128450*
X385655Y128294*
X386678*
X385882D02*
X385087Y126575D01*
X383382Y129856D02*
X383610Y129700D01*
X383837Y129387*
X383950Y129075*
X384064Y128606*
Y127825*
X383950Y127356*
X383837Y127044*
X383610Y126731*
X383382Y126575*
X382928*
X382700Y126731*
X382473Y127044*
X382360Y127356*
X382246Y127825*
Y128606*
X382360Y129075*
X382473Y129387*
X382700Y129700*
X382928Y129856*
X383382*
X381223D02*
Y126575D01*
Y129856D02*
X380314Y126575D01*
X379405Y129856D02*
X380314Y126575D01*
X379405Y129856D02*
Y126575D01*
X479055Y237343D02*
X479168Y237656D01*
X479396Y237968*
X479623Y238124*
X480077*
X480305Y237968*
X480532Y237656*
X480646Y237343*
X480759Y236874*
Y236093*
X480646Y235624*
X480532Y235312*
X480305Y234999*
X480077Y234843*
X479623*
X479396Y234999*
X479168Y235312*
X479055Y235624*
X478032Y237499D02*
X477805Y237656D01*
X477464Y238124*
Y234843*
X476214Y238124D02*
X474964D01*
X475646Y236874*
X475305*
X475077Y236718*
X474964Y236562*
X474850Y236093*
Y235781*
X474964Y235312*
X475191Y234999*
X475532Y234843*
X475873*
X476214Y234999*
X476327Y235156*
X476441Y235468*
X379299Y147776D02*
X379413Y148088D01*
X379640Y148401*
X379868Y148557*
X380322*
X380549Y148401*
X380777Y148088*
X380890Y147776*
X381004Y147307*
Y146526*
X380890Y146057*
X380777Y145744*
X380549Y145432*
X380322Y145276*
X379868*
X379640Y145432*
X379413Y145744*
X379299Y146057*
X378277Y147932D02*
X378049Y148088D01*
X377708Y148557*
Y145276*
X376572Y147776D02*
Y147932D01*
X376458Y148244*
X376345Y148401*
X376118Y148557*
X375663*
X375436Y148401*
X375322Y148244*
X375208Y147932*
Y147619*
X375322Y147307*
X375549Y146838*
X376686Y145276*
X375095*
X378315Y269823D02*
X378429Y270135D01*
X378656Y270448*
X378883Y270604*
X379338*
X379565Y270448*
X379792Y270135*
X379906Y269823*
X380020Y269354*
Y268573*
X379906Y268104*
X379792Y267792*
X379565Y267479*
X379338Y267323*
X378883*
X378656Y267479*
X378429Y267792*
X378315Y268104*
Y268573*
X378883D02*
X378315D01*
X377292Y270604D02*
Y267323D01*
Y270604D02*
X376270D01*
X375929Y270448*
X375815Y270292*
X375702Y269979*
Y269510*
X375815Y269198*
X375929Y269042*
X376270Y268885*
X377292*
X374679Y270604D02*
Y267323D01*
X372974Y270604D02*
X373202Y270448D01*
X373429Y270135*
X373542Y269823*
X373656Y269354*
Y268573*
X373542Y268104*
X373429Y267792*
X373202Y267479*
X372974Y267323*
X372520*
X372292Y267479*
X372065Y267792*
X371952Y268104*
X371838Y268573*
Y269354*
X371952Y269823*
X372065Y270135*
X372292Y270448*
X372520Y270604*
X372974*
X370133D02*
X370474Y270448D01*
X370702Y269979*
X370815Y269198*
Y268729*
X370702Y267948*
X370474Y267479*
X370133Y267323*
X369906*
X369565Y267479*
X369338Y267948*
X369224Y268729*
Y269198*
X369338Y269979*
X369565Y270448*
X369906Y270604*
X370133*
X471213Y270065D02*
Y266784D01*
Y270065D02*
X470418D01*
X470077Y269909*
X469850Y269596*
X469736Y269284*
X469623Y268815*
Y268034*
X469736Y267565*
X469850Y267253*
X470077Y266940*
X470418Y266784*
X471213*
X468600Y270065D02*
Y266784D01*
Y270065D02*
X467123D01*
X468600Y268503D02*
X467691D01*
X468600Y266784D02*
X467123D01*
X466100Y270065D02*
Y266784D01*
Y270065D02*
X465191Y266784D01*
X464282Y270065D02*
X465191Y266784D01*
X464282Y270065D02*
Y266784D01*
X463259Y270065D02*
Y267721D01*
X463145Y267253*
X462918Y266940*
X462577Y266784*
X462350*
X462009Y266940*
X461782Y267253*
X461668Y267721*
Y270065*
X460645D02*
X459054Y266784D01*
Y270065D02*
X460645Y266784D01*
X212166Y303935D02*
X212280Y304247D01*
X212507Y304560*
X212734Y304716*
X213189*
X213416Y304560*
X213643Y304247*
X213757Y303935*
X213870Y303466*
Y302685*
X213757Y302216*
X213643Y301903*
X213416Y301591*
X213189Y301435*
X212734*
X212507Y301591*
X212280Y301903*
X212166Y302216*
X210916Y304716D02*
X209666D01*
X210348Y303466*
X210007*
X209780Y303310*
X209666Y303153*
X209552Y302685*
Y302372*
X209666Y301903*
X209893Y301591*
X210234Y301435*
X210575*
X210916Y301591*
X211030Y301747*
X211143Y302060*
X206939Y304716D02*
X208075Y301435D01*
X208530Y304716D02*
X206939D01*
X262494Y333350D02*
X262583Y333596D01*
X262762Y333842*
X262941Y333965*
X263299*
X263478Y333842*
X263657Y333596*
X263747Y333350*
X263836Y332981*
Y332366*
X263747Y331997*
X263657Y331751*
X263478Y331505*
X263299Y331382*
X262941*
X262762Y331505*
X262583Y331751*
X262494Y331997*
X261510Y333965D02*
X260526D01*
X261062Y332981*
X260794*
X260615Y332858*
X260526Y332735*
X260436Y332366*
Y332120*
X260526Y331751*
X260704Y331505*
X260973Y331382*
X261241*
X261510Y331505*
X261599Y331628*
X261689Y331874*
X259094Y333965D02*
X259362Y333842D01*
X259541Y333473*
X259631Y332858*
Y332489*
X259541Y331874*
X259362Y331505*
X259094Y331382*
X258915*
X258646Y331505*
X258468Y331874*
X258378Y332489*
Y332858*
X258468Y333473*
X258646Y333842*
X258915Y333965*
X259094*
X214133Y345075D02*
X214247Y345387D01*
X214474Y345700*
X214701Y345856*
X215156*
X215383Y345700*
X215610Y345387*
X215724Y345075*
X215838Y344606*
Y343825*
X215724Y343356*
X215610Y343044*
X215383Y342731*
X215156Y342575*
X214701*
X214474Y342731*
X214247Y343044*
X214133Y343356*
X212883Y345856D02*
X211633D01*
X212315Y344606*
X211974*
X211747Y344450*
X211633Y344294*
X211519Y343825*
Y343512*
X211633Y343044*
X211860Y342731*
X212201Y342575*
X212542*
X212883Y342731*
X212997Y342887*
X213110Y343200*
X210497Y345231D02*
X210269Y345387D01*
X209928Y345856*
Y342575*
X291119Y325986D02*
X291233Y326299D01*
X291460Y326611*
X291687Y326768*
X292142*
X292369Y326611*
X292597Y326299*
X292710Y325986*
X292824Y325518*
Y324736*
X292710Y324268*
X292597Y323955*
X292369Y323643*
X292142Y323486*
X291687*
X291460Y323643*
X291233Y323955*
X291119Y324268*
X289869Y326768D02*
X288619D01*
X289301Y325518*
X288960*
X288733Y325361*
X288619Y325205*
X288506Y324736*
Y324424*
X288619Y323955*
X288847Y323643*
X289187Y323486*
X289528*
X289869Y323643*
X289983Y323799*
X290097Y324111*
X287369Y325986D02*
Y326143D01*
X287256Y326455*
X287142Y326611*
X286915Y326768*
X286460*
X286233Y326611*
X286119Y326455*
X286006Y326143*
Y325830*
X286119Y325518*
X286347Y325049*
X287483Y323486*
X285892*
X271850Y341201D02*
X271963Y341513D01*
X272191Y341826*
X272418Y341982*
X272872*
X273100Y341826*
X273327Y341513*
X273441Y341201*
X273554Y340732*
Y339951*
X273441Y339482*
X273327Y339169*
X273100Y338857*
X272872Y338701*
X272418*
X272191Y338857*
X271963Y339169*
X271850Y339482*
X270600Y341982D02*
X269350D01*
X270031Y340732*
X269691*
X269463Y340576*
X269350Y340419*
X269236Y339951*
Y339638*
X269350Y339169*
X269577Y338857*
X269918Y338701*
X270259*
X270600Y338857*
X270713Y339013*
X270827Y339326*
X267986Y341982D02*
X266736D01*
X267418Y340732*
X267077*
X266850Y340576*
X266736Y340419*
X266622Y339951*
Y339638*
X266736Y339169*
X266963Y338857*
X267304Y338701*
X267645*
X267986Y338857*
X268100Y339013*
X268213Y339326*
X272083Y309379D02*
X272197Y309692D01*
X272424Y310004*
X272651Y310161*
X273106*
X273333Y310004*
X273560Y309692*
X273674Y309379*
X273788Y308911*
Y308129*
X273674Y307661*
X273560Y307348*
X273333Y307036*
X273106Y306879*
X272651*
X272424Y307036*
X272197Y307348*
X272083Y307661*
X270833Y310161D02*
X269583D01*
X270265Y308911*
X269924*
X269697Y308754*
X269583Y308598*
X269470Y308129*
Y307817*
X269583Y307348*
X269810Y307036*
X270151Y306879*
X270492*
X270833Y307036*
X270947Y307192*
X271060Y307504*
X267310Y310161D02*
X268447Y307973D01*
X266742*
X267310Y310161D02*
Y306879D01*
X250845Y284671D02*
X250959Y284983D01*
X251186Y285296*
X251414Y285452*
X251868*
X252095Y285296*
X252323Y284983*
X252436Y284671*
X252550Y284202*
Y283421*
X252436Y282952*
X252323Y282639*
X252323D02*
X252095Y282327D01*
X251868Y282171*
X251414*
X251186Y282327*
X250959Y282639*
X250959D02*
X250845Y282952D01*
X249595Y285452D02*
X248345D01*
X249027Y284202*
X248686*
X248459Y284046*
X248345Y283889*
X248345D02*
X248232Y283421D01*
Y283108*
X248345Y282639*
X248345D02*
X248573Y282327D01*
X248914Y282171*
X249255*
X249595Y282327*
X249709Y282483*
X249823Y282796*
X245732Y285452D02*
X246868D01*
X246982Y284046*
X246868Y284202*
X246527Y284358*
X246186*
X245845Y284202*
X245618Y283889*
X245618D02*
X245505Y283421D01*
X245618Y283108*
X245732Y282639*
X245732D02*
X245959Y282327D01*
X246300Y282171*
X246641*
X246982Y282327*
X247095Y282483*
X247209Y282796*
X236179Y302717D02*
X236293Y303029D01*
X236520Y303342*
X236747Y303498*
X237202*
X237429Y303342*
X237656Y303029*
X237770Y302717*
X237884Y302248*
Y301467*
X237770Y300998*
X237656Y300686*
X237429Y300373*
X237202Y300217*
X236747*
X236520Y300373*
X236293Y300686*
X236179Y300998*
X234929Y303498D02*
X233679D01*
X234361Y302248*
X234020*
X233793Y302092*
X233679Y301936*
X233566Y301467*
Y301154*
X233679Y300686*
X233906Y300373*
X234247Y300217*
X234588*
X234929Y300373*
X235043Y300529*
X235156Y300842*
X231179Y303029D02*
X231293Y303342D01*
X231634Y303498*
X231861*
X232202Y303342*
X232429Y302873*
X232543Y302092*
Y301311*
X232429Y300686*
X232202Y300373*
X231861Y300217*
X231747*
X231406Y300373*
X231179Y300686*
X231066Y301154*
Y301311*
X231179Y301779*
X231406Y302092*
X231747Y302248*
X231861*
X232202Y302092*
X232429Y301779*
X232543Y301311*
X233418Y324706D02*
X233531Y325019D01*
X233759Y325331*
X233986Y325487*
X234441*
X234668Y325331*
X234895Y325019*
X235009Y324706*
X235122Y324237*
Y323456*
X235009Y322987*
X234895Y322675*
X234668Y322362*
X234441Y322206*
X233986*
X233759Y322362*
X233531Y322675*
X233418Y322987*
X230918Y325487D02*
X232054D01*
X232168Y324081*
X232054Y324237*
X231713Y324394*
X231372*
X231031Y324237*
X230804Y323925*
X230691Y323456*
X230804Y323144*
X230918Y322675*
X231145Y322362*
X231486Y322206*
X231827*
X232168Y322362*
X232281Y322519*
X232395Y322831*
X228986Y325487D02*
X229327Y325331D01*
X229554Y324862*
X229668Y324081*
Y323612*
X229554Y322831*
X229327Y322362*
X228986Y322206*
X228759*
X228418Y322362*
X228191Y322831*
X228077Y323612*
Y324081*
X228191Y324862*
X228418Y325331*
X228759Y325487*
X228986*
X246408Y346494D02*
X245499Y343213D01*
X244590Y346494D02*
X245499Y343213D01*
X243567Y346494D02*
Y343213D01*
Y346494D02*
X242544D01*
X242203Y346338*
X242090Y346181*
X241976Y345869*
Y345556*
X242090Y345244*
X242203Y345088*
X242544Y344931*
X243567D02*
X242544D01*
X242203Y344775*
X242090Y344619*
X241976Y344306*
Y343838*
X242090Y343525*
X242203Y343369*
X242544Y343213*
X243567*
X240953Y345869D02*
X240726Y346025D01*
X240385Y346494*
Y343213*
X262422Y340222D02*
X262512Y340469D01*
X262690Y340715*
X262869Y340838*
X263227*
X263406Y340715*
X263585Y340469*
X263675Y340222*
X263764Y339853*
Y339238*
X263675Y338869*
X263585Y338623*
X263406Y338377*
X263227Y338254*
X262869*
X262690Y338377*
X262512Y338623*
X262422Y338869*
X260275Y340222D02*
X260364Y340469D01*
X260543Y340715*
X260722Y340838*
X261080*
X261259Y340715*
X261438Y340469*
X261527Y340222*
X261617Y339853*
Y339238*
X261527Y338869*
X261438Y338623*
X261259Y338377*
X261080Y338254*
X260722*
X260543Y338377*
X260364Y338623*
X260275Y338869*
Y339238*
X260722D02*
X260275D01*
X259290Y340838D02*
X258306D01*
X258843Y339853*
X258575*
X258396Y339730*
X258306Y339607*
X258217Y339238*
Y338992*
X258306Y338623*
X258485Y338377*
X258753Y338254*
X259022*
X259290Y338377*
X259380Y338500*
X259469Y338746*
X273474Y353963D02*
X273588Y354275D01*
X273815Y354588*
X274043Y354744*
X274497*
X274724Y354588*
X274952Y354275*
X275065Y353963*
X275179Y353494*
Y352713*
X275065Y352244*
X274952Y351931*
X274724Y351619*
X274497Y351463*
X274043*
X273815Y351619*
X273588Y351931*
X273474Y352244*
X270974Y353650D02*
X271088Y353181D01*
X271315Y352869*
X271656Y352713*
X271770*
X272111Y352869*
X272338Y353181*
X272452Y353650*
Y353806*
X272338Y354275*
X272111Y354588*
X271770Y354744*
X271656*
X271315Y354588*
X271088Y354275*
X270974Y353650*
Y352869*
X271088Y352088*
X271315Y351619*
X271656Y351463*
X271884*
X272224Y351619*
X272338Y351931*
X268815Y354744D02*
X269952Y352556D01*
X268247*
X268815Y354744D02*
Y351463D01*
X273477Y325427D02*
X273591Y325740D01*
X273818Y326052*
X274045Y326208*
X274500*
X274727Y326052*
X274954Y325740*
X275068Y325427*
X275181Y324958*
Y324177*
X275068Y323708*
X274954Y323396*
X274727Y323083*
X274500Y322927*
X274045*
X273818Y323083*
X273591Y323396*
X273477Y323708*
X271545Y326208D02*
X272454Y322927D01*
X271545Y326208D02*
X270636Y322927D01*
X272113Y324021D02*
X270977D01*
X269613Y325583D02*
X269386Y325740D01*
X269045Y326208*
Y322927*
X267341Y326208D02*
X267681Y326052D01*
X267909Y325583*
X268022Y324802*
Y324333*
X267909Y323552*
X267681Y323083*
X267341Y322927*
X267113*
X266772Y323083*
X266545Y323552*
X266431Y324333*
Y324802*
X266545Y325583*
X266772Y326052*
X267113Y326208*
X267341*
X292903Y303348D02*
X293016Y303661D01*
X293244Y303973*
X293471Y304129*
X293925*
X294153Y303973*
X294380Y303661*
X294494Y303348*
X294607Y302879*
Y302098*
X294494Y301629*
X294380Y301317*
X294153Y301004*
X293925Y300848*
X293471*
X293244Y301004*
X293016Y301317*
X292903Y301629*
X290971Y304129D02*
X291880Y300848D01*
X290971Y304129D02*
X290062Y300848D01*
X291539Y301942D02*
X290403D01*
X289039Y303504D02*
X288812Y303661D01*
X288471Y304129*
Y300848*
X287335Y303348D02*
Y303504D01*
X287221Y303817*
X287107Y303973*
X286880Y304129*
X286425*
X286198Y303973*
X286085Y303817*
X285971Y303504*
Y303192*
X286085Y302879*
X286312Y302411*
X287448Y300848*
X285857*
X252394Y302971D02*
X252507Y303283D01*
X252734Y303596*
X252962Y303752*
X253416*
X253644Y303596*
X253871Y303283*
X253984Y302971*
X254098Y302502*
Y301721*
X253984Y301252*
X253871Y300939*
X253644Y300627*
X253416Y300471*
X252962*
X252734Y300627*
X252507Y300939*
X252394Y301252*
X250462Y303752D02*
X251371Y300471D01*
X250462Y303752D02*
X249553Y300471D01*
X251030Y301564D02*
X249894D01*
X248530Y303127D02*
X248303Y303283D01*
X247962Y303752*
Y300471*
X246712Y303752D02*
X245462D01*
X246144Y302502*
X245803*
X245575Y302346*
X245462Y302189*
X245348Y301721*
Y301408*
X245462Y300939*
X245689Y300627*
X246030Y300471*
X246371*
X246712Y300627*
X246825Y300783*
X246939Y301096*
X233473Y287196D02*
X233586Y287509D01*
X233814Y287821*
X234041Y287978*
X234496*
X234723Y287821*
X234950Y287509*
X235064Y287196*
X235177Y286728*
Y285946*
X235064Y285478*
X234950Y285165*
X234723Y284853*
X234496Y284696*
X234041*
X233814Y284853*
X233586Y285165*
X233473Y285478*
X231541Y287978D02*
X232450Y284696D01*
X231541Y287978D02*
X230632Y284696D01*
X232109Y285790D02*
X230973D01*
X229609Y287353D02*
X229382Y287509D01*
X229041Y287978*
Y284696*
X226882Y287978D02*
X228018Y285790D01*
X226314*
X226882Y287978D02*
Y284696D01*
X234876Y308664D02*
X234990Y308976D01*
X235217Y309289*
X235444Y309445*
X235899*
X236126Y309289*
X236354Y308976*
X236467Y308664*
X236581Y308195*
Y307414*
X236467Y306945*
X236354Y306632*
X236126Y306320*
X235899Y306164*
X235444*
X235217Y306320*
X234990Y306632*
X234876Y306945*
X232944Y309445D02*
X233854Y306164D01*
X232944Y309445D02*
X232035Y306164D01*
X233513Y307257D02*
X232376D01*
X231013Y308820D02*
X230785Y308976D01*
X230444Y309445*
Y306164*
X227944Y309445D02*
X229081D01*
X229194Y308039*
X229081Y308195*
X228740Y308351*
X228399*
X228058Y308195*
X227831Y307882*
X227717Y307414*
X227831Y307101*
X227944Y306632*
X228172Y306320*
X228513Y306164*
X228854*
X229194Y306320*
X229308Y306476*
X229422Y306789*
X212811Y324580D02*
X212924Y324892D01*
X213152Y325205*
X213379Y325361*
X213833*
X214061Y325205*
X214288Y324892*
X214402Y324580*
X214515Y324111*
Y323330*
X214402Y322861*
X214288Y322548*
X214061Y322236*
X213833Y322080*
X213379*
X213152Y322236*
X212924Y322548*
X212811Y322861*
X210879Y325361D02*
X211788Y322080D01*
X210879Y325361D02*
X209970Y322080D01*
X211447Y323173D02*
X210311D01*
X208947Y324736D02*
X208720Y324892D01*
X208379Y325361*
Y322080*
X205992Y324892D02*
X206106Y325205D01*
X206447Y325361*
X206674*
X207015Y325205*
X207242Y324736*
X207356Y323955*
Y323173*
X207242Y322548*
X207015Y322236*
X206674Y322080*
X206561*
X206220Y322236*
X205992Y322548*
X205879Y323017*
Y323173*
X205992Y323642*
X206220Y323955*
X206561Y324111*
X206674*
X207015Y323955*
X207242Y323642*
X207356Y323173*
X231187Y341739D02*
X231301Y342052D01*
X231528Y342364*
X231755Y342520*
X232210*
X232437Y342364*
X232665Y342052*
X232778Y341739*
X232892Y341270*
Y340489*
X232778Y340020*
X232665Y339708*
X232437Y339395*
X232210Y339239*
X231755*
X231528Y339395*
X231301Y339708*
X231187Y340020*
X229255Y342520D02*
X230165Y339239D01*
X229255Y342520D02*
X228346Y339239D01*
X229824Y340333D02*
X228687D01*
X225846Y341427D02*
X225960Y340958D01*
X226187Y340645*
X226528Y340489*
X226642*
X226983Y340645*
X227210Y340958*
X227324Y341427*
Y341583*
X227210Y342052*
X226983Y342364*
X226642Y342520*
X226528*
X226187Y342364*
X225960Y342052*
X225846Y341427*
Y340645*
X225960Y339864*
X226187Y339395*
X226528Y339239*
X226755*
X227096Y339395*
X227210Y339708*
X265631Y320682D02*
Y317401D01*
Y320682D02*
X264608D01*
X264267Y320526*
X264153Y320369*
X264040Y320057*
Y319744*
X264153Y319432*
X264267Y319276*
X264608Y319119*
X265631*
X264835D02*
X264040Y317401D01*
X262108Y320682D02*
X263017Y317401D01*
X262108Y320682D02*
X261199Y317401D01*
X262676Y318494D02*
X261540D01*
X260062Y319901D02*
Y320057D01*
X259949Y320369*
X259835Y320526*
X259608Y320682*
X259153*
X258926Y320526*
X258812Y320369*
X258699Y320057*
Y319744*
X258812Y319432*
X259040Y318963*
X260176Y317401*
X258585*
X263688Y337498D02*
Y334914D01*
Y337498D02*
X262883D01*
X262615Y337374*
X262525Y337251*
X262436Y337005*
Y336759*
X262525Y336513*
X262615Y336390*
X262883Y336267*
X263688*
X263062D02*
X262436Y334914D01*
X261630Y337498D02*
Y334914D01*
Y337498D02*
X260825D01*
X260557Y337374*
X260467Y337251*
X260378Y337005*
Y336759*
X260467Y336513*
X260557Y336390*
X260825Y336267*
X261630D02*
X260825D01*
X260557Y336144*
X260467Y336021*
X260378Y335775*
Y335406*
X260467Y335160*
X260557Y335037*
X260825Y334914*
X261630*
X259573Y337005D02*
X259394Y337128D01*
X259125Y337498*
Y334914*
X341555Y346377D02*
X340646Y343096D01*
X339737Y346377D02*
X340646Y343096D01*
X338714Y346377D02*
Y343096D01*
Y346377D02*
X337692D01*
X337351Y346221*
X337237Y346065*
X337123Y345752*
Y345440*
X337237Y345127*
X337351Y344971*
X337692Y344815*
X338714D02*
X337692D01*
X337351Y344658*
X337237Y344502*
X337123Y344190*
Y343721*
X337237Y343408*
X337351Y343252*
X337692Y343096*
X338714*
X335987Y345596D02*
Y345752D01*
X335873Y346065*
X335760Y346221*
X335533Y346377*
X335078*
X334851Y346221*
X334737Y346065*
X334623Y345752*
Y345440*
X334737Y345127*
X334964Y344658*
X336101Y343096*
X334510*
X357222Y333486D02*
X357311Y333732D01*
X357490Y333978*
X357669Y334101*
X358027*
X358206Y333978*
X358385Y333732*
X358474Y333486*
X358564Y333117*
Y332501*
X358474Y332132*
X358385Y331886*
X358206Y331640*
X358027Y331517*
X357669*
X357490Y331640*
X357311Y331886*
X357222Y332132*
X356238Y334101D02*
X355253D01*
X355790Y333117*
X355522*
X355343Y332994*
X355253Y332870*
X355164Y332501*
Y332255*
X355253Y331886*
X355432Y331640*
X355701Y331517*
X355969*
X356238Y331640*
X356327Y331763*
X356416Y332009*
X353911Y334101D02*
X354180Y333978D01*
X354269Y333732*
Y333486*
X354180Y333240*
X354001Y333117*
X353643Y332994*
X353374Y332870*
X353195Y332624*
X353106Y332378*
Y332009*
X353195Y331763*
X353285Y331640*
X353553Y331517*
X353911*
X354180Y331640*
X354269Y331763*
X354358Y332009*
Y332378*
X354269Y332624*
X354090Y332870*
X353822Y332994*
X353464Y333117*
X353285Y333240*
X353195Y333486*
Y333732*
X353285Y333978*
X353553Y334101*
X353911*
X307975Y345364D02*
X308089Y345677D01*
X308316Y345989*
X308544Y346145*
X308998*
X309225Y345989*
X309453Y345677*
X309566Y345364*
X309680Y344895*
Y344114*
X309566Y343645*
X309453Y343333*
X309225Y343020*
X308998Y342864*
X308544*
X308316Y343020*
X308089Y343333*
X307975Y343645*
X306725Y346145D02*
X305475D01*
X306157Y344895*
X305816*
X305589Y344739*
X305475Y344583*
X305362Y344114*
Y343802*
X305475Y343333*
X305703Y343020*
X306044Y342864*
X306385*
X306725Y343020*
X306839Y343177*
X306953Y343489*
X302862Y345052D02*
X302975Y344583D01*
X303203Y344270*
X303544Y344114*
X303657*
X303998Y344270*
X304225Y344583*
X304339Y345052*
Y345208*
X304225Y345677*
X303998Y345989*
X303657Y346145*
X303544*
X303203Y345989*
X302975Y345677*
X302862Y345052*
Y344270*
X302975Y343489*
X303203Y343020*
X303544Y342864*
X303771*
X304112Y343020*
X304225Y343333*
X386212Y325922D02*
X386325Y326235D01*
X386553Y326547*
X386780Y326704*
X387235*
X387462Y326547*
X387689Y326235*
X387803Y325922*
X387916Y325454*
Y324672*
X387803Y324204*
X387689Y323891*
X387462Y323579*
X387235Y323422*
X386780*
X386553Y323579*
X386325Y323891*
X386212Y324204*
X384053Y326704D02*
X385189Y324516D01*
X383485*
X384053Y326704D02*
Y323422D01*
X381780Y326704D02*
X382121Y326547D01*
X382348Y326079*
X382462Y325297*
Y324829*
X382348Y324047*
X382121Y323579*
X381780Y323422*
X381553*
X381212Y323579*
X380985Y324047*
X380871Y324829*
Y325297*
X380985Y326079*
X381212Y326547*
X381553Y326704*
X381780*
X366712Y342301D02*
X366825Y342614D01*
X367052Y342926*
X367280Y343083*
X367734*
X367962Y342926*
X368189Y342614*
X368302Y342301*
X368416Y341833*
Y341051*
X368302Y340583*
X368189Y340270*
X367962Y339958*
X367734Y339801*
X367280*
X367052Y339958*
X366825Y340270*
X366712Y340583*
X364552Y343083D02*
X365689Y340895D01*
X363984*
X364552Y343083D02*
Y339801D01*
X362962Y342458D02*
X362734Y342614D01*
X362393Y343083*
Y339801*
X366824Y309315D02*
X366938Y309627D01*
X367165Y309940*
X367392Y310096*
X367847*
X368074Y309940*
X368302Y309627*
X368415Y309315*
X368529Y308846*
Y308065*
X368415Y307596*
X368302Y307283*
X368074Y306971*
X367847Y306815*
X367392*
X367165Y306971*
X366938Y307283*
X366824Y307596*
X364665Y310096D02*
X365802Y307908D01*
X364097*
X364665Y310096D02*
Y306815D01*
X362961Y309315D02*
Y309471D01*
X362847Y309783*
X362733Y309940*
X362506Y310096*
X362052*
X361824Y309940*
X361711Y309783*
X361597Y309471*
Y309158*
X361711Y308846*
X361938Y308377*
X363074Y306815*
X361483*
X345663Y285594D02*
X345777Y285907D01*
X346004Y286219*
X346231Y286376*
X346686*
X346913Y286219*
X347140Y285907*
X347254Y285594*
X347367Y285126*
Y284344*
X347254Y283876*
X347140Y283563*
X346913Y283251*
X346686Y283094*
X346231*
X346004Y283251*
X345777Y283563*
X345663Y283876*
X343504Y286376D02*
X344640Y284188D01*
X342936*
X343504Y286376D02*
Y283094D01*
X341686Y286376D02*
X340436D01*
X341117Y285126*
X340777*
X340549Y284969*
X340436Y284813*
X340322Y284344*
Y284032*
X340436Y283563*
X340663Y283251*
X341004Y283094*
X341345*
X341686Y283251*
X341799Y283407*
X341913Y283719*
X331783Y302681D02*
X331897Y302994D01*
X332124Y303306*
X332352Y303462*
X332806*
X333033Y303306*
X333261Y302994*
X333374Y302681*
X333488Y302212*
Y301431*
X333374Y300962*
X333261Y300650*
X333033Y300337*
X332806Y300181*
X332352*
X332124Y300337*
X331897Y300650*
X331783Y300962*
X329624Y303462D02*
X330761Y301275D01*
X329056*
X329624Y303462D02*
Y300181D01*
X326897Y303462D02*
X328033Y301275D01*
X326329*
X326897Y303462D02*
Y300181D01*
X307350Y303726D02*
X307463Y304039D01*
X307691Y304351*
X307918Y304508*
X308372*
X308600Y304351*
X308827Y304039*
X308941Y303726*
X309054Y303258*
Y302476*
X308941Y302008*
X308827Y301695*
X308600Y301383*
X308372Y301226*
X307918*
X307691Y301383*
X307463Y301695*
X307350Y302008*
X305191Y304508D02*
X306327Y302320D01*
X304622*
X305191Y304508D02*
Y301226D01*
X302122Y304508D02*
X303259D01*
X303372Y303101*
X303259Y303258*
X302918Y303414*
X302577*
X302236Y303258*
X302009Y302945*
X301895Y302476*
X302009Y302164*
X302122Y301695*
X302350Y301383*
X302691Y301226*
X303031*
X303372Y301383*
X303486Y301539*
X303600Y301851*
X327429Y325210D02*
X327543Y325523D01*
X327770Y325835*
X327997Y325992*
X328452*
X328679Y325835*
X328906Y325523*
X329020Y325210*
X329134Y324742*
Y323960*
X329020Y323492*
X328906Y323179*
X328679Y322867*
X328452Y322710*
X327997*
X327770Y322867*
X327543Y323179*
X327429Y323492*
X325270Y325992D02*
X326406Y323804D01*
X324702*
X325270Y325992D02*
Y322710D01*
X322315Y325523D02*
X322429Y325835D01*
X322770Y325992*
X322997*
X323338Y325835*
X323565Y325367*
X323679Y324585*
Y323804*
X323565Y323179*
X323338Y322867*
X322997Y322710*
X322884*
X322543Y322867*
X322315Y323179*
X322202Y323648*
Y323804*
X322315Y324273*
X322543Y324585*
X322884Y324742*
X322997*
X323338Y324585*
X323565Y324273*
X323679Y323804*
X356954Y340326D02*
X357043Y340572D01*
X357222Y340818*
X357401Y340941*
X357759*
X357938Y340818*
X358117Y340572*
X358206Y340326*
X358296Y339957*
Y339341*
X358206Y338972*
X358117Y338726*
X357938Y338480*
X357759Y338357*
X357401*
X357222Y338480*
X357043Y338726*
X356954Y338972*
X354806Y340326D02*
X354896Y340572D01*
X355074Y340818*
X355253Y340941*
X355611*
X355790Y340818*
X355969Y340572*
X356059Y340326*
X356148Y339957*
Y339341*
X356059Y338972*
X355969Y338726*
X355790Y338480*
X355611Y338357*
X355253*
X355074Y338480*
X354896Y338726*
X354806Y338972*
Y339341*
X355253D02*
X354806D01*
X352838Y340941D02*
X353732D01*
X353822Y339834*
X353732Y339957*
X353464Y340080*
X353195*
X352927Y339957*
X352748Y339711*
X352659Y339341*
X352748Y339095*
X352838Y338726*
X353016Y338480*
X353016D02*
X353285Y338357D01*
X353553*
X353822Y338480*
X353911Y338603*
X354001Y338849*
X338892Y357167D02*
X339005Y357480D01*
X339233Y357792*
X339460Y357949*
X339915*
X340142Y357792*
X340369Y357480*
X340483Y357167*
X340596Y356699*
Y355917*
X340483Y355449*
X340369Y355136*
X340142Y354824*
X339915Y354667*
X339460*
X339233Y354824*
X339005Y355136*
X338892Y355449*
X336165Y357167D02*
X336278Y357480D01*
X336505Y357792*
X336733Y357949*
X337187*
X337415Y357792*
X337642Y357480*
X337755Y357167*
X337869Y356699*
Y355917*
X337755Y355449*
X337642Y355136*
X337415Y354824*
X337187Y354667*
X336733*
X336505Y354824*
X336278Y355136*
X336165Y355449*
Y355917*
X336733D02*
X336165D01*
X333778Y357480D02*
X333892Y357792D01*
X334233Y357949*
X334460*
X334801Y357792*
X335028Y357324*
X335142Y356542*
Y355761*
X335028Y355136*
X334801Y354824*
X334460Y354667*
X334346*
X334005Y354824*
X333778Y355136*
X333665Y355605*
Y355761*
X333778Y356230*
X334005Y356542*
X334346Y356699*
X334460*
X334801Y356542*
X335028Y356230*
X335142Y355761*
X327660Y341490D02*
X327773Y341803D01*
X328001Y342115*
X328228Y342272*
X328682*
X328910Y342115*
X329137Y341803*
X329251Y341490*
X329364Y341022*
Y340240*
X329251Y339772*
X329137Y339459*
X328910Y339147*
X328682Y338990*
X328228*
X328001Y339147*
X327773Y339459*
X327660Y339772*
X325728Y342272D02*
X326637Y338990D01*
X325728Y342272D02*
X324819Y338990D01*
X326296Y340084D02*
X325160D01*
X323796Y341647D02*
X323569Y341803D01*
X323228Y342272*
Y338990*
X320614Y342272D02*
X321751Y338990D01*
X322205Y342272D02*
X320614D01*
X368044Y325031D02*
X368157Y325344D01*
X368385Y325656*
X368612Y325813*
X369066*
X369294Y325656*
X369521Y325344*
X369635Y325031*
X369748Y324563*
Y323781*
X369635Y323313*
X369521Y323000*
X369294Y322688*
X369066Y322531*
X368612*
X368385Y322688*
X368157Y323000*
X368044Y323313*
X366112Y325813D02*
X367021Y322531D01*
X366112Y325813D02*
X365203Y322531D01*
X366680Y323625D02*
X365544D01*
X364180Y325188D02*
X363953Y325344D01*
X363612Y325813*
Y322531*
X362021Y325813D02*
X362362Y325656D01*
X362476Y325344*
X362476D02*
Y325031D01*
X362476D02*
X362362Y324719D01*
X362135Y324563*
X361680Y324406*
X361339Y324250*
X361112Y323938*
X360998Y323625*
Y323156*
X361112Y322844*
X361226Y322688*
X361226D02*
X361566Y322531D01*
X362021*
X362362Y322688*
X362476Y322844*
X362476D02*
X362589Y323156D01*
Y323625*
X362476Y323938*
X362476D02*
X362248Y324250D01*
X361907Y324406*
X361453Y324563*
X361226Y324719*
X361226D02*
X361112Y325031D01*
Y325344*
X361226Y325656*
X361226D02*
X361566Y325813D01*
X362021*
X378545Y353500D02*
X378659Y353812D01*
X378659D02*
X378886Y354125D01*
X379114Y354281*
X379568*
X379795Y354125*
X380023Y353812*
X380023D02*
X380136Y353500D01*
X380250Y353031*
Y352250*
X380136Y351781*
X380023Y351469*
X379795Y351156*
X379568Y351000*
X379114*
X378886Y351156*
X378659Y351469*
X378545Y351781*
X376614Y354281D02*
X377523Y351000D01*
X376614Y354281D02*
X375705Y351000D01*
X377182Y352094D02*
X376045D01*
X374682Y353656D02*
X374455Y353812D01*
X374455D02*
X374114Y354281D01*
Y351000*
X371614Y353187D02*
X371727Y352719D01*
X371955Y352406*
X372295Y352250*
X372409*
X372750Y352406*
X372977Y352719*
X373091Y353187*
X373091D02*
Y353344D01*
X372977Y353812*
X372977D02*
X372750Y354125D01*
X372409Y354281*
X372295*
X371955Y354125*
X371727Y353812*
X371727D02*
X371614Y353187D01*
X371614D02*
Y352406D01*
X371727Y351625*
X371955Y351156*
X372295Y351000*
X372523*
X372864Y351156*
X372977Y351469*
X388080Y302153D02*
X388194Y302465D01*
X388194D02*
X388421Y302778D01*
X388648Y302934*
X389103*
X389330Y302778*
X389557Y302465*
X389671Y302153*
X389784Y301684*
Y300903*
X389671Y300434*
X389557Y300122*
X389330Y299809*
X389103Y299653*
X388648*
X388421Y299809*
X388194Y300122*
X388194D02*
X388080Y300434D01*
X386148Y302934D02*
X387057Y299653D01*
X386148Y302934D02*
X385239Y299653D01*
X386716Y300747D02*
X385580D01*
X384103Y302153D02*
Y302309D01*
X383989Y302622*
X383875Y302778*
X383648Y302934*
X383194*
X383194D02*
X382966Y302778D01*
X382853Y302622*
X382739Y302309*
Y301997*
X382853Y301684*
X383080Y301215*
X384216Y299653*
X382625*
X380921Y302934D02*
X381262Y302778D01*
X381489Y302309*
X381603Y301528*
Y301059*
X381489Y300278*
X381262Y299809*
X380921Y299653*
X380694*
X380694D02*
X380353Y299809D01*
X380125Y300278*
X380012Y301059*
Y301528*
X380125Y302309*
X380353Y302778*
X380694Y302934*
X380694D02*
X380921D01*
X345901Y302716D02*
X346014Y303029D01*
X346242Y303341*
X346469Y303497*
X346923*
X347151Y303341*
X347378Y303029*
X347492Y302716*
X347605Y302247*
Y301466*
X347492Y300997*
X347378Y300685*
X347151Y300372*
X346923Y300216*
X346469*
X346242Y300372*
X346014Y300685*
X345901Y300997*
X343969Y303497D02*
X344878Y300216D01*
X343969Y303497D02*
X343060Y300216D01*
X344537Y301310D02*
X343401D01*
X341923Y302716D02*
Y302872D01*
X341810Y303185*
X341696Y303341*
X341469Y303497*
X341014*
X340787Y303341*
X340673Y303185*
X340560Y302872*
Y302560*
X340673Y302247*
X340901Y301779*
X342037Y300216*
X340446*
X339423Y302872D02*
X339196Y303029D01*
X338855Y303497*
Y300216*
X327639Y287466D02*
X327753Y287778D01*
X327980Y288091*
X328207Y288247*
X328662*
X328889Y288091*
X329116Y287778*
X329230Y287466*
X329343Y286997*
Y286216*
X329230Y285747*
X329116Y285435*
X328889Y285122*
X328662Y284966*
X328207*
X327980Y285122*
X327753Y285435*
X327639Y285747*
X325707Y288247D02*
X326616Y284966D01*
X325707Y288247D02*
X324798Y284966D01*
X326275Y286060D02*
X325139D01*
X323662Y287466D02*
Y287622D01*
X323548Y287935*
X323434Y288091*
X323207Y288247*
X322753*
X322525Y288091*
X322412Y287935*
X322298Y287622*
Y287310*
X322412Y286997*
X322639Y286528*
X323775Y284966*
X322184*
X321048Y287466D02*
Y287622D01*
X320934Y287935*
X320821Y288091*
X320593Y288247*
X320139*
X319912Y288091*
X319798Y287935*
X319684Y287622*
Y287310*
X319798Y286997*
X320025Y286528*
X321162Y284966*
X319571*
X328994Y308454D02*
X329108Y308766D01*
X329335Y309079*
X329562Y309235*
X330017*
X330244Y309079*
X330471Y308766*
X330585Y308454*
X330699Y307985*
Y307204*
X330585Y306735*
X330471Y306422*
X330244Y306110*
X330017Y305954*
X329562*
X329335Y306110*
X329108Y306422*
X328994Y306735*
X327062Y309235D02*
X327971Y305954D01*
X327062Y309235D02*
X326153Y305954D01*
X327630Y307047D02*
X326494D01*
X325017Y308454D02*
Y308610D01*
X324903Y308922*
X324790Y309079*
X324562Y309235*
X324108*
X323880Y309079*
X323767Y308922*
X323653Y308610*
Y308297*
X323767Y307985*
X323994Y307516*
X325130Y305954*
X323540*
X322290Y309235D02*
X321040D01*
X321721Y307985*
X321380*
X321153Y307829*
X321040Y307672*
X320926Y307204*
Y306891*
X321040Y306422*
X321267Y306110*
X321608Y305954*
X321949*
X322290Y306110*
X322403Y306266*
X322517Y306579*
X308656Y325304D02*
X308770Y325616D01*
X308997Y325929*
X309224Y326085*
X309679*
X309906Y325929*
X310133Y325616*
X310247Y325304*
X310361Y324835*
Y324054*
X310247Y323585*
X310133Y323272*
X309906Y322960*
X309679Y322804*
X309224*
X308997Y322960*
X308770Y323272*
X308656Y323585*
X306724Y326085D02*
X307633Y322804D01*
X306724Y326085D02*
X305815Y322804D01*
X307292Y323897D02*
X306156D01*
X304679Y325304D02*
Y325460D01*
X304565Y325772*
X304451Y325929*
X304224Y326085*
X303770*
X303542Y325929*
X303429Y325772*
X303315Y325460*
Y325147*
X303429Y324835*
X303656Y324366*
X304792Y322804*
X303201*
X301042Y326085D02*
X302179Y323897D01*
X300474*
X301042Y326085D02*
Y322804D01*
X359555Y320959D02*
Y317678D01*
Y320959D02*
X358532D01*
X358191Y320803*
X358077Y320646*
X357964Y320334*
Y320021*
X358077Y319709*
X358191Y319553*
X358532Y319396*
X359555*
X358759D02*
X357964Y317678D01*
X356032Y320959D02*
X356941Y317678D01*
X356032Y320959D02*
X355123Y317678D01*
X356600Y318771D02*
X355464D01*
X353873Y320959D02*
X352623D01*
X353305Y319709*
X352964*
X352736Y319553*
X352623Y319396*
X352509Y318928*
Y318615*
X352623Y318146*
X352850Y317834*
X353191Y317678*
X353532*
X353873Y317834*
X353986Y317990*
X354100Y318303*
X358180Y337664D02*
Y335080D01*
Y337664D02*
X357375D01*
X357106Y337541*
X357017Y337418*
X356927Y337172*
Y336925*
X357017Y336679*
X357106Y336556*
X357375Y336433*
X358180*
X357553D02*
X356927Y335080D01*
X356122Y337664D02*
Y335080D01*
Y337664D02*
X355317D01*
X355048Y337541*
X354959Y337418*
X354869Y337172*
Y336802*
X354959Y336556*
X355048Y336433*
X355317Y336310*
X356122*
X354064Y337172D02*
X353885Y337295D01*
X353616Y337664*
Y335080*
X435935Y346062D02*
X435026Y342781D01*
X434116Y346062D02*
X435026Y342781D01*
X433094Y346062D02*
Y342781D01*
Y346062D02*
X432071D01*
X431730Y345906*
X431616Y345750*
X431503Y345437*
Y345125*
X431616Y344812*
X431730Y344656*
X432071Y344500*
X433094D02*
X432071D01*
X431730Y344343*
X431616Y344187*
X431503Y343875*
Y343406*
X431616Y343093*
X431730Y342937*
X432071Y342781*
X433094*
X430253Y346062D02*
X429003D01*
X429685Y344812*
X429344*
X429116Y344656*
X429003Y344500*
X428889Y344031*
Y343718*
X429003Y343250*
X429230Y342937*
X429571Y342781*
X429912*
X430253Y342937*
X430366Y343093*
X430480Y343406*
X451845Y333412D02*
X451935Y333658D01*
X452114Y333904*
X452293Y334027*
X452651*
X452830Y333904*
X453009Y333658*
X453098Y333412*
X453188Y333043*
Y332427*
X453098Y332058*
X453009Y331812*
X452830Y331566*
X452651Y331443*
X452293*
X452114Y331566*
X451935Y331812*
X451845Y332058*
X449966Y333658D02*
X450056Y333904D01*
X450324Y334027*
X450503*
X450772Y333904*
X450951Y333535*
X451040Y332920*
Y332304*
X450951Y331812*
X450772Y331566*
X450503Y331443*
X450414*
X450145Y331566*
X449966Y331812*
X449877Y332181*
Y332304*
X449966Y332673*
X450145Y332920*
X450414Y333043*
X450503*
X450772Y332920*
X450951Y332673*
X451040Y332304*
X447998Y333658D02*
X448087Y333904D01*
X448356Y334027*
X448535*
X448803Y333904*
X448982Y333535*
X449072Y332920*
Y332304*
X448982Y331812*
X448803Y331566*
X448535Y331443*
X448445*
X448177Y331566*
X447998Y331812*
X447908Y332181*
Y332304*
X447998Y332673*
X448177Y332920*
X448445Y333043*
X448535*
X448803Y332920*
X448982Y332673*
X449072Y332304*
X402112Y344902D02*
X402226Y345215D01*
X402453Y345527*
X402681Y345683*
X403135*
X403362Y345527*
X403590Y345215*
X403703Y344902*
X403817Y344433*
Y343652*
X403703Y343183*
X403590Y342871*
X403362Y342558*
X403135Y342402*
X402681*
X402453Y342558*
X402226Y342871*
X402112Y343183*
X399726Y345215D02*
X399840Y345527D01*
X400181Y345683*
X400408*
X400749Y345527*
X400976Y345058*
X401090Y344277*
Y343496*
X400976Y342871*
X400749Y342558*
X400408Y342402*
X400294*
X399953Y342558*
X399726Y342871*
X399612Y343340*
Y343496*
X399726Y343965*
X399953Y344277*
X400294Y344433*
X400408*
X400749Y344277*
X400976Y343965*
X401090Y343496*
X396999Y345683D02*
X398135Y342402D01*
X398590Y345683D02*
X396999D01*
X479646Y325701D02*
X479760Y326014D01*
X479987Y326326*
X480214Y326482*
X480669*
X480896Y326326*
X481123Y326014*
X481237Y325701*
X481350Y325232*
Y324451*
X481237Y323982*
X481123Y323670*
X480896Y323357*
X480669Y323201*
X480214*
X479987Y323357*
X479760Y323670*
X479646Y323982*
X477260Y326014D02*
X477373Y326326D01*
X477714Y326482*
X477941*
X478282Y326326*
X478510Y325857*
X478623Y325076*
Y324295*
X478510Y323670*
X478282Y323357*
X477941Y323201*
X477828*
X477487Y323357*
X477260Y323670*
X477146Y324139*
Y324295*
X477260Y324764*
X477487Y325076*
X477828Y325232*
X477941*
X478282Y325076*
X478510Y324764*
X478623Y324295*
X475555Y326482D02*
X475896Y326326D01*
X476010Y326014*
Y325701*
X475896Y325389*
X475669Y325232*
X475214Y325076*
X474873Y324920*
X474646Y324607*
X474532Y324295*
Y323826*
X474646Y323514*
X474760Y323357*
X475100Y323201*
X475555*
X475896Y323357*
X476010Y323514*
X476123Y323826*
Y324295*
X476010Y324607*
X475782Y324920*
X475441Y325076*
X474987Y325232*
X474760Y325389*
X474646Y325701*
Y326014*
X474760Y326326*
X475100Y326482*
X475555*
X461177Y342562D02*
X461290Y342875D01*
X461518Y343187*
X461745Y343343*
X462200*
X462427Y343187*
X462654Y342875*
X462768Y342562*
X462881Y342093*
Y341312*
X462768Y340843*
X462654Y340531*
X462427Y340218*
X462200Y340062*
X461745*
X461518Y340218*
X461290Y340531*
X461177Y340843*
X458790Y342875D02*
X458904Y343187D01*
X459245Y343343*
X459472*
X459813Y343187*
X460040Y342718*
X460154Y341937*
Y341156*
X460040Y340531*
X459813Y340218*
X459472Y340062*
X459359*
X459018Y340218*
X458790Y340531*
X458677Y341000*
Y341156*
X458790Y341625*
X459018Y341937*
X459359Y342093*
X459472*
X459813Y341937*
X460040Y341625*
X460154Y341156*
X456177Y342250D02*
X456290Y341781D01*
X456518Y341468*
X456859Y341312*
X456972*
X457313Y341468*
X457540Y341781*
X457654Y342250*
Y342406*
X457540Y342875*
X457313Y343187*
X456972Y343343*
X456859*
X456518Y343187*
X456290Y342875*
X456177Y342250*
Y341468*
X456290Y340687*
X456518Y340218*
X456859Y340062*
X457086*
X457427Y340218*
X457540Y340531*
X461670Y309253D02*
X461783Y309565D01*
X462010Y309878*
X462238Y310034*
X462692*
X462920Y309878*
X463147Y309565*
X463260Y309253*
X463374Y308784*
Y308003*
X463260Y307534*
X463147Y307222*
X462920Y306909*
X462692Y306753*
X462238*
X462010Y306909*
X461783Y307222*
X461670Y307534*
X459056Y310034D02*
X460192Y306753D01*
X460647Y310034D02*
X459056D01*
X457351D02*
X457692Y309878D01*
X457920Y309409*
X458033Y308628*
Y308159*
X457920Y307378*
X457692Y306909*
X457351Y306753*
X457124*
X456783Y306909*
X456556Y307378*
X456442Y308159*
Y308628*
X456556Y309409*
X456783Y309878*
X457124Y310034*
X457351*
X439597Y285850D02*
X439711Y286163D01*
X439938Y286475*
X440165Y286632*
X440620*
X440847Y286475*
X441074Y286163*
X441188Y285850*
X441302Y285382*
Y284600*
X441188Y284132*
X441074Y283819*
X440847Y283507*
X440620Y283350*
X440165*
X439938Y283507*
X439711Y283819*
X439597Y284132*
X436984Y286632D02*
X438120Y283350D01*
X438574Y286632D02*
X436984D01*
X435961Y286007D02*
X435734Y286163D01*
X435393Y286632*
Y283350*
X426978Y302513D02*
X427092Y302825D01*
X427319Y303138*
X427547Y303294*
X428001*
X428228Y303138*
X428456Y302825*
X428569Y302513*
X428683Y302044*
Y301263*
X428569Y300794*
X428456Y300482*
X428228Y300169*
X428001Y300013*
X427547*
X427319Y300169*
X427092Y300482*
X426978Y300794*
X424365Y303294D02*
X425501Y300013D01*
X425956Y303294D02*
X424365D01*
X423228Y302513D02*
Y302669D01*
X423115Y302982*
X423001Y303138*
X422774Y303294*
X422319*
X422092Y303138*
X421978Y302982*
X421865Y302669*
Y302357*
X421978Y302044*
X422206Y301575*
X423342Y300013*
X421751*
X400827Y303799D02*
X400941Y304112D01*
X401168Y304424*
X401395Y304581*
X401850*
X402077Y304424*
X402304Y304112*
X402418Y303799*
X402531Y303331*
Y302549*
X402418Y302081*
X402304Y301768*
X402077Y301456*
X401850Y301299*
X401395*
X401168Y301456*
X400941Y301768*
X400827Y302081*
X398213Y304581D02*
X399350Y301299D01*
X399804Y304581D02*
X398213D01*
X396963D02*
X395713D01*
X396395Y303331*
X396054*
X395827Y303174*
X395713Y303018*
X395600Y302549*
Y302237*
X395713Y301768*
X395941Y301456*
X396281Y301299*
X396622*
X396963Y301456*
X397077Y301612*
X397191Y301924*
X422350Y325179D02*
X422464Y325491D01*
X422691Y325804*
X422919Y325960*
X423373*
X423600Y325804*
X423828Y325491*
X423941Y325179*
X424055Y324710*
Y323929*
X423941Y323460*
X423828Y323148*
X423600Y322835*
X423373Y322679*
X422919*
X422691Y322835*
X422464Y323148*
X422350Y323460*
X419737Y325960D02*
X420873Y322679D01*
X421328Y325960D02*
X419737D01*
X417578D02*
X418714Y323773D01*
X417010*
X417578Y325960D02*
Y322679D01*
X451689Y340145D02*
X451779Y340391D01*
X451958Y340637*
X452137Y340760*
X452494*
X452673Y340637*
X452852Y340391*
X452942Y340145*
X453031Y339776*
Y339161*
X452942Y338792*
X452852Y338546*
X452673Y338300*
X452494Y338177*
X452137*
X451958Y338300*
X451779Y338546*
X451689Y338792*
X449542Y340145D02*
X449631Y340391D01*
X449810Y340637*
X449989Y340760*
X450347*
X450526Y340637*
X450705Y340391*
X450794Y340145*
X450884Y339776*
Y339161*
X450794Y338792*
X450705Y338546*
X450526Y338300*
X450347Y338177*
X449989*
X449810Y338300*
X449631Y338546*
X449542Y338792*
Y339161*
X449989D02*
X449542D01*
X447484Y340760D02*
X448379Y338177D01*
X448736Y340760D02*
X447484D01*
X433908Y356428D02*
X434022Y356740D01*
X434249Y357053*
X434476Y357209*
X434931*
X435158Y357053*
X435386Y356740*
X435499Y356428*
X435613Y355959*
Y355178*
X435499Y354709*
X435386Y354397*
X435158Y354084*
X434931Y353928*
X434476*
X434249Y354084*
X434022Y354397*
X433908Y354709*
X431181Y356428D02*
X431295Y356740D01*
X431522Y357053*
X431749Y357209*
X432204*
X432431Y357053*
X432658Y356740*
X432772Y356428*
X432886Y355959*
Y355178*
X432772Y354709*
X432658Y354397*
X432431Y354084*
X432204Y353928*
X431749*
X431522Y354084*
X431295Y354397*
X431181Y354709*
Y355178*
X431749D02*
X431181D01*
X429590Y357209D02*
X429931Y357053D01*
X430045Y356740*
Y356428*
X429931Y356115*
X429704Y355959*
X429249Y355803*
X428908Y355647*
X428681Y355334*
X428567Y355022*
Y354553*
X428681Y354240*
X428795Y354084*
X429136Y353928*
X429590*
X429931Y354084*
X430045Y354240*
X430158Y354553*
Y355022*
X430045Y355334*
X429817Y355647*
X429476Y355803*
X429022Y355959*
X428795Y356115*
X428681Y356428*
Y356740*
X428795Y357053*
X429136Y357209*
X429590*
X263650Y258012D02*
X263763Y258324D01*
X263991Y258637*
X264218Y258793*
X264673*
X264900Y258637*
X265127Y258324*
X265241Y258012*
X265354Y257543*
Y256762*
X265241Y256293*
X265127Y255981*
X264900Y255668*
X264673Y255512*
X264218*
X263991Y255668*
X263763Y255981*
X263650Y256293*
X262627Y258168D02*
X262400Y258324D01*
X262059Y258793*
Y255512*
X260354Y258793D02*
X260695Y258637D01*
X260923Y258168*
X261036Y257387*
Y256918*
X260923Y256137*
X260695Y255668*
X260354Y255512*
X260127*
X259786Y255668*
X259559Y256137*
X259445Y256918*
Y257387*
X259559Y258168*
X259786Y258637*
X260127Y258793*
X260354*
X258195D02*
X256945D01*
X257627Y257543*
X257286*
X257059Y257387*
X256945Y257231*
X256832Y256762*
Y256449*
X256945Y255981*
X257173Y255668*
X257513Y255512*
X257854*
X258195Y255668*
X258309Y255824*
X258423Y256137*
X288683Y354767D02*
X288995Y354653D01*
X289308Y354426*
X289464Y354199*
Y353744*
X289308Y353517*
X288995Y353290*
X288683Y353176*
X288214Y353062*
X287433*
X286964Y353176*
X286652Y353290*
X286339Y353517*
X286183Y353744*
Y354199*
X286339Y354426*
X286652Y354653*
X286964Y354767*
X288683Y357494D02*
X288995Y357381D01*
X289308Y357153*
X289464Y356926*
Y356472*
X289308Y356244*
X288995Y356017*
X288683Y355903*
X288214Y355790*
X287433*
X286964Y355903*
X286652Y356017*
X286339Y356244*
X286183Y356472*
Y356926*
X286339Y357153*
X286652Y357381*
X286964Y357494*
X287433*
Y356926D02*
Y357494D01*
X288839Y358517D02*
X288995Y358744D01*
X289464Y359085*
X286183*
X289464Y360676D02*
X289308Y360335D01*
X288995Y360222*
X288683*
X288370Y360335*
X288214Y360562*
X288058Y361017*
X287902Y361358*
X287589Y361585*
X287277Y361699*
X286808*
X286495Y361585*
X286339Y361472*
X286183Y361131*
Y360676*
X286339Y360335*
X286495Y360222*
X286808Y360108*
X287277*
X287589Y360222*
X287902Y360449*
X288058Y360790*
X288214Y361244*
X288370Y361472*
X288683Y361585*
X288995*
X289308Y361472*
X289464Y361131*
Y360676*
X480533Y331844D02*
X480622Y332090D01*
X480801Y332336*
X480980Y332459*
X481338*
X481517Y332336*
X481696Y332090*
X481786Y331844*
X481875Y331474*
Y330859*
X481786Y330490*
X481696Y330244*
X481517Y329998*
X481338Y329875*
X480980*
X480801Y329998*
X480622Y330244*
X480533Y330490*
X478385Y331844D02*
X478475Y332090D01*
X478654Y332336*
X478833Y332459*
X479191*
X479370Y332336*
X479549Y332090*
X479638Y331844*
X479728Y331474*
Y330859*
X479638Y330490*
X479549Y330244*
X479370Y329998*
X479191Y329875*
X478833*
X478654Y329998*
X478475Y330244*
X478385Y330490*
Y330859*
X478833D02*
X478385D01*
X477491Y331844D02*
Y331967D01*
X477401Y332213*
X477312Y332336*
X477133Y332459*
X476775*
X476596Y332336*
X476506Y332213*
X476417Y331967*
Y331720*
X476506Y331474*
X476685Y331105*
X477580Y329875*
X476327*
X475522Y331967D02*
X475343Y332090D01*
X475075Y332459*
Y329875*
X422330Y341836D02*
X422444Y342148D01*
X422671Y342461*
X422898Y342617*
X423353*
X423580Y342461*
X423807Y342148*
X423921Y341836*
X424035Y341367*
Y340586*
X423921Y340117*
X423807Y339805*
X423580Y339492*
X423353Y339336*
X422898*
X422671Y339492*
X422444Y339805*
X422330Y340117*
X420398Y342617D02*
X421307Y339336D01*
X420398Y342617D02*
X419489Y339336D01*
X420966Y340430D02*
X419830D01*
X418353Y341836D02*
Y341992D01*
X418239Y342305*
X418125Y342461*
X417898Y342617*
X417444*
X417216Y342461*
X417103Y342305*
X416989Y341992*
Y341680*
X417103Y341367*
X417330Y340898*
X418466Y339336*
X416875*
X414375Y342617D02*
X415512D01*
X415625Y341211*
X415512Y341367*
X415171Y341523*
X414830*
X414489Y341367*
X414262Y341055*
X414148Y340586*
X414262Y340273*
X414375Y339805*
X414603Y339492*
X414944Y339336*
X415285*
X415625Y339492*
X415739Y339648*
X415853Y339961*
X463075Y324580D02*
X463189Y324892D01*
X463416Y325205*
X463643Y325361*
X464098*
X464325Y325205*
X464552Y324892*
X464666Y324580*
X464780Y324111*
Y323330*
X464666Y322861*
X464552Y322548*
X464325Y322236*
X464098Y322080*
X463643*
X463416Y322236*
X463189Y322548*
X463075Y322861*
X461143Y325361D02*
X462052Y322080D01*
X461143Y325361D02*
X460234Y322080D01*
X461712Y323173D02*
X460575D01*
X459098Y324580D02*
Y324736D01*
X458984Y325048*
X458871Y325205*
X458643Y325361*
X458189*
X457962Y325205*
X457848Y325048*
X457734Y324736*
Y324423*
X457848Y324111*
X458075Y323642*
X459212Y322080*
X457621*
X455234Y324892D02*
X455348Y325205D01*
X455689Y325361*
X455916*
X456257Y325205*
X456484Y324736*
X456598Y323955*
Y323173*
X456484Y322548*
X456257Y322236*
X455916Y322080*
X455802*
X455462Y322236*
X455234Y322548*
X455121Y323017*
Y323173*
X455234Y323642*
X455462Y323955*
X455802Y324111*
X455916*
X456257Y323955*
X456484Y323642*
X456598Y323173*
X469045Y354625D02*
X469159Y354938D01*
X469159D02*
X469386Y355250D01*
X469614Y355406*
X470068*
X470295Y355250*
X470523Y354938*
X470523D02*
X470636Y354625D01*
X470750Y354156*
Y353375*
X470636Y352906*
X470523Y352594*
X470295Y352281*
X470068Y352125*
X469614*
X469386Y352281*
X469159Y352594*
X469045Y352906*
X467114Y355406D02*
X468023Y352125D01*
X467114Y355406D02*
X466205Y352125D01*
X467682Y353219D02*
X466545D01*
X465068Y354625D02*
Y354781D01*
X464955Y355094*
X464841Y355250*
X464614Y355406*
X464159*
X463932Y355250*
X463818Y355094*
X463705Y354781*
Y354469*
X463818Y354156*
X464045Y353688*
X464045D02*
X465182Y352125D01*
X463591*
X460977Y355406D02*
X462114Y352125D01*
X462568Y355406D02*
X460977D01*
X482164Y301734D02*
X482277Y302046D01*
X482504Y302359*
X482732Y302515*
X483186*
X483414Y302359*
X483641Y302046*
X483754Y301734*
X483868Y301265*
Y300484*
X483754Y300015*
X483641Y299703*
X483414Y299390*
X483186Y299234*
X482732*
X482504Y299390*
X482277Y299703*
X482164Y300015*
X480232Y302515D02*
X481141Y299234D01*
X480232Y302515D02*
X479323Y299234D01*
X480800Y300328D02*
X479664D01*
X478186Y301734D02*
Y301890D01*
X478073Y302203*
X477959Y302359*
X477732Y302515*
X477277*
X477050Y302359*
X476936Y302203*
X476823Y301890*
Y301578*
X476936Y301265*
X477164Y300796*
X478300Y299234*
X476709*
X475118Y302515D02*
X475459Y302359D01*
X475573Y302046*
Y301734*
X475459Y301421*
X475232Y301265*
X474777Y301109*
X474436Y300953*
X474209Y300640*
X474095Y300328*
Y299859*
X474209Y299546*
X474323Y299390*
X474664Y299234*
X475118*
X475459Y299390*
X475573Y299546*
X475686Y299859*
Y300328*
X475573Y300640*
X475345Y300953*
X475004Y301109*
X474550Y301265*
X474323Y301421*
X474209Y301734*
Y302046*
X474323Y302359*
X474664Y302515*
X475118*
X440983Y302262D02*
X441096Y302574D01*
X441323Y302887*
X441551Y303043*
X442005*
X442233Y302887*
X442460Y302574*
X442573Y302262*
X442687Y301793*
Y301012*
X442573Y300543*
X442460Y300230*
X442233Y299918*
X442005Y299762*
X441551*
X441323Y299918*
X441096Y300230*
X440983Y300543*
X439051Y303043D02*
X439960Y299762D01*
X439051Y303043D02*
X438142Y299762D01*
X439619Y300855D02*
X438483D01*
X437005Y302262D02*
Y302418D01*
X436892Y302730*
X436778Y302887*
X436551Y303043*
X436096*
X435869Y302887*
X435755Y302730*
X435642Y302418*
Y302105*
X435755Y301793*
X435983Y301324*
X437119Y299762*
X435528*
X433028Y301949D02*
X433142Y301480D01*
X433369Y301168*
X433710Y301012*
X433823*
X434164Y301168*
X434392Y301480*
X434505Y301949*
Y302105*
X434392Y302574*
X434164Y302887*
X433823Y303043*
X433710*
X433369Y302887*
X433142Y302574*
X433028Y301949*
Y301168*
X433142Y300387*
X433369Y299918*
X433710Y299762*
X433937*
X434278Y299918*
X434392Y300230*
X422977Y287588D02*
X423090Y287901D01*
X423318Y288213*
X423545Y288369*
X423999*
X424227Y288213*
X424454Y287901*
X424568Y287588*
X424681Y287119*
Y286338*
X424568Y285869*
X424454Y285557*
X424227Y285244*
X423999Y285088*
X423545*
X423318Y285244*
X423090Y285557*
X422977Y285869*
X421045Y288369D02*
X421954Y285088D01*
X421045Y288369D02*
X420136Y285088D01*
X421613Y286182D02*
X420477D01*
X418886Y288369D02*
X417636D01*
X418318Y287119*
X417977*
X417749Y286963*
X417636Y286807*
X417522Y286338*
Y286026*
X417636Y285557*
X417863Y285244*
X418204Y285088*
X418545*
X418886Y285244*
X418999Y285401*
X419113Y285713*
X415818Y288369D02*
X416158Y288213D01*
X416386Y287744*
X416499Y286963*
Y286494*
X416386Y285713*
X416158Y285244*
X415818Y285088*
X415590*
X415249Y285244*
X415022Y285713*
X414908Y286494*
Y286963*
X415022Y287744*
X415249Y288213*
X415590Y288369*
X415818*
X423570Y308750D02*
X423684Y309063D01*
X423911Y309375*
X424139Y309532*
X424593*
X424820Y309375*
X425048Y309063*
X425161Y308750*
X425275Y308282*
Y307500*
X425161Y307032*
X425048Y306719*
X424820Y306407*
X424593Y306250*
X424139*
X423911Y306407*
X423684Y306719*
X423570Y307032*
X421639Y309532D02*
X422548Y306250D01*
X421639Y309532D02*
X420730Y306250D01*
X422207Y307344D02*
X421070D01*
X419480Y309532D02*
X418230D01*
X418911Y308282*
X418570*
X418343Y308125*
X418230Y307969*
X418116Y307500*
Y307188*
X418230Y306719*
X418457Y306407*
X418798Y306250*
X419139*
X419480Y306407*
X419593Y306563*
X419707Y306875*
X417093Y308907D02*
X416866Y309063D01*
X416525Y309532*
Y306250*
X402298Y325782D02*
X402411Y326095D01*
X402639Y326407*
X402866Y326563*
X403320*
X403548Y326407*
X403775Y326095*
X403889Y325782*
X404002Y325313*
Y324532*
X403889Y324063*
X403775Y323751*
X403548Y323438*
X403320Y323282*
X402866*
X402639Y323438*
X402411Y323751*
X402298Y324063*
X400366Y326563D02*
X401275Y323282D01*
X400366Y326563D02*
X399457Y323282D01*
X400934Y324376D02*
X399798D01*
X398207Y326563D02*
X396957D01*
X397639Y325313*
X397298*
X397070Y325157*
X396957Y325001*
X396843Y324532*
Y324220*
X396957Y323751*
X397184Y323438*
X397525Y323282*
X397866*
X398207Y323438*
X398320Y323595*
X398434Y323907*
X395707Y325782D02*
Y325938D01*
X395593Y326251*
X395479Y326407*
X395252Y326563*
X394798*
X394570Y326407*
X394457Y326251*
X394343Y325938*
Y325626*
X394457Y325313*
X394684Y324845*
X395820Y323282*
X394229*
X454342Y320727D02*
Y317446D01*
Y320727D02*
X453319D01*
X452978Y320571*
X452865Y320415*
X452751Y320102*
Y319790*
X452865Y319477*
X452978Y319321*
X453319Y319165*
X454342*
X453546D02*
X452751Y317446D01*
X450819Y320727D02*
X451728Y317446D01*
X450819Y320727D02*
X449910Y317446D01*
X451387Y318540D02*
X450251D01*
X447751Y320727D02*
X448887Y318540D01*
X447183*
X447751Y320727D02*
Y317446D01*
X452986Y337499D02*
Y334915D01*
Y337499D02*
X452181D01*
X451912Y337376*
X451823Y337253*
X451733Y337006*
Y336760*
X451823Y336514*
X451912Y336391*
X452181Y336268*
X452986*
X452360D02*
X451733Y334915D01*
X450391Y337499D02*
X450570Y337376D01*
X450749Y337129*
X450838Y336883*
X450928Y336514*
Y335899*
X450838Y335530*
X450749Y335284*
X450570Y335038*
X450391Y334915*
X450033*
X449854Y335038*
X449675Y335284*
X449586Y335530*
X449496Y335899*
Y336514*
X449586Y336883*
X449675Y337129*
X449854Y337376*
X450033Y337499*
X450391*
X450123Y335407D02*
X449586Y334669D01*
X448691Y337006D02*
X448512Y337129D01*
X448244Y337499*
Y334915*
X226740Y142854D02*
X226854Y143167D01*
X227081Y143479*
X227309Y143636*
X227763*
X227990Y143479*
X228218Y143167*
X228331Y142854*
X228445Y142386*
Y141604*
X228331Y141136*
X228218Y140823*
X227990Y140511*
X227763Y140354*
X227309*
X227081Y140511*
X226854Y140823*
X226740Y141136*
X225149Y143636D02*
X225490Y143479D01*
X225604Y143167*
Y142854*
X225490Y142542*
X225263Y142386*
X224809Y142229*
X224468Y142073*
X224240Y141761*
X224127Y141448*
Y140979*
X224240Y140667*
X224354Y140511*
X224695Y140354*
X225149*
X225490Y140511*
X225604Y140667*
X225718Y140979*
Y141448*
X225604Y141761*
X225377Y142073*
X225036Y142229*
X224581Y142386*
X224354Y142542*
X224240Y142854*
Y143167*
X224354Y143479*
X224695Y143636*
X225149*
X221968D02*
X223104Y141448D01*
X221399*
X221968Y143636D02*
Y140354D01*
X210008Y360866D02*
X210122Y361179D01*
X210349Y361491*
X210576Y361647*
X211031*
X211258Y361491*
X211485Y361179*
X211599Y360866*
X211713Y360397*
Y359616*
X211599Y359147*
X211485Y358835*
X211258Y358522*
X211031Y358366*
X210576*
X210349Y358522*
X210122Y358835*
X210008Y359147*
X208417Y361647D02*
X208758Y361491D01*
X208872Y361179*
Y360866*
X208758Y360554*
X208531Y360397*
X208076Y360241*
X207735Y360085*
X207508Y359772*
X207394Y359460*
Y358991*
X207508Y358679*
X207622Y358522*
X207963Y358366*
X208417*
X208758Y358522*
X208872Y358679*
X208985Y358991*
Y359460*
X208872Y359772*
X208644Y360085*
X208304Y360241*
X207849Y360397*
X207622Y360554*
X207508Y360866*
Y361179*
X207622Y361491*
X207963Y361647*
X208417*
X204894D02*
X206031D01*
X206144Y360241*
X206031Y360397*
X205690Y360554*
X205349*
X205008Y360397*
X204781Y360085*
X204667Y359616*
X204781Y359304*
X204894Y358835*
X205122Y358522*
X205463Y358366*
X205804*
X206144Y358522*
X206258Y358679*
X206372Y358991*
X386811Y357286D02*
X386925Y357598D01*
X387152Y357911*
X387379Y358067*
X387834*
X388061Y357911*
X388289Y357598*
X388289D02*
X388402Y357286D01*
X388516Y356817*
Y356036*
X388402Y355567*
X388289Y355255*
X388289D02*
X388061Y354942D01*
X387834Y354786*
X387379*
X387152Y354942*
X386925Y355255*
X386811Y355567*
X385220Y358067D02*
X385561Y357911D01*
X385675Y357598*
Y357286*
X385561Y356973*
X385334Y356817*
X384879Y356661*
X384539Y356505*
X384539D02*
X384311Y356192D01*
X384198Y355880*
Y355411*
X384311Y355098*
X384425Y354942*
X384766Y354786*
X385220*
X385561Y354942*
X385675Y355098*
X385789Y355411*
X385789D02*
Y355880D01*
X385789D02*
X385675Y356192D01*
X385448Y356505*
X385107Y356661*
X384652Y356817*
X384425Y356973*
X384311Y357286*
Y357598*
X384425Y357911*
X384766Y358067*
X385220*
X381811Y357598D02*
X381925Y357911D01*
X382266Y358067*
X382493*
X382834Y357911*
X383061Y357442*
X383175Y356661*
Y355880*
X383061Y355255*
X382834Y354942*
X382493Y354786*
X382379*
X382039Y354942*
X382039D02*
X381811Y355255D01*
X381698Y355723*
Y355880*
X381811Y356348*
X382039Y356661*
X382039D02*
X382379Y356817D01*
X382493*
X382834Y356661*
X383061Y356348*
X383175Y355880*
X183169Y139699D02*
X182260Y136417D01*
X181351Y139699D02*
X182260Y136417D01*
X180101Y139699D02*
X178851D01*
X179533Y138449*
X179192*
X178965Y138292*
X178851Y138136*
X178737Y137667*
Y137355*
X178851Y136886*
X179078Y136574*
X179419Y136417*
X179760*
X180101Y136574*
X180215Y136730*
X180328Y137042*
X383638Y239816D02*
X383751Y240129D01*
X383979Y240441*
X384206Y240598*
X384660*
X384888Y240441*
X385115Y240129*
X385229Y239816*
X385342Y239348*
Y238566*
X385229Y238098*
X385115Y237785*
X384888Y237473*
X384660Y237316*
X384206*
X383979Y237473*
X383751Y237785*
X383638Y238098*
X382047Y240598D02*
X382388Y240441D01*
X382501Y240129*
Y239816*
X382388Y239504*
X382160Y239348*
X381706Y239191*
X381365Y239035*
X381138Y238723*
X381024Y238410*
Y237941*
X381138Y237629*
X381251Y237473*
X381592Y237316*
X382047*
X382388Y237473*
X382501Y237629*
X382615Y237941*
Y238410*
X382501Y238723*
X382274Y239035*
X381933Y239191*
X381479Y239348*
X381251Y239504*
X381138Y239816*
Y240129*
X381251Y240441*
X381592Y240598*
X382047*
X378410D02*
X379547Y237316D01*
X380001Y240598D02*
X378410D01*
X172874Y137138D02*
X173187Y137024D01*
X173499Y136797*
X173655Y136569*
Y136115*
X173499Y135888*
X173187Y135660*
X172874Y135547*
X172405Y135433*
X171624*
X171155Y135547*
X170843Y135660*
X170530Y135888*
X170374Y136115*
Y136569*
X170530Y136797*
X170843Y137024*
X171155Y137138*
X172874Y139865D02*
X173187Y139751D01*
X173499Y139524*
X173655Y139297*
Y138842*
X173499Y138615*
X173187Y138388*
X172874Y138274*
X172405Y138160*
X171624*
X171155Y138274*
X170843Y138388*
X170530Y138615*
X170374Y138842*
Y139297*
X170530Y139524*
X170843Y139751*
X171155Y139865*
X171624*
Y139297D02*
Y139865D01*
X173030Y140888D02*
X173187Y141115D01*
X173655Y141456*
X170374*
X173030Y142479D02*
X173187Y142706D01*
X173655Y143047*
X170374*
X191060Y136268D02*
X191373Y136154D01*
X191685Y135927*
X191842Y135700*
Y135245*
X191685Y135018*
X191373Y134791*
X191060Y134677*
X190592Y134564*
X189810*
X189342Y134677*
X189029Y134791*
X188717Y135018*
X188560Y135245*
Y135700*
X188717Y135927*
X189029Y136154*
X189342Y136268*
X191060Y138995D02*
X191373Y138882D01*
X191685Y138654*
X191842Y138427*
Y137973*
X191685Y137745*
X191373Y137518*
X191060Y137404*
X190592Y137291*
X189810*
X189342Y137404*
X189029Y137518*
X188717Y137745*
X188560Y137973*
Y138427*
X188717Y138654*
X189029Y138882*
X189342Y138995*
X189810*
Y138427D02*
Y138995D01*
X191217Y140018D02*
X191373Y140245D01*
X191842Y140586*
X188560*
X191060Y141723D02*
X191217D01*
X191529Y141836*
X191685Y141950*
X191842Y142177*
Y142632*
X191685Y142859*
X191529Y142973*
X191217Y143086*
X190904*
X190592Y142973*
X190123Y142745*
X188560Y141609*
Y143200*
X456415Y225777D02*
X456529Y226090D01*
X456756Y226402*
X456983Y226558*
X457438*
X457665Y226402*
X457892Y226090*
X458006Y225777*
X458119Y225308*
Y224527*
X458006Y224058*
X457892Y223746*
X457665Y223433*
X457438Y223277*
X456983*
X456756Y223433*
X456529Y223746*
X456415Y224058*
X454824Y226558D02*
X455165Y226402D01*
X455279Y226090*
Y225777*
X455165Y225465*
X454938Y225308*
X454483Y225152*
X454142Y224996*
X453915Y224683*
X453801Y224371*
Y223902*
X453915Y223590*
X454029Y223433*
X454369Y223277*
X454824*
X455165Y223433*
X455279Y223590*
X455392Y223902*
Y224371*
X455279Y224683*
X455051Y224996*
X454710Y225152*
X454256Y225308*
X454029Y225465*
X453915Y225777*
Y226090*
X454029Y226402*
X454369Y226558*
X454824*
X452210D02*
X452551Y226402D01*
X452665Y226090*
Y225777*
X452551Y225465*
X452324Y225308*
X451869Y225152*
X451529Y224996*
X451301Y224683*
X451188Y224371*
Y223902*
X451301Y223590*
X451415Y223433*
X451756Y223277*
X452210*
X452551Y223433*
X452665Y223590*
X452779Y223902*
Y224371*
X452665Y224683*
X452438Y224996*
X452097Y225152*
X451642Y225308*
X451415Y225465*
X451301Y225777*
Y226090*
X451415Y226402*
X451756Y226558*
X452210*
X167244Y136583D02*
X167556Y136470D01*
X167869Y136242*
X168025Y136015*
Y135560*
X167869Y135333*
X167556Y135106*
X167244Y134992*
X166775Y134879*
X165994*
X165525Y134992*
X165213Y135106*
X164900Y135333*
X164744Y135560*
Y136015*
X164900Y136242*
X165213Y136470*
X165525Y136583*
X168025Y138515D02*
X164744Y137606D01*
X168025Y138515D02*
X164744Y139424D01*
X165838Y137947D02*
Y139083D01*
X168025Y140674D02*
Y141924D01*
X166775Y141242*
Y141583*
X166619Y141810*
X166463Y141924*
X165994Y142038*
X165681*
X165213Y141924*
X164900Y141697*
X164744Y141356*
Y141015*
X164900Y140674*
X165056Y140560*
X165369Y140447*
X168025Y144197D02*
X165838Y143060D01*
Y144765*
X168025Y144197D02*
X164744D01*
X220835Y434193D02*
X220948Y434505D01*
X221176Y434818*
X221403Y434974*
X221858*
X222085Y434818*
X222312Y434505*
X222426Y434193*
X222539Y433724*
Y432943*
X222426Y432474*
X222312Y432162*
X222085Y431849*
X221858Y431693*
X221403*
X221176Y431849*
X220948Y432162*
X220835Y432474*
X219812Y434974D02*
Y431693D01*
Y434974D02*
X218789D01*
X218448Y434818*
X218335Y434662*
X218221Y434349*
Y434037*
X218335Y433724*
X218448Y433568*
X218789Y433412*
X219812D02*
X218789D01*
X218448Y433255*
X218335Y433099*
X218221Y432787*
Y432318*
X218335Y432005*
X218448Y431849*
X218789Y431693*
X219812*
X217198Y434349D02*
X216971Y434505D01*
X216630Y434974*
Y431693*
X214926Y434974D02*
X215267Y434818D01*
X215494Y434349*
X215608Y433568*
Y433099*
X215494Y432318*
X215267Y431849*
X214926Y431693*
X214698*
X214358Y431849*
X214130Y432318*
X214017Y433099*
Y433568*
X214130Y434349*
X214358Y434818*
X214698Y434974*
X214926*
X378948Y433709D02*
X379062Y434021D01*
X379289Y434334*
X379516Y434490*
X379971*
X380198Y434334*
X380425Y434021*
X380539Y433709*
X380653Y433240*
Y432459*
X380539Y431990*
X380425Y431677*
X380198Y431365*
X379971Y431209*
X379516*
X379289Y431365*
X379062Y431677*
X378948Y431990*
X377925Y434490D02*
Y431209D01*
Y434490D02*
X376903D01*
X376562Y434334*
X376448Y434177*
X376334Y433865*
Y433552*
X376448Y433240*
X376562Y433084*
X376903Y432927*
X377925D02*
X376903D01*
X376562Y432771*
X376448Y432615*
X376334Y432302*
Y431834*
X376448Y431521*
X376562Y431365*
X376903Y431209*
X377925*
X375312Y433865D02*
X375084Y434021D01*
X374743Y434490*
Y431209*
X373721Y433865D02*
X373493Y434021D01*
X373153Y434490*
Y431209*
X158353Y312931D02*
Y309650D01*
X159149Y312931D02*
X157558D01*
X155853D02*
X156194Y312775D01*
X156422Y312306*
X156535Y311525*
Y311056*
X156422Y310275*
X156194Y309806*
X155853Y309650*
X155626*
X155285Y309806*
X155058Y310275*
X154944Y311056*
Y311525*
X155058Y312306*
X155285Y312775*
X155626Y312931*
X155853*
X252473Y313590D02*
Y310308D01*
X253268Y313590D02*
X251677D01*
X250655Y312965D02*
X250427Y313121D01*
X250086Y313590*
Y310308*
X348194Y313537D02*
Y310255D01*
X348990Y313537D02*
X347399D01*
X346262Y312755D02*
Y312912D01*
X346149Y313224*
X346035Y313380*
X345808Y313537*
X345353*
X345126Y313380*
X345012Y313224*
X344899Y312912*
Y312599*
X345012Y312287*
X345240Y311818*
X346376Y310255*
X344785*
X441003Y313090D02*
Y309809D01*
X441799Y313090D02*
X440208D01*
X438958D02*
X437708D01*
X438390Y311840*
X438049*
X437821Y311684*
X437708Y311527*
X437594Y311059*
Y310746*
X437708Y310277*
X437935Y309965*
X438276Y309809*
X438617*
X438958Y309965*
X439071Y310121*
X439185Y310434*
X384751Y120998D02*
X384979Y120842D01*
X385206Y120529*
X385319Y120217*
X385433Y119748*
Y118967*
X385319Y118498*
X385206Y118185*
X384979Y117873*
X384751Y117717*
X384297*
X384069Y117873*
X383842Y118185*
X383729Y118498*
X383615Y118967*
Y119748*
X383729Y120217*
X383842Y120529*
X384069Y120842*
X384297Y120998*
X384751*
X384410Y118342D02*
X383729Y117404D01*
X382592Y120373D02*
X382365Y120529D01*
X382024Y120998*
Y117717*
X177632Y302445D02*
X177745Y302757D01*
X177973Y303070*
X178200Y303226*
X178654*
X178882Y303070*
X179109Y302757*
X179223Y302445*
X179336Y301976*
Y301195*
X179223Y300726*
X179109Y300414*
X178882Y300101*
X178654Y299945*
X178200*
X177973Y300101*
X177745Y300414*
X177632Y300726*
X175018Y303226D02*
X176154Y299945D01*
X176609Y303226D02*
X175018D01*
X172632Y302757D02*
X172745Y303070D01*
X173086Y303226*
X173314*
X173654Y303070*
X173882Y302601*
X173995Y301820*
Y301039*
X173882Y300414*
X173654Y300101*
X173314Y299945*
X173200*
X172859Y300101*
X172632Y300414*
X172518Y300882*
Y301039*
X172632Y301507*
X172859Y301820*
X173200Y301976*
X173314*
X173654Y301820*
X173882Y301507*
X173995Y301039*
X178749Y353931D02*
X178863Y354243D01*
X179090Y354556*
X179317Y354712*
X179772*
X179999Y354556*
X180227Y354243*
X180340Y353931*
X180454Y353462*
Y352681*
X180340Y352212*
X180227Y351899*
X179999Y351587*
X179772Y351431*
X179317*
X179090Y351587*
X178863Y351899*
X178749Y352212*
X176249Y353618D02*
X176363Y353149D01*
X176590Y352837*
X176931Y352681*
X177045*
X177386Y352837*
X177613Y353149*
X177727Y353618*
Y353774*
X177613Y354243*
X177386Y354556*
X177045Y354712*
X176931*
X176590Y354556*
X176363Y354243*
X176249Y353618*
Y352837*
X176363Y352056*
X176590Y351587*
X176931Y351431*
X177158*
X177499Y351587*
X177613Y351899*
X175113Y353931D02*
Y354087D01*
X174999Y354399*
X174886Y354556*
X174658Y354712*
X174204*
X173977Y354556*
X173863Y354399*
X173749Y354087*
Y353774*
X173863Y353462*
X174090Y352993*
X175227Y351431*
X173636*
X181025Y287338D02*
X181139Y287651D01*
X181366Y287963*
X181593Y288120*
X182048*
X182275Y287963*
X182503Y287651*
X182616Y287338*
X182730Y286870*
Y286088*
X182616Y285620*
X182503Y285307*
X182275Y284995*
X182048Y284838*
X181593*
X181366Y284995*
X181139Y285307*
X181025Y285620*
X179093Y288120D02*
X180003Y284838D01*
X179093Y288120D02*
X178184Y284838D01*
X179662Y285932D02*
X178525D01*
X176934Y288120D02*
X175684D01*
X176366Y286870*
X176025*
X175798Y286713*
X175684Y286557*
X175571Y286088*
Y285776*
X175684Y285307*
X175912Y284995*
X176253Y284838*
X176593*
X176934Y284995*
X177048Y285151*
X177162Y285463*
X173071Y288120D02*
X174207D01*
X174321Y286713*
X174207Y286870*
X173866Y287026*
X173525*
X173184Y286870*
X172957Y286557*
X172843Y286088*
X172957Y285776*
X173071Y285307*
X173298Y284995*
X173639Y284838*
X173980*
X174321Y284995*
X174434Y285151*
X174548Y285463*
X271517Y302597D02*
X271631Y302909D01*
X271858Y303222*
X272085Y303378*
X272540*
X272767Y303222*
X272994Y302909*
X273108Y302597*
X273222Y302128*
Y301347*
X273108Y300878*
X272994Y300565*
X272767Y300253*
X272540Y300097*
X272085*
X271858Y300253*
X271631Y300565*
X271517Y300878*
X269017Y302284D02*
X269131Y301815D01*
X269358Y301503*
X269699Y301347*
X269813*
X270154Y301503*
X270381Y301815*
X270494Y302284*
Y302440*
X270381Y302909*
X270154Y303222*
X269813Y303378*
X269699*
X269358Y303222*
X269131Y302909*
X269017Y302284*
Y301503*
X269131Y300722*
X269358Y300253*
X269699Y300097*
X269926*
X270267Y300253*
X270381Y300565*
X267994Y302753D02*
X267767Y302909D01*
X267426Y303378*
Y300097*
X245220Y356803D02*
X245334Y357116D01*
X245561Y357428*
X245789Y357584*
X246243*
X246470Y357428*
X246698Y357116*
X246811Y356803*
X246925Y356334*
Y355553*
X246811Y355084*
X246698Y354772*
X246470Y354459*
X246243Y354303*
X245789*
X245561Y354459*
X245334Y354772*
X245220Y355084*
X242493Y356803D02*
X242607Y357116D01*
X242834Y357428*
X243061Y357584*
X243516*
X243743Y357428*
X243970Y357116*
X244084Y356803*
X244198Y356334*
Y355553*
X244084Y355084*
X243970Y354772*
X243743Y354459*
X243516Y354303*
X243061*
X242834Y354459*
X242607Y354772*
X242493Y355084*
Y355553*
X243061D02*
X242493D01*
X241470Y356959D02*
X241243Y357116D01*
X240902Y357584*
Y354303*
X238743Y357584D02*
X239880Y355397D01*
X238175*
X238743Y357584D02*
Y354303D01*
X275178Y287755D02*
X275292Y288068D01*
X275519Y288380*
X275746Y288537*
X276201*
X276428Y288380*
X276656Y288068*
X276769Y287755*
X276883Y287287*
Y286505*
X276769Y286037*
X276656Y285724*
X276428Y285412*
X276201Y285255*
X275746*
X275519Y285412*
X275292Y285724*
X275178Y286037*
X273246Y288537D02*
X274156Y285255D01*
X273246Y288537D02*
X272337Y285255D01*
X273815Y286349D02*
X272678D01*
X271087Y288537D02*
X269837D01*
X270519Y287287*
X270178*
X269951Y287130*
X269837Y286974*
X269724Y286505*
Y286193*
X269837Y285724*
X270065Y285412*
X270406Y285255*
X270746*
X271087Y285412*
X271201Y285568*
X271315Y285880*
X267337Y288068D02*
X267451Y288380D01*
X267792Y288537*
X268019*
X268360Y288380*
X268587Y287912*
X268701Y287130*
Y286349*
X268587Y285724*
X268360Y285412*
X268019Y285255*
X267906*
X267565Y285412*
X267337Y285724*
X267224Y286193*
Y286349*
X267337Y286818*
X267565Y287130*
X267906Y287287*
X268019*
X268360Y287130*
X268587Y286818*
X268701Y286349*
X135267Y353705D02*
X135381Y354017D01*
X135608Y354330*
X135836Y354486*
X136290*
X136517Y354330*
X136745Y354017*
X136858Y353705*
X136972Y353236*
Y352455*
X136858Y351986*
X136745Y351673*
X136517Y351361*
X136290Y351205*
X135836*
X135608Y351361*
X135381Y351673*
X135267Y351986*
X132767Y353392D02*
X132881Y352923D01*
X133108Y352611*
X133449Y352455*
X133563*
X133904Y352611*
X134131Y352923*
X134245Y353392*
Y353548*
X134131Y354017*
X133904Y354330*
X133563Y354486*
X133449*
X133108Y354330*
X132881Y354017*
X132767Y353392*
Y352611*
X132881Y351830*
X133108Y351361*
X133449Y351205*
X133676*
X134017Y351361*
X134131Y351673*
X131517Y354486D02*
X130267D01*
X130949Y353236*
X130608*
X130381Y353080*
X130267Y352923*
X130154Y352455*
Y352142*
X130267Y351673*
X130495Y351361*
X130836Y351205*
X131176*
X131517Y351361*
X131631Y351517*
X131745Y351830*
X229493Y353951D02*
X229607Y354264D01*
X229834Y354576*
X230061Y354733*
X230516*
X230743Y354576*
X230970Y354264*
X231084Y353951*
X231198Y353483*
Y352701*
X231084Y352233*
X230970Y351920*
X230743Y351608*
X230516Y351451*
X230061*
X229834Y351608*
X229607Y351920*
X229493Y352233*
X226993Y353639D02*
X227107Y353170D01*
X227334Y352858*
X227675Y352701*
X227789*
X228129Y352858*
X228357Y353170*
X228470Y353639*
Y353795*
X228357Y354264*
X228129Y354576*
X227789Y354733*
X227675*
X227334Y354576*
X227107Y354264*
X226993Y353639*
Y352858*
X227107Y352076*
X227334Y351608*
X227675Y351451*
X227902*
X228243Y351608*
X228357Y351920*
X224493Y354733D02*
X225629D01*
X225743Y353326*
X225629Y353483*
X225289Y353639*
X224948*
X224607Y353483*
X224379Y353170*
X224266Y352701*
X224379Y352389*
X224493Y351920*
X224720Y351608*
X225061Y351451*
X225402*
X225743Y351608*
X225857Y351764*
X225970Y352076*
X358577Y299684D02*
X358691Y299996D01*
X358918Y300309*
X359145Y300465*
X359600*
X359827Y300309*
X360054Y299996*
X360168Y299684*
X360282Y299215*
Y298434*
X360168Y297965*
X360054Y297653*
X359827Y297340*
X359600Y297184*
X359145*
X358918Y297340*
X358691Y297653*
X358577Y297965*
X356077Y299371D02*
X356191Y298903D01*
X356418Y298590*
X356759Y298434*
X356873*
X356873D02*
X357213Y298590D01*
X357441Y298903*
X357554Y299371*
Y299528*
X357441Y299996*
X357213Y300309*
X356873Y300465*
X356873D02*
X356759D01*
X356418Y300309*
X356191Y299996*
X356077Y299371*
Y298590*
X356191Y297809*
X356418Y297340*
X356759Y297184*
X356986*
X357327Y297340*
X357441Y297653*
X353691Y299996D02*
X353804Y300309D01*
X354145Y300465*
X354373*
X354373D02*
X354713Y300309D01*
X354941Y299840*
X355054Y299059*
Y298278*
X354941Y297653*
X354713Y297340*
X354373Y297184*
X354373D02*
X354259D01*
X353918Y297340*
X353691Y297653*
X353577Y298121*
Y298278*
X353691Y298746*
X353918Y299059*
X354259Y299215*
X354373*
X354373D02*
X354713Y299059D01*
X354941Y298746*
X355054Y298278*
X368562Y354218D02*
X368675Y354530D01*
X368903Y354843*
X369130Y354999*
X369584*
X369812Y354843*
X370039Y354530*
X370153Y354218*
X370266Y353749*
Y352968*
X370153Y352499*
X370039Y352187*
X369812Y351874*
X369584Y351718*
X369130*
X368903Y351874*
X368675Y352187*
X368562Y352499*
X366062Y353905D02*
X366175Y353437D01*
X366403Y353124*
X366743Y352968*
X366857*
X367198Y353124*
X367425Y353437*
X367539Y353905*
Y354062*
X367425Y354530*
X367198Y354843*
X366857Y354999*
X366743*
X366403Y354843*
X366175Y354530*
X366062Y353905*
Y353124*
X366175Y352343*
X366403Y351874*
X366743Y351718*
X366971*
X367312Y351874*
X367425Y352187*
X363448Y354999D02*
X364584Y351718D01*
X365039Y354999D02*
X363448D01*
X324230Y354039D02*
X324344Y354352D01*
X324571Y354664*
X324798Y354820*
X325253*
X325480Y354664*
X325707Y354352*
X325821Y354039*
X325934Y353570*
Y352789*
X325821Y352320*
X325707Y352008*
X325480Y351695*
X325253Y351539*
X324798*
X324571Y351695*
X324344Y352008*
X324230Y352320*
X321730Y353727D02*
X321844Y353258D01*
X322071Y352945*
X322412Y352789*
X322525*
X322866Y352945*
X323094Y353258*
X323207Y353727*
Y353883*
X323094Y354352*
X322866Y354664*
X322525Y354820*
X322412*
X322071Y354664*
X321844Y354352*
X321730Y353727*
Y352945*
X321844Y352164*
X322071Y351695*
X322412Y351539*
X322639*
X322980Y351695*
X323094Y352008*
X320139Y354820D02*
X320480Y354664D01*
X320594Y354352*
Y354039*
X320480Y353727*
X320253Y353570*
X319798Y353414*
X319457Y353258*
X319230Y352945*
X319116Y352633*
Y352164*
X319230Y351852*
X319344Y351695*
X319684Y351539*
X320139*
X320480Y351695*
X320594Y351852*
X320707Y352164*
Y352633*
X320594Y352945*
X320366Y353258*
X320025Y353414*
X319571Y353570*
X319344Y353727*
X319230Y354039*
Y354352*
X319344Y354664*
X319684Y354820*
X320139*
X370440Y287446D02*
X370554Y287758D01*
X370781Y288071*
X371009Y288227*
X371463*
X371690Y288071*
X371918Y287758*
X372031Y287446*
X372145Y286977*
Y286196*
X372031Y285727*
X371918Y285415*
X371690Y285102*
X371463Y284946*
X371009*
X370781Y285102*
X370554Y285415*
X370440Y285727*
X368509Y288227D02*
X369418Y284946D01*
X368509Y288227D02*
X367599Y284946D01*
X369077Y286040D02*
X367940D01*
X366349Y288227D02*
X365099D01*
X365781Y286977*
X365440*
X365213Y286821*
X365099Y286665*
X364986Y286196*
Y285883*
X365099Y285415*
X365327Y285102*
X365668Y284946*
X366009*
X366349Y285102*
X366463Y285258*
X366577Y285571*
X362372Y288227D02*
X363509Y284946D01*
X363963Y288227D02*
X362372D01*
X460920Y359750D02*
X461034Y360062D01*
X461034D02*
X461261Y360375D01*
X461489Y360531*
X461943*
X462170Y360375*
X462398Y360062*
X462398D02*
X462511Y359750D01*
X462625Y359281*
Y358500*
X462511Y358031*
X462398Y357719*
X462170Y357406*
X461943Y357250*
X461489*
X461261Y357406*
X461034Y357719*
X460920Y358031*
X459898Y359906D02*
X459670Y360062D01*
X459670D02*
X459330Y360531D01*
Y357250*
X457625Y360531D02*
X457966Y360375D01*
X458193Y359906*
X458307Y359125*
Y358656*
X458193Y357875*
X457966Y357406*
X457625Y357250*
X457398*
X457057Y357406*
X456830Y357875*
X456716Y358656*
Y359125*
X456830Y359906*
X457057Y360375*
X457398Y360531*
X457625*
X455011D02*
X455352Y360375D01*
X455580Y359906*
X455693Y359125*
Y358656*
X455580Y357875*
X455352Y357406*
X455011Y357250*
X454784*
X454443Y357406*
X454216Y357875*
X454102Y358656*
Y359125*
X454216Y359906*
X454443Y360375*
X454784Y360531*
X455011*
X418685Y355494D02*
X418799Y355806D01*
X419026Y356119*
X419254Y356275*
X419708*
X419935Y356119*
X420163Y355806*
X420276Y355494*
X420390Y355025*
Y354244*
X420276Y353775*
X420163Y353462*
X419935Y353150*
X419708Y352994*
X419254*
X419026Y353150*
X418799Y353462*
X418685Y353775*
X417663Y355650D02*
X417435Y355806D01*
X417095Y356275*
Y352994*
X415390Y356275D02*
X415731Y356119D01*
X415958Y355650*
X416072Y354869*
Y354400*
X415958Y353619*
X415731Y353150*
X415390Y352994*
X415163*
X414822Y353150*
X414595Y353619*
X414481Y354400*
Y354869*
X414595Y355650*
X414822Y356119*
X415163Y356275*
X415390*
X413458Y355650D02*
X413231Y355806D01*
X412890Y356275*
Y352994*
X458105Y303041D02*
X458219Y303354D01*
X458446Y303666*
X458673Y303823*
X459128*
X459355Y303666*
X459582Y303354*
X459696Y303041*
X459810Y302573*
Y301791*
X459696Y301323*
X459582Y301010*
X459355Y300698*
X459128Y300541*
X458673*
X458446Y300698*
X458219Y301010*
X458105Y301323*
X455605Y302729D02*
X455719Y302260D01*
X455946Y301948*
X456287Y301791*
X456401*
X456742Y301948*
X456969Y302260*
X457082Y302729*
Y302885*
X456969Y303354*
X456742Y303666*
X456401Y303823*
X456287*
X455946Y303666*
X455719Y303354*
X455605Y302729*
Y301948*
X455719Y301166*
X455946Y300698*
X456287Y300541*
X456514*
X456855Y300698*
X456969Y301010*
X453105Y302729D02*
X453219Y302260D01*
X453446Y301948*
X453787Y301791*
X453901*
X454242Y301948*
X454469Y302260*
X454582Y302729*
Y302885*
X454469Y303354*
X454242Y303666*
X453901Y303823*
X453787*
X453446Y303666*
X453219Y303354*
X453105Y302729*
Y301948*
X453219Y301166*
X453446Y300698*
X453787Y300541*
X454014*
X454355Y300698*
X454469Y301010*
X464344Y287643D02*
X464457Y287956D01*
X464685Y288268*
X464912Y288424*
X465366*
X465594Y288268*
X465821Y287956*
X465935Y287643*
X466048Y287174*
Y286393*
X465935Y285924*
X465821Y285612*
X465594Y285299*
X465366Y285143*
X464912*
X464685Y285299*
X464457Y285612*
X464344Y285924*
X462412Y288424D02*
X463321Y285143D01*
X462412Y288424D02*
X461503Y285143D01*
X462980Y286237D02*
X461844D01*
X460253Y288424D02*
X459003D01*
X459685Y287174*
X459344*
X459116Y287018*
X459003Y286862*
X458889Y286393*
Y286081*
X459003Y285612*
X459230Y285299*
X459571Y285143*
X459912*
X460253Y285299*
X460366Y285456*
X460480Y285768*
X457298Y288424D02*
X457639Y288268D01*
X457753Y287956*
Y287643*
X457639Y287331*
X457412Y287174*
X456957Y287018*
X456616Y286862*
X456389Y286549*
X456275Y286237*
Y285768*
X456389Y285456*
X456503Y285299*
X456844Y285143*
X457298*
X457639Y285299*
X457753Y285456*
X457866Y285768*
Y286237*
X457753Y286549*
X457525Y286862*
X457185Y287018*
X456730Y287174*
X456503Y287331*
X456389Y287643*
Y287956*
X456503Y288268*
X456844Y288424*
X457298*
X300673Y422694D02*
X300900Y423007D01*
X301241Y423163*
X301696*
X302037Y423007*
X302264Y422694*
Y422382*
X302150Y422069*
X302037Y421913*
X301809Y421757*
X301127Y421444*
X300900Y421288*
X300787Y421132*
X300673Y420819*
Y420351*
X300900Y420038*
X301241Y419882*
X301696*
X302037Y420038*
X302264Y420351*
X299423Y423163D02*
X298173D01*
X298855Y421913*
X298514*
X298287Y421757*
X298173Y421601*
X298059Y421132*
Y420819*
X298173Y420351*
X298400Y420038*
X298741Y419882*
X299082*
X299423Y420038*
X299537Y420194*
X299650Y420507*
X296809Y423163D02*
X295559D01*
X296241Y421913*
X295900*
X295673Y421757*
X295559Y421601*
X295446Y421132*
Y420819*
X295559Y420351*
X295787Y420038*
X296127Y419882*
X296468*
X296809Y420038*
X296923Y420194*
X297037Y420507*
X402078Y351686D02*
Y348405D01*
X400714*
X399578Y350905D02*
Y351061D01*
X399464Y351374*
X399350Y351530*
X399123Y351686*
X398668*
X398441Y351530*
X398328Y351374*
X398214Y351061*
Y350749*
X398328Y350436*
X398555Y349968*
X399691Y348405*
X398100*
X212169Y351048D02*
Y347767D01*
X210805*
X209555Y351048D02*
X208305D01*
X208987Y349798*
X208646*
X208419Y349642*
X208305Y349486*
X208192Y349017*
Y348704*
X208305Y348236*
X208532Y347923*
X208873Y347767*
X209214*
X209555Y347923*
X209669Y348079*
X209782Y348392*
X227461Y134285D02*
Y131004D01*
X226097*
X225074Y133660D02*
X224847Y133816D01*
X224506Y134285*
Y131004*
X126250Y148531D02*
Y145250D01*
Y148531D02*
X125227D01*
X124886Y148375*
X124773Y148219*
X124659Y147906*
Y147594*
X124773Y147281*
X124886Y147125*
X125227Y146969*
X126250*
X125455D02*
X124659Y145250D01*
X121932Y147750D02*
X122045Y148063D01*
X122273Y148375*
X122500Y148531*
X122955*
X123182Y148375*
X123409Y148063*
X123523Y147750*
X123636Y147281*
Y146500*
X123523Y146031*
X123409Y145719*
X123182Y145406*
X122955Y145250*
X122500*
X122273Y145406*
X122045Y145719*
X121932Y146031*
X119432Y148531D02*
X120568D01*
X120682Y147125*
X120568Y147281*
X120227Y147438*
X119886*
X119545Y147281*
X119318Y146969*
X119205Y146500*
X119318Y146188*
X119432Y145719*
X119659Y145406*
X120000Y145250*
X120341*
X120682Y145406*
X120795Y145563*
X120909Y145875*
X135925Y135269D02*
Y131988D01*
Y135269D02*
X134902D01*
X134562Y135113*
X134448Y134957*
X134334Y134644*
Y134332*
X134448Y134019*
X134562Y133863*
X134902Y133707*
X135925*
X135130D02*
X134334Y131988D01*
X131607Y134488D02*
X131721Y134801D01*
X131948Y135113*
X132175Y135269*
X132630*
X132857Y135113*
X133084Y134801*
X133198Y134488*
X133312Y134019*
Y133238*
X133198Y132769*
X133084Y132457*
X132857Y132144*
X132630Y131988*
X132175*
X131948Y132144*
X131721Y132457*
X131607Y132769*
X129221Y134801D02*
X129334Y135113D01*
X129675Y135269*
X129902*
X130243Y135113*
X130471Y134644*
X130584Y133863*
Y133082*
X130471Y132457*
X130243Y132144*
X129902Y131988*
X129789*
X129448Y132144*
X129221Y132457*
X129107Y132926*
Y133082*
X129221Y133551*
X129448Y133863*
X129789Y134019*
X129902*
X130243Y133863*
X130471Y133551*
X130584Y133082*
X158563Y134285D02*
Y131004D01*
Y134285D02*
X157540D01*
X157199Y134129*
X157086Y133973*
X156972Y133660*
Y133348*
X157086Y133035*
X157199Y132879*
X157540Y132723*
X158563*
X157768D02*
X156972Y131004D01*
X154245Y133504D02*
X154358Y133816D01*
X154586Y134129*
X154813Y134285*
X155268*
X155495Y134129*
X155722Y133816*
X155836Y133504*
X155949Y133035*
Y132254*
X155836Y131785*
X155722Y131473*
X155495Y131160*
X155268Y131004*
X154813*
X154586Y131160*
X154358Y131473*
X154245Y131785*
X151631Y134285D02*
X152768Y131004D01*
X153222Y134285D02*
X151631D01*
X292913Y278478D02*
Y275197D01*
Y278478D02*
X292118D01*
X291777Y278322*
X291550Y278009*
X291436Y277697*
X291322Y277228*
Y276447*
X291436Y275978*
X291550Y275666*
X291777Y275353*
X292118Y275197*
X292913*
X289391Y278478D02*
X290300Y275197D01*
X289391Y278478D02*
X288482Y275197D01*
X289959Y276291D02*
X288822D01*
X285754Y277697D02*
X285868Y278009D01*
X286095Y278322*
X286322Y278478*
X286777*
X287004Y278322*
X287232Y278009*
X287345Y277697*
X287459Y277228*
Y276447*
X287345Y275978*
X287232Y275666*
X287004Y275353*
X286777Y275197*
X286322*
X286095Y275353*
X285868Y275666*
X285754Y275978*
X275728Y274441D02*
X276041Y274327D01*
X276353Y274100*
X276510Y273873*
Y273418*
X276353Y273191*
X276041Y272963*
X275728Y272850*
X275260Y272736*
X274478*
X274010Y272850*
X273697Y272963*
X273385Y273191*
X273228Y273418*
Y273873*
X273385Y274100*
X273697Y274327*
X274010Y274441*
X275885Y275463D02*
X276041Y275691D01*
X276510Y276032*
X273228*
X276510Y277736D02*
X276353Y277395D01*
X275885Y277168*
X275103Y277054*
X274635*
X273853Y277168*
X273385Y277395*
X273228Y277736*
Y277963*
X273385Y278304*
X273853Y278532*
X274635Y278645*
X275103*
X275885Y278532*
X276353Y278304*
X276510Y277963*
Y277736*
Y280804D02*
X274322Y279668D01*
Y281373*
X276510Y280804D02*
X273228D01*
X405382Y138425D02*
X405496Y138738D01*
X405723Y139050*
X405950Y139206*
X406405*
X406632Y139050*
X406859Y138738*
X406973Y138425*
X407087Y137956*
Y137175*
X406973Y136706*
X406859Y136394*
X406632Y136081*
X406405Y135925*
X405950*
X405723Y136081*
X405496Y136394*
X405382Y136706*
X404359Y138581D02*
X404132Y138738D01*
X403791Y139206*
Y135925*
X401632Y139206D02*
X402768Y137019D01*
X401064*
X401632Y139206D02*
Y135925D01*
X399814Y139206D02*
X398564D01*
X399246Y137956*
X398905*
X398678Y137800*
X398564Y137644*
X398450Y137175*
Y136863*
X398564Y136394*
X398791Y136081*
X399132Y135925*
X399473*
X399814Y136081*
X399928Y136238*
X400041Y136550*
X415225Y148760D02*
X415338Y149072D01*
X415565Y149385*
X415565D02*
X415793Y149541D01*
X416247*
X416475Y149385*
X416702Y149072*
X416815Y148760*
X416815D02*
X416929Y148291D01*
Y147510*
X416815Y147041*
X416815D02*
X416702Y146729D01*
X416475Y146416*
X416247Y146260*
X415793*
X415565Y146416*
X415565D02*
X415338Y146729D01*
X415225Y147041*
X413293Y149541D02*
X414202Y146260D01*
X413293Y149541D02*
X412384Y146260D01*
X413861Y147354D02*
X412725D01*
X411134Y149541D02*
X409884D01*
X410565Y148291*
X410565D02*
X410225D01*
X409997Y148135*
X409884Y147979*
X409770Y147510*
Y147197*
X409884Y146729*
X410111Y146416*
X410452Y146260*
X410793*
X411134Y146416*
X411247Y146572*
X411361Y146885*
X407270Y148447D02*
X407384Y147979D01*
X407611Y147666*
X407952Y147510*
X408065*
X408065D02*
X408406Y147666D01*
X408634Y147979*
X408747Y148447*
Y148604*
X408634Y149072*
X408406Y149385*
X408065Y149541*
X408065D02*
X407952D01*
X407611Y149385*
X407384Y149072*
X407270Y148447*
Y147666*
X407384Y146885*
X407611Y146416*
X407952Y146260*
X408179*
X408520Y146416*
X408634Y146729*
X413748Y125138D02*
X413862Y125450D01*
X414089Y125763*
X414316Y125919*
X414771*
X414998Y125763*
X415225Y125450*
X415339Y125138*
X415453Y124669*
Y123888*
X415339Y123419*
X415225Y123107*
X414998Y122794*
X414771Y122638*
X414316*
X414089Y122794*
X413862Y123107*
X413748Y123419*
X411816Y125919D02*
X412725Y122638D01*
X411816Y125919D02*
X410907Y122638D01*
X412385Y123732D02*
X411248D01*
X408748Y125919D02*
X409885Y123732D01*
X408180*
X408748Y125919D02*
Y122638D01*
X406475Y125919D02*
X406816Y125763D01*
X407044Y125294*
X407157Y124513*
Y124044*
X407044Y123263*
X406816Y122794*
X406475Y122638*
X406248*
X405907Y122794*
X405680Y123263*
X405566Y124044*
Y124513*
X405680Y125294*
X405907Y125763*
X406248Y125919*
X406475*
X411288Y108898D02*
X411401Y109210D01*
X411628Y109523*
X411856Y109679*
X412310*
X412538Y109523*
X412765Y109210*
X412878Y108898*
X412992Y108429*
Y107648*
X412878Y107179*
X412765Y106866*
X412538Y106554*
X412310Y106398*
X411856*
X411628Y106554*
X411401Y106866*
X411288Y107179*
X410265Y109679D02*
Y106398D01*
X408674Y109679D02*
X410265Y107491D01*
X409697Y108273D02*
X408674Y106398D01*
X407651Y109054D02*
X407424Y109210D01*
X407083Y109679*
Y106398*
X406594Y133793D02*
Y130512D01*
Y133793D02*
X405572D01*
X405231Y133637*
X405117Y133481*
X405004Y133168*
Y132856*
X405117Y132543*
X405231Y132387*
X405572Y132231*
X406594*
X405799D02*
X405004Y130512D01*
X403981Y133793D02*
Y130512D01*
Y133793D02*
X403185D01*
X402844Y133637*
X402617Y133324*
X402504Y133012*
X402390Y132543*
Y131762*
X402504Y131293*
X402617Y130981*
X402844Y130668*
X403185Y130512*
X403981*
X400799Y133793D02*
X401140Y133637D01*
X401254Y133324*
Y133012*
X401140Y132699*
X400913Y132543*
X400458Y132387*
X400117Y132231*
X399890Y131918*
X399776Y131606*
Y131137*
X399890Y130824*
X400004Y130668*
X400344Y130512*
X400799*
X401140Y130668*
X401254Y130824*
X401367Y131137*
Y131606*
X401254Y131918*
X401026Y132231*
X400685Y132387*
X400231Y132543*
X400004Y132699*
X399890Y133012*
Y133324*
X400004Y133637*
X400344Y133793*
X400799*
X266339Y246982D02*
Y243701D01*
Y246982D02*
X265316D01*
X264975Y246826*
X264861Y246670*
X264748Y246357*
Y246045*
X264861Y245732*
X264975Y245576*
X265316Y245420*
X266339*
X265543D02*
X264748Y243701D01*
X263725Y246982D02*
Y243701D01*
Y246982D02*
X262134Y243701D01*
Y246982D02*
Y243701D01*
X261111Y246357D02*
X260884Y246513D01*
X260543Y246982*
Y243701*
X265354Y253872D02*
Y250591D01*
Y253872D02*
X264332D01*
X263991Y253716*
X263877Y253559*
X263763Y253247*
Y252934*
X263877Y252622*
X263991Y252466*
X264332Y252309*
X265354*
X264559D02*
X263763Y250591D01*
X262741Y253872D02*
Y250591D01*
Y253872D02*
X261150Y250591D01*
Y253872D02*
Y250591D01*
X260013Y253091D02*
Y253247D01*
X259900Y253559*
X259786Y253716*
X259559Y253872*
X259104*
X258877Y253716*
X258763Y253559*
X258650Y253247*
Y252934*
X258763Y252622*
X258991Y252153*
X260127Y250591*
X258536*
X262894Y265683D02*
Y262402D01*
Y265683D02*
X261871D01*
X261530Y265527*
X261416Y265370*
X261303Y265058*
Y264745*
X261416Y264433*
X261530Y264277*
X261871Y264120*
X262894*
X262098D02*
X261303Y262402D01*
X260280Y265683D02*
Y262402D01*
Y265683D02*
X258689Y262402D01*
Y265683D02*
Y262402D01*
X257439Y265683D02*
X256189D01*
X256871Y264433*
X256530*
X256303Y264277*
X256189Y264120*
X256076Y263652*
Y263339*
X256189Y262870*
X256416Y262558*
X256757Y262402*
X257098*
X257439Y262558*
X257553Y262714*
X257666Y263027*
X271260Y273557D02*
Y270276D01*
Y273557D02*
X270237D01*
X269896Y273401*
X269783Y273244*
X269669Y272932*
Y272619*
X269783Y272307*
X269896Y272151*
X270237Y271994*
X271260*
X270464D02*
X269669Y270276D01*
X268646Y273557D02*
Y270276D01*
Y273557D02*
X267055Y270276D01*
Y273557D02*
Y270276D01*
X264896Y273557D02*
X266033Y271369D01*
X264328*
X264896Y273557D02*
Y270276D01*
X313583Y274541D02*
Y271260D01*
Y274541D02*
X312560D01*
X312219Y274385*
X312105Y274229*
X311992Y273916*
Y273604*
X312105Y273291*
X312219Y273135*
X312560Y272979*
X313583*
X312787D02*
X311992Y271260D01*
X310969Y274541D02*
Y271260D01*
Y274541D02*
X309378Y271260D01*
Y274541D02*
Y271260D01*
X306878Y274541D02*
X308014D01*
X308128Y273135*
X308014Y273291*
X307674Y273447*
X307333*
X306992Y273291*
X306764Y272979*
X306651Y272510*
X306764Y272197*
X306878Y271729*
X307105Y271416*
X307446Y271260*
X307787*
X308128Y271416*
X308242Y271572*
X308355Y271885*
X324409Y264699D02*
Y261417D01*
Y264699D02*
X323387D01*
X323046Y264542*
X322932Y264386*
X322819Y264074*
Y263761*
X322932Y263449*
X323046Y263292*
X323387Y263136*
X324409*
X323614D02*
X322819Y261417D01*
X321796Y264699D02*
Y261417D01*
Y264699D02*
X320205Y261417D01*
Y264699D02*
Y261417D01*
X317819Y264230D02*
X317932Y264542D01*
X318273Y264699*
X318500*
X318841Y264542*
X319069Y264074*
X319182Y263292*
Y262511*
X319069Y261886*
X318841Y261574*
X318500Y261417*
X318387*
X318046Y261574*
X317819Y261886*
X317705Y262355*
Y262511*
X317819Y262980*
X318046Y263292*
X318387Y263449*
X318500*
X318841Y263292*
X319069Y262980*
X319182Y262511*
X324409Y258793D02*
Y255512D01*
Y258793D02*
X323387D01*
X323046Y258637*
X322932Y258481*
X322819Y258168*
Y257856*
X322932Y257543*
X323046Y257387*
X323387Y257231*
X324409*
X323614D02*
X322819Y255512D01*
X321796Y258793D02*
Y255512D01*
Y258793D02*
X320205Y255512D01*
Y258793D02*
Y255512D01*
X317591Y258793D02*
X318728Y255512D01*
X319182Y258793D02*
X317591D01*
X324409Y252888D02*
Y249606D01*
Y252888D02*
X323387D01*
X323046Y252731*
X322932Y252575*
X322819Y252263*
Y251950*
X322932Y251638*
X323046Y251481*
X323387Y251325*
X324409*
X323614D02*
X322819Y249606D01*
X321796Y252888D02*
Y249606D01*
Y252888D02*
X320205Y249606D01*
Y252888D02*
Y249606D01*
X318614Y252888D02*
X318955Y252731D01*
X319069Y252419*
Y252106*
X318955Y251794*
X318728Y251638*
X318273Y251481*
X317932Y251325*
X317705Y251013*
X317591Y250700*
Y250231*
X317705Y249919*
X317819Y249763*
X318159Y249606*
X318614*
X318955Y249763*
X319069Y249919*
X319182Y250231*
Y250700*
X319069Y251013*
X318841Y251325*
X318500Y251481*
X318046Y251638*
X317819Y251794*
X317705Y252106*
Y252419*
X317819Y252731*
X318159Y252888*
X318614*
G54D13*
X391339Y269291D02*
Y419882D01*
X406841Y435384*
Y444488*
X202362Y262402D02*
Y419882D01*
X186860Y435384*
Y444488*
X296850Y418406D02*
Y281102D01*
G54D48*
X432085Y147409D02*
X433676D01*
X433835Y145440*
X433676Y145659*
X433199Y145877*
X432722*
X432244Y145659*
X431926Y145221*
X431767Y144565*
X431926Y144127*
X432085Y143471*
X432404Y143034*
X432881Y142815*
X433358*
X433835Y143034*
X433994Y143252*
X434154Y143690*
X430335Y147409D02*
X429063Y142815D01*
X427790Y147409D02*
X429063Y142815D01*
X425404Y147409D02*
X425881Y147190D01*
X426199Y146534*
X426358Y145440*
Y144784*
X426199Y143690*
X425881Y143034*
X425404Y142815*
X425085*
X424608Y143034*
X424290Y143690*
X424131Y144784*
Y145440*
X424290Y146534*
X424608Y147190*
X425085Y147409*
X425404*
G54D180*
X294761Y347500D02*
X294852Y347750D01*
X295034Y348000*
X295216Y348125*
X295580*
X295761Y348000*
X295943Y347750*
X296034Y347500*
X296125Y347125*
Y346500*
X296034Y346125*
X295943Y345875*
X295761Y345625*
X295580Y345500*
X295216*
X295034Y345625*
X294852Y345875*
X294761Y346125*
X293216Y348125D02*
X293943Y345500D01*
X293216Y348125D02*
X292489Y345500D01*
X293670Y346375D02*
X292761D01*
X291670Y347625D02*
X291489Y347750D01*
X291216Y348125*
Y345500*
X290398Y347625D02*
X290216Y347750D01*
X289943Y348125*
Y345500*
X199886Y332500D02*
X199977Y332750D01*
X200159Y333000*
X200341Y333125*
X200705*
X200886Y333000*
X201068Y332750*
X201159Y332500*
X201250Y332125*
Y331500*
X201159Y331125*
X201068Y330875*
X200886Y330625*
X200705Y330500*
X200341*
X200159Y330625*
X199977Y330875*
X199886Y331125*
X197705Y332500D02*
X197795Y332750D01*
X197977Y333000*
X198159Y333125*
X198523*
X198705Y333000*
X198886Y332750*
X198977Y332500*
X199068Y332125*
Y331500*
X198977Y331125*
X198886Y330875*
X198705Y330625*
X198523Y330500*
X198159*
X197977Y330625*
X197795Y330875*
X197705Y331125*
Y331500*
X198159D02*
X197705D01*
X196886Y332625D02*
X196705Y332750D01*
X196432Y333125*
Y330500*
X194432Y333125D02*
X195341D01*
X195432Y332000*
X195341Y332125*
X195068Y332250*
X194795*
X194523Y332125*
X194341Y331875*
X194250Y331500*
X194341Y331250*
X194432Y330875*
X194614Y330625*
X194886Y330500*
X195159*
X195432Y330625*
X195523Y330750*
X195614Y331000*
X196980Y353824D02*
X197230Y353733D01*
X197480Y353552*
X197605Y353370*
Y353006*
X197480Y352824*
X197230Y352642*
X196980Y352552*
X196605Y352461*
X195980*
X195605Y352552*
X195355Y352642*
X195105Y352824*
X194980Y353006*
Y353370*
X195105Y353552*
X195355Y353733*
X195605Y353824*
X196980Y356006D02*
X197230Y355915D01*
X197480Y355733*
X197605Y355552*
Y355188*
X197480Y355006*
X197230Y354824*
X196980Y354733*
X196605Y354642*
X195980*
X195605Y354733*
X195355Y354824*
X195105Y355006*
X194980Y355188*
Y355552*
X195105Y355733*
X195355Y355915*
X195605Y356006*
X195980*
Y355552D02*
Y356006D01*
X197105Y356824D02*
X197230Y357006D01*
X197605Y357279*
X194980*
X197230Y359188D02*
X197480Y359097D01*
X197605Y358824*
Y358642*
X197480Y358370*
X197105Y358188*
X196480Y358097*
X195855*
X195355Y358188*
X195105Y358370*
X194980Y358642*
Y358733*
X195105Y359006*
X195355Y359188*
X195730Y359279*
X195855*
X196230Y359188*
X196480Y359006*
X196605Y358733*
Y358642*
X196480Y358370*
X196230Y358188*
X195855Y358097*
X389386Y338500D02*
X389477Y338750D01*
X389659Y339000*
X389841Y339125*
X390205*
X390386Y339000*
X390568Y338750*
X390659Y338500*
X390750Y338125*
Y337500*
X390659Y337125*
X390568Y336875*
X390386Y336625*
X390205Y336500*
X389841*
X389659Y336625*
X389477Y336875*
X389386Y337125*
X387205Y338500D02*
X387295Y338750D01*
X387477Y339000*
X387659Y339125*
X388023*
X388205Y339000*
X388386Y338750*
X388477Y338500*
X388568Y338125*
Y337500*
X388477Y337125*
X388386Y336875*
X388205Y336625*
X388023Y336500*
X387659*
X387477Y336625*
X387295Y336875*
X387205Y337125*
Y337500*
X387659D02*
X387205D01*
X386386Y338625D02*
X386205Y338750D01*
X385932Y339125*
Y336500*
X383932Y338250D02*
X384023Y337875D01*
X384205Y337625*
X384477Y337500*
X384568*
X384841Y337625*
X385023Y337875*
X385114Y338250*
Y338375*
X385023Y338750*
X384841Y339000*
X384568Y339125*
X384477*
X384205Y339000*
X384023Y338750*
X383932Y338250*
Y337625*
X384023Y337000*
X384205Y336625*
X384477Y336500*
X384659*
X384932Y336625*
X385023Y336875*
X390261Y347500D02*
X390352Y347750D01*
X390534Y348000*
X390716Y348125*
X391080*
X391261Y348000*
X391443Y347750*
X391534Y347500*
X391625Y347125*
Y346500*
X391534Y346125*
X391443Y345875*
X391261Y345625*
X391080Y345500*
X390716*
X390534Y345625*
X390352Y345875*
X390261Y346125*
X388080Y347500D02*
X388170Y347750D01*
X388352Y348000*
X388534Y348125*
X388898*
X389080Y348000*
X389261Y347750*
X389352Y347500*
X389443Y347125*
Y346500*
X389352Y346125*
X389261Y345875*
X389080Y345625*
X388898Y345500*
X388534*
X388352Y345625*
X388170Y345875*
X388080Y346125*
Y346500*
X388534D02*
X388080D01*
X387170Y347500D02*
Y347625D01*
X387080Y347875*
X386989Y348000*
X386807Y348125*
X386443*
X386261Y348000*
X386170Y347875*
X386080Y347625*
Y347375*
X386170Y347125*
X386352Y346750*
X387261Y345500*
X385989*
X384625Y348125D02*
X384898Y348000D01*
X385080Y347625*
X385170Y347000*
Y346625*
X385080Y346000*
X384898Y345625*
X384625Y345500*
X384443*
X384170Y345625*
X383989Y346000*
X383898Y346625*
Y347000*
X383989Y347625*
X384170Y348000*
X384443Y348125*
X384625*
X481636Y353875D02*
X481727Y354125D01*
X481909Y354375*
X482091Y354500*
X482455*
X482636Y354375*
X482818Y354125*
X482909Y353875*
X483000Y353500*
Y352875*
X482909Y352500*
X482818Y352250*
X482636Y352000*
X482455Y351875*
X482091*
X481909Y352000*
X481727Y352250*
X481636Y352500*
X479455Y353875D02*
X479545Y354125D01*
X479727Y354375*
X479909Y354500*
X480273*
X480455Y354375*
X480636Y354125*
X480727Y353875*
X480818Y353500*
Y352875*
X480727Y352500*
X480636Y352250*
X480455Y352000*
X480273Y351875*
X479909*
X479727Y352000*
X479545Y352250*
X479455Y352500*
Y352875*
X479909D02*
X479455D01*
X478545Y353875D02*
Y354000D01*
X478455Y354250*
X478364Y354375*
X478182Y354500*
X477818*
X477636Y354375*
X477545Y354250*
X477455Y354000*
Y353750*
X477545Y353500*
X477727Y353125*
X478636Y351875*
X477364*
X476455Y353875D02*
Y354000D01*
X476364Y354250*
X476273Y354375*
X476091Y354500*
X475727*
X475545Y354375*
X475455Y354250*
X475364Y354000*
Y353750*
X475455Y353500*
X475636Y353125*
X476545Y351875*
X475273*
X294886Y338500D02*
X294977Y338750D01*
X295159Y339000*
X295341Y339125*
X295705*
X295886Y339000*
X296068Y338750*
X296159Y338500*
X296250Y338125*
Y337500*
X296159Y337125*
X296068Y336875*
X295886Y336625*
X295705Y336500*
X295341*
X295159Y336625*
X294977Y336875*
X294886Y337125*
X292705Y338500D02*
X292795Y338750D01*
X292977Y339000*
X293159Y339125*
X293523*
X293705Y339000*
X293886Y338750*
X293977Y338500*
X294068Y338125*
Y337500*
X293977Y337125*
X293886Y336875*
X293705Y336625*
X293523Y336500*
X293159*
X292977Y336625*
X292795Y336875*
X292705Y337125*
Y337500*
X293159D02*
X292705D01*
X291886Y338625D02*
X291705Y338750D01*
X291432Y339125*
Y336500*
X289341Y339125D02*
X290250Y336500D01*
X290614Y339125D02*
X289341D01*
G54D244*
X80315Y100000D02*
X201969D01*
Y117031*
X203937Y119000D02*
G03X201969Y117031I0J-1969D01*
G01X203937Y119000D02*
X213386D01*
X215354Y117031D02*
G03X213386Y119000I-1968J0D01*
G01X215354Y117031D02*
Y100000D01*
X250807*
G03X253693Y102886I0J2886*
G01Y150524*
X256154Y152984D02*
G03X253693Y150524I-0J-2460D01*
G01X256154Y152984D02*
X260091D01*
G03X262551Y155445I-0J2461*
G01Y180051*
X265012Y182512D02*
G03X262551Y180051I-0J-2461D01*
G01X265012Y182512D02*
X304382D01*
X306843Y180051D02*
G03X304382Y182512I-2461J0D01*
G01X306843Y180051D02*
Y155445D01*
G03X309303Y152984I2460J-0*
G01X313240*
X315701Y150524D02*
G03X313240Y152984I-2461J-0D01*
G01X315701Y150524D02*
Y102295D01*
G03X317996Y100000I2295J0*
G01X513386*
Y442520*
X489764*
X481890Y450394D02*
G03X489764Y442520I7874J-0D01*
G01X481890Y450394D02*
Y454331D01*
X332283*
Y450394*
X324409Y442520D02*
G03X332283Y450394I0J7874D01*
G01X324409Y442520D02*
X269291D01*
X261417Y450394D02*
G03X269291Y442520I7874J-0D01*
G01X261417Y450394D02*
Y454331D01*
X111811*
Y450394*
X103937Y442520D02*
G03X111811Y450394I0J7874D01*
G01X103937Y442520D02*
X80315D01*
Y100000*
G74*
X0Y0D02*
M02*
