*
*
G04 PADS 9.5 Build Number: 522968 generated Gerber (RS-274-X) file*
G04 PC Version=2.1*
*
%IN "carrier13.revD.layout.p"*%
*
%MOIN*%
*
%FSLAX35Y35*%
*
*
*
*
G04 PC Standard Apertures*
*
*
G04 Thermal Relief Aperture macro.*
%AMTER*
1,1,$1,0,0*
1,0,$1-$2,0,0*
21,0,$3,$4,0,0,45*
21,0,$3,$4,0,0,135*
%
*
*
G04 Annular Aperture macro.*
%AMANN*
1,1,$1,0,0*
1,0,$2,0,0*
%
*
*
G04 Odd Aperture macro.*
%AMODD*
1,1,$1,0,0*
1,0,$1-0.005,0,0*
%
*
*
G04 PC Custom Aperture Macros*
*
*
*
*
*
*
G04 PC Aperture Table*
*
%ADD010C,0.001*%
%ADD012C,0.005*%
%ADD180C,0.004*%
%ADD244C,0.00394*%
*
*
*
*
G04 PC Circuitry*
G04 Layer Name carrier13.revD.layout.p - circuitry*
%LPD*%
*
G54D10*
G01X174560Y393107D02*
X173002D01*
X173002D02*
X172947Y393080D01*
X172941Y393074*
X172948Y393060*
X173138*
X173188Y393010*
Y391171*
X173138Y391121*
X173002*
X172947Y391093*
X172941Y391087*
X172948Y391073*
X173843*
X173850Y391087*
X173844Y391093*
X173788Y391121*
X173285*
X173235Y391171*
Y392054*
X173285Y392104*
X173800*
X173850Y392054*
Y391918*
X173874Y391871*
X173897Y391918*
Y392336*
X173874Y392383*
X173850Y392336*
Y392201*
X173800Y392151*
X173285*
X173235Y392201*
Y393010*
X173285Y393060*
X174462*
X174512Y393010*
Y392654*
X174536Y392607*
X174560Y392654*
Y393107*
X172836Y370431D02*
X172803Y370665D01*
X172636Y370832*
X172318Y371009*
X171889Y371080*
X171528*
X171172Y371045*
X170961Y370939*
X170786Y370834*
X170651Y370665*
X170584Y370431*
X170652Y370195*
X170786Y369993*
X171098Y369854*
X171530Y369782*
X171891*
X172247Y369818*
X172460Y369924*
X172470Y369928*
X172604Y369961*
X172666Y370023*
X172803Y370194*
X172836Y370431*
X172789Y370423D02*
X172752Y370202D01*
X172738Y370175*
X172591Y370028*
X172583Y370022*
X172473Y369948*
X172457Y369941*
X172310Y369904*
X172307*
X171902Y369830*
X171893Y369829*
X171562*
X171557*
X171226Y369866*
X171214Y369869*
X170919Y369980*
X170901Y369991*
X170717Y370175*
X170705Y370195*
X170632Y370415*
Y370447*
X170705Y370668*
X170713Y370682*
X170823Y370829*
X170835Y370841*
X170946Y370914*
X170964Y370922*
X171149Y370959*
X171553Y371032*
X171562Y371033*
X171893*
X171899*
X172230Y370996*
X172244Y370992*
X172502Y370882*
X172514Y370874*
X172735Y370690*
X172752Y370660*
X172789Y370439*
Y370423*
X172837Y372692D02*
X172719Y372810D01*
X172576*
X172525Y372758*
X172459Y372592*
Y372575*
X172522Y372417*
X172575Y372391*
X172662Y372362*
X172784Y372422*
X172837Y372475*
X172837D02*
Y372692D01*
X172800Y375515D02*
X172786Y375521D01*
X172781Y375516*
X172753Y375460*
Y374957*
X172703Y374907*
X170599*
X170797Y374247*
X170826Y374218*
X170850Y374242*
Y374288*
X170705Y374796*
X170753Y374860*
X172703*
X172753Y374810*
Y374306*
X172781Y374251*
X172786Y374245*
X172800Y374252*
Y375515*
X172836Y376870D02*
X172766Y377221D01*
X172586Y377545*
X172629Y377619*
X172800*
Y377906*
X172786Y377913*
X172781Y377908*
X172753Y377852*
Y377716*
X172703Y377666*
X171318*
Y377323*
X171346Y377268*
X171351Y377262*
X171365Y377269*
Y377569*
X171415Y377619*
X172409*
X172444Y377605*
X172591Y377457*
X172599Y377448*
X172709Y377264*
X172715Y377248*
X172789Y376880*
X172787Y376854*
X172750Y376744*
X172745Y376732*
X172671Y376622*
X172665Y376614*
X172591Y376540*
X172568Y376527*
X172421Y376490*
X172409Y376489*
X171318*
Y376256*
X171346Y376201*
X171351Y376195*
X171365Y376202*
Y376392*
X171415Y376442*
X172404*
X172574Y376476*
X172738Y376574*
X172802Y376703*
X172836Y376870*
X172800Y379488D02*
X172786Y379495D01*
X172781Y379490*
X172753Y379434*
Y378931*
X172703Y378881*
X171820*
X171770Y378931*
Y379446*
X171820Y379496*
X171955*
X172002Y379519*
X171955Y379543*
X171537*
X171490Y379519*
X171537Y379496*
X171673*
X171723Y379446*
Y378931*
X171673Y378881*
X170863*
X170813Y378931*
Y380108*
X170863Y380158*
X171219*
X171267Y380182*
X171219Y380205*
X170766*
Y378648*
X170794Y378592*
X170799Y378587*
X170813Y378594*
Y378783*
X170863Y378833*
X172703*
X172753Y378783*
Y378648*
X172781Y378592*
X172786Y378587*
X172800Y378594*
Y379488*
X172927Y411010D02*
X172922Y411016D01*
X172866Y411044*
X172694*
X172657Y411060*
X171958Y411833*
X171962Y411904*
X172550Y412419*
X172583Y412432*
X172810*
X172817Y412445*
X172811Y412451*
X172756Y412479*
X172374*
X172319Y412451*
X172313Y412445*
X172320Y412432*
X172399*
X172432Y412343*
X171733Y411755*
X171650Y411793*
Y413178*
X171418*
X171362Y413150*
X171356Y413145*
X171363Y413131*
X171553*
X171603Y413081*
Y411094*
X171553Y411044*
X171418*
X171362Y411016*
X171356Y411010*
X171363Y410997*
X171650*
Y411609*
X171669Y411648*
X171853Y411795*
X171921Y411791*
X172546Y411128*
X172510Y411044*
X172374*
X172319Y411016*
X172313Y411010*
X172320Y410997*
X172920*
X172927Y411010*
X172268Y391087D02*
X172262Y391093D01*
X172206Y391121*
X172071*
X172021Y391171*
Y392556*
X171678*
X171622Y392528*
X171617Y392522*
X171623Y392508*
X171924*
X171974Y392458*
Y391465*
X171959Y391430*
X171812Y391282*
X171802Y391275*
X171618Y391165*
X171602Y391158*
X171234Y391085*
X171209Y391086*
X171098Y391123*
X171086Y391129*
X170976Y391203*
X170968Y391209*
X170895Y391282*
X170882Y391306*
X170845Y391453*
X170843Y391465*
Y392556*
X170611*
X170555Y392528*
X170549Y392522*
X170556Y392508*
X170746*
X170796Y392458*
Y391470*
X170830Y391299*
X170929Y391135*
X171057Y391071*
X171225Y391038*
X171575Y391108*
X171899Y391288*
X171974Y391244*
Y391073*
X172261*
X172268Y391087*
X171836Y383222D02*
X171802Y383461D01*
X171667Y383664*
X171464Y383799*
X171221Y383834*
X171089*
X170956Y383768*
X170819Y383664*
X170713Y383523*
X170633*
X170524Y383667*
X170460Y383731*
X170289Y383799*
X170155Y383833*
X169955Y383800*
X169752Y383664*
X169617Y383461*
X169582Y383222*
X169617Y382982*
X169752Y382779*
X169955Y382644*
X170155Y382610*
X170289Y382644*
X170456Y382710*
X170521Y382808*
X170527Y382815*
X170637Y382926*
X170713Y382920*
X170819Y382779*
X170952Y382679*
X171227Y382610*
X171464Y382644*
X171667Y382779*
X171802Y382982*
X171836Y383222*
X171789Y383213D02*
X171752Y382993D01*
X171743Y382971*
X171632Y382824*
X171622Y382814*
X171475Y382703*
X171453Y382694*
X171233Y382657*
X171215*
X171031Y382694*
X171015Y382700*
X170831Y382811*
X170810Y382835*
X170737Y383019*
X170734Y383028*
X170697Y383212*
X170696Y383222*
X170697Y383230*
X170734Y383451*
X170738Y383465*
X170812Y383612*
X170831Y383632*
X171015Y383743*
X171031Y383749*
X171215Y383786*
X171233*
X171453Y383749*
X171475Y383740*
X171622Y383630*
X171632Y383620*
X171743Y383472*
X171752Y383451*
X171789Y383230*
Y383213*
X170649Y383442D02*
Y383222D01*
X170648Y383212*
X170611Y383028*
X170609Y383019*
X170535Y382835*
X170519Y382814*
X170371Y382703*
X170351Y382694*
X170167Y382657*
X170148*
X169964Y382694*
X169943Y382703*
X169796Y382814*
X169786Y382824*
X169676Y382971*
X169667Y382993*
X169630Y383213*
Y383230*
X169667Y383451*
X169676Y383472*
X169786Y383620*
X169796Y383630*
X169943Y383740*
X169964Y383749*
X170148Y383786*
X170167*
X170351Y383749*
X170371Y383740*
X170519Y383630*
X170529Y383620*
X170639Y383472*
X170649Y383442*
X171836Y385466D02*
X171803Y385700D01*
X171636Y385867*
X171318Y386044*
X170889Y386115*
X170528*
X170172Y386080*
X169961Y385974*
X169786Y385869*
X169651Y385700*
X169584Y385466*
X169651Y385230*
X169786Y385028*
X170098Y384889*
X170530Y384817*
X170891*
X171247Y384853*
X171460Y384959*
X171470Y384963*
X171604Y384996*
X171665Y385058*
X171802Y385229*
X171836Y385466*
X171789Y385458D02*
X171752Y385237D01*
X171738Y385210*
X171591Y385063*
X171583Y385057*
X171583D02*
X171473Y384983D01*
X171457Y384976*
X171310Y384939*
X171307*
X170902Y384865*
X170893Y384864*
X170562*
X170557*
X170225Y384901*
X170213Y384904*
X169919Y385014*
X169901Y385026*
X169717Y385210*
X169705Y385229*
X169632Y385450*
Y385482*
X169705Y385703*
X169713Y385717*
X169823Y385864*
X169835Y385876*
X169946Y385949*
X169964Y385957*
X170148Y385994*
X170553Y386067*
X170562Y386068*
X170893*
X170899*
X171230Y386031*
X171244Y386027*
X171502Y385917*
X171514Y385909*
X171735Y385725*
X171752Y385695*
X171789Y385474*
Y385458*
X171836Y387823D02*
X171802Y388092D01*
X171634Y388260*
X171427Y388399*
X171188Y388433*
X170947Y388398*
X170708Y388262*
X170573Y388060*
X170539Y387859*
X170573Y387690*
X170642Y387553*
X170744Y387416*
X170958Y387274*
X170938Y387183*
X170718Y387146*
X170701*
X170480Y387183*
X170479*
X170295Y387220*
X170277Y387227*
X169946Y387448*
X169932Y387462*
X169711Y387793*
X169704Y387810*
X169630Y388141*
Y388162*
X169667Y388346*
X169671Y388358*
X169692Y388400*
X169669Y388422*
X169648Y388412*
X169583Y388186*
X169617Y387980*
X169688Y387769*
X169900Y387451*
X170217Y387204*
X170462Y387134*
X170710Y387099*
X171069Y387134*
X171388Y387205*
X171597Y387345*
X171734Y387481*
X171802Y387651*
X171836Y387823*
X171789Y387811D02*
X171752Y387627D01*
X171743Y387607*
X171632Y387460*
X171624Y387451*
X171440Y387304*
X171422Y387294*
X171165Y387221*
X171129Y387224*
X170908Y387335*
X170900Y387339*
X170753Y387450*
X170740Y387464*
X170630Y387648*
X170624Y387664*
X170587Y387848*
Y387867*
X170624Y388051*
X170633Y388072*
X170743Y388219*
X170757Y388232*
X170941Y388342*
X170959Y388349*
X171179Y388385*
X171196*
X171417Y388349*
X171434Y388342*
X171618Y388232*
X171635Y388215*
X171746Y388031*
X171752Y388015*
X171789Y387831*
Y387811*
X169274Y370005D02*
X169152D01*
X169105Y369982*
X169152Y369958*
X169177*
X169227Y369908*
Y368731*
X169177Y368681*
X169140*
X169102Y368699*
X168772Y369102*
X168005Y369869*
X167834Y369971*
X167667Y370005*
X167432Y369971*
X167228Y369801*
X167091Y369596*
X167057Y369358*
X167092Y369183*
X167125Y369051*
X167369Y368807*
X167470Y368739*
X167554Y368711*
X167582Y368725*
Y368737*
X167389Y368833*
X167376Y368843*
X167228Y368990*
X167219Y369003*
X167145Y369150*
X167141Y369163*
X167104Y369347*
X167103Y369356*
X167104Y369365*
X167141Y369585*
X167147Y369603*
X167258Y369787*
X167275Y369804*
X167459Y369914*
X167475Y369921*
X167659Y369957*
X167681*
X167828Y369920*
X167846Y369911*
X167993Y369801*
X167998Y369796*
X168107Y369688*
X168288Y369543*
X168294Y369537*
X169125Y368634*
X169274*
Y370005*
X169311Y371654D02*
X169193Y371772D01*
X169051*
X168999Y371720*
X168933Y371554*
Y371537*
X168996Y371379*
X169049Y371353*
X169136Y371324*
X169258Y371384*
X169311Y371438*
Y371654*
X169272Y373779D02*
X169232Y373799D01*
X167256Y374384*
X167093*
Y373123*
X167289*
X167336Y373146*
X167289Y373170*
X167190*
X167140Y373220*
Y374287*
X167190Y374337*
X167264*
X167278Y374335*
X169221Y373748*
X169257*
X169272Y373779*
X169274Y376868D02*
X169261Y376875D01*
X169255Y376870*
X169227Y376814*
Y376678*
X169177Y376628*
X168229*
X168126Y376594*
X168122Y376593*
X167988Y376560*
X167825Y376396*
X167757Y376090*
X167826Y375813*
X167894Y375678*
X168035Y375536*
X168000Y375451*
X167792*
Y375218*
X167820Y375163*
X167826Y375157*
X167839Y375164*
Y375354*
X167889Y375404*
X169177*
X169227Y375354*
Y375218*
X169255Y375163*
X169261Y375157*
X169274Y375164*
Y375691*
X169261Y375698*
X169255Y375692*
X169227Y375636*
Y375501*
X169177Y375451*
X168220*
X168185Y375466*
X168001Y375650*
X167996Y375655*
X167886Y375802*
X167878Y375818*
X167804Y376076*
X167802Y376090*
X167803Y376100*
X167840Y376284*
X167845Y376296*
X167918Y376443*
X167940Y376466*
X168088Y376539*
X168098Y376543*
X168245Y376580*
X168257Y376581*
X169177*
X169227Y376531*
Y376396*
X169255Y376340*
X169261Y376335*
X169274Y376341*
Y376868*
Y379076D02*
X169261Y379083D01*
X169255Y379077*
X169227Y379022*
X169227D02*
Y378886D01*
X169177Y378836*
X167337*
X167287Y378886*
Y379002*
X167274Y379009*
X167268Y379004*
X167240Y378948*
Y378604*
X167268Y378548*
X167274Y378542*
X167287Y378549*
Y378739*
X167337Y378789*
X168147*
X168197Y378739*
Y377709*
X168147Y377659*
X167337*
X167287Y377709*
Y377899*
X167274Y377905*
X167268Y377900*
X167240Y377844*
Y377500*
X167268Y377444*
X167274Y377438*
X167287Y377445*
Y377562*
X167337Y377612*
X169177*
X169227Y377562*
Y377426*
X169255Y377370*
X169261Y377365*
X169274Y377372*
Y377899*
X169261Y377905*
X169255Y377900*
X169227Y377844*
Y377709*
X169177Y377659*
X168294*
X168244Y377709*
Y378739*
X168294Y378789*
X169177*
X169227Y378739*
Y378604*
X169255Y378548*
X169261Y378542*
X169274Y378549*
Y379076*
X169876Y391087D02*
X169870Y391093D01*
X169815Y391121*
X169311*
X169261Y391171*
Y393274*
X168602Y393076*
X168572Y393047*
X168596Y393024*
X168642*
X169150Y393169*
X169214Y393121*
Y391171*
X169164Y391121*
X168661*
X168605Y391093*
X168599Y391087*
X168606Y391073*
X169869*
X169876Y391087*
X170363Y411610D02*
X170294Y411633D01*
X170192*
X170142Y411683*
Y413178*
X169963*
X169104Y411711*
X169129Y411585*
X170045*
X170095Y411535*
Y411094*
X170045Y411044*
X169799*
X169743Y411016*
X169737Y411010*
X169744Y410997*
X170345*
X170352Y411010*
X170346Y411016*
X170290Y411044*
X170192*
X170142Y411094*
Y411535*
X170192Y411585*
X170363*
Y411610*
X170095Y413081D02*
Y411683D01*
X170045Y411633*
X169235*
X169191Y411707*
X169964Y413105*
X170008Y413131*
X170045*
X170095Y413081*
X171384Y414304D02*
X171360Y414351D01*
X171337Y414304*
Y414279*
X171287Y414229*
X170109*
X170059Y414279*
Y414315*
X170078Y414354*
X170480Y414684*
X171247Y415450*
X171350Y415622*
X171383Y415789*
X171350Y416024*
X171179Y416228*
X170974Y416365*
X170736Y416399*
X170562Y416364*
X170429Y416331*
X170185Y416087*
X170118Y415986*
X170090Y415901*
X170103Y415874*
X170115*
X170212Y416067*
X170221Y416080*
X170368Y416227*
X170381Y416237*
X170528Y416310*
X170541Y416315*
X170725Y416351*
X170743Y416352*
X170964Y416315*
X170981Y416308*
X171165Y416198*
X171182Y416181*
X171293Y415997*
X171299Y415981*
X171336Y415797*
X171335Y415775*
X171298Y415628*
X171290Y415610*
X171179Y415463*
X171175Y415457*
X171066Y415349*
X170921Y415167*
X170916Y415162*
X170012Y414330*
Y414181*
X171384*
Y414304*
X167826Y383733D02*
X167791Y383972D01*
X167656Y384175*
X167453Y384311*
X167210Y384345*
X167078*
X166946Y384279*
X166808Y384176*
X166702Y384034*
X166622*
X166514Y384179*
X166450Y384242*
X166450D02*
X166279Y384311D01*
X166145Y384344*
X165945Y384311*
X165741Y384175*
X165606Y383972*
X165572Y383733*
X165606Y383494*
X165741Y383291*
X165945Y383155*
X166145Y383122*
X166279Y383155*
X166445Y383222*
X166510Y383319*
X166516Y383327*
X166627Y383437*
X166702Y383432*
X166808Y383291*
X166941Y383191*
X167216Y383122*
X167453Y383156*
X167656Y383291*
X167791Y383494*
X167826Y383733*
X167778Y383725D02*
X167741Y383504D01*
X167732Y383482*
X167622Y383335*
X167612Y383325*
X167465Y383215*
X167443Y383206*
X167222Y383169*
X167204*
X167020Y383206*
X167004Y383212*
X166820Y383322*
X166799Y383347*
X166726Y383531*
X166723Y383539*
X166686Y383723*
X166685Y383733*
X166686Y383741*
X166723Y383962*
X166728Y383976*
X166801Y384123*
X166820Y384144*
X167004Y384254*
X167020Y384261*
X167204Y384297*
X167222Y384298*
X167443Y384261*
X167465Y384252*
X167612Y384141*
X167622Y384131*
X167732Y383984*
X167741Y383962*
X167778Y383741*
Y383725*
X166638Y383954D02*
Y383733D01*
X166637Y383723*
X166601Y383539*
X166598Y383531*
X166524Y383347*
X166508Y383325*
X166361Y383215*
X166341Y383206*
X166157Y383169*
X166137*
X165953Y383206*
X165933Y383215*
X165786Y383325*
X165776Y383335*
X165665Y383482*
X165656Y383504*
X165619Y383725*
Y383741*
X165656Y383962*
X165665Y383984*
X165776Y384131*
X165786Y384141*
X165933Y384252*
X165953Y384261*
X166137Y384297*
X166157*
X166341Y384261*
X166361Y384252*
X166508Y384141*
X166518Y384131*
X166628Y383984*
X166638Y383954*
X167826Y385978D02*
X167792Y386212D01*
X167625Y386379*
X167307Y386555*
X166879Y386627*
X166517*
X166161Y386591*
X165950Y386486*
X165775Y386381*
X165640Y386212*
X165573Y385978*
X165641Y385741*
X165776Y385539*
X166088Y385400*
X166519Y385329*
X166880*
X167236Y385364*
X167449Y385470*
X167459Y385474*
X167593Y385508*
X167655Y385570*
X167792Y385741*
X167826Y385978*
X167778Y385969D02*
X167741Y385749D01*
X167727Y385722*
X167580Y385574*
X167573Y385568*
X167462Y385495*
X167447Y385488*
X167300Y385451*
X167296Y385450*
X166892Y385377*
X166883Y385376*
X166552*
X166552D02*
X166546D01*
X166215Y385413*
X166203Y385416*
X165908Y385526*
X165891Y385538*
X165707Y385722*
X165695Y385741*
X165621Y385962*
Y385993*
X165695Y386214*
X165702Y386228*
X165812Y386376*
X165825Y386387*
X165935Y386461*
X165953Y386468*
X166138Y386505*
X166543Y386579*
X166552Y386580*
X166552D02*
X166883D01*
X166888Y386579*
X167219Y386542*
X167233Y386539*
X167491Y386428*
X167503Y386421*
X167724Y386237*
X167741Y386207*
X167778Y385986*
Y385969*
X167825Y388334D02*
X167792Y388604D01*
X167623Y388772*
X167416Y388910*
X167177Y388944*
X166936Y388910*
X166697Y388773*
X166562Y388571*
X166529Y388370*
X166562Y388202*
X166631Y388065*
X166734Y387928*
X166947Y387785*
X166928Y387694*
X166707Y387658*
X166690*
X166470Y387694*
X166468Y387695*
X166284Y387732*
X166266Y387739*
X165935Y387960*
X165921Y387974*
X165700Y388305*
X165693Y388322*
X165620Y388653*
X165619Y388673*
X165656Y388857*
X165661Y388870*
X165681Y388911*
X165659Y388934*
X165637Y388923*
X165572Y388698*
X165607Y388492*
X165677Y388281*
X165890Y387962*
X166207Y387716*
X166452Y387646*
X166700Y387610*
X167059Y387646*
X167378Y387717*
X167587Y387856*
X167723Y387993*
X167791Y388163*
X167825Y388334*
X167778Y388323D02*
X167741Y388139D01*
X167732Y388119*
X167622Y387971*
X167613Y387962*
X167429Y387815*
X167412Y387806*
X167154Y387733*
X167118Y387736*
X166897Y387846*
X166889Y387851*
X166742Y387961*
X166729Y387976*
X166619Y388160*
X166613Y388176*
X166576Y388359*
Y388379*
X166613Y388563*
X166622Y388583*
X166732Y388730*
X166747Y388743*
X166931Y388854*
X166948Y388860*
X167169Y388897*
X167185*
X167406Y388860*
X167423Y388854*
X167423D02*
X167607Y388743D01*
X167625Y388726*
X167735Y388542*
X167741Y388526*
X167778Y388342*
Y388323*
X167164Y391297D02*
X167112Y391349D01*
X166947Y391415*
X166929*
X166772Y391352*
X166745Y391299*
X166716Y391211*
X166777Y391090*
X166830Y391037*
X167046*
X167164Y391155*
Y391297*
X168228Y412269D02*
X168193Y412625D01*
X168087Y412836*
X167983Y413011*
X167814Y413146*
X167579Y413213*
X167343Y413145*
X167141Y413010*
X167002Y412698*
X166930Y412267*
Y411906*
X166966Y411550*
X167072Y411337*
X167076Y411327*
X167109Y411193*
X167171Y411131*
X167342Y410994*
X167579Y410960*
X167813Y410994*
X167981Y411161*
X168157Y411479*
X168228Y411908*
Y412269*
X168181Y412235D02*
Y411903D01*
Y411898*
X168144Y411567*
X168140Y411553*
X168030Y411295*
X168022Y411283*
X167839Y411062*
X167808Y411045*
X167588Y411008*
X167571*
X167350Y411045*
X167323Y411059*
X167176Y411206*
X167170Y411213*
X167096Y411324*
X167089Y411339*
X167053Y411487*
X167052Y411490*
X166978Y411894*
X166977Y411903*
Y412235*
X166978Y412240*
X167015Y412571*
X167017Y412583*
X167128Y412878*
X167139Y412895*
X167323Y413079*
X167343Y413091*
X167564Y413165*
X167595*
X167816Y413091*
X167830Y413084*
X167977Y412974*
X167989Y412961*
X168062Y412851*
X168070Y412833*
X168107Y412648*
X168180Y412244*
X168181Y412235*
X169213Y415454D02*
X169177Y415810D01*
X169072Y416021*
X168967Y416195*
X168798Y416331*
X168564Y416398*
X168564D02*
X168328Y416330D01*
X168125Y416195*
X167987Y415883*
X167915Y415452*
Y415091*
X167950Y414734*
X168057Y414522*
X168060Y414512*
X168094Y414378*
X168156Y414316*
X168327Y414179*
X168564Y414145*
X168798Y414179*
X168965Y414346*
X169141Y414663*
X169213Y415092*
Y415454*
X169166Y415419D02*
Y415088D01*
X169165Y415083*
X169129Y414751*
X169125Y414737*
X169015Y414480*
X169007Y414467*
X168823Y414247*
X168793Y414229*
X168572Y414193*
X168556*
X168335Y414229*
X168308Y414243*
X168161Y414390*
X168154Y414398*
X168081Y414508*
X168074Y414524*
X168037Y414671*
X168036Y414674*
X167963Y415079*
X167962Y415088*
Y415419*
Y415425*
X167999Y415756*
X168002Y415768*
X168112Y416062*
X168124Y416080*
X168308Y416264*
X168327Y416276*
X168548Y416350*
X168580*
X168800Y416276*
X168815Y416269*
X168962Y416158*
X168973Y416146*
X169047Y416036*
X169054Y416018*
X169091Y415833*
X169165Y415428*
X169166Y415419*
X166932Y414795D02*
X166863Y414817D01*
X166761*
X166711Y414867*
Y416363*
X166532*
X165673Y414895*
X165698Y414770*
X166614*
X166664Y414720*
Y414279*
X166614Y414229*
X166368*
X166312Y414201*
X166307Y414195*
X166313Y414181*
X166914*
X166921Y414195*
X166915Y414201*
X166859Y414229*
X166761*
X166711Y414279*
Y414720*
X166761Y414770*
X166932*
Y414795*
X166664Y416266D02*
Y414867D01*
X166614Y414817*
X165804*
X165760Y414892*
X166533Y416290*
X166577Y416316*
X166614*
X166664Y416266*
X165435Y392346D02*
X165399Y392702D01*
X165294Y392913*
X165189Y393087*
X165020Y393223*
X164786Y393289*
X164549Y393222*
X164347Y393087*
X164208Y392775*
X164136Y392344*
Y391983*
X164172Y391626*
X164278Y391414*
X164282Y391403*
X164316Y391270*
X164377Y391208*
X164549Y391071*
X164786Y391037*
X165020Y391071*
X165187Y391238*
X165363Y391555*
X165435Y391984*
Y392346*
X165387Y392311D02*
Y391980D01*
Y391975*
X165350Y391643*
X165347Y391629*
X165236Y391372*
X165229Y391359*
X165045Y391139*
X165014Y391121*
X165014D02*
X164794Y391084D01*
X164777*
X164557Y391121*
X164529Y391135*
X164382Y391282*
X164376Y391290*
X164302Y391400*
X164295Y391416*
X164259Y391563*
X164258Y391566*
X164184Y391971*
Y391980*
Y392311*
Y392317*
X164221Y392648*
X164224Y392660*
X164334Y392954*
X164345Y392972*
X164529Y393156*
X164549Y393168*
X164770Y393242*
X164801*
X165022Y393168*
X165036Y393161*
X165183Y393050*
X165195Y393038*
X165269Y392928*
X165276Y392910*
X165313Y392725*
X165387Y392320*
Y392311*
X165542Y411220D02*
X165491Y411272D01*
X165325Y411338*
X165308*
X165150Y411275*
X165124Y411222*
X165095Y411135*
X165095D02*
X165155Y411013D01*
X165208Y410960*
X165425*
X165542Y411078*
Y411220*
X163923Y411609D02*
X163889Y411850D01*
X163752Y412089*
X163550Y412224*
X163349Y412257*
X163180Y412224*
X163043Y412155*
X162906Y412053*
X162906D02*
X162764Y411839D01*
X162673Y411858*
X162636Y412079*
Y412096*
X162673Y412316*
Y412318*
X162710Y412502*
X162718Y412520*
X162938Y412851*
X162952Y412865*
X163283Y413086*
X163300Y413093*
X163631Y413166*
X163652Y413167*
X163836Y413130*
X163849Y413126*
X163890Y413105*
X163913Y413127*
X163913D02*
X163902Y413149D01*
X163676Y413214*
X163470Y413179*
X163260Y413109*
X162941Y412897*
X162694Y412579*
X162624Y412335*
X162624D02*
X162589Y412086D01*
X162625Y411727*
X162696Y411408*
X162835Y411199*
X162971Y411063*
X163142Y410995*
X163313Y410961*
X163582Y410994*
X163751Y411163*
X163889Y411370*
X163923Y411609*
X163876Y411601D02*
X163839Y411380D01*
X163832Y411363*
X163722Y411179*
X163705Y411161*
X163521Y411051*
X163505Y411045*
X163321Y411008*
X163301*
X163117Y411045*
X163097Y411054*
X162950Y411164*
X162941Y411173*
X162794Y411357*
X162785Y411375*
X162711Y411632*
X162709Y411646*
X162715Y411668*
X162825Y411889*
X162830Y411897*
X162940Y412044*
X162954Y412057*
X163138Y412167*
X163154Y412173*
X163338Y412210*
X163358*
X163542Y412173*
X163562Y412164*
X163709Y412054*
X163722Y412040*
X163832Y411856*
X163839Y411838*
X163876Y411617*
Y411601*
X163788Y416517D02*
X163774Y416524D01*
X163768Y416518*
X163740Y416463*
Y415959*
X163690Y415909*
X161587*
X161785Y415250*
X161814Y415221*
X161837Y415244*
Y415290*
X161692Y415798*
X161740Y415862*
X163690*
X163740Y415812*
Y415309*
X163768Y415253*
X163774Y415247*
X163788Y415254*
Y416517*
Y418909D02*
X163774Y418916D01*
X163768Y418910*
X163740Y418854*
Y418719*
X163690Y418669*
X162742*
X162639Y418635*
X162635Y418634*
X162502Y418600*
X162338Y418436*
X162270Y418131*
X162339Y417853*
X162407Y417718*
X162548Y417577*
X162513Y417491*
X162305*
Y417259*
X162333Y417203*
X162339Y417198*
X162353Y417204*
Y417394*
X162403Y417444*
X163690*
X163740Y417394*
Y417259*
X163768Y417203*
X163774Y417198*
X163788Y417204*
Y417731*
X163774Y417738*
X163768Y417733*
X163740Y417677*
Y417541*
X163690Y417491*
X162734*
X162698Y417506*
X162514Y417690*
X162510Y417695*
X162399Y417843*
X162391Y417859*
X162318Y418116*
X162316Y418130*
X162317Y418140*
X162354Y418324*
X162358Y418337*
X162431Y418484*
X162454Y418506*
X162601Y418580*
X162611Y418583*
X162758Y418620*
X162770Y418622*
X163690*
X163740Y418572*
Y418436*
X163768Y418381*
X163774Y418375*
X163788Y418382*
Y418909*
Y420491D02*
X163774Y420498D01*
X163768Y420492*
X163740Y420436*
Y419933*
X163690Y419883*
X162807*
X162757Y419933*
Y420448*
X162807Y420498*
X162943*
X162990Y420522*
X162943Y420545*
X162525*
X162478Y420522*
X162525Y420498*
X162660*
X162710Y420448*
Y419933*
X162660Y419883*
X161851*
X161801Y419933*
Y421111*
X161851Y421161*
X162207*
X162254Y421184*
X162207Y421208*
X161753*
Y419651*
X161781Y419595*
X161787Y419589*
X161801Y419596*
Y419786*
X161851Y419836*
X163690*
X163740Y419786*
Y419651*
X163768Y419595*
X163774Y419589*
X163788Y419596*
Y420491*
X160945Y394942D02*
X160931Y394949D01*
X160925Y394943*
X160898Y394887*
Y394384*
X160848Y394334*
X158744*
X158942Y393674*
X158971Y393645*
X158995Y393669*
Y393715*
X158849Y394223*
X158897Y394287*
X160848*
X160898Y394237*
Y393733*
X160925Y393678*
X160931Y393672*
X160945Y393679*
Y394942*
X160304Y380012D02*
X160271Y380246D01*
X160104Y380413*
X159786Y380589*
X159357Y380661*
X158996*
X158640Y380625*
X158429Y380520*
X158254Y380415*
X158119Y380246*
X158052Y380012*
X158120Y379776*
X158254Y379573*
X158566Y379435*
X158998Y379363*
X159359*
X159715Y379398*
X159928Y379505*
X159938Y379508*
X160072Y379542*
X160134Y379604*
X160270Y379775*
X160304Y380012*
X160257Y380004D02*
X160220Y379783D01*
X160206Y379756*
X160059Y379609*
X160051Y379602*
X159941Y379529*
X159925Y379522*
X159778Y379485*
X159775Y379484*
X159370Y379411*
X159361Y379410*
X159030*
X159025*
X158694Y379447*
X158682Y379450*
X158387Y379560*
X158369Y379572*
X158185Y379756*
X158173Y379775*
X158100Y379996*
Y380028*
X158173Y380248*
X158181Y380263*
X158291Y380410*
X158303Y380421*
X158414Y380495*
X158432Y380502*
X158617Y380539*
X159021Y380613*
X159030Y380614*
X159361*
X159367Y380613*
X159367D02*
X159698Y380577D01*
X159712Y380573*
X159970Y380463*
X159982Y380455*
X160203Y380271*
X160220Y380241*
X160257Y380020*
Y380004*
X160305Y382272D02*
X160187Y382390D01*
X160044*
X159993Y382339*
X159927Y382173*
Y382156*
X159989Y381998*
X160043Y381972*
X160130Y381942*
X160252Y382003*
X160305Y382056*
Y382272*
X160268Y385095D02*
X160254Y385102D01*
X160249Y385097*
X160221Y385041*
Y384538*
X160171Y384488*
X158067*
X158265Y383828*
X158294Y383799*
X158318Y383822*
Y383868*
X158173Y384377*
X158221Y384440*
X160171*
X160221Y384390*
Y383887*
X160249Y383831*
X160254Y383826*
X160268Y383833*
Y385095*
X160304Y386451D02*
X160234Y386801D01*
X160054Y387126*
X160097Y387200*
X160268*
Y387487*
X160254Y387494*
X160249Y387488*
X160221Y387433*
Y387297*
X160171Y387247*
X158786*
Y386904*
X158814Y386848*
X158819Y386843*
X158833Y386850*
Y387150*
X158883Y387200*
X159877*
X159912Y387185*
X160059Y387038*
X160067Y387029*
X160177Y386845*
X160183Y386829*
X160257Y386461*
X160255Y386435*
X160218Y386325*
X160212Y386313*
X160139Y386202*
X160133Y386195*
X160059Y386121*
X160036Y386108*
X159889Y386071*
X159877Y386070*
X158786*
Y385837*
X158814Y385781*
X158819Y385776*
X158833Y385783*
Y385973*
X158883Y386023*
X159872*
X160042Y386057*
X160206Y386155*
X160270Y386283*
X160304Y386451*
X160268Y389069D02*
X160254Y389076D01*
X160249Y389071*
X160221Y389015*
Y388511*
X160171Y388461*
X159288*
X159238Y388511*
Y389027*
X159288Y389077*
X159423*
X159470Y389100*
X159423Y389124*
X159005*
X158958Y389100*
X159005Y389077*
X159141*
X159191Y389027*
Y388511*
X159141Y388461*
X158331*
X158281Y388511*
Y389689*
X158331Y389739*
X158687*
X158734Y389762*
X158687Y389786*
X158234*
Y388229*
X158262Y388173*
X158267Y388168*
X158281Y388174*
Y388364*
X158331Y388414*
X160171*
X160221Y388364*
Y388229*
X160249Y388173*
X160254Y388168*
X160268Y388174*
Y389069*
X160829Y416690D02*
X160815Y416697D01*
X160809Y416692*
X160781Y416636*
Y416537*
X160731Y416487*
X160290*
X160240Y416537*
Y416708*
X160216*
X160193Y416640*
Y416537*
X160143Y416487*
X158647*
Y416308*
X160115Y415449*
X160240Y415474*
Y416390*
X160290Y416440*
X160731*
X160781Y416390*
Y416144*
X160809Y416089*
X160815Y416083*
X160829Y416090*
Y416690*
X160193Y416390D02*
Y415581D01*
X160119Y415537*
X158720Y416310*
X158695Y416353*
Y416390*
X158745Y416440*
X160143*
X160193Y416390*
X160552Y402177D02*
X160519Y402411D01*
X160352Y402578*
X160034Y402755*
X159605Y402826*
X159244*
X158888Y402790*
X158677Y402685*
X158502Y402580*
X158367Y402411*
X158300Y402177*
X158368Y401941*
X158502Y401738*
X158815Y401600*
X159246Y401528*
X159607*
X159963Y401563*
X160176Y401670*
X160186Y401674*
X160320Y401707*
X160382Y401769*
X160519Y401940*
X160552Y402177*
X160505Y402169D02*
X160468Y401948D01*
X160454Y401921*
X160307Y401774*
X160300Y401767*
X160189Y401694*
X160174Y401687*
X160026Y401650*
X160023Y401649*
X159618Y401576*
X159610Y401575*
X159278*
X159273*
X158942Y401612*
X158930Y401615*
X158635Y401725*
X158618Y401737*
X158434Y401921*
X158421Y401940*
X158348Y402161*
Y402193*
X158421Y402414*
X158429Y402428*
X158539Y402575*
X158552Y402586*
X158662Y402660*
X158680Y402668*
X158680D02*
X158865Y402704D01*
X159269Y402778*
X159278Y402779*
X159610*
X159615*
X159946Y402742*
X159960Y402738*
X160218Y402628*
X160230Y402620*
X160451Y402436*
X160468Y402406*
X160505Y402185*
Y402169*
X160553Y404437D02*
X160435Y404555D01*
X160293*
X160241Y404504*
X160175Y404338*
Y404321*
X160238Y404163*
X160291Y404137*
X160378Y404107*
X160500Y404168*
X160553Y404221*
Y404437*
X160516Y407260D02*
X160502Y407267D01*
X160497Y407262*
X160469Y407206*
Y406703*
X160419Y406653*
X158315*
X158513Y405993*
X158543Y405964*
X158566Y405987*
Y406033*
X158421Y406542*
X158469Y406605*
X160419*
X160469Y406555*
Y406052*
X160497Y405996*
X160502Y405991*
X160516Y405998*
Y407260*
X160552Y408616D02*
X160482Y408966D01*
X160302Y409291*
X160345Y409365*
X160516*
Y409652*
X160502Y409659*
X160497Y409653*
X160469Y409598*
Y409462*
X160419Y409412*
X159034*
Y409069*
X159062Y409014*
X159067Y409008*
X159067D02*
X159081Y409015D01*
Y409315*
X159131Y409365*
X160125*
X160160Y409350*
X160307Y409203*
X160315Y409194*
X160425Y409010*
X160431Y408994*
X160505Y408626*
X160503Y408600*
X160466Y408490*
X160461Y408478*
X160387Y408367*
X160381Y408360*
X160307Y408286*
X160284Y408273*
X160137Y408236*
X160125Y408235*
X159034*
Y408002*
X159062Y407946*
X159067Y407941*
X159067D02*
X159081Y407948D01*
Y408138*
X159131Y408188*
X160120*
X160290Y408222*
X160454Y408320*
X160518Y408448*
X160552Y408616*
X160516Y411234D02*
X160502Y411241D01*
X160497Y411236*
X160469Y411180*
Y410676*
X160419Y410626*
X159536*
X159486Y410676*
Y411192*
X159536Y411242*
X159671*
X159719Y411265*
X159671Y411289*
X159253*
X159206Y411265*
X159253Y411242*
X159389*
X159439Y411192*
Y410676*
X159389Y410626*
X158579*
X158529Y410676*
Y411854*
X158579Y411904*
X158935*
X158983Y411927*
X158935Y411951*
X158482*
Y410394*
X158510Y410338*
X158516Y410333*
X158529Y410339*
Y410529*
X158579Y410579*
X160419*
X160469Y410529*
Y410394*
X160497Y410338*
X160502Y410333*
X160516Y410339*
Y411234*
X160865Y418340D02*
X160832Y418574D01*
X160664Y418741*
X160347Y418918*
X159918Y418989*
X159557*
X159200Y418954*
X158989Y418848*
X158815Y418743*
X158680Y418574*
X158613Y418340*
X158680Y418104*
X158815Y417902*
X159127Y417763*
X159558Y417691*
X159920*
X160276Y417727*
X160488Y417833*
X160499Y417837*
X160632Y417870*
X160694Y417932*
X160831Y418103*
X160865Y418340*
X160818Y418332D02*
X160781Y418111D01*
X160767Y418084*
X160620Y417937*
X160612Y417931*
X160502Y417857*
X160486Y417850*
X160339Y417813*
X160336*
X159931Y417739*
X159922Y417738*
X159591*
X159585Y417739*
X159254Y417775*
X159242Y417778*
X158948Y417889*
X158930Y417900*
X158746Y418084*
X158734Y418104*
X158660Y418324*
Y418356*
X158734Y418577*
X158741Y418591*
X158852Y418738*
X158864Y418750*
X158974Y418823*
X158992Y418831*
X159177Y418868*
X159582Y418941*
X159591Y418942*
X159922*
X159928*
X160259Y418905*
X160273Y418901*
X160530Y418791*
X160543Y418783*
X160763Y418599*
X160781Y418569*
X160818Y418348*
Y418332*
X160829Y421160D02*
X160706D01*
X160659Y421137*
X160706Y421113*
X160731*
X160781Y421063*
Y419886*
X160731Y419836*
X160695*
X160656Y419854*
X160326Y420257*
X159560Y421023*
X159389Y421126*
X159221Y421159*
X159221D02*
X158986Y421126D01*
X158782Y420956*
X158645Y420750*
X158611Y420512*
X158646Y420338*
X158679Y420205*
X158924Y419961*
X159024Y419894*
X159109Y419866*
X159136Y419880*
Y419891*
X158943Y419988*
X158930Y419997*
X158783Y420145*
X158773Y420158*
X158700Y420305*
X158696Y420317*
X158659Y420501*
X158658Y420511*
Y420519*
X158695Y420740*
X158702Y420758*
X158812Y420942*
X158829Y420959*
X159013Y421069*
X159029Y421075*
X159213Y421112*
X159235Y421111*
X159382Y421075*
X159400Y421066*
X159547Y420956*
X159553Y420951*
X159661Y420843*
X159843Y420697*
X159848Y420692*
X160680Y419788*
X160829*
Y421160*
X158100Y379844D02*
Y379995D01*
Y380028D02*
Y380180D01*
Y384378D02*
Y384488D01*
X158200Y379655D02*
Y379741D01*
Y380288D02*
Y380347D01*
Y384045D02*
Y384281D01*
Y384436D02*
Y384488D01*
X158300Y379553D02*
Y379641D01*
Y380419D02*
Y380443D01*
Y383804D02*
Y383931D01*
Y384440D02*
Y384488D01*
Y388403D02*
Y388472D01*
Y389728D02*
Y389786D01*
X158400Y379509D02*
Y379556D01*
Y380486D02*
Y380503D01*
Y384440D02*
Y384488D01*
Y388414D02*
Y388461D01*
Y389739D02*
Y389786D01*
Y401892D02*
Y402005D01*
Y402349D02*
Y402452D01*
Y406370D02*
Y406653D01*
X158500Y379464D02*
Y379518D01*
Y380516D02*
Y380556D01*
Y384440D02*
Y384488D01*
Y388414D02*
Y388461D01*
Y389739D02*
Y389786D01*
Y401742D02*
Y401854D01*
Y402522D02*
Y402577D01*
Y406037D02*
Y406265D01*
Y406605D02*
Y406653D01*
Y410358D02*
Y411951D01*
X158600Y379429D02*
Y379481D01*
Y380536D02*
Y380606D01*
Y384440D02*
Y384488D01*
Y388414D02*
Y388461D01*
Y389739D02*
Y389786D01*
Y401695D02*
Y401754D01*
Y402619D02*
Y402639D01*
Y406605D02*
Y406653D01*
Y410579D02*
Y410626D01*
Y411904D02*
Y411951D01*
X158700Y379412D02*
Y379446D01*
Y380555D02*
Y380631D01*
Y384440D02*
Y384488D01*
Y388414D02*
Y388461D01*
Y389745D02*
Y389780D01*
Y401651D02*
Y401701D01*
Y402672D02*
Y402697D01*
Y406605D02*
Y406653D01*
Y410579D02*
Y410626D01*
Y411904D02*
Y411951D01*
Y416278D02*
Y416331D01*
Y416413D02*
Y416487D01*
Y418074D02*
Y418205D01*
Y418475D02*
Y418600D01*
Y420185D02*
Y420304D01*
Y420754D02*
Y420832D01*
X158800Y379396D02*
Y379435D01*
Y380573D02*
Y380641D01*
Y384440D02*
Y384488D01*
Y385809D02*
Y386070D01*
Y386876D02*
Y387247D01*
Y388414D02*
Y388461D01*
Y394147D02*
Y394334D01*
Y401606D02*
Y401664D01*
Y402692D02*
Y402747D01*
Y406605D02*
Y406653D01*
Y410579D02*
Y410626D01*
Y411904D02*
Y411951D01*
Y416219D02*
Y416266D01*
Y416440D02*
Y416487D01*
Y417924D02*
Y418030D01*
Y418669D02*
Y418725D01*
Y420085D02*
Y420127D01*
Y420921D02*
Y420970D01*
X158900Y379379D02*
Y379424D01*
Y380591D02*
Y380651D01*
Y384440D02*
Y384488D01*
Y386023D02*
Y386070D01*
Y387200D02*
Y387247D01*
Y388414D02*
Y388461D01*
Y393814D02*
Y394046D01*
Y394287D02*
Y394334D01*
Y401585D02*
Y401626D01*
Y402711D02*
Y402792D01*
Y406605D02*
Y406653D01*
Y410579D02*
Y410626D01*
Y411904D02*
Y411951D01*
Y416160D02*
Y416210D01*
Y416440D02*
Y416487D01*
Y417864D02*
Y417930D01*
Y418774D02*
Y418795D01*
Y419985D02*
Y420027D01*
Y421001D02*
Y421054D01*
X159000Y379363D02*
Y379413D01*
Y380609D02*
Y380661D01*
Y384440D02*
Y384488D01*
Y386023D02*
Y386070D01*
Y387200D02*
Y387247D01*
Y388414D02*
Y388461D01*
Y389079D02*
Y389121D01*
Y394287D02*
Y394334D01*
Y401569D02*
Y401606D01*
Y402729D02*
Y402802D01*
Y406605D02*
Y406653D01*
Y410579D02*
Y410626D01*
Y416102D02*
Y416155D01*
Y416440D02*
Y416487D01*
Y417819D02*
Y417869D01*
Y418832D02*
Y418854D01*
Y419910D02*
Y419959D01*
Y421061D02*
Y421128D01*
X159100Y379363D02*
Y379410D01*
Y380614D02*
Y380661D01*
Y384440D02*
Y384488D01*
Y386023D02*
Y386070D01*
Y387200D02*
Y387247D01*
Y388414D02*
Y388461D01*
Y389077D02*
Y389124D01*
Y394287D02*
Y394334D01*
Y401552D02*
Y401595D01*
Y402747D02*
Y402812D01*
Y406605D02*
Y406653D01*
Y408177D02*
Y408235D01*
Y409354D02*
Y409412D01*
Y410579D02*
Y410626D01*
Y416043D02*
Y416100D01*
Y416440D02*
Y416487D01*
Y417775D02*
Y417832D01*
Y418852D02*
Y418904D01*
Y419869D02*
Y419909D01*
Y421089D02*
Y421142D01*
X159200Y379363D02*
Y379410D01*
Y380614D02*
Y380661D01*
Y384440D02*
Y384488D01*
Y386023D02*
Y386070D01*
Y387200D02*
Y387247D01*
Y388414D02*
Y389124D01*
Y394287D02*
Y394334D01*
Y401535D02*
Y401583D01*
Y402765D02*
Y402822D01*
Y406605D02*
Y406653D01*
Y408188D02*
Y408235D01*
Y409365D02*
Y409412D01*
Y410579D02*
Y410626D01*
Y415985D02*
Y416044D01*
Y416440D02*
Y416487D01*
Y417751D02*
Y417794D01*
Y418872D02*
Y418954D01*
Y421109D02*
Y421156D01*
X159300Y379363D02*
Y379410D01*
Y380614D02*
Y380661D01*
Y384440D02*
Y384488D01*
Y386023D02*
Y386070D01*
Y387200D02*
Y387247D01*
Y388414D02*
Y388461D01*
Y389077D02*
Y389124D01*
Y394287D02*
Y394334D01*
Y401528D02*
Y401575D01*
Y402779D02*
Y402826D01*
Y406605D02*
Y406653D01*
Y408188D02*
Y408235D01*
Y409365D02*
Y409412D01*
Y410579D02*
Y410626D01*
Y411242D02*
Y411289D01*
Y415926D02*
Y415989D01*
Y416440D02*
Y416487D01*
Y417734D02*
Y417770D01*
Y418890D02*
Y418964D01*
Y421095D02*
Y421144D01*
X159400Y379367D02*
Y379416D01*
Y380610D02*
Y380654D01*
Y384440D02*
Y384488D01*
Y386023D02*
Y386070D01*
Y387200D02*
Y387247D01*
Y388414D02*
Y388461D01*
Y389077D02*
Y389124D01*
Y394287D02*
Y394334D01*
Y401528D02*
Y401575D01*
Y402779D02*
Y402826D01*
Y406605D02*
Y406653D01*
Y408188D02*
Y408235D01*
Y409365D02*
Y409412D01*
Y410579D02*
Y410628D01*
Y411240D02*
Y411289D01*
Y415868D02*
Y415934D01*
Y416440D02*
Y416487D01*
Y417717D02*
Y417759D01*
Y418908D02*
Y418974D01*
Y421066D02*
Y421119D01*
X159500Y379377D02*
Y379434D01*
Y380599D02*
Y380637D01*
Y384440D02*
Y384488D01*
Y386023D02*
Y386070D01*
Y387200D02*
Y387247D01*
Y388414D02*
Y388461D01*
Y394287D02*
Y394334D01*
Y401528D02*
Y401575D01*
Y402779D02*
Y402826D01*
Y406605D02*
Y406653D01*
Y408188D02*
Y408235D01*
Y409365D02*
Y409412D01*
Y410579D02*
Y410642D01*
Y411226D02*
Y411289D01*
Y415809D02*
Y415879D01*
Y416440D02*
Y416487D01*
Y417701D02*
Y417748D01*
Y418926D02*
Y418984D01*
Y420991D02*
Y421059D01*
X159600Y379387D02*
Y379453D01*
Y380588D02*
Y380621D01*
Y384440D02*
Y384488D01*
Y386023D02*
Y386070D01*
Y387200D02*
Y387247D01*
Y388414D02*
Y388461D01*
Y394287D02*
Y394334D01*
Y401528D02*
Y401575D01*
Y402779D02*
Y402826D01*
Y406605D02*
Y406653D01*
Y408188D02*
Y408235D01*
Y409365D02*
Y409412D01*
Y410579D02*
Y410626D01*
Y411242D02*
Y411289D01*
Y415751D02*
Y415823D01*
Y416440D02*
Y416487D01*
Y417691D02*
Y417738D01*
Y418942D02*
Y418989D01*
Y420904D02*
Y420983D01*
X159700Y379397D02*
Y379471D01*
Y380576D02*
Y380604D01*
Y384440D02*
Y384488D01*
Y386023D02*
Y386070D01*
Y387200D02*
Y387247D01*
Y388414D02*
Y388461D01*
Y394287D02*
Y394334D01*
Y401537D02*
Y401591D01*
Y402769D02*
Y402810D01*
Y406605D02*
Y406653D01*
Y408188D02*
Y408235D01*
Y409365D02*
Y409412D01*
Y410579D02*
Y410626D01*
Y411256D02*
Y411274D01*
Y415692D02*
Y415768D01*
Y416440D02*
Y416487D01*
Y417691D02*
Y417738D01*
Y418942D02*
Y418989D01*
Y420812D02*
Y420883D01*
X159800Y379441D02*
Y379490D01*
Y380535D02*
Y380582D01*
Y384440D02*
Y384488D01*
Y386023D02*
Y386070D01*
Y387200D02*
Y387247D01*
Y388414D02*
Y388461D01*
Y394287D02*
Y394334D01*
Y401547D02*
Y401609D01*
Y402758D02*
Y402794D01*
Y406605D02*
Y406653D01*
Y408188D02*
Y408235D01*
Y409365D02*
Y409412D01*
Y410579D02*
Y410626D01*
Y415634D02*
Y415713D01*
Y416440D02*
Y416487D01*
Y417691D02*
Y417738D01*
Y418942D02*
Y418989D01*
Y420732D02*
Y420783D01*
X159900Y379491D02*
Y379515D01*
Y380492D02*
Y380526D01*
Y384440D02*
Y384488D01*
Y386028D02*
Y386074D01*
Y387194D02*
Y387247D01*
Y388414D02*
Y388461D01*
Y394287D02*
Y394334D01*
Y401557D02*
Y401627D01*
Y402747D02*
Y402777D01*
Y406605D02*
Y406653D01*
Y408188D02*
Y408235D01*
Y409365D02*
Y409412D01*
Y410579D02*
Y410626D01*
Y415575D02*
Y415658D01*
Y416440D02*
Y416487D01*
Y417691D02*
Y417738D01*
Y418942D02*
Y418989D01*
Y420636D02*
Y420683D01*
X160000Y379524D02*
Y379568D01*
Y380440D02*
Y380471D01*
Y381993D02*
Y382346D01*
Y384440D02*
Y384488D01*
Y386048D02*
Y386099D01*
Y387097D02*
Y387247D01*
Y388414D02*
Y388461D01*
Y394287D02*
Y394334D01*
Y401582D02*
Y401645D01*
Y402721D02*
Y402760D01*
Y406605D02*
Y406653D01*
Y408188D02*
Y408235D01*
Y409365D02*
Y409412D01*
Y410579D02*
Y410626D01*
Y415517D02*
Y415602D01*
Y416440D02*
Y416487D01*
Y417699D02*
Y417752D01*
Y418934D02*
Y418976D01*
Y420527D02*
Y420583D01*
X160100Y379570D02*
Y379650D01*
Y380357D02*
Y380415D01*
Y381952D02*
Y382390D01*
Y384440D02*
Y384488D01*
Y386091D02*
Y386162D01*
Y386973D02*
Y387042D01*
Y387200D02*
Y387247D01*
Y388414D02*
Y388461D01*
Y394287D02*
Y394334D01*
Y401632D02*
Y401669D01*
Y402678D02*
Y402718D01*
Y406605D02*
Y406653D01*
Y408188D02*
Y408235D01*
Y409365D02*
Y409412D01*
Y410579D02*
Y410626D01*
Y415458D02*
Y415547D01*
Y416440D02*
Y416487D01*
Y417709D02*
Y417770D01*
Y418923D02*
Y418959D01*
Y420419D02*
Y420483D01*
X160200Y379687D02*
Y379750D01*
Y380273D02*
Y380317D01*
Y381977D02*
Y382377D01*
Y384431D02*
Y384497D01*
Y386151D02*
Y386294D01*
Y386744D02*
Y386862D01*
Y387200D02*
Y387257D01*
Y388405D02*
Y388471D01*
Y394287D02*
Y394334D01*
Y401677D02*
Y401701D01*
Y402635D02*
Y402663D01*
Y404257D02*
Y404402D01*
Y406605D02*
Y406653D01*
Y408204D02*
Y408252D01*
Y409310D02*
Y409412D01*
Y410579D02*
Y410626D01*
Y415466D02*
Y416661D01*
Y417719D02*
Y417788D01*
Y418912D02*
Y418942D01*
Y420310D02*
Y420383D01*
X160300Y379982D02*
Y380042D01*
Y382051D02*
Y382277D01*
Y386432D02*
Y386470D01*
Y394287D02*
Y394334D01*
Y401702D02*
Y401768D01*
Y402562D02*
Y402607D01*
Y404134D02*
Y404555D01*
Y406605D02*
Y406653D01*
Y408228D02*
Y408280D01*
Y409210D02*
Y409294D01*
Y409336D02*
Y409412D01*
Y410579D02*
Y410626D01*
Y416440D02*
Y416487D01*
Y417739D02*
Y417806D01*
Y418890D02*
Y418926D01*
Y420201D02*
Y420283D01*
X160400Y394287D02*
Y394334D01*
Y401792D02*
Y401866D01*
Y402479D02*
Y402530D01*
Y404118D02*
Y404555D01*
Y406605D02*
Y406653D01*
Y408288D02*
Y408387D01*
Y409051D02*
Y409114D01*
Y409365D02*
Y409412D01*
Y410579D02*
Y410626D01*
Y416440D02*
Y416487D01*
Y417789D02*
Y417829D01*
Y418847D02*
Y418888D01*
Y420093D02*
Y420167D01*
X160500Y394287D02*
Y394334D01*
Y401917D02*
Y402138D01*
Y402216D02*
Y402430D01*
Y404168D02*
Y404490D01*
Y405993D02*
Y407265D01*
Y408411D02*
Y408590D01*
Y408650D02*
Y408876D01*
Y409365D02*
Y409656D01*
Y410335D02*
Y411239D01*
Y416440D02*
Y416487D01*
Y417837D02*
Y417856D01*
Y418804D02*
Y418833D01*
Y419984D02*
Y420045D01*
X160600Y394287D02*
Y394334D01*
Y416440D02*
Y416487D01*
Y417862D02*
Y417923D01*
Y418736D02*
Y418777D01*
Y419875D02*
Y419922D01*
X160700Y394287D02*
Y394334D01*
Y416440D02*
Y416487D01*
Y417939D02*
Y418017D01*
Y418652D02*
Y418706D01*
Y419788D02*
Y419836D01*
Y421116D02*
Y421157D01*
X160800Y394287D02*
Y394334D01*
Y416107D02*
Y416673D01*
Y418064D02*
Y418226D01*
Y418454D02*
Y418606D01*
Y419788D02*
Y421160D01*
X160900Y393728D02*
Y394892D01*
X161600Y415865D02*
Y415909D01*
X161700Y415532D02*
Y415771D01*
Y415842D02*
Y415909D01*
X161800Y415234D02*
Y415421D01*
Y415862D02*
Y415909D01*
Y419596D02*
Y421208D01*
X161900Y415862D02*
Y415909D01*
Y419836D02*
Y419883D01*
Y421161D02*
Y421208D01*
X162000Y415862D02*
Y415909D01*
Y419836D02*
Y419883D01*
Y421161D02*
Y421208D01*
X162100Y415862D02*
Y415909D01*
Y419836D02*
Y419883D01*
Y421161D02*
Y421208D01*
X162200Y415862D02*
Y415909D01*
Y419836D02*
Y419883D01*
Y421161D02*
Y421208D01*
X162300Y415862D02*
Y415909D01*
Y418011D02*
Y418266D01*
Y419836D02*
Y419883D01*
X162400Y415862D02*
Y415909D01*
Y417444D02*
Y417491D01*
Y417732D02*
Y417842D01*
Y418421D02*
Y418498D01*
Y419836D02*
Y419883D01*
X162500Y415862D02*
Y415909D01*
Y417444D02*
Y417491D01*
Y417625D02*
Y417708D01*
Y418529D02*
Y418598D01*
Y419836D02*
Y419883D01*
Y420511D02*
Y420533D01*
X162600Y411975D02*
Y412164D01*
Y415862D02*
Y415909D01*
Y417444D02*
Y417604D01*
Y418579D02*
Y418625D01*
Y419836D02*
Y419883D01*
Y420498D02*
Y420545D01*
X162700Y411402D02*
Y411822D01*
Y412451D02*
Y412587D01*
Y415862D02*
Y415909D01*
Y417444D02*
Y417505D01*
Y418606D02*
Y418655D01*
Y419836D02*
Y419903D01*
Y420478D02*
Y420545D01*
X162800Y411252D02*
Y411349D01*
Y411839D02*
Y411893D01*
Y412643D02*
Y412715D01*
Y415862D02*
Y415909D01*
Y417444D02*
Y417491D01*
Y418622D02*
Y418669D01*
Y419836D02*
Y419884D01*
Y420498D02*
Y420545D01*
X162900Y411134D02*
Y411224D01*
Y411990D02*
Y412043D01*
Y412793D02*
Y412844D01*
Y415862D02*
Y415909D01*
Y417444D02*
Y417491D01*
Y418622D02*
Y418669D01*
Y419836D02*
Y419883D01*
Y420498D02*
Y420545D01*
X163000Y411051D02*
Y411127D01*
Y412084D02*
Y412123D01*
Y412897D02*
Y412936D01*
Y415862D02*
Y415909D01*
Y417444D02*
Y417491D01*
Y418622D02*
Y418669D01*
Y419836D02*
Y419883D01*
X163100Y411011D02*
Y411052D01*
Y412144D02*
Y412183D01*
Y412963D02*
Y413003D01*
Y415862D02*
Y415909D01*
Y417444D02*
Y417491D01*
Y418622D02*
Y418669D01*
Y419836D02*
Y419883D01*
X163200Y410983D02*
Y411028D01*
Y412182D02*
Y412228D01*
Y413030D02*
Y413069D01*
Y415862D02*
Y415909D01*
Y417444D02*
Y417491D01*
Y418622D02*
Y418669D01*
Y419836D02*
Y419883D01*
X163300Y410963D02*
Y411008D01*
Y412202D02*
Y412248D01*
Y413093D02*
Y413123D01*
Y415862D02*
Y415909D01*
Y417444D02*
Y417491D01*
Y418622D02*
Y418669D01*
Y419836D02*
Y419883D01*
X163400Y410971D02*
Y411024D01*
Y412202D02*
Y412249D01*
Y413115D02*
Y413156D01*
Y415862D02*
Y415909D01*
Y417444D02*
Y417491D01*
Y418622D02*
Y418669D01*
Y419836D02*
Y419883D01*
X163500Y410984D02*
Y411044D01*
Y412182D02*
Y412232D01*
Y413137D02*
Y413184D01*
Y415862D02*
Y415909D01*
Y417444D02*
Y417491D01*
Y418622D02*
Y418669D01*
Y419836D02*
Y419883D01*
X163600Y411012D02*
Y411099D01*
Y412136D02*
Y412190D01*
Y413159D02*
Y413201D01*
Y415862D02*
Y415909D01*
Y417444D02*
Y417491D01*
Y418622D02*
Y418669D01*
Y419836D02*
Y419883D01*
X163700Y411112D02*
Y411159D01*
Y412061D02*
Y412124D01*
Y413157D02*
Y413207D01*
Y415861D02*
Y415910D01*
Y417443D02*
Y417492D01*
Y418621D02*
Y418670D01*
Y419835D02*
Y419884D01*
X163800Y411237D02*
Y411309D01*
Y411910D02*
Y412005D01*
Y413137D02*
Y413178D01*
X163900Y411448D02*
Y411770D01*
Y413115D02*
Y413150D01*
X164200Y391570D02*
Y391885D01*
Y392462D02*
Y392725D01*
X164300Y391332D02*
Y391404D01*
Y392864D02*
Y392981D01*
X164400Y391190D02*
Y391265D01*
Y393027D02*
Y393122D01*
X164500Y391110D02*
Y391165D01*
Y393127D02*
Y393189D01*
X164600Y391064D02*
Y391114D01*
Y393185D02*
Y393236D01*
X164700Y391049D02*
Y391097D01*
Y393218D02*
Y393265D01*
X164800Y391039D02*
Y391086D01*
Y393242D02*
Y393285D01*
X164900Y391053D02*
Y391102D01*
Y393209D02*
Y393257D01*
X165000Y391068D02*
Y391119D01*
Y393175D02*
Y393228D01*
X165100Y391151D02*
Y391205D01*
Y393113D02*
Y393158D01*
Y411124D02*
Y411151D01*
X165200Y391262D02*
Y391325D01*
Y393031D02*
Y393069D01*
Y410968D02*
Y411295D01*
X165300Y391442D02*
Y391521D01*
Y392790D02*
Y392900D01*
Y410960D02*
Y411335D01*
X165400Y391777D02*
Y392692D01*
Y410960D02*
Y411308D01*
X165500Y411035D02*
Y411263D01*
X165600Y383536D02*
Y383931D01*
Y385884D02*
Y386071D01*
Y388532D02*
Y388794D01*
X165700Y383353D02*
Y383436D01*
Y384030D02*
Y384114D01*
Y385653D02*
Y385730D01*
Y386226D02*
Y386287D01*
Y388247D02*
Y388305D01*
Y414770D02*
Y414941D01*
X165800Y383252D02*
Y383314D01*
Y384152D02*
Y384215D01*
Y385528D02*
Y385628D01*
Y386359D02*
Y386396D01*
Y388097D02*
Y388155D01*
Y414770D02*
Y414818D01*
Y414963D02*
Y415112D01*
X165900Y383185D02*
Y383239D01*
Y384227D02*
Y384281D01*
Y385484D02*
Y385530D01*
Y386437D02*
Y386456D01*
Y387954D02*
Y388005D01*
Y414770D02*
Y414817D01*
Y415144D02*
Y415283D01*
X166000Y383146D02*
Y383196D01*
Y384270D02*
Y384320D01*
Y385439D02*
Y385492D01*
Y386478D02*
Y386511D01*
Y387876D02*
Y387916D01*
Y414770D02*
Y414817D01*
Y415325D02*
Y415454D01*
X166100Y383129D02*
Y383176D01*
Y384290D02*
Y384337D01*
Y385398D02*
Y385454D01*
Y386498D02*
Y386561D01*
Y387799D02*
Y387850D01*
Y414770D02*
Y414817D01*
Y415506D02*
Y415625D01*
X166200Y383136D02*
Y383178D01*
Y384289D02*
Y384331D01*
Y385382D02*
Y385417D01*
Y386516D02*
Y386595D01*
Y387721D02*
Y387783D01*
Y414770D02*
Y414817D01*
Y415687D02*
Y415796D01*
X166300Y383164D02*
Y383198D01*
Y384269D02*
Y384302D01*
Y385365D02*
Y385403D01*
Y386535D02*
Y386605D01*
Y387689D02*
Y387728D01*
Y414770D02*
Y414817D01*
Y415868D02*
Y415966D01*
X166400Y383204D02*
Y383244D01*
Y384222D02*
Y384262D01*
Y385348D02*
Y385392D01*
Y386553D02*
Y386615D01*
Y387660D02*
Y387708D01*
Y414181D02*
Y414229D01*
Y414770D02*
Y414817D01*
Y416049D02*
Y416137D01*
X166500Y383305D02*
Y383319D01*
Y384147D02*
Y384192D01*
Y385332D02*
Y385381D01*
Y386571D02*
Y386625D01*
Y387639D02*
Y387689D01*
Y414181D02*
Y414229D01*
Y414770D02*
Y414817D01*
Y416230D02*
Y416308D01*
X166600Y383411D02*
Y383537D01*
Y384022D02*
Y384064D01*
Y385329D02*
Y385376D01*
Y386580D02*
Y386627D01*
Y387624D02*
Y387673D01*
Y388127D02*
Y388240D01*
Y388499D02*
Y388628D01*
Y414181D02*
Y414229D01*
Y414770D02*
Y414817D01*
Y416316D02*
Y416363D01*
X166700Y383434D02*
Y383656D01*
Y383824D02*
Y384032D01*
Y385329D02*
Y385376D01*
Y386580D02*
Y386627D01*
Y387610D02*
Y387657D01*
Y387973D02*
Y388025D01*
Y388687D02*
Y388775D01*
Y414181D02*
Y416363D01*
X166800Y383301D02*
Y383345D01*
Y384121D02*
Y384165D01*
Y385329D02*
Y385376D01*
Y386580D02*
Y386627D01*
Y387620D02*
Y387673D01*
Y387884D02*
Y387918D01*
Y388775D02*
Y388832D01*
Y391067D02*
Y391363D01*
Y414181D02*
Y414229D01*
Y414770D02*
Y414817D01*
X166900Y383222D02*
Y383274D01*
Y384192D02*
Y384245D01*
Y385331D02*
Y385378D01*
Y386578D02*
Y386623D01*
Y387630D02*
Y387690D01*
Y387817D02*
Y387845D01*
Y388835D02*
Y388889D01*
Y391037D02*
Y391403D01*
Y414181D02*
Y414208D01*
Y414770D02*
Y414805D01*
X167000Y383176D02*
Y383214D01*
Y384252D02*
Y384306D01*
Y385341D02*
Y385396D01*
Y386567D02*
Y386607D01*
Y387640D02*
Y387795D01*
Y388869D02*
Y388919D01*
Y391037D02*
Y391394D01*
Y411481D02*
Y411775D01*
Y412441D02*
Y412686D01*
X167100Y369150D02*
Y369609D01*
Y373123D02*
Y374384D01*
Y383151D02*
Y383190D01*
Y384277D02*
Y384345D01*
Y385351D02*
Y385414D01*
Y386556D02*
Y386590D01*
Y387655D02*
Y387745D01*
Y388885D02*
Y388933D01*
Y391091D02*
Y391354D01*
Y411231D02*
Y411318D01*
Y412804D02*
Y412919D01*
X167200Y368976D02*
Y369041D01*
Y369691D02*
Y369759D01*
Y373123D02*
Y373170D01*
Y374337D02*
Y374384D01*
Y383126D02*
Y383170D01*
Y384297D02*
Y384345D01*
Y385361D02*
Y385433D01*
Y386545D02*
Y386573D01*
Y387677D02*
Y387746D01*
Y388894D02*
Y388941D01*
Y411108D02*
Y411182D01*
Y412956D02*
Y413050D01*
X167300Y368876D02*
Y368918D01*
Y369819D02*
Y369861D01*
Y373128D02*
Y373164D01*
Y374328D02*
Y374371D01*
Y377595D02*
Y377675D01*
Y378772D02*
Y378853D01*
Y383134D02*
Y383182D01*
Y384285D02*
Y384333D01*
Y385396D02*
Y385451D01*
Y386510D02*
Y386557D01*
Y387700D02*
Y387774D01*
Y388878D02*
Y388927D01*
Y411028D02*
Y411082D01*
Y413056D02*
Y413117D01*
X167400Y368786D02*
Y368828D01*
Y369879D02*
Y369944D01*
Y374298D02*
Y374341D01*
Y377612D02*
Y377659D01*
Y378789D02*
Y378836D01*
Y383148D02*
Y383198D01*
Y384268D02*
Y384318D01*
Y385446D02*
Y385476D01*
Y386467D02*
Y386504D01*
Y387732D02*
Y387803D01*
Y388861D02*
Y388912D01*
Y410986D02*
Y411036D01*
Y413111D02*
Y413162D01*
X167500Y368729D02*
Y368778D01*
Y369926D02*
Y369981D01*
Y374268D02*
Y374312D01*
Y377612D02*
Y377659D01*
Y378789D02*
Y378836D01*
Y383187D02*
Y383241D01*
Y384225D02*
Y384280D01*
Y385484D02*
Y385520D01*
Y386423D02*
Y386448D01*
Y387798D02*
Y387872D01*
Y388808D02*
Y388854D01*
Y410972D02*
Y411020D01*
Y413144D02*
Y413190D01*
X167600Y369946D02*
Y369995D01*
Y374238D02*
Y374282D01*
Y377612D02*
Y377659D01*
Y378789D02*
Y378836D01*
Y383254D02*
Y383316D01*
Y384150D02*
Y384213D01*
Y385515D02*
Y385594D01*
Y386340D02*
Y386393D01*
Y387870D02*
Y387952D01*
Y388748D02*
Y388788D01*
Y410963D02*
Y411010D01*
Y413163D02*
Y413207D01*
X167700Y369952D02*
Y369998D01*
Y374207D02*
Y374253D01*
Y377612D02*
Y377659D01*
Y378789D02*
Y378836D01*
Y383357D02*
Y383440D01*
Y384027D02*
Y384110D01*
Y385626D02*
Y385694D01*
Y386257D02*
Y386304D01*
Y387970D02*
Y388076D01*
Y388601D02*
Y388695D01*
Y410978D02*
Y411027D01*
Y413130D02*
Y413178D01*
X167800Y369927D02*
Y369978D01*
Y374177D02*
Y374223D01*
Y375203D02*
Y375451D01*
Y375917D02*
Y376285D01*
Y377612D02*
Y377659D01*
Y378789D02*
Y378836D01*
Y383554D02*
Y383912D01*
Y385799D02*
Y386157D01*
Y388207D02*
Y388538D01*
Y410992D02*
Y411043D01*
Y413097D02*
Y413150D01*
X167900Y369871D02*
Y369932D01*
Y374147D02*
Y374193D01*
Y375404D02*
Y375451D01*
Y375671D02*
Y375784D01*
Y376407D02*
Y376471D01*
Y377612D02*
Y377659D01*
Y378789D02*
Y378836D01*
Y411081D02*
Y411136D01*
Y413032D02*
Y413077D01*
X168000Y369795D02*
Y369872D01*
Y374117D02*
Y374164D01*
Y375404D02*
Y375451D01*
Y375571D02*
Y375651D01*
Y376495D02*
Y376563D01*
Y377612D02*
Y377659D01*
Y378789D02*
Y378836D01*
Y411196D02*
Y411256D01*
Y412945D02*
Y412982D01*
Y414635D02*
Y414874D01*
Y415762D02*
Y415913D01*
X168100Y369695D02*
Y369774D01*
Y374087D02*
Y374134D01*
Y375404D02*
Y375551D01*
Y376544D02*
Y376588D01*
Y377612D02*
Y377659D01*
Y378789D02*
Y378836D01*
Y411376D02*
Y411458D01*
Y412683D02*
Y412811D01*
Y414372D02*
Y414479D01*
Y416030D02*
Y416138D01*
X168200Y369613D02*
Y369674D01*
Y374056D02*
Y374104D01*
Y375404D02*
Y375455D01*
Y376569D02*
Y376619D01*
Y377612D02*
Y378836D01*
Y411737D02*
Y412553D01*
Y414280D02*
Y414351D01*
Y416156D02*
Y416245D01*
X168300Y369531D02*
Y369574D01*
Y374026D02*
Y374075D01*
Y375404D02*
Y375451D01*
Y376581D02*
Y376628D01*
Y377612D02*
Y377659D01*
Y378789D02*
Y378836D01*
Y414200D02*
Y414251D01*
Y416256D02*
Y416312D01*
X168400Y369422D02*
Y369474D01*
Y373996D02*
Y374045D01*
Y375404D02*
Y375451D01*
Y376581D02*
Y376628D01*
Y377612D02*
Y377659D01*
Y378789D02*
Y378836D01*
Y414169D02*
Y414218D01*
Y416300D02*
Y416351D01*
X168500Y369313D02*
Y369374D01*
Y373966D02*
Y374016D01*
Y375404D02*
Y375451D01*
Y376581D02*
Y376628D01*
Y377612D02*
Y377659D01*
Y378789D02*
Y378836D01*
Y414154D02*
Y414202D01*
Y416334D02*
Y416379D01*
X168600Y369205D02*
Y369274D01*
Y373936D02*
Y373986D01*
Y375404D02*
Y375451D01*
Y376581D02*
Y376628D01*
Y377612D02*
Y377659D01*
Y378789D02*
Y378836D01*
Y391086D02*
Y391088D01*
Y393024D02*
Y393075D01*
Y414150D02*
Y414197D01*
Y416343D02*
Y416387D01*
X168700Y369096D02*
Y369174D01*
Y373905D02*
Y373956D01*
Y375404D02*
Y375451D01*
Y376581D02*
Y376628D01*
Y377612D02*
Y377659D01*
Y378789D02*
Y378836D01*
Y391073D02*
Y391121D01*
Y393040D02*
Y393106D01*
Y414165D02*
Y414214D01*
Y416310D02*
Y416359D01*
X168800Y368987D02*
Y369068D01*
Y373875D02*
Y373927D01*
Y375404D02*
Y375451D01*
Y376581D02*
Y376628D01*
Y377612D02*
Y377659D01*
Y378789D02*
Y378836D01*
Y391073D02*
Y391121D01*
Y393069D02*
Y393136D01*
Y414181D02*
Y414231D01*
Y416276D02*
Y416329D01*
X168900Y368879D02*
Y368946D01*
Y373845D02*
Y373897D01*
Y375404D02*
Y375451D01*
Y376581D02*
Y376628D01*
Y377612D02*
Y377659D01*
Y378789D02*
Y378836D01*
Y391073D02*
Y391121D01*
Y393097D02*
Y393166D01*
Y414281D02*
Y414339D01*
Y416205D02*
Y416249D01*
X169000Y368770D02*
Y368823D01*
Y371377D02*
Y371721D01*
Y373815D02*
Y373867D01*
Y375404D02*
Y375451D01*
Y376581D02*
Y376628D01*
Y377612D02*
Y377659D01*
Y378789D02*
Y378836D01*
Y391073D02*
Y391121D01*
Y393126D02*
Y393196D01*
Y414409D02*
Y414459D01*
Y416106D02*
Y416140D01*
X169100Y368661D02*
Y368701D01*
Y371336D02*
Y371772D01*
Y373785D02*
Y373838D01*
Y375404D02*
Y375451D01*
Y376581D02*
Y376628D01*
Y377612D02*
Y377659D01*
Y378789D02*
Y378836D01*
Y391073D02*
Y391121D01*
Y393154D02*
Y393226D01*
Y414589D02*
Y414679D01*
Y415785D02*
Y415964D01*
X169200Y368634D02*
Y368686D01*
Y369953D02*
Y370005D01*
Y371355D02*
Y371765D01*
Y373755D02*
Y373808D01*
Y375398D02*
Y375457D01*
Y376576D02*
Y376634D01*
Y377606D02*
Y377664D01*
Y378783D02*
Y378842D01*
Y391073D02*
Y391136D01*
Y393155D02*
Y393256D01*
Y411585D02*
Y411647D01*
Y411723D02*
Y411875D01*
Y415015D02*
Y415583D01*
X169300Y371427D02*
Y371665D01*
Y391073D02*
Y391122D01*
Y411585D02*
Y411633D01*
Y411903D02*
Y412046D01*
X169400Y391073D02*
Y391121D01*
Y411585D02*
Y411633D01*
Y412084D02*
Y412216D01*
X169500Y391073D02*
Y391121D01*
Y411585D02*
Y411633D01*
Y412265D02*
Y412387D01*
X169600Y383099D02*
Y383345D01*
Y385410D02*
Y385522D01*
Y388084D02*
Y388245D01*
Y391073D02*
Y391121D01*
Y411585D02*
Y411633D01*
Y412446D02*
Y412558D01*
X169700Y382857D02*
Y382939D01*
Y383505D02*
Y383586D01*
Y385157D02*
Y385245D01*
Y385687D02*
Y385762D01*
Y387751D02*
Y387827D01*
Y391073D02*
Y391121D01*
Y411585D02*
Y411633D01*
Y412627D02*
Y412729D01*
X169800Y382747D02*
Y382811D01*
Y383632D02*
Y383696D01*
Y385021D02*
Y385127D01*
Y385833D02*
Y385878D01*
Y387601D02*
Y387660D01*
Y391073D02*
Y391121D01*
Y410997D02*
Y411044D01*
Y411585D02*
Y411633D01*
Y412808D02*
Y412900D01*
X169900Y382681D02*
Y382736D01*
Y383707D02*
Y383763D01*
Y384977D02*
Y385027D01*
Y385919D02*
Y385938D01*
Y387451D02*
Y387510D01*
Y410997D02*
Y411044D01*
Y411585D02*
Y411633D01*
Y412989D02*
Y413071D01*
X170000Y382636D02*
Y382687D01*
Y383756D02*
Y383807D01*
Y384933D02*
Y384984D01*
Y385964D02*
Y385994D01*
Y387373D02*
Y387412D01*
Y410997D02*
Y411044D01*
Y411585D02*
Y411633D01*
Y413130D02*
Y413178D01*
X170100Y382620D02*
Y382667D01*
Y383776D02*
Y383824D01*
Y384889D02*
Y384947D01*
Y385984D02*
Y386044D01*
Y387295D02*
Y387345D01*
Y410997D02*
Y413178D01*
Y414181D02*
Y414229D01*
Y414372D02*
Y414411D01*
Y415881D02*
Y415933D01*
X170200Y382621D02*
Y382664D01*
Y383779D02*
Y383822D01*
Y384872D02*
Y384909D01*
Y386003D02*
Y386082D01*
Y387217D02*
Y387279D01*
Y410997D02*
Y411044D01*
Y411585D02*
Y411633D01*
Y414181D02*
Y414229D01*
Y414454D02*
Y414503D01*
Y416044D02*
Y416102D01*
X170300Y382648D02*
Y382684D01*
Y383759D02*
Y383795D01*
Y384855D02*
Y384893D01*
Y386021D02*
Y386092D01*
Y387180D02*
Y387219D01*
Y410997D02*
Y411039D01*
Y411585D02*
Y411631D01*
Y414181D02*
Y414229D01*
Y414536D02*
Y414595D01*
Y416159D02*
Y416202D01*
X170400Y382688D02*
Y382725D01*
Y383718D02*
Y383755D01*
Y384839D02*
Y384882D01*
Y386039D02*
Y386102D01*
Y387152D02*
Y387199D01*
Y414181D02*
Y414229D01*
Y414618D02*
Y414687D01*
Y416246D02*
Y416302D01*
X170500Y382777D02*
Y382800D01*
Y383643D02*
Y383691D01*
Y384822D02*
Y384871D01*
Y386057D02*
Y386112D01*
Y387129D02*
Y387180D01*
Y414181D02*
Y414229D01*
Y414703D02*
Y414779D01*
Y416296D02*
Y416348D01*
X170600Y370375D02*
Y370487D01*
Y374904D02*
Y374907D01*
Y382889D02*
Y382998D01*
Y383524D02*
Y383566D01*
Y384817D02*
Y384864D01*
Y386068D02*
Y386115D01*
Y387114D02*
Y387163D01*
Y387636D02*
Y387781D01*
Y387934D02*
Y388100D01*
Y392508D02*
Y392550D01*
Y414181D02*
Y414229D01*
Y414803D02*
Y414871D01*
Y416326D02*
Y416372D01*
X170700Y370122D02*
Y370211D01*
Y370652D02*
Y370727D01*
Y374571D02*
Y374907D01*
Y382932D02*
Y383197D01*
Y383249D02*
Y383511D01*
Y384817D02*
Y384864D01*
Y386068D02*
Y386115D01*
Y387100D02*
Y387146D01*
Y387475D02*
Y387531D01*
Y388162D02*
Y388250D01*
Y392508D02*
Y392556D01*
Y414181D02*
Y414229D01*
Y414903D02*
Y414963D01*
Y416346D02*
Y416392D01*
X170800Y369987D02*
Y370092D01*
Y370798D02*
Y370843D01*
Y374244D02*
Y374462D01*
Y374860D02*
Y374907D01*
Y378587D02*
Y380205D01*
Y382804D02*
Y382860D01*
Y383588D02*
Y383639D01*
Y384817D02*
Y384864D01*
Y386068D02*
Y386115D01*
Y387108D02*
Y387160D01*
Y387379D02*
Y387414D01*
Y388257D02*
Y388314D01*
Y391451D02*
Y392556D01*
Y414181D02*
Y414229D01*
Y415003D02*
Y415055D01*
Y416342D02*
Y416390D01*
X170900Y369942D02*
Y369992D01*
Y370884D02*
Y370903D01*
Y374860D02*
Y374907D01*
Y378833D02*
Y378881D01*
Y380158D02*
Y380205D01*
Y382718D02*
Y382769D01*
Y383674D02*
Y383725D01*
Y384818D02*
Y384865D01*
Y386068D02*
Y386113D01*
Y387118D02*
Y387176D01*
Y387312D02*
Y387339D01*
Y388317D02*
Y388372D01*
Y391183D02*
Y391277D01*
Y414181D02*
Y414229D01*
Y415103D02*
Y415147D01*
Y416325D02*
Y416375D01*
X171000Y369898D02*
Y369949D01*
Y370929D02*
Y370959D01*
Y374860D02*
Y374907D01*
Y378833D02*
Y378881D01*
Y380158D02*
Y380205D01*
Y382667D02*
Y382709D01*
Y383734D02*
Y383789D01*
Y384828D02*
Y384883D01*
Y386056D02*
Y386097D01*
Y387128D02*
Y387289D01*
Y388355D02*
Y388406D01*
Y391100D02*
Y391187D01*
Y414181D02*
Y414229D01*
Y415203D02*
Y415266D01*
Y416297D02*
Y416347D01*
X171100Y369854D02*
Y369912D01*
Y370949D02*
Y371009D01*
Y374860D02*
Y374907D01*
Y378833D02*
Y378881D01*
Y380158D02*
Y380205D01*
Y382642D02*
Y382680D01*
Y383763D02*
Y383834D01*
Y384838D02*
Y384901D01*
Y386045D02*
Y386080D01*
Y387141D02*
Y387239D01*
Y388372D02*
Y388420D01*
Y391063D02*
Y391123D01*
Y414181D02*
Y414229D01*
Y415303D02*
Y415383D01*
Y416237D02*
Y416281D01*
X171200Y369837D02*
Y369874D01*
Y370968D02*
Y371047D01*
Y374860D02*
Y374907D01*
Y378833D02*
Y378881D01*
Y380158D02*
Y380205D01*
Y382617D02*
Y382660D01*
Y383783D02*
Y383834D01*
Y384848D02*
Y384919D01*
Y386034D02*
Y386063D01*
Y387163D02*
Y387231D01*
Y388385D02*
Y388431D01*
Y391043D02*
Y391089D01*
Y414181D02*
Y414229D01*
Y415403D02*
Y415490D01*
Y416151D02*
Y416203D01*
X171300Y369820D02*
Y369858D01*
Y370986D02*
Y371057D01*
Y374860D02*
Y374907D01*
Y378833D02*
Y378881D01*
Y382621D02*
Y382668D01*
Y383775D02*
Y383823D01*
Y384879D02*
Y384937D01*
Y386003D02*
Y386047D01*
Y387186D02*
Y387260D01*
Y388368D02*
Y388417D01*
Y391053D02*
Y391098D01*
Y414181D02*
Y414230D01*
Y415539D02*
Y415635D01*
Y415975D02*
Y416083D01*
X171400Y369804D02*
Y369847D01*
Y371004D02*
Y371067D01*
Y374860D02*
Y374907D01*
Y376439D02*
Y376489D01*
Y377617D02*
Y377666D01*
Y378833D02*
Y378881D01*
Y382635D02*
Y382685D01*
Y383758D02*
Y383808D01*
Y384929D02*
Y384962D01*
Y385960D02*
Y385998D01*
Y387213D02*
Y387288D01*
Y388351D02*
Y388402D01*
Y391073D02*
Y391118D01*
Y410997D02*
Y411035D01*
Y413131D02*
Y413169D01*
X171500Y369787D02*
Y369836D01*
Y371023D02*
Y371077D01*
Y374860D02*
Y374907D01*
Y376442D02*
Y376489D01*
Y377619D02*
Y377666D01*
Y378833D02*
Y378881D01*
Y379514D02*
Y379524D01*
Y382668D02*
Y382722D01*
Y383721D02*
Y383775D01*
Y384970D02*
Y385001D01*
Y385917D02*
Y385943D01*
Y387280D02*
Y387352D01*
Y388303D02*
Y388350D01*
Y391093D02*
Y391138D01*
Y410997D02*
Y411044D01*
Y413131D02*
Y413178D01*
X171600Y369782D02*
Y369829D01*
Y371033D02*
Y371080D01*
Y374860D02*
Y374907D01*
Y376442D02*
Y376489D01*
Y377619D02*
Y377666D01*
Y378833D02*
Y378881D01*
Y379496D02*
Y379543D01*
Y382735D02*
Y382797D01*
Y383646D02*
Y383708D01*
Y384995D02*
Y385072D01*
Y385838D02*
Y385887D01*
Y387347D02*
Y387432D01*
Y388243D02*
Y388283D01*
Y391122D02*
Y391158D01*
Y410997D02*
Y411076D01*
Y413098D02*
Y413178D01*
X171700Y369782D02*
Y369829D01*
Y371033D02*
Y371080D01*
Y374860D02*
Y374907D01*
Y376442D02*
Y376489D01*
Y377619D02*
Y377666D01*
Y378833D02*
Y378889D01*
Y379488D02*
Y379543D01*
Y382829D02*
Y382914D01*
Y383529D02*
Y383614D01*
Y385101D02*
Y385172D01*
Y385754D02*
Y385803D01*
Y387447D02*
Y387550D01*
Y388107D02*
Y388195D01*
Y391177D02*
Y391214D01*
Y392508D02*
Y392556D01*
Y411673D02*
Y411743D01*
X171800Y369782D02*
Y369829D01*
Y371033D02*
Y371080D01*
Y374860D02*
Y374907D01*
Y376442D02*
Y376489D01*
Y377619D02*
Y377666D01*
Y378833D02*
Y378885D01*
Y379492D02*
Y379543D01*
Y382979D02*
Y383464D01*
Y385226D02*
Y385703D01*
Y387647D02*
Y388095D01*
Y391233D02*
Y391274D01*
Y392508D02*
Y392556D01*
Y411753D02*
Y411812D01*
X171900Y369783D02*
Y369830D01*
Y371033D02*
Y371078D01*
Y374860D02*
Y374907D01*
Y376442D02*
Y376489D01*
Y377619D02*
Y377666D01*
Y378833D02*
Y378881D01*
Y379496D02*
Y379543D01*
Y391288D02*
Y391371D01*
Y392508D02*
Y392556D01*
Y411804D02*
Y411896D01*
X172000Y369793D02*
Y369848D01*
Y371021D02*
Y371062D01*
Y374860D02*
Y374907D01*
Y376442D02*
Y376489D01*
Y377619D02*
Y377666D01*
Y378833D02*
Y378881D01*
Y379518D02*
Y379521D01*
Y391073D02*
Y392556D01*
Y411707D02*
Y411786D01*
Y411938D02*
Y411980D01*
X172100Y369803D02*
Y369866D01*
Y371010D02*
Y371045D01*
Y374860D02*
Y374907D01*
Y376442D02*
Y376489D01*
Y377619D02*
Y377666D01*
Y378833D02*
Y378881D01*
Y391073D02*
Y391121D01*
Y411601D02*
Y411676D01*
Y412025D02*
Y412064D01*
X172200Y369813D02*
Y369884D01*
Y370999D02*
Y371028D01*
Y374860D02*
Y374907D01*
Y376442D02*
Y376489D01*
Y377619D02*
Y377666D01*
Y378833D02*
Y378881D01*
Y391073D02*
Y391121D01*
Y411495D02*
Y411565D01*
Y412113D02*
Y412148D01*
X172300Y369844D02*
Y369902D01*
Y370968D02*
Y371012D01*
Y374860D02*
Y374907D01*
Y376442D02*
Y376489D01*
Y377619D02*
Y377666D01*
Y378833D02*
Y378881D01*
Y411389D02*
Y411455D01*
Y412200D02*
Y412233D01*
X172400Y369894D02*
Y369927D01*
Y370925D02*
Y370963D01*
Y374860D02*
Y374907D01*
Y376442D02*
Y376489D01*
Y377619D02*
Y377666D01*
Y378833D02*
Y378881D01*
Y410997D02*
Y411044D01*
Y411283D02*
Y411344D01*
Y412288D02*
Y412317D01*
Y412432D02*
Y412479D01*
X172500Y369935D02*
Y369966D01*
Y370883D02*
Y370908D01*
Y372471D02*
Y372696D01*
Y374860D02*
Y374907D01*
Y376461D02*
Y376510D01*
Y377548D02*
Y377666D01*
Y378833D02*
Y378881D01*
Y410997D02*
Y411044D01*
Y411177D02*
Y411234D01*
Y412375D02*
Y412479D01*
X172600Y369960D02*
Y370037D01*
Y370803D02*
Y370852D01*
Y372382D02*
Y372810D01*
Y374860D02*
Y374907D01*
Y376491D02*
Y376549D01*
Y377445D02*
Y377519D01*
Y377610D02*
Y377666D01*
Y378833D02*
Y378881D01*
Y410997D02*
Y411123D01*
Y412432D02*
Y412479D01*
X172700Y370066D02*
Y370137D01*
Y370719D02*
Y370768D01*
Y372380D02*
Y372810D01*
Y374860D02*
Y374907D01*
Y376551D02*
Y376665D01*
Y377279D02*
Y377339D01*
Y377619D02*
Y377666D01*
Y378833D02*
Y378881D01*
Y410997D02*
Y411044D01*
Y412432D02*
Y412479D01*
X172800Y370191D02*
Y370668D01*
Y372439D02*
Y372729D01*
Y374252D02*
Y375515D01*
Y376698D02*
Y377050D01*
Y377619D02*
Y377906D01*
Y378594D02*
Y379488D01*
Y410997D02*
Y411044D01*
Y412432D02*
Y412457D01*
X172900Y410997D02*
Y411027D01*
X173000Y391073D02*
Y391119D01*
Y393060D02*
Y393106D01*
X173100Y391073D02*
Y391121D01*
Y393060D02*
Y393107D01*
X173200Y391073D02*
Y393107D01*
X173300Y391073D02*
Y391121D01*
Y392104D02*
Y392151D01*
Y393060D02*
Y393107D01*
X173400Y391073D02*
Y391121D01*
Y392104D02*
Y392151D01*
Y393060D02*
Y393107D01*
X173500Y391073D02*
Y391121D01*
Y392104D02*
Y392151D01*
Y393060D02*
Y393107D01*
X173600Y391073D02*
Y391121D01*
Y392104D02*
Y392151D01*
Y393060D02*
Y393107D01*
X173700Y391073D02*
Y391121D01*
Y392104D02*
Y392151D01*
Y393060D02*
Y393107D01*
X173800Y391073D02*
Y391115D01*
Y392104D02*
Y392151D01*
Y393060D02*
Y393107D01*
X173900Y393060D02*
Y393107D01*
X174000Y393060D02*
Y393107D01*
X174100Y393060D02*
Y393107D01*
X174200Y393060D02*
Y393107D01*
X174300Y393060D02*
Y393107D01*
X174400Y393060D02*
Y393107D01*
X174500Y393043D02*
Y393107D01*
*
G04 PC Custom Flashes*
G04 Layer Name carrier13.revD.layout.p - flashes*
%LPD*%
*
*
G04 PC Circuitry*
G04 Layer Name carrier13.revD.layout.p - circuitry*
%LPD*%
*
G54D10*
G54D12*
X476881Y316517D02*
X476792Y316763D01*
X476613Y317009*
X476434Y317132*
X476076*
X475897Y317009*
X475718Y316763*
X475629Y316517*
X475539Y316148*
Y315532*
X475629Y315163*
X475718Y314917*
X475897Y314671*
X476076Y314548*
X476434*
X476613Y314671*
X476792Y314917*
X476881Y315163*
X479029Y316517D02*
X478939Y316763D01*
X478760Y317009*
X478582Y317132*
X478224*
X478045Y317009*
X477866Y316763*
X477776Y316517*
X477687Y316148*
Y315532*
X477776Y315163*
X477866Y314917*
X478045Y314671*
X478224Y314548*
X478582*
X478760Y314671*
X478939Y314917*
X479029Y315163*
X480729Y317132D02*
X479834Y315409D01*
X481176*
X480729Y317132D02*
Y314548D01*
X475664Y321445D02*
Y318862D01*
Y321445D02*
X476469D01*
X476737Y321322*
X476827Y321199*
X476916Y320953*
Y320707*
X476827Y320461*
X476737Y320338*
X476469Y320215*
X475664*
X476290D02*
X476916Y318862D01*
X477722Y321445D02*
Y318862D01*
X477722D02*
X478795D01*
X479779Y321445D02*
X480764D01*
X480227Y320461*
X480495*
X480674Y320338*
X480764Y320215*
X480853Y319846*
Y319600*
X480764Y319231*
X480585Y318985*
X480316Y318862*
X480048*
X479779Y318985*
X479690Y319108*
X479601Y319354*
G54D180*
X181907Y383844D02*
X181657Y383753D01*
X181407Y383571*
X181282Y383389*
Y383026*
X181407Y382844*
X181657Y382662*
X181907Y382571*
X182282Y382480*
X182907*
X183282Y382571*
X183532Y382662*
X183782Y382844*
X183907Y383026*
Y383389*
X183782Y383571*
X183532Y383753*
X183282Y383844*
X181282Y384662D02*
X183907D01*
X181282D02*
Y385844D01*
X182532Y384662D02*
Y385389D01*
X183907Y384662D02*
Y385844D01*
X181282Y387208D02*
X181407Y386935D01*
X181782Y386753*
X182407Y386662*
X182782*
X183407Y386753*
X183782Y386935*
X183907Y387208*
Y387389*
X183782Y387662*
X183407Y387844*
X182782Y387935*
X182407*
X181782Y387844*
X181407Y387662*
X181282Y387389*
Y387208*
X181036Y391831D02*
X183661D01*
X181036D02*
Y392649D01*
X181161Y392922*
X181286Y393013*
X181536Y393103*
X181786*
X182036Y393013*
X182161Y392922*
X182286Y392649*
Y391831*
Y392467D02*
X183661Y393103D01*
X181036Y393922D02*
X183661D01*
X181036D02*
X183661Y394649D01*
X181036Y395376D02*
X183661Y394649D01*
X181036Y395376D02*
X183661D01*
X181036Y396740D02*
X181161Y396467D01*
X181536Y396285*
X182161Y396194*
X182536*
X183161Y396285*
X183536Y396467*
X183661Y396740*
Y396922*
X183536Y397194*
X183161Y397376*
X182536Y397467*
X182161*
X181536Y397376*
X181161Y397194*
X181036Y396922*
Y396740*
X182677Y375755D02*
Y373130D01*
Y375755D02*
X183404Y373130D01*
X184132Y375755D02*
X183404Y373130D01*
X184132Y375755D02*
Y373130D01*
X185495Y375755D02*
X185223Y375630D01*
X185041Y375255*
X184950Y374630*
Y374255*
X185041Y373630*
X185223Y373255*
X185495Y373130*
X185677*
X185950Y373255*
X186132Y373630*
X186223Y374255*
Y374630*
X186132Y375255*
X185950Y375630*
X185677Y375755*
X185495*
X177306Y421394D02*
X177124Y421644D01*
X176852Y421769*
X176488*
X176215Y421644*
X176033Y421394*
Y421144*
X176124Y420894*
X176215Y420769*
X176397Y420644*
X176943Y420394*
X177124Y420269*
X177215Y420144*
X177306Y419894*
Y419519*
X177124Y419269*
X176852Y419144*
X176488*
X176215Y419269*
X176033Y419519*
X178670Y421769D02*
X178397Y421644D01*
X178215Y421269*
X178124Y420644*
Y420269*
X178215Y419644*
X178397Y419269*
X178670Y419144*
X178852*
X179124Y419269*
X179306Y419644*
X179397Y420269*
Y420644*
X179306Y421269*
X179124Y421644*
X178852Y421769*
X178670*
X181415Y406236D02*
X181165Y406145D01*
X180915Y405963*
X180790Y405781*
Y405418*
X180790D02*
X180915Y405236D01*
X181165Y405054*
X181415Y404963*
X181790Y404872*
X182415*
X182790Y404963*
X183040Y405054*
X183290Y405236*
X183415Y405418*
X183415D02*
Y405781D01*
X183290Y405963*
X183040Y406145*
X182790Y406236*
X181415Y407145D02*
X181290D01*
X181040Y407236*
X180915Y407327*
X180790Y407508*
Y407872*
X180915Y408054*
X181040Y408145*
X181290Y408236*
X181540*
X181790Y408145*
X182165Y407963*
X183415Y407054*
Y408327*
X181415Y409236D02*
X181290D01*
X181040Y409327*
X180915Y409418*
X180915D02*
X180790Y409599D01*
Y409963*
X180915Y410145*
X181040Y410236*
X181290Y410327*
X181540*
X181790Y410236*
X182165Y410054*
X183415Y409145*
Y410418*
X189946Y393339D02*
X189855Y393589D01*
X189674Y393839*
X189492Y393964*
X189128*
X188946Y393839*
X188764Y393589*
X188674Y393339*
X188583Y392964*
Y392339*
X188674Y391964*
X188764Y391714*
X188946Y391464*
X189128Y391339*
X189492*
X189674Y391464*
X189855Y391714*
X189946Y391964*
X190764Y393964D02*
Y391339D01*
Y393964D02*
X191401D01*
X191674Y393839*
X191855Y393589*
X191946Y393339*
X192037Y392964*
Y392339*
X191946Y391964*
X191855Y391714*
X191674Y391464*
X191401Y391339*
X190764*
X193401Y393964D02*
X193128Y393839D01*
X192946Y393464*
X192855Y392839*
Y392464*
X192946Y391839*
X193128Y391464*
X193401Y391339*
X193583*
X193855Y391464*
X194037Y391839*
X194128Y392464*
Y392839*
X194037Y393464*
X193855Y393839*
X193583Y393964*
X193401*
X184614Y417062D02*
X184364Y416972D01*
X184114Y416790*
X183989Y416608*
Y416244*
X184114Y416062*
X184364Y415881*
X184614Y415790*
X184989Y415699*
X185614*
X185989Y415790*
X186239Y415881*
X186489Y416062*
X186614Y416244*
Y416608*
X186489Y416790*
X186239Y416972*
X185989Y417062*
X183989Y417881D02*
X186614D01*
X183989D02*
Y419062D01*
X185239Y417881D02*
Y418608D01*
X183989Y420426D02*
X184114Y420153D01*
X184489Y419972*
X185114Y419881*
X185489*
X186114Y419972*
X186489Y420153*
X186614Y420426*
Y420608*
X186489Y420881*
X186114Y421062*
X185489Y421153*
X185114*
X184489Y421062*
X184114Y420881*
X183989Y420608*
Y420426*
X180790Y415699D02*
X183415D01*
X180790D02*
Y416517D01*
X180915Y416790*
X181040Y416881*
X181290Y416972*
X181540*
X181790Y416881*
X181915Y416790*
X182040Y416517*
Y415699*
Y416335D02*
X183415Y416972D01*
X180790Y417790D02*
X183415D01*
X180790D02*
Y418972D01*
X182040Y417790D02*
Y418517D01*
X183415Y417790D02*
Y418972D01*
X180790Y420335D02*
X180915Y420062D01*
X181290Y419881*
X181915Y419790*
X182290*
X182915Y419881*
X183290Y420062*
X183415Y420335*
Y420517*
X183290Y420790*
X182915Y420972*
X182290Y421062*
X181915*
X181290Y420972*
X180915Y420790*
X180790Y420517*
Y420335*
X187598Y413403D02*
Y410778D01*
Y413403D02*
X188417D01*
X188689Y413278*
X188780Y413153*
X188871Y412903*
Y412653*
X188780Y412403*
X188689Y412278*
X188417Y412153*
X187598*
X188235D02*
X188871Y410778D01*
X189689Y413403D02*
Y410778D01*
Y413403D02*
X190871D01*
X189689Y412153D02*
X190417D01*
X192235Y413403D02*
X191962Y413278D01*
X191780Y412903*
X191689Y412278*
Y411903*
X191780Y411278*
X191962Y410903*
X192235Y410778*
X192417*
X192689Y410903*
X192871Y411278*
X192962Y411903*
Y412278*
X192871Y412903*
X192689Y413278*
X192417Y413403*
X192235*
X192109Y382726D02*
X194734D01*
X192109D02*
Y383545D01*
X192234Y383817*
X192359Y383908*
X192609Y383999*
X192859*
X193109Y383908*
X193234Y383817*
X193359Y383545*
Y382726*
Y383363D02*
X194734Y383999D01*
X192734Y386181D02*
X192484Y386090D01*
X192234Y385908*
X192109Y385726*
Y385363*
X192234Y385181*
X192484Y384999*
X192734Y384908*
X193109Y384817*
X193734*
X194109Y384908*
X194359Y384999*
X194609Y385181*
X194734Y385363*
Y385726*
X194609Y385908*
X194359Y386090*
X194109Y386181*
X193734*
Y385726D02*
Y386181D01*
X192109Y387545D02*
X192234Y387272D01*
X192609Y387090*
X193234Y386999*
X193609*
X194234Y387090*
X194609Y387272*
X194734Y387545*
Y387726*
X194609Y387999*
X194234Y388181*
X193609Y388272*
X193234*
X192609Y388181*
X192234Y387999*
X192109Y387726*
Y387545*
X187926Y382972D02*
X190551D01*
X187926D02*
Y383791D01*
X188051Y384063*
X188176Y384154*
X188426Y384245*
X188676*
X188926Y384154*
X189051Y384063*
X189176Y383791*
Y382972*
Y383609D02*
X190551Y384245D01*
X187926Y385063D02*
X190551D01*
X187926Y386336D02*
X190551D01*
X189176Y385063D02*
Y386336D01*
X187926Y387700D02*
X188051Y387427D01*
X188426Y387245*
X189051Y387154*
X189426*
X190051Y387245*
X190426Y387427*
X190551Y387700*
Y387882*
X190426Y388154*
X190051Y388336*
X189426Y388427*
X189051*
X188426Y388336*
X188051Y388154*
X187926Y387882*
Y387700*
X189075Y416601D02*
Y413976D01*
Y416601D02*
X189893D01*
X190166Y416476*
X190257Y416351*
X190348Y416101*
Y415851*
X190257Y415601*
X190166Y415476*
X189893Y415351*
X189075*
X189711D02*
X190348Y413976D01*
X192075Y416601D02*
Y414601D01*
X191984Y414226*
X191893Y414101*
X191711Y413976*
X191529*
X191348Y414101*
X191257Y414226*
X191166Y414601*
Y414851*
X193438Y416601D02*
X193166Y416476D01*
X192984Y416101*
X192893Y415476*
Y415101*
X192984Y414476*
X193166Y414101*
X193438Y413976*
X193620*
X193893Y414101*
X194075Y414476*
X194166Y415101*
Y415476*
X194075Y416101*
X193893Y416476*
X193620Y416601*
X193438*
X187566Y403383D02*
X186839Y400758D01*
X187566Y403383D02*
X188293Y400758D01*
X187112Y401633D02*
X188021D01*
X189657Y403383D02*
X189384Y403258D01*
X189202Y402883*
X189112Y402258*
Y401883*
X189202Y401258*
X189384Y400883*
X189657Y400758*
X189839*
X190112Y400883*
X190293Y401258*
X190384Y401883*
Y402258*
X190293Y402883*
X190112Y403258*
X189839Y403383*
X189657*
X193719Y372279D02*
X193469Y372188D01*
X193219Y372006*
X193094Y371824*
Y371461*
X193219Y371279*
X193469Y371097*
X193719Y371006*
X194094Y370915*
X194719*
X195094Y371006*
X195344Y371097*
X195594Y371279*
X195719Y371461*
Y371824*
X195594Y372006*
X195344Y372188*
X195094Y372279*
X193594Y373097D02*
X193469Y373279D01*
X193094Y373552*
X195719*
X193094Y375279D02*
X194844Y374370D01*
Y375734*
X193094Y375279D02*
X195719D01*
X193594Y376552D02*
X193469Y376734D01*
X193094Y377006*
X195719*
X189895Y372392D02*
X192520D01*
Y373483*
X189895Y375483D02*
Y374574D01*
X191020Y374483*
X190895Y374574*
X190770Y374846*
Y375119*
X190895Y375392*
X191145Y375574*
X191520Y375664*
X191770Y375574*
X192145Y375483*
X192395Y375301*
X192520Y375028*
Y374755*
X192395Y374483*
X192270Y374392*
X192020Y374301*
G54D244*
X80315Y100000D02*
X201969D01*
Y117031*
X203937Y119000D02*
G75*
G03X201969Y117031I0J-1969D01*
G01X203937Y119000D02*
X213386D01*
X215354Y117031D02*
G03X213386Y119000I-1968J0D01*
G01X215354Y117031D02*
Y100000D01*
X250807*
G03X253693Y102886I0J2886*
G01Y150524*
X256154Y152984D02*
G03X253693Y150524I-0J-2460D01*
G01X256154Y152984D02*
X260091D01*
G03X262551Y155445I-0J2461*
G01Y180051*
X265012Y182512D02*
G03X262551Y180051I-0J-2461D01*
G01X265012Y182512D02*
X304382D01*
X306843Y180051D02*
G03X304382Y182512I-2461J0D01*
G01X306843Y180051D02*
Y155445D01*
G03X309303Y152984I2460J-0*
G01X313240*
X315701Y150524D02*
G03X313240Y152984I-2461J-0D01*
G01X315701Y150524D02*
Y102295D01*
G03X317996Y100000I2295J0*
G01X513386*
Y442520*
X489764*
X481890Y450394D02*
G03X489764Y442520I7874J-0D01*
G01X481890Y450394D02*
Y454331D01*
X332283*
Y450394*
X324409Y442520D02*
G03X332283Y450394I0J7874D01*
G01X324409Y442520D02*
X269291D01*
X261417Y450394D02*
G03X269291Y442520I7874J-0D01*
G01X261417Y450394D02*
Y454331D01*
X111811*
Y450394*
X103937Y442520D02*
G03X111811Y450394I0J7874D01*
G01X103937Y442520D02*
X80315D01*
Y100000*
G74*
X0Y0D02*
M02*
