*
*
G04 PADS 9.5 Build Number: 522968 generated Gerber (RS-274-X) file*
G04 PC Version=2.1*
*
%IN "fakeSCROD.pcb"*%
*
%MOIN*%
*
%FSLAX35Y35*%
*
*
*
*
G04 PC Standard Apertures*
*
*
G04 Thermal Relief Aperture macro.*
%AMTER*
1,1,$1,0,0*
1,0,$1-$2,0,0*
21,0,$3,$4,0,0,45*
21,0,$3,$4,0,0,135*
%
*
*
G04 Annular Aperture macro.*
%AMANN*
1,1,$1,0,0*
1,0,$2,0,0*
%
*
*
G04 Odd Aperture macro.*
%AMODD*
1,1,$1,0,0*
1,0,$1-0.005,0,0*
%
*
*
G04 PC Custom Aperture Macros*
*
*
*
*
*
*
G04 PC Aperture Table*
*
%ADD010C,0.001*%
%ADD013C,0.01*%
%ADD265R,0.00984X0.02953*%
%ADD288C,0.032*%
*
*
*
*
G04 PC Circuitry*
G04 Layer Name fakeSCROD.pcb - circuitry*
%LPD*%
*
*
G04 PC Custom Flashes*
G04 Layer Name fakeSCROD.pcb - flashes*
%LPD*%
*
*
G04 PC Circuitry*
G04 Layer Name fakeSCROD.pcb - circuitry*
%LPD*%
*
G54D10*
G54D13*
G01X100000Y100000D02*
X117717D01*
X125591Y92126D02*
G75*
G03X117717Y100000I-7874J-0D01*
G01X125591Y92126D02*
Y48819D01*
G03X133465Y40945I7874J-0*
G01X186614*
G03X194488Y48819I0J7874*
G01Y92126*
X202362Y100000D02*
G03X194488Y92126I0J-7874D01*
G01X202362Y100000D02*
X430709D01*
X438583Y92126D02*
G03X430709Y100000I-7874J-0D01*
G01X438583Y92126D02*
Y48819D01*
G03X446457Y40945I7874J-0*
G01X499606*
G03X507480Y48819I0J7874*
G01Y92126*
X515354Y100000D02*
G03X507480Y92126I0J-7874D01*
G01X515354Y100000D02*
X533071D01*
Y205315*
X519291*
Y232874D02*
G03Y205315I0J-13780D01*
G01Y232874D02*
X533071D01*
Y323425*
X519291*
Y350984D02*
G03Y323425I0J-13779D01*
G01Y350984D02*
X533071D01*
Y446457*
G03X525197Y454331I-7874J-0*
G01X107874*
G03X100000Y446457I0J-7874*
G01Y350000*
X113780*
Y322441D02*
G03Y350000I-0J13779D01*
G01Y322441D02*
X100000D01*
Y231890*
X113780*
Y204331D02*
G03Y231890I-0J13779D01*
G01Y204331D02*
X100000D01*
Y100000*
X149213Y235827D02*
X170866D01*
Y201181*
X149213*
Y235827*
X461220D02*
X484843D01*
Y201181*
X461220*
Y235827*
X132480Y291929D02*
X187598D01*
Y266339*
X132480*
Y291929*
X445472Y266929D02*
X500591D01*
Y291929*
X445472*
Y266929*
G54D265*
X224016Y248327D03*
X225984D03*
X227953D03*
Y241043D03*
X225984D03*
X224016D03*
G54D288*
X416004Y431398D03*
X411004D03*
X406004D03*
X401004D03*
X396004D03*
X391004D03*
X386004D03*
X381004D03*
X376004D03*
X371004D03*
X366004D03*
X361004D03*
X356004D03*
X351004D03*
X346004D03*
X341004D03*
X336004D03*
X331004D03*
X326004D03*
X321004D03*
X316004D03*
X311004D03*
X306004D03*
X301004D03*
X296004D03*
X291004D03*
X286004D03*
X281004D03*
X276004D03*
X271004D03*
X266004D03*
X261004D03*
X256004D03*
X251004D03*
X246004D03*
X241004D03*
X236004D03*
X231004D03*
X226004D03*
X221004D03*
X416004Y426398D03*
X411004D03*
X406004D03*
X401004D03*
X396004D03*
X391004D03*
X386004D03*
X381004D03*
X376004D03*
X371004D03*
X366004D03*
X361004D03*
X356004D03*
X351004D03*
X346004D03*
X341004D03*
X336004D03*
X331004D03*
X326004D03*
X321004D03*
X316004D03*
X311004D03*
X306004D03*
X301004D03*
X296004D03*
X291004D03*
X286004D03*
X281004D03*
X276004D03*
X271004D03*
X266004D03*
X261004D03*
X256004D03*
X251004D03*
X246004D03*
X241004D03*
X236004D03*
X231004D03*
X226004D03*
X221004D03*
X416004Y411398D03*
X411004D03*
X406004D03*
X401004D03*
X396004D03*
X391004D03*
X386004D03*
X381004D03*
X376004D03*
X371004D03*
X366004D03*
X361004D03*
X356004D03*
X351004D03*
X346004D03*
X341004D03*
X336004D03*
X331004D03*
X326004D03*
X321004D03*
X316004D03*
X311004D03*
X306004D03*
X301004D03*
X296004D03*
X291004D03*
X286004D03*
X281004D03*
X276004D03*
X271004D03*
X266004D03*
X261004D03*
X256004D03*
X251004D03*
X246004D03*
X241004D03*
X236004D03*
X231004D03*
X226004D03*
X221004D03*
X416004Y406398D03*
X411004D03*
X406004D03*
X401004D03*
X396004D03*
X391004D03*
X386004D03*
X381004D03*
X376004D03*
X371004D03*
X366004D03*
X361004D03*
X356004D03*
X351004D03*
X346004D03*
X341004D03*
X336004D03*
X331004D03*
X326004D03*
X321004D03*
X316004D03*
X311004D03*
X306004D03*
X301004D03*
X296004D03*
X291004D03*
X286004D03*
X281004D03*
X276004D03*
X271004D03*
X266004D03*
X261004D03*
X256004D03*
X251004D03*
X246004D03*
X241004D03*
X236004D03*
X231004D03*
X226004D03*
X221004D03*
G74*
X0Y0D02*
M02*
