%
T1C.016F095S300
X010230Y010648
X010230Y010230
X010230Y011483
X010230Y011065
X010230Y011900
X010439Y011692
X010439Y011274
X010439Y010856
X010439Y010439
X010648Y011483
X010648Y011065
X010648Y010648
X010648Y010230
X010648Y011900
X010856Y011692
X010856Y011274
X010856Y010856
X010856Y010439
X011065Y010648
X011065Y011483
X011065Y011065
X011065Y010230
X011065Y011900
X011274Y010439
X011274Y011692
X011274Y011274
X011274Y010856
X011483Y010648
X011483Y010230
X011483Y011483
X011483Y011065
X011483Y011900
X011692Y010439
X011692Y011692
X011692Y011274
X011692Y010856
X011900Y010648
X011900Y010230
X011900Y011483
X011900Y011065
X011900Y011900
X012109Y011692
X012109Y011274
X012109Y010856
X012109Y010439
X012318Y010648
X012318Y011483
X012318Y011065
X012318Y010230
X012318Y011900
X012527Y011692
X012527Y011274
X012527Y010856
X012527Y010439
X050741Y010608
X050741Y011443
X050741Y011025
X050741Y010190
X050741Y011860
X050950Y010816
X050950Y011652
X050950Y011234
X050950Y010399
X051159Y010608
X051159Y010190
X051159Y011443
X051159Y011025
X051159Y011860
X051368Y010816
X051368Y011652
X051368Y011234
X051368Y010399
X051576Y011443
X051576Y011025
X051576Y010608
X051576Y011860
X051785Y011652
X051785Y010816
X051785Y011234
X051785Y010399
X051994Y011443
X051994Y011025
X051994Y010608
X051994Y011860
X052203Y011652
X052203Y011234
X052203Y010816
X052203Y010399
X052412Y011443
X052412Y011025
X052412Y010608
X052412Y011860
X052620Y010399
X052620Y011652
X052620Y010816
X052620Y011234
X052829Y011025
X052829Y010608
X052829Y011860
X052829Y011443
X053038Y011652
X053038Y010816
X053038Y011234
X053038Y010399
X053038Y012487
X053038Y012069
X053038Y013739
X053038Y013322
X053038Y012904
X053038Y014157
X052829Y012695
X052829Y012278
X052829Y013531
X052829Y013113
X052829Y014366
X052829Y013948
X052620Y012487
X052620Y012069
X052620Y013739
X052620Y013322
X052620Y012904
X052620Y014157
X052412Y012695
X052412Y012278
X052412Y013531
X052412Y013113
X052412Y014366
X052412Y013948
X052203Y012487
X052203Y012069
X052203Y013739
X052203Y013322
X052203Y012904
X052203Y014157
X051994Y012695
X051994Y012278
X051994Y013531
X051994Y013113
X051994Y014366
X051994Y013948
X051785Y012069
X051785Y013739
X051785Y013322
X051785Y012904
X051785Y014157
X051785Y012487
X051576Y012695
X051576Y013531
X051576Y013113
X051576Y012278
X051576Y014366
X051576Y013948
X051368Y013739
X051368Y013322
X051368Y012904
X051368Y012487
X051368Y014157
X051368Y012069
X051159Y012695
X051159Y012278
X051159Y013531
X051159Y013113
X051159Y014366
X051159Y013948
X050950Y013739
X050950Y013322
X050950Y012904
X050950Y012487
X050950Y012069
X050950Y014157
X050741Y013531
X050741Y013113
X050741Y012695
X050741Y012278
X050741Y014366
X050741Y013948
X012527Y012944
X012527Y014197
X012527Y013779
X012527Y013362
X012527Y012527
X012527Y012109
X012318Y012735
X012318Y012318
X012318Y013571
X012318Y014406
X012318Y013988
X012318Y013153
X012109Y012527
X012109Y014197
X012109Y013779
X012109Y013362
X012109Y012109
X012109Y012944
X011900Y012318
X011900Y014406
X011900Y013988
X011900Y012735
X011900Y013571
X011900Y013153
X011692Y012109
X011692Y014197
X011692Y012944
X011692Y013779
X011692Y012527
X011692Y013362
X011483Y012735
X011483Y012318
X011483Y013571
X011483Y014406
X011483Y013988
X011483Y013153
X011274Y012527
X011274Y014197
X011274Y013362
X011274Y012944
X011274Y013779
X011274Y012109
X011065Y014406
X011065Y013988
X011065Y013571
X011065Y013153
X011065Y012735
X011065Y012318
X010856Y014197
X010856Y012944
X010856Y012527
X010856Y013779
X010856Y013362
X010856Y012109
X010648Y013571
X010648Y012735
X010648Y013153
X010648Y014406
X010648Y013988
X010648Y012318
X010439Y013362
X010439Y012944
X010439Y012527
X010439Y012109
X010439Y014197
X010439Y013779
X010230Y013571
X010230Y014406
X010230Y012735
X010230Y013988
X010230Y012318
X010230Y013153
X010230Y014823
X010230Y015659
X010230Y015241
X010230Y016494
X010230Y016076
X010230Y016911
X010439Y014615
X010439Y015450
X010439Y015032
X010439Y016703
X010648Y015241
X010648Y016911
X010648Y014823
X010856Y014615
X010856Y015032
X011065Y014823
X011065Y016911
X011274Y014615
X011483Y014823
X011483Y016911
X011692Y014615
X011900Y014823
X011900Y016911
X012109Y015032
X012109Y016703
X012109Y014615
X012318Y014823
X012318Y015241
X012318Y016494
X012318Y016911
X012527Y015450
X012527Y015032
X012527Y014615
X012527Y016703
X012527Y016285
X012527Y015867
X050741Y015619
X050741Y015201
X050741Y014783
X050741Y016454
X050741Y016036
X050741Y016871
X050950Y015410
X050950Y014992
X050950Y016663
X050950Y014575
X051159Y015201
X051159Y014783
X051159Y016871
X051368Y014992
X051368Y014575
X051576Y014783
X051785Y014575
X051994Y014783
X052203Y014575
X052412Y014783
X052412Y016871
X052620Y016663
X052620Y014575
X052620Y014992
X052829Y014783
X052829Y015201
X052829Y016871
X052829Y016454
X053038Y015827
X053038Y015410
X053038Y016245
X053038Y016663
X053038Y014575
X053038Y014992
X053038Y017498
X053038Y017080
X053038Y018750
X053038Y018333
X053038Y017915
X053038Y019168
X052829Y017706
X052829Y017289
X052829Y018542
X052829Y018124
X052829Y019377
X052829Y018959
X052620Y017498
X052620Y017080
X052620Y018750
X052620Y018333
X052620Y017915
X052620Y019168
X052412Y017706
X052412Y017289
X052412Y018542
X052412Y018124
X052412Y019377
X052412Y018959
X052203Y017498
X052203Y017080
X052203Y018750
X052203Y018333
X052203Y017915
X052203Y019168
X051994Y017706
X051994Y017289
X051994Y018542
X051994Y018124
X051994Y019377
X051994Y018959
X051785Y017498
X051785Y018750
X051785Y018333
X051785Y017915
X051785Y017080
X051785Y019168
X051576Y018542
X051576Y018124
X051576Y017706
X051576Y017289
X051576Y019377
X051576Y018959
X051368Y018750
X051368Y018333
X051368Y017915
X051368Y017080
X051368Y019168
X051368Y017498
X051159Y018542
X051159Y018124
X051159Y017706
X051159Y017289
X051159Y019377
X051159Y018959
X050950Y018750
X050950Y018333
X050950Y017915
X050950Y017498
X050950Y017080
X050950Y019168
X050741Y018542
X050741Y018124
X050741Y019377
X050741Y018959
X050741Y017706
X050741Y017289
X012527Y017955
X012527Y017538
X012527Y017120
X012527Y019208
X012527Y018790
X012527Y018373
X012318Y018582
X012318Y018164
X012318Y017746
X012318Y017329
X012318Y019417
X012318Y018999
X012109Y017538
X012109Y017120
X012109Y018790
X012109Y019208
X012109Y018373
X012109Y017955
X011900Y019417
X011900Y018999
X011900Y017746
X011900Y017329
X011900Y018582
X011900Y018164
X011692Y017955
X011692Y018790
X011692Y017538
X011692Y017120
X011692Y019208
X011692Y018373
X011483Y018582
X011483Y018164
X011483Y019417
X011483Y018999
X011483Y017329
X011483Y017746
X011274Y018373
X011274Y019208
X011274Y017955
X011274Y018790
X011274Y017538
X011274Y017120
X011065Y019417
X011065Y018999
X011065Y018582
X011065Y018164
X011065Y017746
X011065Y017329
X010856Y017955
X010856Y017538
X010856Y019208
X010856Y017120
X010856Y018790
X010856Y018373
X010648Y018999
X010648Y018164
X010648Y018582
X010648Y017746
X010648Y019417
X010648Y017329
X010439Y017120
X010439Y019208
X010439Y017955
X010439Y017538
X010439Y018373
X010439Y018790
X010230Y017746
X010230Y017329
X010230Y018999
X010230Y018582
X010230Y019417
X010230Y018164
X010230Y019834
X010439Y019626
X010439Y020043
X010648Y019834
X010856Y019626
X010856Y020043
X011065Y019834
X011274Y019626
X011274Y020043
X011483Y019834
X011692Y019626
X011692Y020043
X011900Y020252
X011900Y019834
X012109Y019626
X012109Y020043
X012318Y020252
X012318Y019834
X012527Y019626
X012527Y020461
X012527Y020043
X050741Y019794
X050741Y020630
X050741Y020212
X050950Y019586
X050950Y020421
X050950Y020003
X051159Y019794
X051159Y020212
X051368Y019586
X051368Y020003
X051576Y019794
X051576Y020212
X051785Y019586
X051785Y020003
X051994Y019794
X051994Y020212
X052203Y020003
X052203Y019586
X052412Y020212
X052412Y019794
X052620Y020003
X052620Y019586
X052829Y019794
X052829Y020212
X053038Y019586
X053038Y020003
X053038Y023761
X053038Y024179
X052829Y023553
X052829Y024388
X052829Y023970
X052620Y023761
X052620Y024179
X052412Y023553
X052412Y024388
X052412Y023970
X052203Y023761
X052203Y024179
X051994Y023553
X051994Y024388
X051994Y023970
X051785Y023761
X051785Y024179
X051576Y023553
X051576Y024388
X051576Y023970
X051368Y023761
X051368Y024179
X051159Y023553
X051159Y024388
X051159Y023970
X050950Y024179
X050950Y023761
X050950Y023344
X050741Y024388
X050741Y023970
X050741Y023553
X050741Y023135
X012527Y024219
X012527Y023384
X012527Y023801
X012527Y022966
X012318Y024428
X012318Y024010
X012318Y023593
X012318Y023175
X012109Y024219
X012109Y023384
X012109Y023801
X011900Y024428
X011900Y024010
X011900Y023593
X011692Y023801
X011692Y024219
X011483Y024010
X011483Y023593
X011483Y024428
X011274Y023801
X011274Y024219
X011065Y024010
X011065Y023593
X011065Y024428
X010856Y023801
X010856Y024219
X010648Y024428
X010648Y024010
X010648Y023593
X010439Y023801
X010439Y024219
X010230Y024428
X010230Y023593
X010230Y024010
X010230Y025681
X010230Y025263
X010230Y024845
X010230Y026516
X010230Y026098
X010230Y026933
X010439Y025472
X010439Y025054
X010439Y026725
X010439Y026307
X010439Y025889
X010439Y024637
X010648Y025681
X010648Y025263
X010648Y024845
X010648Y026516
X010648Y026098
X010648Y026933
X010856Y025472
X010856Y025054
X010856Y026725
X010856Y026307
X010856Y025889
X010856Y024637
X011065Y025681
X011065Y025263
X011065Y024845
X011065Y026516
X011065Y026098
X011274Y025472
X011274Y025054
X011274Y024637
X011274Y026725
X011274Y026307
X011274Y025889
X011483Y024845
X011483Y026516
X011483Y026098
X011483Y025681
X011483Y025263
X011692Y024637
X011692Y025472
X011692Y026725
X011692Y026307
X011692Y025889
X011692Y025054
X011900Y026516
X011900Y026098
X011900Y025263
X011900Y024845
X011900Y025681
X012109Y024637
X012109Y025472
X012109Y025054
X012109Y026725
X012109Y026307
X012109Y025889
X012318Y025681
X012318Y025263
X012318Y024845
X012318Y026516
X012318Y026098
X012318Y026933
X012527Y024637
X012527Y025472
X012527Y025054
X012527Y026725
X012527Y026307
X012527Y025889
X050741Y025223
X050741Y024805
X050741Y025641
X050741Y026476
X050741Y026058
X050741Y026893
X050950Y025432
X050950Y025014
X050950Y026685
X050950Y026267
X050950Y025849
X050950Y024597
X051159Y025641
X051159Y025223
X051159Y024805
X051159Y026476
X051159Y026058
X051159Y026893
X051368Y024597
X051368Y025432
X051368Y026685
X051368Y026267
X051368Y025849
X051368Y025014
X051576Y025641
X051576Y025223
X051576Y024805
X051576Y026476
X051576Y026058
X051785Y026685
X051785Y026267
X051785Y025849
X051785Y025432
X051785Y024597
X051785Y025014
X051994Y025223
X051994Y024805
X051994Y025641
X051994Y026476
X051994Y026058
X052203Y025432
X052203Y025014
X052203Y026685
X052203Y026267
X052203Y025849
X052203Y024597
X052412Y025223
X052412Y026476
X052412Y026058
X052412Y024805
X052412Y025641
X052620Y026267
X052620Y025849
X052620Y024597
X052620Y025432
X052620Y025014
X052620Y026685
X052829Y026058
X052829Y025223
X052829Y024805
X052829Y026476
X052829Y025641
X052829Y026893
X053038Y025014
X053038Y025432
X053038Y026685
X053038Y026267
X053038Y024597
X053038Y025849
X053038Y027520
X053038Y027102
X053038Y028772
X053038Y028355
X053038Y027937
X053038Y029190
X052829Y028564
X052829Y029399
X052829Y028981
X052620Y028772
X052620Y029190
X052412Y029399
X052412Y028981
X052203Y028772
X052203Y029190
X051994Y029399
X051994Y028981
X051785Y028772
X051785Y029190
X051576Y029399
X051576Y028981
X051368Y028772
X051368Y029190
X051159Y028564
X051159Y029399
X051159Y028981
X050950Y028772
X050950Y028355
X050950Y027102
X050950Y029190
X050741Y028564
X050741Y027728
X050741Y027311
X050741Y028146
X050741Y029399
X050741Y028981
X012527Y027977
X012527Y029230
X012527Y028812
X012527Y028395
X012527Y027560
X012527Y027142
X012318Y029439
X012318Y029021
X012318Y028186
X012318Y028604
X012109Y029230
X012109Y028812
X012109Y028395
X011900Y029021
X011900Y029439
X011900Y028604
X011692Y028812
X011692Y029230
X011483Y029021
X011483Y029439
X011274Y028812
X011274Y029230
X011065Y029021
X011065Y029439
X010856Y029230
X010856Y028812
X010648Y029439
X010648Y029021
X010648Y028604
X010439Y029230
X010439Y027142
X010439Y028812
X010439Y028395
X010230Y027768
X010230Y029439
X010230Y028604
X010230Y028186
X010230Y029021
X010230Y027351
X010230Y030692
X010230Y030274
X010230Y029856
X010230Y031527
X010230Y031109
X010230Y031944
X010439Y030483
X010439Y030065
X010439Y031736
X010439Y031318
X010439Y030900
X010439Y029648
X010648Y030692
X010648Y030274
X010648Y029856
X010648Y031527
X010648Y031109
X010648Y031944
X010856Y030483
X010856Y030065
X010856Y031736
X010856Y031318
X010856Y030900
X010856Y029648
X011065Y030692
X011065Y030274
X011065Y029856
X011065Y031527
X011065Y031109
X011065Y031944
X011274Y030483
X011274Y030065
X011274Y029648
X011274Y031736
X011274Y031318
X011274Y030900
X011483Y031527
X011483Y031109
X011483Y030692
X011483Y030274
X011483Y029856
X011483Y031944
X011692Y029648
X011692Y030065
X011692Y031736
X011692Y031318
X011692Y030900
X011692Y030483
X011900Y031527
X011900Y031109
X011900Y029856
X011900Y030692
X011900Y031944
X011900Y030274
X012109Y029648
X012109Y030483
X012109Y030065
X012109Y031736
X012109Y031318
X012109Y030900
X012318Y030692
X012318Y030274
X012318Y029856
X012318Y031527
X012318Y031109
X012318Y031944
X012527Y030065
X012527Y029648
X012527Y031736
X012527Y031318
X012527Y030900
X012527Y030483
X050741Y030652
X050741Y029816
X050741Y030234
X050741Y031487
X050741Y031069
X050741Y031904
X050950Y030443
X050950Y030025
X050950Y031696
X050950Y031278
X050950Y030860
X050950Y029608
X051159Y029816
X051159Y030652
X051159Y030234
X051159Y031487
X051159Y031069
X051159Y031904
X051368Y030025
X051368Y029608
X051368Y031696
X051368Y031278
X051368Y030860
X051368Y030443
X051576Y030234
X051576Y031487
X051576Y031069
X051576Y030652
X051576Y029816
X051576Y031904
X051785Y031696
X051785Y031278
X051785Y030860
X051785Y030443
X051785Y030025
X051785Y029608
X051994Y029816
X051994Y030652
X051994Y030234
X051994Y031487
X051994Y031069
X051994Y031904
X052203Y031696
X052203Y031278
X052203Y030860
X052203Y029608
X052203Y030025
X052203Y030443
X052412Y031487
X052412Y031069
X052412Y030652
X052412Y030234
X052412Y029816
X052412Y031904
X052620Y030025
X052620Y031278
X052620Y030443
X052620Y030860
X052620Y029608
X052620Y031696
X052829Y030652
X052829Y031487
X052829Y031069
X052829Y029816
X052829Y031904
X052829Y030234
X053038Y031278
X053038Y030443
X053038Y030025
X053038Y029608
X053038Y031696
X053038Y030860
X053038Y035454
X053038Y036707
X053038Y036289
X053038Y035871
X052829Y035663
X052829Y036498
X052829Y036080
X052829Y036915
X052620Y035454
X052620Y036707
X052620Y036289
X052620Y035871
X052412Y035663
X052412Y036498
X052412Y036080
X052412Y036915
X052203Y035454
X052203Y036707
X052203Y036289
X052203Y035871
X051994Y035663
X051994Y036498
X051994Y036080
X051994Y036915
X051785Y035454
X051785Y036707
X051785Y036289
X051785Y035871
X051785Y032113
X051576Y035663
X051576Y036498
X051576Y036080
X051576Y036915
X051368Y035454
X051368Y036707
X051368Y036289
X051368Y035871
X051368Y032113
X051159Y035663
X051159Y035245
X051159Y036498
X051159Y036080
X051159Y036915
X050950Y036707
X050950Y036289
X050950Y035871
X050950Y035454
X050950Y035036
X050950Y032113
X050741Y036498
X050741Y036080
X050741Y035245
X050741Y034827
X050741Y032322
X050741Y036915
X050741Y035663
X012527Y036747
X012527Y036329
X012527Y035911
X012527Y032153
X012527Y035494
X012527Y035076
X012318Y036538
X012318Y036120
X012318Y035285
X012318Y036955
X012318Y035703
X012109Y036747
X012109Y036329
X012109Y035911
X012109Y035494
X012109Y035076
X012109Y032153
X011900Y036538
X011900Y035703
X011900Y035285
X011900Y036120
X011900Y036955
X011692Y035911
X011692Y036747
X011692Y036329
X011692Y035494
X011483Y035703
X011483Y035285
X011483Y036955
X011483Y036538
X011483Y036120
X011274Y035494
X011274Y036329
X011274Y035911
X011274Y036747
X011065Y035703
X011065Y036120
X011065Y036955
X011065Y035285
X011065Y036538
X010856Y035911
X010856Y036747
X010856Y035494
X010856Y036329
X010648Y036955
X010648Y036538
X010648Y036120
X010648Y035285
X010648Y035703
X010439Y035494
X010439Y035911
X010439Y036329
X010439Y036747
X010230Y036120
X010230Y035703
X010230Y036955
X010230Y035285
X010230Y036538
X010230Y037790
X010230Y037373
X010230Y039461
X010230Y039043
X010230Y038626
X010230Y038208
X010439Y037582
X010439Y037164
X010439Y037999
X010439Y038834
X010439Y038417
X010648Y037790
X010648Y038626
X010648Y038208
X010648Y037373
X010856Y037164
X010856Y037999
X010856Y038417
X010856Y037582
X011065Y037790
X011065Y038208
X011065Y037373
X011274Y037164
X011274Y037582
X011274Y037999
X011274Y038417
X011483Y038208
X011483Y037790
X011483Y037373
X011692Y037582
X011692Y037999
X011692Y038417
X011692Y037164
X011900Y037790
X011900Y037373
X011900Y038626
X011900Y038208
X012109Y037999
X012109Y037582
X012109Y038834
X012109Y038417
X012109Y037164
X012318Y039043
X012318Y038626
X012318Y038208
X012318Y037790
X012318Y037373
X012527Y037999
X012527Y039252
X012527Y038834
X012527Y038417
X012527Y037164
X012527Y037582
X050741Y037750
X050741Y037333
X050741Y039421
X050741Y039003
X050741Y038586
X050741Y038168
X050950Y037959
X050950Y037124
X050950Y037542
X050950Y038794
X050950Y038377
X051159Y037333
X051159Y038586
X051159Y038168
X051159Y037750
X051368Y037124
X051368Y037542
X051368Y038377
X051368Y037959
X051576Y037750
X051576Y038168
X051576Y037333
X051785Y037124
X051785Y037542
X051785Y038377
X051785Y037959
X051994Y038168
X051994Y037750
X051994Y037333
X052203Y038377
X052203Y037124
X052203Y037959
X052203Y037542
X052412Y038586
X052412Y038168
X052412Y037750
X052412Y037333
X052620Y038377
X052620Y037542
X052620Y038794
X052620Y037959
X052620Y037124
X052829Y038168
X052829Y039003
X052829Y038586
X052829Y037750
X052829Y037333
X053038Y037124
X053038Y039212
X053038Y037542
X053038Y038794
X053038Y037959
X053038Y038377
X053038Y041717
X053038Y041300
X053038Y040882
X053038Y040465
X053038Y040047
X053038Y039630
X052829Y041926
X052829Y041509
X052829Y041091
X052829Y040674
X052829Y040256
X052620Y041717
X052620Y041300
X052620Y040882
X052620Y040465
X052412Y041926
X052412Y041509
X052412Y041091
X052412Y040674
X052203Y041717
X052203Y041300
X052203Y040882
X051994Y041926
X051994Y041509
X051994Y041091
X051994Y040674
X051785Y041717
X051785Y041300
X051785Y040882
X051576Y041926
X051576Y041509
X051576Y041091
X051576Y040674
X051368Y041717
X051368Y041300
X051368Y040882
X051368Y040465
X051159Y041926
X051159Y041509
X051159Y041091
X051159Y040674
X051159Y040256
X050950Y041717
X050950Y041300
X050950Y040882
X050950Y040465
X050950Y040047
X050741Y041926
X050741Y041509
X050741Y041091
X050741Y040674
X050741Y040256
X050741Y039838
X012527Y040087
X012527Y039670
X012527Y041757
X012527Y041340
X012527Y040922
X012527Y040505
X012318Y041966
X012318Y041549
X012318Y041131
X012318Y040714
X012318Y040296
X012109Y041757
X012109Y041340
X012109Y040922
X012109Y040505
X011900Y041549
X011900Y041131
X011900Y040714
X011900Y041966
X011692Y040922
X011692Y041757
X011692Y041340
X011483Y041966
X011483Y041549
X011483Y041131
X011483Y040714
X011274Y041757
X011274Y041340
X011274Y040922
X011065Y041549
X011065Y041131
X011065Y040714
X011065Y041966
X010856Y041757
X010856Y041340
X010856Y040922
X010856Y040505
X010648Y040714
X010648Y040296
X010648Y041549
X010648Y041131
X010648Y041966
X010439Y040922
X010439Y040505
X010439Y041757
X010439Y040087
X010439Y041340
X010230Y040714
X010230Y039878
X010230Y041966
X010230Y041549
X010230Y040296
X010230Y041131
X010230Y044054
X010230Y043637
X010230Y043219
X010230Y042801
X010230Y042384
X010439Y044263
X010439Y043845
X010439Y043428
X010439Y043010
X010439Y042593
X010439Y042175
X010648Y044054
X010648Y043637
X010648Y043219
X010648Y042801
X010648Y042384
X010856Y043010
X010856Y042593
X010856Y042175
X010856Y044263
X010856Y043845
X010856Y043428
X011065Y044054
X011065Y043637
X011065Y043219
X011065Y042801
X011065Y042384
X011274Y044263
X011274Y043845
X011274Y043428
X011274Y043010
X011274Y042593
X011274Y042175
X011483Y044054
X011483Y043637
X011483Y043219
X011483Y042801
X011483Y042384
X011692Y044263
X011692Y043010
X011692Y042175
X011692Y043845
X011692Y043428
X011692Y042593
X011900Y044054
X011900Y043637
X011900Y043219
X011900Y042801
X011900Y042384
X012109Y042175
X012109Y043845
X012109Y044263
X012109Y043428
X012109Y043010
X012109Y042593
X012318Y044054
X012318Y043219
X012318Y042801
X012318Y043637
X012318Y042384
X012527Y044263
X012527Y042593
X012527Y042175
X012527Y043010
X012527Y043428
X012527Y043845
X050741Y044432
X050741Y044014
X050741Y043597
X050741Y043179
X050741Y042761
X050741Y042344
X050950Y044223
X050950Y043805
X050950Y043388
X050950Y042970
X050950Y042553
X050950Y042135
X051159Y044432
X051159Y044014
X051159Y043597
X051159Y043179
X051159Y042761
X051159Y042344
X051368Y044223
X051368Y043805
X051368Y043388
X051368Y042970
X051368Y042553
X051368Y042135
X051576Y042761
X051576Y042344
X051576Y044432
X051576Y044014
X051576Y043597
X051576Y043179
X051785Y044223
X051785Y043388
X051785Y042970
X051785Y042553
X051785Y042135
X051785Y043805
X051994Y044432
X051994Y044014
X051994Y043597
X051994Y042344
X051994Y043179
X051994Y042761
X052203Y044223
X052203Y043805
X052203Y043388
X052203Y042970
X052203Y042553
X052203Y042135
X052412Y042344
X052412Y043597
X052412Y043179
X052412Y042761
X052412Y044014
X052412Y044432
X052620Y042553
X052620Y042970
X052620Y044223
X052620Y043805
X052620Y042135
X052620Y043388
X052829Y042344
X052829Y044432
X052829Y043179
X052829Y043597
X052829Y044014
X052829Y042761
X053038Y042970
X053038Y042553
X053038Y042135
X053038Y043388
X053038Y043805
X053038Y044223
T2C.01969F095S300
X038248Y032736
X038248Y033327
X039232Y033031
X039232Y032441
X039232Y033622
T3C.025F197S550
X013150Y006220
X013150Y008189
X014067Y004547
X015957Y004547
X017846Y004547
X018858Y006220
X018858Y008189
X044449Y006220
X044449Y008189
X045366Y004547
X047256Y004547
X049146Y004547
X050157Y006220
X050157Y008189
X050157Y010039
X044449Y010039
X018858Y010039
X013150Y010039
T4C.02756F197S550
X026969Y013858
X049803Y013858
X030945Y043504
T5C.035F197S550
X014512Y009295
X014512Y011295
X015512Y010295
X016512Y009295
X016512Y011295
X045220Y009295
X045220Y011295
X046220Y010295
X047220Y009295
X047220Y011295
T6C.03543F197S550
X028051Y031122
X035413Y031122
X035413Y033012
X028051Y033012
T7C.037F197S550
X040906Y029488
X040906Y028701
X040906Y027913
X041693Y029488
X041693Y027913
X041693Y028701
X041693Y030276
X041693Y031850
X041693Y031063
X041693Y032638
X040906Y030276
X040906Y031063
X040906Y031850
X040906Y032638
T8C.04F139S550
X019843Y036953
X019843Y035953
X019843Y034953
X020843Y036953
X020843Y035953
X020843Y034953
X021843Y035953
X021843Y036953
X021843Y034953
X022843Y036953
X022843Y035953
X022843Y034953
X023843Y035953
X023843Y036953
X023843Y034953
X024843Y035953
X024843Y036953
X024843Y034953
X025843Y035953
X025843Y036953
X025843Y034953
X026843Y035953
X026843Y036953
X026843Y034953
X027843Y035953
X027843Y036953
X027843Y034953
X028843Y036953
X028843Y035953
X028843Y034953
X028843Y037953
X027843Y037953
X026843Y037953
X025843Y037953
X024843Y037953
X023843Y037953
X022843Y037953
X021843Y037953
X020843Y037953
X019843Y037953
T9C.04331F139S550
X013504Y013858
X036339Y013858
X030945Y030039
T10C.05F107S550
X021150Y041890
X042550Y043090
T11C.055F107S550
X013150Y007205
X013150Y011142
X015386Y011142
X017512Y011142
X018858Y005236
X018858Y009173
X044449Y007205
X044449Y011142
X046685Y011142
X048811Y011142
X050157Y005236
X050157Y009173
X050157Y013110
X050157Y017047
X047827Y019016
X044449Y015079
X044449Y019016
X018858Y017047
X018858Y013110
X016528Y019016
X013150Y019016
X013150Y015079
T12C.05512F107S550
X022402Y026535
X024567Y026535
T13C.06F089S550
X014067Y006850
X017846Y006850
X045366Y006850
X049146Y006850
T14C.063F089S550
X020246Y010767
X022116Y010767
X028416Y011850
X034813Y011850
X038356Y010767
X041408Y010767
X034813Y013326
X028416Y013326
X024951Y024449
X022785Y022480
X020325Y024350
T15C.06693F089S550
X038740Y031654
X038740Y034409
T16C.15F035S900
X011378Y015906
X051929Y015906
X051929Y027717
X051929Y039528
X011378Y039528
X011378Y027717
M30
