*
*
G04 PADS 9.5 Build Number: 522968 generated Gerber (RS-274-X) file*
G04 PC Version=2.1*
*
%IN "fakeSCROD.pcb"*%
*
%MOIN*%
*
%FSLAX35Y35*%
*
*
*
*
G04 PC Standard Apertures*
*
*
G04 Thermal Relief Aperture macro.*
%AMTER*
1,1,$1,0,0*
1,0,$1-$2,0,0*
21,0,$3,$4,0,0,45*
21,0,$3,$4,0,0,135*
%
*
*
G04 Annular Aperture macro.*
%AMANN*
1,1,$1,0,0*
1,0,$2,0,0*
%
*
*
G04 Odd Aperture macro.*
%AMODD*
1,1,$1,0,0*
1,0,$1-0.005,0,0*
%
*
*
G04 PC Custom Aperture Macros*
*
*
*
*
*
*
G04 PC Aperture Table*
*
%ADD010C,0.001*%
%ADD012C,0.005*%
%ADD013C,0.01*%
*
*
*
*
G04 PC Circuitry*
G04 Layer Name fakeSCROD.pcb - circuitry*
%LPD*%
*
*
G04 PC Custom Flashes*
G04 Layer Name fakeSCROD.pcb - flashes*
%LPD*%
*
*
G04 PC Circuitry*
G04 Layer Name fakeSCROD.pcb - circuitry*
%LPD*%
*
G54D10*
G01X100000Y40945D02*
X100003D01*
X100000Y454331D02*
X100003D01*
X533071D02*
X533073D01*
X100000D02*
X100003D01*
X533071Y100000D02*
X533073D01*
X533071Y454331D02*
X533073D01*
X442520Y40945D02*
X442522D01*
X430709Y100000D02*
X430711D01*
G54D12*
X282876Y131985D02*
X285435Y134544D01*
Y131985*
X282876Y134544*
Y131985*
X391043Y324409D02*
X393602D01*
X392323Y323130D02*
Y325689D01*
X393602Y330283D02*
Y325689D01*
X395830Y330283D02*
Y325689D01*
X393602Y328095D02*
X395830D01*
X381201Y327362D02*
X383760D01*
X382480Y326083D02*
Y328642D01*
X383760Y333235D02*
Y328642D01*
X385987Y333235D02*
Y328642D01*
X383760Y331048D02*
X385987D01*
X391043Y330315D02*
X393602D01*
X392323Y329035D02*
Y331594D01*
X393602Y336188D02*
Y331594D01*
X395830Y336188D02*
Y331594D01*
X393602Y334001D02*
X395830D01*
X381201Y333268D02*
X383760D01*
X382480Y331988D02*
Y334547D01*
X383760Y339141D02*
Y334547D01*
X385987Y339141D02*
Y334547D01*
X383760Y336953D02*
X385987D01*
X391043Y336220D02*
X393602D01*
X392323Y334941D02*
Y337500D01*
X393602Y342094D02*
Y337500D01*
X395830Y342094D02*
Y337500D01*
X393602Y339906D02*
X395830D01*
X386122Y316535D02*
X388681D01*
X387402Y315256D02*
Y317815D01*
X391067Y321315D02*
X390908Y321752D01*
X390590Y322190*
X390272Y322409*
X389636*
X389317Y322190*
X388999Y321752*
X388840Y321315*
X388681Y320659*
Y319565*
X388840Y318909*
X388999Y318471*
X389317Y318034*
X389636Y317815*
X390272*
X390590Y318034*
X390908Y318471*
X391067Y318909*
Y319565*
X390272D02*
X391067D01*
X386122Y344094D02*
X388681D01*
X387402Y342815D02*
Y345374D01*
X391067Y348874D02*
X390908Y349312D01*
X390590Y349749*
X390272Y349968*
X389636*
X389317Y349749*
X388999Y349312*
X388840Y348874*
X388681Y348218*
Y347124*
X388840Y346468*
X388999Y346030*
X389317Y345593*
X389636Y345374*
X390272*
X390590Y345593*
X390908Y346030*
X391067Y346468*
Y347124*
X390272D02*
X391067D01*
X346852Y117221D02*
X349411Y119780D01*
Y117221*
X346852Y119780*
Y117221*
X282876D02*
X285435Y119780D01*
Y117221*
X282876Y119780*
Y117221*
X222736Y265354D02*
X225295D01*
X224016Y264075D02*
Y266634D01*
X225295Y271228D02*
Y266634D01*
Y271228D02*
X226409D01*
X226886Y271009*
X227204Y270571*
X227363Y270134*
X227523Y269478*
Y268384*
X227363Y267728*
X227204Y267290*
X226886Y266853*
X226409Y266634*
X225295*
X244390Y265354D02*
X246949D01*
X245669Y264075D02*
Y266634D01*
X246949Y271228D02*
Y266634D01*
Y271228D02*
X248062D01*
X248540Y271009*
X248858Y270571*
X249017Y270134*
X249176Y269478*
Y268384*
X249017Y267728*
X248858Y267290*
X248540Y266853*
X248062Y266634*
X246949*
X201967Y242221D02*
X204526Y244780D01*
Y242221*
X201967Y244780*
Y242221*
X462205Y101673D02*
X463484Y102953D01*
X462205Y104232*
X460925Y102953*
X462205Y101673*
Y102953D02*
Y104232D01*
X452205Y111673D02*
X453484Y112953D01*
X452205Y114232*
X450925Y112953*
X452205Y111673*
Y112953D02*
Y114232D01*
Y91673D02*
X453484Y92953D01*
X452205Y94232*
X450925Y92953*
X452205Y91673*
Y92953D02*
Y94232D01*
X472205Y91673D02*
X473484Y92953D01*
X472205Y94232*
X470925Y92953*
X472205Y91673*
Y92953D02*
Y94232D01*
Y111673D02*
X473484Y112953D01*
X472205Y114232*
X470925Y112953*
X472205Y111673*
Y112953D02*
Y114232D01*
X158287Y45472D02*
X160846D01*
X159567Y44193D02*
Y46752D01*
X177185Y45472D02*
X179744D01*
X178465Y44193D02*
Y46752D01*
X139389Y45472D02*
X141948D01*
X140669Y44193D02*
Y46752D01*
X130217Y70768D02*
X132776Y73327D01*
X130217D02*
X132776Y70768D01*
X130217Y62205D02*
X132776D01*
X131496Y60925D02*
Y63484D01*
X130217Y81890D02*
X132776D01*
X131496Y80610D02*
Y83169D01*
X130216Y100394D02*
X132775D01*
X131496Y99114D02*
Y101673D01*
X130217Y110138D02*
X132776Y112697D01*
X130217D02*
X132776Y110138D01*
X152579D02*
X155138Y112697D01*
X152579D02*
X155138Y110138D01*
X173838D02*
X176397Y112697D01*
X173838D02*
X176397Y110138D01*
X177185Y67224D02*
X179744D01*
Y69783*
X177185*
Y67224*
X178465Y68504D02*
Y69783D01*
X139390Y67224D02*
X141949D01*
Y69783*
X139390*
Y67224*
X140669Y68504D02*
Y69783D01*
X187303Y51083D02*
X189862Y53642D01*
X187303D02*
X189862Y51083D01*
X187303Y62205D02*
X189862D01*
X188583Y60925D02*
Y63484D01*
X187303Y81890D02*
X189862D01*
X188583Y80610D02*
Y83169D01*
X187303Y90453D02*
X189862Y93012D01*
X187303D02*
X189862Y90453D01*
X187303Y100394D02*
X189862D01*
X188583Y99114D02*
Y101673D01*
X130217Y149508D02*
X132776Y152067D01*
X130217D02*
X132776Y149508D01*
X130217Y188878D02*
X132776Y191437D01*
X130217D02*
X132776Y188878D01*
X187303Y129823D02*
X189862Y132382D01*
X187303D02*
X189862Y129823D01*
X187303Y169193D02*
X189862Y171752D01*
X187303D02*
X189862Y169193D01*
X163996Y188878D02*
X166555Y191437D01*
X163996D02*
X166555Y188878D01*
X471280Y45472D02*
X473839D01*
X472559Y44193D02*
Y46752D01*
X490177Y45472D02*
X492736D01*
X491457Y44193D02*
Y46752D01*
X452382Y45472D02*
X454941D01*
X453661Y44193D02*
Y46752D01*
X443209Y70768D02*
X445768Y73327D01*
X443209D02*
X445768Y70768D01*
X443209Y62205D02*
X445768D01*
X444488Y60925D02*
Y63484D01*
X443209Y81890D02*
X445768D01*
X444488Y80610D02*
Y83169D01*
X443209Y100394D02*
X445768D01*
X444488Y99114D02*
Y101673D01*
X443209Y110138D02*
X445768Y112697D01*
X443209D02*
X445768Y110138D01*
X465571D02*
X468130Y112697D01*
X465571D02*
X468130Y110138D01*
X486831D02*
X489390Y112697D01*
X486831D02*
X489390Y110138D01*
X490177Y67224D02*
X492736D01*
Y69783*
X490177*
Y67224*
X491457Y68504D02*
Y69783D01*
X452382Y67224D02*
X454941D01*
Y69783*
X452382*
Y67224*
X453661Y68504D02*
Y69783D01*
X500295Y51083D02*
X502854Y53642D01*
X500295D02*
X502854Y51083D01*
X500295Y62205D02*
X502854D01*
X501575Y60925D02*
Y63484D01*
X500295Y81890D02*
X502854D01*
X501575Y80610D02*
Y83169D01*
X500295Y90453D02*
X502854Y93012D01*
X500295D02*
X502854Y90453D01*
X500295Y100394D02*
X502854D01*
X501575Y99114D02*
Y101673D01*
X443209Y149508D02*
X445768Y152067D01*
X443209D02*
X445768Y149508D01*
X443209Y188878D02*
X445768Y191437D01*
X443209D02*
X445768Y188878D01*
X500295Y129823D02*
X502854Y132382D01*
X500295D02*
X502854Y129823D01*
X500295Y169193D02*
X502854Y171752D01*
X500295D02*
X502854Y169193D01*
X476988Y188878D02*
X479547Y191437D01*
X476988D02*
X479547Y188878D01*
X415650Y326378D02*
X418209D01*
X416929Y325098D02*
Y327657D01*
X418209Y332251D02*
Y327657D01*
Y332251D02*
X420277D01*
X418209Y330064D02*
X419481D01*
X418209Y327657D02*
X420277D01*
X407776Y326378D02*
X410335D01*
X409055Y325098D02*
Y327657D01*
X410335Y332251D02*
Y327657D01*
Y332251D02*
X412403D01*
X410335Y330064D02*
X411607D01*
X410335Y327657D02*
X412403D01*
X415650Y318504D02*
X418209D01*
X416929Y317224D02*
Y319783D01*
X418209Y324377D02*
Y319783D01*
Y324377D02*
X420277D01*
X418209Y322190D02*
X419481D01*
X418209Y319783D02*
X420277D01*
X407776Y318504D02*
X410335D01*
X409055Y317224D02*
Y319783D01*
X410335Y324377D02*
Y319783D01*
Y324377D02*
X412403D01*
X410335Y322190D02*
X411607D01*
X410335Y319783D02*
X412403D01*
X415650Y310630D02*
X418209D01*
X416929Y309350D02*
Y311909D01*
X418209Y316503D02*
Y311909D01*
Y316503D02*
X420277D01*
X418209Y314316D02*
X419481D01*
X418209Y311909D02*
X420277D01*
X407776Y310630D02*
X410335D01*
X409055Y309350D02*
Y311909D01*
X410335Y316503D02*
Y311909D01*
Y316503D02*
X412403D01*
X410335Y314316D02*
X411607D01*
X410335Y311909D02*
X412403D01*
X415650Y302756D02*
X418209D01*
X416929Y301476D02*
Y304035D01*
X418209Y308629D02*
Y304035D01*
Y308629D02*
X420277D01*
X418209Y306442D02*
X419481D01*
X418209Y304035D02*
X420277D01*
X407776Y302756D02*
X410335D01*
X409055Y301476D02*
Y304035D01*
X410335Y308629D02*
Y304035D01*
Y308629D02*
X412403D01*
X410335Y306442D02*
X411607D01*
X410335Y304035D02*
X412403D01*
X415650Y294882D02*
X418209D01*
X416929Y293602D02*
Y296161D01*
X418209Y300755D02*
Y296161D01*
Y300755D02*
X420277D01*
X418209Y298568D02*
X419481D01*
X418209Y296161D02*
X420277D01*
X407776Y294882D02*
X410335D01*
X409055Y293602D02*
Y296161D01*
X410335Y300755D02*
Y296161D01*
Y300755D02*
X412403D01*
X410335Y298568D02*
X411607D01*
X410335Y296161D02*
X412403D01*
X415650Y287008D02*
X418209D01*
X416929Y285728D02*
Y288287D01*
X418209Y292881D02*
Y288287D01*
Y292881D02*
X420277D01*
X418209Y290694D02*
X419481D01*
X418209Y288287D02*
X420277D01*
X407776Y287008D02*
X410335D01*
X409055Y285728D02*
Y288287D01*
X410335Y292881D02*
Y288287D01*
Y292881D02*
X412403D01*
X410335Y290694D02*
X411607D01*
X410335Y288287D02*
X412403D01*
X415650Y279134D02*
X418209D01*
X416929Y277854D02*
Y280413D01*
X418209Y285007D02*
Y280413D01*
Y285007D02*
X420277D01*
X418209Y282820D02*
X419481D01*
X418209Y280413D02*
X420277D01*
X407776Y279134D02*
X410335D01*
X409055Y277854D02*
Y280413D01*
X410335Y285007D02*
Y280413D01*
Y285007D02*
X412403D01*
X410335Y282820D02*
X411607D01*
X410335Y280413D02*
X412403D01*
X133760Y138583D02*
X136319D01*
X135039Y137303D02*
Y139862D01*
X137592Y144456D02*
X136319Y139862D01*
X137592Y144456D02*
X138864Y139862D01*
X136796Y141393D02*
X138387D01*
X268406Y138583D02*
X270965D01*
X269685Y137303D02*
Y139862D01*
X270965Y144456D02*
Y139862D01*
Y144456D02*
X272396D01*
X272874Y144237*
X273033Y144018*
X273192Y143581*
Y143143*
X273033Y142706*
X272874Y142487*
X272396Y142268*
X270965D02*
X272396D01*
X272874Y142050*
X273033Y141831*
X273192Y141393*
Y140737*
X273033Y140300*
X272874Y140081*
X272396Y139862*
X270965*
X362106Y138583D02*
X364665D01*
X363386Y137303D02*
Y139862D01*
X365938Y144456D02*
X364665Y139862D01*
X365938Y144456D02*
X367211Y139862D01*
X365143Y141393D02*
X366734D01*
X496752Y138583D02*
X499311D01*
X498031Y137303D02*
Y139862D01*
X499311Y144456D02*
Y139862D01*
Y144456D02*
X500743D01*
X501220Y144237*
X501379Y144018*
X501538Y143581*
Y143143*
X501379Y142706*
X501220Y142487*
X500743Y142268*
X499311D02*
X500743D01*
X501220Y142050*
X501379Y141831*
X501538Y141393*
Y140737*
X501379Y140300*
X501220Y140081*
X500743Y139862*
X499311*
X308169Y300394D02*
X310728D01*
X309449Y299114D02*
Y301673D01*
X312001Y306267D02*
X310728Y301673D01*
X312001Y306267D02*
X313274Y301673D01*
X311206Y303204D02*
X312797D01*
X308169Y435039D02*
X310728D01*
X309449Y433760D02*
Y436319D01*
X310728Y440913D02*
Y436319D01*
Y440913D02*
X312160D01*
X312637Y440694*
X312797Y440475*
X312956Y440038*
Y439600*
X312797Y439163*
X312637Y438944*
X312160Y438725*
X310728D02*
X312160D01*
X312637Y438506*
X312797Y438288*
X312956Y437850*
Y437194*
X312797Y436756*
X312637Y436538*
X312160Y436319*
X310728*
X210224Y418898D02*
X212783D01*
X211504Y417618D02*
Y420177D01*
X214374Y424771D02*
Y421271D01*
X214215Y420615*
X214056Y420396*
X213738Y420177*
X213420*
X213102Y420396*
X212943Y420615*
X212783Y421271*
Y421708*
X424224Y430898D02*
X426783D01*
X425504Y429618D02*
Y432177D01*
X428374Y436771D02*
Y433271D01*
X428215Y432615*
X428056Y432396*
X427738Y432177*
X427420*
X427102Y432396*
X426943Y432615*
X426783Y433271*
Y433708*
X155118Y101673D02*
X156398Y102953D01*
X155118Y104232*
X153839Y102953*
X155118Y101673*
Y102953D02*
Y104232D01*
X145118Y111673D02*
X146398Y112953D01*
X145118Y114232*
X143839Y112953*
X145118Y111673*
Y112953D02*
Y114232D01*
Y91673D02*
X146398Y92953D01*
X145118Y94232*
X143839Y92953*
X145118Y91673*
Y92953D02*
Y94232D01*
X165118Y91673D02*
X166398Y92953D01*
X165118Y94232*
X163839Y92953*
X165118Y91673*
Y92953D02*
Y94232D01*
Y111673D02*
X166398Y112953D01*
X165118Y114232*
X163839Y112953*
X165118Y111673*
Y112953D02*
Y114232D01*
X112500Y159055D02*
X115059D01*
X113780Y157776D02*
Y160335D01*
X117445Y163835D02*
X117286Y164272D01*
X116968Y164710*
X116650Y164928*
X116014*
X115695Y164710*
X115377Y164272*
X115218Y163835*
X115059Y163178*
Y162085*
X115218Y161428*
X115377Y160991*
X115695Y160553*
X116014Y160335*
X116650*
X116968Y160553*
X117286Y160991*
X117445Y161428*
X518012Y277165D02*
X520571D01*
X519291Y275886D02*
Y278445D01*
X522957Y281945D02*
X522798Y282382D01*
X522480Y282820*
X522162Y283039*
X521525*
X521207Y282820*
X520889Y282382*
X520730Y281945*
X520571Y281289*
Y280195*
X520730Y279539*
X520889Y279101*
X521207Y278664*
X521525Y278445*
X522162*
X522480Y278664*
X522798Y279101*
X522957Y279539*
X518012Y159055D02*
X520571D01*
X519291Y157776D02*
Y160335D01*
X522957Y163835D02*
X522798Y164272D01*
X522480Y164710*
X522162Y164928*
X521525*
X521207Y164710*
X520889Y164272*
X520730Y163835*
X520571Y163178*
Y162085*
X520730Y161428*
X520889Y160991*
X521207Y160553*
X521525Y160335*
X522162*
X522480Y160553*
X522798Y160991*
X522957Y161428*
X518012Y395276D02*
X520571D01*
X519291Y393996D02*
Y396555D01*
X522957Y400055D02*
X522798Y400493D01*
X522480Y400930*
X522162Y401149*
X521525*
X521207Y400930*
X520889Y400493*
X520730Y400055*
X520571Y399399*
Y398305*
X520730Y397649*
X520889Y397211*
X521207Y396774*
X521525Y396555*
X522162*
X522480Y396774*
X522798Y397211*
X522957Y397649*
X112500Y395276D02*
X115059D01*
X113780Y393996D02*
Y396555D01*
X117445Y400055D02*
X117286Y400493D01*
X116968Y400930*
X116650Y401149*
X116014*
X115695Y400930*
X115377Y400493*
X115218Y400055*
X115059Y399399*
Y398305*
X115218Y397649*
X115377Y397211*
X115695Y396774*
X116014Y396555*
X116650*
X116968Y396774*
X117286Y397211*
X117445Y397649*
X112500Y277165D02*
X115059D01*
X113780Y275886D02*
Y278445D01*
X117445Y281945D02*
X117286Y282382D01*
X116968Y282820*
X116650Y283039*
X116014*
X115695Y282820*
X115377Y282382*
X115218Y281945*
X115059Y281289*
Y280195*
X115218Y279539*
X115377Y279101*
X115695Y278664*
X116014Y278445*
X116650*
X116968Y278664*
X117286Y279101*
X117445Y279539*
X226573Y223520D02*
X229132Y226080D01*
Y223520*
X226573Y226080*
Y223520*
X201183Y106394D02*
X203742Y108954D01*
Y106394*
X201183Y108954*
Y106394*
X219883D02*
X222443Y108954D01*
Y106394*
X219883Y108954*
Y106394*
X352854Y311220D02*
X355413D01*
X354134Y309941D02*
Y312500D01*
X355413Y317094D02*
Y312500D01*
Y317094D02*
X357482D01*
X355413Y314906D02*
X356686D01*
X352854Y330118D02*
X355413D01*
X354134Y328839D02*
Y331398D01*
X355413Y335991D02*
Y331398D01*
Y335991D02*
X357482D01*
X355413Y333804D02*
X356686D01*
X279232Y311220D02*
X281791D01*
X280512Y309941D02*
Y312500D01*
X281791Y317094D02*
Y312500D01*
Y317094D02*
X283860D01*
X281791Y314906D02*
X283064D01*
X279232Y330118D02*
X281791D01*
X280512Y328839D02*
Y331398D01*
X281791Y335991D02*
Y331398D01*
Y335991D02*
X283860D01*
X281791Y333804D02*
X283064D01*
X346852Y131985D02*
X349411Y134544D01*
Y131985*
X346852Y134544*
Y131985*
X412797Y106394D02*
X415356Y108954D01*
Y106394*
X412797Y108954*
Y106394*
X382285D02*
X384844Y108954D01*
Y106394*
X382285Y108954*
Y106394*
X248227Y243206D02*
X250786Y245765D01*
Y243206*
X248227Y245765*
Y243206*
X197146Y379528D02*
X199705D01*
X198425Y378248D02*
Y380807D01*
X199705Y385401D02*
Y380807D01*
X207146Y379528D02*
X209705D01*
X208425Y378248D02*
Y380807D01*
X209705Y385401D02*
Y380807D01*
X217146Y379528D02*
X219705D01*
X218425Y378248D02*
Y380807D01*
X219705Y385401D02*
Y380807D01*
X227146Y379528D02*
X229705D01*
X228425Y378248D02*
Y380807D01*
X229705Y385401D02*
Y380807D01*
X237146Y379528D02*
X239705D01*
X238425Y378248D02*
Y380807D01*
X239705Y385401D02*
Y380807D01*
X247146Y379528D02*
X249705D01*
X248425Y378248D02*
Y380807D01*
X249705Y385401D02*
Y380807D01*
X257146Y379528D02*
X259705D01*
X258425Y378248D02*
Y380807D01*
X259705Y385401D02*
Y380807D01*
X267146Y379528D02*
X269705D01*
X268425Y378248D02*
Y380807D01*
X269705Y385401D02*
Y380807D01*
X277146Y379528D02*
X279705D01*
X278425Y378248D02*
Y380807D01*
X279705Y385401D02*
Y380807D01*
X287146Y379528D02*
X289705D01*
X288425Y378248D02*
Y380807D01*
X289705Y385401D02*
Y380807D01*
X197146Y369528D02*
X199705D01*
X198425Y368248D02*
Y370807D01*
X199705Y375401D02*
Y370807D01*
X207146Y369528D02*
X209705D01*
X208425Y368248D02*
Y370807D01*
X209705Y375401D02*
Y370807D01*
X217146Y369528D02*
X219705D01*
X218425Y368248D02*
Y370807D01*
X219705Y375401D02*
Y370807D01*
X227146Y369528D02*
X229705D01*
X228425Y368248D02*
Y370807D01*
X229705Y375401D02*
Y370807D01*
X237146Y369528D02*
X239705D01*
X238425Y368248D02*
Y370807D01*
X239705Y375401D02*
Y370807D01*
X247146Y369528D02*
X249705D01*
X248425Y368248D02*
Y370807D01*
X249705Y375401D02*
Y370807D01*
X257146Y369528D02*
X259705D01*
X258425Y368248D02*
Y370807D01*
X259705Y375401D02*
Y370807D01*
X267146Y369528D02*
X269705D01*
X268425Y368248D02*
Y370807D01*
X269705Y375401D02*
Y370807D01*
X277146Y369528D02*
X279705D01*
X278425Y368248D02*
Y370807D01*
X279705Y375401D02*
Y370807D01*
X287146Y369528D02*
X289705D01*
X288425Y368248D02*
Y370807D01*
X289705Y375401D02*
Y370807D01*
X197146Y359528D02*
X199705D01*
X198425Y358248D02*
Y360807D01*
X199705Y365401D02*
Y360807D01*
X207146Y359528D02*
X209705D01*
X208425Y358248D02*
Y360807D01*
X209705Y365401D02*
Y360807D01*
X217146Y359528D02*
X219705D01*
X218425Y358248D02*
Y360807D01*
X219705Y365401D02*
Y360807D01*
X227146Y359528D02*
X229705D01*
X228425Y358248D02*
Y360807D01*
X229705Y365401D02*
Y360807D01*
X237146Y359528D02*
X239705D01*
X238425Y358248D02*
Y360807D01*
X239705Y365401D02*
Y360807D01*
X247146Y359528D02*
X249705D01*
X248425Y358248D02*
Y360807D01*
X249705Y365401D02*
Y360807D01*
X257146Y359528D02*
X259705D01*
X258425Y358248D02*
Y360807D01*
X259705Y365401D02*
Y360807D01*
X267146Y359528D02*
X269705D01*
X268425Y358248D02*
Y360807D01*
X269705Y365401D02*
Y360807D01*
X277146Y359528D02*
X279705D01*
X278425Y358248D02*
Y360807D01*
X279705Y365401D02*
Y360807D01*
X287146Y359528D02*
X289705D01*
X288425Y358248D02*
Y360807D01*
X289705Y365401D02*
Y360807D01*
X197146Y349528D02*
X199705D01*
X198425Y348248D02*
Y350807D01*
X199705Y355401D02*
Y350807D01*
X207146Y349528D02*
X209705D01*
X208425Y348248D02*
Y350807D01*
X209705Y355401D02*
Y350807D01*
X217146Y349528D02*
X219705D01*
X218425Y348248D02*
Y350807D01*
X219705Y355401D02*
Y350807D01*
X227146Y349528D02*
X229705D01*
X228425Y348248D02*
Y350807D01*
X229705Y355401D02*
Y350807D01*
X237146Y349528D02*
X239705D01*
X238425Y348248D02*
Y350807D01*
X239705Y355401D02*
Y350807D01*
X247146Y349528D02*
X249705D01*
X248425Y348248D02*
Y350807D01*
X249705Y355401D02*
Y350807D01*
X257146Y349528D02*
X259705D01*
X258425Y348248D02*
Y350807D01*
X259705Y355401D02*
Y350807D01*
X267146Y349528D02*
X269705D01*
X268425Y348248D02*
Y350807D01*
X269705Y355401D02*
Y350807D01*
X277146Y349528D02*
X279705D01*
X278425Y348248D02*
Y350807D01*
X279705Y355401D02*
Y350807D01*
X287146Y349528D02*
X289705D01*
X288425Y348248D02*
Y350807D01*
X289705Y355401D02*
Y350807D01*
X107284Y103108D02*
X109843D01*
X107284Y105667*
X109843*
X107284Y103108*
X105196Y105196D02*
X107755D01*
X105196Y107755*
X107755*
X105196Y105196*
Y101020D02*
X107755D01*
X105196Y103580*
X107755*
X105196Y101020*
X103108Y103108D02*
X105667D01*
X103108Y105667*
X105667*
X103108Y103108*
X101020Y105196D02*
X103580D01*
X101020Y107755*
X103580*
X101020Y105196*
Y101020D02*
X103580D01*
X101020Y103580*
X103580*
X101020Y101020*
X117724Y105196D02*
X120283D01*
X117724Y107755*
X120283*
X117724Y105196*
Y101020D02*
X120283D01*
X117724Y103580*
X120283*
X117724Y101020*
X115636Y103108D02*
X118195D01*
X115636Y105667*
X118195*
X115636Y103108*
X113548Y105196D02*
X116107D01*
X113548Y107755*
X116107*
X113548Y105196*
Y101020D02*
X116107D01*
X113548Y103580*
X116107*
X113548Y101020*
X111460Y103108D02*
X114019D01*
X111460Y105667*
X114019*
X111460Y103108*
X109372Y105196D02*
X111931D01*
X109372Y107755*
X111931*
X109372Y105196*
Y101020D02*
X111931D01*
X109372Y103580*
X111931*
X109372Y101020*
X123988Y103108D02*
X126547D01*
X123988Y105667*
X126547*
X123988Y103108*
X121900Y105196D02*
X124459D01*
X121900Y107755*
X124459*
X121900Y105196*
Y101020D02*
X124459D01*
X121900Y103580*
X124459*
X121900Y101020*
X119812Y103108D02*
X122371D01*
X119812Y105667*
X122371*
X119812Y103108*
X508220Y106884D02*
X510779D01*
X508220Y109443*
X510779*
X508220Y106884*
Y102708D02*
X510779D01*
X508220Y105267*
X510779*
X508220Y102708*
X506132Y104796D02*
X508691D01*
X506132Y107355*
X508691*
X506132Y104796*
Y100620D02*
X508691D01*
X506132Y103180*
X508691*
X506132Y100620*
X516572Y106884D02*
X519131D01*
X516572Y109443*
X519131*
X516572Y106884*
Y102708D02*
X519131D01*
X516572Y105267*
X519131*
X516572Y102708*
X514484Y104796D02*
X517043D01*
X514484Y107355*
X517043*
X514484Y104796*
X512396Y106884D02*
X514955D01*
X512396Y109443*
X514955*
X512396Y106884*
Y102708D02*
X514955D01*
X512396Y105267*
X514955*
X512396Y102708*
X510308Y104796D02*
X512867D01*
X510308Y107355*
X512867*
X510308Y104796*
Y100620D02*
X512867D01*
X510308Y103180*
X512867*
X510308Y100620*
X527011Y104796D02*
X529570D01*
X527011Y107355*
X529570*
X527011Y104796*
X524924Y106884D02*
X527483D01*
X524924Y109443*
X527483*
X524924Y106884*
Y102708D02*
X527483D01*
X524924Y105267*
X527483*
X524924Y102708*
X522836Y104796D02*
X525395D01*
X522836Y107355*
X525395*
X522836Y104796*
X520748Y106884D02*
X523307D01*
X520748Y109443*
X523307*
X520748Y106884*
Y102708D02*
X523307D01*
X520748Y105267*
X523307*
X520748Y102708*
X518660Y104796D02*
X521219D01*
X518660Y107355*
X521219*
X518660Y104796*
X529099Y106884D02*
X531658D01*
X529099Y109443*
X531658*
X529099Y106884*
Y102708D02*
X531658D01*
X529099Y105267*
X531658*
X529099Y102708*
X107284Y115636D02*
X109843D01*
X107284Y118195*
X109843*
X107284Y115636*
Y111460D02*
X109843D01*
X107284Y114019*
X109843*
X107284Y111460*
Y107284D02*
X109843D01*
X107284Y109843*
X109843*
X107284Y107284*
X105196Y113548D02*
X107755D01*
X105196Y116107*
X107755*
X105196Y113548*
Y109372D02*
X107755D01*
X105196Y111931*
X107755*
X105196Y109372*
X103108Y115636D02*
X105667D01*
X103108Y118195*
X105667*
X103108Y115636*
Y111460D02*
X105667D01*
X103108Y114019*
X105667*
X103108Y111460*
Y107284D02*
X105667D01*
X103108Y109843*
X105667*
X103108Y107284*
X101020Y113548D02*
X103580D01*
X101020Y116107*
X103580*
X101020Y113548*
Y109372D02*
X103580D01*
X101020Y111931*
X103580*
X101020Y109372*
X117724Y113548D02*
X120283D01*
X117724Y116107*
X120283*
X117724Y113548*
Y109372D02*
X120283D01*
X117724Y111931*
X120283*
X117724Y109372*
X115636Y115636D02*
X118195D01*
X115636Y118195*
X118195*
X115636Y115636*
Y111460D02*
X118195D01*
X115636Y114019*
X118195*
X115636Y111460*
Y107284D02*
X118195D01*
X115636Y109843*
X118195*
X115636Y107284*
X113548Y113548D02*
X116107D01*
X113548Y116107*
X116107*
X113548Y113548*
Y109372D02*
X116107D01*
X113548Y111931*
X116107*
X113548Y109372*
X111460Y115636D02*
X114019D01*
X111460Y118195*
X114019*
X111460Y115636*
Y111460D02*
X114019D01*
X111460Y114019*
X114019*
X111460Y111460*
Y107284D02*
X114019D01*
X111460Y109843*
X114019*
X111460Y107284*
X109372Y113548D02*
X111931D01*
X109372Y116107*
X111931*
X109372Y113548*
Y109372D02*
X111931D01*
X109372Y111931*
X111931*
X109372Y109372*
X123988Y115636D02*
X126547D01*
X123988Y118195*
X126547*
X123988Y115636*
Y111460D02*
X126547D01*
X123988Y114019*
X126547*
X123988Y111460*
Y107284D02*
X126547D01*
X123988Y109843*
X126547*
X123988Y107284*
X121900Y113548D02*
X124459D01*
X121900Y116107*
X124459*
X121900Y113548*
Y109372D02*
X124459D01*
X121900Y111931*
X124459*
X121900Y109372*
X119812Y115636D02*
X122371D01*
X119812Y118195*
X122371*
X119812Y115636*
Y111460D02*
X122371D01*
X119812Y114019*
X122371*
X119812Y111460*
Y107284D02*
X122371D01*
X119812Y109843*
X122371*
X119812Y107284*
X508220Y115236D02*
X510779D01*
X508220Y117795*
X510779*
X508220Y115236*
Y111060D02*
X510779D01*
X508220Y113619*
X510779*
X508220Y111060*
X506132Y113148D02*
X508691D01*
X506132Y115707*
X508691*
X506132Y113148*
Y108972D02*
X508691D01*
X506132Y111531*
X508691*
X506132Y108972*
X516572Y115236D02*
X519131D01*
X516572Y117795*
X519131*
X516572Y115236*
Y111060D02*
X519131D01*
X516572Y113619*
X519131*
X516572Y111060*
X514484Y113148D02*
X517043D01*
X514484Y115707*
X517043*
X514484Y113148*
Y108972D02*
X517043D01*
X514484Y111531*
X517043*
X514484Y108972*
X512396Y115236D02*
X514955D01*
X512396Y117795*
X514955*
X512396Y115236*
Y111060D02*
X514955D01*
X512396Y113619*
X514955*
X512396Y111060*
X510308Y113148D02*
X512867D01*
X510308Y115707*
X512867*
X510308Y113148*
Y108972D02*
X512867D01*
X510308Y111531*
X512867*
X510308Y108972*
X527011Y113148D02*
X529570D01*
X527011Y115707*
X529570*
X527011Y113148*
Y108972D02*
X529570D01*
X527011Y111531*
X529570*
X527011Y108972*
X524924Y115236D02*
X527483D01*
X524924Y117795*
X527483*
X524924Y115236*
Y111060D02*
X527483D01*
X524924Y113619*
X527483*
X524924Y111060*
X522836Y113148D02*
X525395D01*
X522836Y115707*
X525395*
X522836Y113148*
Y108972D02*
X525395D01*
X522836Y111531*
X525395*
X522836Y108972*
X520748Y115236D02*
X523307D01*
X520748Y117795*
X523307*
X520748Y115236*
Y111060D02*
X523307D01*
X520748Y113619*
X523307*
X520748Y111060*
X518660Y113148D02*
X521219D01*
X518660Y115707*
X521219*
X518660Y113148*
Y108972D02*
X521219D01*
X518660Y111531*
X521219*
X518660Y108972*
X529099Y115236D02*
X531658D01*
X529099Y117795*
X531658*
X529099Y115236*
Y111060D02*
X531658D01*
X529099Y113619*
X531658*
X529099Y111060*
X107284Y123988D02*
X109843D01*
X107284Y126547*
X109843*
X107284Y123988*
Y119812D02*
X109843D01*
X107284Y122371*
X109843*
X107284Y119812*
X105196Y126075D02*
X107755D01*
X105196Y128634*
X107755*
X105196Y126075*
Y121900D02*
X107755D01*
X105196Y124459*
X107755*
X105196Y121900*
Y117724D02*
X107755D01*
X105196Y120283*
X107755*
X105196Y117724*
X103108Y123988D02*
X105667D01*
X103108Y126547*
X105667*
X103108Y123988*
Y119812D02*
X105667D01*
X103108Y122371*
X105667*
X103108Y119812*
X101020Y126075D02*
X103580D01*
X101020Y128634*
X103580*
X101020Y126075*
Y121900D02*
X103580D01*
X101020Y124459*
X103580*
X101020Y121900*
Y117724D02*
X103580D01*
X101020Y120283*
X103580*
X101020Y117724*
X117724Y126075D02*
X120283D01*
X117724Y128634*
X120283*
X117724Y126075*
Y121900D02*
X120283D01*
X117724Y124459*
X120283*
X117724Y121900*
Y117724D02*
X120283D01*
X117724Y120283*
X120283*
X117724Y117724*
X115636Y123988D02*
X118195D01*
X115636Y126547*
X118195*
X115636Y123988*
Y119812D02*
X118195D01*
X115636Y122371*
X118195*
X115636Y119812*
X113548Y126075D02*
X116107D01*
X113548Y128634*
X116107*
X113548Y126075*
Y121900D02*
X116107D01*
X113548Y124459*
X116107*
X113548Y121900*
Y117724D02*
X116107D01*
X113548Y120283*
X116107*
X113548Y117724*
X111460Y123988D02*
X114019D01*
X111460Y126547*
X114019*
X111460Y123988*
Y119812D02*
X114019D01*
X111460Y122371*
X114019*
X111460Y119812*
X109372Y126075D02*
X111931D01*
X109372Y128634*
X111931*
X109372Y126075*
Y121900D02*
X111931D01*
X109372Y124459*
X111931*
X109372Y121900*
Y117724D02*
X111931D01*
X109372Y120283*
X111931*
X109372Y117724*
X123988Y123988D02*
X126547D01*
X123988Y126547*
X126547*
X123988Y123988*
Y119812D02*
X126547D01*
X123988Y122371*
X126547*
X123988Y119812*
X121900Y126075D02*
X124459D01*
X121900Y128634*
X124459*
X121900Y126075*
Y121900D02*
X124459D01*
X121900Y124459*
X124459*
X121900Y121900*
Y117724D02*
X124459D01*
X121900Y120283*
X124459*
X121900Y117724*
X119812Y123988D02*
X122371D01*
X119812Y126547*
X122371*
X119812Y123988*
Y119812D02*
X122371D01*
X119812Y122371*
X122371*
X119812Y119812*
X508220Y123588D02*
X510779D01*
X508220Y126147*
X510779*
X508220Y123588*
Y119412D02*
X510779D01*
X508220Y121971*
X510779*
X508220Y119412*
X506132Y125675D02*
X508691D01*
X506132Y128234*
X508691*
X506132Y125675*
Y121500D02*
X508691D01*
X506132Y124059*
X508691*
X506132Y121500*
Y117324D02*
X508691D01*
X506132Y119883*
X508691*
X506132Y117324*
X516572Y123588D02*
X519131D01*
X516572Y126147*
X519131*
X516572Y123588*
Y119412D02*
X519131D01*
X516572Y121971*
X519131*
X516572Y119412*
X514484Y125675D02*
X517043D01*
X514484Y128234*
X517043*
X514484Y125675*
Y121500D02*
X517043D01*
X514484Y124059*
X517043*
X514484Y121500*
Y117324D02*
X517043D01*
X514484Y119883*
X517043*
X514484Y117324*
X512396Y123588D02*
X514955D01*
X512396Y126147*
X514955*
X512396Y123588*
Y119412D02*
X514955D01*
X512396Y121971*
X514955*
X512396Y119412*
X510308Y125675D02*
X512867D01*
X510308Y128234*
X512867*
X510308Y125675*
Y121500D02*
X512867D01*
X510308Y124059*
X512867*
X510308Y121500*
Y117324D02*
X512867D01*
X510308Y119883*
X512867*
X510308Y117324*
X527011Y125675D02*
X529570D01*
X527011Y128234*
X529570*
X527011Y125675*
Y121500D02*
X529570D01*
X527011Y124059*
X529570*
X527011Y121500*
Y117324D02*
X529570D01*
X527011Y119883*
X529570*
X527011Y117324*
X524924Y123588D02*
X527483D01*
X524924Y126147*
X527483*
X524924Y123588*
Y119412D02*
X527483D01*
X524924Y121971*
X527483*
X524924Y119412*
X522836Y125675D02*
X525395D01*
X522836Y128234*
X525395*
X522836Y125675*
Y121500D02*
X525395D01*
X522836Y124059*
X525395*
X522836Y121500*
Y117324D02*
X525395D01*
X522836Y119883*
X525395*
X522836Y117324*
X520748Y123588D02*
X523307D01*
X520748Y126147*
X523307*
X520748Y123588*
Y119412D02*
X523307D01*
X520748Y121971*
X523307*
X520748Y119412*
X518660Y125675D02*
X521219D01*
X518660Y128234*
X521219*
X518660Y125675*
Y121500D02*
X521219D01*
X518660Y124059*
X521219*
X518660Y121500*
Y117324D02*
X521219D01*
X518660Y119883*
X521219*
X518660Y117324*
X529099Y123588D02*
X531658D01*
X529099Y126147*
X531658*
X529099Y123588*
Y119412D02*
X531658D01*
X529099Y121971*
X531658*
X529099Y119412*
X107284Y136515D02*
X109843D01*
X107284Y139074*
X109843*
X107284Y136515*
Y132339D02*
X109843D01*
X107284Y134898*
X109843*
X107284Y132339*
Y128163D02*
X109843D01*
X107284Y130722*
X109843*
X107284Y128163*
X105196Y134427D02*
X107755D01*
X105196Y136986*
X107755*
X105196Y134427*
Y130251D02*
X107755D01*
X105196Y132810*
X107755*
X105196Y130251*
X103108Y136515D02*
X105667D01*
X103108Y139074*
X105667*
X103108Y136515*
Y132339D02*
X105667D01*
X103108Y134898*
X105667*
X103108Y132339*
Y128163D02*
X105667D01*
X103108Y130722*
X105667*
X103108Y128163*
X101020Y134427D02*
X103580D01*
X101020Y136986*
X103580*
X101020Y134427*
Y130251D02*
X103580D01*
X101020Y132810*
X103580*
X101020Y130251*
X117724Y134427D02*
X120283D01*
X117724Y136986*
X120283*
X117724Y134427*
Y130251D02*
X120283D01*
X117724Y132810*
X120283*
X117724Y130251*
X115636Y136515D02*
X118195D01*
X115636Y139074*
X118195*
X115636Y136515*
Y132339D02*
X118195D01*
X115636Y134898*
X118195*
X115636Y132339*
Y128163D02*
X118195D01*
X115636Y130722*
X118195*
X115636Y128163*
X113548Y134427D02*
X116107D01*
X113548Y136986*
X116107*
X113548Y134427*
Y130251D02*
X116107D01*
X113548Y132810*
X116107*
X113548Y130251*
X111460Y136515D02*
X114019D01*
X111460Y139074*
X114019*
X111460Y136515*
Y132339D02*
X114019D01*
X111460Y134898*
X114019*
X111460Y132339*
Y128163D02*
X114019D01*
X111460Y130722*
X114019*
X111460Y128163*
X109372Y134427D02*
X111931D01*
X109372Y136986*
X111931*
X109372Y134427*
Y130251D02*
X111931D01*
X109372Y132810*
X111931*
X109372Y130251*
X123988Y136515D02*
X126547D01*
X123988Y139074*
X126547*
X123988Y136515*
Y132339D02*
X126547D01*
X123988Y134898*
X126547*
X123988Y132339*
Y128163D02*
X126547D01*
X123988Y130722*
X126547*
X123988Y128163*
X121900Y134427D02*
X124459D01*
X121900Y136986*
X124459*
X121900Y134427*
Y130251D02*
X124459D01*
X121900Y132810*
X124459*
X121900Y130251*
X119812Y136515D02*
X122371D01*
X119812Y139074*
X122371*
X119812Y136515*
Y132339D02*
X122371D01*
X119812Y134898*
X122371*
X119812Y132339*
Y128163D02*
X122371D01*
X119812Y130722*
X122371*
X119812Y128163*
X508220Y136115D02*
X510779D01*
X508220Y138674*
X510779*
X508220Y136115*
Y131939D02*
X510779D01*
X508220Y134498*
X510779*
X508220Y131939*
Y127763D02*
X510779D01*
X508220Y130322*
X510779*
X508220Y127763*
X506132Y134027D02*
X508691D01*
X506132Y136586*
X508691*
X506132Y134027*
Y129851D02*
X508691D01*
X506132Y132410*
X508691*
X506132Y129851*
X516572Y136115D02*
X519131D01*
X516572Y138674*
X519131*
X516572Y136115*
Y131939D02*
X519131D01*
X516572Y134498*
X519131*
X516572Y131939*
Y127763D02*
X519131D01*
X516572Y130322*
X519131*
X516572Y127763*
X514484Y134027D02*
X517043D01*
X514484Y136586*
X517043*
X514484Y134027*
Y129851D02*
X517043D01*
X514484Y132410*
X517043*
X514484Y129851*
X512396Y136115D02*
X514955D01*
X512396Y138674*
X514955*
X512396Y136115*
Y131939D02*
X514955D01*
X512396Y134498*
X514955*
X512396Y131939*
Y127763D02*
X514955D01*
X512396Y130322*
X514955*
X512396Y127763*
X510308Y134027D02*
X512867D01*
X510308Y136586*
X512867*
X510308Y134027*
Y129851D02*
X512867D01*
X510308Y132410*
X512867*
X510308Y129851*
X527011Y134027D02*
X529570D01*
X527011Y136586*
X529570*
X527011Y134027*
Y129851D02*
X529570D01*
X527011Y132410*
X529570*
X527011Y129851*
X524924Y136115D02*
X527483D01*
X524924Y138674*
X527483*
X524924Y136115*
Y131939D02*
X527483D01*
X524924Y134498*
X527483*
X524924Y131939*
Y127763D02*
X527483D01*
X524924Y130322*
X527483*
X524924Y127763*
X522836Y134027D02*
X525395D01*
X522836Y136586*
X525395*
X522836Y134027*
Y129851D02*
X525395D01*
X522836Y132410*
X525395*
X522836Y129851*
X520748Y136115D02*
X523307D01*
X520748Y138674*
X523307*
X520748Y136115*
Y131939D02*
X523307D01*
X520748Y134498*
X523307*
X520748Y131939*
Y127763D02*
X523307D01*
X520748Y130322*
X523307*
X520748Y127763*
X518660Y134027D02*
X521219D01*
X518660Y136586*
X521219*
X518660Y134027*
Y129851D02*
X521219D01*
X518660Y132410*
X521219*
X518660Y129851*
X529099Y136115D02*
X531658D01*
X529099Y138674*
X531658*
X529099Y136115*
Y131939D02*
X531658D01*
X529099Y134498*
X531658*
X529099Y131939*
Y127763D02*
X531658D01*
X529099Y130322*
X531658*
X529099Y127763*
X107284Y144867D02*
X109843D01*
X107284Y147426*
X109843*
X107284Y144867*
Y140691D02*
X109843D01*
X107284Y143250*
X109843*
X107284Y140691*
X105196Y146955D02*
X107755D01*
X105196Y149514*
X107755*
X105196Y146955*
Y142779D02*
X107755D01*
X105196Y145338*
X107755*
X105196Y142779*
Y138603D02*
X107755D01*
X105196Y141162*
X107755*
X105196Y138603*
X103108Y144867D02*
X105667D01*
X103108Y147426*
X105667*
X103108Y144867*
Y140691D02*
X105667D01*
X103108Y143250*
X105667*
X103108Y140691*
X101020Y146955D02*
X103580D01*
X101020Y149514*
X103580*
X101020Y146955*
Y142779D02*
X103580D01*
X101020Y145338*
X103580*
X101020Y142779*
Y138603D02*
X103580D01*
X101020Y141162*
X103580*
X101020Y138603*
X117724Y146955D02*
X120283D01*
X117724Y149514*
X120283*
X117724Y146955*
Y142779D02*
X120283D01*
X117724Y145338*
X120283*
X117724Y142779*
Y138603D02*
X120283D01*
X117724Y141162*
X120283*
X117724Y138603*
X115636Y144867D02*
X118195D01*
X115636Y147426*
X118195*
X115636Y144867*
Y140691D02*
X118195D01*
X115636Y143250*
X118195*
X115636Y140691*
X113548Y146955D02*
X116107D01*
X113548Y149514*
X116107*
X113548Y146955*
Y142779D02*
X116107D01*
X113548Y145338*
X116107*
X113548Y142779*
Y138603D02*
X116107D01*
X113548Y141162*
X116107*
X113548Y138603*
X111460Y144867D02*
X114019D01*
X111460Y147426*
X114019*
X111460Y144867*
Y140691D02*
X114019D01*
X111460Y143250*
X114019*
X111460Y140691*
X109372Y146955D02*
X111931D01*
X109372Y149514*
X111931*
X109372Y146955*
Y142779D02*
X111931D01*
X109372Y145338*
X111931*
X109372Y142779*
Y138603D02*
X111931D01*
X109372Y141162*
X111931*
X109372Y138603*
X123988Y144867D02*
X126547D01*
X123988Y147426*
X126547*
X123988Y144867*
Y140691D02*
X126547D01*
X123988Y143250*
X126547*
X123988Y140691*
X121900Y146955D02*
X124459D01*
X121900Y149514*
X124459*
X121900Y146955*
Y142779D02*
X124459D01*
X121900Y145338*
X124459*
X121900Y142779*
Y138603D02*
X124459D01*
X121900Y141162*
X124459*
X121900Y138603*
X119812Y144867D02*
X122371D01*
X119812Y147426*
X122371*
X119812Y144867*
Y140691D02*
X122371D01*
X119812Y143250*
X122371*
X119812Y140691*
X508220Y144467D02*
X510779D01*
X508220Y147026*
X510779*
X508220Y144467*
Y140291D02*
X510779D01*
X508220Y142850*
X510779*
X508220Y140291*
X506132Y146555D02*
X508691D01*
X506132Y149114*
X508691*
X506132Y146555*
Y142379D02*
X508691D01*
X506132Y144938*
X508691*
X506132Y142379*
Y138203D02*
X508691D01*
X506132Y140762*
X508691*
X506132Y138203*
X516572Y144467D02*
X519131D01*
X516572Y147026*
X519131*
X516572Y144467*
Y140291D02*
X519131D01*
X516572Y142850*
X519131*
X516572Y140291*
X514484Y146555D02*
X517043D01*
X514484Y149114*
X517043*
X514484Y146555*
Y142379D02*
X517043D01*
X514484Y144938*
X517043*
X514484Y142379*
Y138203D02*
X517043D01*
X514484Y140762*
X517043*
X514484Y138203*
X512396Y144467D02*
X514955D01*
X512396Y147026*
X514955*
X512396Y144467*
Y140291D02*
X514955D01*
X512396Y142850*
X514955*
X512396Y140291*
X510308Y146555D02*
X512867D01*
X510308Y149114*
X512867*
X510308Y146555*
Y142379D02*
X512867D01*
X510308Y144938*
X512867*
X510308Y142379*
Y138203D02*
X512867D01*
X510308Y140762*
X512867*
X510308Y138203*
X527011Y146555D02*
X529570D01*
X527011Y149114*
X529570*
X527011Y146555*
Y142379D02*
X529570D01*
X527011Y144938*
X529570*
X527011Y142379*
Y138203D02*
X529570D01*
X527011Y140762*
X529570*
X527011Y138203*
X524924Y144467D02*
X527483D01*
X524924Y147026*
X527483*
X524924Y144467*
Y140291D02*
X527483D01*
X524924Y142850*
X527483*
X524924Y140291*
X522836Y146555D02*
X525395D01*
X522836Y149114*
X525395*
X522836Y146555*
Y142379D02*
X525395D01*
X522836Y144938*
X525395*
X522836Y142379*
Y138203D02*
X525395D01*
X522836Y140762*
X525395*
X522836Y138203*
X520748Y144467D02*
X523307D01*
X520748Y147026*
X523307*
X520748Y144467*
Y140291D02*
X523307D01*
X520748Y142850*
X523307*
X520748Y140291*
X518660Y146555D02*
X521219D01*
X518660Y149114*
X521219*
X518660Y146555*
Y142379D02*
X521219D01*
X518660Y144938*
X521219*
X518660Y142379*
Y138203D02*
X521219D01*
X518660Y140762*
X521219*
X518660Y138203*
X529099Y144467D02*
X531658D01*
X529099Y147026*
X531658*
X529099Y144467*
Y140291D02*
X531658D01*
X529099Y142850*
X531658*
X529099Y140291*
X107284Y149042D02*
X109843D01*
X107284Y151602*
X109843*
X107284Y149042*
X105196Y151130D02*
X107755D01*
X105196Y153689*
X107755*
X105196Y151130*
X103108Y153218D02*
X105667D01*
X103108Y155777*
X105667*
X103108Y153218*
Y149042D02*
X105667D01*
X103108Y151602*
X105667*
X103108Y149042*
X101020Y155306D02*
X103580D01*
X101020Y157865*
X103580*
X101020Y155306*
Y151130D02*
X103580D01*
X101020Y153689*
X103580*
X101020Y151130*
X123988Y153218D02*
X126547D01*
X123988Y155777*
X126547*
X123988Y153218*
Y149042D02*
X126547D01*
X123988Y151602*
X126547*
X123988Y149042*
X121900Y151130D02*
X124459D01*
X121900Y153689*
X124459*
X121900Y151130*
X119812Y149042D02*
X122371D01*
X119812Y151602*
X122371*
X119812Y149042*
X508220Y152818D02*
X510779D01*
X508220Y155377*
X510779*
X508220Y152818*
Y148642D02*
X510779D01*
X508220Y151202*
X510779*
X508220Y148642*
X506132Y154906D02*
X508691D01*
X506132Y157465*
X508691*
X506132Y154906*
Y150730D02*
X508691D01*
X506132Y153289*
X508691*
X506132Y150730*
X512396Y148642D02*
X514955D01*
X512396Y151202*
X514955*
X512396Y148642*
X510308Y150730D02*
X512867D01*
X510308Y153289*
X512867*
X510308Y150730*
X527011D02*
X529570D01*
X527011Y153289*
X529570*
X527011Y150730*
X524924Y148642D02*
X527483D01*
X524924Y151202*
X527483*
X524924Y148642*
X529099Y156994D02*
X531658D01*
X529099Y159553*
X531658*
X529099Y156994*
Y152818D02*
X531658D01*
X529099Y155377*
X531658*
X529099Y152818*
Y148642D02*
X531658D01*
X529099Y151202*
X531658*
X529099Y148642*
X103108Y165746D02*
X105667D01*
X103108Y168305*
X105667*
X103108Y165746*
X101020Y163658D02*
X103580D01*
X101020Y166217*
X103580*
X101020Y163658*
Y159482D02*
X103580D01*
X101020Y162041*
X103580*
X101020Y159482*
X123988Y165746D02*
X126547D01*
X123988Y168305*
X126547*
X123988Y165746*
Y161570D02*
X126547D01*
X123988Y164129*
X126547*
X123988Y161570*
Y157394D02*
X126547D01*
X123988Y159953*
X126547*
X123988Y157394*
X121900Y163658D02*
X124459D01*
X121900Y166217*
X124459*
X121900Y163658*
X119812Y165746D02*
X122371D01*
X119812Y168305*
X122371*
X119812Y165746*
X508220Y165346D02*
X510779D01*
X508220Y167905*
X510779*
X508220Y165346*
X506132Y163258D02*
X508691D01*
X506132Y165817*
X508691*
X506132Y163258*
Y159082D02*
X508691D01*
X506132Y161641*
X508691*
X506132Y159082*
X527011Y163258D02*
X529570D01*
X527011Y165817*
X529570*
X527011Y163258*
X524924Y165346D02*
X527483D01*
X524924Y167905*
X527483*
X524924Y165346*
X529099D02*
X531658D01*
X529099Y167905*
X531658*
X529099Y165346*
Y161170D02*
X531658D01*
X529099Y163729*
X531658*
X529099Y161170*
X107284Y174097D02*
X109843D01*
X107284Y176656*
X109843*
X107284Y174097*
Y169922D02*
X109843D01*
X107284Y172481*
X109843*
X107284Y169922*
X105196Y176185D02*
X107755D01*
X105196Y178744*
X107755*
X105196Y176185*
Y172010D02*
X107755D01*
X105196Y174569*
X107755*
X105196Y172010*
Y167834D02*
X107755D01*
X105196Y170393*
X107755*
X105196Y167834*
X103108Y174097D02*
X105667D01*
X103108Y176656*
X105667*
X103108Y174097*
Y169922D02*
X105667D01*
X103108Y172481*
X105667*
X103108Y169922*
X101020Y176185D02*
X103580D01*
X101020Y178744*
X103580*
X101020Y176185*
Y172010D02*
X103580D01*
X101020Y174569*
X103580*
X101020Y172010*
Y167834D02*
X103580D01*
X101020Y170393*
X103580*
X101020Y167834*
X117724Y176185D02*
X120283D01*
X117724Y178744*
X120283*
X117724Y176185*
Y172010D02*
X120283D01*
X117724Y174569*
X120283*
X117724Y172010*
Y167834D02*
X120283D01*
X117724Y170393*
X120283*
X117724Y167834*
X115636Y174097D02*
X118195D01*
X115636Y176656*
X118195*
X115636Y174097*
Y169922D02*
X118195D01*
X115636Y172481*
X118195*
X115636Y169922*
X113548Y176185D02*
X116107D01*
X113548Y178744*
X116107*
X113548Y176185*
Y172010D02*
X116107D01*
X113548Y174569*
X116107*
X113548Y172010*
Y167834D02*
X116107D01*
X113548Y170393*
X116107*
X113548Y167834*
X111460Y174097D02*
X114019D01*
X111460Y176656*
X114019*
X111460Y174097*
Y169922D02*
X114019D01*
X111460Y172481*
X114019*
X111460Y169922*
X109372Y176185D02*
X111931D01*
X109372Y178744*
X111931*
X109372Y176185*
Y172010D02*
X111931D01*
X109372Y174569*
X111931*
X109372Y172010*
Y167834D02*
X111931D01*
X109372Y170393*
X111931*
X109372Y167834*
X123988Y174097D02*
X126547D01*
X123988Y176656*
X126547*
X123988Y174097*
Y169922D02*
X126547D01*
X123988Y172481*
X126547*
X123988Y169922*
X121900Y176185D02*
X124459D01*
X121900Y178744*
X124459*
X121900Y176185*
Y172010D02*
X124459D01*
X121900Y174569*
X124459*
X121900Y172010*
Y167834D02*
X124459D01*
X121900Y170393*
X124459*
X121900Y167834*
X119812Y174097D02*
X122371D01*
X119812Y176656*
X122371*
X119812Y174097*
Y169922D02*
X122371D01*
X119812Y172481*
X122371*
X119812Y169922*
X508220Y173697D02*
X510779D01*
X508220Y176256*
X510779*
X508220Y173697*
Y169522D02*
X510779D01*
X508220Y172081*
X510779*
X508220Y169522*
X506132Y175785D02*
X508691D01*
X506132Y178344*
X508691*
X506132Y175785*
Y171610D02*
X508691D01*
X506132Y174169*
X508691*
X506132Y171610*
Y167434D02*
X508691D01*
X506132Y169993*
X508691*
X506132Y167434*
X516572Y173697D02*
X519131D01*
X516572Y176256*
X519131*
X516572Y173697*
Y169522D02*
X519131D01*
X516572Y172081*
X519131*
X516572Y169522*
X514484Y175785D02*
X517043D01*
X514484Y178344*
X517043*
X514484Y175785*
Y171610D02*
X517043D01*
X514484Y174169*
X517043*
X514484Y171610*
X512396Y173697D02*
X514955D01*
X512396Y176256*
X514955*
X512396Y173697*
Y169522D02*
X514955D01*
X512396Y172081*
X514955*
X512396Y169522*
X510308Y175785D02*
X512867D01*
X510308Y178344*
X512867*
X510308Y175785*
Y171610D02*
X512867D01*
X510308Y174169*
X512867*
X510308Y171610*
Y167434D02*
X512867D01*
X510308Y169993*
X512867*
X510308Y167434*
X527011Y175785D02*
X529570D01*
X527011Y178344*
X529570*
X527011Y175785*
Y171610D02*
X529570D01*
X527011Y174169*
X529570*
X527011Y171610*
Y167434D02*
X529570D01*
X527011Y169993*
X529570*
X527011Y167434*
X524924Y173697D02*
X527483D01*
X524924Y176256*
X527483*
X524924Y173697*
Y169522D02*
X527483D01*
X524924Y172081*
X527483*
X524924Y169522*
X522836Y175785D02*
X525395D01*
X522836Y178344*
X525395*
X522836Y175785*
Y171610D02*
X525395D01*
X522836Y174169*
X525395*
X522836Y171610*
Y167434D02*
X525395D01*
X522836Y169993*
X525395*
X522836Y167434*
X520748Y173697D02*
X523307D01*
X520748Y176256*
X523307*
X520748Y173697*
Y169522D02*
X523307D01*
X520748Y172081*
X523307*
X520748Y169522*
X518660Y175785D02*
X521219D01*
X518660Y178344*
X521219*
X518660Y175785*
Y171610D02*
X521219D01*
X518660Y174169*
X521219*
X518660Y171610*
X529099Y173697D02*
X531658D01*
X529099Y176256*
X531658*
X529099Y173697*
Y169522D02*
X531658D01*
X529099Y172081*
X531658*
X529099Y169522*
X107284Y186625D02*
X109843D01*
X107284Y189184*
X109843*
X107284Y186625*
Y182449D02*
X109843D01*
X107284Y185008*
X109843*
X107284Y182449*
Y178273D02*
X109843D01*
X107284Y180832*
X109843*
X107284Y178273*
X105196Y184537D02*
X107755D01*
X105196Y187096*
X107755*
X105196Y184537*
Y180361D02*
X107755D01*
X105196Y182920*
X107755*
X105196Y180361*
X103108Y186625D02*
X105667D01*
X103108Y189184*
X105667*
X103108Y186625*
Y182449D02*
X105667D01*
X103108Y185008*
X105667*
X103108Y182449*
Y178273D02*
X105667D01*
X103108Y180832*
X105667*
X103108Y178273*
X101020Y184537D02*
X103580D01*
X101020Y187096*
X103580*
X101020Y184537*
Y180361D02*
X103580D01*
X101020Y182920*
X103580*
X101020Y180361*
X117724Y184537D02*
X120283D01*
X117724Y187096*
X120283*
X117724Y184537*
Y180361D02*
X120283D01*
X117724Y182920*
X120283*
X117724Y180361*
X115636Y186625D02*
X118195D01*
X115636Y189184*
X118195*
X115636Y186625*
Y182449D02*
X118195D01*
X115636Y185008*
X118195*
X115636Y182449*
Y178273D02*
X118195D01*
X115636Y180832*
X118195*
X115636Y178273*
X113548Y184537D02*
X116107D01*
X113548Y187096*
X116107*
X113548Y184537*
Y180361D02*
X116107D01*
X113548Y182920*
X116107*
X113548Y180361*
X111460Y186625D02*
X114019D01*
X111460Y189184*
X114019*
X111460Y186625*
Y182449D02*
X114019D01*
X111460Y185008*
X114019*
X111460Y182449*
Y178273D02*
X114019D01*
X111460Y180832*
X114019*
X111460Y178273*
X109372Y184537D02*
X111931D01*
X109372Y187096*
X111931*
X109372Y184537*
Y180361D02*
X111931D01*
X109372Y182920*
X111931*
X109372Y180361*
X123988Y186625D02*
X126547D01*
X123988Y189184*
X126547*
X123988Y186625*
Y182449D02*
X126547D01*
X123988Y185008*
X126547*
X123988Y182449*
Y178273D02*
X126547D01*
X123988Y180832*
X126547*
X123988Y178273*
X121900Y184537D02*
X124459D01*
X121900Y187096*
X124459*
X121900Y184537*
Y180361D02*
X124459D01*
X121900Y182920*
X124459*
X121900Y180361*
X119812Y186625D02*
X122371D01*
X119812Y189184*
X122371*
X119812Y186625*
Y182449D02*
X122371D01*
X119812Y185008*
X122371*
X119812Y182449*
Y178273D02*
X122371D01*
X119812Y180832*
X122371*
X119812Y178273*
X508220Y186225D02*
X510779D01*
X508220Y188784*
X510779*
X508220Y186225*
Y182049D02*
X510779D01*
X508220Y184608*
X510779*
X508220Y182049*
Y177873D02*
X510779D01*
X508220Y180432*
X510779*
X508220Y177873*
X506132Y184137D02*
X508691D01*
X506132Y186696*
X508691*
X506132Y184137*
Y179961D02*
X508691D01*
X506132Y182520*
X508691*
X506132Y179961*
X516572Y186225D02*
X519131D01*
X516572Y188784*
X519131*
X516572Y186225*
Y182049D02*
X519131D01*
X516572Y184608*
X519131*
X516572Y182049*
Y177873D02*
X519131D01*
X516572Y180432*
X519131*
X516572Y177873*
X514484Y184137D02*
X517043D01*
X514484Y186696*
X517043*
X514484Y184137*
Y179961D02*
X517043D01*
X514484Y182520*
X517043*
X514484Y179961*
X512396Y186225D02*
X514955D01*
X512396Y188784*
X514955*
X512396Y186225*
Y182049D02*
X514955D01*
X512396Y184608*
X514955*
X512396Y182049*
Y177873D02*
X514955D01*
X512396Y180432*
X514955*
X512396Y177873*
X510308Y184137D02*
X512867D01*
X510308Y186696*
X512867*
X510308Y184137*
Y179961D02*
X512867D01*
X510308Y182520*
X512867*
X510308Y179961*
X527011Y184137D02*
X529570D01*
X527011Y186696*
X529570*
X527011Y184137*
Y179961D02*
X529570D01*
X527011Y182520*
X529570*
X527011Y179961*
X524924Y186225D02*
X527483D01*
X524924Y188784*
X527483*
X524924Y186225*
Y182049D02*
X527483D01*
X524924Y184608*
X527483*
X524924Y182049*
Y177873D02*
X527483D01*
X524924Y180432*
X527483*
X524924Y177873*
X522836Y184137D02*
X525395D01*
X522836Y186696*
X525395*
X522836Y184137*
Y179961D02*
X525395D01*
X522836Y182520*
X525395*
X522836Y179961*
X520748Y186225D02*
X523307D01*
X520748Y188784*
X523307*
X520748Y186225*
Y182049D02*
X523307D01*
X520748Y184608*
X523307*
X520748Y182049*
Y177873D02*
X523307D01*
X520748Y180432*
X523307*
X520748Y177873*
X518660Y184137D02*
X521219D01*
X518660Y186696*
X521219*
X518660Y184137*
Y179961D02*
X521219D01*
X518660Y182520*
X521219*
X518660Y179961*
X529099Y186225D02*
X531658D01*
X529099Y188784*
X531658*
X529099Y186225*
Y182049D02*
X531658D01*
X529099Y184608*
X531658*
X529099Y182049*
Y177873D02*
X531658D01*
X529099Y180432*
X531658*
X529099Y177873*
X107284Y194977D02*
X109843D01*
X107284Y197536*
X109843*
X107284Y194977*
Y190801D02*
X109843D01*
X107284Y193360*
X109843*
X107284Y190801*
X105196Y192889D02*
X107755D01*
X105196Y195448*
X107755*
X105196Y192889*
Y188713D02*
X107755D01*
X105196Y191272*
X107755*
X105196Y188713*
X103108Y194977D02*
X105667D01*
X103108Y197536*
X105667*
X103108Y194977*
Y190801D02*
X105667D01*
X103108Y193360*
X105667*
X103108Y190801*
X101020Y192889D02*
X103580D01*
X101020Y195448*
X103580*
X101020Y192889*
Y188713D02*
X103580D01*
X101020Y191272*
X103580*
X101020Y188713*
X117724Y192889D02*
X120283D01*
X117724Y195448*
X120283*
X117724Y192889*
Y188713D02*
X120283D01*
X117724Y191272*
X120283*
X117724Y188713*
X115636Y194977D02*
X118195D01*
X115636Y197536*
X118195*
X115636Y194977*
Y190801D02*
X118195D01*
X115636Y193360*
X118195*
X115636Y190801*
X113548Y192889D02*
X116107D01*
X113548Y195448*
X116107*
X113548Y192889*
Y188713D02*
X116107D01*
X113548Y191272*
X116107*
X113548Y188713*
X111460Y194977D02*
X114019D01*
X111460Y197536*
X114019*
X111460Y194977*
Y190801D02*
X114019D01*
X111460Y193360*
X114019*
X111460Y190801*
X109372Y192889D02*
X111931D01*
X109372Y195448*
X111931*
X109372Y192889*
Y188713D02*
X111931D01*
X109372Y191272*
X111931*
X109372Y188713*
X123988Y194977D02*
X126547D01*
X123988Y197536*
X126547*
X123988Y194977*
Y190801D02*
X126547D01*
X123988Y193360*
X126547*
X123988Y190801*
X121900Y192889D02*
X124459D01*
X121900Y195448*
X124459*
X121900Y192889*
Y188713D02*
X124459D01*
X121900Y191272*
X124459*
X121900Y188713*
X119812Y194977D02*
X122371D01*
X119812Y197536*
X122371*
X119812Y194977*
Y190801D02*
X122371D01*
X119812Y193360*
X122371*
X119812Y190801*
X508220Y194577D02*
X510779D01*
X508220Y197136*
X510779*
X508220Y194577*
Y190401D02*
X510779D01*
X508220Y192960*
X510779*
X508220Y190401*
X506132Y196664D02*
X508691D01*
X506132Y199224*
X508691*
X506132Y196664*
Y192489D02*
X508691D01*
X506132Y195048*
X508691*
X506132Y192489*
Y188313D02*
X508691D01*
X506132Y190872*
X508691*
X506132Y188313*
X516572Y194577D02*
X519131D01*
X516572Y197136*
X519131*
X516572Y194577*
Y190401D02*
X519131D01*
X516572Y192960*
X519131*
X516572Y190401*
X514484Y196664D02*
X517043D01*
X514484Y199224*
X517043*
X514484Y196664*
Y192489D02*
X517043D01*
X514484Y195048*
X517043*
X514484Y192489*
Y188313D02*
X517043D01*
X514484Y190872*
X517043*
X514484Y188313*
X512396Y194577D02*
X514955D01*
X512396Y197136*
X514955*
X512396Y194577*
Y190401D02*
X514955D01*
X512396Y192960*
X514955*
X512396Y190401*
X510308Y196664D02*
X512867D01*
X510308Y199224*
X512867*
X510308Y196664*
Y192489D02*
X512867D01*
X510308Y195048*
X512867*
X510308Y192489*
Y188313D02*
X512867D01*
X510308Y190872*
X512867*
X510308Y188313*
X527011Y196664D02*
X529570D01*
X527011Y199224*
X529570*
X527011Y196664*
Y192489D02*
X529570D01*
X527011Y195048*
X529570*
X527011Y192489*
Y188313D02*
X529570D01*
X527011Y190872*
X529570*
X527011Y188313*
X524924Y194577D02*
X527483D01*
X524924Y197136*
X527483*
X524924Y194577*
Y190401D02*
X527483D01*
X524924Y192960*
X527483*
X524924Y190401*
X522836Y196664D02*
X525395D01*
X522836Y199224*
X525395*
X522836Y196664*
Y192489D02*
X525395D01*
X522836Y195048*
X525395*
X522836Y192489*
Y188313D02*
X525395D01*
X522836Y190872*
X525395*
X522836Y188313*
X520748Y194577D02*
X523307D01*
X520748Y197136*
X523307*
X520748Y194577*
Y190401D02*
X523307D01*
X520748Y192960*
X523307*
X520748Y190401*
X518660Y196664D02*
X521219D01*
X518660Y199224*
X521219*
X518660Y196664*
Y192489D02*
X521219D01*
X518660Y195048*
X521219*
X518660Y192489*
Y188313D02*
X521219D01*
X518660Y190872*
X521219*
X518660Y188313*
X529099Y194577D02*
X531658D01*
X529099Y197136*
X531658*
X529099Y194577*
Y190401D02*
X531658D01*
X529099Y192960*
X531658*
X529099Y190401*
X107284Y199152D02*
X109843D01*
X107284Y201711*
X109843*
X107284Y199152*
X105196Y197064D02*
X107755D01*
X105196Y199624*
X107755*
X105196Y197064*
X103108Y199152D02*
X105667D01*
X103108Y201711*
X105667*
X103108Y199152*
X101020Y197064D02*
X103580D01*
X101020Y199624*
X103580*
X101020Y197064*
X117724Y201240D02*
X120283D01*
X117724Y203799*
X120283*
X117724Y201240*
Y197064D02*
X120283D01*
X117724Y199624*
X120283*
X117724Y197064*
X115636Y199152D02*
X118195D01*
X115636Y201711*
X118195*
X115636Y199152*
X113548Y197064D02*
X116107D01*
X113548Y199624*
X116107*
X113548Y197064*
X111460Y199152D02*
X114019D01*
X111460Y201711*
X114019*
X111460Y199152*
X109372Y197064D02*
X111931D01*
X109372Y199624*
X111931*
X109372Y197064*
X123988Y203328D02*
X126547D01*
X123988Y205887*
X126547*
X123988Y203328*
Y199152D02*
X126547D01*
X123988Y201711*
X126547*
X123988Y199152*
X121900Y201240D02*
X124459D01*
X121900Y203799*
X124459*
X121900Y201240*
Y197064D02*
X124459D01*
X121900Y199624*
X124459*
X121900Y197064*
X119812Y199152D02*
X122371D01*
X119812Y201711*
X122371*
X119812Y199152*
X508220Y202928D02*
X510779D01*
X508220Y205487*
X510779*
X508220Y202928*
Y198752D02*
X510779D01*
X508220Y201311*
X510779*
X508220Y198752*
X506132Y205016D02*
X508691D01*
X506132Y207575*
X508691*
X506132Y205016*
Y200840D02*
X508691D01*
X506132Y203399*
X508691*
X506132Y200840*
X516572Y198752D02*
X519131D01*
X516572Y201311*
X519131*
X516572Y198752*
X514484Y200840D02*
X517043D01*
X514484Y203399*
X517043*
X514484Y200840*
X512396Y198752D02*
X514955D01*
X512396Y201311*
X514955*
X512396Y198752*
X510308Y200840D02*
X512867D01*
X510308Y203399*
X512867*
X510308Y200840*
X527011D02*
X529570D01*
X527011Y203399*
X529570*
X527011Y200840*
X524924Y198752D02*
X527483D01*
X524924Y201311*
X527483*
X524924Y198752*
X522836Y200840D02*
X525395D01*
X522836Y203399*
X525395*
X522836Y200840*
X520748Y198752D02*
X523307D01*
X520748Y201311*
X523307*
X520748Y198752*
X518660Y200840D02*
X521219D01*
X518660Y203399*
X521219*
X518660Y200840*
X529099Y198752D02*
X531658D01*
X529099Y201311*
X531658*
X529099Y198752*
X107284Y236735D02*
X109843D01*
X107284Y239294*
X109843*
X107284Y236735*
X105196Y234647D02*
X107755D01*
X105196Y237206*
X107755*
X105196Y234647*
X103108Y236735D02*
X105667D01*
X103108Y239294*
X105667*
X103108Y236735*
X101020Y234647D02*
X103580D01*
X101020Y237206*
X103580*
X101020Y234647*
X117724D02*
X120283D01*
X117724Y237206*
X120283*
X117724Y234647*
X115636Y236735D02*
X118195D01*
X115636Y239294*
X118195*
X115636Y236735*
X113548Y234647D02*
X116107D01*
X113548Y237206*
X116107*
X113548Y234647*
X111460Y236735D02*
X114019D01*
X111460Y239294*
X114019*
X111460Y236735*
X109372Y234647D02*
X111931D01*
X109372Y237206*
X111931*
X109372Y234647*
X123988Y236735D02*
X126547D01*
X123988Y239294*
X126547*
X123988Y236735*
Y232559D02*
X126547D01*
X123988Y235118*
X126547*
X123988Y232559*
Y228383D02*
X126547D01*
X123988Y230942*
X126547*
X123988Y228383*
X121900Y234647D02*
X124459D01*
X121900Y237206*
X124459*
X121900Y234647*
Y230471D02*
X124459D01*
X121900Y233030*
X124459*
X121900Y230471*
X119812Y236735D02*
X122371D01*
X119812Y239294*
X122371*
X119812Y236735*
Y232559D02*
X122371D01*
X119812Y235118*
X122371*
X119812Y232559*
X508220Y236335D02*
X510779D01*
X508220Y238894*
X510779*
X508220Y236335*
Y232159D02*
X510779D01*
X508220Y234718*
X510779*
X508220Y232159*
X506132Y234247D02*
X508691D01*
X506132Y236806*
X508691*
X506132Y234247*
Y230071D02*
X508691D01*
X506132Y232630*
X508691*
X506132Y230071*
X516572Y236335D02*
X519131D01*
X516572Y238894*
X519131*
X516572Y236335*
X514484Y234247D02*
X517043D01*
X514484Y236806*
X517043*
X514484Y234247*
X512396Y236335D02*
X514955D01*
X512396Y238894*
X514955*
X512396Y236335*
X510308Y234247D02*
X512867D01*
X510308Y236806*
X512867*
X510308Y234247*
X527011D02*
X529570D01*
X527011Y236806*
X529570*
X527011Y234247*
X524924Y236335D02*
X527483D01*
X524924Y238894*
X527483*
X524924Y236335*
X522836Y234247D02*
X525395D01*
X522836Y236806*
X525395*
X522836Y234247*
X520748Y236335D02*
X523307D01*
X520748Y238894*
X523307*
X520748Y236335*
X518660Y234247D02*
X521219D01*
X518660Y236806*
X521219*
X518660Y234247*
X529099Y236335D02*
X531658D01*
X529099Y238894*
X531658*
X529099Y236335*
X107284Y245086D02*
X109843D01*
X107284Y247646*
X109843*
X107284Y245086*
Y240911D02*
X109843D01*
X107284Y243470*
X109843*
X107284Y240911*
X105196Y242999D02*
X107755D01*
X105196Y245558*
X107755*
X105196Y242999*
Y238823D02*
X107755D01*
X105196Y241382*
X107755*
X105196Y238823*
X103108Y245086D02*
X105667D01*
X103108Y247646*
X105667*
X103108Y245086*
Y240911D02*
X105667D01*
X103108Y243470*
X105667*
X103108Y240911*
X101020Y242999D02*
X103580D01*
X101020Y245558*
X103580*
X101020Y242999*
Y238823D02*
X103580D01*
X101020Y241382*
X103580*
X101020Y238823*
X117724Y242999D02*
X120283D01*
X117724Y245558*
X120283*
X117724Y242999*
Y238823D02*
X120283D01*
X117724Y241382*
X120283*
X117724Y238823*
X115636Y245086D02*
X118195D01*
X115636Y247646*
X118195*
X115636Y245086*
Y240911D02*
X118195D01*
X115636Y243470*
X118195*
X115636Y240911*
X113548Y242999D02*
X116107D01*
X113548Y245558*
X116107*
X113548Y242999*
Y238823D02*
X116107D01*
X113548Y241382*
X116107*
X113548Y238823*
X111460Y245086D02*
X114019D01*
X111460Y247646*
X114019*
X111460Y245086*
Y240911D02*
X114019D01*
X111460Y243470*
X114019*
X111460Y240911*
X109372Y242999D02*
X111931D01*
X109372Y245558*
X111931*
X109372Y242999*
Y238823D02*
X111931D01*
X109372Y241382*
X111931*
X109372Y238823*
X123988Y245086D02*
X126547D01*
X123988Y247646*
X126547*
X123988Y245086*
Y240911D02*
X126547D01*
X123988Y243470*
X126547*
X123988Y240911*
X121900Y242999D02*
X124459D01*
X121900Y245558*
X124459*
X121900Y242999*
Y238823D02*
X124459D01*
X121900Y241382*
X124459*
X121900Y238823*
X119812Y245086D02*
X122371D01*
X119812Y247646*
X122371*
X119812Y245086*
Y240911D02*
X122371D01*
X119812Y243470*
X122371*
X119812Y240911*
X508220Y244686D02*
X510779D01*
X508220Y247246*
X510779*
X508220Y244686*
Y240511D02*
X510779D01*
X508220Y243070*
X510779*
X508220Y240511*
X506132Y246774D02*
X508691D01*
X506132Y249333*
X508691*
X506132Y246774*
Y242599D02*
X508691D01*
X506132Y245158*
X508691*
X506132Y242599*
Y238423D02*
X508691D01*
X506132Y240982*
X508691*
X506132Y238423*
X516572Y244686D02*
X519131D01*
X516572Y247246*
X519131*
X516572Y244686*
Y240511D02*
X519131D01*
X516572Y243070*
X519131*
X516572Y240511*
X514484Y246774D02*
X517043D01*
X514484Y249333*
X517043*
X514484Y246774*
Y242599D02*
X517043D01*
X514484Y245158*
X517043*
X514484Y242599*
Y238423D02*
X517043D01*
X514484Y240982*
X517043*
X514484Y238423*
X512396Y244686D02*
X514955D01*
X512396Y247246*
X514955*
X512396Y244686*
Y240511D02*
X514955D01*
X512396Y243070*
X514955*
X512396Y240511*
X510308Y246774D02*
X512867D01*
X510308Y249333*
X512867*
X510308Y246774*
Y242599D02*
X512867D01*
X510308Y245158*
X512867*
X510308Y242599*
Y238423D02*
X512867D01*
X510308Y240982*
X512867*
X510308Y238423*
X527011Y246774D02*
X529570D01*
X527011Y249333*
X529570*
X527011Y246774*
Y242599D02*
X529570D01*
X527011Y245158*
X529570*
X527011Y242599*
Y238423D02*
X529570D01*
X527011Y240982*
X529570*
X527011Y238423*
X524924Y244686D02*
X527483D01*
X524924Y247246*
X527483*
X524924Y244686*
Y240511D02*
X527483D01*
X524924Y243070*
X527483*
X524924Y240511*
X522836Y246774D02*
X525395D01*
X522836Y249333*
X525395*
X522836Y246774*
Y242599D02*
X525395D01*
X522836Y245158*
X525395*
X522836Y242599*
Y238423D02*
X525395D01*
X522836Y240982*
X525395*
X522836Y238423*
X520748Y244686D02*
X523307D01*
X520748Y247246*
X523307*
X520748Y244686*
Y240511D02*
X523307D01*
X520748Y243070*
X523307*
X520748Y240511*
X518660Y246774D02*
X521219D01*
X518660Y249333*
X521219*
X518660Y246774*
Y242599D02*
X521219D01*
X518660Y245158*
X521219*
X518660Y242599*
Y238423D02*
X521219D01*
X518660Y240982*
X521219*
X518660Y238423*
X529099Y244686D02*
X531658D01*
X529099Y247246*
X531658*
X529099Y244686*
Y240511D02*
X531658D01*
X529099Y243070*
X531658*
X529099Y240511*
X107284Y253438D02*
X109843D01*
X107284Y255997*
X109843*
X107284Y253438*
Y249262D02*
X109843D01*
X107284Y251821*
X109843*
X107284Y249262*
X105196Y255526D02*
X107755D01*
X105196Y258085*
X107755*
X105196Y255526*
Y251350D02*
X107755D01*
X105196Y253909*
X107755*
X105196Y251350*
Y247174D02*
X107755D01*
X105196Y249733*
X107755*
X105196Y247174*
X103108Y253438D02*
X105667D01*
X103108Y255997*
X105667*
X103108Y253438*
Y249262D02*
X105667D01*
X103108Y251821*
X105667*
X103108Y249262*
X101020Y255526D02*
X103580D01*
X101020Y258085*
X103580*
X101020Y255526*
Y251350D02*
X103580D01*
X101020Y253909*
X103580*
X101020Y251350*
Y247174D02*
X103580D01*
X101020Y249733*
X103580*
X101020Y247174*
X117724Y255526D02*
X120283D01*
X117724Y258085*
X120283*
X117724Y255526*
Y251350D02*
X120283D01*
X117724Y253909*
X120283*
X117724Y251350*
Y247174D02*
X120283D01*
X117724Y249733*
X120283*
X117724Y247174*
X115636Y253438D02*
X118195D01*
X115636Y255997*
X118195*
X115636Y253438*
Y249262D02*
X118195D01*
X115636Y251821*
X118195*
X115636Y249262*
X113548Y255526D02*
X116107D01*
X113548Y258085*
X116107*
X113548Y255526*
Y251350D02*
X116107D01*
X113548Y253909*
X116107*
X113548Y251350*
Y247174D02*
X116107D01*
X113548Y249733*
X116107*
X113548Y247174*
X111460Y253438D02*
X114019D01*
X111460Y255997*
X114019*
X111460Y253438*
Y249262D02*
X114019D01*
X111460Y251821*
X114019*
X111460Y249262*
X109372Y255526D02*
X111931D01*
X109372Y258085*
X111931*
X109372Y255526*
Y251350D02*
X111931D01*
X109372Y253909*
X111931*
X109372Y251350*
Y247174D02*
X111931D01*
X109372Y249733*
X111931*
X109372Y247174*
X123988Y253438D02*
X126547D01*
X123988Y255997*
X126547*
X123988Y253438*
Y249262D02*
X126547D01*
X123988Y251821*
X126547*
X123988Y249262*
X121900Y255526D02*
X124459D01*
X121900Y258085*
X124459*
X121900Y255526*
Y251350D02*
X124459D01*
X121900Y253909*
X124459*
X121900Y251350*
Y247174D02*
X124459D01*
X121900Y249733*
X124459*
X121900Y247174*
X119812Y253438D02*
X122371D01*
X119812Y255997*
X122371*
X119812Y253438*
Y249262D02*
X122371D01*
X119812Y251821*
X122371*
X119812Y249262*
X508220Y253038D02*
X510779D01*
X508220Y255597*
X510779*
X508220Y253038*
Y248862D02*
X510779D01*
X508220Y251421*
X510779*
X508220Y248862*
X506132Y255126D02*
X508691D01*
X506132Y257685*
X508691*
X506132Y255126*
Y250950D02*
X508691D01*
X506132Y253509*
X508691*
X506132Y250950*
X516572Y253038D02*
X519131D01*
X516572Y255597*
X519131*
X516572Y253038*
Y248862D02*
X519131D01*
X516572Y251421*
X519131*
X516572Y248862*
X514484Y255126D02*
X517043D01*
X514484Y257685*
X517043*
X514484Y255126*
Y250950D02*
X517043D01*
X514484Y253509*
X517043*
X514484Y250950*
X512396Y253038D02*
X514955D01*
X512396Y255597*
X514955*
X512396Y253038*
Y248862D02*
X514955D01*
X512396Y251421*
X514955*
X512396Y248862*
X510308Y255126D02*
X512867D01*
X510308Y257685*
X512867*
X510308Y255126*
Y250950D02*
X512867D01*
X510308Y253509*
X512867*
X510308Y250950*
X527011Y255126D02*
X529570D01*
X527011Y257685*
X529570*
X527011Y255126*
Y250950D02*
X529570D01*
X527011Y253509*
X529570*
X527011Y250950*
X524924Y253038D02*
X527483D01*
X524924Y255597*
X527483*
X524924Y253038*
Y248862D02*
X527483D01*
X524924Y251421*
X527483*
X524924Y248862*
X522836Y255126D02*
X525395D01*
X522836Y257685*
X525395*
X522836Y255126*
Y250950D02*
X525395D01*
X522836Y253509*
X525395*
X522836Y250950*
X520748Y253038D02*
X523307D01*
X520748Y255597*
X523307*
X520748Y253038*
Y248862D02*
X523307D01*
X520748Y251421*
X523307*
X520748Y248862*
X518660Y255126D02*
X521219D01*
X518660Y257685*
X521219*
X518660Y255126*
Y250950D02*
X521219D01*
X518660Y253509*
X521219*
X518660Y250950*
X529099Y253038D02*
X531658D01*
X529099Y255597*
X531658*
X529099Y253038*
Y248862D02*
X531658D01*
X529099Y251421*
X531658*
X529099Y248862*
X107284Y265966D02*
X109843D01*
X107284Y268525*
X109843*
X107284Y265966*
Y261790D02*
X109843D01*
X107284Y264349*
X109843*
X107284Y261790*
Y257614D02*
X109843D01*
X107284Y260173*
X109843*
X107284Y257614*
X105196Y263878D02*
X107755D01*
X105196Y266437*
X107755*
X105196Y263878*
Y259702D02*
X107755D01*
X105196Y262261*
X107755*
X105196Y259702*
X103108Y265966D02*
X105667D01*
X103108Y268525*
X105667*
X103108Y265966*
Y261790D02*
X105667D01*
X103108Y264349*
X105667*
X103108Y261790*
Y257614D02*
X105667D01*
X103108Y260173*
X105667*
X103108Y257614*
X101020Y263878D02*
X103580D01*
X101020Y266437*
X103580*
X101020Y263878*
Y259702D02*
X103580D01*
X101020Y262261*
X103580*
X101020Y259702*
X117724Y263878D02*
X120283D01*
X117724Y266437*
X120283*
X117724Y263878*
Y259702D02*
X120283D01*
X117724Y262261*
X120283*
X117724Y259702*
X115636Y265966D02*
X118195D01*
X115636Y268525*
X118195*
X115636Y265966*
Y261790D02*
X118195D01*
X115636Y264349*
X118195*
X115636Y261790*
Y257614D02*
X118195D01*
X115636Y260173*
X118195*
X115636Y257614*
X113548Y263878D02*
X116107D01*
X113548Y266437*
X116107*
X113548Y263878*
Y259702D02*
X116107D01*
X113548Y262261*
X116107*
X113548Y259702*
X111460Y265966D02*
X114019D01*
X111460Y268525*
X114019*
X111460Y265966*
Y261790D02*
X114019D01*
X111460Y264349*
X114019*
X111460Y261790*
Y257614D02*
X114019D01*
X111460Y260173*
X114019*
X111460Y257614*
X109372Y263878D02*
X111931D01*
X109372Y266437*
X111931*
X109372Y263878*
Y259702D02*
X111931D01*
X109372Y262261*
X111931*
X109372Y259702*
X123988Y265966D02*
X126547D01*
X123988Y268525*
X126547*
X123988Y265966*
Y261790D02*
X126547D01*
X123988Y264349*
X126547*
X123988Y261790*
Y257614D02*
X126547D01*
X123988Y260173*
X126547*
X123988Y257614*
X121900Y263878D02*
X124459D01*
X121900Y266437*
X124459*
X121900Y263878*
Y259702D02*
X124459D01*
X121900Y262261*
X124459*
X121900Y259702*
X119812Y265966D02*
X122371D01*
X119812Y268525*
X122371*
X119812Y265966*
Y261790D02*
X122371D01*
X119812Y264349*
X122371*
X119812Y261790*
Y257614D02*
X122371D01*
X119812Y260173*
X122371*
X119812Y257614*
X508220Y265566D02*
X510779D01*
X508220Y268125*
X510779*
X508220Y265566*
Y261390D02*
X510779D01*
X508220Y263949*
X510779*
X508220Y261390*
Y257214D02*
X510779D01*
X508220Y259773*
X510779*
X508220Y257214*
X506132Y263478D02*
X508691D01*
X506132Y266037*
X508691*
X506132Y263478*
Y259302D02*
X508691D01*
X506132Y261861*
X508691*
X506132Y259302*
X516572Y265566D02*
X519131D01*
X516572Y268125*
X519131*
X516572Y265566*
Y261390D02*
X519131D01*
X516572Y263949*
X519131*
X516572Y261390*
Y257214D02*
X519131D01*
X516572Y259773*
X519131*
X516572Y257214*
X514484Y263478D02*
X517043D01*
X514484Y266037*
X517043*
X514484Y263478*
Y259302D02*
X517043D01*
X514484Y261861*
X517043*
X514484Y259302*
X512396Y265566D02*
X514955D01*
X512396Y268125*
X514955*
X512396Y265566*
Y261390D02*
X514955D01*
X512396Y263949*
X514955*
X512396Y261390*
Y257214D02*
X514955D01*
X512396Y259773*
X514955*
X512396Y257214*
X510308Y263478D02*
X512867D01*
X510308Y266037*
X512867*
X510308Y263478*
Y259302D02*
X512867D01*
X510308Y261861*
X512867*
X510308Y259302*
X527011Y263478D02*
X529570D01*
X527011Y266037*
X529570*
X527011Y263478*
Y259302D02*
X529570D01*
X527011Y261861*
X529570*
X527011Y259302*
X524924Y265566D02*
X527483D01*
X524924Y268125*
X527483*
X524924Y265566*
Y261390D02*
X527483D01*
X524924Y263949*
X527483*
X524924Y261390*
Y257214D02*
X527483D01*
X524924Y259773*
X527483*
X524924Y257214*
X522836Y263478D02*
X525395D01*
X522836Y266037*
X525395*
X522836Y263478*
Y259302D02*
X525395D01*
X522836Y261861*
X525395*
X522836Y259302*
X520748Y265566D02*
X523307D01*
X520748Y268125*
X523307*
X520748Y265566*
Y261390D02*
X523307D01*
X520748Y263949*
X523307*
X520748Y261390*
Y257214D02*
X523307D01*
X520748Y259773*
X523307*
X520748Y257214*
X518660Y263478D02*
X521219D01*
X518660Y266037*
X521219*
X518660Y263478*
Y259302D02*
X521219D01*
X518660Y261861*
X521219*
X518660Y259302*
X529099Y265566D02*
X531658D01*
X529099Y268125*
X531658*
X529099Y265566*
Y261390D02*
X531658D01*
X529099Y263949*
X531658*
X529099Y261390*
Y257214D02*
X531658D01*
X529099Y259773*
X531658*
X529099Y257214*
X105196Y268054D02*
X107755D01*
X105196Y270613*
X107755*
X105196Y268054*
X103108Y270141D02*
X105667D01*
X103108Y272701*
X105667*
X103108Y270141*
X101020Y276405D02*
X103580D01*
X101020Y278964*
X103580*
X101020Y276405*
Y272229D02*
X103580D01*
X101020Y274788*
X103580*
X101020Y272229*
Y268054D02*
X103580D01*
X101020Y270613*
X103580*
X101020Y268054*
X123988Y274317D02*
X126547D01*
X123988Y276876*
X126547*
X123988Y274317*
Y270141D02*
X126547D01*
X123988Y272701*
X126547*
X123988Y270141*
X121900Y268054D02*
X124459D01*
X121900Y270613*
X124459*
X121900Y268054*
X508220Y269741D02*
X510779D01*
X508220Y272301*
X510779*
X508220Y269741*
X506132Y276005D02*
X508691D01*
X506132Y278564*
X508691*
X506132Y276005*
Y271829D02*
X508691D01*
X506132Y274388*
X508691*
X506132Y271829*
Y267654D02*
X508691D01*
X506132Y270213*
X508691*
X506132Y267654*
X510308D02*
X512867D01*
X510308Y270213*
X512867*
X510308Y267654*
X527011D02*
X529570D01*
X527011Y270213*
X529570*
X527011Y267654*
X529099Y273917D02*
X531658D01*
X529099Y276476*
X531658*
X529099Y273917*
Y269741D02*
X531658D01*
X529099Y272301*
X531658*
X529099Y269741*
X107284Y286845D02*
X109843D01*
X107284Y289404*
X109843*
X107284Y286845*
X105196Y284757D02*
X107755D01*
X105196Y287316*
X107755*
X105196Y284757*
X103108Y286845D02*
X105667D01*
X103108Y289404*
X105667*
X103108Y286845*
Y282669D02*
X105667D01*
X103108Y285228*
X105667*
X103108Y282669*
X101020Y284757D02*
X103580D01*
X101020Y287316*
X103580*
X101020Y284757*
Y280581D02*
X103580D01*
X101020Y283140*
X103580*
X101020Y280581*
X117724Y284757D02*
X120283D01*
X117724Y287316*
X120283*
X117724Y284757*
X115636Y286845D02*
X118195D01*
X115636Y289404*
X118195*
X115636Y286845*
X111460D02*
X114019D01*
X111460Y289404*
X114019*
X111460Y286845*
X123988D02*
X126547D01*
X123988Y289404*
X126547*
X123988Y286845*
Y282669D02*
X126547D01*
X123988Y285228*
X126547*
X123988Y282669*
Y278493D02*
X126547D01*
X123988Y281052*
X126547*
X123988Y278493*
X121900Y284757D02*
X124459D01*
X121900Y287316*
X124459*
X121900Y284757*
Y280581D02*
X124459D01*
X121900Y283140*
X124459*
X121900Y280581*
X119812Y286845D02*
X122371D01*
X119812Y289404*
X122371*
X119812Y286845*
Y282669D02*
X122371D01*
X119812Y285228*
X122371*
X119812Y282669*
X508220Y286445D02*
X510779D01*
X508220Y289004*
X510779*
X508220Y286445*
Y282269D02*
X510779D01*
X508220Y284828*
X510779*
X508220Y282269*
X506132Y284357D02*
X508691D01*
X506132Y286916*
X508691*
X506132Y284357*
Y280181D02*
X508691D01*
X506132Y282740*
X508691*
X506132Y280181*
X516572Y286445D02*
X519131D01*
X516572Y289004*
X519131*
X516572Y286445*
X512396D02*
X514955D01*
X512396Y289004*
X514955*
X512396Y286445*
X510308Y284357D02*
X512867D01*
X510308Y286916*
X512867*
X510308Y284357*
X527011D02*
X529570D01*
X527011Y286916*
X529570*
X527011Y284357*
X524924Y286445D02*
X527483D01*
X524924Y289004*
X527483*
X524924Y286445*
X520748D02*
X523307D01*
X520748Y289004*
X523307*
X520748Y286445*
X529099D02*
X531658D01*
X529099Y289004*
X531658*
X529099Y286445*
Y282269D02*
X531658D01*
X529099Y284828*
X531658*
X529099Y282269*
Y278093D02*
X531658D01*
X529099Y280652*
X531658*
X529099Y278093*
X107284Y295196D02*
X109843D01*
X107284Y297755*
X109843*
X107284Y295196*
Y291021D02*
X109843D01*
X107284Y293580*
X109843*
X107284Y291021*
X105196Y293109D02*
X107755D01*
X105196Y295668*
X107755*
X105196Y293109*
Y288933D02*
X107755D01*
X105196Y291492*
X107755*
X105196Y288933*
X103108Y295196D02*
X105667D01*
X103108Y297755*
X105667*
X103108Y295196*
Y291021D02*
X105667D01*
X103108Y293580*
X105667*
X103108Y291021*
X101020Y293109D02*
X103580D01*
X101020Y295668*
X103580*
X101020Y293109*
Y288933D02*
X103580D01*
X101020Y291492*
X103580*
X101020Y288933*
X117724Y293109D02*
X120283D01*
X117724Y295668*
X120283*
X117724Y293109*
Y288933D02*
X120283D01*
X117724Y291492*
X120283*
X117724Y288933*
X115636Y295196D02*
X118195D01*
X115636Y297755*
X118195*
X115636Y295196*
Y291021D02*
X118195D01*
X115636Y293580*
X118195*
X115636Y291021*
X113548Y293109D02*
X116107D01*
X113548Y295668*
X116107*
X113548Y293109*
Y288933D02*
X116107D01*
X113548Y291492*
X116107*
X113548Y288933*
X111460Y295196D02*
X114019D01*
X111460Y297755*
X114019*
X111460Y295196*
Y291021D02*
X114019D01*
X111460Y293580*
X114019*
X111460Y291021*
X109372Y293109D02*
X111931D01*
X109372Y295668*
X111931*
X109372Y293109*
Y288933D02*
X111931D01*
X109372Y291492*
X111931*
X109372Y288933*
X123988Y295196D02*
X126547D01*
X123988Y297755*
X126547*
X123988Y295196*
Y291021D02*
X126547D01*
X123988Y293580*
X126547*
X123988Y291021*
X121900Y293109D02*
X124459D01*
X121900Y295668*
X124459*
X121900Y293109*
Y288933D02*
X124459D01*
X121900Y291492*
X124459*
X121900Y288933*
X119812Y295196D02*
X122371D01*
X119812Y297755*
X122371*
X119812Y295196*
Y291021D02*
X122371D01*
X119812Y293580*
X122371*
X119812Y291021*
X508220Y294796D02*
X510779D01*
X508220Y297355*
X510779*
X508220Y294796*
Y290621D02*
X510779D01*
X508220Y293180*
X510779*
X508220Y290621*
X506132Y296884D02*
X508691D01*
X506132Y299443*
X508691*
X506132Y296884*
Y292709D02*
X508691D01*
X506132Y295268*
X508691*
X506132Y292709*
Y288533D02*
X508691D01*
X506132Y291092*
X508691*
X506132Y288533*
X516572Y294796D02*
X519131D01*
X516572Y297355*
X519131*
X516572Y294796*
Y290621D02*
X519131D01*
X516572Y293180*
X519131*
X516572Y290621*
X514484Y296884D02*
X517043D01*
X514484Y299443*
X517043*
X514484Y296884*
Y292709D02*
X517043D01*
X514484Y295268*
X517043*
X514484Y292709*
Y288533D02*
X517043D01*
X514484Y291092*
X517043*
X514484Y288533*
X512396Y294796D02*
X514955D01*
X512396Y297355*
X514955*
X512396Y294796*
Y290621D02*
X514955D01*
X512396Y293180*
X514955*
X512396Y290621*
X510308Y296884D02*
X512867D01*
X510308Y299443*
X512867*
X510308Y296884*
Y292709D02*
X512867D01*
X510308Y295268*
X512867*
X510308Y292709*
Y288533D02*
X512867D01*
X510308Y291092*
X512867*
X510308Y288533*
X527011Y296884D02*
X529570D01*
X527011Y299443*
X529570*
X527011Y296884*
Y292709D02*
X529570D01*
X527011Y295268*
X529570*
X527011Y292709*
Y288533D02*
X529570D01*
X527011Y291092*
X529570*
X527011Y288533*
X524924Y294796D02*
X527483D01*
X524924Y297355*
X527483*
X524924Y294796*
Y290621D02*
X527483D01*
X524924Y293180*
X527483*
X524924Y290621*
X522836Y296884D02*
X525395D01*
X522836Y299443*
X525395*
X522836Y296884*
Y292709D02*
X525395D01*
X522836Y295268*
X525395*
X522836Y292709*
Y288533D02*
X525395D01*
X522836Y291092*
X525395*
X522836Y288533*
X520748Y294796D02*
X523307D01*
X520748Y297355*
X523307*
X520748Y294796*
Y290621D02*
X523307D01*
X520748Y293180*
X523307*
X520748Y290621*
X518660Y296884D02*
X521219D01*
X518660Y299443*
X521219*
X518660Y296884*
Y292709D02*
X521219D01*
X518660Y295268*
X521219*
X518660Y292709*
Y288533D02*
X521219D01*
X518660Y291092*
X521219*
X518660Y288533*
X529099Y294796D02*
X531658D01*
X529099Y297355*
X531658*
X529099Y294796*
Y290621D02*
X531658D01*
X529099Y293180*
X531658*
X529099Y290621*
X107284Y303548D02*
X109843D01*
X107284Y306107*
X109843*
X107284Y303548*
Y299372D02*
X109843D01*
X107284Y301931*
X109843*
X107284Y299372*
X105196Y305636D02*
X107755D01*
X105196Y308195*
X107755*
X105196Y305636*
Y301460D02*
X107755D01*
X105196Y304019*
X107755*
X105196Y301460*
Y297284D02*
X107755D01*
X105196Y299843*
X107755*
X105196Y297284*
X103108Y303548D02*
X105667D01*
X103108Y306107*
X105667*
X103108Y303548*
Y299372D02*
X105667D01*
X103108Y301931*
X105667*
X103108Y299372*
X101020Y305636D02*
X103580D01*
X101020Y308195*
X103580*
X101020Y305636*
Y301460D02*
X103580D01*
X101020Y304019*
X103580*
X101020Y301460*
Y297284D02*
X103580D01*
X101020Y299843*
X103580*
X101020Y297284*
X117724Y305636D02*
X120283D01*
X117724Y308195*
X120283*
X117724Y305636*
Y301460D02*
X120283D01*
X117724Y304019*
X120283*
X117724Y301460*
Y297284D02*
X120283D01*
X117724Y299843*
X120283*
X117724Y297284*
X115636Y303548D02*
X118195D01*
X115636Y306107*
X118195*
X115636Y303548*
Y299372D02*
X118195D01*
X115636Y301931*
X118195*
X115636Y299372*
X113548Y305636D02*
X116107D01*
X113548Y308195*
X116107*
X113548Y305636*
Y301460D02*
X116107D01*
X113548Y304019*
X116107*
X113548Y301460*
Y297284D02*
X116107D01*
X113548Y299843*
X116107*
X113548Y297284*
X111460Y303548D02*
X114019D01*
X111460Y306107*
X114019*
X111460Y303548*
Y299372D02*
X114019D01*
X111460Y301931*
X114019*
X111460Y299372*
X109372Y305636D02*
X111931D01*
X109372Y308195*
X111931*
X109372Y305636*
Y301460D02*
X111931D01*
X109372Y304019*
X111931*
X109372Y301460*
Y297284D02*
X111931D01*
X109372Y299843*
X111931*
X109372Y297284*
X123988Y303548D02*
X126547D01*
X123988Y306107*
X126547*
X123988Y303548*
Y299372D02*
X126547D01*
X123988Y301931*
X126547*
X123988Y299372*
X121900Y305636D02*
X124459D01*
X121900Y308195*
X124459*
X121900Y305636*
Y301460D02*
X124459D01*
X121900Y304019*
X124459*
X121900Y301460*
Y297284D02*
X124459D01*
X121900Y299843*
X124459*
X121900Y297284*
X119812Y303548D02*
X122371D01*
X119812Y306107*
X122371*
X119812Y303548*
Y299372D02*
X122371D01*
X119812Y301931*
X122371*
X119812Y299372*
X508220Y303148D02*
X510779D01*
X508220Y305707*
X510779*
X508220Y303148*
Y298972D02*
X510779D01*
X508220Y301531*
X510779*
X508220Y298972*
X506132Y305236D02*
X508691D01*
X506132Y307795*
X508691*
X506132Y305236*
Y301060D02*
X508691D01*
X506132Y303619*
X508691*
X506132Y301060*
X516572Y303148D02*
X519131D01*
X516572Y305707*
X519131*
X516572Y303148*
Y298972D02*
X519131D01*
X516572Y301531*
X519131*
X516572Y298972*
X514484Y305236D02*
X517043D01*
X514484Y307795*
X517043*
X514484Y305236*
Y301060D02*
X517043D01*
X514484Y303619*
X517043*
X514484Y301060*
X512396Y303148D02*
X514955D01*
X512396Y305707*
X514955*
X512396Y303148*
Y298972D02*
X514955D01*
X512396Y301531*
X514955*
X512396Y298972*
X510308Y305236D02*
X512867D01*
X510308Y307795*
X512867*
X510308Y305236*
Y301060D02*
X512867D01*
X510308Y303619*
X512867*
X510308Y301060*
X527011Y305236D02*
X529570D01*
X527011Y307795*
X529570*
X527011Y305236*
Y301060D02*
X529570D01*
X527011Y303619*
X529570*
X527011Y301060*
X524924Y303148D02*
X527483D01*
X524924Y305707*
X527483*
X524924Y303148*
Y298972D02*
X527483D01*
X524924Y301531*
X527483*
X524924Y298972*
X522836Y305236D02*
X525395D01*
X522836Y307795*
X525395*
X522836Y305236*
Y301060D02*
X525395D01*
X522836Y303619*
X525395*
X522836Y301060*
X520748Y303148D02*
X523307D01*
X520748Y305707*
X523307*
X520748Y303148*
Y298972D02*
X523307D01*
X520748Y301531*
X523307*
X520748Y298972*
X518660Y305236D02*
X521219D01*
X518660Y307795*
X521219*
X518660Y305236*
Y301060D02*
X521219D01*
X518660Y303619*
X521219*
X518660Y301060*
X529099Y303148D02*
X531658D01*
X529099Y305707*
X531658*
X529099Y303148*
Y298972D02*
X531658D01*
X529099Y301531*
X531658*
X529099Y298972*
X107284Y316076D02*
X109843D01*
X107284Y318635*
X109843*
X107284Y316076*
Y311900D02*
X109843D01*
X107284Y314459*
X109843*
X107284Y311900*
Y307724D02*
X109843D01*
X107284Y310283*
X109843*
X107284Y307724*
X105196Y313988D02*
X107755D01*
X105196Y316547*
X107755*
X105196Y313988*
Y309812D02*
X107755D01*
X105196Y312371*
X107755*
X105196Y309812*
X103108Y316076D02*
X105667D01*
X103108Y318635*
X105667*
X103108Y316076*
Y311900D02*
X105667D01*
X103108Y314459*
X105667*
X103108Y311900*
Y307724D02*
X105667D01*
X103108Y310283*
X105667*
X103108Y307724*
X101020Y313988D02*
X103580D01*
X101020Y316547*
X103580*
X101020Y313988*
Y309812D02*
X103580D01*
X101020Y312371*
X103580*
X101020Y309812*
X117724Y313988D02*
X120283D01*
X117724Y316547*
X120283*
X117724Y313988*
Y309812D02*
X120283D01*
X117724Y312371*
X120283*
X117724Y309812*
X115636Y316076D02*
X118195D01*
X115636Y318635*
X118195*
X115636Y316076*
Y311900D02*
X118195D01*
X115636Y314459*
X118195*
X115636Y311900*
Y307724D02*
X118195D01*
X115636Y310283*
X118195*
X115636Y307724*
X113548Y313988D02*
X116107D01*
X113548Y316547*
X116107*
X113548Y313988*
Y309812D02*
X116107D01*
X113548Y312371*
X116107*
X113548Y309812*
X111460Y316076D02*
X114019D01*
X111460Y318635*
X114019*
X111460Y316076*
Y311900D02*
X114019D01*
X111460Y314459*
X114019*
X111460Y311900*
Y307724D02*
X114019D01*
X111460Y310283*
X114019*
X111460Y307724*
X109372Y313988D02*
X111931D01*
X109372Y316547*
X111931*
X109372Y313988*
Y309812D02*
X111931D01*
X109372Y312371*
X111931*
X109372Y309812*
X123988Y316076D02*
X126547D01*
X123988Y318635*
X126547*
X123988Y316076*
Y311900D02*
X126547D01*
X123988Y314459*
X126547*
X123988Y311900*
Y307724D02*
X126547D01*
X123988Y310283*
X126547*
X123988Y307724*
X121900Y313988D02*
X124459D01*
X121900Y316547*
X124459*
X121900Y313988*
Y309812D02*
X124459D01*
X121900Y312371*
X124459*
X121900Y309812*
X119812Y316076D02*
X122371D01*
X119812Y318635*
X122371*
X119812Y316076*
Y311900D02*
X122371D01*
X119812Y314459*
X122371*
X119812Y311900*
Y307724D02*
X122371D01*
X119812Y310283*
X122371*
X119812Y307724*
X508220Y315676D02*
X510779D01*
X508220Y318235*
X510779*
X508220Y315676*
Y311500D02*
X510779D01*
X508220Y314059*
X510779*
X508220Y311500*
Y307324D02*
X510779D01*
X508220Y309883*
X510779*
X508220Y307324*
X506132Y313588D02*
X508691D01*
X506132Y316147*
X508691*
X506132Y313588*
Y309412D02*
X508691D01*
X506132Y311971*
X508691*
X506132Y309412*
X516572Y315676D02*
X519131D01*
X516572Y318235*
X519131*
X516572Y315676*
Y311500D02*
X519131D01*
X516572Y314059*
X519131*
X516572Y311500*
Y307324D02*
X519131D01*
X516572Y309883*
X519131*
X516572Y307324*
X514484Y313588D02*
X517043D01*
X514484Y316147*
X517043*
X514484Y313588*
Y309412D02*
X517043D01*
X514484Y311971*
X517043*
X514484Y309412*
X512396Y315676D02*
X514955D01*
X512396Y318235*
X514955*
X512396Y315676*
Y311500D02*
X514955D01*
X512396Y314059*
X514955*
X512396Y311500*
Y307324D02*
X514955D01*
X512396Y309883*
X514955*
X512396Y307324*
X510308Y313588D02*
X512867D01*
X510308Y316147*
X512867*
X510308Y313588*
Y309412D02*
X512867D01*
X510308Y311971*
X512867*
X510308Y309412*
X527011Y313588D02*
X529570D01*
X527011Y316147*
X529570*
X527011Y313588*
Y309412D02*
X529570D01*
X527011Y311971*
X529570*
X527011Y309412*
X524924Y315676D02*
X527483D01*
X524924Y318235*
X527483*
X524924Y315676*
Y311500D02*
X527483D01*
X524924Y314059*
X527483*
X524924Y311500*
Y307324D02*
X527483D01*
X524924Y309883*
X527483*
X524924Y307324*
X522836Y313588D02*
X525395D01*
X522836Y316147*
X525395*
X522836Y313588*
Y309412D02*
X525395D01*
X522836Y311971*
X525395*
X522836Y309412*
X520748Y315676D02*
X523307D01*
X520748Y318235*
X523307*
X520748Y315676*
Y311500D02*
X523307D01*
X520748Y314059*
X523307*
X520748Y311500*
Y307324D02*
X523307D01*
X520748Y309883*
X523307*
X520748Y307324*
X518660Y313588D02*
X521219D01*
X518660Y316147*
X521219*
X518660Y313588*
Y309412D02*
X521219D01*
X518660Y311971*
X521219*
X518660Y309412*
X529099Y315676D02*
X531658D01*
X529099Y318235*
X531658*
X529099Y315676*
Y311500D02*
X531658D01*
X529099Y314059*
X531658*
X529099Y311500*
Y307324D02*
X531658D01*
X529099Y309883*
X531658*
X529099Y307324*
X105196Y318163D02*
X107755D01*
X105196Y320723*
X107755*
X105196Y318163*
X101020D02*
X103580D01*
X101020Y320723*
X103580*
X101020Y318163*
X117724D02*
X120283D01*
X117724Y320723*
X120283*
X117724Y318163*
X113548D02*
X116107D01*
X113548Y320723*
X116107*
X113548Y318163*
X109372D02*
X111931D01*
X109372Y320723*
X111931*
X109372Y318163*
X123988Y320251D02*
X126547D01*
X123988Y322810*
X126547*
X123988Y320251*
X121900Y318163D02*
X124459D01*
X121900Y320723*
X124459*
X121900Y318163*
X119812Y320251D02*
X122371D01*
X119812Y322810*
X122371*
X119812Y320251*
X508220Y319851D02*
X510779D01*
X508220Y322410*
X510779*
X508220Y319851*
X506132Y321939D02*
X508691D01*
X506132Y324498*
X508691*
X506132Y321939*
Y317763D02*
X508691D01*
X506132Y320323*
X508691*
X506132Y317763*
X516572Y319851D02*
X519131D01*
X516572Y322410*
X519131*
X516572Y319851*
X514484Y317763D02*
X517043D01*
X514484Y320323*
X517043*
X514484Y317763*
X512396Y319851D02*
X514955D01*
X512396Y322410*
X514955*
X512396Y319851*
X510308Y317763D02*
X512867D01*
X510308Y320323*
X512867*
X510308Y317763*
X527011D02*
X529570D01*
X527011Y320323*
X529570*
X527011Y317763*
X522836D02*
X525395D01*
X522836Y320323*
X525395*
X522836Y317763*
X518660D02*
X521219D01*
X518660Y320323*
X521219*
X518660Y317763*
X506132Y346994D02*
X508691D01*
X506132Y349553*
X508691*
X506132Y346994*
X107284Y353658D02*
X109843D01*
X107284Y356217*
X109843*
X107284Y353658*
X105196Y355746D02*
X107755D01*
X105196Y358305*
X107755*
X105196Y355746*
Y351570D02*
X107755D01*
X105196Y354129*
X107755*
X105196Y351570*
X103108Y353658D02*
X105667D01*
X103108Y356217*
X105667*
X103108Y353658*
X101020Y355746D02*
X103580D01*
X101020Y358305*
X103580*
X101020Y355746*
Y351570D02*
X103580D01*
X101020Y354129*
X103580*
X101020Y351570*
X117724Y355746D02*
X120283D01*
X117724Y358305*
X120283*
X117724Y355746*
Y351570D02*
X120283D01*
X117724Y354129*
X120283*
X117724Y351570*
X115636Y353658D02*
X118195D01*
X115636Y356217*
X118195*
X115636Y353658*
X113548Y355746D02*
X116107D01*
X113548Y358305*
X116107*
X113548Y355746*
Y351570D02*
X116107D01*
X113548Y354129*
X116107*
X113548Y351570*
X111460Y353658D02*
X114019D01*
X111460Y356217*
X114019*
X111460Y353658*
X109372Y355746D02*
X111931D01*
X109372Y358305*
X111931*
X109372Y355746*
Y351570D02*
X111931D01*
X109372Y354129*
X111931*
X109372Y351570*
X123988Y353658D02*
X126547D01*
X123988Y356217*
X126547*
X123988Y353658*
Y349482D02*
X126547D01*
X123988Y352041*
X126547*
X123988Y349482*
X121900Y355746D02*
X124459D01*
X121900Y358305*
X124459*
X121900Y355746*
Y351570D02*
X124459D01*
X121900Y354129*
X124459*
X121900Y351570*
X119812Y353658D02*
X122371D01*
X119812Y356217*
X122371*
X119812Y353658*
Y349482D02*
X122371D01*
X119812Y352041*
X122371*
X119812Y349482*
X508220Y353258D02*
X510779D01*
X508220Y355817*
X510779*
X508220Y353258*
Y349082D02*
X510779D01*
X508220Y351641*
X510779*
X508220Y349082*
X506132Y355346D02*
X508691D01*
X506132Y357905*
X508691*
X506132Y355346*
Y351170D02*
X508691D01*
X506132Y353729*
X508691*
X506132Y351170*
X516572Y353258D02*
X519131D01*
X516572Y355817*
X519131*
X516572Y353258*
X514484Y355346D02*
X517043D01*
X514484Y357905*
X517043*
X514484Y355346*
X512396Y353258D02*
X514955D01*
X512396Y355817*
X514955*
X512396Y353258*
X510308Y355346D02*
X512867D01*
X510308Y357905*
X512867*
X510308Y355346*
Y351170D02*
X512867D01*
X510308Y353729*
X512867*
X510308Y351170*
X527011Y355346D02*
X529570D01*
X527011Y357905*
X529570*
X527011Y355346*
X524924Y353258D02*
X527483D01*
X524924Y355817*
X527483*
X524924Y353258*
X522836Y355346D02*
X525395D01*
X522836Y357905*
X525395*
X522836Y355346*
X520748Y353258D02*
X523307D01*
X520748Y355817*
X523307*
X520748Y353258*
X518660Y355346D02*
X521219D01*
X518660Y357905*
X521219*
X518660Y355346*
X529099Y353258D02*
X531658D01*
X529099Y355817*
X531658*
X529099Y353258*
X107284Y366185D02*
X109843D01*
X107284Y368745*
X109843*
X107284Y366185*
Y362010D02*
X109843D01*
X107284Y364569*
X109843*
X107284Y362010*
Y357834D02*
X109843D01*
X107284Y360393*
X109843*
X107284Y357834*
X105196Y364098D02*
X107755D01*
X105196Y366657*
X107755*
X105196Y364098*
Y359922D02*
X107755D01*
X105196Y362481*
X107755*
X105196Y359922*
X103108Y366185D02*
X105667D01*
X103108Y368745*
X105667*
X103108Y366185*
Y362010D02*
X105667D01*
X103108Y364569*
X105667*
X103108Y362010*
Y357834D02*
X105667D01*
X103108Y360393*
X105667*
X103108Y357834*
X101020Y364098D02*
X103580D01*
X101020Y366657*
X103580*
X101020Y364098*
Y359922D02*
X103580D01*
X101020Y362481*
X103580*
X101020Y359922*
X117724Y364098D02*
X120283D01*
X117724Y366657*
X120283*
X117724Y364098*
Y359922D02*
X120283D01*
X117724Y362481*
X120283*
X117724Y359922*
X115636Y366185D02*
X118195D01*
X115636Y368745*
X118195*
X115636Y366185*
Y362010D02*
X118195D01*
X115636Y364569*
X118195*
X115636Y362010*
Y357834D02*
X118195D01*
X115636Y360393*
X118195*
X115636Y357834*
X113548Y364098D02*
X116107D01*
X113548Y366657*
X116107*
X113548Y364098*
Y359922D02*
X116107D01*
X113548Y362481*
X116107*
X113548Y359922*
X111460Y366185D02*
X114019D01*
X111460Y368745*
X114019*
X111460Y366185*
Y362010D02*
X114019D01*
X111460Y364569*
X114019*
X111460Y362010*
Y357834D02*
X114019D01*
X111460Y360393*
X114019*
X111460Y357834*
X109372Y364098D02*
X111931D01*
X109372Y366657*
X111931*
X109372Y364098*
Y359922D02*
X111931D01*
X109372Y362481*
X111931*
X109372Y359922*
X123988Y366185D02*
X126547D01*
X123988Y368745*
X126547*
X123988Y366185*
Y362010D02*
X126547D01*
X123988Y364569*
X126547*
X123988Y362010*
Y357834D02*
X126547D01*
X123988Y360393*
X126547*
X123988Y357834*
X121900Y364098D02*
X124459D01*
X121900Y366657*
X124459*
X121900Y364098*
Y359922D02*
X124459D01*
X121900Y362481*
X124459*
X121900Y359922*
X119812Y366185D02*
X122371D01*
X119812Y368745*
X122371*
X119812Y366185*
Y362010D02*
X122371D01*
X119812Y364569*
X122371*
X119812Y362010*
Y357834D02*
X122371D01*
X119812Y360393*
X122371*
X119812Y357834*
X508220Y365785D02*
X510779D01*
X508220Y368345*
X510779*
X508220Y365785*
Y361610D02*
X510779D01*
X508220Y364169*
X510779*
X508220Y361610*
Y357434D02*
X510779D01*
X508220Y359993*
X510779*
X508220Y357434*
X506132Y363698D02*
X508691D01*
X506132Y366257*
X508691*
X506132Y363698*
Y359522D02*
X508691D01*
X506132Y362081*
X508691*
X506132Y359522*
X516572Y365785D02*
X519131D01*
X516572Y368345*
X519131*
X516572Y365785*
Y361610D02*
X519131D01*
X516572Y364169*
X519131*
X516572Y361610*
Y357434D02*
X519131D01*
X516572Y359993*
X519131*
X516572Y357434*
X514484Y363698D02*
X517043D01*
X514484Y366257*
X517043*
X514484Y363698*
Y359522D02*
X517043D01*
X514484Y362081*
X517043*
X514484Y359522*
X512396Y365785D02*
X514955D01*
X512396Y368345*
X514955*
X512396Y365785*
Y361610D02*
X514955D01*
X512396Y364169*
X514955*
X512396Y361610*
Y357434D02*
X514955D01*
X512396Y359993*
X514955*
X512396Y357434*
X510308Y363698D02*
X512867D01*
X510308Y366257*
X512867*
X510308Y363698*
Y359522D02*
X512867D01*
X510308Y362081*
X512867*
X510308Y359522*
X527011Y363698D02*
X529570D01*
X527011Y366257*
X529570*
X527011Y363698*
Y359522D02*
X529570D01*
X527011Y362081*
X529570*
X527011Y359522*
X524924Y365785D02*
X527483D01*
X524924Y368345*
X527483*
X524924Y365785*
Y361610D02*
X527483D01*
X524924Y364169*
X527483*
X524924Y361610*
Y357434D02*
X527483D01*
X524924Y359993*
X527483*
X524924Y357434*
X522836Y363698D02*
X525395D01*
X522836Y366257*
X525395*
X522836Y363698*
Y359522D02*
X525395D01*
X522836Y362081*
X525395*
X522836Y359522*
X520748Y365785D02*
X523307D01*
X520748Y368345*
X523307*
X520748Y365785*
Y361610D02*
X523307D01*
X520748Y364169*
X523307*
X520748Y361610*
Y357434D02*
X523307D01*
X520748Y359993*
X523307*
X520748Y357434*
X518660Y363698D02*
X521219D01*
X518660Y366257*
X521219*
X518660Y363698*
Y359522D02*
X521219D01*
X518660Y362081*
X521219*
X518660Y359522*
X529099Y365785D02*
X531658D01*
X529099Y368345*
X531658*
X529099Y365785*
Y361610D02*
X531658D01*
X529099Y364169*
X531658*
X529099Y361610*
Y357434D02*
X531658D01*
X529099Y359993*
X531658*
X529099Y357434*
X107284Y374537D02*
X109843D01*
X107284Y377096*
X109843*
X107284Y374537*
Y370361D02*
X109843D01*
X107284Y372920*
X109843*
X107284Y370361*
X105196Y376625D02*
X107755D01*
X105196Y379184*
X107755*
X105196Y376625*
Y372449D02*
X107755D01*
X105196Y375008*
X107755*
X105196Y372449*
Y368273D02*
X107755D01*
X105196Y370832*
X107755*
X105196Y368273*
X103108Y374537D02*
X105667D01*
X103108Y377096*
X105667*
X103108Y374537*
Y370361D02*
X105667D01*
X103108Y372920*
X105667*
X103108Y370361*
X101020Y376625D02*
X103580D01*
X101020Y379184*
X103580*
X101020Y376625*
Y372449D02*
X103580D01*
X101020Y375008*
X103580*
X101020Y372449*
Y368273D02*
X103580D01*
X101020Y370832*
X103580*
X101020Y368273*
X117724Y376625D02*
X120283D01*
X117724Y379184*
X120283*
X117724Y376625*
Y372449D02*
X120283D01*
X117724Y375008*
X120283*
X117724Y372449*
Y368273D02*
X120283D01*
X117724Y370832*
X120283*
X117724Y368273*
X115636Y374537D02*
X118195D01*
X115636Y377096*
X118195*
X115636Y374537*
Y370361D02*
X118195D01*
X115636Y372920*
X118195*
X115636Y370361*
X113548Y376625D02*
X116107D01*
X113548Y379184*
X116107*
X113548Y376625*
Y372449D02*
X116107D01*
X113548Y375008*
X116107*
X113548Y372449*
Y368273D02*
X116107D01*
X113548Y370832*
X116107*
X113548Y368273*
X111460Y374537D02*
X114019D01*
X111460Y377096*
X114019*
X111460Y374537*
Y370361D02*
X114019D01*
X111460Y372920*
X114019*
X111460Y370361*
X109372Y376625D02*
X111931D01*
X109372Y379184*
X111931*
X109372Y376625*
Y372449D02*
X111931D01*
X109372Y375008*
X111931*
X109372Y372449*
Y368273D02*
X111931D01*
X109372Y370832*
X111931*
X109372Y368273*
X123988Y374537D02*
X126547D01*
X123988Y377096*
X126547*
X123988Y374537*
Y370361D02*
X126547D01*
X123988Y372920*
X126547*
X123988Y370361*
X121900Y376625D02*
X124459D01*
X121900Y379184*
X124459*
X121900Y376625*
Y372449D02*
X124459D01*
X121900Y375008*
X124459*
X121900Y372449*
Y368273D02*
X124459D01*
X121900Y370832*
X124459*
X121900Y368273*
X119812Y374537D02*
X122371D01*
X119812Y377096*
X122371*
X119812Y374537*
Y370361D02*
X122371D01*
X119812Y372920*
X122371*
X119812Y370361*
X508220Y374137D02*
X510779D01*
X508220Y376696*
X510779*
X508220Y374137*
Y369961D02*
X510779D01*
X508220Y372520*
X510779*
X508220Y369961*
X506132Y376225D02*
X508691D01*
X506132Y378784*
X508691*
X506132Y376225*
Y372049D02*
X508691D01*
X506132Y374608*
X508691*
X506132Y372049*
Y367873D02*
X508691D01*
X506132Y370432*
X508691*
X506132Y367873*
X516572Y374137D02*
X519131D01*
X516572Y376696*
X519131*
X516572Y374137*
Y369961D02*
X519131D01*
X516572Y372520*
X519131*
X516572Y369961*
X514484Y376225D02*
X517043D01*
X514484Y378784*
X517043*
X514484Y376225*
Y372049D02*
X517043D01*
X514484Y374608*
X517043*
X514484Y372049*
Y367873D02*
X517043D01*
X514484Y370432*
X517043*
X514484Y367873*
X512396Y374137D02*
X514955D01*
X512396Y376696*
X514955*
X512396Y374137*
Y369961D02*
X514955D01*
X512396Y372520*
X514955*
X512396Y369961*
X510308Y376225D02*
X512867D01*
X510308Y378784*
X512867*
X510308Y376225*
Y372049D02*
X512867D01*
X510308Y374608*
X512867*
X510308Y372049*
Y367873D02*
X512867D01*
X510308Y370432*
X512867*
X510308Y367873*
X527011Y376225D02*
X529570D01*
X527011Y378784*
X529570*
X527011Y376225*
Y372049D02*
X529570D01*
X527011Y374608*
X529570*
X527011Y372049*
Y367873D02*
X529570D01*
X527011Y370432*
X529570*
X527011Y367873*
X524924Y374137D02*
X527483D01*
X524924Y376696*
X527483*
X524924Y374137*
Y369961D02*
X527483D01*
X524924Y372520*
X527483*
X524924Y369961*
X522836Y376225D02*
X525395D01*
X522836Y378784*
X525395*
X522836Y376225*
Y372049D02*
X525395D01*
X522836Y374608*
X525395*
X522836Y372049*
Y367873D02*
X525395D01*
X522836Y370432*
X525395*
X522836Y367873*
X520748Y374137D02*
X523307D01*
X520748Y376696*
X523307*
X520748Y374137*
Y369961D02*
X523307D01*
X520748Y372520*
X523307*
X520748Y369961*
X518660Y376225D02*
X521219D01*
X518660Y378784*
X521219*
X518660Y376225*
Y372049D02*
X521219D01*
X518660Y374608*
X521219*
X518660Y372049*
Y367873D02*
X521219D01*
X518660Y370432*
X521219*
X518660Y367873*
X529099Y374137D02*
X531658D01*
X529099Y376696*
X531658*
X529099Y374137*
Y369961D02*
X531658D01*
X529099Y372520*
X531658*
X529099Y369961*
X123988Y378713D02*
X126547D01*
X123988Y381272*
X126547*
X123988Y378713*
X119812D02*
X122371D01*
X119812Y381272*
X122371*
X119812Y378713*
X115636D02*
X118195D01*
X115636Y381272*
X118195*
X115636Y378713*
X111460D02*
X114019D01*
X111460Y381272*
X114019*
X111460Y378713*
X107284D02*
X109843D01*
X107284Y381272*
X109843*
X107284Y378713*
X103108D02*
X105667D01*
X103108Y381272*
X105667*
X103108Y378713*
X529099Y378313D02*
X531658D01*
X529099Y380872*
X531658*
X529099Y378313*
X524924D02*
X527483D01*
X524924Y380872*
X527483*
X524924Y378313*
X520748D02*
X523307D01*
X520748Y380872*
X523307*
X520748Y378313*
X516572D02*
X519131D01*
X516572Y380872*
X519131*
X516572Y378313*
X512396D02*
X514955D01*
X512396Y380872*
X514955*
X512396Y378313*
X508220D02*
X510779D01*
X508220Y380872*
X510779*
X508220Y378313*
X123988Y441350D02*
X126547D01*
X123988Y443909*
X126547*
X123988Y441350*
Y437175D02*
X126547D01*
X123988Y439734*
X126547*
X123988Y437175*
Y432999D02*
X126547D01*
X123988Y435558*
X126547*
X123988Y432999*
Y428823D02*
X126547D01*
X123988Y431382*
X126547*
X123988Y428823*
Y424647D02*
X126547D01*
X123988Y427206*
X126547*
X123988Y424647*
Y420471D02*
X126547D01*
X123988Y423030*
X126547*
X123988Y420471*
Y416295D02*
X126547D01*
X123988Y418854*
X126547*
X123988Y416295*
Y412120D02*
X126547D01*
X123988Y414679*
X126547*
X123988Y412120*
Y407944D02*
X126547D01*
X123988Y410503*
X126547*
X123988Y407944*
Y403768D02*
X126547D01*
X123988Y406327*
X126547*
X123988Y403768*
Y399592D02*
X126547D01*
X123988Y402151*
X126547*
X123988Y399592*
Y395416D02*
X126547D01*
X123988Y397975*
X126547*
X123988Y395416*
Y391240D02*
X126547D01*
X123988Y393799*
X126547*
X123988Y391240*
Y387065D02*
X126547D01*
X123988Y389624*
X126547*
X123988Y387065*
Y382889D02*
X126547D01*
X123988Y385448*
X126547*
X123988Y382889*
X121900Y439262D02*
X124459D01*
X121900Y441821*
X124459*
X121900Y439262*
Y435087D02*
X124459D01*
X121900Y437646*
X124459*
X121900Y435087*
Y430911D02*
X124459D01*
X121900Y433470*
X124459*
X121900Y430911*
Y426735D02*
X124459D01*
X121900Y429294*
X124459*
X121900Y426735*
Y422559D02*
X124459D01*
X121900Y425118*
X124459*
X121900Y422559*
Y418383D02*
X124459D01*
X121900Y420942*
X124459*
X121900Y418383*
Y414207D02*
X124459D01*
X121900Y416767*
X124459*
X121900Y414207*
Y410032D02*
X124459D01*
X121900Y412591*
X124459*
X121900Y410032*
Y405856D02*
X124459D01*
X121900Y408415*
X124459*
X121900Y405856*
Y401680D02*
X124459D01*
X121900Y404239*
X124459*
X121900Y401680*
Y389153D02*
X124459D01*
X121900Y391712*
X124459*
X121900Y389153*
Y384977D02*
X124459D01*
X121900Y387536*
X124459*
X121900Y384977*
Y380801D02*
X124459D01*
X121900Y383360*
X124459*
X121900Y380801*
X119812Y441350D02*
X122371D01*
X119812Y443909*
X122371*
X119812Y441350*
Y437175D02*
X122371D01*
X119812Y439734*
X122371*
X119812Y437175*
Y432999D02*
X122371D01*
X119812Y435558*
X122371*
X119812Y432999*
Y428823D02*
X122371D01*
X119812Y431382*
X122371*
X119812Y428823*
Y424647D02*
X122371D01*
X119812Y427206*
X122371*
X119812Y424647*
Y420471D02*
X122371D01*
X119812Y423030*
X122371*
X119812Y420471*
Y416295D02*
X122371D01*
X119812Y418854*
X122371*
X119812Y416295*
Y412120D02*
X122371D01*
X119812Y414679*
X122371*
X119812Y412120*
Y407944D02*
X122371D01*
X119812Y410503*
X122371*
X119812Y407944*
Y403768D02*
X122371D01*
X119812Y406327*
X122371*
X119812Y403768*
Y387065D02*
X122371D01*
X119812Y389624*
X122371*
X119812Y387065*
Y382889D02*
X122371D01*
X119812Y385448*
X122371*
X119812Y382889*
X117724Y439262D02*
X120283D01*
X117724Y441821*
X120283*
X117724Y439262*
Y435087D02*
X120283D01*
X117724Y437646*
X120283*
X117724Y435087*
Y430911D02*
X120283D01*
X117724Y433470*
X120283*
X117724Y430911*
Y426735D02*
X120283D01*
X117724Y429294*
X120283*
X117724Y426735*
Y422559D02*
X120283D01*
X117724Y425118*
X120283*
X117724Y422559*
Y418383D02*
X120283D01*
X117724Y420942*
X120283*
X117724Y418383*
Y414207D02*
X120283D01*
X117724Y416767*
X120283*
X117724Y414207*
Y410032D02*
X120283D01*
X117724Y412591*
X120283*
X117724Y410032*
Y405856D02*
X120283D01*
X117724Y408415*
X120283*
X117724Y405856*
Y384977D02*
X120283D01*
X117724Y387536*
X120283*
X117724Y384977*
Y380801D02*
X120283D01*
X117724Y383360*
X120283*
X117724Y380801*
X115636Y441350D02*
X118195D01*
X115636Y443909*
X118195*
X115636Y441350*
Y437175D02*
X118195D01*
X115636Y439734*
X118195*
X115636Y437175*
Y432999D02*
X118195D01*
X115636Y435558*
X118195*
X115636Y432999*
Y428823D02*
X118195D01*
X115636Y431382*
X118195*
X115636Y428823*
Y424647D02*
X118195D01*
X115636Y427206*
X118195*
X115636Y424647*
Y420471D02*
X118195D01*
X115636Y423030*
X118195*
X115636Y420471*
Y416295D02*
X118195D01*
X115636Y418854*
X118195*
X115636Y416295*
Y412120D02*
X118195D01*
X115636Y414679*
X118195*
X115636Y412120*
Y407944D02*
X118195D01*
X115636Y410503*
X118195*
X115636Y407944*
Y382889D02*
X118195D01*
X115636Y385448*
X118195*
X115636Y382889*
X113548Y439262D02*
X116107D01*
X113548Y441821*
X116107*
X113548Y439262*
Y435087D02*
X116107D01*
X113548Y437646*
X116107*
X113548Y435087*
Y430911D02*
X116107D01*
X113548Y433470*
X116107*
X113548Y430911*
Y426735D02*
X116107D01*
X113548Y429294*
X116107*
X113548Y426735*
Y422559D02*
X116107D01*
X113548Y425118*
X116107*
X113548Y422559*
Y418383D02*
X116107D01*
X113548Y420942*
X116107*
X113548Y418383*
Y414207D02*
X116107D01*
X113548Y416767*
X116107*
X113548Y414207*
Y410032D02*
X116107D01*
X113548Y412591*
X116107*
X113548Y410032*
Y405856D02*
X116107D01*
X113548Y408415*
X116107*
X113548Y405856*
Y380801D02*
X116107D01*
X113548Y383360*
X116107*
X113548Y380801*
X111460Y441350D02*
X114019D01*
X111460Y443909*
X114019*
X111460Y441350*
Y437175D02*
X114019D01*
X111460Y439734*
X114019*
X111460Y437175*
Y432999D02*
X114019D01*
X111460Y435558*
X114019*
X111460Y432999*
Y428823D02*
X114019D01*
X111460Y431382*
X114019*
X111460Y428823*
Y424647D02*
X114019D01*
X111460Y427206*
X114019*
X111460Y424647*
Y420471D02*
X114019D01*
X111460Y423030*
X114019*
X111460Y420471*
Y416295D02*
X114019D01*
X111460Y418854*
X114019*
X111460Y416295*
Y412120D02*
X114019D01*
X111460Y414679*
X114019*
X111460Y412120*
Y407944D02*
X114019D01*
X111460Y410503*
X114019*
X111460Y407944*
Y382889D02*
X114019D01*
X111460Y385448*
X114019*
X111460Y382889*
X109372Y439262D02*
X111931D01*
X109372Y441821*
X111931*
X109372Y439262*
Y435087D02*
X111931D01*
X109372Y437646*
X111931*
X109372Y435087*
Y430911D02*
X111931D01*
X109372Y433470*
X111931*
X109372Y430911*
Y426735D02*
X111931D01*
X109372Y429294*
X111931*
X109372Y426735*
Y422559D02*
X111931D01*
X109372Y425118*
X111931*
X109372Y422559*
Y418383D02*
X111931D01*
X109372Y420942*
X111931*
X109372Y418383*
Y414207D02*
X111931D01*
X109372Y416767*
X111931*
X109372Y414207*
Y410032D02*
X111931D01*
X109372Y412591*
X111931*
X109372Y410032*
Y405856D02*
X111931D01*
X109372Y408415*
X111931*
X109372Y405856*
Y380801D02*
X111931D01*
X109372Y383360*
X111931*
X109372Y380801*
X107284Y441350D02*
X109843D01*
X107284Y443909*
X109843*
X107284Y441350*
Y437175D02*
X109843D01*
X107284Y439734*
X109843*
X107284Y437175*
Y432999D02*
X109843D01*
X107284Y435558*
X109843*
X107284Y432999*
Y428823D02*
X109843D01*
X107284Y431382*
X109843*
X107284Y428823*
Y424647D02*
X109843D01*
X107284Y427206*
X109843*
X107284Y424647*
Y420471D02*
X109843D01*
X107284Y423030*
X109843*
X107284Y420471*
Y416295D02*
X109843D01*
X107284Y418854*
X109843*
X107284Y416295*
Y412120D02*
X109843D01*
X107284Y414679*
X109843*
X107284Y412120*
Y407944D02*
X109843D01*
X107284Y410503*
X109843*
X107284Y407944*
Y403768D02*
X109843D01*
X107284Y406327*
X109843*
X107284Y403768*
Y382889D02*
X109843D01*
X107284Y385448*
X109843*
X107284Y382889*
X105196Y439262D02*
X107755D01*
X105196Y441821*
X107755*
X105196Y439262*
Y435087D02*
X107755D01*
X105196Y437646*
X107755*
X105196Y435087*
Y430911D02*
X107755D01*
X105196Y433470*
X107755*
X105196Y430911*
Y426735D02*
X107755D01*
X105196Y429294*
X107755*
X105196Y426735*
Y422559D02*
X107755D01*
X105196Y425118*
X107755*
X105196Y422559*
Y418383D02*
X107755D01*
X105196Y420942*
X107755*
X105196Y418383*
Y414207D02*
X107755D01*
X105196Y416767*
X107755*
X105196Y414207*
Y410032D02*
X107755D01*
X105196Y412591*
X107755*
X105196Y410032*
Y405856D02*
X107755D01*
X105196Y408415*
X107755*
X105196Y405856*
Y401680D02*
X107755D01*
X105196Y404239*
X107755*
X105196Y401680*
Y384977D02*
X107755D01*
X105196Y387536*
X107755*
X105196Y384977*
Y380801D02*
X107755D01*
X105196Y383360*
X107755*
X105196Y380801*
X103108Y441350D02*
X105667D01*
X103108Y443909*
X105667*
X103108Y441350*
Y437175D02*
X105667D01*
X103108Y439734*
X105667*
X103108Y437175*
Y432999D02*
X105667D01*
X103108Y435558*
X105667*
X103108Y432999*
Y428823D02*
X105667D01*
X103108Y431382*
X105667*
X103108Y428823*
Y424647D02*
X105667D01*
X103108Y427206*
X105667*
X103108Y424647*
Y420471D02*
X105667D01*
X103108Y423030*
X105667*
X103108Y420471*
Y416295D02*
X105667D01*
X103108Y418854*
X105667*
X103108Y416295*
Y412120D02*
X105667D01*
X103108Y414679*
X105667*
X103108Y412120*
Y407944D02*
X105667D01*
X103108Y410503*
X105667*
X103108Y407944*
Y403768D02*
X105667D01*
X103108Y406327*
X105667*
X103108Y403768*
Y399592D02*
X105667D01*
X103108Y402151*
X105667*
X103108Y399592*
Y387065D02*
X105667D01*
X103108Y389624*
X105667*
X103108Y387065*
Y382889D02*
X105667D01*
X103108Y385448*
X105667*
X103108Y382889*
X101020Y439262D02*
X103580D01*
X101020Y441821*
X103580*
X101020Y439262*
Y435087D02*
X103580D01*
X101020Y437646*
X103580*
X101020Y435087*
Y430911D02*
X103580D01*
X101020Y433470*
X103580*
X101020Y430911*
Y426735D02*
X103580D01*
X101020Y429294*
X103580*
X101020Y426735*
Y422559D02*
X103580D01*
X101020Y425118*
X103580*
X101020Y422559*
Y418383D02*
X103580D01*
X101020Y420942*
X103580*
X101020Y418383*
Y414207D02*
X103580D01*
X101020Y416767*
X103580*
X101020Y414207*
Y410032D02*
X103580D01*
X101020Y412591*
X103580*
X101020Y410032*
Y405856D02*
X103580D01*
X101020Y408415*
X103580*
X101020Y405856*
Y401680D02*
X103580D01*
X101020Y404239*
X103580*
X101020Y401680*
Y397504D02*
X103580D01*
X101020Y400063*
X103580*
X101020Y397504*
Y393328D02*
X103580D01*
X101020Y395887*
X103580*
X101020Y393328*
Y389153D02*
X103580D01*
X101020Y391712*
X103580*
X101020Y389153*
Y384977D02*
X103580D01*
X101020Y387536*
X103580*
X101020Y384977*
Y380801D02*
X103580D01*
X101020Y383360*
X103580*
X101020Y380801*
X529099Y440950D02*
X531658D01*
X529099Y443509*
X531658*
X529099Y440950*
Y436775D02*
X531658D01*
X529099Y439334*
X531658*
X529099Y436775*
Y432599D02*
X531658D01*
X529099Y435158*
X531658*
X529099Y432599*
Y428423D02*
X531658D01*
X529099Y430982*
X531658*
X529099Y428423*
Y424247D02*
X531658D01*
X529099Y426806*
X531658*
X529099Y424247*
Y420071D02*
X531658D01*
X529099Y422630*
X531658*
X529099Y420071*
Y415895D02*
X531658D01*
X529099Y418454*
X531658*
X529099Y415895*
Y411720D02*
X531658D01*
X529099Y414279*
X531658*
X529099Y411720*
Y407544D02*
X531658D01*
X529099Y410103*
X531658*
X529099Y407544*
Y403368D02*
X531658D01*
X529099Y405927*
X531658*
X529099Y403368*
Y399192D02*
X531658D01*
X529099Y401751*
X531658*
X529099Y399192*
Y395016D02*
X531658D01*
X529099Y397575*
X531658*
X529099Y395016*
Y390840D02*
X531658D01*
X529099Y393399*
X531658*
X529099Y390840*
Y386665D02*
X531658D01*
X529099Y389224*
X531658*
X529099Y386665*
Y382489D02*
X531658D01*
X529099Y385048*
X531658*
X529099Y382489*
X527011Y443038D02*
X529570D01*
X527011Y445597*
X529570*
X527011Y443038*
Y438862D02*
X529570D01*
X527011Y441421*
X529570*
X527011Y438862*
Y434687D02*
X529570D01*
X527011Y437246*
X529570*
X527011Y434687*
Y430511D02*
X529570D01*
X527011Y433070*
X529570*
X527011Y430511*
Y426335D02*
X529570D01*
X527011Y428894*
X529570*
X527011Y426335*
Y422159D02*
X529570D01*
X527011Y424718*
X529570*
X527011Y422159*
Y417983D02*
X529570D01*
X527011Y420542*
X529570*
X527011Y417983*
Y413807D02*
X529570D01*
X527011Y416367*
X529570*
X527011Y413807*
Y409632D02*
X529570D01*
X527011Y412191*
X529570*
X527011Y409632*
Y405456D02*
X529570D01*
X527011Y408015*
X529570*
X527011Y405456*
Y401280D02*
X529570D01*
X527011Y403839*
X529570*
X527011Y401280*
Y388753D02*
X529570D01*
X527011Y391312*
X529570*
X527011Y388753*
Y384577D02*
X529570D01*
X527011Y387136*
X529570*
X527011Y384577*
Y380401D02*
X529570D01*
X527011Y382960*
X529570*
X527011Y380401*
X524924Y440950D02*
X527483D01*
X524924Y443509*
X527483*
X524924Y440950*
Y436775D02*
X527483D01*
X524924Y439334*
X527483*
X524924Y436775*
Y432599D02*
X527483D01*
X524924Y435158*
X527483*
X524924Y432599*
Y428423D02*
X527483D01*
X524924Y430982*
X527483*
X524924Y428423*
Y424247D02*
X527483D01*
X524924Y426806*
X527483*
X524924Y424247*
Y420071D02*
X527483D01*
X524924Y422630*
X527483*
X524924Y420071*
Y415895D02*
X527483D01*
X524924Y418454*
X527483*
X524924Y415895*
Y411720D02*
X527483D01*
X524924Y414279*
X527483*
X524924Y411720*
Y407544D02*
X527483D01*
X524924Y410103*
X527483*
X524924Y407544*
Y403368D02*
X527483D01*
X524924Y405927*
X527483*
X524924Y403368*
Y386665D02*
X527483D01*
X524924Y389224*
X527483*
X524924Y386665*
Y382489D02*
X527483D01*
X524924Y385048*
X527483*
X524924Y382489*
X522836Y443038D02*
X525395D01*
X522836Y445597*
X525395*
X522836Y443038*
Y438862D02*
X525395D01*
X522836Y441421*
X525395*
X522836Y438862*
Y434687D02*
X525395D01*
X522836Y437246*
X525395*
X522836Y434687*
Y430511D02*
X525395D01*
X522836Y433070*
X525395*
X522836Y430511*
Y426335D02*
X525395D01*
X522836Y428894*
X525395*
X522836Y426335*
Y422159D02*
X525395D01*
X522836Y424718*
X525395*
X522836Y422159*
Y417983D02*
X525395D01*
X522836Y420542*
X525395*
X522836Y417983*
Y413807D02*
X525395D01*
X522836Y416367*
X525395*
X522836Y413807*
Y409632D02*
X525395D01*
X522836Y412191*
X525395*
X522836Y409632*
Y405456D02*
X525395D01*
X522836Y408015*
X525395*
X522836Y405456*
Y384577D02*
X525395D01*
X522836Y387136*
X525395*
X522836Y384577*
Y380401D02*
X525395D01*
X522836Y382960*
X525395*
X522836Y380401*
X520748Y440950D02*
X523307D01*
X520748Y443509*
X523307*
X520748Y440950*
Y436775D02*
X523307D01*
X520748Y439334*
X523307*
X520748Y436775*
Y432599D02*
X523307D01*
X520748Y435158*
X523307*
X520748Y432599*
Y428423D02*
X523307D01*
X520748Y430982*
X523307*
X520748Y428423*
Y424247D02*
X523307D01*
X520748Y426806*
X523307*
X520748Y424247*
Y420071D02*
X523307D01*
X520748Y422630*
X523307*
X520748Y420071*
Y415895D02*
X523307D01*
X520748Y418454*
X523307*
X520748Y415895*
Y411720D02*
X523307D01*
X520748Y414279*
X523307*
X520748Y411720*
Y407544D02*
X523307D01*
X520748Y410103*
X523307*
X520748Y407544*
Y382489D02*
X523307D01*
X520748Y385048*
X523307*
X520748Y382489*
X518660Y443038D02*
X521219D01*
X518660Y445597*
X521219*
X518660Y443038*
Y438862D02*
X521219D01*
X518660Y441421*
X521219*
X518660Y438862*
Y434687D02*
X521219D01*
X518660Y437246*
X521219*
X518660Y434687*
Y430511D02*
X521219D01*
X518660Y433070*
X521219*
X518660Y430511*
Y426335D02*
X521219D01*
X518660Y428894*
X521219*
X518660Y426335*
Y422159D02*
X521219D01*
X518660Y424718*
X521219*
X518660Y422159*
Y417983D02*
X521219D01*
X518660Y420542*
X521219*
X518660Y417983*
Y413807D02*
X521219D01*
X518660Y416367*
X521219*
X518660Y413807*
Y409632D02*
X521219D01*
X518660Y412191*
X521219*
X518660Y409632*
Y405456D02*
X521219D01*
X518660Y408015*
X521219*
X518660Y405456*
Y380401D02*
X521219D01*
X518660Y382960*
X521219*
X518660Y380401*
X516572Y440950D02*
X519131D01*
X516572Y443509*
X519131*
X516572Y440950*
Y436775D02*
X519131D01*
X516572Y439334*
X519131*
X516572Y436775*
Y432599D02*
X519131D01*
X516572Y435158*
X519131*
X516572Y432599*
Y428423D02*
X519131D01*
X516572Y430982*
X519131*
X516572Y428423*
Y424247D02*
X519131D01*
X516572Y426806*
X519131*
X516572Y424247*
Y420071D02*
X519131D01*
X516572Y422630*
X519131*
X516572Y420071*
Y415895D02*
X519131D01*
X516572Y418454*
X519131*
X516572Y415895*
Y411720D02*
X519131D01*
X516572Y414279*
X519131*
X516572Y411720*
Y407544D02*
X519131D01*
X516572Y410103*
X519131*
X516572Y407544*
Y382489D02*
X519131D01*
X516572Y385048*
X519131*
X516572Y382489*
X514484Y443038D02*
X517043D01*
X514484Y445597*
X517043*
X514484Y443038*
Y438862D02*
X517043D01*
X514484Y441421*
X517043*
X514484Y438862*
Y434687D02*
X517043D01*
X514484Y437246*
X517043*
X514484Y434687*
Y430511D02*
X517043D01*
X514484Y433070*
X517043*
X514484Y430511*
Y426335D02*
X517043D01*
X514484Y428894*
X517043*
X514484Y426335*
Y422159D02*
X517043D01*
X514484Y424718*
X517043*
X514484Y422159*
Y417983D02*
X517043D01*
X514484Y420542*
X517043*
X514484Y417983*
Y413807D02*
X517043D01*
X514484Y416367*
X517043*
X514484Y413807*
Y409632D02*
X517043D01*
X514484Y412191*
X517043*
X514484Y409632*
Y405456D02*
X517043D01*
X514484Y408015*
X517043*
X514484Y405456*
Y380401D02*
X517043D01*
X514484Y382960*
X517043*
X514484Y380401*
X512396Y440950D02*
X514955D01*
X512396Y443509*
X514955*
X512396Y440950*
Y436775D02*
X514955D01*
X512396Y439334*
X514955*
X512396Y436775*
Y432599D02*
X514955D01*
X512396Y435158*
X514955*
X512396Y432599*
Y428423D02*
X514955D01*
X512396Y430982*
X514955*
X512396Y428423*
Y424247D02*
X514955D01*
X512396Y426806*
X514955*
X512396Y424247*
Y420071D02*
X514955D01*
X512396Y422630*
X514955*
X512396Y420071*
Y415895D02*
X514955D01*
X512396Y418454*
X514955*
X512396Y415895*
Y411720D02*
X514955D01*
X512396Y414279*
X514955*
X512396Y411720*
Y407544D02*
X514955D01*
X512396Y410103*
X514955*
X512396Y407544*
Y403368D02*
X514955D01*
X512396Y405927*
X514955*
X512396Y403368*
Y382489D02*
X514955D01*
X512396Y385048*
X514955*
X512396Y382489*
X510308Y443038D02*
X512867D01*
X510308Y445597*
X512867*
X510308Y443038*
Y438862D02*
X512867D01*
X510308Y441421*
X512867*
X510308Y438862*
Y434687D02*
X512867D01*
X510308Y437246*
X512867*
X510308Y434687*
Y430511D02*
X512867D01*
X510308Y433070*
X512867*
X510308Y430511*
Y426335D02*
X512867D01*
X510308Y428894*
X512867*
X510308Y426335*
Y422159D02*
X512867D01*
X510308Y424718*
X512867*
X510308Y422159*
Y417983D02*
X512867D01*
X510308Y420542*
X512867*
X510308Y417983*
Y413807D02*
X512867D01*
X510308Y416367*
X512867*
X510308Y413807*
Y409632D02*
X512867D01*
X510308Y412191*
X512867*
X510308Y409632*
Y405456D02*
X512867D01*
X510308Y408015*
X512867*
X510308Y405456*
Y401280D02*
X512867D01*
X510308Y403839*
X512867*
X510308Y401280*
Y384577D02*
X512867D01*
X510308Y387136*
X512867*
X510308Y384577*
Y380401D02*
X512867D01*
X510308Y382960*
X512867*
X510308Y380401*
X508220Y440950D02*
X510779D01*
X508220Y443509*
X510779*
X508220Y440950*
Y436775D02*
X510779D01*
X508220Y439334*
X510779*
X508220Y436775*
Y432599D02*
X510779D01*
X508220Y435158*
X510779*
X508220Y432599*
Y428423D02*
X510779D01*
X508220Y430982*
X510779*
X508220Y428423*
Y424247D02*
X510779D01*
X508220Y426806*
X510779*
X508220Y424247*
Y420071D02*
X510779D01*
X508220Y422630*
X510779*
X508220Y420071*
Y415895D02*
X510779D01*
X508220Y418454*
X510779*
X508220Y415895*
Y411720D02*
X510779D01*
X508220Y414279*
X510779*
X508220Y411720*
Y407544D02*
X510779D01*
X508220Y410103*
X510779*
X508220Y407544*
Y403368D02*
X510779D01*
X508220Y405927*
X510779*
X508220Y403368*
Y399192D02*
X510779D01*
X508220Y401751*
X510779*
X508220Y399192*
Y386665D02*
X510779D01*
X508220Y389224*
X510779*
X508220Y386665*
Y382489D02*
X510779D01*
X508220Y385048*
X510779*
X508220Y382489*
X506132Y443038D02*
X508691D01*
X506132Y445597*
X508691*
X506132Y443038*
Y438862D02*
X508691D01*
X506132Y441421*
X508691*
X506132Y438862*
Y434687D02*
X508691D01*
X506132Y437246*
X508691*
X506132Y434687*
Y430511D02*
X508691D01*
X506132Y433070*
X508691*
X506132Y430511*
Y426335D02*
X508691D01*
X506132Y428894*
X508691*
X506132Y426335*
Y422159D02*
X508691D01*
X506132Y424718*
X508691*
X506132Y422159*
Y417983D02*
X508691D01*
X506132Y420542*
X508691*
X506132Y417983*
Y413807D02*
X508691D01*
X506132Y416367*
X508691*
X506132Y413807*
Y409632D02*
X508691D01*
X506132Y412191*
X508691*
X506132Y409632*
Y405456D02*
X508691D01*
X506132Y408015*
X508691*
X506132Y405456*
Y401280D02*
X508691D01*
X506132Y403839*
X508691*
X506132Y401280*
Y397104D02*
X508691D01*
X506132Y399663*
X508691*
X506132Y397104*
Y392928D02*
X508691D01*
X506132Y395487*
X508691*
X506132Y392928*
Y388753D02*
X508691D01*
X506132Y391312*
X508691*
X506132Y388753*
Y384577D02*
X508691D01*
X506132Y387136*
X508691*
X506132Y384577*
Y380401D02*
X508691D01*
X506132Y382960*
X508691*
X506132Y380401*
X572441Y426772D02*
X741732D01*
X572441Y411024D02*
X741732D01*
X572441Y395276D02*
X741732D01*
X572441Y379528D02*
X741732D01*
X572441Y363780D02*
X741732D01*
X572441Y348031D02*
X741732D01*
X572441Y332283D02*
X741732D01*
X572441Y316535D02*
X741732D01*
X572441Y300787D02*
X741732D01*
X572441Y285039D02*
X741732D01*
X572441Y269291D02*
X741732D01*
X572441Y253543D02*
X741732D01*
X572441Y237795D02*
X741732D01*
X572441Y222047D02*
X741732D01*
X572441Y206299D02*
X741732D01*
X572441Y190551D02*
X741732D01*
X572441Y174803D02*
X741732D01*
X572441Y159055D02*
X741732D01*
X572441Y426772D02*
Y159055D01*
X627559Y426772D02*
Y159055D01*
X651181Y426772D02*
Y159055D01*
X674803Y426772D02*
Y159055D01*
X710236Y426772D02*
Y159055D01*
X741732Y426772D02*
Y159055D01*
X595813Y419390D02*
X595455Y419882D01*
X594918Y420128*
X594202*
X593666Y419882*
X593308Y419390*
Y418898*
X593487Y418406*
X593666Y418159*
X594023Y417913*
X595097Y417421*
X595455Y417175*
X595634Y416929*
X595813Y416437*
Y415699*
X595455Y415207*
X594918Y414961*
X594202*
X593666Y415207*
X593308Y415699*
X597424Y420128D02*
Y414961D01*
X601540Y420128D02*
X599034Y414961D01*
Y420128D02*
X601540D01*
X599034Y414961D02*
X601540D01*
X603150Y420128D02*
Y414961D01*
Y420128D02*
X605477D01*
X603150Y417667D02*
X604582D01*
X603150Y414961D02*
X605477D01*
X634109Y420128D02*
X633751Y419882D01*
X633394Y419390*
X633215Y418898*
X633036Y418159*
Y416929*
X633215Y416191*
X633394Y415699*
X633751Y415207*
X634109Y414961*
X634825*
X635183Y415207*
X635541Y415699*
X635720Y416191*
X635899Y416929*
Y418159*
X635720Y418898*
X635541Y419390*
X635183Y419882*
X634825Y420128*
X634109*
X634646Y415945D02*
X635720Y414469D01*
X638762Y420128D02*
Y414961D01*
X637509Y420128D02*
X640015D01*
X641625D02*
X643057Y417667D01*
Y414961*
X644489Y420128D02*
X643057Y417667D01*
X659163Y419390D02*
X658805Y419882D01*
X658268Y420128*
X657552*
X657016Y419882*
X656658Y419390*
Y418898*
X656837Y418406*
X657016Y418159*
X657373Y417913*
X658447Y417421*
X658805Y417175*
X658984Y416929*
X659163Y416437*
Y415699*
X658805Y415207*
X658268Y414961*
X657552*
X657016Y415207*
X656658Y415699*
X660774Y420128D02*
X662205Y417667D01*
Y414961*
X663637Y420128D02*
X662205Y417667D01*
X665247Y420128D02*
Y414961D01*
Y420128D02*
X666679Y414961D01*
X668111Y420128D02*
X666679Y414961D01*
X668111Y420128D02*
Y414961D01*
X682427Y420128D02*
Y414961D01*
Y420128D02*
X684038D01*
X684575Y419882*
X684754Y419636*
X684933Y419144*
Y418406*
X684754Y417913*
X684575Y417667*
X684038Y417421*
X682427*
X686543Y420128D02*
Y414961D01*
X688691*
X691733Y420128D02*
X690301Y414961D01*
X691733Y420128D02*
X693164Y414961D01*
X690838Y416683D02*
X692628D01*
X696028Y420128D02*
Y414961D01*
X694775Y420128D02*
X697280D01*
X698891D02*
Y414961D01*
Y420128D02*
X701217D01*
X698891Y417667D02*
X700323D01*
X698891Y414961D02*
X701217D01*
X702828Y420128D02*
Y414961D01*
Y420128D02*
X704081D01*
X704618Y419882*
X704975Y419390*
X705154Y418898*
X705333Y418159*
Y416929*
X705154Y416191*
X704975Y415699*
X704618Y415207*
X704081Y414961*
X702828*
X721260Y420128D02*
Y414961D01*
X720008Y420128D02*
X722513D01*
X725197D02*
X724839Y419882D01*
X724482Y419390*
X724303Y418898*
X724124Y418159*
Y416929*
X724303Y416191*
X724482Y415699*
X724839Y415207*
X725197Y414961*
X725913*
X726271Y415207*
X726629Y415699*
X726808Y416191*
X726987Y416929*
Y418159*
X726808Y418898*
X726629Y419390*
X726271Y419882*
X725913Y420128*
X725197*
X728598D02*
Y414961D01*
X730745*
X577452Y404380D02*
X576915Y404134D01*
X576557Y403396*
X576378Y402165*
Y401427*
X576557Y400197*
X576915Y399459*
X577452Y399213*
X577810*
X578346Y399459*
X578704Y400197*
X578883Y401427*
Y402165*
X578704Y403396*
X578346Y404134*
X577810Y404380*
X577452*
X580673Y399705D02*
X580494Y399459D01*
X580673Y399213*
X580852Y399459*
X580673Y399705*
X584252Y404380D02*
X582462Y400935D01*
X585147*
X584252Y404380D02*
Y399213D01*
X587831Y404380D02*
X587294Y404134D01*
X586936Y403396*
X586757Y402165*
Y401427*
X586936Y400197*
X587294Y399459*
X587831Y399213*
X588189*
X588726Y399459*
X589084Y400197*
X589263Y401427*
Y402165*
X589084Y403396*
X588726Y404134*
X588189Y404380*
X587831*
X593021Y403642D02*
X592842Y404134D01*
X592305Y404380*
X591947*
X591410Y404134*
X591052Y403396*
X590873Y402165*
Y400935*
X591052Y399951*
X591410Y399459*
X591947Y399213*
X592126*
X592663Y399459*
X593021Y399951*
X593200Y400689*
Y400935*
X593021Y401673*
X592663Y402165*
X592126Y402411*
X591947*
X591410Y402165*
X591052Y401673*
X590873Y400935*
X596600Y404380D02*
X594810Y400935D01*
X597495*
X596600Y404380D02*
Y399213D01*
X632320Y403396D02*
X632678Y403642D01*
X633215Y404380*
Y399213*
X635183Y404380D02*
X637152D01*
X636078Y402411*
X636615*
X636973Y402165*
X637152Y401919*
X637331Y401181*
Y400689*
X637152Y399951*
X636794Y399459*
X636257Y399213*
X635720*
X635183Y399459*
X635004Y399705*
X634825Y400197*
X641268Y402657D02*
X641089Y401919D01*
X640731Y401427*
X640194Y401181*
X640015*
X639478Y401427*
X639120Y401919*
X638941Y402657*
Y402904*
X639120Y403642*
X639478Y404134*
X640015Y404380*
X640194*
X640731Y404134*
X641089Y403642*
X641268Y402657*
Y401427*
X641089Y400197*
X640731Y399459*
X640194Y399213*
X639836*
X639299Y399459*
X639120Y399951*
X645026Y403642D02*
X644847Y404134D01*
X644310Y404380*
X643952*
X643415Y404134*
X643057Y403396*
X642878Y402165*
Y400935*
X643057Y399951*
X643415Y399459*
X643952Y399213*
X644131*
X644668Y399459*
X645026Y399951*
X645205Y400689*
Y400935*
X645026Y401673*
X644668Y402165*
X644131Y402411*
X643952*
X643415Y402165*
X643057Y401673*
X642878Y400935*
X659055Y399213D02*
X666929D01*
X659055Y407087*
X666929*
X659055Y399213*
X680548Y404380D02*
X681980Y401919D01*
Y399213*
X683411Y404380D02*
X681980Y401919D01*
X685022Y404380D02*
Y399213D01*
Y404380D02*
X687348D01*
X685022Y401919D02*
X686454D01*
X685022Y399213D02*
X687348D01*
X691464Y403642D02*
X691106Y404134D01*
X690570Y404380*
X689854*
X689317Y404134*
X688959Y403642*
Y403150*
X689138Y402657*
X689317Y402411*
X689675Y402165*
X690749Y401673*
X691106Y401427*
X691285Y401181*
X691464Y400689*
Y399951*
X691106Y399459*
X690570Y399213*
X689854*
X689317Y399459*
X688959Y399951*
X715444Y403642D02*
Y399213D01*
X713834Y401427D02*
X717055D01*
X721887Y405364D02*
X718666Y397490D01*
X723497Y401427D02*
X726719D01*
X729403Y404380D02*
X728866Y404134D01*
X728508Y403396*
X728329Y402165*
Y401427*
X728508Y400197*
X728866Y399459*
X729403Y399213*
X729761*
X730298Y399459*
X730656Y400197*
X730834Y401427*
Y402165*
X730656Y403396*
X730298Y404134*
X729761Y404380*
X729403*
X732624Y399705D02*
X732445Y399459D01*
X732624Y399213*
X732803Y399459*
X732624Y399705*
X735487Y404380D02*
X734950Y404134D01*
X734593Y403396*
X734414Y402165*
Y401427*
X734593Y400197*
X734950Y399459*
X735487Y399213*
X735845*
X736382Y399459*
X736740Y400197*
X736919Y401427*
Y402165*
X736740Y403396*
X736382Y404134*
X735845Y404380*
X735487*
X576378Y387648D02*
X576736Y387894D01*
X577273Y388632*
Y383465*
X579062Y383957D02*
X578883Y383711D01*
X579062Y383465*
X579241Y383711*
X579062Y383957*
X581926Y388632D02*
X581389Y388386D01*
X581031Y387648*
X580852Y386417*
Y385679*
X581031Y384449*
X581389Y383711*
X581926Y383465*
X582283*
X582820Y383711*
X583178Y384449*
X583357Y385679*
Y386417*
X583178Y387648*
X582820Y388386*
X582283Y388632*
X581926*
X584968Y387648D02*
X585326Y387894D01*
X585863Y388632*
Y383465*
X589621Y387894D02*
X589442Y388386D01*
X588905Y388632*
X588547*
X588010Y388386*
X587652Y387648*
X587473Y386417*
Y385187*
X587652Y384203*
X588010Y383711*
X588547Y383465*
X588726*
X589263Y383711*
X589621Y384203*
X589800Y384941*
Y385187*
X589621Y385925*
X589263Y386417*
X588726Y386663*
X588547*
X588010Y386417*
X587652Y385925*
X587473Y385187*
X637152Y388632D02*
X635362Y385187D01*
X638046*
X637152Y388632D02*
Y383465D01*
X640731Y388632D02*
X640194Y388386D01*
X639836Y387648*
X639657Y386417*
Y385679*
X639836Y384449*
X640194Y383711*
X640731Y383465*
X641089*
X641625Y383711*
X641983Y384449*
X642162Y385679*
Y386417*
X641983Y387648*
X641625Y388386*
X641089Y388632*
X640731*
X659055Y387402D02*
X666929D01*
X662992Y383465D02*
Y391339D01*
X664961Y393504D02*
Y389370D01*
X680548Y388632D02*
X681980Y386171D01*
Y383465*
X683411Y388632D02*
X681980Y386171D01*
X685022Y388632D02*
Y383465D01*
Y388632D02*
X687348D01*
X685022Y386171D02*
X686454D01*
X685022Y383465D02*
X687348D01*
X691464Y387894D02*
X691106Y388386D01*
X690570Y388632*
X689854*
X689317Y388386*
X688959Y387894*
Y387402*
X689138Y386909*
X689317Y386663*
X689675Y386417*
X690749Y385925*
X691106Y385679*
X691285Y385433*
X691464Y384941*
Y384203*
X691106Y383711*
X690570Y383465*
X689854*
X689317Y383711*
X688959Y384203*
X715444Y387894D02*
Y383465D01*
X713834Y385679D02*
X717055D01*
X721887Y389616D02*
X718666Y381742D01*
X723497Y385679D02*
X726719D01*
X729403Y388632D02*
X728866Y388386D01*
X728508Y387648*
X728329Y386417*
Y385679*
X728508Y384449*
X728866Y383711*
X729403Y383465*
X729761*
X730298Y383711*
X730656Y384449*
X730834Y385679*
Y386417*
X730656Y387648*
X730298Y388386*
X729761Y388632*
X729403*
X732624Y383957D02*
X732445Y383711D01*
X732624Y383465*
X732803Y383711*
X732624Y383957*
X735487Y388632D02*
X734950Y388386D01*
X734593Y387648*
X734414Y386417*
Y385679*
X734593Y384449*
X734950Y383711*
X735487Y383465*
X735845*
X736382Y383711*
X736740Y384449*
X736919Y385679*
Y386417*
X736740Y387648*
X736382Y388386*
X735845Y388632*
X735487*
X576378Y371900D02*
X576736Y372146D01*
X577273Y372884*
Y367717*
X579062Y368209D02*
X578883Y367963D01*
X579062Y367717*
X579241Y367963*
X579062Y368209*
X581210Y372884D02*
X583178D01*
X582105Y370915*
X582641*
X582999Y370669*
X583178Y370423*
X583357Y369685*
Y369193*
X583178Y368455*
X582820Y367963*
X582283Y367717*
X581747*
X581210Y367963*
X581031Y368209*
X580852Y368701*
X587294Y371161D02*
X587115Y370423D01*
X586757Y369931*
X586220Y369685*
X586042*
X585505Y369931*
X585147Y370423*
X584968Y371161*
Y371407*
X585147Y372146*
X585505Y372638*
X586042Y372884*
X586220*
X586757Y372638*
X587115Y372146*
X587294Y371161*
Y369931*
X587115Y368701*
X586757Y367963*
X586220Y367717*
X585863*
X585326Y367963*
X585147Y368455*
X591410Y372884D02*
X589621Y367717D01*
X588905Y372884D02*
X591410D01*
X635630Y371654D02*
Y371900D01*
X635809Y372392*
X635988Y372638*
X636346Y372884*
X637062*
X637420Y372638*
X637599Y372392*
X637778Y371900*
Y371407*
X637599Y370915*
X637241Y370177*
X635452Y367717*
X637957*
X639746Y371654D02*
Y371900D01*
X639925Y372392*
X640104Y372638*
X640462Y372884*
X641178*
X641536Y372638*
X641715Y372392*
X641894Y371900*
Y371407*
X641715Y370915*
X641357Y370177*
X639567Y367717*
X642073*
X659055D02*
X666929Y375591D01*
X659055D02*
X666929Y367717D01*
X680548Y372884D02*
X681980Y370423D01*
Y367717*
X683411Y372884D02*
X681980Y370423D01*
X685022Y372884D02*
Y367717D01*
Y372884D02*
X687348D01*
X685022Y370423D02*
X686454D01*
X685022Y367717D02*
X687348D01*
X691464Y372146D02*
X691106Y372638D01*
X690570Y372884*
X689854*
X689317Y372638*
X688959Y372146*
Y371654*
X689138Y371161*
X689317Y370915*
X689675Y370669*
X690749Y370177*
X691106Y369931*
X691285Y369685*
X691464Y369193*
Y368455*
X691106Y367963*
X690570Y367717*
X689854*
X689317Y367963*
X688959Y368455*
X715444Y372146D02*
Y367717D01*
X713834Y369931D02*
X717055D01*
X721887Y373868D02*
X718666Y365994D01*
X723497Y369931D02*
X726719D01*
X729403Y372884D02*
X728866Y372638D01*
X728508Y371900*
X728329Y370669*
Y369931*
X728508Y368701*
X728866Y367963*
X729403Y367717*
X729761*
X730298Y367963*
X730656Y368701*
X730834Y369931*
Y370669*
X730656Y371900*
X730298Y372638*
X729761Y372884*
X729403*
X732624Y368209D02*
X732445Y367963D01*
X732624Y367717*
X732803Y367963*
X732624Y368209*
X735487Y372884D02*
X734950Y372638D01*
X734593Y371900*
X734414Y370669*
Y369931*
X734593Y368701*
X734950Y367963*
X735487Y367717*
X735845*
X736382Y367963*
X736740Y368701*
X736919Y369931*
Y370669*
X736740Y371900*
X736382Y372638*
X735845Y372884*
X735487*
X577452Y357136D02*
X576915Y356890D01*
X576557Y356152*
X576378Y354921*
Y354183*
X576557Y352953*
X576915Y352215*
X577452Y351969*
X577810*
X578346Y352215*
X578704Y352953*
X578883Y354183*
Y354921*
X578704Y356152*
X578346Y356890*
X577810Y357136*
X577452*
X580673Y352461D02*
X580494Y352215D01*
X580673Y351969*
X580852Y352215*
X580673Y352461*
X584610Y356398D02*
X584431Y356890D01*
X583894Y357136*
X583536*
X582999Y356890*
X582641Y356152*
X582462Y354921*
Y353691*
X582641Y352707*
X582999Y352215*
X583536Y351969*
X583715*
X584252Y352215*
X584610Y352707*
X584789Y353445*
Y353691*
X584610Y354429*
X584252Y354921*
X583715Y355167*
X583536*
X582999Y354921*
X582641Y354429*
X582462Y353691*
X586757Y357136D02*
X588726D01*
X587652Y355167*
X588189*
X588547Y354921*
X588726Y354675*
X588905Y353937*
Y353445*
X588726Y352707*
X588368Y352215*
X587831Y351969*
X587294*
X586757Y352215*
X586578Y352461*
X586399Y352953*
X592842Y357136D02*
X591052D01*
X590873Y354921*
X591052Y355167*
X591589Y355413*
X592126*
X592663Y355167*
X593021Y354675*
X593200Y353937*
X593021Y353445*
X592842Y352707*
X592484Y352215*
X591947Y351969*
X591410*
X590873Y352215*
X590694Y352461*
X590515Y352953*
X636257Y356152D02*
X636615Y356398D01*
X637152Y357136*
Y351969*
X639657Y357136D02*
X639120Y356890D01*
X638941Y356398*
Y355906*
X639120Y355413*
X639478Y355167*
X640194Y354921*
X640731Y354675*
X641089Y354183*
X641268Y353691*
Y352953*
X641089Y352461*
X640910Y352215*
X640373Y351969*
X639657*
X639120Y352215*
X638941Y352461*
X638762Y352953*
Y353691*
X638941Y354183*
X639299Y354675*
X639836Y354921*
X640552Y355167*
X640910Y355413*
X641089Y355906*
Y356398*
X640910Y356890*
X640373Y357136*
X639657*
X659055Y355906D02*
X666929D01*
X662992Y351969D02*
Y359843D01*
X680548Y357136D02*
X681980Y354675D01*
Y351969*
X683411Y357136D02*
X681980Y354675D01*
X685022Y357136D02*
Y351969D01*
Y357136D02*
X687348D01*
X685022Y354675D02*
X686454D01*
X685022Y351969D02*
X687348D01*
X691464Y356398D02*
X691106Y356890D01*
X690570Y357136*
X689854*
X689317Y356890*
X688959Y356398*
Y355906*
X689138Y355413*
X689317Y355167*
X689675Y354921*
X690749Y354429*
X691106Y354183*
X691285Y353937*
X691464Y353445*
Y352707*
X691106Y352215*
X690570Y351969*
X689854*
X689317Y352215*
X688959Y352707*
X715444Y356398D02*
Y351969D01*
X713834Y354183D02*
X717055D01*
X721887Y358120D02*
X718666Y350246D01*
X723497Y354183D02*
X726719D01*
X729403Y357136D02*
X728866Y356890D01*
X728508Y356152*
X728329Y354921*
Y354183*
X728508Y352953*
X728866Y352215*
X729403Y351969*
X729761*
X730298Y352215*
X730656Y352953*
X730834Y354183*
Y354921*
X730656Y356152*
X730298Y356890*
X729761Y357136*
X729403*
X732624Y352461D02*
X732445Y352215D01*
X732624Y351969*
X732803Y352215*
X732624Y352461*
X735487Y357136D02*
X734950Y356890D01*
X734593Y356152*
X734414Y354921*
Y354183*
X734593Y352953*
X734950Y352215*
X735487Y351969*
X735845*
X736382Y352215*
X736740Y352953*
X736919Y354183*
Y354921*
X736740Y356152*
X736382Y356890*
X735845Y357136*
X735487*
X577452Y341388D02*
X576915Y341142D01*
X576557Y340404*
X576378Y339173*
Y338435*
X576557Y337205*
X576915Y336467*
X577452Y336220*
X577810*
X578346Y336467*
X578704Y337205*
X578883Y338435*
Y339173*
X578704Y340404*
X578346Y341142*
X577810Y341388*
X577452*
X580673Y336713D02*
X580494Y336467D01*
X580673Y336220*
X580852Y336467*
X580673Y336713*
X584789Y339665D02*
X584610Y338927D01*
X584252Y338435*
X583715Y338189*
X583536*
X582999Y338435*
X582641Y338927*
X582462Y339665*
Y339911*
X582641Y340650*
X582999Y341142*
X583536Y341388*
X583715*
X584252Y341142*
X584610Y340650*
X584789Y339665*
Y338435*
X584610Y337205*
X584252Y336467*
X583715Y336220*
X583357*
X582820Y336467*
X582641Y336959*
X586757Y341388D02*
X588726D01*
X587652Y339419*
X588189*
X588547Y339173*
X588726Y338927*
X588905Y338189*
Y337697*
X588726Y336959*
X588368Y336467*
X587831Y336220*
X587294*
X586757Y336467*
X586578Y336713*
X586399Y337205*
X592842Y339665D02*
X592663Y338927D01*
X592305Y338435*
X591768Y338189*
X591589*
X591052Y338435*
X590694Y338927*
X590515Y339665*
Y339911*
X590694Y340650*
X591052Y341142*
X591589Y341388*
X591768*
X592305Y341142*
X592663Y340650*
X592842Y339665*
Y338435*
X592663Y337205*
X592305Y336467*
X591768Y336220*
X591410*
X590873Y336467*
X590694Y336959*
X595347Y341388D02*
X594810Y341142D01*
X594631Y340650*
Y340157*
X594810Y339665*
X595168Y339419*
X595884Y339173*
X596421Y338927*
X596779Y338435*
X596958Y337943*
Y337205*
X596779Y336713*
X596600Y336467*
X596063Y336220*
X595347*
X594810Y336467*
X594631Y336713*
X594452Y337205*
Y337943*
X594631Y338435*
X594989Y338927*
X595526Y339173*
X596242Y339419*
X596600Y339665*
X596779Y340157*
Y340650*
X596600Y341142*
X596063Y341388*
X595347*
X636167Y340404D02*
X636525Y340650D01*
X637062Y341388*
Y336220*
X640462Y341388D02*
X638673Y337943D01*
X641357*
X640462Y341388D02*
Y336220D01*
X659055Y340157D02*
X666929D01*
X662992Y336220D02*
Y344094D01*
X664961Y346260D02*
Y342126D01*
Y346260D02*
X666822D01*
X664961Y344291D02*
X666106D01*
X664961Y342126D02*
X666822D01*
X680548Y341388D02*
X681980Y338927D01*
Y336220*
X683411Y341388D02*
X681980Y338927D01*
X685022Y341388D02*
Y336220D01*
Y341388D02*
X687348D01*
X685022Y338927D02*
X686454D01*
X685022Y336220D02*
X687348D01*
X691464Y340650D02*
X691106Y341142D01*
X690570Y341388*
X689854*
X689317Y341142*
X688959Y340650*
Y340157*
X689138Y339665*
X689317Y339419*
X689675Y339173*
X690749Y338681*
X691106Y338435*
X691285Y338189*
X691464Y337697*
Y336959*
X691106Y336467*
X690570Y336220*
X689854*
X689317Y336467*
X688959Y336959*
X715444Y340650D02*
Y336220D01*
X713834Y338435D02*
X717055D01*
X721887Y342372D02*
X718666Y334498D01*
X723497Y338435D02*
X726719D01*
X729403Y341388D02*
X728866Y341142D01*
X728508Y340404*
X728329Y339173*
Y338435*
X728508Y337205*
X728866Y336467*
X729403Y336220*
X729761*
X730298Y336467*
X730656Y337205*
X730834Y338435*
Y339173*
X730656Y340404*
X730298Y341142*
X729761Y341388*
X729403*
X732624Y336713D02*
X732445Y336467D01*
X732624Y336220*
X732803Y336467*
X732624Y336713*
X735487Y341388D02*
X734950Y341142D01*
X734593Y340404*
X734414Y339173*
Y338435*
X734593Y337205*
X734950Y336467*
X735487Y336220*
X735845*
X736382Y336467*
X736740Y337205*
X736919Y338435*
Y339173*
X736740Y340404*
X736382Y341142*
X735845Y341388*
X735487*
X576378Y324656D02*
X576736Y324902D01*
X577273Y325640*
Y320472*
X579062Y320965D02*
X578883Y320719D01*
X579062Y320472*
X579241Y320719*
X579062Y320965*
X582999Y324902D02*
X582820Y325394D01*
X582283Y325640*
X581926*
X581389Y325394*
X581031Y324656*
X580852Y323425*
Y322195*
X581031Y321211*
X581389Y320719*
X581926Y320472*
X582105*
X582641Y320719*
X582999Y321211*
X583178Y321949*
Y322195*
X582999Y322933*
X582641Y323425*
X582105Y323671*
X581926*
X581389Y323425*
X581031Y322933*
X580852Y322195*
X585863Y325640D02*
X585326Y325394D01*
X584968Y324656*
X584789Y323425*
Y322687*
X584968Y321457*
X585326Y320719*
X585863Y320472*
X586220*
X586757Y320719*
X587115Y321457*
X587294Y322687*
Y323425*
X587115Y324656*
X586757Y325394*
X586220Y325640*
X585863*
X589979D02*
X589442Y325394D01*
X589084Y324656*
X588905Y323425*
Y322687*
X589084Y321457*
X589442Y320719*
X589979Y320472*
X590336*
X590873Y320719*
X591231Y321457*
X591410Y322687*
Y323425*
X591231Y324656*
X590873Y325394*
X590336Y325640*
X589979*
X593200Y324409D02*
Y324656D01*
X593379Y325148*
X593558Y325394*
X593916Y325640*
X594631*
X594989Y325394*
X595168Y325148*
X595347Y324656*
Y324163*
X595168Y323671*
X594810Y322933*
X593021Y320472*
X595526*
X637062Y324656D02*
X637420Y324902D01*
X637957Y325640*
Y320472*
X639567Y324656D02*
X639925Y324902D01*
X640462Y325640*
Y320472*
X659055D02*
X666929Y328346D01*
Y320472*
X659055Y328346*
Y320472*
X680548Y325640D02*
X681980Y323179D01*
Y320472*
X683411Y325640D02*
X681980Y323179D01*
X685022Y325640D02*
Y320472D01*
Y325640D02*
X687348D01*
X685022Y323179D02*
X686454D01*
X685022Y320472D02*
X687348D01*
X691464Y324902D02*
X691106Y325394D01*
X690570Y325640*
X689854*
X689317Y325394*
X688959Y324902*
Y324409*
X689138Y323917*
X689317Y323671*
X689675Y323425*
X690749Y322933*
X691106Y322687*
X691285Y322441*
X691464Y321949*
Y321211*
X691106Y320719*
X690570Y320472*
X689854*
X689317Y320719*
X688959Y321211*
X715444Y324902D02*
Y320472D01*
X713834Y322687D02*
X717055D01*
X721887Y326624D02*
X718666Y318750D01*
X723497Y322687D02*
X726719D01*
X729403Y325640D02*
X728866Y325394D01*
X728508Y324656*
X728329Y323425*
Y322687*
X728508Y321457*
X728866Y320719*
X729403Y320472*
X729761*
X730298Y320719*
X730656Y321457*
X730834Y322687*
Y323425*
X730656Y324656*
X730298Y325394*
X729761Y325640*
X729403*
X732624Y320965D02*
X732445Y320719D01*
X732624Y320472*
X732803Y320719*
X732624Y320965*
X735487Y325640D02*
X734950Y325394D01*
X734593Y324656*
X734414Y323425*
Y322687*
X734593Y321457*
X734950Y320719*
X735487Y320472*
X735845*
X736382Y320719*
X736740Y321457*
X736919Y322687*
Y323425*
X736740Y324656*
X736382Y325394*
X735845Y325640*
X735487*
X577452Y309892D02*
X576915Y309646D01*
X576557Y308907*
X576378Y307677*
Y306939*
X576557Y305709*
X576915Y304970*
X577452Y304724*
X577810*
X578346Y304970*
X578704Y305709*
X578883Y306939*
Y307677*
X578704Y308907*
X578346Y309646*
X577810Y309892*
X577452*
X580673Y305217D02*
X580494Y304970D01*
X580673Y304724*
X580852Y304970*
X580673Y305217*
X583357Y309892D02*
X582820Y309646D01*
X582641Y309154*
Y308661*
X582820Y308169*
X583178Y307923*
X583894Y307677*
X584431Y307431*
X584789Y306939*
X584968Y306447*
Y305709*
X584789Y305217*
X584610Y304970*
X584073Y304724*
X583357*
X582820Y304970*
X582641Y305217*
X582462Y305709*
Y306447*
X582641Y306939*
X582999Y307431*
X583536Y307677*
X584252Y307923*
X584610Y308169*
X584789Y308661*
Y309154*
X584610Y309646*
X584073Y309892*
X583357*
X587473D02*
X586936Y309646D01*
X586757Y309154*
Y308661*
X586936Y308169*
X587294Y307923*
X588010Y307677*
X588547Y307431*
X588905Y306939*
X589084Y306447*
Y305709*
X588905Y305217*
X588726Y304970*
X588189Y304724*
X587473*
X586936Y304970*
X586757Y305217*
X586578Y305709*
Y306447*
X586757Y306939*
X587115Y307431*
X587652Y307677*
X588368Y307923*
X588726Y308169*
X588905Y308661*
Y309154*
X588726Y309646*
X588189Y309892*
X587473*
X593021Y308169D02*
X592842Y307431D01*
X592484Y306939*
X591947Y306693*
X591768*
X591231Y306939*
X590873Y307431*
X590694Y308169*
Y308415*
X590873Y309154*
X591231Y309646*
X591768Y309892*
X591947*
X592484Y309646*
X592842Y309154*
X593021Y308169*
Y306939*
X592842Y305709*
X592484Y304970*
X591947Y304724*
X591589*
X591052Y304970*
X590873Y305463*
X636257Y308907D02*
X636615Y309154D01*
X637152Y309892*
Y304724*
X639836Y309892D02*
X639299Y309646D01*
X638941Y308907*
X638762Y307677*
Y306939*
X638941Y305709*
X639299Y304970*
X639836Y304724*
X640194*
X640731Y304970*
X641089Y305709*
X641268Y306939*
Y307677*
X641089Y308907*
X640731Y309646*
X640194Y309892*
X639836*
X662992Y304724D02*
X666929Y308661D01*
X662992Y312598*
X659055Y308661*
X662992Y304724*
Y308661D02*
Y312598D01*
X680548Y309892D02*
X681980Y307431D01*
Y304724*
X683411Y309892D02*
X681980Y307431D01*
X685022Y309892D02*
Y304724D01*
Y309892D02*
X687348D01*
X685022Y307431D02*
X686454D01*
X685022Y304724D02*
X687348D01*
X691464Y309154D02*
X691106Y309646D01*
X690570Y309892*
X689854*
X689317Y309646*
X688959Y309154*
Y308661*
X689138Y308169*
X689317Y307923*
X689675Y307677*
X690749Y307185*
X691106Y306939*
X691285Y306693*
X691464Y306201*
Y305463*
X691106Y304970*
X690570Y304724*
X689854*
X689317Y304970*
X688959Y305463*
X715444Y309154D02*
Y304724D01*
X713834Y306939D02*
X717055D01*
X721887Y310876D02*
X718666Y303002D01*
X723497Y306939D02*
X726719D01*
X729403Y309892D02*
X728866Y309646D01*
X728508Y308907*
X728329Y307677*
Y306939*
X728508Y305709*
X728866Y304970*
X729403Y304724*
X729761*
X730298Y304970*
X730656Y305709*
X730834Y306939*
Y307677*
X730656Y308907*
X730298Y309646*
X729761Y309892*
X729403*
X732624Y305217D02*
X732445Y304970D01*
X732624Y304724*
X732803Y304970*
X732624Y305217*
X735487Y309892D02*
X734950Y309646D01*
X734593Y308907*
X734414Y307677*
Y306939*
X734593Y305709*
X734950Y304970*
X735487Y304724*
X735845*
X736382Y304970*
X736740Y305709*
X736919Y306939*
Y307677*
X736740Y308907*
X736382Y309646*
X735845Y309892*
X735487*
X576736Y294144D02*
X578704D01*
X577631Y292175*
X578168*
X578168D02*
X578525Y291929D01*
X578704Y291683*
X578883Y290945*
Y290453*
X578704Y289715*
X578346Y289222*
X577810Y288976*
X577273*
X576736Y289222*
X576557Y289469*
X576378Y289961*
X580673Y289469D02*
X580494Y289222D01*
X580673Y288976*
X580852Y289222*
X580673Y289469*
X583357Y294144D02*
X582820Y293898D01*
X582641Y293406*
Y292913*
X582820Y292421*
X583178Y292175*
X583894Y291929*
X584431Y291683*
X584789Y291191*
X584968Y290699*
Y289961*
X584789Y289469*
X584610Y289222*
X584073Y288976*
X583357*
X582820Y289222*
X582641Y289469*
X582462Y289961*
Y290699*
X582641Y291191*
X582999Y291683*
X583536Y291929*
X584252Y292175*
X584610Y292421*
X584789Y292913*
Y293406*
X584610Y293898*
X584073Y294144*
X583357*
X586578Y293159D02*
X586936Y293406D01*
X587473Y294144*
Y288976*
X639746Y293406D02*
X639567Y293898D01*
X639031Y294144*
X638673*
X638136Y293898*
X637778Y293159*
X637599Y291929*
Y290699*
X637778Y289715*
X638136Y289222*
X638673Y288976*
X638852*
X639389Y289222*
X639746Y289715*
X639925Y290453*
Y290699*
X639746Y291437*
X639389Y291929*
X638852Y292175*
X638673*
X638136Y291929*
X637778Y291437*
X637599Y290699*
X659055Y292913D02*
X666929D01*
X662992Y288976D02*
Y296850D01*
X667108Y298031D02*
X666965Y298425D01*
X666679Y298819*
X666392Y299016*
X665820*
X665533Y298819*
X665247Y298425*
X665104Y298031*
X664961Y297441*
Y296457*
X665104Y295866*
X665247Y295472*
X665533Y295079*
X665820Y294882*
X666392*
X666679Y295079*
X666965Y295472*
X667108Y295866*
X680548Y294144D02*
X681980Y291683D01*
Y288976*
X683411Y294144D02*
X681980Y291683D01*
X685022Y294144D02*
Y288976D01*
Y294144D02*
X687348D01*
X685022Y291683D02*
X686454D01*
X685022Y288976D02*
X687348D01*
X691464Y293406D02*
X691106Y293898D01*
X690570Y294144*
X689854*
X689317Y293898*
X688959Y293406*
Y292913*
X689138Y292421*
X689317Y292175*
X689675Y291929*
X690749Y291437*
X691106Y291191*
X691285Y290945*
X691464Y290453*
Y289715*
X691106Y289222*
X690570Y288976*
X689854*
X689317Y289222*
X688959Y289715*
X715444Y293406D02*
Y288976D01*
X713834Y291191D02*
X717055D01*
X721887Y295128D02*
X718666Y287254D01*
X723497Y291191D02*
X726719D01*
X729403Y294144D02*
X728866Y293898D01*
X728508Y293159*
X728329Y291929*
Y291191*
X728508Y289961*
X728866Y289222*
X729403Y288976*
X729761*
X730298Y289222*
X730656Y289961*
X730834Y291191*
Y291929*
X730656Y293159*
X730298Y293898*
X729761Y294144*
X729403*
X732624Y289469D02*
X732445Y289222D01*
X732624Y288976*
X732803Y289222*
X732624Y289469*
X735487Y294144D02*
X734950Y293898D01*
X734593Y293159*
X734414Y291929*
Y291191*
X734593Y289961*
X734950Y289222*
X735487Y288976*
X735845*
X736382Y289222*
X736740Y289961*
X736919Y291191*
Y291929*
X736740Y293159*
X736382Y293898*
X735845Y294144*
X735487*
X577452Y278396D02*
X576915Y278150D01*
X576557Y277411*
X576378Y276181*
Y275443*
X576557Y274213*
X576915Y273474*
X577452Y273228*
X577810*
X578346Y273474*
X578704Y274213*
X578883Y275443*
Y276181*
X578704Y277411*
X578346Y278150*
X577810Y278396*
X577452*
X580673Y273720D02*
X580494Y273474D01*
X580673Y273228*
X580852Y273474*
X580673Y273720*
X584789Y278396D02*
X582999D01*
X582820Y276181*
X582999Y276427*
X583536Y276673*
X584073*
X584610Y276427*
X584968Y275935*
X585147Y275197*
X584968Y274705*
X584789Y273967*
X584431Y273474*
X583894Y273228*
X583357*
X582820Y273474*
X582641Y273720*
X582462Y274213*
X639746Y278396D02*
X637957D01*
X637778Y276181*
X637957Y276427*
X638494Y276673*
X639031*
X639567Y276427*
X639925Y275935*
X640104Y275197*
X639925Y274705*
X639746Y273967*
X639389Y273474*
X638852Y273228*
X638315*
X637778Y273474*
X637599Y273720*
X637420Y274213*
X659055Y277165D02*
X666929D01*
X662992Y273228D02*
Y281102D01*
X664961Y283268D02*
Y279134D01*
X666965Y283268D02*
Y279134D01*
X664961Y281299D02*
X666965D01*
X680548Y278396D02*
X681980Y275935D01*
Y273228*
X683411Y278396D02*
X681980Y275935D01*
X685022Y278396D02*
Y273228D01*
Y278396D02*
X687348D01*
X685022Y275935D02*
X686454D01*
X685022Y273228D02*
X687348D01*
X691464Y277657D02*
X691106Y278150D01*
X690570Y278396*
X689854*
X689317Y278150*
X688959Y277657*
Y277165*
X689138Y276673*
X689317Y276427*
X689675Y276181*
X690749Y275689*
X691106Y275443*
X691285Y275197*
X691464Y274705*
Y273967*
X691106Y273474*
X690570Y273228*
X689854*
X689317Y273474*
X688959Y273967*
X715444Y277657D02*
Y273228D01*
X713834Y275443D02*
X717055D01*
X721887Y279380D02*
X718666Y271506D01*
X723497Y275443D02*
X726719D01*
X729403Y278396D02*
X728866Y278150D01*
X728508Y277411*
X728329Y276181*
Y275443*
X728508Y274213*
X728866Y273474*
X729403Y273228*
X729761*
X730298Y273474*
X730656Y274213*
X730834Y275443*
Y276181*
X730656Y277411*
X730298Y278150*
X729761Y278396*
X729403*
X732624Y273720D02*
X732445Y273474D01*
X732624Y273228*
X732803Y273474*
X732624Y273720*
X735487Y278396D02*
X734950Y278150D01*
X734593Y277411*
X734414Y276181*
Y275443*
X734593Y274213*
X734950Y273474*
X735487Y273228*
X735845*
X736382Y273474*
X736740Y274213*
X736919Y275443*
Y276181*
X736740Y277411*
X736382Y278150*
X735845Y278396*
X735487*
X576378Y261663D02*
X576736Y261909D01*
X577273Y262648*
Y257480*
X579062Y257972D02*
X578883Y257726D01*
X579062Y257480*
X579241Y257726*
X579062Y257972*
X583178Y262648D02*
X581389D01*
X581210Y260433*
X581389Y260679*
X581926Y260925*
X582462*
X582999Y260679*
X583357Y260187*
X583536Y259449*
X583357Y258957*
X583178Y258219*
X582820Y257726*
X582283Y257480*
X581747*
X581210Y257726*
X581031Y257972*
X580852Y258465*
X585326Y261417D02*
Y261663D01*
X585505Y262156*
X585684Y262402*
X586042Y262648*
X586757*
X587115Y262402*
X587294Y262156*
X587473Y261663*
Y261171*
X587294Y260679*
X586936Y259941*
X585147Y257480*
X587652*
X591052Y262648D02*
X589263Y259203D01*
X591947*
X591052Y262648D02*
Y257480D01*
X639210Y262648D02*
X637420Y259203D01*
X640104*
X639210Y262648D02*
Y257480D01*
X659055D02*
X666929D01*
Y265354*
X659055*
Y257480*
X662992Y261417D02*
Y265354D01*
X682517Y262648D02*
Y257480D01*
Y262648D02*
X685022Y257480D01*
Y262648D02*
Y257480D01*
X687706Y262648D02*
X687348Y262402D01*
X686991Y261909*
X686812Y261417*
X686633Y260679*
Y259449*
X686812Y258711*
X686991Y258219*
X687348Y257726*
X687706Y257480*
X688422*
X688780Y257726*
X689138Y258219*
X689317Y258711*
X689496Y259449*
Y260679*
X689317Y261417*
X689138Y261909*
X688780Y262402*
X688422Y262648*
X687706*
X715444Y261909D02*
Y257480D01*
X713834Y259695D02*
X717055D01*
X721887Y263632D02*
X718666Y255758D01*
X723497Y259695D02*
X726719D01*
X729403Y262648D02*
X728866Y262402D01*
X728508Y261663*
X728329Y260433*
Y259695*
X728508Y258465*
X728866Y257726*
X729403Y257480*
X729761*
X730298Y257726*
X730656Y258465*
X730834Y259695*
Y260433*
X730656Y261663*
X730298Y262402*
X729761Y262648*
X729403*
X732624Y257972D02*
X732445Y257726D01*
X732624Y257480*
X732803Y257726*
X732624Y257972*
X735487Y262648D02*
X734950Y262402D01*
X734593Y261663*
X734414Y260433*
Y259695*
X734593Y258465*
X734950Y257726*
X735487Y257480*
X735845*
X736382Y257726*
X736740Y258465*
X736919Y259695*
Y260433*
X736740Y261663*
X736382Y262402*
X735845Y262648*
X735487*
X577452Y246900D02*
X576915Y246654D01*
X576557Y245915*
X576378Y244685*
Y243947*
X576557Y242717*
X576915Y241978*
X577452Y241732*
X577810*
X578346Y241978*
X578704Y242717*
X578883Y243947*
Y244685*
X578704Y245915*
X578346Y246654*
X577810Y246900*
X577452*
X580673Y242224D02*
X580494Y241978D01*
X580673Y241732*
X580852Y241978*
X580673Y242224*
X584789Y245177D02*
X584610Y244439D01*
X584252Y243947*
X583715Y243701*
X583536*
X582999Y243947*
X582641Y244439*
X582462Y245177*
Y245423*
X582641Y246161*
X582999Y246654*
X583536Y246900*
X583715*
X584252Y246654*
X584610Y246161*
X584789Y245177*
Y243947*
X584610Y242717*
X584252Y241978*
X583715Y241732*
X583357*
X582820Y241978*
X582641Y242470*
X639210Y246900D02*
X637420Y243455D01*
X640104*
X639210Y246900D02*
Y241732D01*
X659055Y245669D02*
X666929D01*
X662992Y241732D02*
Y249606D01*
X664961Y251772D02*
Y247638D01*
Y251772D02*
X666822D01*
X664961Y249803D02*
X666106D01*
X680548Y246900D02*
X681980Y244439D01*
Y241732*
X683411Y246900D02*
X681980Y244439D01*
X685022Y246900D02*
Y241732D01*
Y246900D02*
X687348D01*
X685022Y244439D02*
X686454D01*
X685022Y241732D02*
X687348D01*
X691464Y246161D02*
X691106Y246654D01*
X690570Y246900*
X689854*
X689317Y246654*
X688959Y246161*
Y245669*
X689138Y245177*
X689317Y244931*
X689675Y244685*
X690749Y244193*
X691106Y243947*
X691285Y243701*
X691464Y243209*
Y242470*
X691106Y241978*
X690570Y241732*
X689854*
X689317Y241978*
X688959Y242470*
X715444Y246161D02*
Y241732D01*
X713834Y243947D02*
X717055D01*
X721887Y247884D02*
X718666Y240010D01*
X723497Y243947D02*
X726719D01*
X729403Y246900D02*
X728866Y246654D01*
X728508Y245915*
X728329Y244685*
Y243947*
X728508Y242717*
X728866Y241978*
X729403Y241732*
X729761*
X730298Y241978*
X730656Y242717*
X730834Y243947*
Y244685*
X730656Y245915*
X730298Y246654*
X729761Y246900*
X729403*
X732624Y242224D02*
X732445Y241978D01*
X732624Y241732*
X732803Y241978*
X732624Y242224*
X735487Y246900D02*
X734950Y246654D01*
X734593Y245915*
X734414Y244685*
Y243947*
X734593Y242717*
X734950Y241978*
X735487Y241732*
X735845*
X736382Y241978*
X736740Y242717*
X736919Y243947*
Y244685*
X736740Y245915*
X736382Y246654*
X735845Y246900*
X735487*
X576378Y230167D02*
X576736Y230413D01*
X577273Y231152*
Y225984*
X579062Y226476D02*
X578883Y226230D01*
X579062Y225984*
X579241Y226230*
X579062Y226476*
X580852Y230167D02*
X581210Y230413D01*
X581747Y231152*
Y225984*
X637867Y231152D02*
X639836D01*
X638762Y229183*
X639299*
X639657Y228937*
X639836Y228691*
X640015Y227953*
Y227461*
X639836Y226722*
X639478Y226230*
X638941Y225984*
X638404*
X637867Y226230*
X637688Y226476*
X637509Y226969*
X659055Y229921D02*
X666929D01*
X662992Y225984D02*
Y233858D01*
X666106Y236024D02*
X664961Y231890D01*
X666106Y236024D02*
X667251Y231890D01*
X665390Y233268D02*
X666822D01*
X682517Y231152D02*
Y225984D01*
Y231152D02*
X685022Y225984D01*
Y231152D02*
Y225984D01*
X687706Y231152D02*
X687348Y230906D01*
X686991Y230413*
X686812Y229921*
X686633Y229183*
Y227953*
X686812Y227215*
X686991Y226722*
X687348Y226230*
X687706Y225984*
X688422*
X688780Y226230*
X689138Y226722*
X689317Y227215*
X689496Y227953*
Y229183*
X689317Y229921*
X689138Y230413*
X688780Y230906*
X688422Y231152*
X687706*
X715444Y230413D02*
Y225984D01*
X713834Y228199D02*
X717055D01*
X721887Y232136D02*
X718666Y224262D01*
X723497Y228199D02*
X726719D01*
X729403Y231152D02*
X728866Y230906D01*
X728508Y230167*
X728329Y228937*
Y228199*
X728508Y226969*
X728866Y226230*
X729403Y225984*
X729761*
X730298Y226230*
X730656Y226969*
X730834Y228199*
Y228937*
X730656Y230167*
X730298Y230906*
X729761Y231152*
X729403*
X732624Y226476D02*
X732445Y226230D01*
X732624Y225984*
X732803Y226230*
X732624Y226476*
X735487Y231152D02*
X734950Y230906D01*
X734593Y230167*
X734414Y228937*
Y228199*
X734593Y226969*
X734950Y226230*
X735487Y225984*
X735845*
X736382Y226230*
X736740Y226969*
X736919Y228199*
Y228937*
X736740Y230167*
X736382Y230906*
X735845Y231152*
X735487*
X577452Y215404D02*
X576915Y215157D01*
X576557Y214419*
X576378Y213189*
Y212451*
X576557Y211220*
X576915Y210482*
X577452Y210236*
X577810*
X578346Y210482*
X578704Y211220*
X578883Y212451*
Y213189*
X578704Y214419*
X578346Y215157*
X577810Y215404*
X577452*
X580673Y210728D02*
X580494Y210482D01*
X580673Y210236*
X580852Y210482*
X580673Y210728*
X584968Y215404D02*
X583178Y210236D01*
X582462Y215404D02*
X584968D01*
X637867D02*
X639836D01*
X638762Y213435*
X639299*
X639657Y213189*
X639836Y212943*
X640015Y212205*
Y211713*
X639836Y210974*
X639478Y210482*
X638941Y210236*
X638404*
X637867Y210482*
X637688Y210728*
X637509Y211220*
X659055Y214173D02*
X666929D01*
X662992Y210236D02*
Y218110D01*
X664961Y220276D02*
Y216142D01*
Y220276D02*
X666249D01*
X666679Y220079*
X666822Y219882*
X666965Y219488*
Y219094*
X666822Y218701*
X666679Y218504*
X666249Y218307*
X664961D02*
X666249D01*
X666679Y218110*
X666822Y217913*
X666965Y217520*
Y216929*
X666822Y216535*
X666679Y216339*
X666249Y216142*
X664961*
X682517Y215404D02*
Y210236D01*
Y215404D02*
X685022Y210236D01*
Y215404D02*
Y210236D01*
X687706Y215404D02*
X687348Y215157D01*
X686991Y214665*
X686812Y214173*
X686633Y213435*
Y212205*
X686812Y211467*
X686991Y210974*
X687348Y210482*
X687706Y210236*
X688422*
X688780Y210482*
X689138Y210974*
X689317Y211467*
X689496Y212205*
Y213435*
X689317Y214173*
X689138Y214665*
X688780Y215157*
X688422Y215404*
X687706*
X715444Y214665D02*
Y210236D01*
X713834Y212451D02*
X717055D01*
X721887Y216388D02*
X718666Y208514D01*
X723497Y212451D02*
X726719D01*
X729403Y215404D02*
X728866Y215157D01*
X728508Y214419*
X728329Y213189*
Y212451*
X728508Y211220*
X728866Y210482*
X729403Y210236*
X729761*
X730298Y210482*
X730656Y211220*
X730834Y212451*
Y213189*
X730656Y214419*
X730298Y215157*
X729761Y215404*
X729403*
X732624Y210728D02*
X732445Y210482D01*
X732624Y210236*
X732803Y210482*
X732624Y210728*
X735487Y215404D02*
X734950Y215157D01*
X734593Y214419*
X734414Y213189*
Y212451*
X734593Y211220*
X734950Y210482*
X735487Y210236*
X735845*
X736382Y210482*
X736740Y211220*
X736919Y212451*
Y213189*
X736740Y214419*
X736382Y215157*
X735845Y215404*
X735487*
X576378Y198671D02*
X576736Y198917D01*
X577273Y199656*
Y194488*
X579062Y194980D02*
X578883Y194734D01*
X579062Y194488*
X579241Y194734*
X579062Y194980*
X583357Y199656D02*
X581568Y194488D01*
X580852Y199656D02*
X583357D01*
X637688Y198425D02*
Y198671D01*
X637867Y199163*
X638046Y199409*
X638404Y199656*
X639120*
X639478Y199409*
X639657Y199163*
X639836Y198671*
Y198179*
X639657Y197687*
X639299Y196949*
X637509Y194488*
X640015*
X659055Y198425D02*
X666929D01*
X662992Y194488D02*
Y202362D01*
X667108Y203543D02*
X666965Y203937D01*
X666679Y204331*
X666392Y204528*
X665820*
X665533Y204331*
X665247Y203937*
X665104Y203543*
X664961Y202953*
Y201969*
X665104Y201378*
X665247Y200984*
X665533Y200591*
X665820Y200394*
X666392*
X666679Y200591*
X666965Y200984*
X667108Y201378*
Y201969*
X666392D02*
X667108D01*
X680548Y199656D02*
X681980Y197195D01*
Y194488*
X683411Y199656D02*
X681980Y197195D01*
X685022Y199656D02*
Y194488D01*
Y199656D02*
X687348D01*
X685022Y197195D02*
X686454D01*
X685022Y194488D02*
X687348D01*
X691464Y198917D02*
X691106Y199409D01*
X690570Y199656*
X689854*
X689317Y199409*
X688959Y198917*
Y198425*
X689138Y197933*
X689317Y197687*
X689675Y197441*
X690749Y196949*
X691106Y196703*
X691285Y196457*
X691464Y195965*
Y195226*
X691106Y194734*
X690570Y194488*
X689854*
X689317Y194734*
X688959Y195226*
X715444Y198917D02*
Y194488D01*
X713834Y196703D02*
X717055D01*
X721887Y200640D02*
X718666Y192766D01*
X723497Y196703D02*
X726719D01*
X729403Y199656D02*
X728866Y199409D01*
X728508Y198671*
X728329Y197441*
Y196703*
X728508Y195472*
X728866Y194734*
X729403Y194488*
X729761*
X730298Y194734*
X730656Y195472*
X730834Y196703*
Y197441*
X730656Y198671*
X730298Y199409*
X729761Y199656*
X729403*
X732624Y194980D02*
X732445Y194734D01*
X732624Y194488*
X732803Y194734*
X732624Y194980*
X735487Y199656D02*
X734950Y199409D01*
X734593Y198671*
X734414Y197441*
Y196703*
X734593Y195472*
X734950Y194734*
X735487Y194488*
X735845*
X736382Y194734*
X736740Y195472*
X736919Y196703*
Y197441*
X736740Y198671*
X736382Y199409*
X735845Y199656*
X735487*
X576378Y182923D02*
X576736Y183169D01*
X577273Y183907*
Y178740*
X579062Y179232D02*
X578883Y178986D01*
X579062Y178740*
X579241Y178986*
X579062Y179232*
X582641Y183907D02*
X580852Y180463D01*
X583536*
X582641Y183907D02*
Y178740D01*
X637688Y182677D02*
Y182923D01*
X637867Y183415*
X638046Y183661*
X638404Y183907*
X639120*
X639478Y183661*
X639657Y183415*
X639836Y182923*
Y182431*
X639657Y181939*
X639299Y181201*
X637509Y178740*
X640015*
X659055Y182677D02*
X666929D01*
X662992Y178740D02*
Y186614D01*
X664961Y188780D02*
Y184646D01*
Y188780D02*
X665963D01*
X666392Y188583*
X666679Y188189*
X666822Y187795*
X666965Y187205*
Y186220*
X666822Y185630*
X666679Y185236*
X666392Y184843*
X665963Y184646*
X664961*
X680548Y183907D02*
X681980Y181447D01*
Y178740*
X683411Y183907D02*
X681980Y181447D01*
X685022Y183907D02*
Y178740D01*
Y183907D02*
X687348D01*
X685022Y181447D02*
X686454D01*
X685022Y178740D02*
X687348D01*
X691464Y183169D02*
X691106Y183661D01*
X690570Y183907*
X689854*
X689317Y183661*
X688959Y183169*
Y182677*
X689138Y182185*
X689317Y181939*
X689675Y181693*
X690749Y181201*
X691106Y180955*
X691285Y180709*
X691464Y180217*
Y179478*
X691106Y178986*
X690570Y178740*
X689854*
X689317Y178986*
X688959Y179478*
X715444Y183169D02*
Y178740D01*
X713834Y180955D02*
X717055D01*
X721887Y184892D02*
X718666Y177018D01*
X723497Y180955D02*
X726719D01*
X729403Y183907D02*
X728866Y183661D01*
X728508Y182923*
X728329Y181693*
Y180955*
X728508Y179724*
X728866Y178986*
X729403Y178740*
X729761*
X730298Y178986*
X730656Y179724*
X730834Y180955*
Y181693*
X730656Y182923*
X730298Y183661*
X729761Y183907*
X729403*
X732624Y179232D02*
X732445Y178986D01*
X732624Y178740*
X732803Y178986*
X732624Y179232*
X735487Y183907D02*
X734950Y183661D01*
X734593Y182923*
X734414Y181693*
Y180955*
X734593Y179724*
X734950Y178986*
X735487Y178740*
X735845*
X736382Y178986*
X736740Y179724*
X736919Y180955*
Y181693*
X736740Y182923*
X736382Y183661*
X735845Y183907*
X735487*
X576378Y167175D02*
X576736Y167421D01*
X577273Y168159*
Y162992*
X579062Y163484D02*
X578883Y163238D01*
X579062Y162992*
X579241Y163238*
X579062Y163484*
X581031Y166929D02*
Y167175D01*
X581210Y167667*
X581389Y167913*
X581747Y168159*
X582462*
X582820Y167913*
X582999Y167667*
X583178Y167175*
Y166683*
X582999Y166191*
X582641Y165453*
X580852Y162992*
X583357*
X587473Y168159D02*
X585684Y162992D01*
X584968Y168159D02*
X587473D01*
X637688Y166929D02*
Y167175D01*
X637867Y167667*
X638046Y167913*
X638404Y168159*
X639120*
X639478Y167913*
X639657Y167667*
X639836Y167175*
Y166683*
X639657Y166191*
X639299Y165453*
X637509Y162992*
X640015*
X659055Y166929D02*
X666929D01*
X662992Y162992D02*
Y170866D01*
X666392Y173031D02*
Y169882D01*
X666249Y169291*
X666106Y169094*
X665820Y168898*
X665533*
X665247Y169094*
X665104Y169291*
X664961Y169882*
Y170276*
X682517Y168159D02*
Y162992D01*
Y168159D02*
X685022Y162992D01*
Y168159D02*
Y162992D01*
X687706Y168159D02*
X687348Y167913D01*
X686991Y167421*
X686812Y166929*
X686633Y166191*
Y164961*
X686812Y164222*
X686991Y163730*
X687348Y163238*
X687706Y162992*
X688422*
X688780Y163238*
X689138Y163730*
X689317Y164222*
X689496Y164961*
Y166191*
X689317Y166929*
X689138Y167421*
X688780Y167913*
X688422Y168159*
X687706*
X715444Y167421D02*
Y162992D01*
X713834Y165207D02*
X717055D01*
X721887Y169144D02*
X718666Y161270D01*
X723497Y165207D02*
X726719D01*
X729403Y168159D02*
X728866Y167913D01*
X728508Y167175*
X728329Y165945*
Y165207*
X728508Y163976*
X728866Y163238*
X729403Y162992*
X729761*
X730298Y163238*
X730656Y163976*
X730834Y165207*
Y165945*
X730656Y167175*
X730298Y167913*
X729761Y168159*
X729403*
X732624Y163484D02*
X732445Y163238D01*
X732624Y162992*
X732803Y163238*
X732624Y163484*
X735487Y168159D02*
X734950Y167913D01*
X734593Y167175*
X734414Y165945*
Y165207*
X734593Y163976*
X734950Y163238*
X735487Y162992*
X735845*
X736382Y163238*
X736740Y163976*
X736919Y165207*
Y165945*
X736740Y167175*
X736382Y167913*
X735845Y168159*
X735487*
G54D13*
X100000Y100000D02*
X117717D01*
X125591Y92126D02*
G75*
G03X117717Y100000I-7874J-0D01*
G01X125591Y92126D02*
Y48819D01*
G03X133465Y40945I7874J-0*
G01X186614*
G03X194488Y48819I0J7874*
G01Y92126*
X202362Y100000D02*
G03X194488Y92126I0J-7874D01*
G01X202362Y100000D02*
X430709D01*
X438583Y92126D02*
G03X430709Y100000I-7874J-0D01*
G01X438583Y92126D02*
Y48819D01*
G03X446457Y40945I7874J-0*
G01X499606*
G03X507480Y48819I0J7874*
G01Y92126*
X515354Y100000D02*
G03X507480Y92126I0J-7874D01*
G01X515354Y100000D02*
X533071D01*
Y205315*
X519291*
Y232874D02*
G03Y205315I0J-13780D01*
G01Y232874D02*
X533071D01*
Y323425*
X519291*
Y350984D02*
G03Y323425I0J-13779D01*
G01Y350984D02*
X533071D01*
Y446457*
G03X525197Y454331I-7874J-0*
G01X107874*
G03X100000Y446457I0J-7874*
G01Y350000*
X113780*
Y322441D02*
G03Y350000I-0J13779D01*
G01Y322441D02*
X100000D01*
Y231890*
X113780*
Y204331D02*
G03Y231890I-0J13779D01*
G01Y204331D02*
X100000D01*
Y100000*
X149213Y235827D02*
X170866D01*
Y201181*
X149213*
Y235827*
X461220D02*
X484843D01*
Y201181*
X461220*
Y235827*
X132480Y291929D02*
X187598D01*
Y266339*
X132480*
Y291929*
X445472Y266929D02*
X500591D01*
Y291929*
X445472*
Y266929*
X74409Y40945D02*
Y240888D01*
Y40945D02*
X71909Y50945D01*
X76909*
X74409Y40945*
Y454331D02*
Y254388D01*
Y454331D02*
X76909Y444331D01*
X71909*
X74409Y454331*
X95000Y40945D02*
X69409D01*
X95000Y454331D02*
X69409D01*
X57137Y249200D02*
X57591Y249513D01*
X58273Y250450*
Y243888*
X61682Y250450D02*
X61000Y250138D01*
X60546Y249200*
X60319Y247638*
Y246700*
X60546Y245138*
X61000Y244200*
X61682Y243888*
X62137*
X62819Y244200*
X63273Y245138*
X63500Y246700*
Y247638*
X63273Y249200*
X62819Y250138*
X62137Y250450*
X61682*
X68500D02*
X66228D01*
X66000Y247638*
X66228Y247950*
X66909Y248263*
X67591*
X68273Y247950*
X68728Y247325*
X68955Y246388*
X68728Y245763*
X68500Y244825*
X68046Y244200*
X67364Y243888*
X66682*
X66000Y244200*
X65773Y244513*
X65546Y245138*
X71228Y244513D02*
X71000Y244200D01*
X71228Y243888*
X71455Y244200*
X71228Y244513*
X74864Y250450D02*
X74182Y250138D01*
X73728Y249200*
X73500Y247638*
Y246700*
X73728Y245138*
X74182Y244200*
X74864Y243888*
X75319*
X76000Y244200*
X76455Y245138*
X76682Y246700*
Y247638*
X76455Y249200*
X76000Y250138*
X75319Y250450*
X74864*
X78728Y248263D02*
Y243888D01*
Y247013D02*
X79409Y247950D01*
X79864Y248263*
X80546*
X81000Y247950*
X81228Y247013*
Y243888*
Y247013D02*
X81909Y247950D01*
X82364Y248263*
X83046*
X83500Y247950*
X83728Y247013*
Y243888*
X85773Y248263D02*
Y243888D01*
Y247013D02*
X86455Y247950D01*
X86909Y248263*
X87591*
X88046Y247950*
X88273Y247013*
Y243888*
Y247013D02*
X88955Y247950D01*
X89409Y248263*
X90091*
X90546Y247950*
X90773Y247013*
Y243888*
X533071Y511909D02*
X335672D01*
X533071D02*
X523071Y509409D01*
Y514409*
X533071Y511909*
X100000D02*
X297399D01*
X100000D02*
X110000Y514409D01*
Y509409*
X100000Y511909*
X533071Y459331D02*
Y516909D01*
X100000Y459331D02*
Y516909D01*
X300399Y513472D02*
X300854Y513784D01*
X301535Y514722*
Y508159*
X303581Y513472D02*
X304035Y513784D01*
X304717Y514722*
Y508159*
X308126Y514722D02*
X307445Y514409D01*
X306990Y513472*
X306763Y511909*
Y510972*
X306990Y509409*
X307445Y508472*
X308126Y508159*
X308581*
X309263Y508472*
X309717Y509409*
X309945Y510972*
Y511909*
X309717Y513472*
X309263Y514409*
X308581Y514722*
X308126*
X312217Y508784D02*
X311990Y508472D01*
X312217Y508159*
X312445Y508472*
X312217Y508784*
X315854Y514722D02*
X315172Y514409D01*
X314717Y513472*
X314490Y511909*
Y510972*
X314717Y509409*
X315172Y508472*
X315854Y508159*
X316308*
X316990Y508472*
X317445Y509409*
X317672Y510972*
Y511909*
X317445Y513472*
X316990Y514409*
X316308Y514722*
X315854*
X319717Y512534D02*
Y508159D01*
Y511284D02*
X320399Y512222D01*
X320854Y512534*
X321535*
X321990Y512222*
X322217Y511284*
Y508159*
Y511284D02*
X322899Y512222D01*
X323354Y512534*
X324035*
X324490Y512222*
X324717Y511284*
Y508159*
X326763Y512534D02*
Y508159D01*
Y511284D02*
X327445Y512222D01*
X327899Y512534*
X328581*
X329035Y512222*
X329263Y511284*
Y508159*
Y511284D02*
X329945Y512222D01*
X330399Y512534*
X331081*
X331535Y512222*
X331763Y511284*
Y508159*
X554724Y100000D02*
Y242669D01*
Y100000D02*
X552224Y110000D01*
X557224*
X554724Y100000*
Y454331D02*
Y256169D01*
Y454331D02*
X557224Y444331D01*
X552224*
X554724Y454331*
X538071Y100000D02*
X559724D01*
X538071Y454331D02*
X559724D01*
X543899Y250044D02*
X543672Y249107D01*
X543218Y248482*
X542536Y248169*
X542309*
X541627Y248482*
X541172Y249107*
X540945Y250044*
Y250357*
X541172Y251294*
X541627Y251919*
X542309Y252232*
X542536*
X543218Y251919*
X543672Y251294*
X543899Y250044*
Y248482*
X543672Y246919*
X543218Y245982*
X542536Y245669*
X542081*
X541399Y245982*
X541172Y246607*
X547309Y252232D02*
X546627Y251919D01*
X546172Y250982*
X545945Y249419*
Y248482*
X546172Y246919*
X546627Y245982*
X547309Y245669*
X547763*
X548445Y245982*
X548899Y246919*
X549127Y248482*
Y249419*
X548899Y250982*
X548445Y251919*
X547763Y252232*
X547309*
X551399Y246294D02*
X551172Y245982D01*
X551399Y245669*
X551627Y245982*
X551399Y246294*
X555036Y252232D02*
X554354Y251919D01*
X553899Y250982*
X553672Y249419*
Y248482*
X553899Y246919*
X554354Y245982*
X555036Y245669*
X555490*
X556172Y245982*
X556627Y246919*
X556854Y248482*
Y249419*
X556627Y250982*
X556172Y251919*
X555490Y252232*
X555036*
X558899Y250044D02*
Y245669D01*
Y248794D02*
X559581Y249732D01*
X560036Y250044*
X560718*
X561172Y249732*
X561399Y248794*
Y245669*
Y248794D02*
X562081Y249732D01*
X562536Y250044*
X563218*
X563672Y249732*
X563899Y248794*
Y245669*
X565945Y250044D02*
Y245669D01*
Y248794D02*
X566627Y249732D01*
X567081Y250044*
X567763*
X568218Y249732*
X568445Y248794*
Y245669*
Y248794D02*
X569127Y249732D01*
X569581Y250044*
X570263*
X570718Y249732*
X570945Y248794*
Y245669*
X430709Y92126D02*
X430711D01*
X438348Y94036D02*
X438350D01*
X438348D02*
X447443Y98886D01*
X448655Y94036*
X438348*
X452900Y97674*
X455900Y100486D02*
Y93924D01*
Y100486D02*
X457945D01*
X458627Y100174*
X458854Y99861*
X459082Y99236*
Y98611*
X458854Y97986*
X458627Y97674*
X457945Y97361*
X455900*
X457491D02*
X459082Y93924D01*
X461354Y98924D02*
Y99236D01*
X461582Y99861*
X461809Y100174*
X462263Y100486*
X463172*
X463627Y100174*
X463854Y99861*
X464082Y99236*
Y98611*
X463854Y97986*
X463400Y97049*
X461127Y93924*
X464309*
X466582Y94549D02*
X466354Y94236D01*
X466582Y93924*
X466809Y94236*
X466582Y94549*
X470218Y100486D02*
X469536Y100174D01*
X469082Y99236*
X468854Y97674*
Y96736*
X469082Y95174*
X469536Y94236*
X470218Y93924*
X470672*
X471354Y94236*
X471809Y95174*
X472036Y96736*
Y97674*
X471809Y99236*
X471354Y100174*
X470672Y100486*
X470218*
X474082Y98299D02*
Y93924D01*
Y97049D02*
X474763Y97986D01*
X475218Y98299*
X475900*
X476354Y97986*
X476582Y97049*
Y93924*
Y97049D02*
X477263Y97986D01*
X477718Y98299*
X478400*
X478854Y97986*
X479082Y97049*
Y93924*
X481127Y98299D02*
Y93924D01*
Y97049D02*
X481809Y97986D01*
X482263Y98299*
X482945*
X483400Y97986*
X483627Y97049*
Y93924*
Y97049D02*
X484309Y97986D01*
X484763Y98299*
X485445*
X485900Y97986*
X486127Y97049*
Y93924*
X113780Y336220D02*
X113782D01*
X125465Y343524D02*
X125467D01*
X125465D02*
X132620Y350944D01*
X135270Y346704*
X125465Y343524*
X138185Y351474*
X148185*
X151185Y354286D02*
Y347724D01*
Y354286D02*
X153230D01*
X153912Y353974*
X154139Y353661*
X154366Y353036*
Y352411*
X154139Y351786*
X153912Y351474*
X153230Y351161*
X151185*
X152775D02*
X154366Y347724D01*
X156866Y354286D02*
X159366D01*
X158003Y351786*
X158685*
X159139Y351474*
X159366Y351161*
X159594Y350224*
Y349599*
X159366Y348661*
X158912Y348036*
X158230Y347724*
X157548*
X156866Y348036*
X156639Y348349*
X156412Y348974*
X161866Y348349D02*
X161639Y348036D01*
X161866Y347724*
X162094Y348036*
X161866Y348349*
X167094Y354286D02*
X164821D01*
X164594Y351474*
X164821Y351786*
X165503Y352099*
X166185*
X166866Y351786*
X167321Y351161*
X167548Y350224*
X167321Y349599*
X167094Y348661*
X166639Y348036*
X165957Y347724*
X165275*
X164594Y348036*
X164366Y348349*
X164139Y348974*
X169594Y352099D02*
Y347724D01*
Y350849D02*
X170275Y351786D01*
X170730Y352099*
X171412*
X171866Y351786*
X172094Y350849*
Y347724*
Y350849D02*
X172775Y351786D01*
X173230Y352099*
X173912*
X174366Y351786*
X174594Y350849*
Y347724*
X176639Y352099D02*
Y347724D01*
Y350849D02*
X177321Y351786D01*
X177775Y352099*
X178457*
X178912Y351786*
X179139Y350849*
Y347724*
Y350849D02*
X179821Y351786D01*
X180275Y352099*
X180957*
X181412Y351786*
X181639Y350849*
Y347724*
X107874Y446457D02*
X107877D01*
X102140Y451853D02*
X102143D01*
X102140D02*
X93145Y456886D01*
X96572Y460527*
X102140Y451853*
X91142Y462205*
X81142*
X47005Y465017D02*
Y458455D01*
Y465017D02*
X49051D01*
X49733Y464705*
X49960Y464392*
X50187Y463767*
Y463142*
X49960Y462517*
X49733Y462205*
X49051Y461892*
X47005*
X48596D02*
X50187Y458455D01*
X52460Y463455D02*
Y463767D01*
X52687Y464392*
X52914Y464705*
X53369Y465017*
X54278*
X54733Y464705*
X54960Y464392*
X55187Y463767*
Y463142*
X54960Y462517*
X54505Y461580*
X52233Y458455*
X55414*
X57687Y459080D02*
X57460Y458767D01*
X57687Y458455*
X57914Y458767*
X57687Y459080*
X61324Y465017D02*
X60642Y464705D01*
X60187Y463767*
X59960Y462205*
Y461267*
X60187Y459705*
X60642Y458767*
X61324Y458455*
X61778*
X62460Y458767*
X62914Y459705*
X63142Y461267*
Y462205*
X62914Y463767*
X62460Y464705*
X61778Y465017*
X61324*
X65187Y462830D02*
Y458455D01*
Y461580D02*
X65869Y462517D01*
X66324Y462830*
X67005*
X67460Y462517*
X67687Y461580*
Y458455*
Y461580D02*
X68369Y462517D01*
X68824Y462830*
X69505*
X69960Y462517*
X70187Y461580*
Y458455*
X72233Y462830D02*
Y458455D01*
Y461580D02*
X72914Y462517D01*
X73369Y462830*
X74051*
X74505Y462517*
X74733Y461580*
Y458455*
Y461580D02*
X75414Y462517D01*
X75869Y462830*
X76551*
X77005Y462517*
X77233Y461580*
Y458455*
X186614Y48819D02*
X186617D01*
X194253Y46909D02*
X194256D01*
X194253D02*
X204561D01*
X203348Y42058*
X194253Y46909*
X208805Y43271*
X211805Y46084D02*
Y39521D01*
Y46084D02*
X213851D01*
X214532Y45771*
X214532D02*
X214760Y45459D01*
X214987Y44834*
Y44209*
X214760Y43584*
X214532Y43271*
X214532D02*
X213851Y42959D01*
X211805*
X213396D02*
X214987Y39521D01*
X217260Y44521D02*
Y44834D01*
X217487Y45459*
X217714Y45771*
X218169Y46084*
X219078*
X219532Y45771*
X219532D02*
X219760Y45459D01*
X219987Y44834*
Y44209*
X219760Y43584*
X219305Y42646*
X217032Y39521*
X217032D02*
X220214D01*
X222487Y40146D02*
X222260Y39834D01*
X222487Y39521*
X222714Y39834*
X222487Y40146*
X226123Y46084D02*
X225442Y45771D01*
X224987Y44834*
X224760Y43271*
Y42334*
X224987Y40771*
X225442Y39834*
X226123Y39521*
X226578*
X227260Y39834*
X227714Y40771*
X227942Y42334*
Y43271*
X227714Y44834*
X227260Y45771*
X226578Y46084*
X226123*
X229987Y43896D02*
Y39521D01*
Y42646D02*
X230669Y43584D01*
X231123Y43896*
X231805*
X232260Y43584*
X232487Y42646*
Y39521*
Y42646D02*
X233169Y43584D01*
X233623Y43896*
X234305*
X234760Y43584*
X234987Y42646*
Y39521*
X237032Y43896D02*
Y39521D01*
Y42646D02*
X237714Y43584D01*
X238169Y43896*
X238851*
X239305Y43584*
X239532Y42646*
X239532D02*
Y39521D01*
Y42646D02*
X240214Y43584D01*
X240669Y43896*
X241351*
X241805Y43584*
X242032Y42646*
X242032D02*
Y39521D01*
X420866Y40945D02*
Y63722D01*
Y40945D02*
X418366Y50945D01*
X423366*
X420866Y40945*
Y100000D02*
Y77222D01*
Y100000D02*
X423366Y90000D01*
X418366*
X420866Y100000*
X437520Y40945D02*
X415866D01*
X425709Y100000D02*
X415866D01*
X406207Y72035D02*
X406662Y72347D01*
X407343Y73285*
Y66722*
X412343Y73285D02*
X410071D01*
X409843Y70472*
X410071Y70785*
X410753Y71097*
X411434*
X412116Y70785*
X412571Y70160*
X412798Y69222*
X412571Y68597*
X412343Y67660*
X411889Y67035*
X411207Y66722*
X410525*
X409843Y67035*
X409616Y67347*
X409389Y67972*
X415071Y67347D02*
X414843Y67035D01*
X415071Y66722*
X415298Y67035*
X415071Y67347*
X418707Y73285D02*
X418025Y72972D01*
X417571Y72035*
X417343Y70472*
Y69535*
X417571Y67972*
X418025Y67035*
X418707Y66722*
X419162*
X419843Y67035*
X420298Y67972*
X420525Y69535*
Y70472*
X420298Y72035*
X419843Y72972*
X419162Y73285*
X418707*
X422571Y71097D02*
Y66722D01*
Y69847D02*
X423253Y70785D01*
X423707Y71097*
X424389*
X424843Y70785*
X425071Y69847*
Y66722*
Y69847D02*
X425753Y70785D01*
X426207Y71097*
X426889*
X427343Y70785*
X427571Y69847*
Y66722*
X429616Y71097D02*
Y66722D01*
Y69847D02*
X430298Y70785D01*
X430753Y71097*
X431434*
X431889Y70785*
X432116Y69847*
Y66722*
Y69847D02*
X432798Y70785D01*
X433253Y71097*
X433934*
X434389Y70785*
X434616Y69847*
Y66722*
G74*
X0Y0D02*
M02*
