*
*
G04 PADS 9.5 Build Number: 522968 generated Gerber (RS-274-X) file*
G04 PC Version=2.1*
*
%IN "fakeSCROD.pcb"*%
*
%MOIN*%
*
%FSLAX35Y35*%
*
*
*
*
G04 PC Standard Apertures*
*
*
G04 Thermal Relief Aperture macro.*
%AMTER*
1,1,$1,0,0*
1,0,$1-$2,0,0*
21,0,$3,$4,0,0,45*
21,0,$3,$4,0,0,135*
%
*
*
G04 Annular Aperture macro.*
%AMANN*
1,1,$1,0,0*
1,0,$2,0,0*
%
*
*
G04 Odd Aperture macro.*
%AMODD*
1,1,$1,0,0*
1,0,$1-0.005,0,0*
%
*
*
G04 PC Custom Aperture Macros*
*
*
*
*
*
*
G04 PC Aperture Table*
*
%ADD010C,0.001*%
%ADD012C,0.005*%
%ADD013C,0.01*%
%ADD015C,0.16*%
%ADD028C,0.06*%
%ADD030C,0.045*%
%ADD031C,0.075*%
%ADD041C,0.02362*%
%ADD050C,0.04331*%
%ADD083R,0.06X0.06*%
%ADD086R,0.06X0.1*%
%ADD088R,0.06299X0.05906*%
%ADD089R,0.01378X0.06693*%
%ADD090O,0.01378X0.06693*%
%ADD091R,0.06693X0.01378*%
%ADD092O,0.06693X0.01378*%
%ADD095O,0.00984X0.04921*%
%ADD096R,0.02X0.05*%
%ADD109R,0.0315X0.01969*%
%ADD110R,0.04331X0.0315*%
%ADD111R,0.01969X0.0315*%
%ADD116R,0.00984X0.04921*%
%ADD155C,0.02756*%
%ADD160C,0.093*%
%ADD173C,0.04543*%
%ADD175C,0.03543*%
%ADD176C,0.08661*%
%ADD204C,0.013*%
%ADD260C,0.07087*%
%ADD261R,0.059X0.085*%
%ADD262C,0.05*%
%ADD263R,0.0374X0.1378*%
%ADD264R,0.06299X0.10236*%
%ADD265R,0.00984X0.02953*%
%ADD266R,0.05787X0.02598*%
%ADD267R,0.075X0.075*%
%ADD294C,0.026*%
*
*
*
*
G04 PC Circuitry*
G04 Layer Name fakeSCROD.pcb - circuitry*
%LPD*%
*
*
G04 PC Custom Flashes*
G04 Layer Name fakeSCROD.pcb - flashes*
%LPD*%
*
*
G04 PC Circuitry*
G04 Layer Name fakeSCROD.pcb - circuitry*
%LPD*%
*
G54D10*
G54D12*
G01X100250Y100250D02*
X127309D01*
Y446207*
X100250*
Y100250*
X505762D02*
X532821D01*
Y446207*
X505762*
Y100250*
X100250Y445750D02*
X127309D01*
X100250Y445250D02*
X127309D01*
X100250Y444750D02*
X127309D01*
X100250Y444250D02*
X127309D01*
X100250Y443750D02*
X127309D01*
X100250Y443250D02*
X127309D01*
X100250Y442750D02*
X127309D01*
X100250Y442250D02*
X127309D01*
X100250Y441750D02*
X127309D01*
X100250Y441250D02*
X127309D01*
X100250Y440750D02*
X127309D01*
X100250Y440250D02*
X127309D01*
X100250Y439750D02*
X127309D01*
X100250Y439250D02*
X127309D01*
X100250Y438750D02*
X127309D01*
X100250Y438250D02*
X127309D01*
X100250Y437750D02*
X127309D01*
X100250Y437250D02*
X127309D01*
X100250Y436750D02*
X127309D01*
X100250Y436250D02*
X127309D01*
X100250Y435750D02*
X127309D01*
X100250Y435250D02*
X127309D01*
X100250Y434750D02*
X127309D01*
X100250Y434250D02*
X127309D01*
X100250Y433750D02*
X127309D01*
X100250Y433250D02*
X127309D01*
X100250Y432750D02*
X127309D01*
X100250Y432250D02*
X127309D01*
X100250Y431750D02*
X127309D01*
X100250Y431250D02*
X127309D01*
X100250Y430750D02*
X127309D01*
X100250Y430250D02*
X127309D01*
X100250Y429750D02*
X127309D01*
X100250Y429250D02*
X127309D01*
X100250Y428750D02*
X127309D01*
X100250Y428250D02*
X127309D01*
X100250Y427750D02*
X127309D01*
X100250Y427250D02*
X127309D01*
X100250Y426750D02*
X127309D01*
X100250Y426250D02*
X127309D01*
X100250Y425750D02*
X127309D01*
X100250Y425250D02*
X127309D01*
X100250Y424750D02*
X127309D01*
X100250Y424250D02*
X127309D01*
X100250Y423750D02*
X127309D01*
X100250Y423250D02*
X127309D01*
X100250Y422750D02*
X127309D01*
X100250Y422250D02*
X127309D01*
X100250Y421750D02*
X127309D01*
X100250Y421250D02*
X127309D01*
X100250Y420750D02*
X127309D01*
X100250Y420250D02*
X127309D01*
X100250Y419750D02*
X127309D01*
X100250Y419250D02*
X127309D01*
X100250Y418750D02*
X127309D01*
X100250Y418250D02*
X127309D01*
X100250Y417750D02*
X127309D01*
X100250Y417250D02*
X127309D01*
X100250Y416750D02*
X127309D01*
X100250Y416250D02*
X127309D01*
X100250Y415750D02*
X127309D01*
X100250Y415250D02*
X127309D01*
X100250Y414750D02*
X127309D01*
X100250Y414250D02*
X127309D01*
X100250Y413750D02*
X127309D01*
X100250Y413250D02*
X127309D01*
X100250Y412750D02*
X127309D01*
X100250Y412250D02*
X127309D01*
X100250Y411750D02*
X127309D01*
X100250Y411250D02*
X127309D01*
X100250Y410750D02*
X127309D01*
X100250Y410250D02*
X127309D01*
X100250Y409750D02*
X127309D01*
X100250Y409250D02*
X127309D01*
X100250Y408750D02*
X127309D01*
X100250Y408250D02*
X127309D01*
X100250Y407750D02*
X127309D01*
X100250Y407250D02*
X127309D01*
X100250Y406750D02*
X127309D01*
X100250Y406250D02*
X127309D01*
X100250Y405750D02*
X127309D01*
X100250Y405250D02*
X127309D01*
X100250Y404750D02*
X127309D01*
X100250Y404250D02*
X127309D01*
X100250Y403750D02*
X127309D01*
X100250Y403250D02*
X127309D01*
X100250Y402750D02*
X127309D01*
X100250Y402250D02*
X127309D01*
X100250Y401750D02*
X127309D01*
X100250Y401250D02*
X127309D01*
X100250Y400750D02*
X127309D01*
X100250Y400250D02*
X127309D01*
X100250Y399750D02*
X127309D01*
X100250Y399250D02*
X127309D01*
X100250Y398750D02*
X127309D01*
X100250Y398250D02*
X127309D01*
X100250Y397750D02*
X127309D01*
X100250Y397250D02*
X127309D01*
X100250Y396750D02*
X127309D01*
X100250Y396250D02*
X127309D01*
X100250Y395750D02*
X127309D01*
X100250Y395250D02*
X127309D01*
X100250Y394750D02*
X127309D01*
X100250Y394250D02*
X127309D01*
X100250Y393750D02*
X127309D01*
X100250Y393250D02*
X127309D01*
X100250Y392750D02*
X127309D01*
X100250Y392250D02*
X127309D01*
X100250Y391750D02*
X127309D01*
X100250Y391250D02*
X127309D01*
X100250Y390750D02*
X127309D01*
X100250Y390250D02*
X127309D01*
X100250Y389750D02*
X127309D01*
X100250Y389250D02*
X127309D01*
X100250Y388750D02*
X127309D01*
X100250Y388250D02*
X127309D01*
X100250Y387750D02*
X127309D01*
X100250Y387250D02*
X127309D01*
X100250Y386750D02*
X127309D01*
X100250Y386250D02*
X127309D01*
X100250Y385750D02*
X127309D01*
X100250Y385250D02*
X127309D01*
X100250Y384750D02*
X127309D01*
X100250Y384250D02*
X127309D01*
X100250Y383750D02*
X127309D01*
X100250Y383250D02*
X127309D01*
X100250Y382750D02*
X127309D01*
X100250Y382250D02*
X127309D01*
X100250Y381750D02*
X127309D01*
X100250Y381250D02*
X127309D01*
X100250Y380750D02*
X127309D01*
X100250Y380250D02*
X127309D01*
X100250Y379750D02*
X127309D01*
X100250Y379250D02*
X127309D01*
X100250Y378750D02*
X127309D01*
X100250Y378250D02*
X127309D01*
X100250Y377750D02*
X127309D01*
X100250Y377250D02*
X127309D01*
X100250Y376750D02*
X127309D01*
X100250Y376250D02*
X127309D01*
X100250Y375750D02*
X127309D01*
X100250Y375250D02*
X127309D01*
X100250Y374750D02*
X127309D01*
X100250Y374250D02*
X127309D01*
X100250Y373750D02*
X127309D01*
X100250Y373250D02*
X127309D01*
X100250Y372750D02*
X127309D01*
X100250Y372250D02*
X127309D01*
X100250Y371750D02*
X127309D01*
X100250Y371250D02*
X127309D01*
X100250Y370750D02*
X127309D01*
X100250Y370250D02*
X127309D01*
X100250Y369750D02*
X127309D01*
X100250Y369250D02*
X127309D01*
X100250Y368750D02*
X127309D01*
X100250Y368250D02*
X127309D01*
X100250Y367750D02*
X127309D01*
X100250Y367250D02*
X127309D01*
X100250Y366750D02*
X127309D01*
X100250Y366250D02*
X127309D01*
X100250Y365750D02*
X127309D01*
X100250Y365250D02*
X127309D01*
X100250Y364750D02*
X127309D01*
X100250Y364250D02*
X127309D01*
X100250Y363750D02*
X127309D01*
X100250Y363250D02*
X127309D01*
X100250Y362750D02*
X127309D01*
X100250Y362250D02*
X127309D01*
X100250Y361750D02*
X127309D01*
X100250Y361250D02*
X127309D01*
X100250Y360750D02*
X127309D01*
X100250Y360250D02*
X127309D01*
X100250Y359750D02*
X127309D01*
X100250Y359250D02*
X127309D01*
X100250Y358750D02*
X127309D01*
X100250Y358250D02*
X127309D01*
X100250Y357750D02*
X127309D01*
X100250Y357250D02*
X127309D01*
X100250Y356750D02*
X127309D01*
X100250Y356250D02*
X127309D01*
X100250Y355750D02*
X127309D01*
X100250Y355250D02*
X127309D01*
X100250Y354750D02*
X127309D01*
X100250Y354250D02*
X127309D01*
X100250Y353750D02*
X127309D01*
X100250Y353250D02*
X127309D01*
X100250Y352750D02*
X127309D01*
X100250Y352250D02*
X127309D01*
X100250Y351750D02*
X127309D01*
X100250Y351250D02*
X127309D01*
X100250Y350750D02*
X127309D01*
X100250Y350250D02*
X127309D01*
X100250Y349750D02*
X127309D01*
X100250Y349250D02*
X127309D01*
X100250Y348750D02*
X127309D01*
X100250Y348250D02*
X127309D01*
X100250Y347750D02*
X127309D01*
X100250Y347250D02*
X127309D01*
X100250Y346750D02*
X127309D01*
X100250Y346250D02*
X127309D01*
X100250Y345750D02*
X127309D01*
X100250Y345250D02*
X127309D01*
X100250Y344750D02*
X127309D01*
X100250Y344250D02*
X127309D01*
X100250Y343750D02*
X127309D01*
X100250Y343250D02*
X127309D01*
X100250Y342750D02*
X127309D01*
X100250Y342250D02*
X127309D01*
X100250Y341750D02*
X127309D01*
X100250Y341250D02*
X127309D01*
X100250Y340750D02*
X127309D01*
X100250Y340250D02*
X127309D01*
X100250Y339750D02*
X127309D01*
X100250Y339250D02*
X127309D01*
X100250Y338750D02*
X127309D01*
X100250Y338250D02*
X127309D01*
X100250Y337750D02*
X127309D01*
X100250Y337250D02*
X127309D01*
X100250Y336750D02*
X127309D01*
X100250Y336250D02*
X127309D01*
X100250Y335750D02*
X127309D01*
X100250Y335250D02*
X127309D01*
X100250Y334750D02*
X127309D01*
X100250Y334250D02*
X127309D01*
X100250Y333750D02*
X127309D01*
X100250Y333250D02*
X127309D01*
X100250Y332750D02*
X127309D01*
X100250Y332250D02*
X127309D01*
X100250Y331750D02*
X127309D01*
X100250Y331250D02*
X127309D01*
X100250Y330750D02*
X127309D01*
X100250Y330250D02*
X127309D01*
X100250Y329750D02*
X127309D01*
X100250Y329250D02*
X127309D01*
X100250Y328750D02*
X127309D01*
X100250Y328250D02*
X127309D01*
X100250Y327750D02*
X127309D01*
X100250Y327250D02*
X127309D01*
X100250Y326750D02*
X127309D01*
X100250Y326250D02*
X127309D01*
X100250Y325750D02*
X127309D01*
X100250Y325250D02*
X127309D01*
X100250Y324750D02*
X127309D01*
X100250Y324250D02*
X127309D01*
X100250Y323750D02*
X127309D01*
X100250Y323250D02*
X127309D01*
X100250Y322750D02*
X127309D01*
X100250Y322250D02*
X127309D01*
X100250Y321750D02*
X127309D01*
X100250Y321250D02*
X127309D01*
X100250Y320750D02*
X127309D01*
X100250Y320250D02*
X127309D01*
X100250Y319750D02*
X127309D01*
X100250Y319250D02*
X127309D01*
X100250Y318750D02*
X127309D01*
X100250Y318250D02*
X127309D01*
X100250Y317750D02*
X127309D01*
X100250Y317250D02*
X127309D01*
X100250Y316750D02*
X127309D01*
X100250Y316250D02*
X127309D01*
X100250Y315750D02*
X127309D01*
X100250Y315250D02*
X127309D01*
X100250Y314750D02*
X127309D01*
X100250Y314250D02*
X127309D01*
X100250Y313750D02*
X127309D01*
X100250Y313250D02*
X127309D01*
X100250Y312750D02*
X127309D01*
X100250Y312250D02*
X127309D01*
X100250Y311750D02*
X127309D01*
X100250Y311250D02*
X127309D01*
X100250Y310750D02*
X127309D01*
X100250Y310250D02*
X127309D01*
X100250Y309750D02*
X127309D01*
X100250Y309250D02*
X127309D01*
X100250Y308750D02*
X127309D01*
X100250Y308250D02*
X127309D01*
X100250Y307750D02*
X127309D01*
X100250Y307250D02*
X127309D01*
X100250Y306750D02*
X127309D01*
X100250Y306250D02*
X127309D01*
X100250Y305750D02*
X127309D01*
X100250Y305250D02*
X127309D01*
X100250Y304750D02*
X127309D01*
X100250Y304250D02*
X127309D01*
X100250Y303750D02*
X127309D01*
X100250Y303250D02*
X127309D01*
X100250Y302750D02*
X127309D01*
X100250Y302250D02*
X127309D01*
X100250Y301750D02*
X127309D01*
X100250Y301250D02*
X127309D01*
X100250Y300750D02*
X127309D01*
X100250Y300250D02*
X127309D01*
X100250Y299750D02*
X127309D01*
X100250Y299250D02*
X127309D01*
X100250Y298750D02*
X127309D01*
X100250Y298250D02*
X127309D01*
X100250Y297750D02*
X127309D01*
X100250Y297250D02*
X127309D01*
X100250Y296750D02*
X127309D01*
X100250Y296250D02*
X127309D01*
X100250Y295750D02*
X127309D01*
X100250Y295250D02*
X127309D01*
X100250Y294750D02*
X127309D01*
X100250Y294250D02*
X127309D01*
X100250Y293750D02*
X127309D01*
X100250Y293250D02*
X127309D01*
X100250Y292750D02*
X127309D01*
X100250Y292250D02*
X127309D01*
X100250Y291750D02*
X127309D01*
X100250Y291250D02*
X127309D01*
X100250Y290750D02*
X127309D01*
X100250Y290250D02*
X127309D01*
X100250Y289750D02*
X127309D01*
X100250Y289250D02*
X127309D01*
X100250Y288750D02*
X127309D01*
X100250Y288250D02*
X127309D01*
X100250Y287750D02*
X127309D01*
X100250Y287250D02*
X127309D01*
X100250Y286750D02*
X127309D01*
X100250Y286250D02*
X127309D01*
X100250Y285750D02*
X127309D01*
X100250Y285250D02*
X127309D01*
X100250Y284750D02*
X127309D01*
X100250Y284250D02*
X127309D01*
X100250Y283750D02*
X127309D01*
X100250Y283250D02*
X127309D01*
X100250Y282750D02*
X127309D01*
X100250Y282250D02*
X127309D01*
X100250Y281750D02*
X127309D01*
X100250Y281250D02*
X127309D01*
X100250Y280750D02*
X127309D01*
X100250Y280250D02*
X127309D01*
X100250Y279750D02*
X127309D01*
X100250Y279250D02*
X127309D01*
X100250Y278750D02*
X127309D01*
X100250Y278250D02*
X127309D01*
X100250Y277750D02*
X127309D01*
X100250Y277250D02*
X127309D01*
X100250Y276750D02*
X127309D01*
X100250Y276250D02*
X127309D01*
X100250Y275750D02*
X127309D01*
X100250Y275250D02*
X127309D01*
X100250Y274750D02*
X127309D01*
X100250Y274250D02*
X127309D01*
X100250Y273750D02*
X127309D01*
X100250Y273250D02*
X127309D01*
X100250Y272750D02*
X127309D01*
X100250Y272250D02*
X127309D01*
X100250Y271750D02*
X127309D01*
X100250Y271250D02*
X127309D01*
X100250Y270750D02*
X127309D01*
X100250Y270250D02*
X127309D01*
X100250Y269750D02*
X127309D01*
X100250Y269250D02*
X127309D01*
X100250Y268750D02*
X127309D01*
X100250Y268250D02*
X127309D01*
X100250Y267750D02*
X127309D01*
X100250Y267250D02*
X127309D01*
X100250Y266750D02*
X127309D01*
X100250Y266250D02*
X127309D01*
X100250Y265750D02*
X127309D01*
X100250Y265250D02*
X127309D01*
X100250Y264750D02*
X127309D01*
X100250Y264250D02*
X127309D01*
X100250Y263750D02*
X127309D01*
X100250Y263250D02*
X127309D01*
X100250Y262750D02*
X127309D01*
X100250Y262250D02*
X127309D01*
X100250Y261750D02*
X127309D01*
X100250Y261250D02*
X127309D01*
X100250Y260750D02*
X127309D01*
X100250Y260250D02*
X127309D01*
X100250Y259750D02*
X127309D01*
X100250Y259250D02*
X127309D01*
X100250Y258750D02*
X127309D01*
X100250Y258250D02*
X127309D01*
X100250Y257750D02*
X127309D01*
X100250Y257250D02*
X127309D01*
X100250Y256750D02*
X127309D01*
X100250Y256250D02*
X127309D01*
X100250Y255750D02*
X127309D01*
X100250Y255250D02*
X127309D01*
X100250Y254750D02*
X127309D01*
X100250Y254250D02*
X127309D01*
X100250Y253750D02*
X127309D01*
X100250Y253250D02*
X127309D01*
X100250Y252750D02*
X127309D01*
X100250Y252250D02*
X127309D01*
X100250Y251750D02*
X127309D01*
X100250Y251250D02*
X127309D01*
X100250Y250750D02*
X127309D01*
X100250Y250250D02*
X127309D01*
X100250Y249750D02*
X127309D01*
X100250Y249250D02*
X127309D01*
X100250Y248750D02*
X127309D01*
X100250Y248250D02*
X127309D01*
X100250Y247750D02*
X127309D01*
X100250Y247250D02*
X127309D01*
X100250Y246750D02*
X127309D01*
X100250Y246250D02*
X127309D01*
X100250Y245750D02*
X127309D01*
X100250Y245250D02*
X127309D01*
X100250Y244750D02*
X127309D01*
X100250Y244250D02*
X127309D01*
X100250Y243750D02*
X127309D01*
X100250Y243250D02*
X127309D01*
X100250Y242750D02*
X127309D01*
X100250Y242250D02*
X127309D01*
X100250Y241750D02*
X127309D01*
X100250Y241250D02*
X127309D01*
X100250Y240750D02*
X127309D01*
X100250Y240250D02*
X127309D01*
X100250Y239750D02*
X127309D01*
X100250Y239250D02*
X127309D01*
X100250Y238750D02*
X127309D01*
X100250Y238250D02*
X127309D01*
X100250Y237750D02*
X127309D01*
X100250Y237250D02*
X127309D01*
X100250Y236750D02*
X127309D01*
X100250Y236250D02*
X127309D01*
X100250Y235750D02*
X127309D01*
X100250Y235250D02*
X127309D01*
X100250Y234750D02*
X127309D01*
X100250Y234250D02*
X127309D01*
X100250Y233750D02*
X127309D01*
X100250Y233250D02*
X127309D01*
X100250Y232750D02*
X127309D01*
X100250Y232250D02*
X127309D01*
X100250Y231750D02*
X127309D01*
X100250Y231250D02*
X127309D01*
X100250Y230750D02*
X127309D01*
X100250Y230250D02*
X127309D01*
X100250Y229750D02*
X127309D01*
X100250Y229250D02*
X127309D01*
X100250Y228750D02*
X127309D01*
X100250Y228250D02*
X127309D01*
X100250Y227750D02*
X127309D01*
X100250Y227250D02*
X127309D01*
X100250Y226750D02*
X127309D01*
X100250Y226250D02*
X127309D01*
X100250Y225750D02*
X127309D01*
X100250Y225250D02*
X127309D01*
X100250Y224750D02*
X127309D01*
X100250Y224250D02*
X127309D01*
X100250Y223750D02*
X127309D01*
X100250Y223250D02*
X127309D01*
X100250Y222750D02*
X127309D01*
X100250Y222250D02*
X127309D01*
X100250Y221750D02*
X127309D01*
X100250Y221250D02*
X127309D01*
X100250Y220750D02*
X127309D01*
X100250Y220250D02*
X127309D01*
X100250Y219750D02*
X127309D01*
X100250Y219250D02*
X127309D01*
X100250Y218750D02*
X127309D01*
X100250Y218250D02*
X127309D01*
X100250Y217750D02*
X127309D01*
X100250Y217250D02*
X127309D01*
X100250Y216750D02*
X127309D01*
X100250Y216250D02*
X127309D01*
X100250Y215750D02*
X127309D01*
X100250Y215250D02*
X127309D01*
X100250Y214750D02*
X127309D01*
X100250Y214250D02*
X127309D01*
X100250Y213750D02*
X127309D01*
X100250Y213250D02*
X127309D01*
X100250Y212750D02*
X127309D01*
X100250Y212250D02*
X127309D01*
X100250Y211750D02*
X127309D01*
X100250Y211250D02*
X127309D01*
X100250Y210750D02*
X127309D01*
X100250Y210250D02*
X127309D01*
X100250Y209750D02*
X127309D01*
X100250Y209250D02*
X127309D01*
X100250Y208750D02*
X127309D01*
X100250Y208250D02*
X127309D01*
X100250Y207750D02*
X127309D01*
X100250Y207250D02*
X127309D01*
X100250Y206750D02*
X127309D01*
X100250Y206250D02*
X127309D01*
X100250Y205750D02*
X127309D01*
X100250Y205250D02*
X127309D01*
X100250Y204750D02*
X127309D01*
X100250Y204250D02*
X127309D01*
X100250Y203750D02*
X127309D01*
X100250Y203250D02*
X127309D01*
X100250Y202750D02*
X127309D01*
X100250Y202250D02*
X127309D01*
X100250Y201750D02*
X127309D01*
X100250Y201250D02*
X127309D01*
X100250Y200750D02*
X127309D01*
X100250Y200250D02*
X127309D01*
X100250Y199750D02*
X127309D01*
X100250Y199250D02*
X127309D01*
X100250Y198750D02*
X127309D01*
X100250Y198250D02*
X127309D01*
X100250Y197750D02*
X127309D01*
X100250Y197250D02*
X127309D01*
X100250Y196750D02*
X127309D01*
X100250Y196250D02*
X127309D01*
X100250Y195750D02*
X127309D01*
X100250Y195250D02*
X127309D01*
X100250Y194750D02*
X127309D01*
X100250Y194250D02*
X127309D01*
X100250Y193750D02*
X127309D01*
X100250Y193250D02*
X127309D01*
X100250Y192750D02*
X127309D01*
X100250Y192250D02*
X127309D01*
X100250Y191750D02*
X127309D01*
X100250Y191250D02*
X127309D01*
X100250Y190750D02*
X127309D01*
X100250Y190250D02*
X127309D01*
X100250Y189750D02*
X127309D01*
X100250Y189250D02*
X127309D01*
X100250Y188750D02*
X127309D01*
X100250Y188250D02*
X127309D01*
X100250Y187750D02*
X127309D01*
X100250Y187250D02*
X127309D01*
X100250Y186750D02*
X127309D01*
X100250Y186250D02*
X127309D01*
X100250Y185750D02*
X127309D01*
X100250Y185250D02*
X127309D01*
X100250Y184750D02*
X127309D01*
X100250Y184250D02*
X127309D01*
X100250Y183750D02*
X127309D01*
X100250Y183250D02*
X127309D01*
X100250Y182750D02*
X127309D01*
X100250Y182250D02*
X127309D01*
X100250Y181750D02*
X127309D01*
X100250Y181250D02*
X127309D01*
X100250Y180750D02*
X127309D01*
X100250Y180250D02*
X127309D01*
X100250Y179750D02*
X127309D01*
X100250Y179250D02*
X127309D01*
X100250Y178750D02*
X127309D01*
X100250Y178250D02*
X127309D01*
X100250Y177750D02*
X127309D01*
X100250Y177250D02*
X127309D01*
X100250Y176750D02*
X127309D01*
X100250Y176250D02*
X127309D01*
X100250Y175750D02*
X127309D01*
X100250Y175250D02*
X127309D01*
X100250Y174750D02*
X127309D01*
X100250Y174250D02*
X127309D01*
X100250Y173750D02*
X127309D01*
X100250Y173250D02*
X127309D01*
X100250Y172750D02*
X127309D01*
X100250Y172250D02*
X127309D01*
X100250Y171750D02*
X127309D01*
X100250Y171250D02*
X127309D01*
X100250Y170750D02*
X127309D01*
X100250Y170250D02*
X127309D01*
X100250Y169750D02*
X127309D01*
X100250Y169250D02*
X127309D01*
X100250Y168750D02*
X127309D01*
X100250Y168250D02*
X127309D01*
X100250Y167750D02*
X127309D01*
X100250Y167250D02*
X127309D01*
X100250Y166750D02*
X127309D01*
X100250Y166250D02*
X127309D01*
X100250Y165750D02*
X127309D01*
X100250Y165250D02*
X127309D01*
X100250Y164750D02*
X127309D01*
X100250Y164250D02*
X127309D01*
X100250Y163750D02*
X127309D01*
X100250Y163250D02*
X127309D01*
X100250Y162750D02*
X127309D01*
X100250Y162250D02*
X127309D01*
X100250Y161750D02*
X127309D01*
X100250Y161250D02*
X127309D01*
X100250Y160750D02*
X127309D01*
X100250Y160250D02*
X127309D01*
X100250Y159750D02*
X127309D01*
X100250Y159250D02*
X127309D01*
X100250Y158750D02*
X127309D01*
X100250Y158250D02*
X127309D01*
X100250Y157750D02*
X127309D01*
X100250Y157250D02*
X127309D01*
X100250Y156750D02*
X127309D01*
X100250Y156250D02*
X127309D01*
X100250Y155750D02*
X127309D01*
X100250Y155250D02*
X127309D01*
X100250Y154750D02*
X127309D01*
X100250Y154250D02*
X127309D01*
X100250Y153750D02*
X127309D01*
X100250Y153250D02*
X127309D01*
X100250Y152750D02*
X127309D01*
X100250Y152250D02*
X127309D01*
X100250Y151750D02*
X127309D01*
X100250Y151250D02*
X127309D01*
X100250Y150750D02*
X127309D01*
X100250Y150250D02*
X127309D01*
X100250Y149750D02*
X127309D01*
X100250Y149250D02*
X127309D01*
X100250Y148750D02*
X127309D01*
X100250Y148250D02*
X127309D01*
X100250Y147750D02*
X127309D01*
X100250Y147250D02*
X127309D01*
X100250Y146750D02*
X127309D01*
X100250Y146250D02*
X127309D01*
X100250Y145750D02*
X127309D01*
X100250Y145250D02*
X127309D01*
X100250Y144750D02*
X127309D01*
X100250Y144250D02*
X127309D01*
X100250Y143750D02*
X127309D01*
X100250Y143250D02*
X127309D01*
X100250Y142750D02*
X127309D01*
X100250Y142250D02*
X127309D01*
X100250Y141750D02*
X127309D01*
X100250Y141250D02*
X127309D01*
X100250Y140750D02*
X127309D01*
X100250Y140250D02*
X127309D01*
X100250Y139750D02*
X127309D01*
X100250Y139250D02*
X127309D01*
X100250Y138750D02*
X127309D01*
X100250Y138250D02*
X127309D01*
X100250Y137750D02*
X127309D01*
X100250Y137250D02*
X127309D01*
X100250Y136750D02*
X127309D01*
X100250Y136250D02*
X127309D01*
X100250Y135750D02*
X127309D01*
X100250Y135250D02*
X127309D01*
X100250Y134750D02*
X127309D01*
X100250Y134250D02*
X127309D01*
X100250Y133750D02*
X127309D01*
X100250Y133250D02*
X127309D01*
X100250Y132750D02*
X127309D01*
X100250Y132250D02*
X127309D01*
X100250Y131750D02*
X127309D01*
X100250Y131250D02*
X127309D01*
X100250Y130750D02*
X127309D01*
X100250Y130250D02*
X127309D01*
X100250Y129750D02*
X127309D01*
X100250Y129250D02*
X127309D01*
X100250Y128750D02*
X127309D01*
X100250Y128250D02*
X127309D01*
X100250Y127750D02*
X127309D01*
X100250Y127250D02*
X127309D01*
X100250Y126750D02*
X127309D01*
X100250Y126250D02*
X127309D01*
X100250Y125750D02*
X127309D01*
X100250Y125250D02*
X127309D01*
X100250Y124750D02*
X127309D01*
X100250Y124250D02*
X127309D01*
X100250Y123750D02*
X127309D01*
X100250Y123250D02*
X127309D01*
X100250Y122750D02*
X127309D01*
X100250Y122250D02*
X127309D01*
X100250Y121750D02*
X127309D01*
X100250Y121250D02*
X127309D01*
X100250Y120750D02*
X127309D01*
X100250Y120250D02*
X127309D01*
X100250Y119750D02*
X127309D01*
X100250Y119250D02*
X127309D01*
X100250Y118750D02*
X127309D01*
X100250Y118250D02*
X127309D01*
X100250Y117750D02*
X127309D01*
X100250Y117250D02*
X127309D01*
X100250Y116750D02*
X127309D01*
X100250Y116250D02*
X127309D01*
X100250Y115750D02*
X127309D01*
X100250Y115250D02*
X127309D01*
X100250Y114750D02*
X127309D01*
X100250Y114250D02*
X127309D01*
X100250Y113750D02*
X127309D01*
X100250Y113250D02*
X127309D01*
X100250Y112750D02*
X127309D01*
X100250Y112250D02*
X127309D01*
X100250Y111750D02*
X127309D01*
X100250Y111250D02*
X127309D01*
X100250Y110750D02*
X127309D01*
X100250Y110250D02*
X127309D01*
X100250Y109750D02*
X127309D01*
X100250Y109250D02*
X127309D01*
X100250Y108750D02*
X127309D01*
X100250Y108250D02*
X127309D01*
X100250Y107750D02*
X127309D01*
X100250Y107250D02*
X127309D01*
X100250Y106750D02*
X127309D01*
X100250Y106250D02*
X127309D01*
X100250Y105750D02*
X127309D01*
X100250Y105250D02*
X127309D01*
X100250Y104750D02*
X127309D01*
X100250Y104250D02*
X127309D01*
X100250Y103750D02*
X127309D01*
X100250Y103250D02*
X127309D01*
X100250Y102750D02*
X127309D01*
X100250Y102250D02*
X127309D01*
X100250Y101750D02*
X127309D01*
X100250Y101250D02*
X127309D01*
X100250Y100750D02*
X127309D01*
X100250Y100250D02*
Y446207D01*
X100750Y100250D02*
Y446207D01*
X101250Y100250D02*
Y446207D01*
X101750Y100250D02*
Y446207D01*
X102250Y100250D02*
Y446207D01*
X102750Y100250D02*
Y446207D01*
X103250Y100250D02*
Y446207D01*
X103750Y100250D02*
Y446207D01*
X104250Y100250D02*
Y446207D01*
X104750Y100250D02*
Y446207D01*
X105250Y100250D02*
Y446207D01*
X105750Y100250D02*
Y446207D01*
X106250Y100250D02*
Y446207D01*
X106750Y100250D02*
Y446207D01*
X107250Y100250D02*
Y446207D01*
X107750Y100250D02*
Y446207D01*
X108250Y100250D02*
Y446207D01*
X108750Y100250D02*
Y446207D01*
X109250Y100250D02*
Y446207D01*
X109750Y100250D02*
Y446207D01*
X110250Y100250D02*
Y446207D01*
X110750Y100250D02*
Y446207D01*
X111250Y100250D02*
Y446207D01*
X111750Y100250D02*
Y446207D01*
X112250Y100250D02*
Y446207D01*
X112750Y100250D02*
Y446207D01*
X113250Y100250D02*
Y446207D01*
X113750Y100250D02*
Y446207D01*
X114250Y100250D02*
Y446207D01*
X114750Y100250D02*
Y446207D01*
X115250Y100250D02*
Y446207D01*
X115750Y100250D02*
Y446207D01*
X116250Y100250D02*
Y446207D01*
X116750Y100250D02*
Y446207D01*
X117250Y100250D02*
Y446207D01*
X117750Y100250D02*
Y446207D01*
X118250Y100250D02*
Y446207D01*
X118750Y100250D02*
Y446207D01*
X119250Y100250D02*
Y446207D01*
X119750Y100250D02*
Y446207D01*
X120250Y100250D02*
Y446207D01*
X120750Y100250D02*
Y446207D01*
X121250Y100250D02*
Y446207D01*
X121750Y100250D02*
Y446207D01*
X122250Y100250D02*
Y446207D01*
X122750Y100250D02*
Y446207D01*
X123250Y100250D02*
Y446207D01*
X123750Y100250D02*
Y446207D01*
X124250Y100250D02*
Y446207D01*
X124750Y100250D02*
Y446207D01*
X125250Y100250D02*
Y446207D01*
X125750Y100250D02*
Y446207D01*
X126250Y100250D02*
Y446207D01*
X126750Y100250D02*
Y446207D01*
X127250Y100250D02*
Y446207D01*
X505762Y445750D02*
X532821D01*
X505762Y445250D02*
X532821D01*
X505762Y444750D02*
X532821D01*
X505762Y444250D02*
X532821D01*
X505762Y443750D02*
X532821D01*
X505762Y443250D02*
X532821D01*
X505762Y442750D02*
X532821D01*
X505762Y442250D02*
X532821D01*
X505762Y441750D02*
X532821D01*
X505762Y441250D02*
X532821D01*
X505762Y440750D02*
X532821D01*
X505762Y440250D02*
X532821D01*
X505762Y439750D02*
X532821D01*
X505762Y439250D02*
X532821D01*
X505762Y438750D02*
X532821D01*
X505762Y438250D02*
X532821D01*
X505762Y437750D02*
X532821D01*
X505762Y437250D02*
X532821D01*
X505762Y436750D02*
X532821D01*
X505762Y436250D02*
X532821D01*
X505762Y435750D02*
X532821D01*
X505762Y435250D02*
X532821D01*
X505762Y434750D02*
X532821D01*
X505762Y434250D02*
X532821D01*
X505762Y433750D02*
X532821D01*
X505762Y433250D02*
X532821D01*
X505762Y432750D02*
X532821D01*
X505762Y432250D02*
X532821D01*
X505762Y431750D02*
X532821D01*
X505762Y431250D02*
X532821D01*
X505762Y430750D02*
X532821D01*
X505762Y430250D02*
X532821D01*
X505762Y429750D02*
X532821D01*
X505762Y429250D02*
X532821D01*
X505762Y428750D02*
X532821D01*
X505762Y428250D02*
X532821D01*
X505762Y427750D02*
X532821D01*
X505762Y427250D02*
X532821D01*
X505762Y426750D02*
X532821D01*
X505762Y426250D02*
X532821D01*
X505762Y425750D02*
X532821D01*
X505762Y425250D02*
X532821D01*
X505762Y424750D02*
X532821D01*
X505762Y424250D02*
X532821D01*
X505762Y423750D02*
X532821D01*
X505762Y423250D02*
X532821D01*
X505762Y422750D02*
X532821D01*
X505762Y422250D02*
X532821D01*
X505762Y421750D02*
X532821D01*
X505762Y421250D02*
X532821D01*
X505762Y420750D02*
X532821D01*
X505762Y420250D02*
X532821D01*
X505762Y419750D02*
X532821D01*
X505762Y419250D02*
X532821D01*
X505762Y418750D02*
X532821D01*
X505762Y418250D02*
X532821D01*
X505762Y417750D02*
X532821D01*
X505762Y417250D02*
X532821D01*
X505762Y416750D02*
X532821D01*
X505762Y416250D02*
X532821D01*
X505762Y415750D02*
X532821D01*
X505762Y415250D02*
X532821D01*
X505762Y414750D02*
X532821D01*
X505762Y414250D02*
X532821D01*
X505762Y413750D02*
X532821D01*
X505762Y413250D02*
X532821D01*
X505762Y412750D02*
X532821D01*
X505762Y412250D02*
X532821D01*
X505762Y411750D02*
X532821D01*
X505762Y411250D02*
X532821D01*
X505762Y410750D02*
X532821D01*
X505762Y410250D02*
X532821D01*
X505762Y409750D02*
X532821D01*
X505762Y409250D02*
X532821D01*
X505762Y408750D02*
X532821D01*
X505762Y408250D02*
X532821D01*
X505762Y407750D02*
X532821D01*
X505762Y407250D02*
X532821D01*
X505762Y406750D02*
X532821D01*
X505762Y406250D02*
X532821D01*
X505762Y405750D02*
X532821D01*
X505762Y405250D02*
X532821D01*
X505762Y404750D02*
X532821D01*
X505762Y404250D02*
X532821D01*
X505762Y403750D02*
X532821D01*
X505762Y403250D02*
X532821D01*
X505762Y402750D02*
X532821D01*
X505762Y402250D02*
X532821D01*
X505762Y401750D02*
X532821D01*
X505762Y401250D02*
X532821D01*
X505762Y400750D02*
X532821D01*
X505762Y400250D02*
X532821D01*
X505762Y399750D02*
X532821D01*
X505762Y399250D02*
X532821D01*
X505762Y398750D02*
X532821D01*
X505762Y398250D02*
X532821D01*
X505762Y397750D02*
X532821D01*
X505762Y397250D02*
X532821D01*
X505762Y396750D02*
X532821D01*
X505762Y396250D02*
X532821D01*
X505762Y395750D02*
X532821D01*
X505762Y395250D02*
X532821D01*
X505762Y394750D02*
X532821D01*
X505762Y394250D02*
X532821D01*
X505762Y393750D02*
X532821D01*
X505762Y393250D02*
X532821D01*
X505762Y392750D02*
X532821D01*
X505762Y392250D02*
X532821D01*
X505762Y391750D02*
X532821D01*
X505762Y391250D02*
X532821D01*
X505762Y390750D02*
X532821D01*
X505762Y390250D02*
X532821D01*
X505762Y389750D02*
X532821D01*
X505762Y389250D02*
X532821D01*
X505762Y388750D02*
X532821D01*
X505762Y388250D02*
X532821D01*
X505762Y387750D02*
X532821D01*
X505762Y387250D02*
X532821D01*
X505762Y386750D02*
X532821D01*
X505762Y386250D02*
X532821D01*
X505762Y385750D02*
X532821D01*
X505762Y385250D02*
X532821D01*
X505762Y384750D02*
X532821D01*
X505762Y384250D02*
X532821D01*
X505762Y383750D02*
X532821D01*
X505762Y383250D02*
X532821D01*
X505762Y382750D02*
X532821D01*
X505762Y382250D02*
X532821D01*
X505762Y381750D02*
X532821D01*
X505762Y381250D02*
X532821D01*
X505762Y380750D02*
X532821D01*
X505762Y380250D02*
X532821D01*
X505762Y379750D02*
X532821D01*
X505762Y379250D02*
X532821D01*
X505762Y378750D02*
X532821D01*
X505762Y378250D02*
X532821D01*
X505762Y377750D02*
X532821D01*
X505762Y377250D02*
X532821D01*
X505762Y376750D02*
X532821D01*
X505762Y376250D02*
X532821D01*
X505762Y375750D02*
X532821D01*
X505762Y375250D02*
X532821D01*
X505762Y374750D02*
X532821D01*
X505762Y374250D02*
X532821D01*
X505762Y373750D02*
X532821D01*
X505762Y373250D02*
X532821D01*
X505762Y372750D02*
X532821D01*
X505762Y372250D02*
X532821D01*
X505762Y371750D02*
X532821D01*
X505762Y371250D02*
X532821D01*
X505762Y370750D02*
X532821D01*
X505762Y370250D02*
X532821D01*
X505762Y369750D02*
X532821D01*
X505762Y369250D02*
X532821D01*
X505762Y368750D02*
X532821D01*
X505762Y368250D02*
X532821D01*
X505762Y367750D02*
X532821D01*
X505762Y367250D02*
X532821D01*
X505762Y366750D02*
X532821D01*
X505762Y366250D02*
X532821D01*
X505762Y365750D02*
X532821D01*
X505762Y365250D02*
X532821D01*
X505762Y364750D02*
X532821D01*
X505762Y364250D02*
X532821D01*
X505762Y363750D02*
X532821D01*
X505762Y363250D02*
X532821D01*
X505762Y362750D02*
X532821D01*
X505762Y362250D02*
X532821D01*
X505762Y361750D02*
X532821D01*
X505762Y361250D02*
X532821D01*
X505762Y360750D02*
X532821D01*
X505762Y360250D02*
X532821D01*
X505762Y359750D02*
X532821D01*
X505762Y359250D02*
X532821D01*
X505762Y358750D02*
X532821D01*
X505762Y358250D02*
X532821D01*
X505762Y357750D02*
X532821D01*
X505762Y357250D02*
X532821D01*
X505762Y356750D02*
X532821D01*
X505762Y356250D02*
X532821D01*
X505762Y355750D02*
X532821D01*
X505762Y355250D02*
X532821D01*
X505762Y354750D02*
X532821D01*
X505762Y354250D02*
X532821D01*
X505762Y353750D02*
X532821D01*
X505762Y353250D02*
X532821D01*
X505762Y352750D02*
X532821D01*
X505762Y352250D02*
X532821D01*
X505762Y351750D02*
X532821D01*
X505762Y351250D02*
X532821D01*
X505762Y350750D02*
X532821D01*
X505762Y350250D02*
X532821D01*
X505762Y349750D02*
X532821D01*
X505762Y349250D02*
X532821D01*
X505762Y348750D02*
X532821D01*
X505762Y348250D02*
X532821D01*
X505762Y347750D02*
X532821D01*
X505762Y347250D02*
X532821D01*
X505762Y346750D02*
X532821D01*
X505762Y346250D02*
X532821D01*
X505762Y345750D02*
X532821D01*
X505762Y345250D02*
X532821D01*
X505762Y344750D02*
X532821D01*
X505762Y344250D02*
X532821D01*
X505762Y343750D02*
X532821D01*
X505762Y343250D02*
X532821D01*
X505762Y342750D02*
X532821D01*
X505762Y342250D02*
X532821D01*
X505762Y341750D02*
X532821D01*
X505762Y341250D02*
X532821D01*
X505762Y340750D02*
X532821D01*
X505762Y340250D02*
X532821D01*
X505762Y339750D02*
X532821D01*
X505762Y339250D02*
X532821D01*
X505762Y338750D02*
X532821D01*
X505762Y338250D02*
X532821D01*
X505762Y337750D02*
X532821D01*
X505762Y337250D02*
X532821D01*
X505762Y336750D02*
X532821D01*
X505762Y336250D02*
X532821D01*
X505762Y335750D02*
X532821D01*
X505762Y335250D02*
X532821D01*
X505762Y334750D02*
X532821D01*
X505762Y334250D02*
X532821D01*
X505762Y333750D02*
X532821D01*
X505762Y333250D02*
X532821D01*
X505762Y332750D02*
X532821D01*
X505762Y332250D02*
X532821D01*
X505762Y331750D02*
X532821D01*
X505762Y331250D02*
X532821D01*
X505762Y330750D02*
X532821D01*
X505762Y330250D02*
X532821D01*
X505762Y329750D02*
X532821D01*
X505762Y329250D02*
X532821D01*
X505762Y328750D02*
X532821D01*
X505762Y328250D02*
X532821D01*
X505762Y327750D02*
X532821D01*
X505762Y327250D02*
X532821D01*
X505762Y326750D02*
X532821D01*
X505762Y326250D02*
X532821D01*
X505762Y325750D02*
X532821D01*
X505762Y325250D02*
X532821D01*
X505762Y324750D02*
X532821D01*
X505762Y324250D02*
X532821D01*
X505762Y323750D02*
X532821D01*
X505762Y323250D02*
X532821D01*
X505762Y322750D02*
X532821D01*
X505762Y322250D02*
X532821D01*
X505762Y321750D02*
X532821D01*
X505762Y321250D02*
X532821D01*
X505762Y320750D02*
X532821D01*
X505762Y320250D02*
X532821D01*
X505762Y319750D02*
X532821D01*
X505762Y319250D02*
X532821D01*
X505762Y318750D02*
X532821D01*
X505762Y318250D02*
X532821D01*
X505762Y317750D02*
X532821D01*
X505762Y317250D02*
X532821D01*
X505762Y316750D02*
X532821D01*
X505762Y316250D02*
X532821D01*
X505762Y315750D02*
X532821D01*
X505762Y315250D02*
X532821D01*
X505762Y314750D02*
X532821D01*
X505762Y314250D02*
X532821D01*
X505762Y313750D02*
X532821D01*
X505762Y313250D02*
X532821D01*
X505762Y312750D02*
X532821D01*
X505762Y312250D02*
X532821D01*
X505762Y311750D02*
X532821D01*
X505762Y311250D02*
X532821D01*
X505762Y310750D02*
X532821D01*
X505762Y310250D02*
X532821D01*
X505762Y309750D02*
X532821D01*
X505762Y309250D02*
X532821D01*
X505762Y308750D02*
X532821D01*
X505762Y308250D02*
X532821D01*
X505762Y307750D02*
X532821D01*
X505762Y307250D02*
X532821D01*
X505762Y306750D02*
X532821D01*
X505762Y306250D02*
X532821D01*
X505762Y305750D02*
X532821D01*
X505762Y305250D02*
X532821D01*
X505762Y304750D02*
X532821D01*
X505762Y304250D02*
X532821D01*
X505762Y303750D02*
X532821D01*
X505762Y303250D02*
X532821D01*
X505762Y302750D02*
X532821D01*
X505762Y302250D02*
X532821D01*
X505762Y301750D02*
X532821D01*
X505762Y301250D02*
X532821D01*
X505762Y300750D02*
X532821D01*
X505762Y300250D02*
X532821D01*
X505762Y299750D02*
X532821D01*
X505762Y299250D02*
X532821D01*
X505762Y298750D02*
X532821D01*
X505762Y298250D02*
X532821D01*
X505762Y297750D02*
X532821D01*
X505762Y297250D02*
X532821D01*
X505762Y296750D02*
X532821D01*
X505762Y296250D02*
X532821D01*
X505762Y295750D02*
X532821D01*
X505762Y295250D02*
X532821D01*
X505762Y294750D02*
X532821D01*
X505762Y294250D02*
X532821D01*
X505762Y293750D02*
X532821D01*
X505762Y293250D02*
X532821D01*
X505762Y292750D02*
X532821D01*
X505762Y292250D02*
X532821D01*
X505762Y291750D02*
X532821D01*
X505762Y291250D02*
X532821D01*
X505762Y290750D02*
X532821D01*
X505762Y290250D02*
X532821D01*
X505762Y289750D02*
X532821D01*
X505762Y289250D02*
X532821D01*
X505762Y288750D02*
X532821D01*
X505762Y288250D02*
X532821D01*
X505762Y287750D02*
X532821D01*
X505762Y287250D02*
X532821D01*
X505762Y286750D02*
X532821D01*
X505762Y286250D02*
X532821D01*
X505762Y285750D02*
X532821D01*
X505762Y285250D02*
X532821D01*
X505762Y284750D02*
X532821D01*
X505762Y284250D02*
X532821D01*
X505762Y283750D02*
X532821D01*
X505762Y283250D02*
X532821D01*
X505762Y282750D02*
X532821D01*
X505762Y282250D02*
X532821D01*
X505762Y281750D02*
X532821D01*
X505762Y281250D02*
X532821D01*
X505762Y280750D02*
X532821D01*
X505762Y280250D02*
X532821D01*
X505762Y279750D02*
X532821D01*
X505762Y279250D02*
X532821D01*
X505762Y278750D02*
X532821D01*
X505762Y278250D02*
X532821D01*
X505762Y277750D02*
X532821D01*
X505762Y277250D02*
X532821D01*
X505762Y276750D02*
X532821D01*
X505762Y276250D02*
X532821D01*
X505762Y275750D02*
X532821D01*
X505762Y275250D02*
X532821D01*
X505762Y274750D02*
X532821D01*
X505762Y274250D02*
X532821D01*
X505762Y273750D02*
X532821D01*
X505762Y273250D02*
X532821D01*
X505762Y272750D02*
X532821D01*
X505762Y272250D02*
X532821D01*
X505762Y271750D02*
X532821D01*
X505762Y271250D02*
X532821D01*
X505762Y270750D02*
X532821D01*
X505762Y270250D02*
X532821D01*
X505762Y269750D02*
X532821D01*
X505762Y269250D02*
X532821D01*
X505762Y268750D02*
X532821D01*
X505762Y268250D02*
X532821D01*
X505762Y267750D02*
X532821D01*
X505762Y267250D02*
X532821D01*
X505762Y266750D02*
X532821D01*
X505762Y266250D02*
X532821D01*
X505762Y265750D02*
X532821D01*
X505762Y265250D02*
X532821D01*
X505762Y264750D02*
X532821D01*
X505762Y264250D02*
X532821D01*
X505762Y263750D02*
X532821D01*
X505762Y263250D02*
X532821D01*
X505762Y262750D02*
X532821D01*
X505762Y262250D02*
X532821D01*
X505762Y261750D02*
X532821D01*
X505762Y261250D02*
X532821D01*
X505762Y260750D02*
X532821D01*
X505762Y260250D02*
X532821D01*
X505762Y259750D02*
X532821D01*
X505762Y259250D02*
X532821D01*
X505762Y258750D02*
X532821D01*
X505762Y258250D02*
X532821D01*
X505762Y257750D02*
X532821D01*
X505762Y257250D02*
X532821D01*
X505762Y256750D02*
X532821D01*
X505762Y256250D02*
X532821D01*
X505762Y255750D02*
X532821D01*
X505762Y255250D02*
X532821D01*
X505762Y254750D02*
X532821D01*
X505762Y254250D02*
X532821D01*
X505762Y253750D02*
X532821D01*
X505762Y253250D02*
X532821D01*
X505762Y252750D02*
X532821D01*
X505762Y252250D02*
X532821D01*
X505762Y251750D02*
X532821D01*
X505762Y251250D02*
X532821D01*
X505762Y250750D02*
X532821D01*
X505762Y250250D02*
X532821D01*
X505762Y249750D02*
X532821D01*
X505762Y249250D02*
X532821D01*
X505762Y248750D02*
X532821D01*
X505762Y248250D02*
X532821D01*
X505762Y247750D02*
X532821D01*
X505762Y247250D02*
X532821D01*
X505762Y246750D02*
X532821D01*
X505762Y246250D02*
X532821D01*
X505762Y245750D02*
X532821D01*
X505762Y245250D02*
X532821D01*
X505762Y244750D02*
X532821D01*
X505762Y244250D02*
X532821D01*
X505762Y243750D02*
X532821D01*
X505762Y243250D02*
X532821D01*
X505762Y242750D02*
X532821D01*
X505762Y242250D02*
X532821D01*
X505762Y241750D02*
X532821D01*
X505762Y241250D02*
X532821D01*
X505762Y240750D02*
X532821D01*
X505762Y240250D02*
X532821D01*
X505762Y239750D02*
X532821D01*
X505762Y239250D02*
X532821D01*
X505762Y238750D02*
X532821D01*
X505762Y238250D02*
X532821D01*
X505762Y237750D02*
X532821D01*
X505762Y237250D02*
X532821D01*
X505762Y236750D02*
X532821D01*
X505762Y236250D02*
X532821D01*
X505762Y235750D02*
X532821D01*
X505762Y235250D02*
X532821D01*
X505762Y234750D02*
X532821D01*
X505762Y234250D02*
X532821D01*
X505762Y233750D02*
X532821D01*
X505762Y233250D02*
X532821D01*
X505762Y232750D02*
X532821D01*
X505762Y232250D02*
X532821D01*
X505762Y231750D02*
X532821D01*
X505762Y231250D02*
X532821D01*
X505762Y230750D02*
X532821D01*
X505762Y230250D02*
X532821D01*
X505762Y229750D02*
X532821D01*
X505762Y229250D02*
X532821D01*
X505762Y228750D02*
X532821D01*
X505762Y228250D02*
X532821D01*
X505762Y227750D02*
X532821D01*
X505762Y227250D02*
X532821D01*
X505762Y226750D02*
X532821D01*
X505762Y226250D02*
X532821D01*
X505762Y225750D02*
X532821D01*
X505762Y225250D02*
X532821D01*
X505762Y224750D02*
X532821D01*
X505762Y224250D02*
X532821D01*
X505762Y223750D02*
X532821D01*
X505762Y223250D02*
X532821D01*
X505762Y222750D02*
X532821D01*
X505762Y222250D02*
X532821D01*
X505762Y221750D02*
X532821D01*
X505762Y221250D02*
X532821D01*
X505762Y220750D02*
X532821D01*
X505762Y220250D02*
X532821D01*
X505762Y219750D02*
X532821D01*
X505762Y219250D02*
X532821D01*
X505762Y218750D02*
X532821D01*
X505762Y218250D02*
X532821D01*
X505762Y217750D02*
X532821D01*
X505762Y217250D02*
X532821D01*
X505762Y216750D02*
X532821D01*
X505762Y216250D02*
X532821D01*
X505762Y215750D02*
X532821D01*
X505762Y215250D02*
X532821D01*
X505762Y214750D02*
X532821D01*
X505762Y214250D02*
X532821D01*
X505762Y213750D02*
X532821D01*
X505762Y213250D02*
X532821D01*
X505762Y212750D02*
X532821D01*
X505762Y212250D02*
X532821D01*
X505762Y211750D02*
X532821D01*
X505762Y211250D02*
X532821D01*
X505762Y210750D02*
X532821D01*
X505762Y210250D02*
X532821D01*
X505762Y209750D02*
X532821D01*
X505762Y209250D02*
X532821D01*
X505762Y208750D02*
X532821D01*
X505762Y208250D02*
X532821D01*
X505762Y207750D02*
X532821D01*
X505762Y207250D02*
X532821D01*
X505762Y206750D02*
X532821D01*
X505762Y206250D02*
X532821D01*
X505762Y205750D02*
X532821D01*
X505762Y205250D02*
X532821D01*
X505762Y204750D02*
X532821D01*
X505762Y204250D02*
X532821D01*
X505762Y203750D02*
X532821D01*
X505762Y203250D02*
X532821D01*
X505762Y202750D02*
X532821D01*
X505762Y202250D02*
X532821D01*
X505762Y201750D02*
X532821D01*
X505762Y201250D02*
X532821D01*
X505762Y200750D02*
X532821D01*
X505762Y200250D02*
X532821D01*
X505762Y199750D02*
X532821D01*
X505762Y199250D02*
X532821D01*
X505762Y198750D02*
X532821D01*
X505762Y198250D02*
X532821D01*
X505762Y197750D02*
X532821D01*
X505762Y197250D02*
X532821D01*
X505762Y196750D02*
X532821D01*
X505762Y196250D02*
X532821D01*
X505762Y195750D02*
X532821D01*
X505762Y195250D02*
X532821D01*
X505762Y194750D02*
X532821D01*
X505762Y194250D02*
X532821D01*
X505762Y193750D02*
X532821D01*
X505762Y193250D02*
X532821D01*
X505762Y192750D02*
X532821D01*
X505762Y192250D02*
X532821D01*
X505762Y191750D02*
X532821D01*
X505762Y191250D02*
X532821D01*
X505762Y190750D02*
X532821D01*
X505762Y190250D02*
X532821D01*
X505762Y189750D02*
X532821D01*
X505762Y189250D02*
X532821D01*
X505762Y188750D02*
X532821D01*
X505762Y188250D02*
X532821D01*
X505762Y187750D02*
X532821D01*
X505762Y187250D02*
X532821D01*
X505762Y186750D02*
X532821D01*
X505762Y186250D02*
X532821D01*
X505762Y185750D02*
X532821D01*
X505762Y185250D02*
X532821D01*
X505762Y184750D02*
X532821D01*
X505762Y184250D02*
X532821D01*
X505762Y183750D02*
X532821D01*
X505762Y183250D02*
X532821D01*
X505762Y182750D02*
X532821D01*
X505762Y182250D02*
X532821D01*
X505762Y181750D02*
X532821D01*
X505762Y181250D02*
X532821D01*
X505762Y180750D02*
X532821D01*
X505762Y180250D02*
X532821D01*
X505762Y179750D02*
X532821D01*
X505762Y179250D02*
X532821D01*
X505762Y178750D02*
X532821D01*
X505762Y178250D02*
X532821D01*
X505762Y177750D02*
X532821D01*
X505762Y177250D02*
X532821D01*
X505762Y176750D02*
X532821D01*
X505762Y176250D02*
X532821D01*
X505762Y175750D02*
X532821D01*
X505762Y175250D02*
X532821D01*
X505762Y174750D02*
X532821D01*
X505762Y174250D02*
X532821D01*
X505762Y173750D02*
X532821D01*
X505762Y173250D02*
X532821D01*
X505762Y172750D02*
X532821D01*
X505762Y172250D02*
X532821D01*
X505762Y171750D02*
X532821D01*
X505762Y171250D02*
X532821D01*
X505762Y170750D02*
X532821D01*
X505762Y170250D02*
X532821D01*
X505762Y169750D02*
X532821D01*
X505762Y169250D02*
X532821D01*
X505762Y168750D02*
X532821D01*
X505762Y168250D02*
X532821D01*
X505762Y167750D02*
X532821D01*
X505762Y167250D02*
X532821D01*
X505762Y166750D02*
X532821D01*
X505762Y166250D02*
X532821D01*
X505762Y165750D02*
X532821D01*
X505762Y165250D02*
X532821D01*
X505762Y164750D02*
X532821D01*
X505762Y164250D02*
X532821D01*
X505762Y163750D02*
X532821D01*
X505762Y163250D02*
X532821D01*
X505762Y162750D02*
X532821D01*
X505762Y162250D02*
X532821D01*
X505762Y161750D02*
X532821D01*
X505762Y161250D02*
X532821D01*
X505762Y160750D02*
X532821D01*
X505762Y160250D02*
X532821D01*
X505762Y159750D02*
X532821D01*
X505762Y159250D02*
X532821D01*
X505762Y158750D02*
X532821D01*
X505762Y158250D02*
X532821D01*
X505762Y157750D02*
X532821D01*
X505762Y157250D02*
X532821D01*
X505762Y156750D02*
X532821D01*
X505762Y156250D02*
X532821D01*
X505762Y155750D02*
X532821D01*
X505762Y155250D02*
X532821D01*
X505762Y154750D02*
X532821D01*
X505762Y154250D02*
X532821D01*
X505762Y153750D02*
X532821D01*
X505762Y153250D02*
X532821D01*
X505762Y152750D02*
X532821D01*
X505762Y152250D02*
X532821D01*
X505762Y151750D02*
X532821D01*
X505762Y151250D02*
X532821D01*
X505762Y150750D02*
X532821D01*
X505762Y150250D02*
X532821D01*
X505762Y149750D02*
X532821D01*
X505762Y149250D02*
X532821D01*
X505762Y148750D02*
X532821D01*
X505762Y148250D02*
X532821D01*
X505762Y147750D02*
X532821D01*
X505762Y147250D02*
X532821D01*
X505762Y146750D02*
X532821D01*
X505762Y146250D02*
X532821D01*
X505762Y145750D02*
X532821D01*
X505762Y145250D02*
X532821D01*
X505762Y144750D02*
X532821D01*
X505762Y144250D02*
X532821D01*
X505762Y143750D02*
X532821D01*
X505762Y143250D02*
X532821D01*
X505762Y142750D02*
X532821D01*
X505762Y142250D02*
X532821D01*
X505762Y141750D02*
X532821D01*
X505762Y141250D02*
X532821D01*
X505762Y140750D02*
X532821D01*
X505762Y140250D02*
X532821D01*
X505762Y139750D02*
X532821D01*
X505762Y139250D02*
X532821D01*
X505762Y138750D02*
X532821D01*
X505762Y138250D02*
X532821D01*
X505762Y137750D02*
X532821D01*
X505762Y137250D02*
X532821D01*
X505762Y136750D02*
X532821D01*
X505762Y136250D02*
X532821D01*
X505762Y135750D02*
X532821D01*
X505762Y135250D02*
X532821D01*
X505762Y134750D02*
X532821D01*
X505762Y134250D02*
X532821D01*
X505762Y133750D02*
X532821D01*
X505762Y133250D02*
X532821D01*
X505762Y132750D02*
X532821D01*
X505762Y132250D02*
X532821D01*
X505762Y131750D02*
X532821D01*
X505762Y131250D02*
X532821D01*
X505762Y130750D02*
X532821D01*
X505762Y130250D02*
X532821D01*
X505762Y129750D02*
X532821D01*
X505762Y129250D02*
X532821D01*
X505762Y128750D02*
X532821D01*
X505762Y128250D02*
X532821D01*
X505762Y127750D02*
X532821D01*
X505762Y127250D02*
X532821D01*
X505762Y126750D02*
X532821D01*
X505762Y126250D02*
X532821D01*
X505762Y125750D02*
X532821D01*
X505762Y125250D02*
X532821D01*
X505762Y124750D02*
X532821D01*
X505762Y124250D02*
X532821D01*
X505762Y123750D02*
X532821D01*
X505762Y123250D02*
X532821D01*
X505762Y122750D02*
X532821D01*
X505762Y122250D02*
X532821D01*
X505762Y121750D02*
X532821D01*
X505762Y121250D02*
X532821D01*
X505762Y120750D02*
X532821D01*
X505762Y120250D02*
X532821D01*
X505762Y119750D02*
X532821D01*
X505762Y119250D02*
X532821D01*
X505762Y118750D02*
X532821D01*
X505762Y118250D02*
X532821D01*
X505762Y117750D02*
X532821D01*
X505762Y117250D02*
X532821D01*
X505762Y116750D02*
X532821D01*
X505762Y116250D02*
X532821D01*
X505762Y115750D02*
X532821D01*
X505762Y115250D02*
X532821D01*
X505762Y114750D02*
X532821D01*
X505762Y114250D02*
X532821D01*
X505762Y113750D02*
X532821D01*
X505762Y113250D02*
X532821D01*
X505762Y112750D02*
X532821D01*
X505762Y112250D02*
X532821D01*
X505762Y111750D02*
X532821D01*
X505762Y111250D02*
X532821D01*
X505762Y110750D02*
X532821D01*
X505762Y110250D02*
X532821D01*
X505762Y109750D02*
X532821D01*
X505762Y109250D02*
X532821D01*
X505762Y108750D02*
X532821D01*
X505762Y108250D02*
X532821D01*
X505762Y107750D02*
X532821D01*
X505762Y107250D02*
X532821D01*
X505762Y106750D02*
X532821D01*
X505762Y106250D02*
X532821D01*
X505762Y105750D02*
X532821D01*
X505762Y105250D02*
X532821D01*
X505762Y104750D02*
X532821D01*
X505762Y104250D02*
X532821D01*
X505762Y103750D02*
X532821D01*
X505762Y103250D02*
X532821D01*
X505762Y102750D02*
X532821D01*
X505762Y102250D02*
X532821D01*
X505762Y101750D02*
X532821D01*
X505762Y101250D02*
X532821D01*
X505762Y100750D02*
X532821D01*
X505762Y100250D02*
Y446207D01*
X506262Y100250D02*
Y446207D01*
X506762Y100250D02*
Y446207D01*
X507262Y100250D02*
Y446207D01*
X507762Y100250D02*
Y446207D01*
X508262Y100250D02*
Y446207D01*
X508762Y100250D02*
Y446207D01*
X509262Y100250D02*
Y446207D01*
X509762Y100250D02*
Y446207D01*
X510262Y100250D02*
Y446207D01*
X510762Y100250D02*
Y446207D01*
X511262Y100250D02*
Y446207D01*
X511762Y100250D02*
Y446207D01*
X512262Y100250D02*
Y446207D01*
X512762Y100250D02*
Y446207D01*
X513262Y100250D02*
Y446207D01*
X513762Y100250D02*
Y446207D01*
X514262Y100250D02*
Y446207D01*
X514762Y100250D02*
Y446207D01*
X515262Y100250D02*
Y446207D01*
X515762Y100250D02*
Y446207D01*
X516262Y100250D02*
Y446207D01*
X516762Y100250D02*
Y446207D01*
X517262Y100250D02*
Y446207D01*
X517762Y100250D02*
Y446207D01*
X518262Y100250D02*
Y446207D01*
X518762Y100250D02*
Y446207D01*
X519262Y100250D02*
Y446207D01*
X519762Y100250D02*
Y446207D01*
X520262Y100250D02*
Y446207D01*
X520762Y100250D02*
Y446207D01*
X521262Y100250D02*
Y446207D01*
X521762Y100250D02*
Y446207D01*
X522262Y100250D02*
Y446207D01*
X522762Y100250D02*
Y446207D01*
X523262Y100250D02*
Y446207D01*
X523762Y100250D02*
Y446207D01*
X524262Y100250D02*
Y446207D01*
X524762Y100250D02*
Y446207D01*
X525262Y100250D02*
Y446207D01*
X525762Y100250D02*
Y446207D01*
X526262Y100250D02*
Y446207D01*
X526762Y100250D02*
Y446207D01*
X527262Y100250D02*
Y446207D01*
X527762Y100250D02*
Y446207D01*
X528262Y100250D02*
Y446207D01*
X528762Y100250D02*
Y446207D01*
X529262Y100250D02*
Y446207D01*
X529762Y100250D02*
Y446207D01*
X530262Y100250D02*
Y446207D01*
X530762Y100250D02*
Y446207D01*
X531262Y100250D02*
Y446207D01*
X531762Y100250D02*
Y446207D01*
X532262Y100250D02*
Y446207D01*
X532762Y100250D02*
Y446207D01*
G54D13*
X446736Y379345D02*
Y380931D01*
X446943Y381138*
X451529*
X451736Y380931*
Y379345*
X451529Y379138*
X446943*
X446736Y379345*
Y380000D02*
X451736D01*
X446806Y381000D02*
X451667D01*
X447000Y379138D02*
Y381138D01*
X448000Y379138D02*
Y381138D01*
X449000Y379138D02*
Y381138D01*
X450000Y379138D02*
Y381138D01*
X451000Y379138D02*
Y381138D01*
X446736Y374345D02*
Y375931D01*
X446943Y376138*
X451529*
X451736Y375931*
Y374345*
X451529Y374138*
X446943*
X446736Y374345*
Y375000D02*
X451736D01*
X446806Y376000D02*
X451667D01*
X447000Y374138D02*
Y376138D01*
X448000Y374138D02*
Y376138D01*
X449000Y374138D02*
Y376138D01*
X450000Y374138D02*
Y376138D01*
X451000Y374138D02*
Y376138D01*
X446736Y369345D02*
Y370931D01*
X446943Y371138*
X451529*
X451736Y370931*
Y369345*
X451529Y369138*
X446943*
X446736Y369345*
Y370000D02*
X451736D01*
X446806Y371000D02*
X451667D01*
X447000Y369138D02*
Y371138D01*
X448000Y369138D02*
Y371138D01*
X449000Y369138D02*
Y371138D01*
X450000Y369138D02*
Y371138D01*
X451000Y369138D02*
Y371138D01*
X446736Y364345D02*
Y365931D01*
X446943Y366138*
X451529*
X451736Y365931*
Y364345*
X451529Y364138*
X446943*
X446736Y364345*
Y365000D02*
X451736D01*
X446806Y366000D02*
X451667D01*
X447000Y364138D02*
Y366138D01*
X448000Y364138D02*
Y366138D01*
X449000Y364138D02*
Y366138D01*
X450000Y364138D02*
Y366138D01*
X451000Y364138D02*
Y366138D01*
X468736Y364345D02*
Y365931D01*
X468943Y366138*
X473529*
X473736Y365931*
Y364345*
X473529Y364138*
X468943*
X468736Y364345*
Y365000D02*
X473736D01*
X468806Y366000D02*
X473667D01*
X469000Y364138D02*
Y366138D01*
X470000Y364138D02*
Y366138D01*
X471000Y364138D02*
Y366138D01*
X472000Y364138D02*
Y366138D01*
X473000Y364138D02*
Y366138D01*
X468736Y369345D02*
Y370931D01*
X468943Y371138*
X473529*
X473736Y370931*
Y369345*
X473529Y369138*
X468943*
X468736Y369345*
Y370000D02*
X473736D01*
X468806Y371000D02*
X473667D01*
X469000Y369138D02*
Y371138D01*
X470000Y369138D02*
Y371138D01*
X471000Y369138D02*
Y371138D01*
X472000Y369138D02*
Y371138D01*
X473000Y369138D02*
Y371138D01*
X468736Y374345D02*
Y375931D01*
X468943Y376138*
X473529*
X473736Y375931*
Y374345*
X473529Y374138*
X468943*
X468736Y374345*
Y375000D02*
X473736D01*
X468806Y376000D02*
X473667D01*
X469000Y374138D02*
Y376138D01*
X470000Y374138D02*
Y376138D01*
X471000Y374138D02*
Y376138D01*
X472000Y374138D02*
Y376138D01*
X473000Y374138D02*
Y376138D01*
X468736Y379345D02*
Y380931D01*
X468943Y381138*
X473529*
X473736Y380931*
Y379345*
X473529Y379138*
X468943*
X468736Y379345*
Y380000D02*
X473736D01*
X468806Y381000D02*
X473667D01*
X469000Y379138D02*
Y381138D01*
X470000Y379138D02*
Y381138D01*
X471000Y379138D02*
Y381138D01*
X472000Y379138D02*
Y381138D01*
X473000Y379138D02*
Y381138D01*
X335516Y378361D02*
Y379946D01*
X335723Y380154*
X340309*
X340516Y379946*
Y378361*
X340309Y378154*
X335723*
X335516Y378361*
Y379000D02*
X340516D01*
X335569Y380000D02*
X340462D01*
X336000Y378154D02*
Y380154D01*
X337000Y378154D02*
Y380154D01*
X338000Y378154D02*
Y380154D01*
X339000Y378154D02*
Y380154D01*
X340000Y378154D02*
Y380154D01*
X335516Y373361D02*
Y374946D01*
X335723Y375154*
X340309*
X340516Y374946*
Y373361*
X340309Y373154*
X335723*
X335516Y373361*
Y374000D02*
X340516D01*
X335569Y375000D02*
X340462D01*
X336000Y373154D02*
Y375154D01*
X337000Y373154D02*
Y375154D01*
X338000Y373154D02*
Y375154D01*
X339000Y373154D02*
Y375154D01*
X340000Y373154D02*
Y375154D01*
X335516Y368361D02*
Y369946D01*
X335723Y370154*
X340309*
X340516Y369946*
Y368361*
X340309Y368154*
X335723*
X335516Y368361*
Y369000D02*
X340516D01*
X335569Y370000D02*
X340462D01*
X336000Y368154D02*
Y370154D01*
X337000Y368154D02*
Y370154D01*
X338000Y368154D02*
Y370154D01*
X339000Y368154D02*
Y370154D01*
X340000Y368154D02*
Y370154D01*
X335516Y363361D02*
Y364946D01*
X335723Y365154*
X340309*
X340516Y364946*
Y363361*
X340309Y363154*
X335723*
X335516Y363361*
Y364000D02*
X340516D01*
X335569Y365000D02*
X340462D01*
X336000Y363154D02*
Y365154D01*
X337000Y363154D02*
Y365154D01*
X338000Y363154D02*
Y365154D01*
X339000Y363154D02*
Y365154D01*
X340000Y363154D02*
Y365154D01*
X357516Y363361D02*
Y364946D01*
X357723Y365154*
X362309*
X362516Y364946*
Y363361*
X362309Y363154*
X357723*
X357516Y363361*
Y364000D02*
X362516D01*
X357569Y365000D02*
X362462D01*
X358000Y363154D02*
Y365154D01*
X359000Y363154D02*
Y365154D01*
X360000Y363154D02*
Y365154D01*
X361000Y363154D02*
Y365154D01*
X362000Y363154D02*
Y365154D01*
X357516Y368361D02*
Y369946D01*
X357723Y370154*
X362309*
X362516Y369946*
Y368361*
X362309Y368154*
X357723*
X357516Y368361*
Y369000D02*
X362516D01*
X357569Y370000D02*
X362462D01*
X358000Y368154D02*
Y370154D01*
X359000Y368154D02*
Y370154D01*
X360000Y368154D02*
Y370154D01*
X361000Y368154D02*
Y370154D01*
X362000Y368154D02*
Y370154D01*
X357516Y373361D02*
Y374946D01*
X357723Y375154*
X362309*
X362516Y374946*
Y373361*
X362309Y373154*
X357723*
X357516Y373361*
Y374000D02*
X362516D01*
X357569Y375000D02*
X362462D01*
X358000Y373154D02*
Y375154D01*
X359000Y373154D02*
Y375154D01*
X360000Y373154D02*
Y375154D01*
X361000Y373154D02*
Y375154D01*
X362000Y373154D02*
Y375154D01*
X357516Y378361D02*
Y379946D01*
X357723Y380154*
X362309*
X362516Y379946*
Y378361*
X362309Y378154*
X357723*
X357516Y378361*
Y379000D02*
X362516D01*
X357569Y380000D02*
X362462D01*
X358000Y378154D02*
Y380154D01*
X359000Y378154D02*
Y380154D01*
X360000Y378154D02*
Y380154D01*
X361000Y378154D02*
Y380154D01*
X362000Y378154D02*
Y380154D01*
X370949Y378361D02*
Y379946D01*
X371156Y380154*
X375742*
X375949Y379946*
Y378361*
X375742Y378154*
X371156*
X370949Y378361*
Y379000D02*
X375949D01*
X371002Y380000D02*
X375895D01*
X371000Y378309D02*
Y379998D01*
X372000Y378154D02*
Y380154D01*
X373000Y378154D02*
Y380154D01*
X374000Y378154D02*
Y380154D01*
X375000Y378154D02*
Y380154D01*
X370949Y373361D02*
Y374946D01*
X371156Y375154*
X375742*
X375949Y374946*
Y373361*
X375742Y373154*
X371156*
X370949Y373361*
Y374000D02*
X375949D01*
X371002Y375000D02*
X375895D01*
X371000Y373309D02*
Y374998D01*
X372000Y373154D02*
Y375154D01*
X373000Y373154D02*
Y375154D01*
X374000Y373154D02*
Y375154D01*
X375000Y373154D02*
Y375154D01*
X370949Y368361D02*
Y369946D01*
X371156Y370154*
X375742*
X375949Y369946*
Y368361*
X375742Y368154*
X371156*
X370949Y368361*
Y369000D02*
X375949D01*
X371002Y370000D02*
X375895D01*
X371000Y368309D02*
Y369998D01*
X372000Y368154D02*
Y370154D01*
X373000Y368154D02*
Y370154D01*
X374000Y368154D02*
Y370154D01*
X375000Y368154D02*
Y370154D01*
X370949Y363361D02*
Y364946D01*
X371156Y365154*
X375742*
X375949Y364946*
Y363361*
X375742Y363154*
X371156*
X370949Y363361*
Y364000D02*
X375949D01*
X371002Y365000D02*
X375895D01*
X371000Y363309D02*
Y364998D01*
X372000Y363154D02*
Y365154D01*
X373000Y363154D02*
Y365154D01*
X374000Y363154D02*
Y365154D01*
X375000Y363154D02*
Y365154D01*
X392949Y363361D02*
Y364946D01*
X393156Y365154*
X397742*
X397949Y364946*
Y363361*
X397742Y363154*
X393156*
X392949Y363361*
Y364000D02*
X397949D01*
X393002Y365000D02*
X397895D01*
X393000Y363309D02*
Y364998D01*
X394000Y363154D02*
Y365154D01*
X395000Y363154D02*
Y365154D01*
X396000Y363154D02*
Y365154D01*
X397000Y363154D02*
Y365154D01*
X392949Y368361D02*
Y369946D01*
X393156Y370154*
X397742*
X397949Y369946*
Y368361*
X397742Y368154*
X393156*
X392949Y368361*
Y369000D02*
X397949D01*
X393002Y370000D02*
X397895D01*
X393000Y368309D02*
Y369998D01*
X394000Y368154D02*
Y370154D01*
X395000Y368154D02*
Y370154D01*
X396000Y368154D02*
Y370154D01*
X397000Y368154D02*
Y370154D01*
X392949Y373361D02*
Y374946D01*
X393156Y375154*
X397742*
X397949Y374946*
Y373361*
X397742Y373154*
X393156*
X392949Y373361*
Y374000D02*
X397949D01*
X393002Y375000D02*
X397895D01*
X393000Y373309D02*
Y374998D01*
X394000Y373154D02*
Y375154D01*
X395000Y373154D02*
Y375154D01*
X396000Y373154D02*
Y375154D01*
X397000Y373154D02*
Y375154D01*
X392949Y378361D02*
Y379946D01*
X393156Y380154*
X397742*
X397949Y379946*
Y378361*
X397742Y378154*
X393156*
X392949Y378361*
Y379000D02*
X397949D01*
X393002Y380000D02*
X397895D01*
X393000Y378309D02*
Y379998D01*
X394000Y378154D02*
Y380154D01*
X395000Y378154D02*
Y380154D01*
X396000Y378154D02*
Y380154D01*
X397000Y378154D02*
Y380154D01*
X340437Y335054D02*
Y336639D01*
X340644Y336846*
X345230*
X345437Y336639*
Y335054*
X345230Y334846*
X340644*
X340437Y335054*
X340491Y335000D02*
X345383D01*
X340437Y336000D02*
X345437D01*
X341000Y334846D02*
Y336846D01*
X342000Y334846D02*
Y336846D01*
X343000Y334846D02*
Y336846D01*
X344000Y334846D02*
Y336846D01*
X345000Y334846D02*
Y336846D01*
X340437Y330054D02*
Y331639D01*
X340644Y331846*
X345230*
X345437Y331639*
Y330054*
X345230Y329846*
X340644*
X340437Y330054*
X340491Y330000D02*
X345383D01*
X340437Y331000D02*
X345437D01*
X341000Y329846D02*
Y331846D01*
X342000Y329846D02*
Y331846D01*
X343000Y329846D02*
Y331846D01*
X344000Y329846D02*
Y331846D01*
X345000Y329846D02*
Y331846D01*
X340437Y325054D02*
Y326639D01*
X340644Y326846*
X345230*
X345437Y326639*
Y325054*
X345230Y324846*
X340644*
X340437Y325054*
X340491Y325000D02*
X345383D01*
X340437Y326000D02*
X345437D01*
X341000Y324846D02*
Y326846D01*
X342000Y324846D02*
Y326846D01*
X343000Y324846D02*
Y326846D01*
X344000Y324846D02*
Y326846D01*
X345000Y324846D02*
Y326846D01*
X340437Y320054D02*
Y321639D01*
X340644Y321846*
X345230*
X345437Y321639*
Y320054*
X345230Y319846*
X340644*
X340437Y320054*
X340491Y320000D02*
X345383D01*
X340437Y321000D02*
X345437D01*
X341000Y319846D02*
Y321846D01*
X342000Y319846D02*
Y321846D01*
X343000Y319846D02*
Y321846D01*
X344000Y319846D02*
Y321846D01*
X345000Y319846D02*
Y321846D01*
X362437Y320054D02*
Y321639D01*
X362644Y321846*
X367230*
X367437Y321639*
Y320054*
X367230Y319846*
X362644*
X362437Y320054*
X362491Y320000D02*
X367383D01*
X362437Y321000D02*
X367437D01*
X363000Y319846D02*
Y321846D01*
X364000Y319846D02*
Y321846D01*
X365000Y319846D02*
Y321846D01*
X366000Y319846D02*
Y321846D01*
X367000Y319846D02*
Y321846D01*
X362437Y325054D02*
Y326639D01*
X362644Y326846*
X367230*
X367437Y326639*
Y325054*
X367230Y324846*
X362644*
X362437Y325054*
X362491Y325000D02*
X367383D01*
X362437Y326000D02*
X367437D01*
X363000Y324846D02*
Y326846D01*
X364000Y324846D02*
Y326846D01*
X365000Y324846D02*
Y326846D01*
X366000Y324846D02*
Y326846D01*
X367000Y324846D02*
Y326846D01*
X362437Y330054D02*
Y331639D01*
X362644Y331846*
X367230*
X367437Y331639*
Y330054*
X367230Y329846*
X362644*
X362437Y330054*
X362491Y330000D02*
X367383D01*
X362437Y331000D02*
X367437D01*
X363000Y329846D02*
Y331846D01*
X364000Y329846D02*
Y331846D01*
X365000Y329846D02*
Y331846D01*
X366000Y329846D02*
Y331846D01*
X367000Y329846D02*
Y331846D01*
X362437Y335054D02*
Y336639D01*
X362644Y336846*
X367230*
X367437Y336639*
Y335054*
X367230Y334846*
X362644*
X362437Y335054*
X362491Y335000D02*
X367383D01*
X362437Y336000D02*
X367437D01*
X363000Y334846D02*
Y336846D01*
X364000Y334846D02*
Y336846D01*
X365000Y334846D02*
Y336846D01*
X366000Y334846D02*
Y336846D01*
X367000Y334846D02*
Y336846D01*
X100000Y100000D02*
X117717D01*
X125591Y92126D02*
G75*
G03X117717Y100000I-7874J-0D01*
G01X125591Y92126D02*
Y48819D01*
G03X133465Y40945I7874J-0*
G01X186614*
G03X194488Y48819I0J7874*
G01Y92126*
X202362Y100000D02*
G03X194488Y92126I0J-7874D01*
G01X202362Y100000D02*
X430709D01*
X438583Y92126D02*
G03X430709Y100000I-7874J-0D01*
G01X438583Y92126D02*
Y48819D01*
G03X446457Y40945I7874J-0*
G01X499606*
G03X507480Y48819I0J7874*
G01Y92126*
X515354Y100000D02*
G03X507480Y92126I0J-7874D01*
G01X515354Y100000D02*
X533071D01*
Y205315*
X519291*
Y232874D02*
G03Y205315I0J-13780D01*
G01Y232874D02*
X533071D01*
Y323425*
X519291*
Y350984D02*
G03Y323425I0J-13779D01*
G01Y350984D02*
X533071D01*
Y446457*
G03X525197Y454331I-7874J-0*
G01X107874*
G03X100000Y446457I0J-7874*
G01Y350000*
X113780*
Y322441D02*
G03Y350000I-0J13779D01*
G01Y322441D02*
X100000D01*
Y231890*
X113780*
Y204331D02*
G03Y231890I-0J13779D01*
G01Y204331D02*
X100000D01*
Y100000*
X149213Y235827D02*
X170866D01*
Y201181*
X149213*
Y235827*
X461220D02*
X484843D01*
Y201181*
X461220*
Y235827*
X132480Y291929D02*
X187598D01*
Y266339*
X132480*
Y291929*
X445472Y266929D02*
X500591D01*
Y291929*
X445472*
Y266929*
G54D15*
X113780Y159055D03*
X519291Y277165D03*
Y159055D03*
Y395276D03*
X113780D03*
Y277165D03*
G54D28*
X462205Y102953D03*
X452205Y112953D03*
Y92953D03*
X472205D03*
Y112953D03*
X178465Y68504D03*
X140669D03*
X491457D03*
X453661D03*
X409055Y326378D03*
X416929Y318504D03*
X409055D03*
X416929Y310630D03*
X409055D03*
X416929Y302756D03*
X409055D03*
X416929Y294882D03*
X409055D03*
X416929Y287008D03*
X409055D03*
X416929Y279134D03*
X409055D03*
X155118Y102953D03*
X145118Y112953D03*
Y92953D03*
X165118D03*
Y112953D03*
G54D30*
X159567Y45472D03*
X178465D03*
X140669D03*
X131496Y62205D03*
Y81890D03*
Y100394D03*
X188583Y62205D03*
Y81890D03*
Y100394D03*
X472559Y45472D03*
X491457D03*
X453661D03*
X444488Y62205D03*
Y81890D03*
Y100394D03*
X501575Y62205D03*
Y81890D03*
Y100394D03*
G54D31*
X131496Y72047D03*
Y111417D03*
X153858D03*
X175118Y111418D03*
X188583Y52362D03*
Y91732D03*
X131496Y150787D03*
Y190157D03*
X188583Y131102D03*
Y170472D03*
X165276Y190157D03*
X444488Y72047D03*
Y111417D03*
X466850D03*
X488110Y111418D03*
X501575Y52362D03*
Y91732D03*
X444488Y150787D03*
Y190157D03*
X501575Y131102D03*
Y170472D03*
X478268Y190157D03*
G54D41*
X316535Y121630D03*
X313752Y124413D03*
X310968Y127197D03*
X308184Y129981D03*
X305400Y132765D03*
X302616Y135549D03*
X299832Y138333D03*
X297048Y141117D03*
X294264Y143901D03*
X291480Y146685D03*
X288697Y149468D03*
X285913Y152252D03*
X283129Y155036D03*
X280345Y157820D03*
X277561Y160604D03*
X274777Y163388D03*
X271993Y166172D03*
X269209Y168956D03*
X266426Y171739D03*
X263642Y174523D03*
X260858Y177307D03*
X258074Y180091D03*
X255290Y182875D03*
X252506Y185659D03*
X249722Y188443D03*
X246938Y191227D03*
X244154Y194011D03*
X241371Y196794D03*
X238587Y199578D03*
X235803Y202362D03*
X319319Y124413D03*
X316535Y127197D03*
X313752Y129981D03*
X310968Y132765D03*
X308184Y135549D03*
X305400Y138333D03*
X302616Y141117D03*
X299832Y143901D03*
X297048Y146685D03*
X294264Y149468D03*
X291480Y152252D03*
X288697Y155036D03*
X285913Y157820D03*
X283129Y160604D03*
X280345Y163388D03*
X277561Y166172D03*
X274777Y168956D03*
X271993Y171739D03*
X269209Y174523D03*
X266426Y177307D03*
X263642Y180091D03*
X260858Y182875D03*
X258074Y185659D03*
X255290Y188443D03*
X252506Y191227D03*
X249722Y194011D03*
X246938Y196794D03*
X244154Y199578D03*
X241371Y202362D03*
X238587Y205146D03*
X322103Y127197D03*
X319319Y129981D03*
X316535Y132765D03*
X313752Y135549D03*
X310968Y138333D03*
X308184Y141117D03*
X305400Y143901D03*
X302616Y146685D03*
X299832Y149468D03*
X297048Y152252D03*
X294264Y155036D03*
X291480Y157820D03*
X288697Y160604D03*
X285913Y163388D03*
X283129Y166172D03*
X280345Y168956D03*
X277561Y171739D03*
X274777Y174523D03*
X271993Y177307D03*
X269209Y180091D03*
X266426Y182875D03*
X263642Y185659D03*
X260858Y188443D03*
X258074Y191227D03*
X255290Y194011D03*
X252506Y196794D03*
X249722Y199578D03*
X246938Y202362D03*
X244154Y205146D03*
X241371Y207930D03*
X324887Y129981D03*
X322103Y132765D03*
X319319Y135549D03*
X316535Y138333D03*
X313752Y141117D03*
X310968Y143901D03*
X308184Y146685D03*
X305400Y149468D03*
X302616Y152252D03*
X299832Y155036D03*
X297048Y157820D03*
X294264Y160604D03*
X291480Y163388D03*
X288697Y166172D03*
X285913Y168956D03*
X283129Y171739D03*
X280345Y174523D03*
X277561Y177307D03*
X274777Y180091D03*
X271993Y182875D03*
X269209Y185659D03*
X266426Y188443D03*
X263642Y191227D03*
X260858Y194011D03*
X258074Y196794D03*
X255290Y199578D03*
X252506Y202362D03*
X249722Y205146D03*
X246938Y207930D03*
X244154Y210714D03*
X327671Y132765D03*
X324887Y135549D03*
X322103Y138333D03*
X319319Y141117D03*
X316535Y143901D03*
X313752Y146685D03*
X310968Y149468D03*
X308184Y152252D03*
X305400Y155036D03*
X302616Y157820D03*
X299832Y160604D03*
X297048Y163388D03*
X294264Y166172D03*
X291480Y168956D03*
X288697Y171739D03*
X285913Y174523D03*
X283129Y177307D03*
X280345Y180091D03*
X277561Y182875D03*
X274777Y185659D03*
X271993Y188443D03*
X269209Y191227D03*
X266426Y194011D03*
X263642Y196794D03*
X260858Y199578D03*
X258074Y202362D03*
X255290Y205146D03*
X252506Y207930D03*
X249722Y210714D03*
X246938Y213498D03*
X330455Y135549D03*
X327671Y138333D03*
X324887Y141117D03*
X322103Y143901D03*
X319319Y146685D03*
X316535Y149468D03*
X313752Y152252D03*
X310968Y155036D03*
X308184Y157820D03*
X305400Y160604D03*
X302616Y163388D03*
X299832Y166172D03*
X297048Y168956D03*
X294264Y171739D03*
X291480Y174523D03*
X288697Y177307D03*
X285913Y180091D03*
X283129Y182875D03*
X280345Y185659D03*
X277561Y188443D03*
X274777Y191227D03*
X271993Y194011D03*
X269209Y196794D03*
X266426Y199578D03*
X263642Y202362D03*
X260858Y205146D03*
X258074Y207930D03*
X255290Y210714D03*
X252506Y213498D03*
X249722Y216282D03*
X333239Y138333D03*
X330455Y141117D03*
X327671Y143901D03*
X324887Y146685D03*
X322103Y149468D03*
X319319Y152252D03*
X316535Y155036D03*
X313752Y157820D03*
X310968Y160604D03*
X308184Y163388D03*
X305400Y166172D03*
X302616Y168956D03*
X299832Y171739D03*
X297048Y174523D03*
X294264Y177307D03*
X291480Y180091D03*
X288697Y182875D03*
X285913Y185659D03*
X283129Y188443D03*
X280345Y191227D03*
X277561Y194011D03*
X274777Y196794D03*
X271993Y199578D03*
X269209Y202362D03*
X266426Y205146D03*
X263642Y207930D03*
X260858Y210714D03*
X258074Y213498D03*
X255290Y216282D03*
X252506Y219066D03*
X336023Y141117D03*
X333239Y143901D03*
X330455Y146685D03*
X327671Y149468D03*
X324887Y152252D03*
X322103Y155036D03*
X319319Y157820D03*
X316535Y160604D03*
X313752Y163388D03*
X310968Y166172D03*
X308184Y168956D03*
X305400Y171739D03*
X302616Y174523D03*
X299832Y177307D03*
X297048Y180091D03*
X294264Y182875D03*
X291480Y185659D03*
X288697Y188443D03*
X285913Y191227D03*
X283129Y194011D03*
X280345Y196794D03*
X277561Y199578D03*
X274777Y202362D03*
X271993Y205146D03*
X269209Y207930D03*
X266426Y210714D03*
X263642Y213498D03*
X260858Y216282D03*
X258074Y219066D03*
X255290Y221849D03*
X338807Y143901D03*
X336023Y146685D03*
X333239Y149468D03*
X330455Y152252D03*
X327671Y155036D03*
X324887Y157820D03*
X322103Y160604D03*
X319319Y163388D03*
X316535Y166172D03*
X313752Y168956D03*
X310968Y171739D03*
X308184Y174523D03*
X305400Y177307D03*
X302616Y180091D03*
X299832Y182875D03*
X297048Y185659D03*
X294264Y188443D03*
X291480Y191227D03*
X288697Y194011D03*
X285913Y196794D03*
X283129Y199578D03*
X280345Y202362D03*
X277561Y205146D03*
X274777Y207930D03*
X271993Y210714D03*
X269209Y213498D03*
X266426Y216282D03*
X263642Y219066D03*
X260858Y221849D03*
X258074Y224633D03*
X341590Y146685D03*
X338807Y149468D03*
X336023Y152252D03*
X333239Y155036D03*
X330455Y157820D03*
X327671Y160604D03*
X324887Y163388D03*
X322103Y166172D03*
X319319Y168956D03*
X316535Y171739D03*
X313752Y174523D03*
X310968Y177307D03*
X308184Y180091D03*
X305400Y182875D03*
X302616Y185659D03*
X299832Y188443D03*
X297048Y191227D03*
X294264Y194011D03*
X291480Y196794D03*
X288697Y199578D03*
X285913Y202362D03*
X283129Y205146D03*
X280345Y207930D03*
X277561Y210714D03*
X274777Y213498D03*
X271993Y216282D03*
X269209Y219066D03*
X266426Y221849D03*
X263642Y224633D03*
X260858Y227417D03*
X344374Y149468D03*
X341590Y152252D03*
X338807Y155036D03*
X336023Y157820D03*
X333239Y160604D03*
X330455Y163388D03*
X327671Y166172D03*
X324887Y168956D03*
X322103Y171739D03*
X319319Y174523D03*
X316535Y177307D03*
X313752Y180091D03*
X310968Y182875D03*
X308184Y185659D03*
X305400Y188443D03*
X302616Y191227D03*
X299832Y194011D03*
X297048Y196794D03*
X294264Y199578D03*
X291480Y202362D03*
X288697Y205146D03*
X285913Y207930D03*
X283129Y210714D03*
X280345Y213498D03*
X277561Y216282D03*
X274777Y219066D03*
X271993Y221849D03*
X269209Y224633D03*
X266426Y227417D03*
X263642Y230201D03*
X347158Y152252D03*
X344374Y155036D03*
X341590Y157820D03*
X338807Y160604D03*
X336023Y163388D03*
X333239Y166172D03*
X330455Y168956D03*
X327671Y171739D03*
X324887Y174523D03*
X322103Y177307D03*
X319319Y180091D03*
X316535Y182875D03*
X313752Y185659D03*
X310968Y188443D03*
X308184Y191227D03*
X305400Y194011D03*
X302616Y196794D03*
X299832Y199578D03*
X297048Y202362D03*
X294264Y205146D03*
X291480Y207930D03*
X288697Y210714D03*
X285913Y213498D03*
X283129Y216282D03*
X280345Y219066D03*
X277561Y221849D03*
X274777Y224633D03*
X271993Y227417D03*
X269209Y230201D03*
X266426Y232985D03*
X349942Y155036D03*
X347158Y157820D03*
X344374Y160604D03*
X341590Y163388D03*
X338807Y166172D03*
X336023Y168956D03*
X333239Y171739D03*
X330455Y174523D03*
X327671Y177307D03*
X324887Y180091D03*
X322103Y182875D03*
X319319Y185659D03*
X316535Y188443D03*
X313752Y191227D03*
X310968Y194011D03*
X308184Y196794D03*
X305400Y199578D03*
X302616Y202362D03*
X299832Y205146D03*
X297048Y207930D03*
X294264Y210714D03*
X291480Y213498D03*
X288697Y216282D03*
X285913Y219066D03*
X283129Y221849D03*
X280345Y224633D03*
X277561Y227417D03*
X274777Y230201D03*
X271993Y232985D03*
X269209Y235769D03*
X352726Y157820D03*
X349942Y160604D03*
X347158Y163388D03*
X344374Y166172D03*
X341590Y168956D03*
X338807Y171739D03*
X336023Y174523D03*
X333239Y177307D03*
X330455Y180091D03*
X327671Y182875D03*
X324887Y185659D03*
X322103Y188443D03*
X319319Y191227D03*
X316535Y194011D03*
X313752Y196794D03*
X310968Y199578D03*
X308184Y202362D03*
X305400Y205146D03*
X302616Y207930D03*
X299832Y210714D03*
X297048Y213498D03*
X294264Y216282D03*
X291480Y219066D03*
X288697Y221849D03*
X285913Y224633D03*
X283129Y227417D03*
X280345Y230201D03*
X277561Y232985D03*
X274777Y235769D03*
X271993Y238553D03*
X355510Y160604D03*
X352726Y163388D03*
X349942Y166172D03*
X347158Y168956D03*
X344374Y171739D03*
X341590Y174523D03*
X338807Y177307D03*
X336023Y180091D03*
X333239Y182875D03*
X330455Y185659D03*
X327671Y188443D03*
X324887Y191227D03*
X322103Y194011D03*
X319319Y196794D03*
X316535Y199578D03*
X313752Y202362D03*
X310968Y205146D03*
X308184Y207930D03*
X305400Y210714D03*
X302616Y213498D03*
X299832Y216282D03*
X297048Y219066D03*
X294264Y221849D03*
X291480Y224633D03*
X288697Y227417D03*
X285913Y230201D03*
X283129Y232985D03*
X280345Y235769D03*
X277561Y238553D03*
X274777Y241337D03*
X358294Y163388D03*
X355510Y166172D03*
X352726Y168956D03*
X349942Y171739D03*
X347158Y174523D03*
X344374Y177307D03*
X341590Y180091D03*
X338807Y182875D03*
X336023Y185659D03*
X333239Y188443D03*
X330455Y191227D03*
X327671Y194011D03*
X324887Y196794D03*
X322103Y199578D03*
X319319Y202362D03*
X316535Y205146D03*
X313752Y207930D03*
X310968Y210714D03*
X308184Y213498D03*
X305400Y216282D03*
X302616Y219066D03*
X299832Y221849D03*
X297048Y224633D03*
X294264Y227417D03*
X291480Y230201D03*
X288697Y232985D03*
X285913Y235769D03*
X283129Y238553D03*
X280345Y241337D03*
X277561Y244120D03*
X361078Y166172D03*
X358294Y168956D03*
X355510Y171739D03*
X352726Y174523D03*
X349942Y177307D03*
X347158Y180091D03*
X344374Y182875D03*
X341590Y185659D03*
X338807Y188443D03*
X336023Y191227D03*
X333239Y194011D03*
X330455Y196794D03*
X327671Y199578D03*
X324887Y202362D03*
X322103Y205146D03*
X319319Y207930D03*
X316535Y210714D03*
X313752Y213498D03*
X310968Y216282D03*
X308184Y219066D03*
X305400Y221849D03*
X302616Y224633D03*
X299832Y227417D03*
X297048Y230201D03*
X294264Y232985D03*
X291480Y235769D03*
X288697Y238553D03*
X285913Y241337D03*
X283129Y244120D03*
X280345Y246904D03*
X363861Y168956D03*
X361078Y171739D03*
X358294Y174523D03*
X355510Y177307D03*
X352726Y180091D03*
X349942Y182875D03*
X347158Y185659D03*
X344374Y188443D03*
X341590Y191227D03*
X338807Y194011D03*
X336023Y196794D03*
X333239Y199578D03*
X330455Y202362D03*
X327671Y205146D03*
X324887Y207930D03*
X322103Y210714D03*
X319319Y213498D03*
X316535Y216282D03*
X313752Y219066D03*
X310968Y221849D03*
X308184Y224633D03*
X305400Y227417D03*
X302616Y230201D03*
X299832Y232985D03*
X297048Y235769D03*
X294264Y238553D03*
X291480Y241337D03*
X288697Y244120D03*
X285913Y246904D03*
X283129Y249688D03*
X366645Y171739D03*
X363861Y174523D03*
X361078Y177307D03*
X358294Y180091D03*
X355510Y182875D03*
X352726Y185659D03*
X349942Y188443D03*
X347158Y191227D03*
X344374Y194011D03*
X341590Y196794D03*
X338807Y199578D03*
X336023Y202362D03*
X333239Y205146D03*
X330455Y207930D03*
X327671Y210714D03*
X324887Y213498D03*
X322103Y216282D03*
X319319Y219066D03*
X316535Y221849D03*
X313752Y224633D03*
X310968Y227417D03*
X308184Y230201D03*
X305400Y232985D03*
X302616Y235769D03*
X299832Y238553D03*
X297048Y241337D03*
X294264Y244120D03*
X291480Y246904D03*
X288697Y249688D03*
X285913Y252472D03*
X369429Y174523D03*
X366645Y177307D03*
X363861Y180091D03*
X361078Y182875D03*
X358294Y185659D03*
X355510Y188443D03*
X352726Y191227D03*
X349942Y194011D03*
X347158Y196794D03*
X344374Y199578D03*
X341590Y202362D03*
X338807Y205146D03*
X336023Y207930D03*
X333239Y210714D03*
X330455Y213498D03*
X327671Y216282D03*
X324887Y219066D03*
X322103Y221849D03*
X319319Y224633D03*
X316535Y227417D03*
X313752Y230201D03*
X310968Y232985D03*
X308184Y235769D03*
X305400Y238553D03*
X302616Y241337D03*
X299832Y244120D03*
X297048Y246904D03*
X294264Y249688D03*
X291480Y252472D03*
X288697Y255256D03*
X372213Y177307D03*
X369429Y180091D03*
X366645Y182875D03*
X363861Y185659D03*
X361078Y188443D03*
X358294Y191227D03*
X355510Y194011D03*
X352726Y196794D03*
X349942Y199578D03*
X347158Y202362D03*
X344374Y205146D03*
X341590Y207930D03*
X338807Y210714D03*
X336023Y213498D03*
X333239Y216282D03*
X330455Y219066D03*
X327671Y221849D03*
X324887Y224633D03*
X322103Y227417D03*
X319319Y230201D03*
X316535Y232985D03*
X313752Y235769D03*
X310968Y238553D03*
X308184Y241337D03*
X305400Y244120D03*
X302616Y246904D03*
X299832Y249688D03*
X297048Y252472D03*
X294264Y255256D03*
X291480Y258040D03*
X374997Y180091D03*
X372213Y182875D03*
X369429Y185659D03*
X366645Y188443D03*
X363861Y191227D03*
X361078Y194011D03*
X358294Y196794D03*
X355510Y199578D03*
X352726Y202362D03*
X349942Y205146D03*
X347158Y207930D03*
X344374Y210714D03*
X341590Y213498D03*
X338807Y216282D03*
X336023Y219066D03*
X333239Y221849D03*
X330455Y224633D03*
X327671Y227417D03*
X324887Y230201D03*
X322103Y232985D03*
X319319Y235769D03*
X316535Y238553D03*
X313752Y241337D03*
X310968Y244120D03*
X308184Y246904D03*
X305400Y249688D03*
X302616Y252472D03*
X299832Y255256D03*
X297048Y258040D03*
X294264Y260824D03*
X377781Y182875D03*
X374997Y185659D03*
X372213Y188443D03*
X369429Y191227D03*
X366645Y194011D03*
X363861Y196794D03*
X361078Y199578D03*
X358294Y202362D03*
X355510Y205146D03*
X352726Y207930D03*
X349942Y210714D03*
X347158Y213498D03*
X344374Y216282D03*
X341590Y219066D03*
X338807Y221849D03*
X336023Y224633D03*
X333239Y227417D03*
X330455Y230201D03*
X327671Y232985D03*
X324887Y235769D03*
X322103Y238553D03*
X319319Y241337D03*
X316535Y244120D03*
X313752Y246904D03*
X310968Y249688D03*
X308184Y252472D03*
X305400Y255256D03*
X302616Y258040D03*
X299832Y260824D03*
X297048Y263608D03*
X380565Y185659D03*
X377781Y188443D03*
X374997Y191227D03*
X372213Y194011D03*
X369429Y196794D03*
X366645Y199578D03*
X363861Y202362D03*
X361078Y205146D03*
X358294Y207930D03*
X355510Y210714D03*
X352726Y213498D03*
X349942Y216282D03*
X347158Y219066D03*
X344374Y221849D03*
X341590Y224633D03*
X338807Y227417D03*
X336023Y230201D03*
X333239Y232985D03*
X330455Y235769D03*
X327671Y238553D03*
X324887Y241337D03*
X322103Y244120D03*
X319319Y246904D03*
X316535Y249688D03*
X313752Y252472D03*
X310968Y255256D03*
X308184Y258040D03*
X305400Y260824D03*
X302616Y263608D03*
X299832Y266392D03*
X383349Y188443D03*
X380565Y191227D03*
X377781Y194011D03*
X374997Y196794D03*
X372213Y199578D03*
X369429Y202362D03*
X366645Y205146D03*
X363861Y207930D03*
X361078Y210714D03*
X358294Y213498D03*
X355510Y216282D03*
X352726Y219066D03*
X349942Y221849D03*
X347158Y224633D03*
X344374Y227417D03*
X341590Y230201D03*
X338807Y232985D03*
X336023Y235769D03*
X333239Y238553D03*
X330455Y241337D03*
X327671Y244120D03*
X324887Y246904D03*
X322103Y249688D03*
X319319Y252472D03*
X316535Y255256D03*
X313752Y258040D03*
X310968Y260824D03*
X308184Y263608D03*
X305400Y266392D03*
X302616Y269175D03*
X386133Y191227D03*
X383349Y194011D03*
X380565Y196794D03*
X377781Y199578D03*
X374997Y202362D03*
X372213Y205146D03*
X369429Y207930D03*
X366645Y210714D03*
X363861Y213498D03*
X361078Y216282D03*
X358294Y219066D03*
X355510Y221849D03*
X352726Y224633D03*
X349942Y227417D03*
X347158Y230201D03*
X344374Y232985D03*
X341590Y235769D03*
X338807Y238553D03*
X336023Y241337D03*
X333239Y244120D03*
X330455Y246904D03*
X327671Y249688D03*
X324887Y252472D03*
X322103Y255256D03*
X319319Y258040D03*
X316535Y260824D03*
X313752Y263608D03*
X310968Y266392D03*
X308184Y269175D03*
X305400Y271959D03*
X388916Y194011D03*
X386133Y196794D03*
X383349Y199578D03*
X380565Y202362D03*
X377781Y205146D03*
X374997Y207930D03*
X372213Y210714D03*
X369429Y213498D03*
X366645Y216282D03*
X363861Y219066D03*
X361078Y221849D03*
X358294Y224633D03*
X355510Y227417D03*
X352726Y230201D03*
X349942Y232985D03*
X347158Y235769D03*
X344374Y238553D03*
X341590Y241337D03*
X338807Y244120D03*
X336023Y246904D03*
X333239Y249688D03*
X330455Y252472D03*
X327671Y255256D03*
X324887Y258040D03*
X322103Y260824D03*
X319319Y263608D03*
X316535Y266392D03*
X313752Y269175D03*
X310968Y271959D03*
X308184Y274743D03*
X391700Y196794D03*
X388916Y199578D03*
X386133Y202362D03*
X383349Y205146D03*
X380565Y207930D03*
X377781Y210714D03*
X374997Y213498D03*
X372213Y216282D03*
X369429Y219066D03*
X366645Y221849D03*
X363861Y224633D03*
X361078Y227417D03*
X358294Y230201D03*
X355510Y232985D03*
X352726Y235769D03*
X349942Y238553D03*
X347158Y241337D03*
X344374Y244120D03*
X341590Y246904D03*
X338807Y249688D03*
X336023Y252472D03*
X333239Y255256D03*
X330455Y258040D03*
X327671Y260824D03*
X324887Y263608D03*
X322103Y266392D03*
X319319Y269175D03*
X316535Y271959D03*
X313752Y274743D03*
X310968Y277527D03*
X394484Y199578D03*
X391700Y202362D03*
X388916Y205146D03*
X386133Y207930D03*
X383349Y210714D03*
X380565Y213498D03*
X377781Y216282D03*
X374997Y219066D03*
X372213Y221849D03*
X369429Y224633D03*
X366645Y227417D03*
X363861Y230201D03*
X361078Y232985D03*
X358294Y235769D03*
X355510Y238553D03*
X352726Y241337D03*
X349942Y244120D03*
X347158Y246904D03*
X344374Y249688D03*
X341590Y252472D03*
X338807Y255256D03*
X336023Y258040D03*
X333239Y260824D03*
X330455Y263608D03*
X327671Y266392D03*
X324887Y269175D03*
X322103Y271959D03*
X319319Y274743D03*
X316535Y277527D03*
X313752Y280311D03*
X397268Y202362D03*
X394484Y205146D03*
X391700Y207930D03*
X388916Y210714D03*
X386133Y213498D03*
X383349Y216282D03*
X380565Y219066D03*
X377781Y221849D03*
X374997Y224633D03*
X372213Y227417D03*
X369429Y230201D03*
X366645Y232985D03*
X363861Y235769D03*
X361078Y238553D03*
X358294Y241337D03*
X355510Y244120D03*
X352726Y246904D03*
X349942Y249688D03*
X347158Y252472D03*
X344374Y255256D03*
X341590Y258040D03*
X338807Y260824D03*
X336023Y263608D03*
X333239Y266392D03*
X330455Y269175D03*
X327671Y271959D03*
X324887Y274743D03*
X322103Y277527D03*
X319319Y280311D03*
X316535Y283095D03*
G54D50*
X135039Y138583D03*
X363386D03*
X309449Y300394D03*
G54D83*
X416929Y326378D03*
G54D86*
X136557Y355906D03*
X150057D03*
X134589Y389370D03*
X148089D03*
X484982Y375591D03*
X498482D03*
X136557Y371654D03*
X150057D03*
X486951Y357874D03*
X500451D03*
X484982Y340157D03*
X498482D03*
X486951Y322441D03*
X500451D03*
X136557Y320472D03*
X150057D03*
X136557Y338189D03*
X150057D03*
G54D88*
X375433Y281299D03*
X385433D03*
X395433D03*
Y296654D03*
X385433D03*
X375433D03*
X231732Y300984D03*
X241732D03*
X251732D03*
Y316339D03*
X241732D03*
X231732D03*
G54D89*
X144488Y142717D03*
X372835D03*
G54D90*
X146850D03*
X149213D03*
X151575D03*
X153937D03*
X156299D03*
X158661D03*
X161024D03*
X163386D03*
X165748D03*
X168110D03*
X170472D03*
X172835D03*
X175197D03*
X177559D03*
X179921D03*
X182283D03*
X184646D03*
X187008D03*
X189370D03*
X191732D03*
X194094D03*
X196457D03*
X198819D03*
X201181D03*
X203543D03*
X205906D03*
X208268D03*
X210630D03*
X212992D03*
X215354D03*
X217717D03*
X220079D03*
X222441D03*
X224803D03*
X227165D03*
X229528D03*
X231890D03*
X234252D03*
X236614D03*
X238976D03*
X241339D03*
X243701D03*
X246063D03*
X248425D03*
X250787D03*
X253150D03*
X255512D03*
X257874D03*
X260236D03*
Y120276D03*
X257874D03*
X255512D03*
X253150D03*
X250787D03*
X248425D03*
X246063D03*
X243701D03*
X241339D03*
X238976D03*
X236614D03*
X234252D03*
X231890D03*
X229528D03*
X227165D03*
X224803D03*
X222441D03*
X220079D03*
X217717D03*
X215354D03*
X212992D03*
X210630D03*
X208268D03*
X205906D03*
X203543D03*
X201181D03*
X198819D03*
X196457D03*
X194094D03*
X191732D03*
X189370D03*
X187008D03*
X184646D03*
X182283D03*
X179921D03*
X177559D03*
X175197D03*
X172835D03*
X170472D03*
X168110D03*
X165748D03*
X163386D03*
X161024D03*
X158661D03*
X156299D03*
X153937D03*
X151575D03*
X149213D03*
X146850D03*
X144488D03*
X375197Y142717D03*
X377559D03*
X379921D03*
X382283D03*
X384646D03*
X387008D03*
X389370D03*
X391732D03*
X394094D03*
X396457D03*
X398819D03*
X401181D03*
X403543D03*
X405906D03*
X408268D03*
X410630D03*
X412992D03*
X415354D03*
X417717D03*
X420079D03*
X422441D03*
X424803D03*
X427165D03*
X429528D03*
X431890D03*
X434252D03*
X436614D03*
X438976D03*
X441339D03*
X443701D03*
X446063D03*
X448425D03*
X450787D03*
X453150D03*
X455512D03*
X457874D03*
X460236D03*
X462598D03*
X464961D03*
X467323D03*
X469685D03*
X472047D03*
X474409D03*
X476772D03*
X479134D03*
X481496D03*
X483858D03*
X486220D03*
X488583D03*
Y120276D03*
X486220D03*
X483858D03*
X481496D03*
X479134D03*
X476772D03*
X474409D03*
X472047D03*
X469685D03*
X467323D03*
X464961D03*
X462598D03*
X460236D03*
X457874D03*
X455512D03*
X453150D03*
X450787D03*
X448425D03*
X446063D03*
X443701D03*
X441339D03*
X438976D03*
X436614D03*
X434252D03*
X431890D03*
X429528D03*
X427165D03*
X424803D03*
X422441D03*
X420079D03*
X417717D03*
X415354D03*
X412992D03*
X410630D03*
X408268D03*
X405906D03*
X403543D03*
X401181D03*
X398819D03*
X396457D03*
X394094D03*
X391732D03*
X389370D03*
X387008D03*
X384646D03*
X382283D03*
X379921D03*
X377559D03*
X375197D03*
X372835D03*
G54D91*
X305315Y309843D03*
G54D92*
Y312205D03*
Y314567D03*
Y316929D03*
Y319291D03*
Y321654D03*
Y324016D03*
Y326378D03*
Y328740D03*
Y331102D03*
Y333465D03*
Y335827D03*
Y338189D03*
Y340551D03*
Y342913D03*
Y345276D03*
Y347638D03*
Y350000D03*
Y352362D03*
Y354724D03*
Y357087D03*
Y359449D03*
Y361811D03*
Y364173D03*
Y366535D03*
Y368898D03*
Y371260D03*
Y373622D03*
Y375984D03*
Y378346D03*
Y380709D03*
Y383071D03*
Y385433D03*
Y387795D03*
Y390157D03*
Y392520D03*
Y394882D03*
Y397244D03*
Y399606D03*
Y401969D03*
Y404331D03*
Y406693D03*
Y409055D03*
Y411417D03*
Y413780D03*
Y416142D03*
Y418504D03*
Y420866D03*
Y423228D03*
Y425591D03*
X327756D03*
Y423228D03*
Y420866D03*
Y418504D03*
Y416142D03*
Y413780D03*
Y411417D03*
Y409055D03*
Y406693D03*
Y404331D03*
Y401969D03*
Y399606D03*
Y397244D03*
Y394882D03*
Y392520D03*
Y390157D03*
Y387795D03*
Y385433D03*
Y383071D03*
Y380709D03*
Y378346D03*
Y375984D03*
Y373622D03*
Y371260D03*
Y368898D03*
Y366535D03*
Y364173D03*
Y361811D03*
Y359449D03*
Y357087D03*
Y354724D03*
Y352362D03*
Y350000D03*
Y347638D03*
Y345276D03*
Y342913D03*
Y340551D03*
Y338189D03*
Y335827D03*
Y333465D03*
Y331102D03*
Y328740D03*
Y326378D03*
Y324016D03*
Y321654D03*
Y319291D03*
Y316929D03*
Y314567D03*
Y312205D03*
Y309843D03*
G54D95*
X446358Y329331D03*
X448917D03*
X451476D03*
X454035D03*
X456594D03*
X459154D03*
X461713D03*
X464272D03*
X466831D03*
Y354921D03*
X464272D03*
X461713D03*
X459154D03*
X456594D03*
X454035D03*
X451476D03*
X448917D03*
X446358D03*
X443799D03*
X195374Y297835D03*
X197933D03*
X200492D03*
X203051D03*
X205610D03*
X208169D03*
X210728D03*
Y323425D03*
X208169D03*
X205610D03*
X203051D03*
X200492D03*
X197933D03*
X195374D03*
X192815D03*
G54D96*
X217923Y292008D03*
X214173D03*
X210423D03*
Y282008D03*
X217923D03*
X233671Y292008D03*
X229921D03*
X226171D03*
Y282008D03*
X233671D03*
X202175Y292008D03*
X198425D03*
X194675D03*
Y282008D03*
X198435D03*
X202175D03*
G54D109*
X225394Y194488D03*
X230512D03*
X215551Y204331D03*
X220669D03*
X247047Y159055D03*
X252165D03*
X225394Y198425D03*
X230512D03*
X247047Y153150D03*
X252165D03*
X272638Y251575D03*
X277756D03*
X428150Y198425D03*
X433268D03*
X361220Y283071D03*
X366339D03*
X361220Y296850D03*
X366339D03*
X361220Y273228D03*
X366339D03*
X264764Y265354D03*
X269882D03*
X414370Y192520D03*
X419488D03*
X390748Y168898D03*
X395866D03*
X272638Y257480D03*
X277756D03*
X414370Y214173D03*
X419488D03*
G54D110*
X263386Y312598D03*
X271260D03*
X261417Y322441D03*
X269291D03*
X367717Y357874D03*
X375591D03*
X351969D03*
X359843D03*
X464567Y387205D03*
X472441D03*
X450787D03*
X458661D03*
X357874Y344094D03*
X365748D03*
X342126D03*
X350000D03*
G54D111*
X269291Y154528D03*
Y159646D03*
X405118Y370276D03*
Y365157D03*
X383465Y174213D03*
Y179331D03*
G54D116*
X443799Y329331D03*
X192815Y297835D03*
G54D155*
X269685Y138583D03*
X498031D03*
X309449Y435039D03*
G54D160*
X284155Y133265D03*
X348131Y118501D03*
X284155D03*
X203246Y243501D03*
X227853Y224800D03*
X202462Y107674D03*
X221163D03*
X348131Y133265D03*
X414076Y107674D03*
X383565D03*
X249506Y244485D03*
G54D173*
X354134Y311220D03*
Y330118D03*
X280512Y311220D03*
Y330118D03*
G54D175*
X392323Y324409D03*
X382480Y327362D03*
X392323Y330315D03*
X382480Y333268D03*
X392323Y336220D03*
G54D176*
X387402Y316535D03*
Y344094D03*
G54D204*
X227853Y224800D02*
X241732Y238680D01*
Y250591*
X294882Y303740*
Y369528*
X288425D02*
X294882D01*
G54D260*
X224016Y265354D03*
X245669D03*
G54D261*
X492047Y446909D03*
X482047D03*
X472047D03*
X462047D03*
X452047D03*
Y414509D03*
X462047D03*
X472047D03*
X482047D03*
X492047D03*
G54D262*
X211504Y418898D03*
X425504Y430898D03*
G54D263*
X141634Y178740D03*
X156791D03*
X474311Y174803D03*
X489469D03*
X450689Y190551D03*
X465846D03*
X177067D03*
X192224D03*
X482185Y304724D03*
X497343D03*
X133760D03*
X148917D03*
G54D264*
X135433Y247638D03*
X159055D03*
X468110D03*
X491732D03*
G54D265*
X214173Y192815D03*
X216142D03*
X218110D03*
Y200098D03*
X216142D03*
X214173D03*
X259449Y153445D03*
X261417D03*
X263386D03*
Y160728D03*
X261417D03*
X259449D03*
X391339Y173130D03*
X393307D03*
X395276D03*
Y180413D03*
X393307D03*
X391339D03*
X263386Y251870D03*
X265354D03*
X267323D03*
Y259154D03*
X265354D03*
X263386D03*
X414961Y200689D03*
X416929D03*
X418898D03*
Y207972D03*
X416929D03*
X414961D03*
G54D266*
X216142Y196457D03*
X261417Y157087D03*
X393307Y176772D03*
X265354Y255512D03*
X416929Y204331D03*
G54D267*
X198425Y379528D03*
X208425D03*
X218425D03*
X228425D03*
X238425D03*
X248425D03*
X258425D03*
X268425D03*
X278425D03*
X288425D03*
X198425Y369528D03*
X208425D03*
X218425D03*
X228425D03*
X238425D03*
X248425D03*
X258425D03*
X268425D03*
X278425D03*
X288425D03*
X198425Y359528D03*
X208425D03*
X218425D03*
X228425D03*
X238425D03*
X248425D03*
X258425D03*
X268425D03*
X278425D03*
X288425D03*
X198425Y349528D03*
X208425D03*
X218425D03*
X228425D03*
X238425D03*
X248425D03*
X258425D03*
X268425D03*
X278425D03*
X288425D03*
G54D294*
X108564Y104388D03*
X106476Y106476D03*
Y102300D03*
X104388Y104388D03*
X102300Y106476D03*
Y102300D03*
X119003Y106476D03*
Y102300D03*
X116915Y104388D03*
X114827Y106476D03*
Y102300D03*
X112740Y104388D03*
X110652Y106476D03*
Y102300D03*
X125267Y104388D03*
X123179Y106476D03*
Y102300D03*
X121091Y104388D03*
X509500Y108164D03*
Y103988D03*
X507412Y106076D03*
Y101900D03*
X517851Y108164D03*
Y103988D03*
X515763Y106076D03*
X513676Y108164D03*
Y103988D03*
X511588Y106076D03*
Y101900D03*
X528291Y106076D03*
X526203Y108164D03*
Y103988D03*
X524115Y106076D03*
X522027Y108164D03*
Y103988D03*
X519939Y106076D03*
X530379Y108164D03*
Y103988D03*
X108564Y116915D03*
Y112740D03*
Y108564D03*
X106476Y114827D03*
Y110652D03*
X104388Y116915D03*
Y112740D03*
Y108564D03*
X102300Y114827D03*
Y110652D03*
X119003Y114827D03*
Y110652D03*
X116915Y116915D03*
Y112740D03*
Y108564D03*
X114827Y114827D03*
Y110652D03*
X112740Y116915D03*
Y112740D03*
Y108564D03*
X110652Y114827D03*
Y110652D03*
X125267Y116915D03*
Y112740D03*
Y108564D03*
X123179Y114827D03*
Y110652D03*
X121091Y116915D03*
Y112740D03*
Y108564D03*
X509500Y116515D03*
Y112340D03*
X507412Y114427D03*
Y110252D03*
X517851Y116515D03*
Y112340D03*
X515763Y114427D03*
Y110252D03*
X513676Y116515D03*
Y112340D03*
X511588Y114427D03*
Y110252D03*
X528291Y114427D03*
Y110252D03*
X526203Y116515D03*
Y112340D03*
X524115Y114427D03*
Y110252D03*
X522027Y116515D03*
Y112340D03*
X519939Y114427D03*
Y110252D03*
X530379Y116515D03*
Y112340D03*
X108564Y125267D03*
Y121091D03*
X106476Y127355D03*
Y123179D03*
Y119003D03*
X104388Y125267D03*
Y121091D03*
X102300Y127355D03*
Y123179D03*
Y119003D03*
X119003Y127355D03*
Y123179D03*
Y119003D03*
X116915Y125267D03*
Y121091D03*
X114827Y127355D03*
Y123179D03*
Y119003D03*
X112740Y125267D03*
Y121091D03*
X110652Y127355D03*
Y123179D03*
Y119003D03*
X125267Y125267D03*
Y121091D03*
X123179Y127355D03*
Y123179D03*
Y119003D03*
X121091Y125267D03*
Y121091D03*
X509500Y124867D03*
Y120691D03*
X507412Y126955D03*
Y122779D03*
Y118603D03*
X517851Y124867D03*
Y120691D03*
X515763Y126955D03*
Y122779D03*
Y118603D03*
X513676Y124867D03*
Y120691D03*
X511588Y126955D03*
Y122779D03*
Y118603D03*
X528291Y126955D03*
Y122779D03*
Y118603D03*
X526203Y124867D03*
Y120691D03*
X524115Y126955D03*
Y122779D03*
Y118603D03*
X522027Y124867D03*
Y120691D03*
X519939Y126955D03*
Y122779D03*
Y118603D03*
X530379Y124867D03*
Y120691D03*
X108564Y137795D03*
Y133619D03*
Y129443D03*
X106476Y135707D03*
Y131531D03*
X104388Y137795D03*
Y133619D03*
Y129443D03*
X102300Y135707D03*
Y131531D03*
X119003Y135707D03*
Y131531D03*
X116915Y137795D03*
Y133619D03*
Y129443D03*
X114827Y135707D03*
Y131531D03*
X112740Y137795D03*
Y133619D03*
Y129443D03*
X110652Y135707D03*
Y131531D03*
X125267Y137795D03*
Y133619D03*
Y129443D03*
X123179Y135707D03*
Y131531D03*
X121091Y137795D03*
Y133619D03*
Y129443D03*
X509500Y137395D03*
Y133219D03*
Y129043D03*
X507412Y135307D03*
Y131131D03*
X517851Y137395D03*
Y133219D03*
Y129043D03*
X515763Y135307D03*
Y131131D03*
X513676Y137395D03*
Y133219D03*
Y129043D03*
X511588Y135307D03*
Y131131D03*
X528291Y135307D03*
Y131131D03*
X526203Y137395D03*
Y133219D03*
Y129043D03*
X524115Y135307D03*
Y131131D03*
X522027Y137395D03*
Y133219D03*
Y129043D03*
X519939Y135307D03*
Y131131D03*
X530379Y137395D03*
Y133219D03*
Y129043D03*
X108564Y146146D03*
Y141970D03*
X106476Y148234D03*
Y144058D03*
Y139882D03*
X104388Y146146D03*
Y141970D03*
X102300Y148234D03*
Y144058D03*
Y139882D03*
X119003Y148234D03*
Y144058D03*
Y139882D03*
X116915Y146146D03*
Y141970D03*
X114827Y148234D03*
Y144058D03*
Y139882D03*
X112740Y146146D03*
Y141970D03*
X110652Y148234D03*
Y144058D03*
Y139882D03*
X125267Y146146D03*
Y141970D03*
X123179Y148234D03*
Y144058D03*
Y139882D03*
X121091Y146146D03*
Y141970D03*
X509500Y145746D03*
Y141570D03*
X507412Y147834D03*
Y143658D03*
Y139482D03*
X517851Y145746D03*
Y141570D03*
X515763Y147834D03*
Y143658D03*
Y139482D03*
X513676Y145746D03*
Y141570D03*
X511588Y147834D03*
Y143658D03*
Y139482D03*
X528291Y147834D03*
Y143658D03*
Y139482D03*
X526203Y145746D03*
Y141570D03*
X524115Y147834D03*
Y143658D03*
Y139482D03*
X522027Y145746D03*
Y141570D03*
X519939Y147834D03*
Y143658D03*
Y139482D03*
X530379Y145746D03*
Y141570D03*
X108564Y150322D03*
X106476Y152410D03*
X104388Y154498D03*
Y150322D03*
X102300Y156586D03*
Y152410D03*
X125267Y154498D03*
Y150322D03*
X123179Y152410D03*
X121091Y150322D03*
X509500Y154098D03*
Y149922D03*
X507412Y156186D03*
Y152010D03*
X513676Y149922D03*
X511588Y152010D03*
X528291D03*
X526203Y149922D03*
X530379Y158274D03*
Y154098D03*
Y149922D03*
X104388Y167025D03*
X102300Y164937D03*
Y160762D03*
X125267Y167025D03*
Y162849D03*
Y158674D03*
X123179Y164937D03*
X121091Y167025D03*
X509500Y166625D03*
X507412Y164537D03*
Y160362D03*
X528291Y164537D03*
X526203Y166625D03*
X530379D03*
Y162449D03*
X108564Y175377D03*
Y171201D03*
X106476Y177465D03*
Y173289D03*
Y169113D03*
X104388Y175377D03*
Y171201D03*
X102300Y177465D03*
Y173289D03*
Y169113D03*
X119003Y177465D03*
Y173289D03*
Y169113D03*
X116915Y175377D03*
Y171201D03*
X114827Y177465D03*
Y173289D03*
Y169113D03*
X112740Y175377D03*
Y171201D03*
X110652Y177465D03*
Y173289D03*
Y169113D03*
X125267Y175377D03*
Y171201D03*
X123179Y177465D03*
Y173289D03*
Y169113D03*
X121091Y175377D03*
Y171201D03*
X509500Y174977D03*
Y170801D03*
X507412Y177065D03*
Y172889D03*
Y168713D03*
X517851Y174977D03*
Y170801D03*
X515763Y177065D03*
Y172889D03*
X513676Y174977D03*
Y170801D03*
X511588Y177065D03*
Y172889D03*
Y168713D03*
X528291Y177065D03*
Y172889D03*
Y168713D03*
X526203Y174977D03*
Y170801D03*
X524115Y177065D03*
Y172889D03*
Y168713D03*
X522027Y174977D03*
Y170801D03*
X519939Y177065D03*
Y172889D03*
X530379Y174977D03*
Y170801D03*
X108564Y187904D03*
Y183729D03*
Y179553D03*
X106476Y185817D03*
Y181641D03*
X104388Y187904D03*
Y183729D03*
Y179553D03*
X102300Y185817D03*
Y181641D03*
X119003Y185817D03*
Y181641D03*
X116915Y187904D03*
Y183729D03*
Y179553D03*
X114827Y185817D03*
Y181641D03*
X112740Y187904D03*
Y183729D03*
Y179553D03*
X110652Y185817D03*
Y181641D03*
X125267Y187904D03*
Y183729D03*
Y179553D03*
X123179Y185817D03*
Y181641D03*
X121091Y187904D03*
Y183729D03*
Y179553D03*
X509500Y187504D03*
Y183329D03*
Y179153D03*
X507412Y185417D03*
Y181241D03*
X517851Y187504D03*
Y183329D03*
Y179153D03*
X515763Y185417D03*
Y181241D03*
X513676Y187504D03*
Y183329D03*
Y179153D03*
X511588Y185417D03*
Y181241D03*
X528291Y185417D03*
Y181241D03*
X526203Y187504D03*
Y183329D03*
Y179153D03*
X524115Y185417D03*
Y181241D03*
X522027Y187504D03*
Y183329D03*
Y179153D03*
X519939Y185417D03*
Y181241D03*
X530379Y187504D03*
Y183329D03*
Y179153D03*
X108564Y196256D03*
Y192080D03*
X106476Y194168D03*
Y189992D03*
X104388Y196256D03*
Y192080D03*
X102300Y194168D03*
Y189992D03*
X119003Y194168D03*
Y189992D03*
X116915Y196256D03*
Y192080D03*
X114827Y194168D03*
Y189992D03*
X112740Y196256D03*
Y192080D03*
X110652Y194168D03*
Y189992D03*
X125267Y196256D03*
Y192080D03*
X123179Y194168D03*
Y189992D03*
X121091Y196256D03*
Y192080D03*
X509500Y195856D03*
Y191680D03*
X507412Y197944D03*
Y193768D03*
Y189592D03*
X517851Y195856D03*
Y191680D03*
X515763Y197944D03*
Y193768D03*
Y189592D03*
X513676Y195856D03*
Y191680D03*
X511588Y197944D03*
Y193768D03*
Y189592D03*
X528291Y197944D03*
Y193768D03*
Y189592D03*
X526203Y195856D03*
Y191680D03*
X524115Y197944D03*
Y193768D03*
Y189592D03*
X522027Y195856D03*
Y191680D03*
X519939Y197944D03*
Y193768D03*
Y189592D03*
X530379Y195856D03*
Y191680D03*
X108564Y200432D03*
X106476Y198344D03*
X104388Y200432D03*
X102300Y198344D03*
X119003Y202520D03*
Y198344D03*
X116915Y200432D03*
X114827Y198344D03*
X112740Y200432D03*
X110652Y198344D03*
X125267Y204608D03*
Y200432D03*
X123179Y202520D03*
Y198344D03*
X121091Y200432D03*
X509500Y204208D03*
Y200032D03*
X507412Y206296D03*
Y202120D03*
X517851Y200032D03*
X515763Y202120D03*
X513676Y200032D03*
X511588Y202120D03*
X528291D03*
X526203Y200032D03*
X524115Y202120D03*
X522027Y200032D03*
X519939Y202120D03*
X530379Y200032D03*
X108564Y238014D03*
X106476Y235926D03*
X104388Y238014D03*
X102300Y235926D03*
X119003D03*
X116915Y238014D03*
X114827Y235926D03*
X112740Y238014D03*
X110652Y235926D03*
X125267Y238014D03*
Y233839D03*
Y229663D03*
X123179Y235926D03*
Y231751D03*
X121091Y238014D03*
Y233839D03*
X509500Y237614D03*
Y233439D03*
X507412Y235526D03*
Y231351D03*
X517851Y237614D03*
X515763Y235526D03*
X513676Y237614D03*
X511588Y235526D03*
X528291D03*
X526203Y237614D03*
X524115Y235526D03*
X522027Y237614D03*
X519939Y235526D03*
X530379Y237614D03*
X108564Y246366D03*
Y242190D03*
X106476Y244278D03*
Y240102D03*
X104388Y246366D03*
Y242190D03*
X102300Y244278D03*
Y240102D03*
X119003Y244278D03*
Y240102D03*
X116915Y246366D03*
Y242190D03*
X114827Y244278D03*
Y240102D03*
X112740Y246366D03*
Y242190D03*
X110652Y244278D03*
Y240102D03*
X125267Y246366D03*
Y242190D03*
X123179Y244278D03*
Y240102D03*
X121091Y246366D03*
Y242190D03*
X509500Y245966D03*
Y241790D03*
X507412Y248054D03*
Y243878D03*
Y239702D03*
X517851Y245966D03*
Y241790D03*
X515763Y248054D03*
Y243878D03*
Y239702D03*
X513676Y245966D03*
Y241790D03*
X511588Y248054D03*
Y243878D03*
Y239702D03*
X528291Y248054D03*
Y243878D03*
Y239702D03*
X526203Y245966D03*
Y241790D03*
X524115Y248054D03*
Y243878D03*
Y239702D03*
X522027Y245966D03*
Y241790D03*
X519939Y248054D03*
Y243878D03*
Y239702D03*
X530379Y245966D03*
Y241790D03*
X108564Y254718D03*
Y250542D03*
X106476Y256806D03*
Y252630D03*
Y248454D03*
X104388Y254718D03*
Y250542D03*
X102300Y256806D03*
Y252630D03*
Y248454D03*
X119003Y256806D03*
Y252630D03*
Y248454D03*
X116915Y254718D03*
Y250542D03*
X114827Y256806D03*
Y252630D03*
Y248454D03*
X112740Y254718D03*
Y250542D03*
X110652Y256806D03*
Y252630D03*
Y248454D03*
X125267Y254718D03*
Y250542D03*
X123179Y256806D03*
Y252630D03*
Y248454D03*
X121091Y254718D03*
Y250542D03*
X509500Y254318D03*
Y250142D03*
X507412Y256406D03*
Y252230D03*
X517851Y254318D03*
Y250142D03*
X515763Y256406D03*
Y252230D03*
X513676Y254318D03*
Y250142D03*
X511588Y256406D03*
Y252230D03*
X528291Y256406D03*
Y252230D03*
X526203Y254318D03*
Y250142D03*
X524115Y256406D03*
Y252230D03*
X522027Y254318D03*
Y250142D03*
X519939Y256406D03*
Y252230D03*
X530379Y254318D03*
Y250142D03*
X108564Y267245D03*
Y263069D03*
Y258894D03*
X106476Y265157D03*
Y260981D03*
X104388Y267245D03*
Y263069D03*
Y258894D03*
X102300Y265157D03*
Y260981D03*
X119003Y265157D03*
Y260981D03*
X116915Y267245D03*
Y263069D03*
Y258894D03*
X114827Y265157D03*
Y260981D03*
X112740Y267245D03*
Y263069D03*
Y258894D03*
X110652Y265157D03*
Y260981D03*
X125267Y267245D03*
Y263069D03*
Y258894D03*
X123179Y265157D03*
Y260981D03*
X121091Y267245D03*
Y263069D03*
Y258894D03*
X509500Y266845D03*
Y262669D03*
Y258494D03*
X507412Y264757D03*
Y260581D03*
X517851Y266845D03*
Y262669D03*
Y258494D03*
X515763Y264757D03*
Y260581D03*
X513676Y266845D03*
Y262669D03*
Y258494D03*
X511588Y264757D03*
Y260581D03*
X528291Y264757D03*
Y260581D03*
X526203Y266845D03*
Y262669D03*
Y258494D03*
X524115Y264757D03*
Y260581D03*
X522027Y266845D03*
Y262669D03*
Y258494D03*
X519939Y264757D03*
Y260581D03*
X530379Y266845D03*
Y262669D03*
Y258494D03*
X106476Y269333D03*
X104388Y271421D03*
X102300Y277685D03*
Y273509D03*
Y269333D03*
X125267Y275597D03*
Y271421D03*
X123179Y269333D03*
X509500Y271021D03*
X507412Y277285D03*
Y273109D03*
Y268933D03*
X511588D03*
X528291D03*
X530379Y275197D03*
Y271021D03*
X108564Y288124D03*
X106476Y286036D03*
X104388Y288124D03*
Y283948D03*
X102300Y286036D03*
Y281861D03*
X119003Y286036D03*
X116915Y288124D03*
X112740D03*
X125267D03*
Y283948D03*
Y279773D03*
X123179Y286036D03*
Y281861D03*
X121091Y288124D03*
Y283948D03*
X509500Y287724D03*
Y283548D03*
X507412Y285636D03*
Y281461D03*
X517851Y287724D03*
X513676D03*
X511588Y285636D03*
X528291D03*
X526203Y287724D03*
X522027D03*
X530379D03*
Y283548D03*
Y279373D03*
X108564Y296476D03*
Y292300D03*
X106476Y294388D03*
Y290212D03*
X104388Y296476D03*
Y292300D03*
X102300Y294388D03*
Y290212D03*
X119003Y294388D03*
Y290212D03*
X116915Y296476D03*
Y292300D03*
X114827Y294388D03*
Y290212D03*
X112740Y296476D03*
Y292300D03*
X110652Y294388D03*
Y290212D03*
X125267Y296476D03*
Y292300D03*
X123179Y294388D03*
Y290212D03*
X121091Y296476D03*
Y292300D03*
X509500Y296076D03*
Y291900D03*
X507412Y298164D03*
Y293988D03*
Y289812D03*
X517851Y296076D03*
Y291900D03*
X515763Y298164D03*
Y293988D03*
Y289812D03*
X513676Y296076D03*
Y291900D03*
X511588Y298164D03*
Y293988D03*
Y289812D03*
X528291Y298164D03*
Y293988D03*
Y289812D03*
X526203Y296076D03*
Y291900D03*
X524115Y298164D03*
Y293988D03*
Y289812D03*
X522027Y296076D03*
Y291900D03*
X519939Y298164D03*
Y293988D03*
Y289812D03*
X530379Y296076D03*
Y291900D03*
X108564Y304828D03*
Y300652D03*
X106476Y306916D03*
Y302740D03*
Y298564D03*
X104388Y304828D03*
Y300652D03*
X102300Y306916D03*
Y302740D03*
Y298564D03*
X119003Y306916D03*
Y302740D03*
Y298564D03*
X116915Y304828D03*
Y300652D03*
X114827Y306916D03*
Y302740D03*
Y298564D03*
X112740Y304828D03*
Y300652D03*
X110652Y306916D03*
Y302740D03*
Y298564D03*
X125267Y304828D03*
Y300652D03*
X123179Y306916D03*
Y302740D03*
Y298564D03*
X121091Y304828D03*
Y300652D03*
X509500Y304428D03*
Y300252D03*
X507412Y306516D03*
Y302340D03*
X517851Y304428D03*
Y300252D03*
X515763Y306516D03*
Y302340D03*
X513676Y304428D03*
Y300252D03*
X511588Y306516D03*
Y302340D03*
X528291Y306516D03*
Y302340D03*
X526203Y304428D03*
Y300252D03*
X524115Y306516D03*
Y302340D03*
X522027Y304428D03*
Y300252D03*
X519939Y306516D03*
Y302340D03*
X530379Y304428D03*
Y300252D03*
X108564Y317355D03*
Y313179D03*
Y309003D03*
X106476Y315267D03*
Y311091D03*
X104388Y317355D03*
Y313179D03*
Y309003D03*
X102300Y315267D03*
Y311091D03*
X119003Y315267D03*
Y311091D03*
X116915Y317355D03*
Y313179D03*
Y309003D03*
X114827Y315267D03*
Y311091D03*
X112740Y317355D03*
Y313179D03*
Y309003D03*
X110652Y315267D03*
Y311091D03*
X125267Y317355D03*
Y313179D03*
Y309003D03*
X123179Y315267D03*
Y311091D03*
X121091Y317355D03*
Y313179D03*
Y309003D03*
X509500Y316955D03*
Y312779D03*
Y308603D03*
X507412Y314867D03*
Y310691D03*
X517851Y316955D03*
Y312779D03*
Y308603D03*
X515763Y314867D03*
Y310691D03*
X513676Y316955D03*
Y312779D03*
Y308603D03*
X511588Y314867D03*
Y310691D03*
X528291Y314867D03*
Y310691D03*
X526203Y316955D03*
Y312779D03*
Y308603D03*
X524115Y314867D03*
Y310691D03*
X522027Y316955D03*
Y312779D03*
Y308603D03*
X519939Y314867D03*
Y310691D03*
X530379Y316955D03*
Y312779D03*
Y308603D03*
X106476Y319443D03*
X102300D03*
X119003D03*
X114827D03*
X110652D03*
X125267Y321531D03*
X123179Y319443D03*
X121091Y321531D03*
X509500Y321131D03*
X507412Y323219D03*
Y319043D03*
X517851Y321131D03*
X515763Y319043D03*
X513676Y321131D03*
X511588Y319043D03*
X528291D03*
X524115D03*
X519939D03*
X507412Y348274D03*
X108564Y354938D03*
X106476Y357025D03*
Y352850D03*
X104388Y354938D03*
X102300Y357025D03*
Y352850D03*
X119003Y357025D03*
Y352850D03*
X116915Y354938D03*
X114827Y357025D03*
Y352850D03*
X112740Y354938D03*
X110652Y357025D03*
Y352850D03*
X125267Y354938D03*
Y350762D03*
X123179Y357025D03*
Y352850D03*
X121091Y354938D03*
Y350762D03*
X509500Y354538D03*
Y350362D03*
X507412Y356625D03*
Y352450D03*
X517851Y354538D03*
X515763Y356625D03*
X513676Y354538D03*
X511588Y356625D03*
Y352450D03*
X528291Y356625D03*
X526203Y354538D03*
X524115Y356625D03*
X522027Y354538D03*
X519939Y356625D03*
X530379Y354538D03*
X108564Y367465D03*
Y363289D03*
Y359113D03*
X106476Y365377D03*
Y361201D03*
X104388Y367465D03*
Y363289D03*
Y359113D03*
X102300Y365377D03*
Y361201D03*
X119003Y365377D03*
Y361201D03*
X116915Y367465D03*
Y363289D03*
Y359113D03*
X114827Y365377D03*
Y361201D03*
X112740Y367465D03*
Y363289D03*
Y359113D03*
X110652Y365377D03*
Y361201D03*
X125267Y367465D03*
Y363289D03*
Y359113D03*
X123179Y365377D03*
Y361201D03*
X121091Y367465D03*
Y363289D03*
Y359113D03*
X509500Y367065D03*
Y362889D03*
Y358713D03*
X507412Y364977D03*
Y360801D03*
X517851Y367065D03*
Y362889D03*
Y358713D03*
X515763Y364977D03*
Y360801D03*
X513676Y367065D03*
Y362889D03*
Y358713D03*
X511588Y364977D03*
Y360801D03*
X528291Y364977D03*
Y360801D03*
X526203Y367065D03*
Y362889D03*
Y358713D03*
X524115Y364977D03*
Y360801D03*
X522027Y367065D03*
Y362889D03*
Y358713D03*
X519939Y364977D03*
Y360801D03*
X530379Y367065D03*
Y362889D03*
Y358713D03*
X108564Y375817D03*
Y371641D03*
X106476Y377905D03*
Y373729D03*
Y369553D03*
X104388Y375817D03*
Y371641D03*
X102300Y377905D03*
Y373729D03*
Y369553D03*
X119003Y377905D03*
Y373729D03*
Y369553D03*
X116915Y375817D03*
Y371641D03*
X114827Y377905D03*
Y373729D03*
Y369553D03*
X112740Y375817D03*
Y371641D03*
X110652Y377905D03*
Y373729D03*
Y369553D03*
X125267Y375817D03*
Y371641D03*
X123179Y377905D03*
Y373729D03*
Y369553D03*
X121091Y375817D03*
Y371641D03*
X509500Y375417D03*
Y371241D03*
X507412Y377505D03*
Y373329D03*
Y369153D03*
X517851Y375417D03*
Y371241D03*
X515763Y377505D03*
Y373329D03*
Y369153D03*
X513676Y375417D03*
Y371241D03*
X511588Y377505D03*
Y373329D03*
Y369153D03*
X528291Y377505D03*
Y373329D03*
Y369153D03*
X526203Y375417D03*
Y371241D03*
X524115Y377505D03*
Y373329D03*
Y369153D03*
X522027Y375417D03*
Y371241D03*
X519939Y377505D03*
Y373329D03*
Y369153D03*
X530379Y375417D03*
Y371241D03*
X125267Y379992D03*
X121091D03*
X116915D03*
X112740D03*
X108564D03*
X104388D03*
X530379Y379592D03*
X526203D03*
X522027D03*
X517851D03*
X513676D03*
X509500D03*
X125267Y442630D03*
Y438454D03*
Y434278D03*
Y430102D03*
Y425927D03*
Y421751D03*
Y417575D03*
Y413399D03*
Y409223D03*
Y405047D03*
Y400872D03*
Y396696D03*
Y392520D03*
Y388344D03*
Y384168D03*
X123179Y440542D03*
Y436366D03*
Y432190D03*
Y428014D03*
Y423839D03*
Y419663D03*
Y415487D03*
Y411311D03*
Y407135D03*
Y402960D03*
Y390432D03*
Y386256D03*
Y382080D03*
X121091Y442630D03*
Y438454D03*
Y434278D03*
Y430102D03*
Y425927D03*
Y421751D03*
Y417575D03*
Y413399D03*
Y409223D03*
Y405047D03*
Y388344D03*
Y384168D03*
X119003Y440542D03*
Y436366D03*
Y432190D03*
Y428014D03*
Y423839D03*
Y419663D03*
Y415487D03*
Y411311D03*
Y407135D03*
Y386256D03*
Y382080D03*
X116915Y442630D03*
Y438454D03*
Y434278D03*
Y430102D03*
Y425927D03*
Y421751D03*
Y417575D03*
Y413399D03*
Y409223D03*
Y384168D03*
X114827Y440542D03*
Y436366D03*
Y432190D03*
Y428014D03*
Y423839D03*
Y419663D03*
Y415487D03*
Y411311D03*
Y407135D03*
Y382080D03*
X112740Y442630D03*
Y438454D03*
Y434278D03*
Y430102D03*
Y425927D03*
Y421751D03*
Y417575D03*
Y413399D03*
Y409223D03*
Y384168D03*
X110652Y440542D03*
Y436366D03*
Y432190D03*
Y428014D03*
Y423839D03*
Y419663D03*
Y415487D03*
Y411311D03*
Y407135D03*
Y382080D03*
X108564Y442630D03*
Y438454D03*
Y434278D03*
Y430102D03*
Y425927D03*
Y421751D03*
Y417575D03*
Y413399D03*
Y409223D03*
Y405047D03*
Y384168D03*
X106476Y440542D03*
Y436366D03*
Y432190D03*
Y428014D03*
Y423839D03*
Y419663D03*
Y415487D03*
Y411311D03*
Y407135D03*
Y402960D03*
Y386256D03*
Y382080D03*
X104388Y442630D03*
Y438454D03*
Y434278D03*
Y430102D03*
Y425927D03*
Y421751D03*
Y417575D03*
Y413399D03*
Y409223D03*
Y405047D03*
Y400872D03*
Y388344D03*
Y384168D03*
X102300Y440542D03*
Y436366D03*
Y432190D03*
Y428014D03*
Y423839D03*
Y419663D03*
Y415487D03*
Y411311D03*
Y407135D03*
Y402960D03*
Y398784D03*
Y394608D03*
Y390432D03*
Y386256D03*
Y382080D03*
X530379Y442230D03*
Y438054D03*
Y433878D03*
Y429702D03*
Y425527D03*
Y421351D03*
Y417175D03*
Y412999D03*
Y408823D03*
Y404647D03*
Y400472D03*
Y396296D03*
Y392120D03*
Y387944D03*
Y383768D03*
X528291Y444318D03*
Y440142D03*
Y435966D03*
Y431790D03*
Y427614D03*
Y423439D03*
Y419263D03*
Y415087D03*
Y410911D03*
Y406735D03*
Y402560D03*
Y390032D03*
Y385856D03*
Y381680D03*
X526203Y442230D03*
Y438054D03*
Y433878D03*
Y429702D03*
Y425527D03*
Y421351D03*
Y417175D03*
Y412999D03*
Y408823D03*
Y404647D03*
Y387944D03*
Y383768D03*
X524115Y444318D03*
Y440142D03*
Y435966D03*
Y431790D03*
Y427614D03*
Y423439D03*
Y419263D03*
Y415087D03*
Y410911D03*
Y406735D03*
Y385856D03*
Y381680D03*
X522027Y442230D03*
Y438054D03*
Y433878D03*
Y429702D03*
Y425527D03*
Y421351D03*
Y417175D03*
Y412999D03*
Y408823D03*
Y383768D03*
X519939Y444318D03*
Y440142D03*
Y435966D03*
Y431790D03*
Y427614D03*
Y423439D03*
Y419263D03*
Y415087D03*
Y410911D03*
Y406735D03*
Y381680D03*
X517851Y442230D03*
Y438054D03*
Y433878D03*
Y429702D03*
Y425527D03*
Y421351D03*
Y417175D03*
Y412999D03*
Y408823D03*
Y383768D03*
X515763Y444318D03*
Y440142D03*
Y435966D03*
Y431790D03*
Y427614D03*
Y423439D03*
Y419263D03*
Y415087D03*
Y410911D03*
Y406735D03*
Y381680D03*
X513676Y442230D03*
Y438054D03*
Y433878D03*
Y429702D03*
Y425527D03*
Y421351D03*
Y417175D03*
Y412999D03*
Y408823D03*
Y404647D03*
Y383768D03*
X511588Y444318D03*
Y440142D03*
Y435966D03*
Y431790D03*
Y427614D03*
Y423439D03*
Y419263D03*
Y415087D03*
Y410911D03*
Y406735D03*
Y402560D03*
Y385856D03*
Y381680D03*
X509500Y442230D03*
Y438054D03*
Y433878D03*
Y429702D03*
Y425527D03*
Y421351D03*
Y417175D03*
Y412999D03*
Y408823D03*
Y404647D03*
Y400472D03*
Y387944D03*
Y383768D03*
X507412Y444318D03*
Y440142D03*
Y435966D03*
Y431790D03*
Y427614D03*
Y423439D03*
Y419263D03*
Y415087D03*
Y410911D03*
Y406735D03*
Y402560D03*
Y398384D03*
Y394208D03*
Y390032D03*
Y385856D03*
Y381680D03*
G74*
X0Y0D02*
M02*
