*
*
G04 PADS 9.5 Build Number: 522968 generated Gerber (RS-274-X) file*
G04 PC Version=2.1*
*
%IN "fakeSCROD.pcb"*%
*
%MOIN*%
*
%FSLAX35Y35*%
*
*
*
*
G04 PC Standard Apertures*
*
*
G04 Thermal Relief Aperture macro.*
%AMTER*
1,1,$1,0,0*
1,0,$1-$2,0,0*
21,0,$3,$4,0,0,45*
21,0,$3,$4,0,0,135*
%
*
*
G04 Annular Aperture macro.*
%AMANN*
1,1,$1,0,0*
1,0,$2,0,0*
%
*
*
G04 Odd Aperture macro.*
%AMODD*
1,1,$1,0,0*
1,0,$1-0.005,0,0*
%
*
*
G04 PC Custom Aperture Macros*
*
*
*
*
*
*
G04 PC Aperture Table*
*
%ADD010C,0.001*%
%ADD013C,0.01*%
%ADD041C,0.02362*%
%ADD088R,0.06299X0.05906*%
%ADD089R,0.01378X0.06693*%
%ADD090O,0.01378X0.06693*%
%ADD091R,0.06693X0.01378*%
%ADD092O,0.06693X0.01378*%
%ADD261R,0.059X0.085*%
%ADD265R,0.00984X0.02953*%
*
*
*
*
G04 PC Circuitry*
G04 Layer Name fakeSCROD.pcb - circuitry*
%LPD*%
*
*
G04 PC Custom Flashes*
G04 Layer Name fakeSCROD.pcb - flashes*
%LPD*%
*
*
G04 PC Circuitry*
G04 Layer Name fakeSCROD.pcb - circuitry*
%LPD*%
*
G54D10*
G54D13*
G01X446736Y379345D02*
Y380931D01*
X446943Y381138*
X451529*
X451736Y380931*
Y379345*
X451529Y379138*
X446943*
X446736Y379345*
Y380000D02*
X451736D01*
X446806Y381000D02*
X451667D01*
X447000Y379138D02*
Y381138D01*
X448000Y379138D02*
Y381138D01*
X449000Y379138D02*
Y381138D01*
X450000Y379138D02*
Y381138D01*
X451000Y379138D02*
Y381138D01*
X446736Y374345D02*
Y375931D01*
X446943Y376138*
X451529*
X451736Y375931*
Y374345*
X451529Y374138*
X446943*
X446736Y374345*
Y375000D02*
X451736D01*
X446806Y376000D02*
X451667D01*
X447000Y374138D02*
Y376138D01*
X448000Y374138D02*
Y376138D01*
X449000Y374138D02*
Y376138D01*
X450000Y374138D02*
Y376138D01*
X451000Y374138D02*
Y376138D01*
X446736Y369345D02*
Y370931D01*
X446943Y371138*
X451529*
X451736Y370931*
Y369345*
X451529Y369138*
X446943*
X446736Y369345*
Y370000D02*
X451736D01*
X446806Y371000D02*
X451667D01*
X447000Y369138D02*
Y371138D01*
X448000Y369138D02*
Y371138D01*
X449000Y369138D02*
Y371138D01*
X450000Y369138D02*
Y371138D01*
X451000Y369138D02*
Y371138D01*
X446736Y364345D02*
Y365931D01*
X446943Y366138*
X451529*
X451736Y365931*
Y364345*
X451529Y364138*
X446943*
X446736Y364345*
Y365000D02*
X451736D01*
X446806Y366000D02*
X451667D01*
X447000Y364138D02*
Y366138D01*
X448000Y364138D02*
Y366138D01*
X449000Y364138D02*
Y366138D01*
X450000Y364138D02*
Y366138D01*
X451000Y364138D02*
Y366138D01*
X468736Y364345D02*
Y365931D01*
X468943Y366138*
X473529*
X473736Y365931*
Y364345*
X473529Y364138*
X468943*
X468736Y364345*
Y365000D02*
X473736D01*
X468806Y366000D02*
X473667D01*
X469000Y364138D02*
Y366138D01*
X470000Y364138D02*
Y366138D01*
X471000Y364138D02*
Y366138D01*
X472000Y364138D02*
Y366138D01*
X473000Y364138D02*
Y366138D01*
X468736Y369345D02*
Y370931D01*
X468943Y371138*
X473529*
X473736Y370931*
Y369345*
X473529Y369138*
X468943*
X468736Y369345*
Y370000D02*
X473736D01*
X468806Y371000D02*
X473667D01*
X469000Y369138D02*
Y371138D01*
X470000Y369138D02*
Y371138D01*
X471000Y369138D02*
Y371138D01*
X472000Y369138D02*
Y371138D01*
X473000Y369138D02*
Y371138D01*
X468736Y374345D02*
Y375931D01*
X468943Y376138*
X473529*
X473736Y375931*
Y374345*
X473529Y374138*
X468943*
X468736Y374345*
Y375000D02*
X473736D01*
X468806Y376000D02*
X473667D01*
X469000Y374138D02*
Y376138D01*
X470000Y374138D02*
Y376138D01*
X471000Y374138D02*
Y376138D01*
X472000Y374138D02*
Y376138D01*
X473000Y374138D02*
Y376138D01*
X468736Y379345D02*
Y380931D01*
X468943Y381138*
X473529*
X473736Y380931*
Y379345*
X473529Y379138*
X468943*
X468736Y379345*
Y380000D02*
X473736D01*
X468806Y381000D02*
X473667D01*
X469000Y379138D02*
Y381138D01*
X470000Y379138D02*
Y381138D01*
X471000Y379138D02*
Y381138D01*
X472000Y379138D02*
Y381138D01*
X473000Y379138D02*
Y381138D01*
X335516Y378361D02*
Y379946D01*
X335723Y380154*
X340309*
X340516Y379946*
Y378361*
X340309Y378154*
X335723*
X335516Y378361*
Y379000D02*
X340516D01*
X335569Y380000D02*
X340462D01*
X336000Y378154D02*
Y380154D01*
X337000Y378154D02*
Y380154D01*
X338000Y378154D02*
Y380154D01*
X339000Y378154D02*
Y380154D01*
X340000Y378154D02*
Y380154D01*
X335516Y373361D02*
Y374946D01*
X335723Y375154*
X340309*
X340516Y374946*
Y373361*
X340309Y373154*
X335723*
X335516Y373361*
Y374000D02*
X340516D01*
X335569Y375000D02*
X340462D01*
X336000Y373154D02*
Y375154D01*
X337000Y373154D02*
Y375154D01*
X338000Y373154D02*
Y375154D01*
X339000Y373154D02*
Y375154D01*
X340000Y373154D02*
Y375154D01*
X335516Y368361D02*
Y369946D01*
X335723Y370154*
X340309*
X340516Y369946*
Y368361*
X340309Y368154*
X335723*
X335516Y368361*
Y369000D02*
X340516D01*
X335569Y370000D02*
X340462D01*
X336000Y368154D02*
Y370154D01*
X337000Y368154D02*
Y370154D01*
X338000Y368154D02*
Y370154D01*
X339000Y368154D02*
Y370154D01*
X340000Y368154D02*
Y370154D01*
X335516Y363361D02*
Y364946D01*
X335723Y365154*
X340309*
X340516Y364946*
Y363361*
X340309Y363154*
X335723*
X335516Y363361*
Y364000D02*
X340516D01*
X335569Y365000D02*
X340462D01*
X336000Y363154D02*
Y365154D01*
X337000Y363154D02*
Y365154D01*
X338000Y363154D02*
Y365154D01*
X339000Y363154D02*
Y365154D01*
X340000Y363154D02*
Y365154D01*
X357516Y363361D02*
Y364946D01*
X357723Y365154*
X362309*
X362516Y364946*
Y363361*
X362309Y363154*
X357723*
X357516Y363361*
Y364000D02*
X362516D01*
X357569Y365000D02*
X362462D01*
X358000Y363154D02*
Y365154D01*
X359000Y363154D02*
Y365154D01*
X360000Y363154D02*
Y365154D01*
X361000Y363154D02*
Y365154D01*
X362000Y363154D02*
Y365154D01*
X357516Y368361D02*
Y369946D01*
X357723Y370154*
X362309*
X362516Y369946*
Y368361*
X362309Y368154*
X357723*
X357516Y368361*
Y369000D02*
X362516D01*
X357569Y370000D02*
X362462D01*
X358000Y368154D02*
Y370154D01*
X359000Y368154D02*
Y370154D01*
X360000Y368154D02*
Y370154D01*
X361000Y368154D02*
Y370154D01*
X362000Y368154D02*
Y370154D01*
X357516Y373361D02*
Y374946D01*
X357723Y375154*
X362309*
X362516Y374946*
Y373361*
X362309Y373154*
X357723*
X357516Y373361*
Y374000D02*
X362516D01*
X357569Y375000D02*
X362462D01*
X358000Y373154D02*
Y375154D01*
X359000Y373154D02*
Y375154D01*
X360000Y373154D02*
Y375154D01*
X361000Y373154D02*
Y375154D01*
X362000Y373154D02*
Y375154D01*
X357516Y378361D02*
Y379946D01*
X357723Y380154*
X362309*
X362516Y379946*
Y378361*
X362309Y378154*
X357723*
X357516Y378361*
Y379000D02*
X362516D01*
X357569Y380000D02*
X362462D01*
X358000Y378154D02*
Y380154D01*
X359000Y378154D02*
Y380154D01*
X360000Y378154D02*
Y380154D01*
X361000Y378154D02*
Y380154D01*
X362000Y378154D02*
Y380154D01*
X370949Y378361D02*
Y379946D01*
X371156Y380154*
X375742*
X375949Y379946*
Y378361*
X375742Y378154*
X371156*
X370949Y378361*
Y379000D02*
X375949D01*
X371002Y380000D02*
X375895D01*
X371000Y378309D02*
Y379998D01*
X372000Y378154D02*
Y380154D01*
X373000Y378154D02*
Y380154D01*
X374000Y378154D02*
Y380154D01*
X375000Y378154D02*
Y380154D01*
X370949Y373361D02*
Y374946D01*
X371156Y375154*
X375742*
X375949Y374946*
Y373361*
X375742Y373154*
X371156*
X370949Y373361*
Y374000D02*
X375949D01*
X371002Y375000D02*
X375895D01*
X371000Y373309D02*
Y374998D01*
X372000Y373154D02*
Y375154D01*
X373000Y373154D02*
Y375154D01*
X374000Y373154D02*
Y375154D01*
X375000Y373154D02*
Y375154D01*
X370949Y368361D02*
Y369946D01*
X371156Y370154*
X375742*
X375949Y369946*
Y368361*
X375742Y368154*
X371156*
X370949Y368361*
Y369000D02*
X375949D01*
X371002Y370000D02*
X375895D01*
X371000Y368309D02*
Y369998D01*
X372000Y368154D02*
Y370154D01*
X373000Y368154D02*
Y370154D01*
X374000Y368154D02*
Y370154D01*
X375000Y368154D02*
Y370154D01*
X370949Y363361D02*
Y364946D01*
X371156Y365154*
X375742*
X375949Y364946*
Y363361*
X375742Y363154*
X371156*
X370949Y363361*
Y364000D02*
X375949D01*
X371002Y365000D02*
X375895D01*
X371000Y363309D02*
Y364998D01*
X372000Y363154D02*
Y365154D01*
X373000Y363154D02*
Y365154D01*
X374000Y363154D02*
Y365154D01*
X375000Y363154D02*
Y365154D01*
X392949Y363361D02*
Y364946D01*
X393156Y365154*
X397742*
X397949Y364946*
Y363361*
X397742Y363154*
X393156*
X392949Y363361*
Y364000D02*
X397949D01*
X393002Y365000D02*
X397895D01*
X393000Y363309D02*
Y364998D01*
X394000Y363154D02*
Y365154D01*
X395000Y363154D02*
Y365154D01*
X396000Y363154D02*
Y365154D01*
X397000Y363154D02*
Y365154D01*
X392949Y368361D02*
Y369946D01*
X393156Y370154*
X397742*
X397949Y369946*
Y368361*
X397742Y368154*
X393156*
X392949Y368361*
Y369000D02*
X397949D01*
X393002Y370000D02*
X397895D01*
X393000Y368309D02*
Y369998D01*
X394000Y368154D02*
Y370154D01*
X395000Y368154D02*
Y370154D01*
X396000Y368154D02*
Y370154D01*
X397000Y368154D02*
Y370154D01*
X392949Y373361D02*
Y374946D01*
X393156Y375154*
X397742*
X397949Y374946*
Y373361*
X397742Y373154*
X393156*
X392949Y373361*
Y374000D02*
X397949D01*
X393002Y375000D02*
X397895D01*
X393000Y373309D02*
Y374998D01*
X394000Y373154D02*
Y375154D01*
X395000Y373154D02*
Y375154D01*
X396000Y373154D02*
Y375154D01*
X397000Y373154D02*
Y375154D01*
X392949Y378361D02*
Y379946D01*
X393156Y380154*
X397742*
X397949Y379946*
Y378361*
X397742Y378154*
X393156*
X392949Y378361*
Y379000D02*
X397949D01*
X393002Y380000D02*
X397895D01*
X393000Y378309D02*
Y379998D01*
X394000Y378154D02*
Y380154D01*
X395000Y378154D02*
Y380154D01*
X396000Y378154D02*
Y380154D01*
X397000Y378154D02*
Y380154D01*
X340437Y335054D02*
Y336639D01*
X340644Y336846*
X345230*
X345437Y336639*
Y335054*
X345230Y334846*
X340644*
X340437Y335054*
X340491Y335000D02*
X345383D01*
X340437Y336000D02*
X345437D01*
X341000Y334846D02*
Y336846D01*
X342000Y334846D02*
Y336846D01*
X343000Y334846D02*
Y336846D01*
X344000Y334846D02*
Y336846D01*
X345000Y334846D02*
Y336846D01*
X340437Y330054D02*
Y331639D01*
X340644Y331846*
X345230*
X345437Y331639*
Y330054*
X345230Y329846*
X340644*
X340437Y330054*
X340491Y330000D02*
X345383D01*
X340437Y331000D02*
X345437D01*
X341000Y329846D02*
Y331846D01*
X342000Y329846D02*
Y331846D01*
X343000Y329846D02*
Y331846D01*
X344000Y329846D02*
Y331846D01*
X345000Y329846D02*
Y331846D01*
X340437Y325054D02*
Y326639D01*
X340644Y326846*
X345230*
X345437Y326639*
Y325054*
X345230Y324846*
X340644*
X340437Y325054*
X340491Y325000D02*
X345383D01*
X340437Y326000D02*
X345437D01*
X341000Y324846D02*
Y326846D01*
X342000Y324846D02*
Y326846D01*
X343000Y324846D02*
Y326846D01*
X344000Y324846D02*
Y326846D01*
X345000Y324846D02*
Y326846D01*
X340437Y320054D02*
Y321639D01*
X340644Y321846*
X345230*
X345437Y321639*
Y320054*
X345230Y319846*
X340644*
X340437Y320054*
X340491Y320000D02*
X345383D01*
X340437Y321000D02*
X345437D01*
X341000Y319846D02*
Y321846D01*
X342000Y319846D02*
Y321846D01*
X343000Y319846D02*
Y321846D01*
X344000Y319846D02*
Y321846D01*
X345000Y319846D02*
Y321846D01*
X362437Y320054D02*
Y321639D01*
X362644Y321846*
X367230*
X367437Y321639*
Y320054*
X367230Y319846*
X362644*
X362437Y320054*
X362491Y320000D02*
X367383D01*
X362437Y321000D02*
X367437D01*
X363000Y319846D02*
Y321846D01*
X364000Y319846D02*
Y321846D01*
X365000Y319846D02*
Y321846D01*
X366000Y319846D02*
Y321846D01*
X367000Y319846D02*
Y321846D01*
X362437Y325054D02*
Y326639D01*
X362644Y326846*
X367230*
X367437Y326639*
Y325054*
X367230Y324846*
X362644*
X362437Y325054*
X362491Y325000D02*
X367383D01*
X362437Y326000D02*
X367437D01*
X363000Y324846D02*
Y326846D01*
X364000Y324846D02*
Y326846D01*
X365000Y324846D02*
Y326846D01*
X366000Y324846D02*
Y326846D01*
X367000Y324846D02*
Y326846D01*
X362437Y330054D02*
Y331639D01*
X362644Y331846*
X367230*
X367437Y331639*
Y330054*
X367230Y329846*
X362644*
X362437Y330054*
X362491Y330000D02*
X367383D01*
X362437Y331000D02*
X367437D01*
X363000Y329846D02*
Y331846D01*
X364000Y329846D02*
Y331846D01*
X365000Y329846D02*
Y331846D01*
X366000Y329846D02*
Y331846D01*
X367000Y329846D02*
Y331846D01*
X362437Y335054D02*
Y336639D01*
X362644Y336846*
X367230*
X367437Y336639*
Y335054*
X367230Y334846*
X362644*
X362437Y335054*
X362491Y335000D02*
X367383D01*
X362437Y336000D02*
X367437D01*
X363000Y334846D02*
Y336846D01*
X364000Y334846D02*
Y336846D01*
X365000Y334846D02*
Y336846D01*
X366000Y334846D02*
Y336846D01*
X367000Y334846D02*
Y336846D01*
X100000Y100000D02*
X117717D01*
X125591Y92126D02*
G75*
G03X117717Y100000I-7874J-0D01*
G01X125591Y92126D02*
Y48819D01*
G03X133465Y40945I7874J-0*
G01X186614*
G03X194488Y48819I0J7874*
G01Y92126*
X202362Y100000D02*
G03X194488Y92126I0J-7874D01*
G01X202362Y100000D02*
X430709D01*
X438583Y92126D02*
G03X430709Y100000I-7874J-0D01*
G01X438583Y92126D02*
Y48819D01*
G03X446457Y40945I7874J-0*
G01X499606*
G03X507480Y48819I0J7874*
G01Y92126*
X515354Y100000D02*
G03X507480Y92126I0J-7874D01*
G01X515354Y100000D02*
X533071D01*
Y205315*
X519291*
Y232874D02*
G03Y205315I0J-13780D01*
G01Y232874D02*
X533071D01*
Y323425*
X519291*
Y350984D02*
G03Y323425I0J-13779D01*
G01Y350984D02*
X533071D01*
Y446457*
G03X525197Y454331I-7874J-0*
G01X107874*
G03X100000Y446457I0J-7874*
G01Y350000*
X113780*
Y322441D02*
G03Y350000I-0J13779D01*
G01Y322441D02*
X100000D01*
Y231890*
X113780*
Y204331D02*
G03Y231890I-0J13779D01*
G01Y204331D02*
X100000D01*
Y100000*
X149213Y235827D02*
X170866D01*
Y201181*
X149213*
Y235827*
X461220D02*
X484843D01*
Y201181*
X461220*
Y235827*
X132480Y291929D02*
X187598D01*
Y266339*
X132480*
Y291929*
X445472Y266929D02*
X500591D01*
Y291929*
X445472*
Y266929*
G54D41*
X316535Y121630D03*
X313752Y124413D03*
X310968Y127197D03*
X308184Y129981D03*
X305400Y132765D03*
X302616Y135549D03*
X299832Y138333D03*
X297048Y141117D03*
X294264Y143901D03*
X291480Y146685D03*
X288697Y149468D03*
X285913Y152252D03*
X283129Y155036D03*
X280345Y157820D03*
X277561Y160604D03*
X274777Y163388D03*
X271993Y166172D03*
X269209Y168956D03*
X266426Y171739D03*
X263642Y174523D03*
X260858Y177307D03*
X258074Y180091D03*
X255290Y182875D03*
X252506Y185659D03*
X249722Y188443D03*
X246938Y191227D03*
X244154Y194011D03*
X241371Y196794D03*
X238587Y199578D03*
X235803Y202362D03*
X319319Y124413D03*
X316535Y127197D03*
X313752Y129981D03*
X310968Y132765D03*
X308184Y135549D03*
X305400Y138333D03*
X302616Y141117D03*
X299832Y143901D03*
X297048Y146685D03*
X294264Y149468D03*
X291480Y152252D03*
X288697Y155036D03*
X285913Y157820D03*
X283129Y160604D03*
X280345Y163388D03*
X277561Y166172D03*
X274777Y168956D03*
X271993Y171739D03*
X269209Y174523D03*
X266426Y177307D03*
X263642Y180091D03*
X260858Y182875D03*
X258074Y185659D03*
X255290Y188443D03*
X252506Y191227D03*
X249722Y194011D03*
X246938Y196794D03*
X244154Y199578D03*
X241371Y202362D03*
X238587Y205146D03*
X322103Y127197D03*
X319319Y129981D03*
X316535Y132765D03*
X313752Y135549D03*
X310968Y138333D03*
X308184Y141117D03*
X305400Y143901D03*
X302616Y146685D03*
X299832Y149468D03*
X297048Y152252D03*
X294264Y155036D03*
X291480Y157820D03*
X288697Y160604D03*
X285913Y163388D03*
X283129Y166172D03*
X280345Y168956D03*
X277561Y171739D03*
X274777Y174523D03*
X271993Y177307D03*
X269209Y180091D03*
X266426Y182875D03*
X263642Y185659D03*
X260858Y188443D03*
X258074Y191227D03*
X255290Y194011D03*
X252506Y196794D03*
X249722Y199578D03*
X246938Y202362D03*
X244154Y205146D03*
X241371Y207930D03*
X324887Y129981D03*
X322103Y132765D03*
X319319Y135549D03*
X316535Y138333D03*
X313752Y141117D03*
X310968Y143901D03*
X308184Y146685D03*
X305400Y149468D03*
X302616Y152252D03*
X299832Y155036D03*
X297048Y157820D03*
X294264Y160604D03*
X291480Y163388D03*
X288697Y166172D03*
X285913Y168956D03*
X283129Y171739D03*
X280345Y174523D03*
X277561Y177307D03*
X274777Y180091D03*
X271993Y182875D03*
X269209Y185659D03*
X266426Y188443D03*
X263642Y191227D03*
X260858Y194011D03*
X258074Y196794D03*
X255290Y199578D03*
X252506Y202362D03*
X249722Y205146D03*
X246938Y207930D03*
X244154Y210714D03*
X327671Y132765D03*
X324887Y135549D03*
X322103Y138333D03*
X319319Y141117D03*
X316535Y143901D03*
X313752Y146685D03*
X310968Y149468D03*
X308184Y152252D03*
X305400Y155036D03*
X302616Y157820D03*
X299832Y160604D03*
X297048Y163388D03*
X294264Y166172D03*
X291480Y168956D03*
X288697Y171739D03*
X285913Y174523D03*
X283129Y177307D03*
X280345Y180091D03*
X277561Y182875D03*
X274777Y185659D03*
X271993Y188443D03*
X269209Y191227D03*
X266426Y194011D03*
X263642Y196794D03*
X260858Y199578D03*
X258074Y202362D03*
X255290Y205146D03*
X252506Y207930D03*
X249722Y210714D03*
X246938Y213498D03*
X330455Y135549D03*
X327671Y138333D03*
X324887Y141117D03*
X322103Y143901D03*
X319319Y146685D03*
X316535Y149468D03*
X313752Y152252D03*
X310968Y155036D03*
X308184Y157820D03*
X305400Y160604D03*
X302616Y163388D03*
X299832Y166172D03*
X297048Y168956D03*
X294264Y171739D03*
X291480Y174523D03*
X288697Y177307D03*
X285913Y180091D03*
X283129Y182875D03*
X280345Y185659D03*
X277561Y188443D03*
X274777Y191227D03*
X271993Y194011D03*
X269209Y196794D03*
X266426Y199578D03*
X263642Y202362D03*
X260858Y205146D03*
X258074Y207930D03*
X255290Y210714D03*
X252506Y213498D03*
X249722Y216282D03*
X333239Y138333D03*
X330455Y141117D03*
X327671Y143901D03*
X324887Y146685D03*
X322103Y149468D03*
X319319Y152252D03*
X316535Y155036D03*
X313752Y157820D03*
X310968Y160604D03*
X308184Y163388D03*
X305400Y166172D03*
X302616Y168956D03*
X299832Y171739D03*
X297048Y174523D03*
X294264Y177307D03*
X291480Y180091D03*
X288697Y182875D03*
X285913Y185659D03*
X283129Y188443D03*
X280345Y191227D03*
X277561Y194011D03*
X274777Y196794D03*
X271993Y199578D03*
X269209Y202362D03*
X266426Y205146D03*
X263642Y207930D03*
X260858Y210714D03*
X258074Y213498D03*
X255290Y216282D03*
X252506Y219066D03*
X336023Y141117D03*
X333239Y143901D03*
X330455Y146685D03*
X327671Y149468D03*
X324887Y152252D03*
X322103Y155036D03*
X319319Y157820D03*
X316535Y160604D03*
X313752Y163388D03*
X310968Y166172D03*
X308184Y168956D03*
X305400Y171739D03*
X302616Y174523D03*
X299832Y177307D03*
X297048Y180091D03*
X294264Y182875D03*
X291480Y185659D03*
X288697Y188443D03*
X285913Y191227D03*
X283129Y194011D03*
X280345Y196794D03*
X277561Y199578D03*
X274777Y202362D03*
X271993Y205146D03*
X269209Y207930D03*
X266426Y210714D03*
X263642Y213498D03*
X260858Y216282D03*
X258074Y219066D03*
X255290Y221849D03*
X338807Y143901D03*
X336023Y146685D03*
X333239Y149468D03*
X330455Y152252D03*
X327671Y155036D03*
X324887Y157820D03*
X322103Y160604D03*
X319319Y163388D03*
X316535Y166172D03*
X313752Y168956D03*
X310968Y171739D03*
X308184Y174523D03*
X305400Y177307D03*
X302616Y180091D03*
X299832Y182875D03*
X297048Y185659D03*
X294264Y188443D03*
X291480Y191227D03*
X288697Y194011D03*
X285913Y196794D03*
X283129Y199578D03*
X280345Y202362D03*
X277561Y205146D03*
X274777Y207930D03*
X271993Y210714D03*
X269209Y213498D03*
X266426Y216282D03*
X263642Y219066D03*
X260858Y221849D03*
X258074Y224633D03*
X341590Y146685D03*
X338807Y149468D03*
X336023Y152252D03*
X333239Y155036D03*
X330455Y157820D03*
X327671Y160604D03*
X324887Y163388D03*
X322103Y166172D03*
X319319Y168956D03*
X316535Y171739D03*
X313752Y174523D03*
X310968Y177307D03*
X308184Y180091D03*
X305400Y182875D03*
X302616Y185659D03*
X299832Y188443D03*
X297048Y191227D03*
X294264Y194011D03*
X291480Y196794D03*
X288697Y199578D03*
X285913Y202362D03*
X283129Y205146D03*
X280345Y207930D03*
X277561Y210714D03*
X274777Y213498D03*
X271993Y216282D03*
X269209Y219066D03*
X266426Y221849D03*
X263642Y224633D03*
X260858Y227417D03*
X344374Y149468D03*
X341590Y152252D03*
X338807Y155036D03*
X336023Y157820D03*
X333239Y160604D03*
X330455Y163388D03*
X327671Y166172D03*
X324887Y168956D03*
X322103Y171739D03*
X319319Y174523D03*
X316535Y177307D03*
X313752Y180091D03*
X310968Y182875D03*
X308184Y185659D03*
X305400Y188443D03*
X302616Y191227D03*
X299832Y194011D03*
X297048Y196794D03*
X294264Y199578D03*
X291480Y202362D03*
X288697Y205146D03*
X285913Y207930D03*
X283129Y210714D03*
X280345Y213498D03*
X277561Y216282D03*
X274777Y219066D03*
X271993Y221849D03*
X269209Y224633D03*
X266426Y227417D03*
X263642Y230201D03*
X347158Y152252D03*
X344374Y155036D03*
X341590Y157820D03*
X338807Y160604D03*
X336023Y163388D03*
X333239Y166172D03*
X330455Y168956D03*
X327671Y171739D03*
X324887Y174523D03*
X322103Y177307D03*
X319319Y180091D03*
X316535Y182875D03*
X313752Y185659D03*
X310968Y188443D03*
X308184Y191227D03*
X305400Y194011D03*
X302616Y196794D03*
X299832Y199578D03*
X297048Y202362D03*
X294264Y205146D03*
X291480Y207930D03*
X288697Y210714D03*
X285913Y213498D03*
X283129Y216282D03*
X280345Y219066D03*
X277561Y221849D03*
X274777Y224633D03*
X271993Y227417D03*
X269209Y230201D03*
X266426Y232985D03*
X349942Y155036D03*
X347158Y157820D03*
X344374Y160604D03*
X341590Y163388D03*
X338807Y166172D03*
X336023Y168956D03*
X333239Y171739D03*
X330455Y174523D03*
X327671Y177307D03*
X324887Y180091D03*
X322103Y182875D03*
X319319Y185659D03*
X316535Y188443D03*
X313752Y191227D03*
X310968Y194011D03*
X308184Y196794D03*
X305400Y199578D03*
X302616Y202362D03*
X299832Y205146D03*
X297048Y207930D03*
X294264Y210714D03*
X291480Y213498D03*
X288697Y216282D03*
X285913Y219066D03*
X283129Y221849D03*
X280345Y224633D03*
X277561Y227417D03*
X274777Y230201D03*
X271993Y232985D03*
X269209Y235769D03*
X352726Y157820D03*
X349942Y160604D03*
X347158Y163388D03*
X344374Y166172D03*
X341590Y168956D03*
X338807Y171739D03*
X336023Y174523D03*
X333239Y177307D03*
X330455Y180091D03*
X327671Y182875D03*
X324887Y185659D03*
X322103Y188443D03*
X319319Y191227D03*
X316535Y194011D03*
X313752Y196794D03*
X310968Y199578D03*
X308184Y202362D03*
X305400Y205146D03*
X302616Y207930D03*
X299832Y210714D03*
X297048Y213498D03*
X294264Y216282D03*
X291480Y219066D03*
X288697Y221849D03*
X285913Y224633D03*
X283129Y227417D03*
X280345Y230201D03*
X277561Y232985D03*
X274777Y235769D03*
X271993Y238553D03*
X355510Y160604D03*
X352726Y163388D03*
X349942Y166172D03*
X347158Y168956D03*
X344374Y171739D03*
X341590Y174523D03*
X338807Y177307D03*
X336023Y180091D03*
X333239Y182875D03*
X330455Y185659D03*
X327671Y188443D03*
X324887Y191227D03*
X322103Y194011D03*
X319319Y196794D03*
X316535Y199578D03*
X313752Y202362D03*
X310968Y205146D03*
X308184Y207930D03*
X305400Y210714D03*
X302616Y213498D03*
X299832Y216282D03*
X297048Y219066D03*
X294264Y221849D03*
X291480Y224633D03*
X288697Y227417D03*
X285913Y230201D03*
X283129Y232985D03*
X280345Y235769D03*
X277561Y238553D03*
X274777Y241337D03*
X358294Y163388D03*
X355510Y166172D03*
X352726Y168956D03*
X349942Y171739D03*
X347158Y174523D03*
X344374Y177307D03*
X341590Y180091D03*
X338807Y182875D03*
X336023Y185659D03*
X333239Y188443D03*
X330455Y191227D03*
X327671Y194011D03*
X324887Y196794D03*
X322103Y199578D03*
X319319Y202362D03*
X316535Y205146D03*
X313752Y207930D03*
X310968Y210714D03*
X308184Y213498D03*
X305400Y216282D03*
X302616Y219066D03*
X299832Y221849D03*
X297048Y224633D03*
X294264Y227417D03*
X291480Y230201D03*
X288697Y232985D03*
X285913Y235769D03*
X283129Y238553D03*
X280345Y241337D03*
X277561Y244120D03*
X361078Y166172D03*
X358294Y168956D03*
X355510Y171739D03*
X352726Y174523D03*
X349942Y177307D03*
X347158Y180091D03*
X344374Y182875D03*
X341590Y185659D03*
X338807Y188443D03*
X336023Y191227D03*
X333239Y194011D03*
X330455Y196794D03*
X327671Y199578D03*
X324887Y202362D03*
X322103Y205146D03*
X319319Y207930D03*
X316535Y210714D03*
X313752Y213498D03*
X310968Y216282D03*
X308184Y219066D03*
X305400Y221849D03*
X302616Y224633D03*
X299832Y227417D03*
X297048Y230201D03*
X294264Y232985D03*
X291480Y235769D03*
X288697Y238553D03*
X285913Y241337D03*
X283129Y244120D03*
X280345Y246904D03*
X363861Y168956D03*
X361078Y171739D03*
X358294Y174523D03*
X355510Y177307D03*
X352726Y180091D03*
X349942Y182875D03*
X347158Y185659D03*
X344374Y188443D03*
X341590Y191227D03*
X338807Y194011D03*
X336023Y196794D03*
X333239Y199578D03*
X330455Y202362D03*
X327671Y205146D03*
X324887Y207930D03*
X322103Y210714D03*
X319319Y213498D03*
X316535Y216282D03*
X313752Y219066D03*
X310968Y221849D03*
X308184Y224633D03*
X305400Y227417D03*
X302616Y230201D03*
X299832Y232985D03*
X297048Y235769D03*
X294264Y238553D03*
X291480Y241337D03*
X288697Y244120D03*
X285913Y246904D03*
X283129Y249688D03*
X366645Y171739D03*
X363861Y174523D03*
X361078Y177307D03*
X358294Y180091D03*
X355510Y182875D03*
X352726Y185659D03*
X349942Y188443D03*
X347158Y191227D03*
X344374Y194011D03*
X341590Y196794D03*
X338807Y199578D03*
X336023Y202362D03*
X333239Y205146D03*
X330455Y207930D03*
X327671Y210714D03*
X324887Y213498D03*
X322103Y216282D03*
X319319Y219066D03*
X316535Y221849D03*
X313752Y224633D03*
X310968Y227417D03*
X308184Y230201D03*
X305400Y232985D03*
X302616Y235769D03*
X299832Y238553D03*
X297048Y241337D03*
X294264Y244120D03*
X291480Y246904D03*
X288697Y249688D03*
X285913Y252472D03*
X369429Y174523D03*
X366645Y177307D03*
X363861Y180091D03*
X361078Y182875D03*
X358294Y185659D03*
X355510Y188443D03*
X352726Y191227D03*
X349942Y194011D03*
X347158Y196794D03*
X344374Y199578D03*
X341590Y202362D03*
X338807Y205146D03*
X336023Y207930D03*
X333239Y210714D03*
X330455Y213498D03*
X327671Y216282D03*
X324887Y219066D03*
X322103Y221849D03*
X319319Y224633D03*
X316535Y227417D03*
X313752Y230201D03*
X310968Y232985D03*
X308184Y235769D03*
X305400Y238553D03*
X302616Y241337D03*
X299832Y244120D03*
X297048Y246904D03*
X294264Y249688D03*
X291480Y252472D03*
X288697Y255256D03*
X372213Y177307D03*
X369429Y180091D03*
X366645Y182875D03*
X363861Y185659D03*
X361078Y188443D03*
X358294Y191227D03*
X355510Y194011D03*
X352726Y196794D03*
X349942Y199578D03*
X347158Y202362D03*
X344374Y205146D03*
X341590Y207930D03*
X338807Y210714D03*
X336023Y213498D03*
X333239Y216282D03*
X330455Y219066D03*
X327671Y221849D03*
X324887Y224633D03*
X322103Y227417D03*
X319319Y230201D03*
X316535Y232985D03*
X313752Y235769D03*
X310968Y238553D03*
X308184Y241337D03*
X305400Y244120D03*
X302616Y246904D03*
X299832Y249688D03*
X297048Y252472D03*
X294264Y255256D03*
X291480Y258040D03*
X374997Y180091D03*
X372213Y182875D03*
X369429Y185659D03*
X366645Y188443D03*
X363861Y191227D03*
X361078Y194011D03*
X358294Y196794D03*
X355510Y199578D03*
X352726Y202362D03*
X349942Y205146D03*
X347158Y207930D03*
X344374Y210714D03*
X341590Y213498D03*
X338807Y216282D03*
X336023Y219066D03*
X333239Y221849D03*
X330455Y224633D03*
X327671Y227417D03*
X324887Y230201D03*
X322103Y232985D03*
X319319Y235769D03*
X316535Y238553D03*
X313752Y241337D03*
X310968Y244120D03*
X308184Y246904D03*
X305400Y249688D03*
X302616Y252472D03*
X299832Y255256D03*
X297048Y258040D03*
X294264Y260824D03*
X377781Y182875D03*
X374997Y185659D03*
X372213Y188443D03*
X369429Y191227D03*
X366645Y194011D03*
X363861Y196794D03*
X361078Y199578D03*
X358294Y202362D03*
X355510Y205146D03*
X352726Y207930D03*
X349942Y210714D03*
X347158Y213498D03*
X344374Y216282D03*
X341590Y219066D03*
X338807Y221849D03*
X336023Y224633D03*
X333239Y227417D03*
X330455Y230201D03*
X327671Y232985D03*
X324887Y235769D03*
X322103Y238553D03*
X319319Y241337D03*
X316535Y244120D03*
X313752Y246904D03*
X310968Y249688D03*
X308184Y252472D03*
X305400Y255256D03*
X302616Y258040D03*
X299832Y260824D03*
X297048Y263608D03*
X380565Y185659D03*
X377781Y188443D03*
X374997Y191227D03*
X372213Y194011D03*
X369429Y196794D03*
X366645Y199578D03*
X363861Y202362D03*
X361078Y205146D03*
X358294Y207930D03*
X355510Y210714D03*
X352726Y213498D03*
X349942Y216282D03*
X347158Y219066D03*
X344374Y221849D03*
X341590Y224633D03*
X338807Y227417D03*
X336023Y230201D03*
X333239Y232985D03*
X330455Y235769D03*
X327671Y238553D03*
X324887Y241337D03*
X322103Y244120D03*
X319319Y246904D03*
X316535Y249688D03*
X313752Y252472D03*
X310968Y255256D03*
X308184Y258040D03*
X305400Y260824D03*
X302616Y263608D03*
X299832Y266392D03*
X383349Y188443D03*
X380565Y191227D03*
X377781Y194011D03*
X374997Y196794D03*
X372213Y199578D03*
X369429Y202362D03*
X366645Y205146D03*
X363861Y207930D03*
X361078Y210714D03*
X358294Y213498D03*
X355510Y216282D03*
X352726Y219066D03*
X349942Y221849D03*
X347158Y224633D03*
X344374Y227417D03*
X341590Y230201D03*
X338807Y232985D03*
X336023Y235769D03*
X333239Y238553D03*
X330455Y241337D03*
X327671Y244120D03*
X324887Y246904D03*
X322103Y249688D03*
X319319Y252472D03*
X316535Y255256D03*
X313752Y258040D03*
X310968Y260824D03*
X308184Y263608D03*
X305400Y266392D03*
X302616Y269175D03*
X386133Y191227D03*
X383349Y194011D03*
X380565Y196794D03*
X377781Y199578D03*
X374997Y202362D03*
X372213Y205146D03*
X369429Y207930D03*
X366645Y210714D03*
X363861Y213498D03*
X361078Y216282D03*
X358294Y219066D03*
X355510Y221849D03*
X352726Y224633D03*
X349942Y227417D03*
X347158Y230201D03*
X344374Y232985D03*
X341590Y235769D03*
X338807Y238553D03*
X336023Y241337D03*
X333239Y244120D03*
X330455Y246904D03*
X327671Y249688D03*
X324887Y252472D03*
X322103Y255256D03*
X319319Y258040D03*
X316535Y260824D03*
X313752Y263608D03*
X310968Y266392D03*
X308184Y269175D03*
X305400Y271959D03*
X388916Y194011D03*
X386133Y196794D03*
X383349Y199578D03*
X380565Y202362D03*
X377781Y205146D03*
X374997Y207930D03*
X372213Y210714D03*
X369429Y213498D03*
X366645Y216282D03*
X363861Y219066D03*
X361078Y221849D03*
X358294Y224633D03*
X355510Y227417D03*
X352726Y230201D03*
X349942Y232985D03*
X347158Y235769D03*
X344374Y238553D03*
X341590Y241337D03*
X338807Y244120D03*
X336023Y246904D03*
X333239Y249688D03*
X330455Y252472D03*
X327671Y255256D03*
X324887Y258040D03*
X322103Y260824D03*
X319319Y263608D03*
X316535Y266392D03*
X313752Y269175D03*
X310968Y271959D03*
X308184Y274743D03*
X391700Y196794D03*
X388916Y199578D03*
X386133Y202362D03*
X383349Y205146D03*
X380565Y207930D03*
X377781Y210714D03*
X374997Y213498D03*
X372213Y216282D03*
X369429Y219066D03*
X366645Y221849D03*
X363861Y224633D03*
X361078Y227417D03*
X358294Y230201D03*
X355510Y232985D03*
X352726Y235769D03*
X349942Y238553D03*
X347158Y241337D03*
X344374Y244120D03*
X341590Y246904D03*
X338807Y249688D03*
X336023Y252472D03*
X333239Y255256D03*
X330455Y258040D03*
X327671Y260824D03*
X324887Y263608D03*
X322103Y266392D03*
X319319Y269175D03*
X316535Y271959D03*
X313752Y274743D03*
X310968Y277527D03*
X394484Y199578D03*
X391700Y202362D03*
X388916Y205146D03*
X386133Y207930D03*
X383349Y210714D03*
X380565Y213498D03*
X377781Y216282D03*
X374997Y219066D03*
X372213Y221849D03*
X369429Y224633D03*
X366645Y227417D03*
X363861Y230201D03*
X361078Y232985D03*
X358294Y235769D03*
X355510Y238553D03*
X352726Y241337D03*
X349942Y244120D03*
X347158Y246904D03*
X344374Y249688D03*
X341590Y252472D03*
X338807Y255256D03*
X336023Y258040D03*
X333239Y260824D03*
X330455Y263608D03*
X327671Y266392D03*
X324887Y269175D03*
X322103Y271959D03*
X319319Y274743D03*
X316535Y277527D03*
X313752Y280311D03*
X397268Y202362D03*
X394484Y205146D03*
X391700Y207930D03*
X388916Y210714D03*
X386133Y213498D03*
X383349Y216282D03*
X380565Y219066D03*
X377781Y221849D03*
X374997Y224633D03*
X372213Y227417D03*
X369429Y230201D03*
X366645Y232985D03*
X363861Y235769D03*
X361078Y238553D03*
X358294Y241337D03*
X355510Y244120D03*
X352726Y246904D03*
X349942Y249688D03*
X347158Y252472D03*
X344374Y255256D03*
X341590Y258040D03*
X338807Y260824D03*
X336023Y263608D03*
X333239Y266392D03*
X330455Y269175D03*
X327671Y271959D03*
X324887Y274743D03*
X322103Y277527D03*
X319319Y280311D03*
X316535Y283095D03*
G54D88*
X375433Y281299D03*
X385433D03*
X395433D03*
Y296654D03*
X385433D03*
X375433D03*
X231732Y300984D03*
X241732D03*
X251732D03*
Y316339D03*
X241732D03*
X231732D03*
G54D89*
X144488Y142717D03*
X372835D03*
G54D90*
X146850D03*
X149213D03*
X151575D03*
X153937D03*
X156299D03*
X158661D03*
X161024D03*
X163386D03*
X165748D03*
X168110D03*
X170472D03*
X172835D03*
X175197D03*
X177559D03*
X179921D03*
X182283D03*
X184646D03*
X187008D03*
X189370D03*
X191732D03*
X194094D03*
X196457D03*
X198819D03*
X201181D03*
X203543D03*
X205906D03*
X208268D03*
X210630D03*
X212992D03*
X215354D03*
X217717D03*
X220079D03*
X222441D03*
X224803D03*
X227165D03*
X229528D03*
X231890D03*
X234252D03*
X236614D03*
X238976D03*
X241339D03*
X243701D03*
X246063D03*
X248425D03*
X250787D03*
X253150D03*
X255512D03*
X257874D03*
X260236D03*
Y120276D03*
X257874D03*
X255512D03*
X253150D03*
X250787D03*
X248425D03*
X246063D03*
X243701D03*
X241339D03*
X238976D03*
X236614D03*
X234252D03*
X231890D03*
X229528D03*
X227165D03*
X224803D03*
X222441D03*
X220079D03*
X217717D03*
X215354D03*
X212992D03*
X210630D03*
X208268D03*
X205906D03*
X203543D03*
X201181D03*
X198819D03*
X196457D03*
X194094D03*
X191732D03*
X189370D03*
X187008D03*
X184646D03*
X182283D03*
X179921D03*
X177559D03*
X175197D03*
X172835D03*
X170472D03*
X168110D03*
X165748D03*
X163386D03*
X161024D03*
X158661D03*
X156299D03*
X153937D03*
X151575D03*
X149213D03*
X146850D03*
X144488D03*
X375197Y142717D03*
X377559D03*
X379921D03*
X382283D03*
X384646D03*
X387008D03*
X389370D03*
X391732D03*
X394094D03*
X396457D03*
X398819D03*
X401181D03*
X403543D03*
X405906D03*
X408268D03*
X410630D03*
X412992D03*
X415354D03*
X417717D03*
X420079D03*
X422441D03*
X424803D03*
X427165D03*
X429528D03*
X431890D03*
X434252D03*
X436614D03*
X438976D03*
X441339D03*
X443701D03*
X446063D03*
X448425D03*
X450787D03*
X453150D03*
X455512D03*
X457874D03*
X460236D03*
X462598D03*
X464961D03*
X467323D03*
X469685D03*
X472047D03*
X474409D03*
X476772D03*
X479134D03*
X481496D03*
X483858D03*
X486220D03*
X488583D03*
Y120276D03*
X486220D03*
X483858D03*
X481496D03*
X479134D03*
X476772D03*
X474409D03*
X472047D03*
X469685D03*
X467323D03*
X464961D03*
X462598D03*
X460236D03*
X457874D03*
X455512D03*
X453150D03*
X450787D03*
X448425D03*
X446063D03*
X443701D03*
X441339D03*
X438976D03*
X436614D03*
X434252D03*
X431890D03*
X429528D03*
X427165D03*
X424803D03*
X422441D03*
X420079D03*
X417717D03*
X415354D03*
X412992D03*
X410630D03*
X408268D03*
X405906D03*
X403543D03*
X401181D03*
X398819D03*
X396457D03*
X394094D03*
X391732D03*
X389370D03*
X387008D03*
X384646D03*
X382283D03*
X379921D03*
X377559D03*
X375197D03*
X372835D03*
G54D91*
X305315Y309843D03*
G54D92*
Y312205D03*
Y314567D03*
Y316929D03*
Y319291D03*
Y321654D03*
Y324016D03*
Y326378D03*
Y328740D03*
Y331102D03*
Y333465D03*
Y335827D03*
Y338189D03*
Y340551D03*
Y342913D03*
Y345276D03*
Y347638D03*
Y350000D03*
Y352362D03*
Y354724D03*
Y357087D03*
Y359449D03*
Y361811D03*
Y364173D03*
Y366535D03*
Y368898D03*
Y371260D03*
Y373622D03*
Y375984D03*
Y378346D03*
Y380709D03*
Y383071D03*
Y385433D03*
Y387795D03*
Y390157D03*
Y392520D03*
Y394882D03*
Y397244D03*
Y399606D03*
Y401969D03*
Y404331D03*
Y406693D03*
Y409055D03*
Y411417D03*
Y413780D03*
Y416142D03*
Y418504D03*
Y420866D03*
Y423228D03*
Y425591D03*
X327756D03*
Y423228D03*
Y420866D03*
Y418504D03*
Y416142D03*
Y413780D03*
Y411417D03*
Y409055D03*
Y406693D03*
Y404331D03*
Y401969D03*
Y399606D03*
Y397244D03*
Y394882D03*
Y392520D03*
Y390157D03*
Y387795D03*
Y385433D03*
Y383071D03*
Y380709D03*
Y378346D03*
Y375984D03*
Y373622D03*
Y371260D03*
Y368898D03*
Y366535D03*
Y364173D03*
Y361811D03*
Y359449D03*
Y357087D03*
Y354724D03*
Y352362D03*
Y350000D03*
Y347638D03*
Y345276D03*
Y342913D03*
Y340551D03*
Y338189D03*
Y335827D03*
Y333465D03*
Y331102D03*
Y328740D03*
Y326378D03*
Y324016D03*
Y321654D03*
Y319291D03*
Y316929D03*
Y314567D03*
Y312205D03*
Y309843D03*
G54D261*
X492047Y446909D03*
X482047D03*
X472047D03*
X462047D03*
X452047D03*
Y414509D03*
X462047D03*
X472047D03*
X482047D03*
X492047D03*
G54D265*
X214173Y192815D03*
X216142D03*
X218110D03*
Y200098D03*
X216142D03*
X214173D03*
X259449Y153445D03*
X261417D03*
X263386D03*
Y160728D03*
X261417D03*
X259449D03*
X391339Y173130D03*
X393307D03*
X395276D03*
Y180413D03*
X393307D03*
X391339D03*
X263386Y251870D03*
X265354D03*
X267323D03*
Y259154D03*
X265354D03*
X263386D03*
X414961Y200689D03*
X416929D03*
X418898D03*
Y207972D03*
X416929D03*
X414961D03*
G74*
X0Y0D02*
M02*
