*
*
G04 PADS 9.5 Build Number: 522968 generated Gerber (RS-274-X) file*
G04 PC Version=2.1*
*
%IN "SCROD.revA3.batch4.auto"*%
*
%MOIN*%
*
%FSLAX35Y35*%
*
*
*
*
G04 PC Standard Apertures*
*
*
G04 Thermal Relief Aperture macro.*
%AMTER*
1,1,$1,0,0*
1,0,$1-$2,0,0*
21,0,$3,$4,0,0,45*
21,0,$3,$4,0,0,135*
%
*
*
G04 Annular Aperture macro.*
%AMANN*
1,1,$1,0,0*
1,0,$2,0,0*
%
*
*
G04 Odd Aperture macro.*
%AMODD*
1,1,$1,0,0*
1,0,$1-0.005,0,0*
%
*
*
G04 PC Custom Aperture Macros*
*
*
*
*
*
*
G04 PC Aperture Table*
*
%ADD010C,0.001*%
%ADD012C,0.005*%
%ADD013C,0.01*%
%ADD041C,0.02362*%
%ADD042R,0.01969X0.07874*%
%ADD074R,0.022X0.1*%
%ADD086R,0.06X0.1*%
%ADD089R,0.01378X0.06693*%
%ADD090O,0.01378X0.06693*%
%ADD091R,0.06693X0.01378*%
%ADD092O,0.06693X0.01378*%
%ADD096R,0.02X0.05*%
%ADD109R,0.0315X0.01969*%
%ADD110R,0.04331X0.0315*%
%ADD111R,0.01969X0.0315*%
%ADD121R,0.0315X0.04331*%
%ADD153R,0.19685X0.13*%
%ADD156R,0.06299X0.02362*%
%ADD157O,0.06299X0.02362*%
%ADD177R,0.03937X0.03937*%
%ADD231R,0.059X0.085*%
*
*
*
*
G04 PC Circuitry*
G04 Layer Name SCROD.revA3.batch4.auto - circuitry*
%LPD*%
*
*
G04 PC Custom Flashes*
G04 Layer Name SCROD.revA3.batch4.auto - flashes*
%LPD*%
*
*
G04 PC Circuitry*
G04 Layer Name SCROD.revA3.batch4.auto - circuitry*
%LPD*%
*
G54D10*
G54D12*
G01X80315Y56693D02*
X112795D01*
X116732Y60630*
Y164961*
X226969*
Y60630*
X230906Y56693*
X513386*
Y411024*
X80315*
Y56693*
X132480Y231890D02*
X156102D01*
Y181693*
X132480*
Y231890*
X187598D02*
X211220D01*
Y181693*
X187598*
Y231890*
X160039Y223031D02*
X167913D01*
Y197441*
X160039*
Y223031*
X175787D02*
X183661D01*
Y197441*
X175787*
Y223031*
X215157D02*
X223031D01*
Y197441*
X215157*
Y223031*
X120669D02*
X128543D01*
Y197441*
X120669*
Y223031*
G54D13*
X295557Y382760D02*
X293971D01*
X293764Y382967*
Y387553*
X293971Y387760*
X295557*
X295764Y387553*
Y382967*
X295557Y382760*
X293764Y383000D02*
X295764D01*
X293764Y384000D02*
X295764D01*
X293764Y385000D02*
X295764D01*
X293764Y386000D02*
X295764D01*
X293764Y387000D02*
X295764D01*
X294000Y382760D02*
Y387760D01*
X295000Y382760D02*
Y387760D01*
X300557Y382760D02*
X298971D01*
X298764Y382967*
Y387553*
X298971Y387760*
X300557*
X300764Y387553*
Y382967*
X300557Y382760*
X298764Y383000D02*
X300764D01*
X298764Y384000D02*
X300764D01*
X298764Y385000D02*
X300764D01*
X298764Y386000D02*
X300764D01*
X298764Y387000D02*
X300764D01*
X299000Y382760D02*
Y387760D01*
X300000Y382760D02*
Y387760D01*
X305557Y382760D02*
X303971D01*
X303764Y382967*
Y387553*
X303971Y387760*
X305557*
X305764Y387553*
Y382967*
X305557Y382760*
X303764Y383000D02*
X305764D01*
X303764Y384000D02*
X305764D01*
X303764Y385000D02*
X305764D01*
X303764Y386000D02*
X305764D01*
X303764Y387000D02*
X305764D01*
X304000Y382760D02*
Y387760D01*
X305000Y382760D02*
Y387760D01*
X310557Y382760D02*
X308971D01*
X308764Y382967*
Y387553*
X308971Y387760*
X310557*
X310764Y387553*
Y382967*
X310557Y382760*
X308764Y383000D02*
X310764D01*
X308764Y384000D02*
X310764D01*
X308764Y385000D02*
X310764D01*
X308764Y386000D02*
X310764D01*
X308764Y387000D02*
X310764D01*
X309000Y382760D02*
Y387760D01*
X310000Y382760D02*
Y387760D01*
X310557Y404760D02*
X308971D01*
X308764Y404967*
Y409553*
X308971Y409760*
X310557*
X310764Y409553*
Y404967*
X310557Y404760*
X308764Y405000D02*
X310764D01*
X308764Y406000D02*
X310764D01*
X308764Y407000D02*
X310764D01*
X308764Y408000D02*
X310764D01*
X308764Y409000D02*
X310764D01*
X309000Y404760D02*
Y409760D01*
X310000Y404760D02*
Y409760D01*
X305557Y404760D02*
X303971D01*
X303764Y404967*
Y409553*
X303971Y409760*
X305557*
X305764Y409553*
Y404967*
X305557Y404760*
X303764Y405000D02*
X305764D01*
X303764Y406000D02*
X305764D01*
X303764Y407000D02*
X305764D01*
X303764Y408000D02*
X305764D01*
X303764Y409000D02*
X305764D01*
X304000Y404760D02*
Y409760D01*
X305000Y404760D02*
Y409760D01*
X300557Y404760D02*
X298971D01*
X298764Y404967*
Y409553*
X298971Y409760*
X300557*
X300764Y409553*
Y404967*
X300557Y404760*
X298764Y405000D02*
X300764D01*
X298764Y406000D02*
X300764D01*
X298764Y407000D02*
X300764D01*
X298764Y408000D02*
X300764D01*
X298764Y409000D02*
X300764D01*
X299000Y404760D02*
Y409760D01*
X300000Y404760D02*
Y409760D01*
X295557Y404760D02*
X293971D01*
X293764Y404967*
Y409553*
X293971Y409760*
X295557*
X295764Y409553*
Y404967*
X295557Y404760*
X293764Y405000D02*
X295764D01*
X293764Y406000D02*
X295764D01*
X293764Y407000D02*
X295764D01*
X293764Y408000D02*
X295764D01*
X293764Y409000D02*
X295764D01*
X294000Y404760D02*
Y409760D01*
X295000Y404760D02*
Y409760D01*
X248902Y382298D02*
Y383883D01*
X249109Y384091*
X253694*
X253902Y383883*
Y382298*
X253694Y382091*
X249109*
X248902Y382298*
Y383000D02*
X253902D01*
X249018Y384000D02*
X253785D01*
X249000Y382199D02*
Y383982D01*
X250000Y382091D02*
Y384091D01*
X251000Y382091D02*
Y384091D01*
X252000Y382091D02*
Y384091D01*
X253000Y382091D02*
Y384091D01*
X248902Y377298D02*
Y378883D01*
X249109Y379091*
X253694*
X253902Y378883*
Y377298*
X253694Y377091*
X249109*
X248902Y377298*
Y378000D02*
X253902D01*
X249018Y379000D02*
X253785D01*
X249000Y377199D02*
Y378982D01*
X250000Y377091D02*
Y379091D01*
X251000Y377091D02*
Y379091D01*
X252000Y377091D02*
Y379091D01*
X253000Y377091D02*
Y379091D01*
X248902Y372298D02*
Y373883D01*
X249109Y374091*
X253694*
X253902Y373883*
Y372298*
X253694Y372091*
X249109*
X248902Y372298*
Y373000D02*
X253902D01*
X249018Y374000D02*
X253785D01*
X249000Y372199D02*
Y373982D01*
X250000Y372091D02*
Y374091D01*
X251000Y372091D02*
Y374091D01*
X252000Y372091D02*
Y374091D01*
X253000Y372091D02*
Y374091D01*
X248902Y367298D02*
Y368883D01*
X249109Y369091*
X253694*
X253902Y368883*
Y367298*
X253694Y367091*
X249109*
X248902Y367298*
Y368000D02*
X253902D01*
X249018Y369000D02*
X253785D01*
X249000Y367199D02*
Y368982D01*
X250000Y367091D02*
Y369091D01*
X251000Y367091D02*
Y369091D01*
X252000Y367091D02*
Y369091D01*
X253000Y367091D02*
Y369091D01*
X270902Y367298D02*
Y368883D01*
X271109Y369091*
X275694*
X275902Y368883*
Y367298*
X275694Y367091*
X271109*
X270902Y367298*
Y368000D02*
X275902D01*
X271018Y369000D02*
X275785D01*
X271000Y367199D02*
Y368982D01*
X272000Y367091D02*
Y369091D01*
X273000Y367091D02*
Y369091D01*
X274000Y367091D02*
Y369091D01*
X275000Y367091D02*
Y369091D01*
X270902Y372298D02*
Y373883D01*
X271109Y374091*
X275694*
X275902Y373883*
Y372298*
X275694Y372091*
X271109*
X270902Y372298*
Y373000D02*
X275902D01*
X271018Y374000D02*
X275785D01*
X271000Y372199D02*
Y373982D01*
X272000Y372091D02*
Y374091D01*
X273000Y372091D02*
Y374091D01*
X274000Y372091D02*
Y374091D01*
X275000Y372091D02*
Y374091D01*
X270902Y377298D02*
Y378883D01*
X271109Y379091*
X275694*
X275902Y378883*
Y377298*
X275694Y377091*
X271109*
X270902Y377298*
Y378000D02*
X275902D01*
X271018Y379000D02*
X275785D01*
X271000Y377199D02*
Y378982D01*
X272000Y377091D02*
Y379091D01*
X273000Y377091D02*
Y379091D01*
X274000Y377091D02*
Y379091D01*
X275000Y377091D02*
Y379091D01*
X270902Y382298D02*
Y383883D01*
X271109Y384091*
X275694*
X275902Y383883*
Y382298*
X275694Y382091*
X271109*
X270902Y382298*
Y383000D02*
X275902D01*
X271018Y384000D02*
X275785D01*
X271000Y382199D02*
Y383982D01*
X272000Y382091D02*
Y384091D01*
X273000Y382091D02*
Y384091D01*
X274000Y382091D02*
Y384091D01*
X275000Y382091D02*
Y384091D01*
X463372Y371933D02*
X461786D01*
X461579Y372140*
Y376726*
X461786Y376933*
X463372*
X463579Y376726*
Y372140*
X463372Y371933*
X461719Y372000D02*
X463439D01*
X461579Y373000D02*
X463579D01*
X461579Y374000D02*
X463579D01*
X461579Y375000D02*
X463579D01*
X461579Y376000D02*
X463579D01*
X462000Y371933D02*
Y376933D01*
X463000Y371933D02*
Y376933D01*
X468372Y371933D02*
X466786D01*
X466579Y372140*
Y376726*
X466786Y376933*
X468372*
X468579Y376726*
Y372140*
X468372Y371933*
X466719Y372000D02*
X468439D01*
X466579Y373000D02*
X468579D01*
X466579Y374000D02*
X468579D01*
X466579Y375000D02*
X468579D01*
X466579Y376000D02*
X468579D01*
X467000Y371933D02*
Y376933D01*
X468000Y371933D02*
Y376933D01*
X473372Y371933D02*
X471786D01*
X471579Y372140*
Y376726*
X471786Y376933*
X473372*
X473579Y376726*
Y372140*
X473372Y371933*
X471719Y372000D02*
X473439D01*
X471579Y373000D02*
X473579D01*
X471579Y374000D02*
X473579D01*
X471579Y375000D02*
X473579D01*
X471579Y376000D02*
X473579D01*
X472000Y371933D02*
Y376933D01*
X473000Y371933D02*
Y376933D01*
X478372Y371933D02*
X476786D01*
X476579Y372140*
Y376726*
X476786Y376933*
X478372*
X478579Y376726*
Y372140*
X478372Y371933*
X476719Y372000D02*
X478439D01*
X476579Y373000D02*
X478579D01*
X476579Y374000D02*
X478579D01*
X476579Y375000D02*
X478579D01*
X476579Y376000D02*
X478579D01*
X477000Y371933D02*
Y376933D01*
X478000Y371933D02*
Y376933D01*
X478372Y393933D02*
X476786D01*
X476579Y394140*
Y398726*
X476786Y398933*
X478372*
X478579Y398726*
Y394140*
X478372Y393933*
X476719Y394000D02*
X478439D01*
X476579Y395000D02*
X478579D01*
X476579Y396000D02*
X478579D01*
X476579Y397000D02*
X478579D01*
X476579Y398000D02*
X478579D01*
X477000Y393933D02*
Y398933D01*
X478000Y393933D02*
Y398933D01*
X473372Y393933D02*
X471786D01*
X471579Y394140*
Y398726*
X471786Y398933*
X473372*
X473579Y398726*
Y394140*
X473372Y393933*
X471719Y394000D02*
X473439D01*
X471579Y395000D02*
X473579D01*
X471579Y396000D02*
X473579D01*
X471579Y397000D02*
X473579D01*
X471579Y398000D02*
X473579D01*
X472000Y393933D02*
Y398933D01*
X473000Y393933D02*
Y398933D01*
X468372Y393933D02*
X466786D01*
X466579Y394140*
Y398726*
X466786Y398933*
X468372*
X468579Y398726*
Y394140*
X468372Y393933*
X466719Y394000D02*
X468439D01*
X466579Y395000D02*
X468579D01*
X466579Y396000D02*
X468579D01*
X466579Y397000D02*
X468579D01*
X466579Y398000D02*
X468579D01*
X467000Y393933D02*
Y398933D01*
X468000Y393933D02*
Y398933D01*
X463372Y393933D02*
X461786D01*
X461579Y394140*
Y398726*
X461786Y398933*
X463372*
X463579Y398726*
Y394140*
X463372Y393933*
X461719Y394000D02*
X463439D01*
X461579Y395000D02*
X463579D01*
X461579Y396000D02*
X463579D01*
X461579Y397000D02*
X463579D01*
X461579Y398000D02*
X463579D01*
X462000Y393933D02*
Y398933D01*
X463000Y393933D02*
Y398933D01*
G54D41*
X314567Y365748D03*
X318504D03*
X322441D03*
X326378D03*
X330315D03*
X334252D03*
X338189D03*
X342126D03*
X346063D03*
X350000D03*
X353937D03*
X357874D03*
X361811D03*
X365748D03*
X369685D03*
X373622D03*
X377559D03*
X381496D03*
X385433D03*
X389370D03*
X393307D03*
X397244D03*
X401181D03*
X405118D03*
X409055D03*
X412992D03*
X314567Y361811D03*
X318504D03*
X322441D03*
X326378D03*
X330315D03*
X334252D03*
X338189D03*
X342126D03*
X346063D03*
X350000D03*
X353937D03*
X357874D03*
X361811D03*
X365748D03*
X369685D03*
X373622D03*
X377559D03*
X381496D03*
X385433D03*
X389370D03*
X393307D03*
X397244D03*
X401181D03*
X405118D03*
X409055D03*
X412992D03*
X314567Y357874D03*
X318504D03*
X322441D03*
X326378D03*
X330315D03*
X334252D03*
X338189D03*
X342126D03*
X346063D03*
X350000D03*
X353937D03*
X357874D03*
X361811D03*
X365748D03*
X369685D03*
X373622D03*
X377559D03*
X381496D03*
X385433D03*
X389370D03*
X393307D03*
X397244D03*
X401181D03*
X405118D03*
X409055D03*
X412992D03*
X314567Y353937D03*
X318504D03*
X322441D03*
X326378D03*
X330315D03*
X334252D03*
X338189D03*
X342126D03*
X346063D03*
X350000D03*
X353937D03*
X357874D03*
X361811D03*
X365748D03*
X369685D03*
X373622D03*
X377559D03*
X381496D03*
X385433D03*
X389370D03*
X393307D03*
X397244D03*
X401181D03*
X405118D03*
X409055D03*
X412992D03*
X314567Y350000D03*
X318504D03*
X322441D03*
X326378D03*
X330315D03*
X334252D03*
X338189D03*
X342126D03*
X346063D03*
X350000D03*
X353937D03*
X357874D03*
X361811D03*
X365748D03*
X369685D03*
X373622D03*
X377559D03*
X381496D03*
X385433D03*
X389370D03*
X393307D03*
X397244D03*
X401181D03*
X405118D03*
X409055D03*
X412992D03*
X314567Y346063D03*
X318504D03*
X322441D03*
X326378D03*
X330315D03*
X334252D03*
X338189D03*
X342126D03*
X346063D03*
X350000D03*
X353937D03*
X357874D03*
X361811D03*
X365748D03*
X369685D03*
X373622D03*
X377559D03*
X381496D03*
X385433D03*
X389370D03*
X393307D03*
X397244D03*
X401181D03*
X405118D03*
X409055D03*
X412992D03*
X314567Y342126D03*
X318504D03*
X322441D03*
X326378D03*
X330315D03*
X334252D03*
X338189D03*
X342126D03*
X346063D03*
X350000D03*
X353937D03*
X357874D03*
X361811D03*
X365748D03*
X369685D03*
X373622D03*
X377559D03*
X381496D03*
X385433D03*
X389370D03*
X393307D03*
X397244D03*
X401181D03*
X405118D03*
X409055D03*
X412992D03*
X314567Y338189D03*
X318504D03*
X322441D03*
X326378D03*
X330315D03*
X334252D03*
X338189D03*
X342126D03*
X346063D03*
X350000D03*
X353937D03*
X357874D03*
X361811D03*
X365748D03*
X369685D03*
X373622D03*
X377559D03*
X381496D03*
X385433D03*
X389370D03*
X393307D03*
X397244D03*
X401181D03*
X405118D03*
X409055D03*
X412992D03*
X314567Y334252D03*
X318504D03*
X322441D03*
X326378D03*
X330315D03*
X334252D03*
X338189D03*
X342126D03*
X346063D03*
X350000D03*
X353937D03*
X357874D03*
X361811D03*
X365748D03*
X369685D03*
X373622D03*
X377559D03*
X381496D03*
X385433D03*
X389370D03*
X393307D03*
X397244D03*
X401181D03*
X405118D03*
X409055D03*
X412992D03*
X314567Y330315D03*
X318504D03*
X322441D03*
X326378D03*
X330315D03*
X334252D03*
X338189D03*
X342126D03*
X346063D03*
X350000D03*
X353937D03*
X357874D03*
X361811D03*
X365748D03*
X369685D03*
X373622D03*
X377559D03*
X381496D03*
X385433D03*
X389370D03*
X393307D03*
X397244D03*
X401181D03*
X405118D03*
X409055D03*
X412992D03*
X314567Y326378D03*
X318504D03*
X322441D03*
X326378D03*
X330315D03*
X334252D03*
X338189D03*
X342126D03*
X346063D03*
X350000D03*
X353937D03*
X357874D03*
X361811D03*
X365748D03*
X369685D03*
X373622D03*
X377559D03*
X381496D03*
X385433D03*
X389370D03*
X393307D03*
X397244D03*
X401181D03*
X405118D03*
X409055D03*
X412992D03*
X314567Y322441D03*
X318504D03*
X322441D03*
X326378D03*
X330315D03*
X334252D03*
X338189D03*
X342126D03*
X346063D03*
X350000D03*
X353937D03*
X357874D03*
X361811D03*
X365748D03*
X369685D03*
X373622D03*
X377559D03*
X381496D03*
X385433D03*
X389370D03*
X393307D03*
X397244D03*
X401181D03*
X405118D03*
X409055D03*
X412992D03*
X314567Y318504D03*
X318504D03*
X322441D03*
X326378D03*
X330315D03*
X334252D03*
X338189D03*
X342126D03*
X346063D03*
X350000D03*
X353937D03*
X357874D03*
X361811D03*
X365748D03*
X369685D03*
X373622D03*
X377559D03*
X381496D03*
X385433D03*
X389370D03*
X393307D03*
X397244D03*
X401181D03*
X405118D03*
X409055D03*
X412992D03*
X314567Y314567D03*
X318504D03*
X322441D03*
X326378D03*
X330315D03*
X334252D03*
X338189D03*
X342126D03*
X346063D03*
X350000D03*
X353937D03*
X357874D03*
X361811D03*
X365748D03*
X369685D03*
X373622D03*
X377559D03*
X381496D03*
X385433D03*
X389370D03*
X393307D03*
X397244D03*
X401181D03*
X405118D03*
X409055D03*
X412992D03*
X314567Y310630D03*
X318504D03*
X322441D03*
X326378D03*
X330315D03*
X334252D03*
X338189D03*
X342126D03*
X346063D03*
X350000D03*
X353937D03*
X357874D03*
X361811D03*
X365748D03*
X369685D03*
X373622D03*
X377559D03*
X381496D03*
X385433D03*
X389370D03*
X393307D03*
X397244D03*
X401181D03*
X405118D03*
X409055D03*
X412992D03*
X314567Y306693D03*
X318504D03*
X322441D03*
X326378D03*
X330315D03*
X334252D03*
X338189D03*
X342126D03*
X346063D03*
X350000D03*
X353937D03*
X357874D03*
X361811D03*
X365748D03*
X369685D03*
X373622D03*
X377559D03*
X381496D03*
X385433D03*
X389370D03*
X393307D03*
X397244D03*
X401181D03*
X405118D03*
X409055D03*
X412992D03*
X314567Y302756D03*
X318504D03*
X322441D03*
X326378D03*
X330315D03*
X334252D03*
X338189D03*
X342126D03*
X346063D03*
X350000D03*
X353937D03*
X357874D03*
X361811D03*
X365748D03*
X369685D03*
X373622D03*
X377559D03*
X381496D03*
X385433D03*
X389370D03*
X393307D03*
X397244D03*
X401181D03*
X405118D03*
X409055D03*
X412992D03*
X314567Y298819D03*
X318504D03*
X322441D03*
X326378D03*
X330315D03*
X334252D03*
X338189D03*
X342126D03*
X346063D03*
X350000D03*
X353937D03*
X357874D03*
X361811D03*
X365748D03*
X369685D03*
X373622D03*
X377559D03*
X381496D03*
X385433D03*
X389370D03*
X393307D03*
X397244D03*
X401181D03*
X405118D03*
X409055D03*
X412992D03*
X314567Y294882D03*
X318504D03*
X322441D03*
X326378D03*
X330315D03*
X334252D03*
X338189D03*
X342126D03*
X346063D03*
X350000D03*
X353937D03*
X357874D03*
X361811D03*
X365748D03*
X369685D03*
X373622D03*
X377559D03*
X381496D03*
X385433D03*
X389370D03*
X393307D03*
X397244D03*
X401181D03*
X405118D03*
X409055D03*
X412992D03*
X314567Y290945D03*
X318504D03*
X322441D03*
X326378D03*
X330315D03*
X334252D03*
X338189D03*
X342126D03*
X346063D03*
X350000D03*
X353937D03*
X357874D03*
X361811D03*
X365748D03*
X369685D03*
X373622D03*
X377559D03*
X381496D03*
X385433D03*
X389370D03*
X393307D03*
X397244D03*
X401181D03*
X405118D03*
X409055D03*
X412992D03*
X314567Y287008D03*
X318504D03*
X322441D03*
X326378D03*
X330315D03*
X334252D03*
X338189D03*
X342126D03*
X346063D03*
X350000D03*
X353937D03*
X357874D03*
X361811D03*
X365748D03*
X369685D03*
X373622D03*
X377559D03*
X381496D03*
X385433D03*
X389370D03*
X393307D03*
X397244D03*
X401181D03*
X405118D03*
X409055D03*
X412992D03*
X314567Y283071D03*
X318504D03*
X322441D03*
X326378D03*
X330315D03*
X334252D03*
X338189D03*
X342126D03*
X346063D03*
X350000D03*
X353937D03*
X357874D03*
X361811D03*
X365748D03*
X369685D03*
X373622D03*
X377559D03*
X381496D03*
X385433D03*
X389370D03*
X393307D03*
X397244D03*
X401181D03*
X405118D03*
X409055D03*
X412992D03*
X314567Y279134D03*
X318504D03*
X322441D03*
X326378D03*
X330315D03*
X334252D03*
X338189D03*
X342126D03*
X346063D03*
X350000D03*
X353937D03*
X357874D03*
X361811D03*
X365748D03*
X369685D03*
X373622D03*
X377559D03*
X381496D03*
X385433D03*
X389370D03*
X393307D03*
X397244D03*
X401181D03*
X405118D03*
X409055D03*
X412992D03*
X314567Y275197D03*
X318504D03*
X322441D03*
X326378D03*
X330315D03*
X334252D03*
X338189D03*
X342126D03*
X346063D03*
X350000D03*
X353937D03*
X357874D03*
X361811D03*
X365748D03*
X369685D03*
X373622D03*
X377559D03*
X381496D03*
X385433D03*
X389370D03*
X393307D03*
X397244D03*
X401181D03*
X405118D03*
X409055D03*
X412992D03*
X314567Y271260D03*
X318504D03*
X322441D03*
X326378D03*
X330315D03*
X334252D03*
X338189D03*
X342126D03*
X346063D03*
X350000D03*
X353937D03*
X357874D03*
X361811D03*
X365748D03*
X369685D03*
X373622D03*
X377559D03*
X381496D03*
X385433D03*
X389370D03*
X393307D03*
X397244D03*
X401181D03*
X405118D03*
X409055D03*
X412992D03*
X314567Y267323D03*
X318504D03*
X322441D03*
X326378D03*
X330315D03*
X334252D03*
X338189D03*
X342126D03*
X346063D03*
X350000D03*
X353937D03*
X357874D03*
X361811D03*
X365748D03*
X369685D03*
X373622D03*
X377559D03*
X381496D03*
X385433D03*
X389370D03*
X393307D03*
X397244D03*
X401181D03*
X405118D03*
X409055D03*
X412992D03*
G54D42*
X130433Y345276D03*
X133583D03*
X136732D03*
X139882D03*
X143031D03*
X146181D03*
X149331D03*
X152480D03*
X155630D03*
X158780D03*
X157205Y377559D03*
X154055D03*
X150906D03*
X147756D03*
X144606D03*
X141457D03*
X138307D03*
X135157D03*
X132008D03*
X128858D03*
X186535Y345276D03*
X189685D03*
X192835D03*
X195984D03*
X199134D03*
X202283D03*
X205433D03*
X208583D03*
X211732D03*
X214882D03*
X213307Y377559D03*
X210157D03*
X207008D03*
X203858D03*
X200709D03*
X197559D03*
X194409D03*
X191260D03*
X188110D03*
X184961D03*
G54D74*
X339961Y124293D03*
X334961D03*
X329961D03*
X324961D03*
X319961D03*
X314961D03*
X309961D03*
X304961D03*
X401961D03*
X396961D03*
X391961D03*
X386961D03*
X381961D03*
X376961D03*
X371961D03*
X366961D03*
G54D86*
X463821Y336220D03*
X477321D03*
X464313Y323425D03*
X477813D03*
X463821Y350000D03*
X477321D03*
X252419Y325886D03*
X238919D03*
X346695Y168898D03*
X360195D03*
X409900Y404134D03*
X396400D03*
X252419Y350984D03*
X238919D03*
X405224Y376083D03*
X391724D03*
X252419Y339173D03*
X238919D03*
G54D89*
X305906Y249016D03*
Y209646D03*
G54D90*
X308268Y249016D03*
X310630D03*
X312992D03*
X315354D03*
X317717D03*
X320079D03*
X322441D03*
X324803D03*
X327165D03*
X329528D03*
X331890D03*
X334252D03*
X336614D03*
X338976D03*
X341339D03*
X343701D03*
X346063D03*
X348425D03*
X350787D03*
X353150D03*
X355512D03*
X357874D03*
X360236D03*
X362598D03*
X364961D03*
X367323D03*
X369685D03*
X372047D03*
X374409D03*
X376772D03*
X379134D03*
X381496D03*
X383858D03*
X386220D03*
X388583D03*
X390945D03*
X393307D03*
X395669D03*
X398031D03*
X400394D03*
X402756D03*
X405118D03*
X407480D03*
X409843D03*
X412205D03*
X414567D03*
X416929D03*
X419291D03*
X421654D03*
Y226575D03*
X419291D03*
X416929D03*
X414567D03*
X412205D03*
X409843D03*
X407480D03*
X405118D03*
X402756D03*
X400394D03*
X398031D03*
X395669D03*
X393307D03*
X390945D03*
X388583D03*
X386220D03*
X383858D03*
X381496D03*
X379134D03*
X376772D03*
X374409D03*
X372047D03*
X369685D03*
X367323D03*
X364961D03*
X362598D03*
X360236D03*
X357874D03*
X355512D03*
X353150D03*
X350787D03*
X348425D03*
X346063D03*
X343701D03*
X341339D03*
X338976D03*
X336614D03*
X334252D03*
X331890D03*
X329528D03*
X327165D03*
X324803D03*
X322441D03*
X320079D03*
X317717D03*
X315354D03*
X312992D03*
X310630D03*
X308268D03*
X305906D03*
X308268Y209646D03*
X310630D03*
X312992D03*
X315354D03*
X317717D03*
X320079D03*
X322441D03*
X324803D03*
X327165D03*
X329528D03*
X331890D03*
X334252D03*
X336614D03*
X338976D03*
X341339D03*
X343701D03*
X346063D03*
X348425D03*
X350787D03*
X353150D03*
X355512D03*
X357874D03*
X360236D03*
X362598D03*
X364961D03*
X367323D03*
X369685D03*
X372047D03*
X374409D03*
X376772D03*
X379134D03*
X381496D03*
X383858D03*
X386220D03*
X388583D03*
X390945D03*
X393307D03*
X395669D03*
X398031D03*
X400394D03*
X402756D03*
X405118D03*
X407480D03*
X409843D03*
X412205D03*
X414567D03*
X416929D03*
X419291D03*
X421654D03*
Y187205D03*
X419291D03*
X416929D03*
X414567D03*
X412205D03*
X409843D03*
X407480D03*
X405118D03*
X402756D03*
X400394D03*
X398031D03*
X395669D03*
X393307D03*
X390945D03*
X388583D03*
X386220D03*
X383858D03*
X381496D03*
X379134D03*
X376772D03*
X374409D03*
X372047D03*
X369685D03*
X367323D03*
X364961D03*
X362598D03*
X360236D03*
X357874D03*
X355512D03*
X353150D03*
X350787D03*
X348425D03*
X346063D03*
X343701D03*
X341339D03*
X338976D03*
X336614D03*
X334252D03*
X331890D03*
X329528D03*
X327165D03*
X324803D03*
X322441D03*
X320079D03*
X317717D03*
X315354D03*
X312992D03*
X310630D03*
X308268D03*
X305906D03*
G54D91*
X272638Y299606D03*
X477362D03*
G54D92*
X272638Y297244D03*
Y294882D03*
Y292520D03*
Y290157D03*
Y287795D03*
Y285433D03*
Y283071D03*
Y280709D03*
Y278346D03*
Y275984D03*
Y273622D03*
Y271260D03*
Y268898D03*
Y266535D03*
Y264173D03*
Y261811D03*
Y259449D03*
Y257087D03*
Y254724D03*
Y252362D03*
Y250000D03*
Y247638D03*
Y245276D03*
Y242913D03*
Y240551D03*
Y238189D03*
Y235827D03*
Y233465D03*
Y231102D03*
Y228740D03*
Y226378D03*
Y224016D03*
Y221654D03*
Y219291D03*
Y216929D03*
Y214567D03*
Y212205D03*
Y209843D03*
Y207480D03*
Y205118D03*
Y202756D03*
Y200394D03*
Y198031D03*
Y195669D03*
Y193307D03*
Y190945D03*
Y188583D03*
Y186220D03*
Y183858D03*
Y181496D03*
Y179134D03*
Y176772D03*
Y174409D03*
Y172047D03*
Y169685D03*
Y167323D03*
Y164961D03*
Y162598D03*
Y160236D03*
X250197D03*
Y162598D03*
Y164961D03*
Y167323D03*
Y169685D03*
Y172047D03*
Y174409D03*
Y176772D03*
Y179134D03*
Y181496D03*
Y183858D03*
Y186220D03*
Y188583D03*
Y190945D03*
Y193307D03*
Y195669D03*
Y198031D03*
Y200394D03*
Y202756D03*
Y205118D03*
Y207480D03*
Y209843D03*
Y212205D03*
Y214567D03*
Y216929D03*
Y219291D03*
Y221654D03*
Y224016D03*
Y226378D03*
Y228740D03*
Y231102D03*
Y233465D03*
Y235827D03*
Y238189D03*
Y240551D03*
Y242913D03*
Y245276D03*
Y247638D03*
Y250000D03*
Y252362D03*
Y254724D03*
Y257087D03*
Y259449D03*
Y261811D03*
Y264173D03*
Y266535D03*
Y268898D03*
Y271260D03*
Y273622D03*
Y275984D03*
Y278346D03*
Y280709D03*
Y283071D03*
Y285433D03*
Y287795D03*
Y290157D03*
Y292520D03*
Y294882D03*
Y297244D03*
Y299606D03*
X477362Y297244D03*
Y294882D03*
Y292520D03*
Y290157D03*
Y287795D03*
Y285433D03*
Y283071D03*
Y280709D03*
Y278346D03*
Y275984D03*
Y273622D03*
Y271260D03*
Y268898D03*
Y266535D03*
Y264173D03*
Y261811D03*
Y259449D03*
Y257087D03*
Y254724D03*
Y252362D03*
Y250000D03*
Y247638D03*
Y245276D03*
Y242913D03*
Y240551D03*
Y238189D03*
Y235827D03*
Y233465D03*
Y231102D03*
Y228740D03*
Y226378D03*
Y224016D03*
Y221654D03*
Y219291D03*
Y216929D03*
Y214567D03*
Y212205D03*
Y209843D03*
Y207480D03*
Y205118D03*
Y202756D03*
Y200394D03*
Y198031D03*
Y195669D03*
Y193307D03*
Y190945D03*
Y188583D03*
Y186220D03*
Y183858D03*
Y181496D03*
Y179134D03*
Y176772D03*
Y174409D03*
Y172047D03*
Y169685D03*
Y167323D03*
Y164961D03*
Y162598D03*
Y160236D03*
X454921D03*
Y162598D03*
Y164961D03*
Y167323D03*
Y169685D03*
Y172047D03*
Y174409D03*
Y176772D03*
Y179134D03*
Y181496D03*
Y183858D03*
Y186220D03*
Y188583D03*
Y190945D03*
Y193307D03*
Y195669D03*
Y198031D03*
Y200394D03*
Y202756D03*
Y205118D03*
Y207480D03*
Y209843D03*
Y212205D03*
Y214567D03*
Y216929D03*
Y219291D03*
Y221654D03*
Y224016D03*
Y226378D03*
Y228740D03*
Y231102D03*
Y233465D03*
Y235827D03*
Y238189D03*
Y240551D03*
Y242913D03*
Y245276D03*
Y247638D03*
Y250000D03*
Y252362D03*
Y254724D03*
Y257087D03*
Y259449D03*
Y261811D03*
Y264173D03*
Y266535D03*
Y268898D03*
Y271260D03*
Y273622D03*
Y275984D03*
Y278346D03*
Y280709D03*
Y283071D03*
Y285433D03*
Y287795D03*
Y290157D03*
Y292520D03*
Y294882D03*
Y297244D03*
Y299606D03*
G54D96*
X382785Y387480D03*
X379035D03*
X375285D03*
Y377480D03*
X382785D03*
X337884Y380433D03*
X341634D03*
X345384D03*
Y390433D03*
X341624D03*
X337884D03*
G54D109*
X424213Y287008D03*
X429331D03*
X424213Y274213D03*
X429331D03*
X425689Y299311D03*
X430807D03*
X327953Y257972D03*
X322835D03*
X386270Y256742D03*
X381152D03*
X305315Y275197D03*
X300197D03*
X305315Y306693D03*
X300197D03*
X305315Y322441D03*
X300197D03*
X305315Y338189D03*
X300197D03*
X304823Y353937D03*
X299705D03*
X422244Y340157D03*
X427362D03*
X423228Y321457D03*
X428346D03*
X381594Y373130D03*
X376476D03*
X331398Y386417D03*
X326280D03*
X334350Y389862D03*
X329232D03*
X448701Y146850D03*
X443583D03*
G54D110*
X421850Y357874D03*
X429724D03*
X422835Y312598D03*
X430709D03*
X409055Y257972D03*
X416929D03*
X363780Y257480D03*
X355906D03*
X305217Y290945D03*
X297343D03*
X305217Y344094D03*
X297343D03*
X463189Y404134D03*
X471063D03*
X317520Y401673D03*
X325394D03*
X466142Y365748D03*
X474016D03*
G54D111*
X371654Y381890D03*
Y387008D03*
X386417Y381398D03*
Y386516D03*
X454331Y388484D03*
Y383366D03*
Y376673D03*
Y371555D03*
X411262Y385573D03*
Y390691D03*
G54D121*
X243209Y381988D03*
Y374114D03*
X281102Y381004D03*
Y373130D03*
X287992Y383957D03*
Y391831D03*
G54D153*
X296850Y91142D03*
X410039D03*
G54D156*
X418004Y390219D03*
G54D157*
Y385219D03*
Y380219D03*
Y375219D03*
X448319D03*
Y380219D03*
Y385219D03*
Y390219D03*
G54D177*
X444980Y347539D03*
G54D231*
X431870Y103977D03*
X441870D03*
X451870D03*
X461870D03*
X471870D03*
Y136377D03*
X461870D03*
X451870D03*
X441870D03*
X431870D03*
X0Y0D02*
M02*
