*
*
G04 PADS 9.5 Build Number: 522968 generated Gerber (RS-274-X) file*
G04 PC Version=2.1*
*
%IN "SCROD.revB.layout.pcb"*%
*
%MOIN*%
*
%FSLAX35Y35*%
*
*
*
*
G04 PC Standard Apertures*
*
*
G04 Thermal Relief Aperture macro.*
%AMTER*
1,1,$1,0,0*
1,0,$1-$2,0,0*
21,0,$3,$4,0,0,45*
21,0,$3,$4,0,0,135*
%
*
*
G04 Annular Aperture macro.*
%AMANN*
1,1,$1,0,0*
1,0,$2,0,0*
%
*
*
G04 Odd Aperture macro.*
%AMODD*
1,1,$1,0,0*
1,0,$1-0.005,0,0*
%
*
*
G04 PC Custom Aperture Macros*
*
*
*
*
*
*
G04 PC Aperture Table*
*
%ADD010C,0.001*%
%ADD019R,0.01378X0.06693*%
%ADD020O,0.01378X0.06693*%
%ADD023R,0.06693X0.01378*%
%ADD024O,0.06693X0.01378*%
%ADD025C,0.01*%
%ADD026R,0.06X0.1*%
%ADD027R,0.1X0.06*%
%ADD030R,0.0315X0.04331*%
%ADD031R,0.10236X0.06299*%
%ADD032R,0.0374X0.1378*%
%ADD033R,0.06X0.06*%
%ADD034C,0.01575*%
%ADD036R,0.01969X0.03937*%
%ADD038R,0.01575X0.02362*%
%ADD039R,0.09449X0.05906*%
%ADD040R,0.02953X0.01181*%
%ADD041R,0.0689X0.05709*%
%ADD042O,0.00984X0.03543*%
%ADD043O,0.03543X0.00984*%
%ADD044R,0.13583X0.13583*%
%ADD047R,0.03346X0.0374*%
%ADD048C,0.01102*%
%ADD049R,0.04921X0.00984*%
%ADD050O,0.04921X0.00984*%
%ADD053R,0.03937X0.01969*%
%ADD054R,0.08976X0.06*%
%ADD055R,0.24528X0.26535*%
%ADD056R,0.05X0.02*%
%ADD063C,0.004*%
%ADD075R,0.01201X0.04*%
%ADD076R,0.11201X0.065*%
%ADD242C,0.01772*%
%ADD243R,0.03937X0.03937*%
*
*
*
*
G04 PC Circuitry*
G04 Layer Name SCROD.revB.layout.pcb - circuitry*
%LPD*%
*
*
G04 PC Custom Flashes*
G04 Layer Name SCROD.revB.layout.pcb - flashes*
%LPD*%
*
*
G04 PC Circuitry*
G04 Layer Name SCROD.revB.layout.pcb - circuitry*
%LPD*%
*
G54D10*
G54D19*
G01X144488Y142717D03*
X372835D03*
G54D20*
X146850D03*
X149213D03*
X151575D03*
X153937D03*
X156299D03*
X158661D03*
X161024D03*
X163386D03*
X165748D03*
X168110D03*
X170472D03*
X172835D03*
X175197D03*
X177559D03*
X179921D03*
X182283D03*
X184646D03*
X187008D03*
X189370D03*
X191732D03*
X194094D03*
X196457D03*
X198819D03*
X201181D03*
X203543D03*
X205906D03*
X208268D03*
X210630D03*
X212992D03*
X215354D03*
X217717D03*
X220079D03*
X222441D03*
X224803D03*
X227165D03*
X229528D03*
X231890D03*
X234252D03*
X236614D03*
X238976D03*
X241339D03*
X243701D03*
X246063D03*
X248425D03*
X250787D03*
X253150D03*
X255512D03*
X257874D03*
X260236D03*
Y120276D03*
X257874D03*
X255512D03*
X253150D03*
X250787D03*
X248425D03*
X246063D03*
X243701D03*
X241339D03*
X238976D03*
X236614D03*
X234252D03*
X231890D03*
X229528D03*
X227165D03*
X224803D03*
X222441D03*
X220079D03*
X217717D03*
X215354D03*
X212992D03*
X210630D03*
X208268D03*
X205906D03*
X203543D03*
X201181D03*
X198819D03*
X196457D03*
X194094D03*
X191732D03*
X189370D03*
X187008D03*
X184646D03*
X182283D03*
X179921D03*
X177559D03*
X175197D03*
X172835D03*
X170472D03*
X168110D03*
X165748D03*
X163386D03*
X161024D03*
X158661D03*
X156299D03*
X153937D03*
X151575D03*
X149213D03*
X146850D03*
X144488D03*
X375197Y142717D03*
X377559D03*
X379921D03*
X382283D03*
X384646D03*
X387008D03*
X389370D03*
X391732D03*
X394094D03*
X396457D03*
X398819D03*
X401181D03*
X403543D03*
X405906D03*
X408268D03*
X410630D03*
X412992D03*
X415354D03*
X417717D03*
X420079D03*
X422441D03*
X424803D03*
X427165D03*
X429528D03*
X431890D03*
X434252D03*
X436614D03*
X438976D03*
X441339D03*
X443701D03*
X446063D03*
X448425D03*
X450787D03*
X453150D03*
X455512D03*
X457874D03*
X460236D03*
X462598D03*
X464961D03*
X467323D03*
X469685D03*
X472047D03*
X474409D03*
X476772D03*
X479134D03*
X481496D03*
X483858D03*
X486220D03*
X488583D03*
Y120276D03*
X486220D03*
X483858D03*
X481496D03*
X479134D03*
X476772D03*
X474409D03*
X472047D03*
X469685D03*
X467323D03*
X464961D03*
X462598D03*
X460236D03*
X457874D03*
X455512D03*
X453150D03*
X450787D03*
X448425D03*
X446063D03*
X443701D03*
X441339D03*
X438976D03*
X436614D03*
X434252D03*
X431890D03*
X429528D03*
X427165D03*
X424803D03*
X422441D03*
X420079D03*
X417717D03*
X415354D03*
X412992D03*
X410630D03*
X408268D03*
X405906D03*
X403543D03*
X401181D03*
X398819D03*
X396457D03*
X394094D03*
X391732D03*
X389370D03*
X387008D03*
X384646D03*
X382283D03*
X379921D03*
X377559D03*
X375197D03*
X372835D03*
G54D23*
X305315Y309843D03*
G54D24*
Y312205D03*
Y314567D03*
Y316929D03*
Y319291D03*
Y321654D03*
Y324016D03*
Y326378D03*
Y328740D03*
Y331102D03*
Y333465D03*
Y335827D03*
Y338189D03*
Y340551D03*
Y342913D03*
Y345276D03*
Y347638D03*
Y350000D03*
Y352362D03*
Y354724D03*
Y357087D03*
Y359449D03*
Y361811D03*
Y364173D03*
Y366535D03*
Y368898D03*
Y371260D03*
Y373622D03*
Y375984D03*
Y378346D03*
Y380709D03*
Y383071D03*
Y385433D03*
Y387795D03*
Y390157D03*
Y392520D03*
Y394882D03*
Y397244D03*
Y399606D03*
Y401969D03*
Y404331D03*
Y406693D03*
Y409055D03*
Y411417D03*
Y413780D03*
Y416142D03*
Y418504D03*
Y420866D03*
Y423228D03*
Y425591D03*
X327756D03*
Y423228D03*
Y420866D03*
Y418504D03*
Y416142D03*
Y413780D03*
Y411417D03*
Y409055D03*
Y406693D03*
Y404331D03*
Y401969D03*
Y399606D03*
Y397244D03*
Y394882D03*
Y392520D03*
Y390157D03*
Y387795D03*
Y385433D03*
Y383071D03*
Y380709D03*
Y378346D03*
Y375984D03*
Y373622D03*
Y371260D03*
Y368898D03*
Y366535D03*
Y364173D03*
Y361811D03*
Y359449D03*
Y357087D03*
Y354724D03*
Y352362D03*
Y350000D03*
Y347638D03*
Y345276D03*
Y342913D03*
Y340551D03*
Y338189D03*
Y335827D03*
Y333465D03*
Y331102D03*
Y328740D03*
Y326378D03*
Y324016D03*
Y321654D03*
Y319291D03*
Y316929D03*
Y314567D03*
Y312205D03*
Y309843D03*
G54D25*
X100000Y100000D02*
X117717D01*
X125591Y92126D02*
G75*
G03X117717Y100000I-7874J-0D01*
G01X125591Y92126D02*
Y48819D01*
G03X133465Y40945I7874J-0*
G01X186614*
G03X194488Y48819I0J7874*
G01Y56693*
X202362Y64567D02*
G03X194488Y56693I0J-7874D01*
G01X202362Y64567D02*
X430709D01*
X438583Y56693D02*
G03X430709Y64567I-7874J-0D01*
G01X438583Y56693D02*
Y48819D01*
G03X446457Y40945I7874J-0*
G01X499606*
G03X507480Y48819I0J7874*
G01Y92126*
X515354Y100000D02*
G03X507480Y92126I0J-7874D01*
G01X515354Y100000D02*
X533071D01*
Y204331*
X519660*
Y231890D02*
G03Y204331I-0J-13780D01*
G01Y231890D02*
X533071D01*
Y322441*
X519660*
Y350000D02*
G03Y322441I-0J-13780D01*
G01Y350000D02*
X533071D01*
Y446457*
X100000*
Y350000*
X113167*
Y322441D02*
G03Y350000I-0J13779D01*
G01Y322441D02*
X100000D01*
Y231890*
X113538*
Y204331D02*
G03Y231890I0J13779D01*
G01Y204331D02*
X100000D01*
Y100000*
X463189Y235827D02*
G03X461220Y233858I-0J-1969D01*
G01X463189Y235827D02*
X482874D01*
X484843Y233858D02*
G03X482874Y235827I-1969J0D01*
G01X484843Y233858D02*
Y228937D01*
X482874Y226969D02*
G03X484843Y228937I0J1968D01*
G01X482874Y226969D02*
X463189D01*
X461220Y228937D02*
G03X463189Y226969I1969J0D01*
G01X461220Y228937D02*
Y233858D01*
X134449Y291929D02*
G03X132480Y289961I-0J-1968D01*
G01X134449Y291929D02*
X144291D01*
X146260Y289961D02*
G03X144291Y291929I-1969J-0D01*
G01X146260Y289961D02*
Y269291D01*
X144291Y267323D02*
G03X146260Y269291I0J1968D01*
G01X144291Y267323D02*
X134449D01*
X132480Y269291D02*
G03X134449Y267323I1969J0D01*
G01X132480Y269291D02*
Y289961D01*
X445472Y269291D02*
G03X447441Y267323I1969J0D01*
G01X457283*
G03X459252Y269291I0J1968*
G01Y289961*
G03X457283Y291929I-1969J-0*
G01X447441*
G03X445472Y289961I-0J-1968*
G01Y269291*
X175787Y291929D02*
G03X173819Y289961I0J-1968D01*
G01X175787Y291929D02*
X185630D01*
X187598Y289961D02*
G03X185630Y291929I-1968J-0D01*
G01X187598Y289961D02*
Y269291D01*
X185630Y267323D02*
G03X187598Y269291I-0J1968D01*
G01X185630Y267323D02*
X175787D01*
X173819Y269291D02*
G03X175787Y267323I1968J0D01*
G01X173819Y269291D02*
Y289961D01*
X488780Y291929D02*
G03X486811Y289961I-0J-1968D01*
G01X488780Y291929D02*
X498622D01*
X500591Y289961D02*
G03X498622Y291929I-1969J-0D01*
G01X500591Y289961D02*
Y269291D01*
X498622Y267323D02*
G03X500591Y269291I0J1968D01*
G01X498622Y267323D02*
X488780D01*
X486811Y269291D02*
G03X488780Y267323I1969J0D01*
G01X486811Y269291D02*
Y289961D01*
X150197Y235827D02*
G03X148228Y233858I-0J-1969D01*
G01X150197Y235827D02*
X169882D01*
X171850Y233858D02*
G03X169882Y235827I-1968J0D01*
G01X171850Y233858D02*
Y228937D01*
X169882Y226969D02*
G03X171850Y228937I-0J1968D01*
G01X169882Y226969D02*
X150197D01*
X148228Y228937D02*
G03X150197Y226969I1969J0D01*
G01X148228Y228937D02*
Y233858D01*
G54D26*
X445612Y206299D03*
X459112D03*
X422482Y211220D03*
X435982D03*
X423959Y180709D03*
X437459D03*
X273860Y296358D03*
X287360D03*
X179954Y251329D03*
X166454D03*
X184014Y217864D03*
X170514D03*
X419530Y196949D03*
X433030D03*
X434785Y251575D03*
X448285D03*
X440199Y224508D03*
X453699D03*
X434785Y238287D03*
X448285D03*
G54D27*
X256004Y269923D03*
Y283423D03*
X214296Y197581D03*
Y211081D03*
X435876Y264879D03*
Y278379D03*
G54D30*
X464665Y65551D03*
Y73425D03*
X478937Y65551D03*
Y73425D03*
X151673Y65551D03*
Y73425D03*
X165945Y65551D03*
Y73425D03*
X431693Y220571D03*
Y228445D03*
X281102Y269783D03*
Y277657D03*
X424803Y373007D03*
Y380881D03*
Y395153D03*
Y387279D03*
G54D31*
X171358Y104306D03*
Y80684D03*
X147736Y104306D03*
Y80684D03*
G54D32*
X441831Y163484D03*
X456988D03*
X452534Y189936D03*
X467692D03*
X250664Y305217D03*
X235507D03*
G54D33*
X409055Y359490D03*
Y372990D03*
G54D34*
X477121Y271675D03*
X473184D03*
X469247D03*
X465310D03*
X481058Y275612D03*
X477121D03*
X473184D03*
X469247D03*
X465310D03*
X481058Y279549D03*
X477121D03*
X473184D03*
X469247D03*
X465310D03*
X481058Y283486D03*
X477121D03*
X473184D03*
X469247D03*
X465310D03*
X481058Y287423D03*
X477121D03*
X473184D03*
X469247D03*
X465310D03*
X163729Y271883D03*
X159792D03*
X155855D03*
X151918D03*
X167666Y275820D03*
X163729D03*
X159792D03*
X155855D03*
X151918D03*
X167666Y279757D03*
X163729D03*
X159792D03*
X155855D03*
X151918D03*
X167666Y283694D03*
X163729D03*
X159792D03*
X155855D03*
X151918D03*
X167666Y287631D03*
X163729D03*
X159792D03*
X155855D03*
X151918D03*
G54D36*
X401280Y377264D03*
X396161D03*
X398720Y368996D03*
X222933Y356939D03*
X228051D03*
X225492Y365207D03*
X343947Y337156D03*
X338829D03*
X341388Y328888D03*
G54D38*
X242717Y74262D03*
X246654D03*
X250591D03*
Y84892D03*
X246654D03*
X242717D03*
G54D39*
X246654Y79577D03*
G54D40*
X159744Y343602D03*
Y341634D03*
Y339665D03*
Y337697D03*
X171161D03*
Y339665D03*
Y341634D03*
Y343602D03*
G54D41*
X165453Y340650D03*
G54D42*
X155733Y162918D03*
X157702D03*
X159670D03*
X161639D03*
X163607D03*
X165576D03*
X167544D03*
X169513D03*
Y182013D03*
X167544D03*
X165576D03*
X163607D03*
X161639D03*
X159670D03*
X157702D03*
X155733D03*
G54D43*
X172170Y165576D03*
Y167544D03*
Y169513D03*
Y171481D03*
Y173450D03*
Y175418D03*
Y177387D03*
Y179355D03*
X153076D03*
Y177387D03*
Y175418D03*
Y173450D03*
Y171481D03*
Y169513D03*
Y167544D03*
Y165576D03*
G54D44*
X162623Y172466D03*
G54D47*
X144975Y175497D03*
Y181245D03*
X140408D03*
Y175497D03*
G54D48*
X234843Y271260D03*
Y269291D03*
Y267323D03*
Y265354D03*
Y263386D03*
Y261417D03*
Y259449D03*
Y257480D03*
Y255512D03*
Y253543D03*
Y251575D03*
Y249606D03*
Y247638D03*
Y245669D03*
Y243701D03*
Y241732D03*
Y239764D03*
Y237795D03*
Y235827D03*
Y233858D03*
Y231890D03*
Y229921D03*
Y227953D03*
X232874Y271260D03*
Y269291D03*
Y267323D03*
Y265354D03*
Y263386D03*
Y261417D03*
Y259449D03*
Y257480D03*
Y255512D03*
Y253543D03*
Y251575D03*
Y249606D03*
Y247638D03*
Y245669D03*
Y243701D03*
Y241732D03*
Y239764D03*
Y237795D03*
Y235827D03*
Y233858D03*
Y231890D03*
Y229921D03*
Y227953D03*
X230906Y271260D03*
Y269291D03*
Y229921D03*
Y227953D03*
X228937Y271260D03*
Y269291D03*
Y229921D03*
Y227953D03*
X226969Y271260D03*
Y269291D03*
Y229921D03*
Y227953D03*
X225000Y271260D03*
Y269291D03*
Y229921D03*
Y227953D03*
X223031Y271260D03*
Y269291D03*
Y229921D03*
Y227953D03*
X221063Y271260D03*
Y269291D03*
Y229921D03*
Y227953D03*
X219094Y271260D03*
Y269291D03*
Y229921D03*
Y227953D03*
X217126Y271260D03*
Y269291D03*
Y229921D03*
Y227953D03*
X215157Y271260D03*
Y269291D03*
Y229921D03*
Y227953D03*
X213189Y271260D03*
Y269291D03*
Y229921D03*
Y227953D03*
X211220Y271260D03*
Y269291D03*
Y229921D03*
Y227953D03*
X209252Y271260D03*
Y269291D03*
Y229921D03*
Y227953D03*
X207283Y271260D03*
Y269291D03*
Y229921D03*
Y227953D03*
X205315Y271260D03*
Y269291D03*
Y229921D03*
Y227953D03*
X203346Y271260D03*
Y269291D03*
Y229921D03*
Y227953D03*
X201378Y271260D03*
Y269291D03*
Y229921D03*
Y227953D03*
X199409Y271260D03*
Y269291D03*
Y229921D03*
Y227953D03*
X197441Y271260D03*
Y269291D03*
Y229921D03*
Y227953D03*
X195472Y271260D03*
Y269291D03*
Y229921D03*
Y227953D03*
X193504Y271260D03*
Y269291D03*
Y267323D03*
Y265354D03*
Y263386D03*
Y261417D03*
Y259449D03*
Y257480D03*
Y255512D03*
Y253543D03*
Y251575D03*
Y249606D03*
Y247638D03*
Y245669D03*
Y243701D03*
Y241732D03*
Y239764D03*
Y237795D03*
Y235827D03*
Y233858D03*
Y231890D03*
Y229921D03*
Y227953D03*
X191535Y271260D03*
Y269291D03*
Y267323D03*
Y265354D03*
Y263386D03*
Y261417D03*
Y259449D03*
Y257480D03*
Y255512D03*
Y253543D03*
Y251575D03*
Y249606D03*
Y247638D03*
Y245669D03*
Y243701D03*
Y241732D03*
Y239764D03*
Y237795D03*
Y235827D03*
Y233858D03*
Y231890D03*
Y229921D03*
Y227953D03*
G54D49*
X408563Y309695D03*
X176280Y353740D03*
G54D50*
X408563Y312254D03*
Y314813D03*
Y317372D03*
Y319931D03*
Y322490D03*
Y325049D03*
Y327608D03*
X382972D03*
Y325049D03*
Y322490D03*
Y319931D03*
Y317372D03*
Y314813D03*
Y312254D03*
Y309695D03*
X176280Y356299D03*
Y358858D03*
Y361417D03*
Y363976D03*
Y366535D03*
Y369094D03*
Y371654D03*
X150689D03*
Y369094D03*
Y366535D03*
Y363976D03*
Y361417D03*
Y358858D03*
Y356299D03*
Y353740D03*
G54D53*
X274409Y406988D03*
Y412106D03*
X266142Y409547D03*
X234646Y365600D03*
Y360482D03*
X242913Y363041D03*
G54D54*
X256083Y409528D03*
Y428268D03*
G54D55*
X227953Y418898D03*
G54D56*
X380925Y367037D03*
Y363287D03*
Y359537D03*
X390925D03*
Y367037D03*
X356811Y361624D03*
Y357874D03*
Y354124D03*
X366811D03*
Y361624D03*
X356811Y387707D03*
Y383957D03*
Y380207D03*
X366811D03*
Y387707D03*
X203514Y167111D03*
Y163361D03*
Y159611D03*
X213514D03*
Y167111D03*
G54D63*
X326498Y71398D02*
Y69792D01*
X326517Y69811*
X323729*
X323748Y69792*
Y71398*
X323729Y71380*
X326517*
X326498Y71398*
X323748Y69792D02*
X323748D01*
X326498D02*
X326498D01*
X323748Y70192D02*
X326498D01*
X323748Y70592D02*
X326498D01*
X323748Y70992D02*
X326498D01*
X323742Y71392D02*
X323748D01*
X326498D02*
X326504D01*
X324000Y69811D02*
Y71380D01*
X324400Y69811D02*
Y71380D01*
X324800Y69811D02*
Y71380D01*
X325200Y69811D02*
Y71380D01*
X325600Y69811D02*
Y71380D01*
X326000Y69811D02*
Y71380D01*
X326400Y69811D02*
Y71380D01*
X321380Y71398D02*
Y69792D01*
X321398Y69811*
X318611*
X318630Y69792*
Y71398*
X318611Y71380*
X321398*
X321380Y71398*
X318630Y69792D02*
X318630D01*
X321380D02*
X321380D01*
X318630Y70192D02*
X321380D01*
X318630Y70592D02*
X321380D01*
X318630Y70992D02*
X321380D01*
X318624Y71392D02*
X318630D01*
X321380D02*
X321386D01*
X318800Y69811D02*
Y71380D01*
X319200Y69811D02*
Y71380D01*
X319600Y69811D02*
Y71380D01*
X320000Y69811D02*
Y71380D01*
X320400Y69811D02*
Y71380D01*
X320800Y69811D02*
Y71380D01*
X321200Y69811D02*
Y71380D01*
X306938Y84157D02*
X308074Y83021D01*
Y83047*
X306103Y81077*
X306130*
X304994Y82212*
Y82186*
X306965Y84157*
X306938*
X306103Y81077D02*
X306130D01*
X305730Y81477D02*
X306503D01*
X305330Y81877D02*
X306903D01*
X305085Y82277D02*
X307303D01*
X305485Y82677D02*
X307703D01*
X305885Y83077D02*
X308018D01*
X306285Y83477D02*
X307618D01*
X306685Y83877D02*
X307218D01*
X305200Y82006D02*
Y82392D01*
X305600Y81606D02*
Y82792D01*
X306000Y81206D02*
Y83192D01*
X306400Y81374D02*
Y83592D01*
X306800Y81774D02*
Y83992D01*
X307200Y82174D02*
Y83895D01*
X307600Y82574D02*
Y83495D01*
X308000Y82974D02*
Y83095D01*
X303319Y80537D02*
X304455Y79402D01*
Y79428*
X302484Y77458*
X302511*
X301375Y78593*
Y78567*
X303346Y80537*
X303319*
X302484Y77458D02*
X302511D01*
X302111Y77858D02*
X302884D01*
X301711Y78258D02*
X303284D01*
X301466Y78658D02*
X303684D01*
X301866Y79058D02*
X304084D01*
X302266Y79458D02*
X304399D01*
X302666Y79858D02*
X303999D01*
X303066Y80258D02*
X303599D01*
X301600Y78368D02*
Y78792D01*
X302000Y77968D02*
Y79192D01*
X302400Y77568D02*
Y79592D01*
X302800Y77774D02*
Y79992D01*
X303200Y78174D02*
Y80392D01*
X303600Y78574D02*
Y80257D01*
X304000Y78974D02*
Y79857D01*
X304400Y79374D02*
Y79457D01*
X372327Y377064D02*
X373933D01*
X373914Y377083*
Y374295*
X373933Y374314*
X372327*
X372346Y374295*
Y377083*
X372327Y377064*
X372346Y374400D02*
X373914D01*
X372346Y374800D02*
X373914D01*
X372346Y375200D02*
X373914D01*
X372346Y375600D02*
X373914D01*
X372346Y376000D02*
X373914D01*
X372346Y376400D02*
X373914D01*
X372346Y376800D02*
X373914D01*
X372400Y374314D02*
Y377064D01*
X372800Y374314D02*
Y377064D01*
X373200Y374314D02*
Y377064D01*
X373600Y374314D02*
Y377064D01*
X372327Y371946D02*
X373933D01*
X373914Y371964*
Y369177*
X373933Y369196*
X372327*
X372346Y369177*
Y371964*
X372327Y371946*
X372346Y369200D02*
X373914D01*
X372346Y369600D02*
X373914D01*
X372346Y370000D02*
X373914D01*
X372346Y370400D02*
X373914D01*
X372346Y370800D02*
X373914D01*
X372346Y371200D02*
X373914D01*
X372346Y371600D02*
X373914D01*
X372400Y369196D02*
Y371946D01*
X372800Y369196D02*
Y371946D01*
X373200Y369196D02*
Y371946D01*
X373600Y369196D02*
Y371946D01*
X251209Y242529D02*
Y244135D01*
X251190Y244116*
X253977*
X253958Y244135*
Y242529*
X253977Y242547*
X251190*
X251209Y242529*
Y242800D02*
X253958D01*
X251209Y243200D02*
X253958D01*
X251209Y243600D02*
X253958D01*
X251209Y244000D02*
X253958D01*
X251200Y242538D02*
Y242547D01*
Y244116D02*
Y244126D01*
X251600Y242547D02*
Y244116D01*
X252000Y242547D02*
Y244116D01*
X252400Y242547D02*
Y244116D01*
X252800Y242547D02*
Y244116D01*
X253200Y242547D02*
Y244116D01*
X253600Y242547D02*
Y244116D01*
X256327Y242529D02*
Y244135D01*
X256308Y244116*
X259095*
X259077Y244135*
Y242529*
X259095Y242547*
X256308*
X256327Y242529*
Y242800D02*
X259077D01*
X256327Y243200D02*
X259077D01*
X256327Y243600D02*
X259077D01*
X256327Y244000D02*
X259077D01*
X256400Y242547D02*
Y244116D01*
X256800Y242547D02*
Y244116D01*
X257200Y242547D02*
Y244116D01*
X257600Y242547D02*
Y244116D01*
X258000Y242547D02*
Y244116D01*
X258400Y242547D02*
Y244116D01*
X258800Y242547D02*
Y244116D01*
X389865Y293587D02*
Y295193D01*
X389847Y295174*
X392634*
X392615Y295193*
Y293587*
X392634Y293606*
X389847*
X389865Y293587*
X389852Y293600D02*
X389865D01*
X392615D02*
X392628D01*
X389865Y294000D02*
X392615D01*
X389865Y294400D02*
X392615D01*
X389865Y294800D02*
X392615D01*
X390000Y293606D02*
Y295174D01*
X390400Y293606D02*
Y295174D01*
X390800Y293606D02*
Y295174D01*
X391200Y293606D02*
Y295174D01*
X391600Y293606D02*
Y295174D01*
X392000Y293606D02*
Y295174D01*
X392400Y293606D02*
Y295174D01*
X394983Y293587D02*
Y295193D01*
X394965Y295174*
X397752*
X397733Y295193*
Y293587*
X397752Y293606*
X394965*
X394983Y293587*
X394970Y293600D02*
X394983D01*
X397733D02*
X397746D01*
X394983Y294000D02*
X397733D01*
X394983Y294400D02*
X397733D01*
X394983Y294800D02*
X397733D01*
X395200Y293606D02*
Y295174D01*
X395600Y293606D02*
Y295174D01*
X396000Y293606D02*
Y295174D01*
X396400Y293606D02*
Y295174D01*
X396800Y293606D02*
Y295174D01*
X397200Y293606D02*
Y295174D01*
X397600Y293606D02*
Y295174D01*
X308049Y94094D02*
X316535Y85608D01*
X325022Y94094*
X316535Y102581*
X308049Y94094*
X316535Y85608D02*
X316535D01*
X316135Y86008D02*
X316935D01*
X315735Y86408D02*
X317335D01*
X315335Y86808D02*
X317735D01*
X314935Y87208D02*
X318135D01*
X314535Y87608D02*
X318535D01*
X314135Y88008D02*
X318935D01*
X313735Y88408D02*
X319335D01*
X313335Y88808D02*
X319735D01*
X312935Y89208D02*
X320135D01*
X312535Y89608D02*
X320535D01*
X312135Y90008D02*
X320935D01*
X311735Y90408D02*
X321335D01*
X311335Y90808D02*
X321735D01*
X310935Y91208D02*
X322135D01*
X310535Y91608D02*
X322535D01*
X310135Y92008D02*
X322935D01*
X309735Y92408D02*
X323335D01*
X309335Y92808D02*
X323735D01*
X308935Y93208D02*
X324135D01*
X308535Y93608D02*
X324535D01*
X308135Y94008D02*
X324935D01*
X308363Y94408D02*
X324708D01*
X308763Y94808D02*
X324308D01*
X309163Y95208D02*
X323908D01*
X309563Y95608D02*
X323508D01*
X309963Y96008D02*
X323108D01*
X310363Y96408D02*
X322708D01*
X310763Y96808D02*
X322308D01*
X311163Y97208D02*
X321908D01*
X311563Y97608D02*
X321508D01*
X311963Y98008D02*
X321108D01*
X312363Y98408D02*
X320708D01*
X312763Y98808D02*
X320308D01*
X313163Y99208D02*
X319908D01*
X313563Y99608D02*
X319508D01*
X313963Y100008D02*
X319108D01*
X314363Y100408D02*
X318708D01*
X314763Y100808D02*
X318308D01*
X315163Y101208D02*
X317908D01*
X315563Y101608D02*
X317508D01*
X315963Y102008D02*
X317108D01*
X316363Y102408D02*
X316708D01*
X308400Y93744D02*
Y94445D01*
X308800Y93344D02*
Y94845D01*
X309200Y92944D02*
Y95245D01*
X309600Y92544D02*
Y95645D01*
X310000Y92144D02*
Y96045D01*
X310400Y91744D02*
Y96445D01*
X310800Y91344D02*
Y96845D01*
X311200Y90944D02*
Y97245D01*
X311600Y90544D02*
Y97645D01*
X312000Y90144D02*
Y98045D01*
X312400Y89744D02*
Y98445D01*
X312800Y89344D02*
Y98845D01*
X313200Y88944D02*
Y99245D01*
X313600Y88544D02*
Y99645D01*
X314000Y88144D02*
Y100045D01*
X314400Y87744D02*
Y100445D01*
X314800Y87344D02*
Y100845D01*
X315200Y86944D02*
Y101245D01*
X315600Y86544D02*
Y101645D01*
X316000Y86144D02*
Y102045D01*
X316400Y85744D02*
Y102445D01*
X316800Y85873D02*
Y102316D01*
X317200Y86273D02*
Y101916D01*
X317600Y86673D02*
Y101516D01*
X318000Y87073D02*
Y101116D01*
X318400Y87473D02*
Y100716D01*
X318800Y87873D02*
Y100316D01*
X319200Y88273D02*
Y99916D01*
X319600Y88673D02*
Y99516D01*
X320000Y89073D02*
Y99116D01*
X320400Y89473D02*
Y98716D01*
X320800Y89873D02*
Y98316D01*
X321200Y90273D02*
Y97916D01*
X321600Y90673D02*
Y97516D01*
X322000Y91073D02*
Y97116D01*
X322400Y91473D02*
Y96716D01*
X322800Y91873D02*
Y96316D01*
X323200Y92273D02*
Y95916D01*
X323600Y92673D02*
Y95516D01*
X324000Y93073D02*
Y95116D01*
X324400Y93473D02*
Y94716D01*
X324800Y93873D02*
Y94316D01*
X176775Y175354D02*
Y176959D01*
X176756Y176941*
X179543*
X179524Y176959*
Y175354*
X179543Y175372*
X176756*
X176775Y175354*
Y175600D02*
X179524D01*
X176775Y176000D02*
X179524D01*
X176775Y176400D02*
X179524D01*
X176775Y176800D02*
X179524D01*
X176800Y175372D02*
Y176941D01*
X177200Y175372D02*
Y176941D01*
X177600Y175372D02*
Y176941D01*
X178000Y175372D02*
Y176941D01*
X178400Y175372D02*
Y176941D01*
X178800Y175372D02*
Y176941D01*
X179200Y175372D02*
Y176941D01*
X181893Y175354D02*
Y176959D01*
X181874Y176941*
X184661*
X184643Y176959*
Y175354*
X184661Y175372*
X181874*
X181893Y175354*
Y175600D02*
X184643D01*
X181893Y176000D02*
X184643D01*
X181893Y176400D02*
X184643D01*
X181893Y176800D02*
X184643D01*
X182000Y175372D02*
Y176941D01*
X182400Y175372D02*
Y176941D01*
X182800Y175372D02*
Y176941D01*
X183200Y175372D02*
Y176941D01*
X183600Y175372D02*
Y176941D01*
X184000Y175372D02*
Y176941D01*
X184400Y175372D02*
Y176941D01*
X147364Y162688D02*
Y161082D01*
X147383Y161101*
X144596*
X144614Y161082*
Y162688*
X144596Y162669*
X147383*
X147364Y162688*
X144614Y161200D02*
X147364D01*
X144614Y161600D02*
X147364D01*
X144614Y162000D02*
X147364D01*
X144614Y162400D02*
X147364D01*
X144800Y161101D02*
Y162669D01*
X145200Y161101D02*
Y162669D01*
X145600Y161101D02*
Y162669D01*
X146000Y161101D02*
Y162669D01*
X146400Y161101D02*
Y162669D01*
X146800Y161101D02*
Y162669D01*
X147200Y161101D02*
Y162669D01*
X142246Y162688D02*
Y161082D01*
X142265Y161101*
X139478*
X139496Y161082*
Y162688*
X139478Y162669*
X142265*
X142246Y162688*
X139496Y161200D02*
X142246D01*
X139496Y161600D02*
X142246D01*
X139496Y162000D02*
X142246D01*
X139496Y162400D02*
X142246D01*
X139600Y161101D02*
Y162669D01*
X140000Y161101D02*
Y162669D01*
X140400Y161101D02*
Y162669D01*
X140800Y161101D02*
Y162669D01*
X141200Y161101D02*
Y162669D01*
X141600Y161101D02*
Y162669D01*
X142000Y161101D02*
Y162669D01*
X139250Y189133D02*
Y190739D01*
X139231Y190720*
X142019*
X142000Y190739*
Y189133*
X142019Y189152*
X139231*
X139250Y189133*
Y189200D02*
X142000D01*
X139250Y189600D02*
X142000D01*
X139250Y190000D02*
X142000D01*
X139250Y190400D02*
X142000D01*
X139600Y189152D02*
Y190720D01*
X140000Y189152D02*
Y190720D01*
X140400Y189152D02*
Y190720D01*
X140800Y189152D02*
Y190720D01*
X141200Y189152D02*
Y190720D01*
X141600Y189152D02*
Y190720D01*
X142000Y189133D02*
Y189152D01*
Y190720D02*
Y190739D01*
X144368Y189133D02*
Y190739D01*
X144350Y190720*
X147137*
X147118Y190739*
Y189133*
X147137Y189152*
X144350*
X144368Y189133*
Y189200D02*
X147118D01*
X144368Y189600D02*
X147118D01*
X144368Y190000D02*
X147118D01*
X144368Y190400D02*
X147118D01*
X144400Y189152D02*
Y190720D01*
X144800Y189152D02*
Y190720D01*
X145200Y189152D02*
Y190720D01*
X145600Y189152D02*
Y190720D01*
X146000Y189152D02*
Y190720D01*
X146400Y189152D02*
Y190720D01*
X146800Y189152D02*
Y190720D01*
X146503Y172038D02*
Y170432D01*
X146521Y170451*
X143734*
X143753Y170432*
Y172038*
X143734Y172019*
X146521*
X146503Y172038*
X143753Y170800D02*
X146503D01*
X143753Y171200D02*
X146503D01*
X143753Y171600D02*
X146503D01*
X143753Y172000D02*
X146503D01*
X144000Y170451D02*
Y172019D01*
X144400Y170451D02*
Y172019D01*
X144800Y170451D02*
Y172019D01*
X145200Y170451D02*
Y172019D01*
X145600Y170451D02*
Y172019D01*
X146000Y170451D02*
Y172019D01*
X146400Y170451D02*
Y172019D01*
X141385Y172038D02*
Y170432D01*
X141403Y170451*
X138616*
X138635Y170432*
Y172038*
X138616Y172019*
X141403*
X141385Y172038*
X138635Y170800D02*
X141385D01*
X138635Y171200D02*
X141385D01*
X138635Y171600D02*
X141385D01*
X138635Y172000D02*
X141385D01*
X138800Y170451D02*
Y172019D01*
X139200Y170451D02*
Y172019D01*
X139600Y170451D02*
Y172019D01*
X140000Y170451D02*
Y172019D01*
X140400Y170451D02*
Y172019D01*
X140800Y170451D02*
Y172019D01*
X141200Y170451D02*
Y172019D01*
X146380Y186310D02*
Y184704D01*
X146398Y184723*
X143611*
X143630Y184704*
Y186310*
X143611Y186291*
X146398*
X146380Y186310*
X143630Y184800D02*
X146380D01*
X143630Y185200D02*
X146380D01*
X143630Y185600D02*
X146380D01*
X143630Y186000D02*
X146380D01*
X144000Y184723D02*
Y186291D01*
X144400Y184723D02*
Y186291D01*
X144800Y184723D02*
Y186291D01*
X145200Y184723D02*
Y186291D01*
X145600Y184723D02*
Y186291D01*
X146000Y184723D02*
Y186291D01*
X141262Y186310D02*
Y184704D01*
X141280Y184723*
X138493*
X138512Y184704*
Y186310*
X138493Y186291*
X141280*
X141262Y186310*
X138512Y184800D02*
X141262D01*
X138512Y185200D02*
X141262D01*
X138512Y185600D02*
X141262D01*
X138512Y186000D02*
X141262D01*
X138800Y184723D02*
Y186291D01*
X139200Y184723D02*
Y186291D01*
X139600Y184723D02*
Y186291D01*
X140000Y184723D02*
Y186291D01*
X140400Y184723D02*
Y186291D01*
X140800Y184723D02*
Y186291D01*
X141200Y184723D02*
Y186291D01*
X160260Y189149D02*
Y187543D01*
X160278Y187562*
X157491*
X157510Y187543*
Y189149*
X157491Y189130*
X160278*
X160260Y189149*
X157510Y187600D02*
X160260D01*
X157510Y188000D02*
X160260D01*
X157510Y188400D02*
X160260D01*
X157510Y188800D02*
X160260D01*
X157600Y187562D02*
Y189130D01*
X158000Y187562D02*
Y189130D01*
X158400Y187562D02*
Y189130D01*
X158800Y187562D02*
Y189130D01*
X159200Y187562D02*
Y189130D01*
X159600Y187562D02*
Y189130D01*
X160000Y187562D02*
Y189130D01*
X155142Y189149D02*
Y187543D01*
X155160Y187562*
X152373*
X152392Y187543*
Y189149*
X152373Y189130*
X155160*
X155142Y189149*
X152392Y187600D02*
X155142D01*
X152392Y188000D02*
X155142D01*
X152392Y188400D02*
X155142D01*
X152392Y188800D02*
X155142D01*
X152400Y187562D02*
Y189130D01*
X152800Y187562D02*
Y189130D01*
X153200Y187562D02*
Y189130D01*
X153600Y187562D02*
Y189130D01*
X154000Y187562D02*
Y189130D01*
X154400Y187562D02*
Y189130D01*
X154800Y187562D02*
Y189130D01*
X146872Y167117D02*
Y165511D01*
X146891Y165530*
X144104*
X144122Y165511*
Y167117*
X144104Y167098*
X146891*
X146872Y167117*
X144122Y165600D02*
X146872D01*
X144122Y166000D02*
X146872D01*
X144122Y166400D02*
X146872D01*
X144122Y166800D02*
X146872D01*
X144400Y165530D02*
Y167098D01*
X144800Y165530D02*
Y167098D01*
X145200Y165530D02*
Y167098D01*
X145600Y165530D02*
Y167098D01*
X146000Y165530D02*
Y167098D01*
X146400Y165530D02*
Y167098D01*
X146800Y165530D02*
Y167098D01*
X141754Y167117D02*
Y165511D01*
X141772Y165530*
X138985*
X139004Y165511*
Y167117*
X138985Y167098*
X141772*
X141754Y167117*
X139004Y165600D02*
X141754D01*
X139004Y166000D02*
X141754D01*
X139004Y166400D02*
X141754D01*
X139004Y166800D02*
X141754D01*
X139200Y165530D02*
Y167098D01*
X139600Y165530D02*
Y167098D01*
X140000Y165530D02*
Y167098D01*
X140400Y165530D02*
Y167098D01*
X140800Y165530D02*
Y167098D01*
X141200Y165530D02*
Y167098D01*
X141600Y165530D02*
Y167098D01*
X207348Y92129D02*
X205742D01*
X205761Y92110*
Y94897*
X205742Y94879*
X207348*
X207330Y94897*
Y92110*
X207348Y92129*
X205761Y92110D02*
X205761D01*
X207330D02*
X207330D01*
X205761Y92510D02*
X207330D01*
X205761Y92910D02*
X207330D01*
X205761Y93310D02*
X207330D01*
X205761Y93710D02*
X207330D01*
X205761Y94110D02*
X207330D01*
X205761Y94510D02*
X207330D01*
X206000Y92129D02*
Y94879D01*
X206400Y92129D02*
Y94879D01*
X206800Y92129D02*
Y94879D01*
X207200Y92129D02*
Y94879D01*
X207348Y97247D02*
X205742D01*
X205761Y97229*
Y100016*
X205742Y99997*
X207348*
X207330Y100016*
Y97229*
X207348Y97247*
X205761Y97229D02*
X205761D01*
X207330D02*
X207330D01*
X205761Y97629D02*
X207330D01*
X205761Y98029D02*
X207330D01*
X205761Y98429D02*
X207330D01*
X205761Y98829D02*
X207330D01*
X205761Y99229D02*
X207330D01*
X205761Y99629D02*
X207330D01*
X206000Y97247D02*
Y99997D01*
X206400Y97247D02*
Y99997D01*
X206800Y97247D02*
Y99997D01*
X207200Y97247D02*
Y99997D01*
X395001Y423306D02*
X396607D01*
X396588Y423325*
Y420538*
X396607Y420557*
X395001*
X395020Y420538*
Y423325*
X395001Y423306*
X395020Y420800D02*
X396588D01*
X395020Y421200D02*
X396588D01*
X395020Y421600D02*
X396588D01*
X395020Y422000D02*
X396588D01*
X395020Y422400D02*
X396588D01*
X395020Y422800D02*
X396588D01*
X395020Y423200D02*
X396588D01*
X395200Y420557D02*
Y423306D01*
X395600Y420557D02*
Y423306D01*
X396000Y420557D02*
Y423306D01*
X396400Y420557D02*
Y423306D01*
X395001Y418188D02*
X396607D01*
X396588Y418207*
Y415420*
X396607Y415439*
X395001*
X395020Y415420*
Y418207*
X395001Y418188*
X395020Y415600D02*
X396588D01*
X395020Y416000D02*
X396588D01*
X395020Y416400D02*
X396588D01*
X395020Y416800D02*
X396588D01*
X395020Y417200D02*
X396588D01*
X395020Y417600D02*
X396588D01*
X395020Y418000D02*
X396588D01*
X395200Y415439D02*
Y418188D01*
X395600Y415439D02*
Y418188D01*
X396000Y415439D02*
Y418188D01*
X396400Y415439D02*
Y418188D01*
X399430Y423306D02*
X401036D01*
X401017Y423325*
Y420538*
X401036Y420557*
X399430*
X399449Y420538*
Y423325*
X399430Y423306*
X399449Y420800D02*
X401017D01*
X399449Y421200D02*
X401017D01*
X399449Y421600D02*
X401017D01*
X399449Y422000D02*
X401017D01*
X399449Y422400D02*
X401017D01*
X399449Y422800D02*
X401017D01*
X399449Y423200D02*
X401017D01*
X399600Y420557D02*
Y423306D01*
X400000Y420557D02*
Y423306D01*
X400400Y420557D02*
Y423306D01*
X400800Y420557D02*
Y423306D01*
X399430Y418188D02*
X401036D01*
X401017Y418207*
Y415420*
X401036Y415439*
X399430*
X399449Y415420*
Y418207*
X399430Y418188*
X399449Y415600D02*
X401017D01*
X399449Y416000D02*
X401017D01*
X399449Y416400D02*
X401017D01*
X399449Y416800D02*
X401017D01*
X399449Y417200D02*
X401017D01*
X399449Y417600D02*
X401017D01*
X399449Y418000D02*
X401017D01*
X399600Y415439D02*
Y418188D01*
X400000Y415439D02*
Y418188D01*
X400400Y415439D02*
Y418188D01*
X400800Y415439D02*
Y418188D01*
X416803Y225188D02*
Y223582D01*
X416822Y223601*
X414035*
X414053Y223582*
Y225188*
X414035Y225169*
X416822*
X416803Y225188*
X414035Y223600D02*
X414053D01*
X416803D02*
X416821D01*
X414053Y224000D02*
X416803D01*
X414053Y224400D02*
X416803D01*
X414053Y224800D02*
X416803D01*
X414400Y223601D02*
Y225169D01*
X414800Y223601D02*
Y225169D01*
X415200Y223601D02*
Y225169D01*
X415600Y223601D02*
Y225169D01*
X416000Y223601D02*
Y225169D01*
X416400Y223601D02*
Y225169D01*
X416800Y223601D02*
Y225169D01*
X411685Y225188D02*
Y223582D01*
X411704Y223601*
X408917*
X408935Y223582*
Y225188*
X408917Y225169*
X411704*
X411685Y225188*
X408917Y223600D02*
X408935D01*
X411685D02*
X411703D01*
X408935Y224000D02*
X411685D01*
X408935Y224400D02*
X411685D01*
X408935Y224800D02*
X411685D01*
X409200Y223601D02*
Y225169D01*
X409600Y223601D02*
Y225169D01*
X410000Y223601D02*
Y225169D01*
X410400Y223601D02*
Y225169D01*
X410800Y223601D02*
Y225169D01*
X411200Y223601D02*
Y225169D01*
X411600Y223601D02*
Y225169D01*
X420125Y220636D02*
Y219030D01*
X420144Y219048*
X417356*
X417375Y219030*
Y220636*
X417356Y220617*
X420144*
X420125Y220636*
X417375Y219200D02*
X420125D01*
X417375Y219600D02*
X420125D01*
X417375Y220000D02*
X420125D01*
X417375Y220400D02*
X420125D01*
X417600Y219048D02*
Y220617D01*
X418000Y219048D02*
Y220617D01*
X418400Y219048D02*
Y220617D01*
X418800Y219048D02*
Y220617D01*
X419200Y219048D02*
Y220617D01*
X419600Y219048D02*
Y220617D01*
X420000Y219048D02*
Y220617D01*
X415007Y220636D02*
Y219030D01*
X415025Y219048*
X412238*
X412257Y219030*
Y220636*
X412238Y220617*
X415025*
X415007Y220636*
X412257Y219200D02*
X415007D01*
X412257Y219600D02*
X415007D01*
X412257Y220000D02*
X415007D01*
X412257Y220400D02*
X415007D01*
X412400Y219048D02*
Y220617D01*
X412800Y219048D02*
Y220617D01*
X413200Y219048D02*
Y220617D01*
X413600Y219048D02*
Y220617D01*
X414000Y219048D02*
Y220617D01*
X414400Y219048D02*
Y220617D01*
X414800Y219048D02*
Y220617D01*
X208025Y280299D02*
Y281905D01*
X208006Y281887*
X210793*
X210774Y281905*
Y280299*
X210793Y280318*
X208006*
X208025Y280299*
Y280400D02*
X210774D01*
X208025Y280800D02*
X210774D01*
X208025Y281200D02*
X210774D01*
X208025Y281600D02*
X210774D01*
X208400Y280318D02*
Y281887D01*
X208800Y280318D02*
Y281887D01*
X209200Y280318D02*
Y281887D01*
X209600Y280318D02*
Y281887D01*
X210000Y280318D02*
Y281887D01*
X210400Y280318D02*
Y281887D01*
X213143Y280299D02*
Y281905D01*
X213124Y281887*
X215911*
X215893Y281905*
Y280299*
X215911Y280318*
X213124*
X213143Y280299*
Y280400D02*
X215893D01*
X213143Y280800D02*
X215893D01*
X213143Y281200D02*
X215893D01*
X213143Y281600D02*
X215893D01*
X213200Y280318D02*
Y281887D01*
X213600Y280318D02*
Y281887D01*
X214000Y280318D02*
Y281887D01*
X214400Y280318D02*
Y281887D01*
X214800Y280318D02*
Y281887D01*
X215200Y280318D02*
Y281887D01*
X215600Y280318D02*
Y281887D01*
X210910Y99997D02*
X212516D01*
X212497Y100016*
Y97229*
X212516Y97247*
X210910*
X210928Y97229*
Y100016*
X210910Y99997*
X210928Y97229D02*
X210928D01*
X212497D02*
X212497D01*
X210928Y97629D02*
X212497D01*
X210928Y98029D02*
X212497D01*
X210928Y98429D02*
X212497D01*
X210928Y98829D02*
X212497D01*
X210928Y99229D02*
X212497D01*
X210928Y99629D02*
X212497D01*
X211200Y97247D02*
Y99997D01*
X211600Y97247D02*
Y99997D01*
X212000Y97247D02*
Y99997D01*
X212400Y97247D02*
Y99997D01*
X210910Y94879D02*
X212516D01*
X212497Y94897*
Y92110*
X212516Y92129*
X210910*
X210928Y92110*
Y94897*
X210910Y94879*
X210928Y92110D02*
X210928D01*
X212497D02*
X212497D01*
X210928Y92510D02*
X212497D01*
X210928Y92910D02*
X212497D01*
X210928Y93310D02*
X212497D01*
X210928Y93710D02*
X212497D01*
X210928Y94110D02*
X212497D01*
X210928Y94510D02*
X212497D01*
X211200Y92129D02*
Y94879D01*
X211600Y92129D02*
Y94879D01*
X212000Y92129D02*
Y94879D01*
X212400Y92129D02*
Y94879D01*
X373065Y103442D02*
X374671D01*
X374652Y103460*
Y100673*
X374671Y100692*
X373065*
X373084Y100673*
Y103460*
X373065Y103442*
X373084Y100800D02*
X374652D01*
X373084Y101200D02*
X374652D01*
X373084Y101600D02*
X374652D01*
X373084Y102000D02*
X374652D01*
X373084Y102400D02*
X374652D01*
X373084Y102800D02*
X374652D01*
X373084Y103200D02*
X374652D01*
X373200Y100692D02*
Y103442D01*
X373600Y100692D02*
Y103442D01*
X374000Y100692D02*
Y103442D01*
X374400Y100692D02*
Y103442D01*
X373065Y98324D02*
X374671D01*
X374652Y98342*
Y95555*
X374671Y95574*
X373065*
X373084Y95555*
Y98342*
X373065Y98324*
X373084Y95555D02*
X373084D01*
X374652D02*
X374652D01*
X373084Y95955D02*
X374652D01*
X373084Y96355D02*
X374652D01*
X373084Y96755D02*
X374652D01*
X373084Y97155D02*
X374652D01*
X373084Y97555D02*
X374652D01*
X373084Y97955D02*
X374652D01*
X373200Y95574D02*
Y98324D01*
X373600Y95574D02*
Y98324D01*
X374000Y95574D02*
Y98324D01*
X374400Y95574D02*
Y98324D01*
X379100Y330072D02*
X377494D01*
X377513Y330053*
Y332840*
X377494Y332822*
X379100*
X379081Y332840*
Y330053*
X379100Y330072*
X377513Y330400D02*
X379081D01*
X377513Y330800D02*
X379081D01*
X377513Y331200D02*
X379081D01*
X377513Y331600D02*
X379081D01*
X377513Y332000D02*
X379081D01*
X377513Y332400D02*
X379081D01*
X377513Y332800D02*
X379081D01*
X377600Y330072D02*
Y332822D01*
X378000Y330072D02*
Y332822D01*
X378400Y330072D02*
Y332822D01*
X378800Y330072D02*
Y332822D01*
X379100Y335190D02*
X377494D01*
X377513Y335171*
Y337958*
X377494Y337940*
X379100*
X379081Y337958*
Y335171*
X379100Y335190*
X377513Y335200D02*
X379081D01*
X377513Y335600D02*
X379081D01*
X377513Y336000D02*
X379081D01*
X377513Y336400D02*
X379081D01*
X377513Y336800D02*
X379081D01*
X377513Y337200D02*
X379081D01*
X377513Y337600D02*
X379081D01*
X377600Y335190D02*
Y337940D01*
X378000Y335190D02*
Y337940D01*
X378400Y335190D02*
Y337940D01*
X378800Y335190D02*
Y337940D01*
X471060Y61433D02*
Y59827D01*
X471079Y59846*
X468292*
X468310Y59827*
Y61433*
X468292Y61414*
X471079*
X471060Y61433*
X468310Y59827D02*
X468310D01*
X471060D02*
X471060D01*
X468310Y60227D02*
X471060D01*
X468310Y60627D02*
X471060D01*
X468310Y61027D02*
X471060D01*
X468304Y61427D02*
X468310D01*
X471060D02*
X471066D01*
X468400Y59846D02*
Y61414D01*
X468800Y59846D02*
Y61414D01*
X469200Y59846D02*
Y61414D01*
X469600Y59846D02*
Y61414D01*
X470000Y59846D02*
Y61414D01*
X470400Y59846D02*
Y61414D01*
X470800Y59846D02*
Y61414D01*
X465942Y61433D02*
Y59827D01*
X465960Y59846*
X463173*
X463192Y59827*
Y61433*
X463173Y61414*
X465960*
X465942Y61433*
X463192Y59827D02*
X463192D01*
X465942D02*
X465942D01*
X463192Y60227D02*
X465942D01*
X463192Y60627D02*
X465942D01*
X463192Y61027D02*
X465942D01*
X463186Y61427D02*
X463192D01*
X465942D02*
X465948D01*
X463200Y59846D02*
Y61414D01*
X463600Y59846D02*
Y61414D01*
X464000Y59846D02*
Y61414D01*
X464400Y59846D02*
Y61414D01*
X464800Y59846D02*
Y61414D01*
X465200Y59846D02*
Y61414D01*
X465600Y59846D02*
Y61414D01*
X472543Y59827D02*
Y61433D01*
X472524Y61414*
X475311*
X475292Y61433*
Y59827*
X475311Y59846*
X472524*
X472543Y59827*
X472543*
X475292D02*
X475292D01*
X472543Y60227D02*
X475292D01*
X472543Y60627D02*
X475292D01*
X472543Y61027D02*
X475292D01*
X472537Y61427D02*
X472543D01*
X475292D02*
X475298D01*
X472800Y59846D02*
Y61414D01*
X473200Y59846D02*
Y61414D01*
X473600Y59846D02*
Y61414D01*
X474000Y59846D02*
Y61414D01*
X474400Y59846D02*
Y61414D01*
X474800Y59846D02*
Y61414D01*
X475200Y59846D02*
Y61414D01*
X477661Y59827D02*
Y61433D01*
X477642Y61414*
X480429*
X480410Y61433*
Y59827*
X480429Y59846*
X477642*
X477661Y59827*
X477661*
X480410D02*
X480410D01*
X477661Y60227D02*
X480410D01*
X477661Y60627D02*
X480410D01*
X477661Y61027D02*
X480410D01*
X477655Y61427D02*
X477661D01*
X480410D02*
X480416D01*
X478000Y59846D02*
Y61414D01*
X478400Y59846D02*
Y61414D01*
X478800Y59846D02*
Y61414D01*
X479200Y59846D02*
Y61414D01*
X479600Y59846D02*
Y61414D01*
X480000Y59846D02*
Y61414D01*
X480400Y59846D02*
Y61414D01*
X298884Y82287D02*
X297278D01*
X297296Y82268*
Y85055*
X297278Y85036*
X298884*
X298865Y85055*
Y82268*
X298884Y82287*
X297296Y82268D02*
X297296D01*
X298865D02*
X298865D01*
X297296Y82668D02*
X298865D01*
X297296Y83068D02*
X298865D01*
X297296Y83468D02*
X298865D01*
X297296Y83868D02*
X298865D01*
X297296Y84268D02*
X298865D01*
X297296Y84668D02*
X298865D01*
X297600Y82287D02*
Y85036D01*
X298000Y82287D02*
Y85036D01*
X298400Y82287D02*
Y85036D01*
X298800Y82287D02*
Y85036D01*
X298884Y87405D02*
X297278D01*
X297296Y87386*
Y90173*
X297278Y90154*
X298884*
X298865Y90173*
Y87386*
X298884Y87405*
X297296Y87386D02*
X297296D01*
X298865D02*
X298865D01*
X297296Y87786D02*
X298865D01*
X297296Y88186D02*
X298865D01*
X297296Y88586D02*
X298865D01*
X297296Y88986D02*
X298865D01*
X297296Y89386D02*
X298865D01*
X297296Y89786D02*
X298865D01*
X297600Y87405D02*
Y90154D01*
X298000Y87405D02*
Y90154D01*
X298400Y87405D02*
Y90154D01*
X298800Y87405D02*
Y90154D01*
X468784Y71454D02*
X470390D01*
X470371Y71472*
Y68685*
X470390Y68704*
X468784*
X468802Y68685*
Y71472*
X468784Y71454*
X468802Y68685D02*
X468802D01*
X470371D02*
X470371D01*
X468802Y69085D02*
X470371D01*
X468802Y69485D02*
X470371D01*
X468802Y69885D02*
X470371D01*
X468802Y70285D02*
X470371D01*
X468802Y70685D02*
X470371D01*
X468802Y71085D02*
X470371D01*
X468800Y68688D02*
Y68704D01*
Y71454D02*
Y71470D01*
X469200Y68704D02*
Y71454D01*
X469600Y68704D02*
Y71454D01*
X470000Y68704D02*
Y71454D01*
X468784Y66335D02*
X470390D01*
X470371Y66354*
Y63567*
X470390Y63586*
X468784*
X468802Y63567*
Y66354*
X468784Y66335*
X468802Y63567D02*
X468802D01*
X470371D02*
X470371D01*
X468802Y63967D02*
X470371D01*
X468802Y64367D02*
X470371D01*
X468802Y64767D02*
X470371D01*
X468802Y65167D02*
X470371D01*
X468802Y65567D02*
X470371D01*
X468802Y65967D02*
X470371D01*
X468800Y63569D02*
Y63586D01*
Y66335D02*
Y66352D01*
X469200Y63586D02*
Y66335D01*
X469600Y63586D02*
Y66335D01*
X470000Y63586D02*
Y66335D01*
X308665Y72622D02*
Y74228D01*
X308646Y74209*
X311433*
X311414Y74228*
Y72622*
X311433Y72641*
X308646*
X308665Y72622*
X308665*
X311414D02*
X311414D01*
X308665Y73022D02*
X311414D01*
X308665Y73422D02*
X311414D01*
X308665Y73822D02*
X311414D01*
X308659Y74222D02*
X308665D01*
X311414D02*
X311420D01*
X308800Y72641D02*
Y74209D01*
X309200Y72641D02*
Y74209D01*
X309600Y72641D02*
Y74209D01*
X310000Y72641D02*
Y74209D01*
X310400Y72641D02*
Y74209D01*
X310800Y72641D02*
Y74209D01*
X311200Y72641D02*
Y74209D01*
X313783Y72622D02*
Y74228D01*
X313764Y74209*
X316551*
X316532Y74228*
Y72622*
X316551Y72641*
X313764*
X313783Y72622*
X313783*
X316532D02*
X316532D01*
X313783Y73022D02*
X316532D01*
X313783Y73422D02*
X316532D01*
X313783Y73822D02*
X316532D01*
X313777Y74222D02*
X313783D01*
X316532D02*
X316538D01*
X314000Y72641D02*
Y74209D01*
X314400Y72641D02*
Y74209D01*
X314800Y72641D02*
Y74209D01*
X315200Y72641D02*
Y74209D01*
X315600Y72641D02*
Y74209D01*
X316000Y72641D02*
Y74209D01*
X316400Y72641D02*
Y74209D01*
X133277Y170617D02*
X134883D01*
X134864Y170636*
Y167849*
X134883Y167867*
X133277*
X133295Y167849*
Y170636*
X133277Y170617*
X133295Y168000D02*
X134864D01*
X133295Y168400D02*
X134864D01*
X133295Y168800D02*
X134864D01*
X133295Y169200D02*
X134864D01*
X133295Y169600D02*
X134864D01*
X133295Y170000D02*
X134864D01*
X133295Y170400D02*
X134864D01*
X133600Y167867D02*
Y170617D01*
X134000Y167867D02*
Y170617D01*
X134400Y167867D02*
Y170617D01*
X134800Y167867D02*
Y170617D01*
X133277Y165499D02*
X134883D01*
X134864Y165518*
Y162730*
X134883Y162749*
X133277*
X133295Y162730*
Y165518*
X133277Y165499*
X133295Y162800D02*
X134864D01*
X133295Y163200D02*
X134864D01*
X133295Y163600D02*
X134864D01*
X133295Y164000D02*
X134864D01*
X133295Y164400D02*
X134864D01*
X133295Y164800D02*
X134864D01*
X133295Y165200D02*
X134864D01*
X133600Y162749D02*
Y165499D01*
X134000Y162749D02*
Y165499D01*
X134400Y162749D02*
Y165499D01*
X134800Y162749D02*
Y165499D01*
X182988Y368458D02*
X181382D01*
X181401Y368439*
Y371226*
X181382Y371207*
X182988*
X182969Y371226*
Y368439*
X182988Y368458*
X181401Y368800D02*
X182969D01*
X181401Y369200D02*
X182969D01*
X181401Y369600D02*
X182969D01*
X181401Y370000D02*
X182969D01*
X181401Y370400D02*
X182969D01*
X181401Y370800D02*
X182969D01*
X181401Y371200D02*
X182969D01*
X181600Y368458D02*
Y371207D01*
X182000Y368458D02*
Y371207D01*
X182400Y368458D02*
Y371207D01*
X182800Y368458D02*
Y371207D01*
X182988Y373576D02*
X181382D01*
X181401Y373557*
Y376344*
X181382Y376326*
X182988*
X182969Y376344*
Y373557*
X182988Y373576*
X181401Y373600D02*
X182969D01*
X181401Y374000D02*
X182969D01*
X181401Y374400D02*
X182969D01*
X181401Y374800D02*
X182969D01*
X181401Y375200D02*
X182969D01*
X181401Y375600D02*
X182969D01*
X181401Y376000D02*
X182969D01*
X181600Y373576D02*
Y376326D01*
X182000Y373576D02*
Y376326D01*
X182400Y373576D02*
Y376326D01*
X182800Y373576D02*
Y376326D01*
X285043Y422032D02*
Y423638D01*
X285024Y423619*
X287811*
X287792Y423638*
Y422032*
X287811Y422050*
X285024*
X285043Y422032*
Y422400D02*
X287792D01*
X285043Y422800D02*
X287792D01*
X285043Y423200D02*
X287792D01*
X285043Y423600D02*
X287792D01*
X285200Y422050D02*
Y423619D01*
X285600Y422050D02*
Y423619D01*
X286000Y422050D02*
Y423619D01*
X286400Y422050D02*
Y423619D01*
X286800Y422050D02*
Y423619D01*
X287200Y422050D02*
Y423619D01*
X287600Y422050D02*
Y423619D01*
X290161Y422032D02*
Y423638D01*
X290142Y423619*
X292929*
X292910Y423638*
Y422032*
X292929Y422050*
X290142*
X290161Y422032*
Y422400D02*
X292910D01*
X290161Y422800D02*
X292910D01*
X290161Y423200D02*
X292910D01*
X290161Y423600D02*
X292910D01*
X290400Y422050D02*
Y423619D01*
X290800Y422050D02*
Y423619D01*
X291200Y422050D02*
Y423619D01*
X291600Y422050D02*
Y423619D01*
X292000Y422050D02*
Y423619D01*
X292400Y422050D02*
Y423619D01*
X292800Y422050D02*
Y423619D01*
X219897Y320476D02*
X218292D01*
X218310Y320457*
Y323244*
X218292Y323225*
X219897*
X219879Y323244*
Y320457*
X219897Y320476*
X218310Y320800D02*
X219879D01*
X218310Y321200D02*
X219879D01*
X218310Y321600D02*
X219879D01*
X218310Y322000D02*
X219879D01*
X218310Y322400D02*
X219879D01*
X218310Y322800D02*
X219879D01*
X218310Y323200D02*
X219879D01*
X218400Y320476D02*
Y323225D01*
X218800Y320476D02*
Y323225D01*
X219200Y320476D02*
Y323225D01*
X219600Y320476D02*
Y323225D01*
X219897Y325594D02*
X218292D01*
X218310Y325575*
Y328362*
X218292Y328343*
X219897*
X219879Y328362*
Y325575*
X219897Y325594*
X218310Y325600D02*
X219879D01*
X218310Y326000D02*
X219879D01*
X218310Y326400D02*
X219879D01*
X218310Y326800D02*
X219879D01*
X218310Y327200D02*
X219879D01*
X218310Y327600D02*
X219879D01*
X218310Y328000D02*
X219879D01*
X218400Y325594D02*
Y328343D01*
X218800Y325594D02*
Y328343D01*
X219200Y325594D02*
Y328343D01*
X219600Y325594D02*
Y328343D01*
X175477Y347782D02*
X177083D01*
X177064Y347801*
Y345014*
X177083Y345033*
X175477*
X175495Y345014*
Y347801*
X175477Y347782*
X175495Y345200D02*
X177064D01*
X175495Y345600D02*
X177064D01*
X175495Y346000D02*
X177064D01*
X175495Y346400D02*
X177064D01*
X175495Y346800D02*
X177064D01*
X175495Y347200D02*
X177064D01*
X175495Y347600D02*
X177064D01*
X175600Y345033D02*
Y347782D01*
X176000Y345033D02*
Y347782D01*
X176400Y345033D02*
Y347782D01*
X176800Y345033D02*
Y347782D01*
X175477Y342664D02*
X177083D01*
X177064Y342683*
Y339896*
X177083Y339915*
X175477*
X175495Y339896*
Y342683*
X175477Y342664*
X175495Y340000D02*
X177064D01*
X175495Y340400D02*
X177064D01*
X175495Y340800D02*
X177064D01*
X175495Y341200D02*
X177064D01*
X175495Y341600D02*
X177064D01*
X175495Y342000D02*
X177064D01*
X175495Y342400D02*
X177064D01*
X175600Y339915D02*
Y342664D01*
X176000Y339915D02*
Y342664D01*
X176400Y339915D02*
Y342664D01*
X176800Y339915D02*
Y342664D01*
X368390Y320469D02*
X369996D01*
X369977Y320488*
Y317701*
X369996Y317720*
X368390*
X368409Y317701*
Y320488*
X368390Y320469*
X368409Y318000D02*
X369977D01*
X368409Y318400D02*
X369977D01*
X368409Y318800D02*
X369977D01*
X368409Y319200D02*
X369977D01*
X368409Y319600D02*
X369977D01*
X368409Y320000D02*
X369977D01*
X368409Y320400D02*
X369977D01*
X368400Y317710D02*
Y317720D01*
Y320469D02*
Y320479D01*
X368800Y317720D02*
Y320469D01*
X369200Y317720D02*
Y320469D01*
X369600Y317720D02*
Y320469D01*
X368390Y315351D02*
X369996D01*
X369977Y315370*
Y312583*
X369996Y312602*
X368390*
X368409Y312583*
Y315370*
X368390Y315351*
X368409Y312800D02*
X369977D01*
X368409Y313200D02*
X369977D01*
X368409Y313600D02*
X369977D01*
X368409Y314000D02*
X369977D01*
X368409Y314400D02*
X369977D01*
X368409Y314800D02*
X369977D01*
X368409Y315200D02*
X369977D01*
X368400Y312592D02*
Y312602D01*
Y315351D02*
Y315361D01*
X368800Y312602D02*
Y315351D01*
X369200Y312602D02*
Y315351D01*
X369600Y312602D02*
Y315351D01*
X182674Y337270D02*
Y335664D01*
X182693Y335682*
X179906*
X179924Y335664*
Y337270*
X179906Y337251*
X182693*
X182674Y337270*
X179924Y336000D02*
X182674D01*
X179924Y336400D02*
X182674D01*
X179924Y336800D02*
X182674D01*
X179924Y337200D02*
X182674D01*
X180000Y335682D02*
Y337251D01*
X180400Y335682D02*
Y337251D01*
X180800Y335682D02*
Y337251D01*
X181200Y335682D02*
Y337251D01*
X181600Y335682D02*
Y337251D01*
X182000Y335682D02*
Y337251D01*
X182400Y335682D02*
Y337251D01*
X177556Y337270D02*
Y335664D01*
X177575Y335682*
X174788*
X174806Y335664*
Y337270*
X174788Y337251*
X177575*
X177556Y337270*
X174806Y336000D02*
X177556D01*
X174806Y336400D02*
X177556D01*
X174806Y336800D02*
X177556D01*
X174806Y337200D02*
X177556D01*
X174800Y335670D02*
Y335682D01*
Y337251D02*
Y337263D01*
X175200Y335682D02*
Y337251D01*
X175600Y335682D02*
Y337251D01*
X176000Y335682D02*
Y337251D01*
X176400Y335682D02*
Y337251D01*
X176800Y335682D02*
Y337251D01*
X177200Y335682D02*
Y337251D01*
X181198Y332840D02*
Y331234D01*
X181216Y331253*
X178429*
X178448Y331234*
Y332840*
X178429Y332822*
X181216*
X181198Y332840*
X178448Y331600D02*
X181198D01*
X178448Y332000D02*
X181198D01*
X178448Y332400D02*
X181198D01*
X178448Y332800D02*
X181198D01*
X178800Y331253D02*
Y332822D01*
X179200Y331253D02*
Y332822D01*
X179600Y331253D02*
Y332822D01*
X180000Y331253D02*
Y332822D01*
X180400Y331253D02*
Y332822D01*
X180800Y331253D02*
Y332822D01*
X181200Y331237D02*
Y331253D01*
Y332822D02*
Y332838D01*
X176080Y332840D02*
Y331234D01*
X176098Y331253*
X173311*
X173330Y331234*
Y332840*
X173311Y332822*
X176098*
X176080Y332840*
X173330Y331600D02*
X176080D01*
X173330Y332000D02*
X176080D01*
X173330Y332400D02*
X176080D01*
X173330Y332800D02*
X176080D01*
X173600Y331253D02*
Y332822D01*
X174000Y331253D02*
Y332822D01*
X174400Y331253D02*
Y332822D01*
X174800Y331253D02*
Y332822D01*
X175200Y331253D02*
Y332822D01*
X175600Y331253D02*
Y332822D01*
X176000Y331253D02*
Y332822D01*
X388943Y332533D02*
X387337D01*
X387356Y332514*
Y335301*
X387337Y335282*
X388943*
X388924Y335301*
Y332514*
X388943Y332533*
X387356Y332800D02*
X388924D01*
X387356Y333200D02*
X388924D01*
X387356Y333600D02*
X388924D01*
X387356Y334000D02*
X388924D01*
X387356Y334400D02*
X388924D01*
X387356Y334800D02*
X388924D01*
X387356Y335200D02*
X388924D01*
X387600Y332533D02*
Y335282D01*
X388000Y332533D02*
Y335282D01*
X388400Y332533D02*
Y335282D01*
X388800Y332533D02*
Y335282D01*
X388943Y337651D02*
X387337D01*
X387356Y337632*
Y340419*
X387337Y340400*
X388943*
X388924Y340419*
Y337632*
X388943Y337651*
X387356Y338000D02*
X388924D01*
X387356Y338400D02*
X388924D01*
X387356Y338800D02*
X388924D01*
X387356Y339200D02*
X388924D01*
X387356Y339600D02*
X388924D01*
X387356Y340000D02*
X388924D01*
X387356Y340400D02*
X388924D01*
X387600Y337651D02*
Y340400D01*
X388000Y337651D02*
Y340400D01*
X388400Y337651D02*
Y340400D01*
X388800Y337651D02*
Y340400D01*
X285043Y418095D02*
Y419701D01*
X285024Y419682*
X287811*
X287792Y419701*
Y418095*
X287811Y418113*
X285024*
X285043Y418095*
Y418400D02*
X287792D01*
X285043Y418800D02*
X287792D01*
X285043Y419200D02*
X287792D01*
X285043Y419600D02*
X287792D01*
X285200Y418113D02*
Y419682D01*
X285600Y418113D02*
Y419682D01*
X286000Y418113D02*
Y419682D01*
X286400Y418113D02*
Y419682D01*
X286800Y418113D02*
Y419682D01*
X287200Y418113D02*
Y419682D01*
X287600Y418113D02*
Y419682D01*
X290161Y418095D02*
Y419701D01*
X290142Y419682*
X292929*
X292910Y419701*
Y418095*
X292929Y418113*
X290142*
X290161Y418095*
Y418400D02*
X292910D01*
X290161Y418800D02*
X292910D01*
X290161Y419200D02*
X292910D01*
X290161Y419600D02*
X292910D01*
X290400Y418113D02*
Y419682D01*
X290800Y418113D02*
Y419682D01*
X291200Y418113D02*
Y419682D01*
X291600Y418113D02*
Y419682D01*
X292000Y418113D02*
Y419682D01*
X292400Y418113D02*
Y419682D01*
X292800Y418113D02*
Y419682D01*
X285043Y414158D02*
Y415764D01*
X285024Y415745*
X287811*
X287792Y415764*
Y414158*
X287811Y414176*
X285024*
X285043Y414158*
Y414400D02*
X287792D01*
X285043Y414800D02*
X287792D01*
X285043Y415200D02*
X287792D01*
X285043Y415600D02*
X287792D01*
X285200Y414176D02*
Y415745D01*
X285600Y414176D02*
Y415745D01*
X286000Y414176D02*
Y415745D01*
X286400Y414176D02*
Y415745D01*
X286800Y414176D02*
Y415745D01*
X287200Y414176D02*
Y415745D01*
X287600Y414176D02*
Y415745D01*
X290161Y414158D02*
Y415764D01*
X290142Y415745*
X292929*
X292910Y415764*
Y414158*
X292929Y414176*
X290142*
X290161Y414158*
Y414400D02*
X292910D01*
X290161Y414800D02*
X292910D01*
X290161Y415200D02*
X292910D01*
X290161Y415600D02*
X292910D01*
X290400Y414176D02*
Y415745D01*
X290800Y414176D02*
Y415745D01*
X291200Y414176D02*
Y415745D01*
X291600Y414176D02*
Y415745D01*
X292000Y414176D02*
Y415745D01*
X292400Y414176D02*
Y415745D01*
X292800Y414176D02*
Y415745D01*
X285043Y410221D02*
Y411827D01*
X285024Y411808*
X287811*
X287792Y411827*
Y410221*
X287811Y410239*
X285024*
X285043Y410221*
Y410400D02*
X287792D01*
X285043Y410800D02*
X287792D01*
X285043Y411200D02*
X287792D01*
X285043Y411600D02*
X287792D01*
X285200Y410239D02*
Y411808D01*
X285600Y410239D02*
Y411808D01*
X286000Y410239D02*
Y411808D01*
X286400Y410239D02*
Y411808D01*
X286800Y410239D02*
Y411808D01*
X287200Y410239D02*
Y411808D01*
X287600Y410239D02*
Y411808D01*
X290161Y410221D02*
Y411827D01*
X290142Y411808*
X292929*
X292910Y411827*
Y410221*
X292929Y410239*
X290142*
X290161Y410221*
Y410400D02*
X292910D01*
X290161Y410800D02*
X292910D01*
X290161Y411200D02*
X292910D01*
X290161Y411600D02*
X292910D01*
X290400Y410239D02*
Y411808D01*
X290800Y410239D02*
Y411808D01*
X291200Y410239D02*
Y411808D01*
X291600Y410239D02*
Y411808D01*
X292000Y410239D02*
Y411808D01*
X292400Y410239D02*
Y411808D01*
X292800Y410239D02*
Y411808D01*
X437417Y300298D02*
X435811D01*
X435830Y300280*
Y303067*
X435811Y303048*
X437417*
X437398Y303067*
Y300280*
X437417Y300298*
X435830Y300400D02*
X437398D01*
X435830Y300800D02*
X437398D01*
X435830Y301200D02*
X437398D01*
X435830Y301600D02*
X437398D01*
X435830Y302000D02*
X437398D01*
X435830Y302400D02*
X437398D01*
X435830Y302800D02*
X437398D01*
X436000Y300298D02*
Y303048D01*
X436400Y300298D02*
Y303048D01*
X436800Y300298D02*
Y303048D01*
X437200Y300298D02*
Y303048D01*
X437417Y305417D02*
X435811D01*
X435830Y305398*
Y308185*
X435811Y308166*
X437417*
X437398Y308185*
Y305398*
X437417Y305417*
X435830Y305600D02*
X437398D01*
X435830Y306000D02*
X437398D01*
X435830Y306400D02*
X437398D01*
X435830Y306800D02*
X437398D01*
X435830Y307200D02*
X437398D01*
X435830Y307600D02*
X437398D01*
X435830Y308000D02*
X437398D01*
X436000Y305417D02*
Y308166D01*
X436400Y305417D02*
Y308166D01*
X436800Y305417D02*
Y308166D01*
X437200Y305417D02*
Y308166D01*
X219897Y309649D02*
X218292D01*
X218310Y309630*
Y312417*
X218292Y312398*
X219897*
X219879Y312417*
Y309630*
X219897Y309649*
X218310Y310000D02*
X219879D01*
X218310Y310400D02*
X219879D01*
X218310Y310800D02*
X219879D01*
X218310Y311200D02*
X219879D01*
X218310Y311600D02*
X219879D01*
X218310Y312000D02*
X219879D01*
X218293Y312400D02*
X218310D01*
X219879D02*
X219896D01*
X218400Y309649D02*
Y312398D01*
X218800Y309649D02*
Y312398D01*
X219200Y309649D02*
Y312398D01*
X219600Y309649D02*
Y312398D01*
X219897Y314767D02*
X218292D01*
X218310Y314748*
Y317535*
X218292Y317517*
X219897*
X219879Y317535*
Y314748*
X219897Y314767*
X218310Y314800D02*
X219879D01*
X218310Y315200D02*
X219879D01*
X218310Y315600D02*
X219879D01*
X218310Y316000D02*
X219879D01*
X218310Y316400D02*
X219879D01*
X218310Y316800D02*
X219879D01*
X218310Y317200D02*
X219879D01*
X218400Y314767D02*
Y317517D01*
X218800Y314767D02*
Y317517D01*
X219200Y314767D02*
Y317517D01*
X219600Y314767D02*
Y317517D01*
X233670Y171478D02*
X235276D01*
X235258Y171497*
Y168710*
X235276Y168729*
X233670*
X233689Y168710*
Y171497*
X233670Y171478*
X233689Y168800D02*
X235258D01*
X233689Y169200D02*
X235258D01*
X233689Y169600D02*
X235258D01*
X233689Y170000D02*
X235258D01*
X233689Y170400D02*
X235258D01*
X233689Y170800D02*
X235258D01*
X233689Y171200D02*
X235258D01*
X234000Y168729D02*
Y171478D01*
X234400Y168729D02*
Y171478D01*
X234800Y168729D02*
Y171478D01*
X235200Y168729D02*
Y171478D01*
X233670Y166360D02*
X235276D01*
X235258Y166379*
Y163592*
X235276Y163610*
X233670*
X233689Y163592*
Y166379*
X233670Y166360*
X233681Y163600D02*
X233689D01*
X235258D02*
X235266D01*
X233689Y164000D02*
X235258D01*
X233689Y164400D02*
X235258D01*
X233689Y164800D02*
X235258D01*
X233689Y165200D02*
X235258D01*
X233689Y165600D02*
X235258D01*
X233689Y166000D02*
X235258D01*
X234000Y163610D02*
Y166360D01*
X234400Y163610D02*
Y166360D01*
X234800Y163610D02*
Y166360D01*
X235200Y163610D02*
Y166360D01*
X233123Y174861D02*
Y176467D01*
X233104Y176449*
X235892*
X235873Y176467*
Y174861*
X235892Y174880*
X233104*
X233123Y174861*
Y175200D02*
X235873D01*
X233123Y175600D02*
X235873D01*
X233123Y176000D02*
X235873D01*
X233123Y176400D02*
X235873D01*
X233200Y174880D02*
Y176449D01*
X233600Y174880D02*
Y176449D01*
X234000Y174880D02*
Y176449D01*
X234400Y174880D02*
Y176449D01*
X234800Y174880D02*
Y176449D01*
X235200Y174880D02*
Y176449D01*
X235600Y174880D02*
Y176449D01*
X238241Y174861D02*
Y176467D01*
X238223Y176449*
X241010*
X240991Y176467*
Y174861*
X241010Y174880*
X238223*
X238241Y174861*
Y175200D02*
X240991D01*
X238241Y175600D02*
X240991D01*
X238241Y176000D02*
X240991D01*
X238241Y176400D02*
X240991D01*
X238400Y174880D02*
Y176449D01*
X238800Y174880D02*
Y176449D01*
X239200Y174880D02*
Y176449D01*
X239600Y174880D02*
Y176449D01*
X240000Y174880D02*
Y176449D01*
X240400Y174880D02*
Y176449D01*
X240800Y174880D02*
Y176449D01*
X233123Y179044D02*
Y180650D01*
X233104Y180632*
X235892*
X235873Y180650*
Y179044*
X235892Y179063*
X233104*
X233123Y179044*
Y179200D02*
X235873D01*
X233123Y179600D02*
X235873D01*
X233123Y180000D02*
X235873D01*
X233123Y180400D02*
X235873D01*
X233200Y179063D02*
Y180632D01*
X233600Y179063D02*
Y180632D01*
X234000Y179063D02*
Y180632D01*
X234400Y179063D02*
Y180632D01*
X234800Y179063D02*
Y180632D01*
X235200Y179063D02*
Y180632D01*
X235600Y179063D02*
Y180632D01*
X238241Y179044D02*
Y180650D01*
X238223Y180632*
X241010*
X240991Y180650*
Y179044*
X241010Y179063*
X238223*
X238241Y179044*
Y179200D02*
X240991D01*
X238241Y179600D02*
X240991D01*
X238241Y180000D02*
X240991D01*
X238241Y180400D02*
X240991D01*
X238400Y179063D02*
Y180632D01*
X238800Y179063D02*
Y180632D01*
X239200Y179063D02*
Y180632D01*
X239600Y179063D02*
Y180632D01*
X240000Y179063D02*
Y180632D01*
X240400Y179063D02*
Y180632D01*
X240800Y179063D02*
Y180632D01*
X474819Y63586D02*
X473213D01*
X473231Y63567*
Y66354*
X473213Y66335*
X474819*
X474800Y66354*
Y63567*
X474819Y63586*
X473231Y63567D02*
X473231D01*
X474800D02*
X474800D01*
X473231Y63967D02*
X474800D01*
X473231Y64367D02*
X474800D01*
X473231Y64767D02*
X474800D01*
X473231Y65167D02*
X474800D01*
X473231Y65567D02*
X474800D01*
X473231Y65967D02*
X474800D01*
X473600Y63586D02*
Y66335D01*
X474000Y63586D02*
Y66335D01*
X474400Y63586D02*
Y66335D01*
X474800Y63567D02*
Y63586D01*
Y66335D02*
Y66354D01*
X474819Y68704D02*
X473213D01*
X473231Y68685*
Y71472*
X473213Y71454*
X474819*
X474800Y71472*
Y68685*
X474819Y68704*
X473231Y68685D02*
X473231D01*
X474800D02*
X474800D01*
X473231Y69085D02*
X474800D01*
X473231Y69485D02*
X474800D01*
X473231Y69885D02*
X474800D01*
X473231Y70285D02*
X474800D01*
X473231Y70685D02*
X474800D01*
X473231Y71085D02*
X474800D01*
X473600Y68704D02*
Y71454D01*
X474000Y68704D02*
Y71454D01*
X474400Y68704D02*
Y71454D01*
X474800Y68685D02*
Y68704D01*
Y71454D02*
Y71472D01*
X155792Y71454D02*
X157397D01*
X157379Y71472*
Y68685*
X157397Y68704*
X155792*
X155810Y68685*
Y71472*
X155792Y71454*
X155810Y68685D02*
X155810D01*
X157379D02*
X157379D01*
X155810Y69085D02*
X157379D01*
X155810Y69485D02*
X157379D01*
X155810Y69885D02*
X157379D01*
X155810Y70285D02*
X157379D01*
X155810Y70685D02*
X157379D01*
X155810Y71085D02*
X157379D01*
X156000Y68704D02*
Y71454D01*
X156400Y68704D02*
Y71454D01*
X156800Y68704D02*
Y71454D01*
X157200Y68704D02*
Y71454D01*
X155792Y66335D02*
X157397D01*
X157379Y66354*
Y63567*
X157397Y63586*
X155792*
X155810Y63567*
Y66354*
X155792Y66335*
X155810Y63567D02*
X155810D01*
X157379D02*
X157379D01*
X155810Y63967D02*
X157379D01*
X155810Y64367D02*
X157379D01*
X155810Y64767D02*
X157379D01*
X155810Y65167D02*
X157379D01*
X155810Y65567D02*
X157379D01*
X155810Y65967D02*
X157379D01*
X156000Y63586D02*
Y66335D01*
X156400Y63586D02*
Y66335D01*
X156800Y63586D02*
Y66335D01*
X157200Y63586D02*
Y66335D01*
X154354Y300356D02*
Y301962D01*
X154335Y301943*
X157122*
X157104Y301962*
Y300356*
X157122Y300374*
X154335*
X154354Y300356*
Y300400D02*
X157104D01*
X154354Y300800D02*
X157104D01*
X154354Y301200D02*
X157104D01*
X154354Y301600D02*
X157104D01*
X154400Y300374D02*
Y301943D01*
X154800Y300374D02*
Y301943D01*
X155200Y300374D02*
Y301943D01*
X155600Y300374D02*
Y301943D01*
X156000Y300374D02*
Y301943D01*
X156400Y300374D02*
Y301943D01*
X156800Y300374D02*
Y301943D01*
X159472Y300356D02*
Y301962D01*
X159453Y301943*
X162240*
X162222Y301962*
Y300356*
X162240Y300374*
X159453*
X159472Y300356*
Y300400D02*
X162222D01*
X159472Y300800D02*
X162222D01*
X159472Y301200D02*
X162222D01*
X159472Y301600D02*
X162222D01*
X159600Y300374D02*
Y301943D01*
X160000Y300374D02*
Y301943D01*
X160400Y300374D02*
Y301943D01*
X160800Y300374D02*
Y301943D01*
X161200Y300374D02*
Y301943D01*
X161600Y300374D02*
Y301943D01*
X162000Y300374D02*
Y301943D01*
X419701Y94590D02*
X418095D01*
X418113Y94571*
Y97358*
X418095Y97339*
X419701*
X419682Y97358*
Y94571*
X419701Y94590*
X418113Y94571D02*
X418113D01*
X419682D02*
X419682D01*
X418113Y94971D02*
X419682D01*
X418113Y95371D02*
X419682D01*
X418113Y95771D02*
X419682D01*
X418113Y96171D02*
X419682D01*
X418113Y96571D02*
X419682D01*
X418113Y96971D02*
X419682D01*
X418400Y94590D02*
Y97339D01*
X418800Y94590D02*
Y97339D01*
X419200Y94590D02*
Y97339D01*
X419600Y94590D02*
Y97339D01*
X419701Y99708D02*
X418095D01*
X418113Y99689*
Y102476*
X418095Y102457*
X419701*
X419682Y102476*
Y99689*
X419701Y99708*
X418113Y99689D02*
X418113D01*
X419682D02*
X419682D01*
X418113Y100089D02*
X419682D01*
X418113Y100489D02*
X419682D01*
X418113Y100889D02*
X419682D01*
X418113Y101289D02*
X419682D01*
X418113Y101689D02*
X419682D01*
X418113Y102089D02*
X419682D01*
X418400Y99708D02*
Y102457D01*
X418800Y99708D02*
Y102457D01*
X419200Y99708D02*
Y102457D01*
X419600Y99708D02*
Y102457D01*
X467221Y300187D02*
Y301793D01*
X467202Y301774*
X469990*
X469971Y301793*
Y300187*
X469990Y300205*
X467202*
X467221Y300187*
Y300400D02*
X469971D01*
X467221Y300800D02*
X469971D01*
X467221Y301200D02*
X469971D01*
X467221Y301600D02*
X469971D01*
X467600Y300205D02*
Y301774D01*
X468000Y300205D02*
Y301774D01*
X468400Y300205D02*
Y301774D01*
X468800Y300205D02*
Y301774D01*
X469200Y300205D02*
Y301774D01*
X469600Y300205D02*
Y301774D01*
X472339Y300187D02*
Y301793D01*
X472321Y301774*
X475108*
X475089Y301793*
Y300187*
X475108Y300205*
X472321*
X472339Y300187*
Y300400D02*
X475089D01*
X472339Y300800D02*
X475089D01*
X472339Y301200D02*
X475089D01*
X472339Y301600D02*
X475089D01*
X472400Y300205D02*
Y301774D01*
X472800Y300205D02*
Y301774D01*
X473200Y300205D02*
Y301774D01*
X473600Y300205D02*
Y301774D01*
X474000Y300205D02*
Y301774D01*
X474400Y300205D02*
Y301774D01*
X474800Y300205D02*
Y301774D01*
X217799Y339662D02*
X219405D01*
X219387Y339681*
Y336894*
X219405Y336913*
X217799*
X217818Y336894*
Y339681*
X217799Y339662*
X217818Y337200D02*
X219387D01*
X217818Y337600D02*
X219387D01*
X217818Y338000D02*
X219387D01*
X217818Y338400D02*
X219387D01*
X217818Y338800D02*
X219387D01*
X217818Y339200D02*
X219387D01*
X217818Y339600D02*
X219387D01*
X218000Y336913D02*
Y339662D01*
X218400Y336913D02*
Y339662D01*
X218800Y336913D02*
Y339662D01*
X219200Y336913D02*
Y339662D01*
X217799Y334544D02*
X219405D01*
X219387Y334563*
Y331776*
X219405Y331794*
X217799*
X217818Y331776*
Y334563*
X217799Y334544*
X217818Y332000D02*
X219387D01*
X217818Y332400D02*
X219387D01*
X217818Y332800D02*
X219387D01*
X217818Y333200D02*
X219387D01*
X217818Y333600D02*
X219387D01*
X217818Y334000D02*
X219387D01*
X217818Y334400D02*
X219387D01*
X218000Y331794D02*
Y334544D01*
X218400Y331794D02*
Y334544D01*
X218800Y331794D02*
Y334544D01*
X219200Y331794D02*
Y334544D01*
X158068Y61433D02*
Y59827D01*
X158086Y59846*
X155299*
X155318Y59827*
Y61433*
X155299Y61414*
X158086*
X158068Y61433*
X155318Y59827D02*
X155318D01*
X158068D02*
X158068D01*
X155318Y60227D02*
X158068D01*
X155318Y60627D02*
X158068D01*
X155318Y61027D02*
X158068D01*
X155312Y61427D02*
X155318D01*
X158068D02*
X158074D01*
X155600Y59846D02*
Y61414D01*
X156000Y59846D02*
Y61414D01*
X156400Y59846D02*
Y61414D01*
X156800Y59846D02*
Y61414D01*
X157200Y59846D02*
Y61414D01*
X157600Y59846D02*
Y61414D01*
X158000Y59846D02*
Y61414D01*
X152950Y61433D02*
Y59827D01*
X152968Y59846*
X150181*
X150200Y59827*
Y61433*
X150181Y61414*
X152968*
X152950Y61433*
X150200Y59827D02*
X150200D01*
X152950D02*
X152950D01*
X150200Y60227D02*
X152950D01*
X150200Y60627D02*
X152950D01*
X150200Y61027D02*
X152950D01*
X150194Y61427D02*
X150200D01*
X152950D02*
X152956D01*
X150400Y59846D02*
Y61414D01*
X150800Y59846D02*
Y61414D01*
X151200Y59846D02*
Y61414D01*
X151600Y59846D02*
Y61414D01*
X152000Y59846D02*
Y61414D01*
X152400Y59846D02*
Y61414D01*
X152800Y59846D02*
Y61414D01*
X159550Y59827D02*
Y61433D01*
X159532Y61414*
X162319*
X162300Y61433*
Y59827*
X162319Y59846*
X159532*
X159550Y59827*
X159550*
X162300D02*
X162300D01*
X159550Y60227D02*
X162300D01*
X159550Y60627D02*
X162300D01*
X159550Y61027D02*
X162300D01*
X159544Y61427D02*
X159550D01*
X162300D02*
X162306D01*
X159600Y59846D02*
Y61414D01*
X160000Y59846D02*
Y61414D01*
X160400Y59846D02*
Y61414D01*
X160800Y59846D02*
Y61414D01*
X161200Y59846D02*
Y61414D01*
X161600Y59846D02*
Y61414D01*
X162000Y59846D02*
Y61414D01*
X164669Y59827D02*
Y61433D01*
X164650Y61414*
X167437*
X167418Y61433*
Y59827*
X167437Y59846*
X164650*
X164669Y59827*
X164669*
X167418D02*
X167418D01*
X164669Y60227D02*
X167418D01*
X164669Y60627D02*
X167418D01*
X164669Y61027D02*
X167418D01*
X164663Y61427D02*
X164669D01*
X167418D02*
X167424D01*
X164800Y59846D02*
Y61414D01*
X165200Y59846D02*
Y61414D01*
X165600Y59846D02*
Y61414D01*
X166000Y59846D02*
Y61414D01*
X166400Y59846D02*
Y61414D01*
X166800Y59846D02*
Y61414D01*
X167200Y59846D02*
Y61414D01*
X223274Y218667D02*
Y217061D01*
X223293Y217080*
X220506*
X220525Y217061*
Y218667*
X220506Y218648*
X223293*
X223274Y218667*
X220525Y217200D02*
X223274D01*
X220525Y217600D02*
X223274D01*
X220525Y218000D02*
X223274D01*
X220525Y218400D02*
X223274D01*
X220800Y217080D02*
Y218648D01*
X221200Y217080D02*
Y218648D01*
X221600Y217080D02*
Y218648D01*
X222000Y217080D02*
Y218648D01*
X222400Y217080D02*
Y218648D01*
X222800Y217080D02*
Y218648D01*
X223200Y217080D02*
Y218648D01*
X218156Y218667D02*
Y217061D01*
X218175Y217080*
X215388*
X215407Y217061*
Y218667*
X215388Y218648*
X218175*
X218156Y218667*
X215407Y217200D02*
X218156D01*
X215407Y217600D02*
X218156D01*
X215407Y218000D02*
X218156D01*
X215407Y218400D02*
X218156D01*
X215600Y217080D02*
Y218648D01*
X216000Y217080D02*
Y218648D01*
X216400Y217080D02*
Y218648D01*
X216800Y217080D02*
Y218648D01*
X217200Y217080D02*
Y218648D01*
X217600Y217080D02*
Y218648D01*
X218000Y217080D02*
Y218648D01*
X369504Y327857D02*
X367898D01*
X367917Y327839*
Y330626*
X367898Y330607*
X369504*
X369485Y330626*
Y327839*
X369504Y327857*
X367917Y328000D02*
X369485D01*
X367917Y328400D02*
X369485D01*
X367917Y328800D02*
X369485D01*
X367917Y329200D02*
X369485D01*
X367917Y329600D02*
X369485D01*
X367917Y330000D02*
X369485D01*
X367917Y330400D02*
X369485D01*
X368000Y327857D02*
Y330607D01*
X368400Y327857D02*
Y330607D01*
X368800Y327857D02*
Y330607D01*
X369200Y327857D02*
Y330607D01*
X369504Y332976D02*
X367898D01*
X367917Y332957*
Y335744*
X367898Y335725*
X369504*
X369485Y335744*
Y332957*
X369504Y332976*
X367917Y333200D02*
X369485D01*
X367917Y333600D02*
X369485D01*
X367917Y334000D02*
X369485D01*
X367917Y334400D02*
X369485D01*
X367917Y334800D02*
X369485D01*
X367917Y335200D02*
X369485D01*
X367917Y335600D02*
X369485D01*
X368000Y332976D02*
Y335725D01*
X368400Y332976D02*
Y335725D01*
X368800Y332976D02*
Y335725D01*
X369200Y332976D02*
Y335725D01*
X388451Y286765D02*
X386845D01*
X386863Y286746*
Y289533*
X386845Y289515*
X388451*
X388432Y289533*
Y286746*
X388451Y286765*
X386863Y286800D02*
X388432D01*
X386863Y287200D02*
X388432D01*
X386863Y287600D02*
X388432D01*
X386863Y288000D02*
X388432D01*
X386863Y288400D02*
X388432D01*
X386863Y288800D02*
X388432D01*
X386863Y289200D02*
X388432D01*
X387200Y286765D02*
Y289515D01*
X387600Y286765D02*
Y289515D01*
X388000Y286765D02*
Y289515D01*
X388400Y286765D02*
Y289515D01*
X388451Y291883D02*
X386845D01*
X386863Y291864*
Y294651*
X386845Y294633*
X388451*
X388432Y294651*
Y291864*
X388451Y291883*
X386863Y292000D02*
X388432D01*
X386863Y292400D02*
X388432D01*
X386863Y292800D02*
X388432D01*
X386863Y293200D02*
X388432D01*
X386863Y293600D02*
X388432D01*
X386863Y294000D02*
X388432D01*
X386863Y294400D02*
X388432D01*
X387200Y291883D02*
Y294633D01*
X387600Y291883D02*
Y294633D01*
X388000Y291883D02*
Y294633D01*
X388400Y291883D02*
Y294633D01*
X369442Y321884D02*
Y323490D01*
X369423Y323471*
X372210*
X372192Y323490*
Y321884*
X372210Y321903*
X369423*
X369442Y321884*
Y322000D02*
X372192D01*
X369442Y322400D02*
X372192D01*
X369442Y322800D02*
X372192D01*
X369442Y323200D02*
X372192D01*
X369600Y321903D02*
Y323471D01*
X370000Y321903D02*
Y323471D01*
X370400Y321903D02*
Y323471D01*
X370800Y321903D02*
Y323471D01*
X371200Y321903D02*
Y323471D01*
X371600Y321903D02*
Y323471D01*
X372000Y321903D02*
Y323471D01*
X374560Y321884D02*
Y323490D01*
X374542Y323471*
X377329*
X377310Y323490*
Y321884*
X377329Y321903*
X374542*
X374560Y321884*
Y322000D02*
X377310D01*
X374560Y322400D02*
X377310D01*
X374560Y322800D02*
X377310D01*
X374560Y323200D02*
X377310D01*
X374800Y321903D02*
Y323471D01*
X375200Y321903D02*
Y323471D01*
X375600Y321903D02*
Y323471D01*
X376000Y321903D02*
Y323471D01*
X376400Y321903D02*
Y323471D01*
X376800Y321903D02*
Y323471D01*
X377200Y321903D02*
Y323471D01*
X372949Y267572D02*
X371343D01*
X371361Y267553*
Y270340*
X371343Y270322*
X372949*
X372930Y270340*
Y267553*
X372949Y267572*
X371361Y267600D02*
X372930D01*
X371361Y268000D02*
X372930D01*
X371361Y268400D02*
X372930D01*
X371361Y268800D02*
X372930D01*
X371361Y269200D02*
X372930D01*
X371361Y269600D02*
X372930D01*
X371361Y270000D02*
X372930D01*
X371600Y267572D02*
Y270322D01*
X372000Y267572D02*
Y270322D01*
X372400Y267572D02*
Y270322D01*
X372800Y267572D02*
Y270322D01*
X372949Y272690D02*
X371343D01*
X371361Y272671*
Y275458*
X371343Y275440*
X372949*
X372930Y275458*
Y272671*
X372949Y272690*
X371361Y272800D02*
X372930D01*
X371361Y273200D02*
X372930D01*
X371361Y273600D02*
X372930D01*
X371361Y274000D02*
X372930D01*
X371361Y274400D02*
X372930D01*
X371361Y274800D02*
X372930D01*
X371361Y275200D02*
X372930D01*
X371600Y272690D02*
Y275440D01*
X372000Y272690D02*
Y275440D01*
X372400Y272690D02*
Y275440D01*
X372800Y272690D02*
Y275440D01*
X150132Y382723D02*
X151738D01*
X151719Y382742*
Y379955*
X151738Y379974*
X150132*
X150151Y379955*
Y382742*
X150132Y382723*
X150151Y380000D02*
X151719D01*
X150151Y380400D02*
X151719D01*
X150151Y380800D02*
X151719D01*
X150151Y381200D02*
X151719D01*
X150151Y381600D02*
X151719D01*
X150151Y382000D02*
X151719D01*
X150151Y382400D02*
X151719D01*
X150400Y379974D02*
Y382723D01*
X150800Y379974D02*
Y382723D01*
X151200Y379974D02*
Y382723D01*
X151600Y379974D02*
Y382723D01*
X150132Y377605D02*
X151738D01*
X151719Y377624*
Y374837*
X151738Y374856*
X150132*
X150151Y374837*
Y377624*
X150132Y377605*
X150151Y375200D02*
X151719D01*
X150151Y375600D02*
X151719D01*
X150151Y376000D02*
X151719D01*
X150151Y376400D02*
X151719D01*
X150151Y376800D02*
X151719D01*
X150151Y377200D02*
X151719D01*
X150151Y377600D02*
X151719D01*
X150400Y374856D02*
Y377605D01*
X150800Y374856D02*
Y377605D01*
X151200Y374856D02*
Y377605D01*
X151600Y374856D02*
Y377605D01*
X375034Y319731D02*
X376640D01*
X376621Y319750*
Y316963*
X376640Y316981*
X375034*
X375052Y316963*
Y319750*
X375034Y319731*
X375052Y317200D02*
X376621D01*
X375052Y317600D02*
X376621D01*
X375052Y318000D02*
X376621D01*
X375052Y318400D02*
X376621D01*
X375052Y318800D02*
X376621D01*
X375052Y319200D02*
X376621D01*
X375052Y319600D02*
X376621D01*
X375200Y316981D02*
Y319731D01*
X375600Y316981D02*
Y319731D01*
X376000Y316981D02*
Y319731D01*
X376400Y316981D02*
Y319731D01*
X375034Y314613D02*
X376640D01*
X376621Y314632*
Y311845*
X376640Y311863*
X375034*
X375052Y311845*
Y314632*
X375034Y314613*
X375052Y312000D02*
X376621D01*
X375052Y312400D02*
X376621D01*
X375052Y312800D02*
X376621D01*
X375052Y313200D02*
X376621D01*
X375052Y313600D02*
X376621D01*
X375052Y314000D02*
X376621D01*
X375052Y314400D02*
X376621D01*
X375200Y311863D02*
Y314613D01*
X375600Y311863D02*
Y314613D01*
X376000Y311863D02*
Y314613D01*
X376400Y311863D02*
Y314613D01*
X396017Y330742D02*
Y332348D01*
X395998Y332330*
X398785*
X398767Y332348*
Y330742*
X398785Y330761*
X395998*
X396017Y330742*
Y330800D02*
X398767D01*
X396017Y331200D02*
X398767D01*
X396017Y331600D02*
X398767D01*
X396017Y332000D02*
X398767D01*
X396000Y330759D02*
Y330761D01*
Y332330D02*
Y332331D01*
X396400Y330761D02*
Y332330D01*
X396800Y330761D02*
Y332330D01*
X397200Y330761D02*
Y332330D01*
X397600Y330761D02*
Y332330D01*
X398000Y330761D02*
Y332330D01*
X398400Y330761D02*
Y332330D01*
X401135Y330742D02*
Y332348D01*
X401116Y332330*
X403903*
X403885Y332348*
Y330742*
X403903Y330761*
X401116*
X401135Y330742*
Y330800D02*
X403885D01*
X401135Y331200D02*
X403885D01*
X401135Y331600D02*
X403885D01*
X401135Y332000D02*
X403885D01*
X401200Y330761D02*
Y332330D01*
X401600Y330761D02*
Y332330D01*
X402000Y330761D02*
Y332330D01*
X402400Y330761D02*
Y332330D01*
X402800Y330761D02*
Y332330D01*
X403200Y330761D02*
Y332330D01*
X403600Y330761D02*
Y332330D01*
X145765Y372703D02*
Y371097D01*
X145783Y371115*
X142996*
X143015Y371097*
Y372703*
X142996Y372684*
X145783*
X145765Y372703*
X143015Y371200D02*
X145765D01*
X143015Y371600D02*
X145765D01*
X143015Y372000D02*
X145765D01*
X143015Y372400D02*
X145765D01*
X143200Y371115D02*
Y372684D01*
X143600Y371115D02*
Y372684D01*
X144000Y371115D02*
Y372684D01*
X144400Y371115D02*
Y372684D01*
X144800Y371115D02*
Y372684D01*
X145200Y371115D02*
Y372684D01*
X145600Y371115D02*
Y372684D01*
X140646Y372703D02*
Y371097D01*
X140665Y371115*
X137878*
X137897Y371097*
Y372703*
X137878Y372684*
X140665*
X140646Y372703*
X137897Y371200D02*
X140646D01*
X137897Y371600D02*
X140646D01*
X137897Y372000D02*
X140646D01*
X137897Y372400D02*
X140646D01*
X138000Y371115D02*
Y372684D01*
X138400Y371115D02*
Y372684D01*
X138800Y371115D02*
Y372684D01*
X139200Y371115D02*
Y372684D01*
X139600Y371115D02*
Y372684D01*
X140000Y371115D02*
Y372684D01*
X140400Y371115D02*
Y372684D01*
X161827Y63586D02*
X160221D01*
X160239Y63567*
Y66354*
X160221Y66335*
X161827*
X161808Y66354*
Y63567*
X161827Y63586*
X160239Y63567D02*
X160239D01*
X161808D02*
X161808D01*
X160239Y63967D02*
X161808D01*
X160239Y64367D02*
X161808D01*
X160239Y64767D02*
X161808D01*
X160239Y65167D02*
X161808D01*
X160239Y65567D02*
X161808D01*
X160239Y65967D02*
X161808D01*
X160400Y63586D02*
Y66335D01*
X160800Y63586D02*
Y66335D01*
X161200Y63586D02*
Y66335D01*
X161600Y63586D02*
Y66335D01*
X161827Y68704D02*
X160221D01*
X160239Y68685*
Y71472*
X160221Y71454*
X161827*
X161808Y71472*
Y68685*
X161827Y68704*
X160239Y68685D02*
X160239D01*
X161808D02*
X161808D01*
X160239Y69085D02*
X161808D01*
X160239Y69485D02*
X161808D01*
X160239Y69885D02*
X161808D01*
X160239Y70285D02*
X161808D01*
X160239Y70685D02*
X161808D01*
X160239Y71085D02*
X161808D01*
X160400Y68704D02*
Y71454D01*
X160800Y68704D02*
Y71454D01*
X161200Y68704D02*
Y71454D01*
X161600Y68704D02*
Y71454D01*
X416440Y340339D02*
Y341945D01*
X416421Y341926*
X419208*
X419190Y341945*
Y340339*
X419208Y340357*
X416421*
X416440Y340339*
Y340400D02*
X419190D01*
X416440Y340800D02*
X419190D01*
X416440Y341200D02*
X419190D01*
X416440Y341600D02*
X419190D01*
X416800Y340357D02*
Y341926D01*
X417200Y340357D02*
Y341926D01*
X417600Y340357D02*
Y341926D01*
X418000Y340357D02*
Y341926D01*
X418400Y340357D02*
Y341926D01*
X418800Y340357D02*
Y341926D01*
X419200Y340349D02*
Y340357D01*
Y341926D02*
Y341934D01*
X421558Y340339D02*
Y341945D01*
X421540Y341926*
X424327*
X424308Y341945*
Y340339*
X424327Y340357*
X421540*
X421558Y340339*
Y340400D02*
X424308D01*
X421558Y340800D02*
X424308D01*
X421558Y341200D02*
X424308D01*
X421558Y341600D02*
X424308D01*
X421600Y340357D02*
Y341926D01*
X422000Y340357D02*
Y341926D01*
X422400Y340357D02*
Y341926D01*
X422800Y340357D02*
Y341926D01*
X423200Y340357D02*
Y341926D01*
X423600Y340357D02*
Y341926D01*
X424000Y340357D02*
Y341926D01*
X385252Y96066D02*
X383646D01*
X383665Y96047*
Y98834*
X383646Y98816*
X385252*
X385233Y98834*
Y96047*
X385252Y96066*
X383665Y96047D02*
X383665D01*
X385233D02*
X385233D01*
X383665Y96447D02*
X385233D01*
X383665Y96847D02*
X385233D01*
X383665Y97247D02*
X385233D01*
X383665Y97647D02*
X385233D01*
X383665Y98047D02*
X385233D01*
X383665Y98447D02*
X385233D01*
X384000Y96066D02*
Y98816D01*
X384400Y96066D02*
Y98816D01*
X384800Y96066D02*
Y98816D01*
X385200Y96066D02*
Y98816D01*
X385252Y101184D02*
X383646D01*
X383665Y101166*
Y103953*
X383646Y103934*
X385252*
X385233Y103953*
Y101166*
X385252Y101184*
X383665Y101200D02*
X385233D01*
X383665Y101600D02*
X385233D01*
X383665Y102000D02*
X385233D01*
X383665Y102400D02*
X385233D01*
X383665Y102800D02*
X385233D01*
X383665Y103200D02*
X385233D01*
X383665Y103600D02*
X385233D01*
X384000Y101184D02*
Y103934D01*
X384400Y101184D02*
Y103934D01*
X384800Y101184D02*
Y103934D01*
X385200Y101184D02*
Y103934D01*
X422647Y102581D02*
X424253D01*
X424234Y102599*
Y99812*
X424253Y99831*
X422647*
X422666Y99812*
Y102599*
X422647Y102581*
X422666Y99812D02*
X422666D01*
X424234D02*
X424234D01*
X422666Y100212D02*
X424234D01*
X422666Y100612D02*
X424234D01*
X422666Y101012D02*
X424234D01*
X422666Y101412D02*
X424234D01*
X422666Y101812D02*
X424234D01*
X422666Y102212D02*
X424234D01*
X422800Y99831D02*
Y102581D01*
X423200Y99831D02*
Y102581D01*
X423600Y99831D02*
Y102581D01*
X424000Y99831D02*
Y102581D01*
X422647Y97462D02*
X424253D01*
X424234Y97481*
Y94694*
X424253Y94713*
X422647*
X422666Y94694*
Y97481*
X422647Y97462*
X422666Y94694D02*
X422666D01*
X424234D02*
X424234D01*
X422666Y95094D02*
X424234D01*
X422666Y95494D02*
X424234D01*
X422666Y95894D02*
X424234D01*
X422666Y96294D02*
X424234D01*
X422666Y96694D02*
X424234D01*
X422666Y97094D02*
X424234D01*
X422800Y94713D02*
Y97462D01*
X423200Y94713D02*
Y97462D01*
X423600Y94713D02*
Y97462D01*
X424000Y94713D02*
Y97462D01*
X157151Y374856D02*
X155545D01*
X155564Y374837*
Y377624*
X155545Y377605*
X157151*
X157133Y377624*
Y374837*
X157151Y374856*
X155564Y375200D02*
X157133D01*
X155564Y375600D02*
X157133D01*
X155564Y376000D02*
X157133D01*
X155564Y376400D02*
X157133D01*
X155564Y376800D02*
X157133D01*
X155564Y377200D02*
X157133D01*
X155564Y377600D02*
X157133D01*
X155600Y374856D02*
Y377605D01*
X156000Y374856D02*
Y377605D01*
X156400Y374856D02*
Y377605D01*
X156800Y374856D02*
Y377605D01*
X157151Y379974D02*
X155545D01*
X155564Y379955*
Y382742*
X155545Y382723*
X157151*
X157133Y382742*
Y379955*
X157151Y379974*
X155564Y380000D02*
X157133D01*
X155564Y380400D02*
X157133D01*
X155564Y380800D02*
X157133D01*
X155564Y381200D02*
X157133D01*
X155564Y381600D02*
X157133D01*
X155564Y382000D02*
X157133D01*
X155564Y382400D02*
X157133D01*
X155600Y379974D02*
Y382723D01*
X156000Y379974D02*
Y382723D01*
X156400Y379974D02*
Y382723D01*
X156800Y379974D02*
Y382723D01*
X145519Y367781D02*
Y366175D01*
X145537Y366194*
X142750*
X142769Y366175*
Y367781*
X142750Y367763*
X145537*
X145519Y367781*
X142769Y366400D02*
X145519D01*
X142769Y366800D02*
X145519D01*
X142769Y367200D02*
X145519D01*
X142769Y367600D02*
X145519D01*
X142800Y366194D02*
Y367763D01*
X143200Y366194D02*
Y367763D01*
X143600Y366194D02*
Y367763D01*
X144000Y366194D02*
Y367763D01*
X144400Y366194D02*
Y367763D01*
X144800Y366194D02*
Y367763D01*
X145200Y366194D02*
Y367763D01*
X140400Y367781D02*
Y366175D01*
X140419Y366194*
X137632*
X137651Y366175*
Y367781*
X137632Y367763*
X140419*
X140400Y367781*
X137651Y366400D02*
X140400D01*
X137651Y366800D02*
X140400D01*
X137651Y367200D02*
X140400D01*
X137651Y367600D02*
X140400D01*
X138000Y366194D02*
Y367763D01*
X138400Y366194D02*
Y367763D01*
X138800Y366194D02*
Y367763D01*
X139200Y366194D02*
Y367763D01*
X139600Y366194D02*
Y367763D01*
X140000Y366194D02*
Y367763D01*
X140400Y366194D02*
Y367763D01*
X145519Y363352D02*
Y361746D01*
X145537Y361765*
X142750*
X142769Y361746*
Y363352*
X142750Y363333*
X145537*
X145519Y363352*
X142769Y362000D02*
X145519D01*
X142769Y362400D02*
X145519D01*
X142769Y362800D02*
X145519D01*
X142769Y363200D02*
X145519D01*
X142800Y361765D02*
Y363333D01*
X143200Y361765D02*
Y363333D01*
X143600Y361765D02*
Y363333D01*
X144000Y361765D02*
Y363333D01*
X144400Y361765D02*
Y363333D01*
X144800Y361765D02*
Y363333D01*
X145200Y361765D02*
Y363333D01*
X140400Y363352D02*
Y361746D01*
X140419Y361765*
X137632*
X137651Y361746*
Y363352*
X137632Y363333*
X140419*
X140400Y363352*
X137651Y362000D02*
X140400D01*
X137651Y362400D02*
X140400D01*
X137651Y362800D02*
X140400D01*
X137651Y363200D02*
X140400D01*
X138000Y361765D02*
Y363333D01*
X138400Y361765D02*
Y363333D01*
X138800Y361765D02*
Y363333D01*
X139200Y361765D02*
Y363333D01*
X139600Y361765D02*
Y363333D01*
X140000Y361765D02*
Y363333D01*
X140400Y361765D02*
Y363333D01*
X160713Y382969D02*
X162319D01*
X162300Y382988*
Y380201*
X162319Y380220*
X160713*
X160731Y380201*
Y382988*
X160713Y382969*
X160731Y380400D02*
X162300D01*
X160731Y380800D02*
X162300D01*
X160731Y381200D02*
X162300D01*
X160731Y381600D02*
X162300D01*
X160731Y382000D02*
X162300D01*
X160731Y382400D02*
X162300D01*
X160731Y382800D02*
X162300D01*
X160800Y380220D02*
Y382969D01*
X161200Y380220D02*
Y382969D01*
X161600Y380220D02*
Y382969D01*
X162000Y380220D02*
Y382969D01*
X160713Y377851D02*
X162319D01*
X162300Y377870*
Y375083*
X162319Y375102*
X160713*
X160731Y375083*
Y377870*
X160713Y377851*
X160731Y375200D02*
X162300D01*
X160731Y375600D02*
X162300D01*
X160731Y376000D02*
X162300D01*
X160731Y376400D02*
X162300D01*
X160731Y376800D02*
X162300D01*
X160731Y377200D02*
X162300D01*
X160731Y377600D02*
X162300D01*
X160800Y375102D02*
Y377851D01*
X161200Y375102D02*
Y377851D01*
X161600Y375102D02*
Y377851D01*
X162000Y375102D02*
Y377851D01*
X337454Y341815D02*
Y343421D01*
X337435Y343402*
X340222*
X340204Y343421*
Y341815*
X340222Y341834*
X337435*
X337454Y341815*
Y342000D02*
X340204D01*
X337454Y342400D02*
X340204D01*
X337454Y342800D02*
X340204D01*
X337454Y343200D02*
X340204D01*
X337600Y341834D02*
Y343402D01*
X338000Y341834D02*
Y343402D01*
X338400Y341834D02*
Y343402D01*
X338800Y341834D02*
Y343402D01*
X339200Y341834D02*
Y343402D01*
X339600Y341834D02*
Y343402D01*
X340000Y341834D02*
Y343402D01*
X342572Y341815D02*
Y343421D01*
X342553Y343402*
X345340*
X345322Y343421*
Y341815*
X345340Y341834*
X342553*
X342572Y341815*
Y342000D02*
X345322D01*
X342572Y342400D02*
X345322D01*
X342572Y342800D02*
X345322D01*
X342572Y343200D02*
X345322D01*
X342800Y341834D02*
Y343402D01*
X343200Y341834D02*
Y343402D01*
X343600Y341834D02*
Y343402D01*
X344000Y341834D02*
Y343402D01*
X344400Y341834D02*
Y343402D01*
X344800Y341834D02*
Y343402D01*
X345200Y341834D02*
Y343402D01*
X344836Y326067D02*
Y327673D01*
X344817Y327654*
X347604*
X347585Y327673*
Y326067*
X347604Y326086*
X344817*
X344836Y326067*
Y326400D02*
X347585D01*
X344836Y326800D02*
X347585D01*
X344836Y327200D02*
X347585D01*
X344836Y327600D02*
X347585D01*
X345200Y326086D02*
Y327654D01*
X345600Y326086D02*
Y327654D01*
X346000Y326086D02*
Y327654D01*
X346400Y326086D02*
Y327654D01*
X346800Y326086D02*
Y327654D01*
X347200Y326086D02*
Y327654D01*
X347600Y326082D02*
Y326086D01*
Y327654D02*
Y327658D01*
X349954Y326067D02*
Y327673D01*
X349935Y327654*
X352722*
X352704Y327673*
Y326067*
X352722Y326086*
X349935*
X349954Y326067*
Y326400D02*
X352704D01*
X349954Y326800D02*
X352704D01*
X349954Y327200D02*
X352704D01*
X349954Y327600D02*
X352704D01*
X350000Y326086D02*
Y327654D01*
X350400Y326086D02*
Y327654D01*
X350800Y326086D02*
Y327654D01*
X351200Y326086D02*
Y327654D01*
X351600Y326086D02*
Y327654D01*
X352000Y326086D02*
Y327654D01*
X352400Y326086D02*
Y327654D01*
X263813Y423078D02*
X265419D01*
X265400Y423096*
Y420309*
X265419Y420328*
X263813*
X263832Y420309*
Y423096*
X263813Y423078*
X263832Y420400D02*
X265400D01*
X263832Y420800D02*
X265400D01*
X263832Y421200D02*
X265400D01*
X263832Y421600D02*
X265400D01*
X263832Y422000D02*
X265400D01*
X263832Y422400D02*
X265400D01*
X263832Y422800D02*
X265400D01*
X264000Y420328D02*
Y423078D01*
X264400Y420328D02*
Y423078D01*
X264800Y420328D02*
Y423078D01*
X265200Y420328D02*
Y423078D01*
X263813Y417959D02*
X265419D01*
X265400Y417978*
Y415191*
X265419Y415210*
X263813*
X263832Y415191*
Y417978*
X263813Y417959*
X263823Y415200D02*
X263832D01*
X265400D02*
X265409D01*
X263832Y415600D02*
X265400D01*
X263832Y416000D02*
X265400D01*
X263832Y416400D02*
X265400D01*
X263832Y416800D02*
X265400D01*
X263832Y417200D02*
X265400D01*
X263832Y417600D02*
X265400D01*
X264000Y415210D02*
Y417959D01*
X264400Y415210D02*
Y417959D01*
X264800Y415210D02*
Y417959D01*
X265200Y415210D02*
Y417959D01*
X278891Y406038D02*
Y407644D01*
X278872Y407625*
X281659*
X281641Y407644*
Y406038*
X281659Y406056*
X278872*
X278891Y406038*
Y406400D02*
X281641D01*
X278891Y406800D02*
X281641D01*
X278891Y407200D02*
X281641D01*
X278891Y407600D02*
X281641D01*
X279200Y406056D02*
Y407625D01*
X279600Y406056D02*
Y407625D01*
X280000Y406056D02*
Y407625D01*
X280400Y406056D02*
Y407625D01*
X280800Y406056D02*
Y407625D01*
X281200Y406056D02*
Y407625D01*
X281600Y406056D02*
Y407625D01*
X284009Y406038D02*
Y407644D01*
X283990Y407625*
X286777*
X286759Y407644*
Y406038*
X286777Y406056*
X283990*
X284009Y406038*
Y406400D02*
X286759D01*
X284009Y406800D02*
X286759D01*
X284009Y407200D02*
X286759D01*
X284009Y407600D02*
X286759D01*
X284000Y406047D02*
Y406056D01*
Y407625D02*
Y407634D01*
X284400Y406056D02*
Y407625D01*
X284800Y406056D02*
Y407625D01*
X285200Y406056D02*
Y407625D01*
X285600Y406056D02*
Y407625D01*
X286000Y406056D02*
Y407625D01*
X286400Y406056D02*
Y407625D01*
X392326Y362484D02*
Y364090D01*
X392307Y364072*
X395094*
X395076Y364090*
Y362484*
X395094Y362503*
X392307*
X392326Y362484*
Y362800D02*
X395076D01*
X392326Y363200D02*
X395076D01*
X392326Y363600D02*
X395076D01*
X392326Y364000D02*
X395076D01*
X392400Y362503D02*
Y364072D01*
X392800Y362503D02*
Y364072D01*
X393200Y362503D02*
Y364072D01*
X393600Y362503D02*
Y364072D01*
X394000Y362503D02*
Y364072D01*
X394400Y362503D02*
Y364072D01*
X394800Y362503D02*
Y364072D01*
X397444Y362484D02*
Y364090D01*
X397425Y364072*
X400212*
X400194Y364090*
Y362484*
X400212Y362503*
X397425*
X397444Y362484*
Y362800D02*
X400194D01*
X397444Y363200D02*
X400194D01*
X397444Y363600D02*
X400194D01*
X397444Y364000D02*
X400194D01*
X397600Y362503D02*
Y364072D01*
X398000Y362503D02*
Y364072D01*
X398400Y362503D02*
Y364072D01*
X398800Y362503D02*
Y364072D01*
X399200Y362503D02*
Y364072D01*
X399600Y362503D02*
Y364072D01*
X400000Y362503D02*
Y364072D01*
X411636Y172653D02*
Y171047D01*
X411654Y171066*
X408867*
X408886Y171047*
Y172653*
X408867Y172635*
X411654*
X411636Y172653*
X408886Y171200D02*
X411636D01*
X408886Y171600D02*
X411636D01*
X408886Y172000D02*
X411636D01*
X408886Y172400D02*
X411636D01*
X409200Y171066D02*
Y172635D01*
X409600Y171066D02*
Y172635D01*
X410000Y171066D02*
Y172635D01*
X410400Y171066D02*
Y172635D01*
X410800Y171066D02*
Y172635D01*
X411200Y171066D02*
Y172635D01*
X411600Y171066D02*
Y172635D01*
X406518Y172653D02*
Y171047D01*
X406536Y171066*
X403749*
X403768Y171047*
Y172653*
X403749Y172635*
X406536*
X406518Y172653*
X403768Y171200D02*
X406518D01*
X403768Y171600D02*
X406518D01*
X403768Y172000D02*
X406518D01*
X403768Y172400D02*
X406518D01*
X404000Y171066D02*
Y172635D01*
X404400Y171066D02*
Y172635D01*
X404800Y171066D02*
Y172635D01*
X405200Y171066D02*
Y172635D01*
X405600Y171066D02*
Y172635D01*
X406000Y171066D02*
Y172635D01*
X406400Y171066D02*
Y172635D01*
X175292Y207225D02*
Y205619D01*
X175311Y205638*
X172524*
X172543Y205619*
Y207225*
X172524Y207206*
X175311*
X175292Y207225*
X172543Y206000D02*
X175292D01*
X172543Y206400D02*
X175292D01*
X172543Y206800D02*
X175292D01*
X172543Y207200D02*
X175292D01*
X172800Y205638D02*
Y207206D01*
X173200Y205638D02*
Y207206D01*
X173600Y205638D02*
Y207206D01*
X174000Y205638D02*
Y207206D01*
X174400Y205638D02*
Y207206D01*
X174800Y205638D02*
Y207206D01*
X175200Y205638D02*
Y207206D01*
X170174Y207225D02*
Y205619D01*
X170193Y205638*
X167406*
X167424Y205619*
Y207225*
X167406Y207206*
X170193*
X170174Y207225*
X167424Y206000D02*
X170174D01*
X167424Y206400D02*
X170174D01*
X167424Y206800D02*
X170174D01*
X167424Y207200D02*
X170174D01*
X167600Y205638D02*
Y207206D01*
X168000Y205638D02*
Y207206D01*
X168400Y205638D02*
Y207206D01*
X168800Y205638D02*
Y207206D01*
X169200Y205638D02*
Y207206D01*
X169600Y205638D02*
Y207206D01*
X170000Y205638D02*
Y207206D01*
X479432Y251633D02*
Y253239D01*
X479414Y253220*
X482201*
X482182Y253239*
Y251633*
X482201Y251652*
X479414*
X479432Y251633*
Y252000D02*
X482182D01*
X479432Y252400D02*
X482182D01*
X479432Y252800D02*
X482182D01*
X479432Y253200D02*
X482182D01*
X479600Y251652D02*
Y253220D01*
X480000Y251652D02*
Y253220D01*
X480400Y251652D02*
Y253220D01*
X480800Y251652D02*
Y253220D01*
X481200Y251652D02*
Y253220D01*
X481600Y251652D02*
Y253220D01*
X482000Y251652D02*
Y253220D01*
X484550Y251633D02*
Y253239D01*
X484532Y253220*
X487319*
X487300Y253239*
Y251633*
X487319Y251652*
X484532*
X484550Y251633*
Y252000D02*
X487300D01*
X484550Y252400D02*
X487300D01*
X484550Y252800D02*
X487300D01*
X484550Y253200D02*
X487300D01*
X484800Y251652D02*
Y253220D01*
X485200Y251652D02*
Y253220D01*
X485600Y251652D02*
Y253220D01*
X486000Y251652D02*
Y253220D01*
X486400Y251652D02*
Y253220D01*
X486800Y251652D02*
Y253220D01*
X487200Y251652D02*
Y253220D01*
X470752Y258584D02*
X472358D01*
X472339Y258603*
Y255816*
X472358Y255835*
X470752*
X470771Y255816*
Y258603*
X470752Y258584*
X470771Y256000D02*
X472339D01*
X470771Y256400D02*
X472339D01*
X470771Y256800D02*
X472339D01*
X470771Y257200D02*
X472339D01*
X470771Y257600D02*
X472339D01*
X470771Y258000D02*
X472339D01*
X470771Y258400D02*
X472339D01*
X470800Y255835D02*
Y258584D01*
X471200Y255835D02*
Y258584D01*
X471600Y255835D02*
Y258584D01*
X472000Y255835D02*
Y258584D01*
X470752Y253466D02*
X472358D01*
X472339Y253485*
Y250698*
X472358Y250717*
X470752*
X470771Y250698*
Y253485*
X470752Y253466*
X470771Y250800D02*
X472339D01*
X470771Y251200D02*
X472339D01*
X470771Y251600D02*
X472339D01*
X470771Y252000D02*
X472339D01*
X470771Y252400D02*
X472339D01*
X470771Y252800D02*
X472339D01*
X470771Y253200D02*
X472339D01*
X470800Y250717D02*
Y253466D01*
X471200Y250717D02*
Y253466D01*
X471600Y250717D02*
Y253466D01*
X472000Y250717D02*
Y253466D01*
X475427Y258584D02*
X477033D01*
X477015Y258603*
Y255816*
X477033Y255835*
X475427*
X475446Y255816*
Y258603*
X475427Y258584*
X475446Y256000D02*
X477015D01*
X475446Y256400D02*
X477015D01*
X475446Y256800D02*
X477015D01*
X475446Y257200D02*
X477015D01*
X475446Y257600D02*
X477015D01*
X475446Y258000D02*
X477015D01*
X475446Y258400D02*
X477015D01*
X475600Y255835D02*
Y258584D01*
X476000Y255835D02*
Y258584D01*
X476400Y255835D02*
Y258584D01*
X476800Y255835D02*
Y258584D01*
X475427Y253466D02*
X477033D01*
X477015Y253485*
Y250698*
X477033Y250717*
X475427*
X475446Y250698*
Y253485*
X475427Y253466*
X475446Y250800D02*
X477015D01*
X475446Y251200D02*
X477015D01*
X475446Y251600D02*
X477015D01*
X475446Y252000D02*
X477015D01*
X475446Y252400D02*
X477015D01*
X475446Y252800D02*
X477015D01*
X475446Y253200D02*
X477015D01*
X475600Y250717D02*
Y253466D01*
X476000Y250717D02*
Y253466D01*
X476400Y250717D02*
Y253466D01*
X476800Y250717D02*
Y253466D01*
X466200Y258584D02*
X467806D01*
X467787Y258603*
Y255816*
X467806Y255835*
X466200*
X466219Y255816*
Y258603*
X466200Y258584*
X466219Y256000D02*
X467787D01*
X466219Y256400D02*
X467787D01*
X466219Y256800D02*
X467787D01*
X466219Y257200D02*
X467787D01*
X466219Y257600D02*
X467787D01*
X466219Y258000D02*
X467787D01*
X466219Y258400D02*
X467787D01*
X466400Y255835D02*
Y258584D01*
X466800Y255835D02*
Y258584D01*
X467200Y255835D02*
Y258584D01*
X467600Y255835D02*
Y258584D01*
X466200Y253466D02*
X467806D01*
X467787Y253485*
Y250698*
X467806Y250717*
X466200*
X466219Y250698*
Y253485*
X466200Y253466*
X466219Y250800D02*
X467787D01*
X466219Y251200D02*
X467787D01*
X466219Y251600D02*
X467787D01*
X466219Y252000D02*
X467787D01*
X466219Y252400D02*
X467787D01*
X466219Y252800D02*
X467787D01*
X466219Y253200D02*
X467787D01*
X466400Y250717D02*
Y253466D01*
X466800Y250717D02*
Y253466D01*
X467200Y250717D02*
Y253466D01*
X467600Y250717D02*
Y253466D01*
X479432Y256062D02*
Y257668D01*
X479414Y257649*
X482201*
X482182Y257668*
Y256062*
X482201Y256081*
X479414*
X479432Y256062*
Y256400D02*
X482182D01*
X479432Y256800D02*
X482182D01*
X479432Y257200D02*
X482182D01*
X479432Y257600D02*
X482182D01*
X479600Y256081D02*
Y257649D01*
X480000Y256081D02*
Y257649D01*
X480400Y256081D02*
Y257649D01*
X480800Y256081D02*
Y257649D01*
X481200Y256081D02*
Y257649D01*
X481600Y256081D02*
Y257649D01*
X482000Y256081D02*
Y257649D01*
X484550Y256062D02*
Y257668D01*
X484532Y257649*
X487319*
X487300Y257668*
Y256062*
X487319Y256081*
X484532*
X484550Y256062*
Y256400D02*
X487300D01*
X484550Y256800D02*
X487300D01*
X484550Y257200D02*
X487300D01*
X484550Y257600D02*
X487300D01*
X484800Y256081D02*
Y257649D01*
X485200Y256081D02*
Y257649D01*
X485600Y256081D02*
Y257649D01*
X486000Y256081D02*
Y257649D01*
X486400Y256081D02*
Y257649D01*
X486800Y256081D02*
Y257649D01*
X487200Y256081D02*
Y257649D01*
X164656Y199167D02*
X163050D01*
X163069Y199148*
Y201935*
X163050Y201916*
X164656*
X164638Y201935*
Y199148*
X164656Y199167*
X163069Y199200D02*
X164638D01*
X163069Y199600D02*
X164638D01*
X163069Y200000D02*
X164638D01*
X163069Y200400D02*
X164638D01*
X163069Y200800D02*
X164638D01*
X163069Y201200D02*
X164638D01*
X163069Y201600D02*
X164638D01*
X163200Y199167D02*
Y201916D01*
X163600Y199167D02*
Y201916D01*
X164000Y199167D02*
Y201916D01*
X164400Y199167D02*
Y201916D01*
X164656Y204285D02*
X163050D01*
X163069Y204266*
Y207053*
X163050Y207034*
X164656*
X164638Y207053*
Y204266*
X164656Y204285*
X163069Y204400D02*
X164638D01*
X163069Y204800D02*
X164638D01*
X163069Y205200D02*
X164638D01*
X163069Y205600D02*
X164638D01*
X163069Y206000D02*
X164638D01*
X163069Y206400D02*
X164638D01*
X163069Y206800D02*
X164638D01*
X163200Y204285D02*
Y207034D01*
X163600Y204285D02*
Y207034D01*
X164000Y204285D02*
Y207034D01*
X164400Y204285D02*
Y207034D01*
X417172Y407397D02*
Y405792D01*
X417191Y405810*
X414404*
X414422Y405792*
Y407397*
X414404Y407379*
X417191*
X417172Y407397*
X414422Y406000D02*
X417172D01*
X414422Y406400D02*
X417172D01*
X414422Y406800D02*
X417172D01*
X414422Y407200D02*
X417172D01*
X414800Y405810D02*
Y407379D01*
X415200Y405810D02*
Y407379D01*
X415600Y405810D02*
Y407379D01*
X416000Y405810D02*
Y407379D01*
X416400Y405810D02*
Y407379D01*
X416800Y405810D02*
Y407379D01*
X412054Y407397D02*
Y405792D01*
X412073Y405810*
X409286*
X409304Y405792*
Y407397*
X409286Y407379*
X412073*
X412054Y407397*
X409304Y406000D02*
X412054D01*
X409304Y406400D02*
X412054D01*
X409304Y406800D02*
X412054D01*
X409304Y407200D02*
X412054D01*
X409600Y405810D02*
Y407379D01*
X410000Y405810D02*
Y407379D01*
X410400Y405810D02*
Y407379D01*
X410800Y405810D02*
Y407379D01*
X411200Y405810D02*
Y407379D01*
X411600Y405810D02*
Y407379D01*
X412000Y405810D02*
Y407379D01*
X403639Y360153D02*
Y358547D01*
X403657Y358566*
X400870*
X400889Y358547*
Y360153*
X400870Y360135*
X403657*
X403639Y360153*
X400889Y358800D02*
X403639D01*
X400889Y359200D02*
X403639D01*
X400889Y359600D02*
X403639D01*
X400889Y360000D02*
X403639D01*
X401200Y358566D02*
Y360135D01*
X401600Y358566D02*
Y360135D01*
X402000Y358566D02*
Y360135D01*
X402400Y358566D02*
Y360135D01*
X402800Y358566D02*
Y360135D01*
X403200Y358566D02*
Y360135D01*
X403600Y358566D02*
Y360135D01*
X398520Y360153D02*
Y358547D01*
X398539Y358566*
X395752*
X395771Y358547*
Y360153*
X395752Y360135*
X398539*
X398520Y360153*
X395771Y358800D02*
X398520D01*
X395771Y359200D02*
X398520D01*
X395771Y359600D02*
X398520D01*
X395771Y360000D02*
X398520D01*
X396000Y358566D02*
Y360135D01*
X396400Y358566D02*
Y360135D01*
X396800Y358566D02*
Y360135D01*
X397200Y358566D02*
Y360135D01*
X397600Y358566D02*
Y360135D01*
X398000Y358566D02*
Y360135D01*
X398400Y358566D02*
Y360135D01*
X437171Y288241D02*
X435565D01*
X435584Y288223*
Y291010*
X435565Y290991*
X437171*
X437152Y291010*
Y288223*
X437171Y288241*
X435584Y288400D02*
X437152D01*
X435584Y288800D02*
X437152D01*
X435584Y289200D02*
X437152D01*
X435584Y289600D02*
X437152D01*
X435584Y290000D02*
X437152D01*
X435584Y290400D02*
X437152D01*
X435584Y290800D02*
X437152D01*
X435600Y288241D02*
Y290991D01*
X436000Y288241D02*
Y290991D01*
X436400Y288241D02*
Y290991D01*
X436800Y288241D02*
Y290991D01*
X437171Y293359D02*
X435565D01*
X435584Y293341*
Y296128*
X435565Y296109*
X437171*
X437152Y296128*
Y293341*
X437171Y293359*
X435584Y293600D02*
X437152D01*
X435584Y294000D02*
X437152D01*
X435584Y294400D02*
X437152D01*
X435584Y294800D02*
X437152D01*
X435584Y295200D02*
X437152D01*
X435584Y295600D02*
X437152D01*
X435584Y296000D02*
X437152D01*
X435600Y293359D02*
Y296109D01*
X436000Y293359D02*
Y296109D01*
X436400Y293359D02*
Y296109D01*
X436800Y293359D02*
Y296109D01*
X441846Y300298D02*
X440240D01*
X440259Y300280*
Y303067*
X440240Y303048*
X441846*
X441828Y303067*
Y300280*
X441846Y300298*
X440259Y300400D02*
X441828D01*
X440259Y300800D02*
X441828D01*
X440259Y301200D02*
X441828D01*
X440259Y301600D02*
X441828D01*
X440259Y302000D02*
X441828D01*
X440259Y302400D02*
X441828D01*
X440259Y302800D02*
X441828D01*
X440400Y300298D02*
Y303048D01*
X440800Y300298D02*
Y303048D01*
X441200Y300298D02*
Y303048D01*
X441600Y300298D02*
Y303048D01*
X441846Y305417D02*
X440240D01*
X440259Y305398*
Y308185*
X440240Y308166*
X441846*
X441828Y308185*
Y305398*
X441846Y305417*
X440259Y305600D02*
X441828D01*
X440259Y306000D02*
X441828D01*
X440259Y306400D02*
X441828D01*
X440259Y306800D02*
X441828D01*
X440259Y307200D02*
X441828D01*
X440259Y307600D02*
X441828D01*
X440259Y308000D02*
X441828D01*
X440400Y305417D02*
Y308166D01*
X440800Y305417D02*
Y308166D01*
X441200Y305417D02*
Y308166D01*
X441600Y305417D02*
Y308166D01*
X326381Y83203D02*
Y84809D01*
X326362Y84790*
X329149*
X329131Y84809*
Y83203*
X329149Y83222*
X326362*
X326381Y83203*
X326381*
X329131D02*
X329131D01*
X326381Y83603D02*
X329131D01*
X326381Y84003D02*
X329131D01*
X326381Y84403D02*
X329131D01*
X326375Y84803D02*
X326381D01*
X329131D02*
X329137D01*
X326400Y83222D02*
Y84790D01*
X326800Y83222D02*
Y84790D01*
X327200Y83222D02*
Y84790D01*
X327600Y83222D02*
Y84790D01*
X328000Y83222D02*
Y84790D01*
X328400Y83222D02*
Y84790D01*
X328800Y83222D02*
Y84790D01*
X331499Y83203D02*
Y84809D01*
X331480Y84790*
X334268*
X334249Y84809*
Y83203*
X334268Y83222*
X331480*
X331499Y83203*
X331499*
X334249D02*
X334249D01*
X331499Y83603D02*
X334249D01*
X331499Y84003D02*
X334249D01*
X331499Y84403D02*
X334249D01*
X331493Y84803D02*
X331499D01*
X334249D02*
X334255D01*
X331600Y83222D02*
Y84790D01*
X332000Y83222D02*
Y84790D01*
X332400Y83222D02*
Y84790D01*
X332800Y83222D02*
Y84790D01*
X333200Y83222D02*
Y84790D01*
X333600Y83222D02*
Y84790D01*
X334000Y83222D02*
Y84790D01*
X350981Y362614D02*
Y361008D01*
X351000Y361027*
X348213*
X348231Y361008*
Y362614*
X348213Y362595*
X351000*
X350981Y362614*
X348231Y361200D02*
X350981D01*
X348231Y361600D02*
X350981D01*
X348231Y362000D02*
X350981D01*
X348231Y362400D02*
X350981D01*
X348400Y361027D02*
Y362595D01*
X348800Y361027D02*
Y362595D01*
X349200Y361027D02*
Y362595D01*
X349600Y361027D02*
Y362595D01*
X350000Y361027D02*
Y362595D01*
X350400Y361027D02*
Y362595D01*
X350800Y361027D02*
Y362595D01*
X345863Y362614D02*
Y361008D01*
X345882Y361027*
X343095*
X343113Y361008*
Y362614*
X343095Y362595*
X345882*
X345863Y362614*
X343113Y361200D02*
X345863D01*
X343113Y361600D02*
X345863D01*
X343113Y362000D02*
X345863D01*
X343113Y362400D02*
X345863D01*
X343200Y361027D02*
Y362595D01*
X343600Y361027D02*
Y362595D01*
X344000Y361027D02*
Y362595D01*
X344400Y361027D02*
Y362595D01*
X344800Y361027D02*
Y362595D01*
X345200Y361027D02*
Y362595D01*
X345600Y361027D02*
Y362595D01*
X181259Y366483D02*
X182865D01*
X182846Y366502*
Y363715*
X182865Y363733*
X181259*
X181278Y363715*
Y366502*
X181259Y366483*
X181278Y364000D02*
X182846D01*
X181278Y364400D02*
X182846D01*
X181278Y364800D02*
X182846D01*
X181278Y365200D02*
X182846D01*
X181278Y365600D02*
X182846D01*
X181278Y366000D02*
X182846D01*
X181278Y366400D02*
X182846D01*
X181600Y363733D02*
Y366483D01*
X182000Y363733D02*
Y366483D01*
X182400Y363733D02*
Y366483D01*
X182800Y363733D02*
Y366483D01*
X181259Y361365D02*
X182865D01*
X182846Y361384*
Y358597*
X182865Y358615*
X181259*
X181278Y358597*
Y361384*
X181259Y361365*
X181278Y358800D02*
X182846D01*
X181278Y359200D02*
X182846D01*
X181278Y359600D02*
X182846D01*
X181278Y360000D02*
X182846D01*
X181278Y360400D02*
X182846D01*
X181278Y360800D02*
X182846D01*
X181278Y361200D02*
X182846D01*
X181600Y358615D02*
Y361365D01*
X182000Y358615D02*
Y361365D01*
X182400Y358615D02*
Y361365D01*
X182800Y358615D02*
Y361365D01*
X414896Y322684D02*
X416502D01*
X416483Y322703*
Y319916*
X416502Y319934*
X414896*
X414915Y319916*
Y322703*
X414896Y322684*
X414915Y320000D02*
X416483D01*
X414915Y320400D02*
X416483D01*
X414915Y320800D02*
X416483D01*
X414915Y321200D02*
X416483D01*
X414915Y321600D02*
X416483D01*
X414915Y322000D02*
X416483D01*
X414915Y322400D02*
X416483D01*
X415200Y319934D02*
Y322684D01*
X415600Y319934D02*
Y322684D01*
X416000Y319934D02*
Y322684D01*
X416400Y319934D02*
Y322684D01*
X414896Y317566D02*
X416502D01*
X416483Y317584*
Y314797*
X416502Y314816*
X414896*
X414915Y314797*
Y317584*
X414896Y317566*
X414912Y314800D02*
X414915D01*
X416483D02*
X416486D01*
X414915Y315200D02*
X416483D01*
X414915Y315600D02*
X416483D01*
X414915Y316000D02*
X416483D01*
X414915Y316400D02*
X416483D01*
X414915Y316800D02*
X416483D01*
X414915Y317200D02*
X416483D01*
X415200Y314816D02*
Y317566D01*
X415600Y314816D02*
Y317566D01*
X416000Y314816D02*
Y317566D01*
X416400Y314816D02*
Y317566D01*
X298877Y99997D02*
X300483D01*
X300464Y100016*
Y97229*
X300483Y97247*
X298877*
X298896Y97229*
Y100016*
X298877Y99997*
X298896Y97229D02*
X298896D01*
X300464D02*
X300464D01*
X298896Y97629D02*
X300464D01*
X298896Y98029D02*
X300464D01*
X298896Y98429D02*
X300464D01*
X298896Y98829D02*
X300464D01*
X298896Y99229D02*
X300464D01*
X298896Y99629D02*
X300464D01*
X299200Y97247D02*
Y99997D01*
X299600Y97247D02*
Y99997D01*
X300000Y97247D02*
Y99997D01*
X300400Y97247D02*
Y99997D01*
X298877Y94879D02*
X300483D01*
X300464Y94897*
Y92110*
X300483Y92129*
X298877*
X298896Y92110*
Y94897*
X298877Y94879*
X298896Y92110D02*
X298896D01*
X300464D02*
X300464D01*
X298896Y92510D02*
X300464D01*
X298896Y92910D02*
X300464D01*
X298896Y93310D02*
X300464D01*
X298896Y93710D02*
X300464D01*
X298896Y94110D02*
X300464D01*
X298896Y94510D02*
X300464D01*
X299200Y92129D02*
Y94879D01*
X299600Y92129D02*
Y94879D01*
X300000Y92129D02*
Y94879D01*
X300400Y92129D02*
Y94879D01*
X362891Y105413D02*
X364026Y106548D01*
X364000*
X365971Y104578*
Y104604*
X364835Y103468*
X364861*
X362891Y105439*
Y105413*
X364730Y103600D02*
X364967D01*
X364330Y104000D02*
X365367D01*
X363930Y104400D02*
X365767D01*
X363530Y104800D02*
X365748D01*
X363130Y105200D02*
X365348D01*
X363078Y105600D02*
X364948D01*
X363478Y106000D02*
X364548D01*
X363878Y106400D02*
X364148D01*
X363200Y105130D02*
Y105722D01*
X363600Y104730D02*
Y106122D01*
X364000Y104330D02*
Y106522D01*
Y106548D02*
X364000D01*
X364400Y103930D02*
Y106148D01*
X364800Y103530D02*
Y105748D01*
X365200Y103833D02*
Y105348D01*
X365600Y104233D02*
Y104948D01*
X366510Y101794D02*
X367645Y102929D01*
X367619*
X369590Y100958*
Y100985*
X368454Y99849*
X368481*
X366510Y101820*
Y101794*
X368454Y99849D02*
X368481D01*
X368081Y100249D02*
X368854D01*
X367681Y100649D02*
X369254D01*
X367281Y101049D02*
X369499D01*
X366881Y101449D02*
X369099D01*
X366565Y101849D02*
X368699D01*
X366965Y102249D02*
X368299D01*
X367365Y102649D02*
X367899D01*
X366800Y101530D02*
Y102084D01*
X367200Y101130D02*
Y102484D01*
X367600Y100730D02*
Y102884D01*
X368000Y100330D02*
Y102548D01*
X368400Y99930D02*
Y102148D01*
X368800Y100195D02*
Y101748D01*
X369200Y100595D02*
Y101348D01*
X359938Y102337D02*
X361074Y103472D01*
X361047*
X363018Y101502*
Y101528*
X361882Y100393*
X361909*
X359938Y102363*
Y102337*
X361890Y100400D02*
X361901D01*
X361501Y100800D02*
X362290D01*
X361101Y101200D02*
X362690D01*
X360701Y101600D02*
X362920D01*
X360301Y102000D02*
X362520D01*
X360001Y102400D02*
X362120D01*
X360401Y102800D02*
X361720D01*
X360801Y103200D02*
X361320D01*
X360000Y102301D02*
Y102399D01*
X360400Y101901D02*
Y102799D01*
X360800Y101501D02*
Y103199D01*
X361200Y101101D02*
Y103320D01*
X361600Y100701D02*
Y102920D01*
X362000Y100510D02*
Y102520D01*
X362400Y100910D02*
Y102120D01*
X362800Y101310D02*
Y101720D01*
X363557Y98718D02*
X364693Y99853D01*
X364666*
X366637Y97883*
Y97909*
X365501Y96774*
X365528*
X363557Y98744*
Y98718*
X365501Y96774D02*
X365528D01*
X365128Y97174D02*
X365901D01*
X364728Y97574D02*
X366301D01*
X364328Y97974D02*
X366546D01*
X363928Y98374D02*
X366146D01*
X363613Y98774D02*
X365746D01*
X364013Y99174D02*
X365346D01*
X364413Y99574D02*
X364946D01*
X363600Y98701D02*
Y98761D01*
X364000Y98301D02*
Y99161D01*
X364400Y97901D02*
Y99561D01*
X364800Y97501D02*
Y99720D01*
X365200Y97101D02*
Y99320D01*
X365600Y96872D02*
Y98920D01*
X366000Y97272D02*
Y98520D01*
X366400Y97672D02*
Y98120D01*
X350327Y106006D02*
X351455Y107149D01*
X351428*
X353412Y105191*
Y105217*
X352284Y104074*
X352310*
X350327Y106032*
Y106006*
X351981Y104400D02*
X352605D01*
X351575Y104800D02*
X353000D01*
X351170Y105200D02*
X353395D01*
X353403D02*
X353412D01*
X350765Y105600D02*
X352998D01*
X350359Y106000D02*
X352592D01*
X350716Y106400D02*
X352187D01*
X351111Y106800D02*
X351782D01*
X350400Y105960D02*
Y106080D01*
X350800Y105565D02*
Y106485D01*
X351200Y105170D02*
Y106890D01*
X351600Y104776D02*
Y106979D01*
X352000Y104381D02*
Y106585D01*
X352400Y104192D02*
Y106190D01*
X352800Y104597D02*
Y105795D01*
X353200Y105002D02*
Y105400D01*
X353970Y102411D02*
X355098Y103554D01*
X355071*
X357055Y101596*
Y101622*
X355927Y100479*
X355953*
X353970Y102437*
Y102411*
X355629Y100800D02*
X356243D01*
X355223Y101200D02*
X356638D01*
X354818Y101600D02*
X357033D01*
X357051D02*
X357055D01*
X354413Y102000D02*
X356646D01*
X354007Y102400D02*
X356240D01*
X354354Y102800D02*
X355835D01*
X354749Y103200D02*
X355430D01*
X354000Y102407D02*
Y102441D01*
X354400Y102012D02*
Y102846D01*
X354800Y101618D02*
Y103252D01*
X355200Y101223D02*
Y103427D01*
X355600Y100828D02*
Y103032D01*
X356000Y100553D02*
Y102637D01*
X356400Y100959D02*
Y102242D01*
X356800Y101364D02*
Y101848D01*
X191539Y205004D02*
Y206610D01*
X191520Y206591*
X194307*
X194288Y206610*
Y205004*
X194307Y205023*
X191520*
X191539Y205004*
Y205200D02*
X194288D01*
X191539Y205600D02*
X194288D01*
X191539Y206000D02*
X194288D01*
X191539Y206400D02*
X194288D01*
X191600Y205023D02*
Y206591D01*
X192000Y205023D02*
Y206591D01*
X192400Y205023D02*
Y206591D01*
X192800Y205023D02*
Y206591D01*
X193200Y205023D02*
Y206591D01*
X193600Y205023D02*
Y206591D01*
X194000Y205023D02*
Y206591D01*
X196657Y205004D02*
Y206610D01*
X196638Y206591*
X199425*
X199406Y206610*
Y205004*
X199425Y205023*
X196638*
X196657Y205004*
Y205200D02*
X199406D01*
X196657Y205600D02*
X199406D01*
X196657Y206000D02*
X199406D01*
X196657Y206400D02*
X199406D01*
X196800Y205023D02*
Y206591D01*
X197200Y205023D02*
Y206591D01*
X197600Y205023D02*
Y206591D01*
X198000Y205023D02*
Y206591D01*
X198400Y205023D02*
Y206591D01*
X198800Y205023D02*
Y206591D01*
X199200Y205023D02*
Y206591D01*
X191539Y200083D02*
Y201689D01*
X191520Y201670*
X194307*
X194288Y201689*
Y200083*
X194307Y200102*
X191520*
X191539Y200083*
Y200400D02*
X194288D01*
X191539Y200800D02*
X194288D01*
X191539Y201200D02*
X194288D01*
X191539Y201600D02*
X194288D01*
X191600Y200102D02*
Y201670D01*
X192000Y200102D02*
Y201670D01*
X192400Y200102D02*
Y201670D01*
X192800Y200102D02*
Y201670D01*
X193200Y200102D02*
Y201670D01*
X193600Y200102D02*
Y201670D01*
X194000Y200102D02*
Y201670D01*
X196657Y200083D02*
Y201689D01*
X196638Y201670*
X199425*
X199406Y201689*
Y200083*
X199425Y200102*
X196638*
X196657Y200083*
Y200400D02*
X199406D01*
X196657Y200800D02*
X199406D01*
X196657Y201200D02*
X199406D01*
X196657Y201600D02*
X199406D01*
X196800Y200102D02*
Y201670D01*
X197200Y200102D02*
Y201670D01*
X197600Y200102D02*
Y201670D01*
X198000Y200102D02*
Y201670D01*
X198400Y200102D02*
Y201670D01*
X198800Y200102D02*
Y201670D01*
X199200Y200102D02*
Y201670D01*
X191225Y197438D02*
X192831D01*
X192812Y197457*
Y194669*
X192831Y194688*
X191225*
X191243Y194669*
Y197457*
X191225Y197438*
X191243Y194800D02*
X192812D01*
X191243Y195200D02*
X192812D01*
X191243Y195600D02*
X192812D01*
X191243Y196000D02*
X192812D01*
X191243Y196400D02*
X192812D01*
X191243Y196800D02*
X192812D01*
X191243Y197200D02*
X192812D01*
X191600Y194688D02*
Y197438D01*
X192000Y194688D02*
Y197438D01*
X192400Y194688D02*
Y197438D01*
X192800Y194688D02*
Y197438D01*
X191225Y192320D02*
X192831D01*
X192812Y192338*
Y189551*
X192831Y189570*
X191225*
X191243Y189551*
Y192338*
X191225Y192320*
X191243Y189600D02*
X192812D01*
X191243Y190000D02*
X192812D01*
X191243Y190400D02*
X192812D01*
X191243Y190800D02*
X192812D01*
X191243Y191200D02*
X192812D01*
X191243Y191600D02*
X192812D01*
X191243Y192000D02*
X192812D01*
X191600Y189570D02*
Y192320D01*
X192000Y189570D02*
Y192320D01*
X192400Y189570D02*
Y192320D01*
X192800Y189570D02*
Y192320D01*
X333763Y380201D02*
Y381807D01*
X333744Y381788*
X336531*
X336513Y381807*
Y380201*
X336531Y380220*
X333744*
X333763Y380201*
Y380400D02*
X336513D01*
X333763Y380800D02*
X336513D01*
X333763Y381200D02*
X336513D01*
X333763Y381600D02*
X336513D01*
X334000Y380220D02*
Y381788D01*
X334400Y380220D02*
Y381788D01*
X334800Y380220D02*
Y381788D01*
X335200Y380220D02*
Y381788D01*
X335600Y380220D02*
Y381788D01*
X336000Y380220D02*
Y381788D01*
X336400Y380220D02*
Y381788D01*
X338881Y380201D02*
Y381807D01*
X338862Y381788*
X341649*
X341631Y381807*
Y380201*
X341649Y380220*
X338862*
X338881Y380201*
Y380400D02*
X341631D01*
X338881Y380800D02*
X341631D01*
X338881Y381200D02*
X341631D01*
X338881Y381600D02*
X341631D01*
X339200Y380220D02*
Y381788D01*
X339600Y380220D02*
Y381788D01*
X340000Y380220D02*
Y381788D01*
X340400Y380220D02*
Y381788D01*
X340800Y380220D02*
Y381788D01*
X341200Y380220D02*
Y381788D01*
X341600Y380220D02*
Y381788D01*
X333271Y367898D02*
Y369504D01*
X333252Y369485*
X336039*
X336020Y369504*
Y367898*
X336039Y367917*
X333252*
X333271Y367898*
Y368000D02*
X336020D01*
X333271Y368400D02*
X336020D01*
X333271Y368800D02*
X336020D01*
X333271Y369200D02*
X336020D01*
X333600Y367917D02*
Y369485D01*
X334000Y367917D02*
Y369485D01*
X334400Y367917D02*
Y369485D01*
X334800Y367917D02*
Y369485D01*
X335200Y367917D02*
Y369485D01*
X335600Y367917D02*
Y369485D01*
X336000Y367917D02*
Y369485D01*
X338389Y367898D02*
Y369504D01*
X338370Y369485*
X341157*
X341139Y369504*
Y367898*
X341157Y367917*
X338370*
X338389Y367898*
Y368000D02*
X341139D01*
X338389Y368400D02*
X341139D01*
X338389Y368800D02*
X341139D01*
X338389Y369200D02*
X341139D01*
X338400Y367917D02*
Y369485D01*
X338800Y367917D02*
Y369485D01*
X339200Y367917D02*
Y369485D01*
X339600Y367917D02*
Y369485D01*
X340000Y367917D02*
Y369485D01*
X340400Y367917D02*
Y369485D01*
X340800Y367917D02*
Y369485D01*
X333271Y352642D02*
Y354248D01*
X333252Y354229*
X336039*
X336020Y354248*
Y352642*
X336039Y352661*
X333252*
X333271Y352642*
Y352800D02*
X336020D01*
X333271Y353200D02*
X336020D01*
X333271Y353600D02*
X336020D01*
X333271Y354000D02*
X336020D01*
X333600Y352661D02*
Y354229D01*
X334000Y352661D02*
Y354229D01*
X334400Y352661D02*
Y354229D01*
X334800Y352661D02*
Y354229D01*
X335200Y352661D02*
Y354229D01*
X335600Y352661D02*
Y354229D01*
X336000Y352661D02*
Y354229D01*
X338389Y352642D02*
Y354248D01*
X338370Y354229*
X341157*
X341139Y354248*
Y352642*
X341157Y352661*
X338370*
X338389Y352642*
Y352800D02*
X341139D01*
X338389Y353200D02*
X341139D01*
X338389Y353600D02*
X341139D01*
X338389Y354000D02*
X341139D01*
X338400Y352661D02*
Y354229D01*
X338800Y352661D02*
Y354229D01*
X339200Y352661D02*
Y354229D01*
X339600Y352661D02*
Y354229D01*
X340000Y352661D02*
Y354229D01*
X340400Y352661D02*
Y354229D01*
X340800Y352661D02*
Y354229D01*
X333763Y393980D02*
Y395586D01*
X333744Y395568*
X336531*
X336513Y395586*
Y393980*
X336531Y393999*
X333744*
X333763Y393980*
Y394000D02*
X336513D01*
X333763Y394400D02*
X336513D01*
X333763Y394800D02*
X336513D01*
X333763Y395200D02*
X336513D01*
X334000Y393999D02*
Y395568D01*
X334400Y393999D02*
Y395568D01*
X334800Y393999D02*
Y395568D01*
X335200Y393999D02*
Y395568D01*
X335600Y393999D02*
Y395568D01*
X336000Y393999D02*
Y395568D01*
X336400Y393999D02*
Y395568D01*
X338881Y393980D02*
Y395586D01*
X338862Y395568*
X341649*
X341631Y395586*
Y393980*
X341649Y393999*
X338862*
X338881Y393980*
Y394000D02*
X341631D01*
X338881Y394400D02*
X341631D01*
X338881Y394800D02*
X341631D01*
X338881Y395200D02*
X341631D01*
X339200Y393999D02*
Y395568D01*
X339600Y393999D02*
Y395568D01*
X340000Y393999D02*
Y395568D01*
X340400Y393999D02*
Y395568D01*
X340800Y393999D02*
Y395568D01*
X341200Y393999D02*
Y395568D01*
X341600Y393999D02*
Y395568D01*
X333271Y358547D02*
Y360153D01*
X333252Y360135*
X336039*
X336020Y360153*
Y358547*
X336039Y358566*
X333252*
X333271Y358547*
Y358800D02*
X336020D01*
X333271Y359200D02*
X336020D01*
X333271Y359600D02*
X336020D01*
X333271Y360000D02*
X336020D01*
X333600Y358566D02*
Y360135D01*
X334000Y358566D02*
Y360135D01*
X334400Y358566D02*
Y360135D01*
X334800Y358566D02*
Y360135D01*
X335200Y358566D02*
Y360135D01*
X335600Y358566D02*
Y360135D01*
X336000Y358566D02*
Y360135D01*
X338389Y358547D02*
Y360153D01*
X338370Y360135*
X341157*
X341139Y360153*
Y358547*
X341157Y358566*
X338370*
X338389Y358547*
Y358800D02*
X341139D01*
X338389Y359200D02*
X341139D01*
X338389Y359600D02*
X341139D01*
X338389Y360000D02*
X341139D01*
X338400Y358566D02*
Y360135D01*
X338800Y358566D02*
Y360135D01*
X339200Y358566D02*
Y360135D01*
X339600Y358566D02*
Y360135D01*
X340000Y358566D02*
Y360135D01*
X340400Y358566D02*
Y360135D01*
X340800Y358566D02*
Y360135D01*
X333271Y363469D02*
Y365075D01*
X333252Y365056*
X336039*
X336020Y365075*
Y363469*
X336039Y363487*
X333252*
X333271Y363469*
Y363600D02*
X336020D01*
X333271Y364000D02*
X336020D01*
X333271Y364400D02*
X336020D01*
X333271Y364800D02*
X336020D01*
X333600Y363487D02*
Y365056D01*
X334000Y363487D02*
Y365056D01*
X334400Y363487D02*
Y365056D01*
X334800Y363487D02*
Y365056D01*
X335200Y363487D02*
Y365056D01*
X335600Y363487D02*
Y365056D01*
X336000Y363487D02*
Y365056D01*
X338389Y363469D02*
Y365075D01*
X338370Y365056*
X341157*
X341139Y365075*
Y363469*
X341157Y363487*
X338370*
X338389Y363469*
Y363600D02*
X341139D01*
X338389Y364000D02*
X341139D01*
X338389Y364400D02*
X341139D01*
X338389Y364800D02*
X341139D01*
X338400Y363487D02*
Y365056D01*
X338800Y363487D02*
Y365056D01*
X339200Y363487D02*
Y365056D01*
X339600Y363487D02*
Y365056D01*
X340000Y363487D02*
Y365056D01*
X340400Y363487D02*
Y365056D01*
X340800Y363487D02*
Y365056D01*
X333763Y384630D02*
Y386236D01*
X333744Y386217*
X336531*
X336513Y386236*
Y384630*
X336531Y384649*
X333744*
X333763Y384630*
Y384800D02*
X336513D01*
X333763Y385200D02*
X336513D01*
X333763Y385600D02*
X336513D01*
X333763Y386000D02*
X336513D01*
X334000Y384649D02*
Y386217D01*
X334400Y384649D02*
Y386217D01*
X334800Y384649D02*
Y386217D01*
X335200Y384649D02*
Y386217D01*
X335600Y384649D02*
Y386217D01*
X336000Y384649D02*
Y386217D01*
X336400Y384649D02*
Y386217D01*
X338881Y384630D02*
Y386236D01*
X338862Y386217*
X341649*
X341631Y386236*
Y384630*
X341649Y384649*
X338862*
X338881Y384630*
Y384800D02*
X341631D01*
X338881Y385200D02*
X341631D01*
X338881Y385600D02*
X341631D01*
X338881Y386000D02*
X341631D01*
X339200Y384649D02*
Y386217D01*
X339600Y384649D02*
Y386217D01*
X340000Y384649D02*
Y386217D01*
X340400Y384649D02*
Y386217D01*
X340800Y384649D02*
Y386217D01*
X341200Y384649D02*
Y386217D01*
X341600Y384649D02*
Y386217D01*
X333763Y389551D02*
Y391157D01*
X333744Y391139*
X336531*
X336513Y391157*
Y389551*
X336531Y389570*
X333744*
X333763Y389551*
Y389600D02*
X336513D01*
X333763Y390000D02*
X336513D01*
X333763Y390400D02*
X336513D01*
X333763Y390800D02*
X336513D01*
X334000Y389570D02*
Y391139D01*
X334400Y389570D02*
Y391139D01*
X334800Y389570D02*
Y391139D01*
X335200Y389570D02*
Y391139D01*
X335600Y389570D02*
Y391139D01*
X336000Y389570D02*
Y391139D01*
X336400Y389570D02*
Y391139D01*
X338881Y389551D02*
Y391157D01*
X338862Y391139*
X341649*
X341631Y391157*
Y389551*
X341649Y389570*
X338862*
X338881Y389551*
Y389600D02*
X341631D01*
X338881Y390000D02*
X341631D01*
X338881Y390400D02*
X341631D01*
X338881Y390800D02*
X341631D01*
X339200Y389570D02*
Y391139D01*
X339600Y389570D02*
Y391139D01*
X340000Y389570D02*
Y391139D01*
X340400Y389570D02*
Y391139D01*
X340800Y389570D02*
Y391139D01*
X341200Y389570D02*
Y391139D01*
X341600Y389570D02*
Y391139D01*
X297653Y72690D02*
X296047D01*
X296066Y72671*
Y75458*
X296047Y75440*
X297653*
X297635Y75458*
Y72671*
X297653Y72690*
X296066Y72671D02*
X296066D01*
X297635D02*
X297635D01*
X296066Y73071D02*
X297635D01*
X296066Y73471D02*
X297635D01*
X296066Y73871D02*
X297635D01*
X296066Y74271D02*
X297635D01*
X296066Y74671D02*
X297635D01*
X296066Y75071D02*
X297635D01*
X296400Y72690D02*
Y75440D01*
X296800Y72690D02*
Y75440D01*
X297200Y72690D02*
Y75440D01*
X297600Y72690D02*
Y75440D01*
X297653Y77808D02*
X296047D01*
X296066Y77790*
Y80577*
X296047Y80558*
X297653*
X297635Y80577*
Y77790*
X297653Y77808*
X296066Y77790D02*
X296066D01*
X297635D02*
X297635D01*
X296066Y78190D02*
X297635D01*
X296066Y78590D02*
X297635D01*
X296066Y78990D02*
X297635D01*
X296066Y79390D02*
X297635D01*
X296066Y79790D02*
X297635D01*
X296066Y80190D02*
X297635D01*
X296400Y77808D02*
Y80558D01*
X296800Y77808D02*
Y80558D01*
X297200Y77808D02*
Y80558D01*
X297600Y77808D02*
Y80558D01*
X322105Y81296D02*
X323711D01*
X323693Y81315*
Y78528*
X323711Y78546*
X322105*
X322124Y78528*
Y81315*
X322105Y81296*
X322124Y78528D02*
X322124D01*
X323693D02*
X323693D01*
X322124Y78928D02*
X323693D01*
X322124Y79328D02*
X323693D01*
X322124Y79728D02*
X323693D01*
X322124Y80128D02*
X323693D01*
X322124Y80528D02*
X323693D01*
X322124Y80928D02*
X323693D01*
X322400Y78546D02*
Y81296D01*
X322800Y78546D02*
Y81296D01*
X323200Y78546D02*
Y81296D01*
X323600Y78546D02*
Y81296D01*
X322105Y76178D02*
X323711D01*
X323693Y76197*
Y73410*
X323711Y73428*
X322105*
X322124Y73410*
Y76197*
X322105Y76178*
X322124Y73410D02*
X322124D01*
X323693D02*
X323693D01*
X322124Y73810D02*
X323693D01*
X322124Y74210D02*
X323693D01*
X322124Y74610D02*
X323693D01*
X322124Y75010D02*
X323693D01*
X322124Y75410D02*
X323693D01*
X322124Y75810D02*
X323693D01*
X322400Y73428D02*
Y76178D01*
X322800Y73428D02*
Y76178D01*
X323200Y73428D02*
Y76178D01*
X323600Y73428D02*
Y76178D01*
X309891Y81204D02*
X311027Y80068D01*
Y80095*
X309056Y78124*
X309082*
X307947Y79260*
Y79233*
X309918Y81204*
X309891*
X309056Y78124D02*
X309082D01*
X308682Y78524D02*
X309456D01*
X308282Y78924D02*
X309856D01*
X308038Y79324D02*
X310256D01*
X308438Y79724D02*
X310656D01*
X308838Y80124D02*
X310971D01*
X309238Y80524D02*
X310571D01*
X309638Y80924D02*
X310171D01*
X308000Y79206D02*
Y79286D01*
X308400Y78806D02*
Y79686D01*
X308800Y78406D02*
Y80086D01*
X309200Y78268D02*
Y80486D01*
X309600Y78668D02*
Y80886D01*
X310000Y79068D02*
Y81095D01*
X310400Y79468D02*
Y80695D01*
X310800Y79868D02*
Y80295D01*
X306272Y77585D02*
X307408Y76449D01*
Y76476*
X305437Y74505*
X305463*
X304328Y75640*
Y75614*
X306298Y77585*
X306272*
X305437Y74505D02*
X305463D01*
X305063Y74905D02*
X305837D01*
X304663Y75305D02*
X306237D01*
X304419Y75705D02*
X306637D01*
X304819Y76105D02*
X307037D01*
X305219Y76505D02*
X307352D01*
X305619Y76905D02*
X306952D01*
X306019Y77305D02*
X306552D01*
X304400Y75568D02*
Y75686D01*
X304800Y75168D02*
Y76086D01*
X305200Y74768D02*
Y76486D01*
X305600Y74668D02*
Y76886D01*
X306000Y75068D02*
Y77286D01*
X306400Y75468D02*
Y77457D01*
X306800Y75868D02*
Y77057D01*
X307200Y76268D02*
Y76657D01*
X347251Y102930D02*
X348379Y104073D01*
X348353*
X350336Y102115*
Y102142*
X349208Y100998*
X349235Y100999*
X347251Y102956*
Y102930*
X349031Y101200D02*
X349407D01*
X348625Y101600D02*
X349802D01*
X348220Y102000D02*
X350197D01*
X347815Y102400D02*
X350048D01*
X347409Y102800D02*
X349642D01*
X347518Y103200D02*
X349237D01*
X347912Y103600D02*
X348832D01*
X348307Y104000D02*
X348426D01*
X347600Y102612D02*
Y103283D01*
X348000Y102217D02*
Y103689D01*
X348400Y101822D02*
Y104026D01*
X348800Y101428D02*
Y103631D01*
X349200Y101033D02*
Y103237D01*
X349600Y101395D02*
Y102842D01*
X350000Y101801D02*
Y102447D01*
X350894Y99335D02*
X352022Y100478D01*
X351996*
X353979Y98520*
Y98547*
X352851Y97403*
X352878Y97404*
X350894Y99361*
Y99335*
X352851Y97403D02*
X352851D01*
X352472Y97803D02*
X353246D01*
X352067Y98203D02*
X353641D01*
X351662Y98603D02*
X353895D01*
X351256Y99003D02*
X353489D01*
X350962Y99403D02*
X353084D01*
X351357Y99803D02*
X352679D01*
X351751Y100203D02*
X352274D01*
X351200Y99059D02*
Y99645D01*
X351600Y98664D02*
Y100050D01*
X352000Y98270D02*
Y100455D01*
Y100473D02*
Y100478D01*
X352400Y97875D02*
Y100079D01*
X352800Y97480D02*
Y99684D01*
X353200Y97757D02*
Y99289D01*
X353600Y98162D02*
Y98894D01*
X339060Y105591D02*
X340214Y106708D01*
X340188*
X342125Y104705*
X342126Y104731*
X340972Y103615*
X340998Y103614*
X339060Y105618*
Y105591*
X340625Y104000D02*
X341370D01*
X340238Y104400D02*
X341783D01*
X339851Y104800D02*
X342033D01*
X339464Y105200D02*
X341647D01*
X339060Y105600D02*
X339069D01*
X339078D02*
X341260D01*
X339483Y106000D02*
X340873D01*
X339896Y106400D02*
X340486D01*
X339200Y105473D02*
Y105727D01*
X339600Y105060D02*
Y106114D01*
X340000Y104646D02*
Y106500D01*
X340400Y104233D02*
Y106489D01*
X340800Y103819D02*
Y106075D01*
X341200Y103836D02*
Y105662D01*
X341600Y104223D02*
Y105248D01*
X342000Y104610D02*
Y104835D01*
X342618Y101912D02*
X343773Y103029D01*
X343746*
X345684Y101026*
Y101052*
X344530Y99936*
X344556*
X342619Y101939*
X342618Y101912*
X344556Y99936D02*
X344556D01*
X344169Y100336D02*
X344943D01*
X343782Y100736D02*
X345356D01*
X343396Y101136D02*
X345578D01*
X343009Y101536D02*
X345191D01*
X342619Y101936D02*
X342622D01*
X342642D02*
X344804D01*
X343056Y102336D02*
X344417D01*
X343469Y102736D02*
X344030D01*
X342800Y101751D02*
Y102088D01*
X343200Y101338D02*
Y102475D01*
X343600Y100924D02*
Y102862D01*
X344000Y100511D02*
Y102767D01*
X344400Y100097D02*
Y102353D01*
X344800Y100197D02*
Y101940D01*
X345200Y100584D02*
Y101526D01*
X345600Y100971D02*
Y101113D01*
X336107Y102762D02*
X337262Y103878D01*
X337235*
X339173Y101875*
Y101902*
X338019Y100785*
X338045*
X336108Y102788*
X336107Y102762*
X338030Y100800D02*
X338034D01*
X337644Y101200D02*
X338448D01*
X337257Y101600D02*
X338861D01*
X336870Y102000D02*
X339052D01*
X336483Y102400D02*
X338665D01*
X336147Y102800D02*
X338278D01*
X336561Y103200D02*
X337891D01*
X336974Y103600D02*
X337504D01*
X336400Y102486D02*
Y103045D01*
X336800Y102072D02*
Y103432D01*
X337200Y101659D02*
Y103818D01*
X337600Y101245D02*
Y103501D01*
X338000Y100831D02*
Y103088D01*
X338400Y101154D02*
Y102674D01*
X338800Y101541D02*
Y102260D01*
X339665Y99083D02*
X340820Y100199D01*
X340793Y100200*
X342731Y98196*
Y98223*
X341577Y97106*
X341604*
X339666Y99109*
X339665Y99083*
X341604Y97106D02*
X341604D01*
X341217Y97506D02*
X341990D01*
X340830Y97906D02*
X342404D01*
X340443Y98306D02*
X342625D01*
X340056Y98706D02*
X342238D01*
X339666Y99106D02*
X339669D01*
X339689D02*
X341851D01*
X340103Y99506D02*
X341464D01*
X340517Y99906D02*
X341077D01*
X340000Y98764D02*
Y99406D01*
X340400Y98350D02*
Y99793D01*
X340800Y97937D02*
Y100180D01*
Y100193D02*
Y100199D01*
X341200Y97523D02*
Y99779D01*
X341600Y97106D02*
Y97109D01*
Y97128D02*
Y99366D01*
X342000Y97515D02*
Y98952D01*
X342400Y97902D02*
Y98538D01*
X325489Y77551D02*
X326625Y78687D01*
X326598*
X328569Y76716*
Y76743*
X327433Y75607*
X327460*
X325489Y77578*
Y77551*
X327433Y75607D02*
X327460D01*
X327060Y76007D02*
X327833D01*
X326660Y76407D02*
X328233D01*
X326260Y76807D02*
X328478D01*
X325860Y77207D02*
X328078D01*
X325545Y77607D02*
X327678D01*
X325945Y78007D02*
X327278D01*
X326345Y78407D02*
X326878D01*
X325600Y77467D02*
Y77662D01*
X326000Y77067D02*
Y78062D01*
X326400Y76667D02*
Y78462D01*
X326800Y76267D02*
Y78485D01*
X327200Y75867D02*
Y78085D01*
X327600Y75774D02*
Y77685D01*
X328000Y76174D02*
Y77285D01*
X328400Y76574D02*
Y76885D01*
X329108Y73932D02*
X330244Y75068D01*
X330217*
X332188Y73097*
Y73124*
X331052Y71988*
X331079*
X329108Y73959*
Y73932*
X331052Y71988D02*
X331079D01*
X330679Y72388D02*
X331452D01*
X330279Y72788D02*
X331852D01*
X329879Y73188D02*
X332097D01*
X329479Y73588D02*
X331697D01*
X329164Y73988D02*
X331297D01*
X329564Y74388D02*
X330897D01*
X329964Y74788D02*
X330497D01*
X329200Y73867D02*
Y74024D01*
X329600Y73467D02*
Y74424D01*
X330000Y73067D02*
Y74824D01*
X330400Y72667D02*
Y74885D01*
X330800Y72267D02*
Y74485D01*
X331200Y72136D02*
Y74085D01*
X331600Y72536D02*
Y73685D01*
X332000Y72936D02*
Y73285D01*
X328319Y80437D02*
X329454Y81573D01*
X329428*
X331399Y79602*
Y79629*
X330263Y78493*
X330290*
X328319Y80464*
Y80437*
X330263Y78493D02*
X330290D01*
X329890Y78893D02*
X330663D01*
X329490Y79293D02*
X331063D01*
X329090Y79693D02*
X331308D01*
X328690Y80093D02*
X330908D01*
X328375Y80493D02*
X330508D01*
X328775Y80893D02*
X330108D01*
X329175Y81293D02*
X329708D01*
X328400Y80383D02*
Y80518D01*
X328800Y79983D02*
Y80918D01*
X329200Y79583D02*
Y81318D01*
X329600Y79183D02*
Y81401D01*
X330000Y78783D02*
Y81001D01*
X330400Y78630D02*
Y80601D01*
X330800Y79030D02*
Y80201D01*
X331200Y79430D02*
Y79801D01*
X331938Y76818D02*
X333073Y77954D01*
X333047*
X335018Y75983*
Y76010*
X333882Y74874*
X333909*
X331938Y76845*
Y76818*
X333882Y74874D02*
X333909D01*
X333509Y75274D02*
X334282D01*
X333109Y75674D02*
X334682D01*
X332709Y76074D02*
X334927D01*
X332309Y76474D02*
X334527D01*
X331994Y76874D02*
X334127D01*
X332394Y77274D02*
X333727D01*
X332794Y77674D02*
X333327D01*
X332000Y76783D02*
Y76880D01*
X332400Y76383D02*
Y77280D01*
X332800Y75983D02*
Y77680D01*
X333200Y75583D02*
Y77801D01*
X333600Y75183D02*
Y77401D01*
X334000Y74992D02*
Y77001D01*
X334400Y75392D02*
Y76601D01*
X334800Y75792D02*
Y76201D01*
X416502Y325151D02*
X414896D01*
X414915Y325132*
Y327919*
X414896Y327900*
X416502*
X416483Y327919*
Y325132*
X416502Y325151*
X414915Y325200D02*
X416483D01*
X414915Y325600D02*
X416483D01*
X414915Y326000D02*
X416483D01*
X414915Y326400D02*
X416483D01*
X414915Y326800D02*
X416483D01*
X414915Y327200D02*
X416483D01*
X414915Y327600D02*
X416483D01*
X415200Y325151D02*
Y327900D01*
X415600Y325151D02*
Y327900D01*
X416000Y325151D02*
Y327900D01*
X416400Y325151D02*
Y327900D01*
X416502Y330269D02*
X414896D01*
X414915Y330250*
Y333037*
X414896Y333019*
X416502*
X416483Y333037*
Y330250*
X416502Y330269*
X414915Y330400D02*
X416483D01*
X414915Y330800D02*
X416483D01*
X414915Y331200D02*
X416483D01*
X414915Y331600D02*
X416483D01*
X414915Y332000D02*
X416483D01*
X414915Y332400D02*
X416483D01*
X414915Y332800D02*
X416483D01*
X415200Y330269D02*
Y333019D01*
X415600Y330269D02*
Y333019D01*
X416000Y330269D02*
Y333019D01*
X416400Y330269D02*
Y333019D01*
X373933Y356893D02*
X372327D01*
X372346Y356874*
Y359661*
X372327Y359643*
X373933*
X373914Y359661*
Y356874*
X373933Y356893*
X372346Y357200D02*
X373914D01*
X372346Y357600D02*
X373914D01*
X372346Y358000D02*
X373914D01*
X372346Y358400D02*
X373914D01*
X372346Y358800D02*
X373914D01*
X372346Y359200D02*
X373914D01*
X372346Y359600D02*
X373914D01*
X372400Y356893D02*
Y359643D01*
X372800Y356893D02*
Y359643D01*
X373200Y356893D02*
Y359643D01*
X373600Y356893D02*
Y359643D01*
X373933Y362011D02*
X372327D01*
X372346Y361992*
Y364779*
X372327Y364761*
X373933*
X373914Y364779*
Y361992*
X373933Y362011*
X372338Y362000D02*
X372346D01*
X373914D02*
X373922D01*
X372346Y362400D02*
X373914D01*
X372346Y362800D02*
X373914D01*
X372346Y363200D02*
X373914D01*
X372346Y363600D02*
X373914D01*
X372346Y364000D02*
X373914D01*
X372346Y364400D02*
X373914D01*
X372400Y362011D02*
Y364761D01*
X372800Y362011D02*
Y364761D01*
X373200Y362011D02*
Y364761D01*
X373600Y362011D02*
Y364761D01*
X351473Y388697D02*
Y387091D01*
X351492Y387109*
X348705*
X348724Y387091*
Y388697*
X348705Y388678*
X351492*
X351473Y388697*
X348724Y387200D02*
X351473D01*
X348724Y387600D02*
X351473D01*
X348724Y388000D02*
X351473D01*
X348724Y388400D02*
X351473D01*
X348800Y387109D02*
Y388678D01*
X349200Y387109D02*
Y388678D01*
X349600Y387109D02*
Y388678D01*
X350000Y387109D02*
Y388678D01*
X350400Y387109D02*
Y388678D01*
X350800Y387109D02*
Y388678D01*
X351200Y387109D02*
Y388678D01*
X346355Y388697D02*
Y387091D01*
X346374Y387109*
X343587*
X343606Y387091*
Y388697*
X343587Y388678*
X346374*
X346355Y388697*
X343606Y387200D02*
X346355D01*
X343606Y387600D02*
X346355D01*
X343606Y388000D02*
X346355D01*
X343606Y388400D02*
X346355D01*
X343600Y387096D02*
Y387109D01*
Y388678D02*
Y388691D01*
X344000Y387109D02*
Y388678D01*
X344400Y387109D02*
Y388678D01*
X344800Y387109D02*
Y388678D01*
X345200Y387109D02*
Y388678D01*
X345600Y387109D02*
Y388678D01*
X346000Y387109D02*
Y388678D01*
X391828Y373441D02*
Y371835D01*
X391846Y371854*
X389059*
X389078Y371835*
Y373441*
X389059Y373422*
X391846*
X391828Y373441*
X389078Y372000D02*
X391828D01*
X389078Y372400D02*
X391828D01*
X389078Y372800D02*
X391828D01*
X389078Y373200D02*
X391828D01*
X389200Y371854D02*
Y373422D01*
X389600Y371854D02*
Y373422D01*
X390000Y371854D02*
Y373422D01*
X390400Y371854D02*
Y373422D01*
X390800Y371854D02*
Y373422D01*
X391200Y371854D02*
Y373422D01*
X391600Y371854D02*
Y373422D01*
X386709Y373441D02*
Y371835D01*
X386728Y371854*
X383941*
X383960Y371835*
Y373441*
X383941Y373422*
X386728*
X386709Y373441*
X383960Y372000D02*
X386709D01*
X383960Y372400D02*
X386709D01*
X383960Y372800D02*
X386709D01*
X383960Y373200D02*
X386709D01*
X384000Y371854D02*
Y373422D01*
X384400Y371854D02*
Y373422D01*
X384800Y371854D02*
Y373422D01*
X385200Y371854D02*
Y373422D01*
X385600Y371854D02*
Y373422D01*
X386000Y371854D02*
Y373422D01*
X386400Y371854D02*
Y373422D01*
X395771Y354118D02*
Y355724D01*
X395752Y355706*
X398539*
X398520Y355724*
Y354118*
X398539Y354137*
X395752*
X395771Y354118*
Y354400D02*
X398520D01*
X395771Y354800D02*
X398520D01*
X395771Y355200D02*
X398520D01*
X395771Y355600D02*
X398520D01*
X396000Y354137D02*
Y355706D01*
X396400Y354137D02*
Y355706D01*
X396800Y354137D02*
Y355706D01*
X397200Y354137D02*
Y355706D01*
X397600Y354137D02*
Y355706D01*
X398000Y354137D02*
Y355706D01*
X398400Y354137D02*
Y355706D01*
X400889Y354118D02*
Y355724D01*
X400870Y355706*
X403657*
X403639Y355724*
Y354118*
X403657Y354137*
X400870*
X400889Y354118*
Y354400D02*
X403639D01*
X400889Y354800D02*
X403639D01*
X400889Y355200D02*
X403639D01*
X400889Y355600D02*
X403639D01*
X401200Y354137D02*
Y355706D01*
X401600Y354137D02*
Y355706D01*
X402000Y354137D02*
Y355706D01*
X402400Y354137D02*
Y355706D01*
X402800Y354137D02*
Y355706D01*
X403200Y354137D02*
Y355706D01*
X403600Y354137D02*
Y355706D01*
X232693Y369934D02*
X231087D01*
X231106Y369916*
Y372703*
X231087Y372684*
X232693*
X232674Y372703*
Y369916*
X232693Y369934*
X231106Y370000D02*
X232674D01*
X231106Y370400D02*
X232674D01*
X231106Y370800D02*
X232674D01*
X231106Y371200D02*
X232674D01*
X231106Y371600D02*
X232674D01*
X231106Y372000D02*
X232674D01*
X231106Y372400D02*
X232674D01*
X231200Y369934D02*
Y372684D01*
X231600Y369934D02*
Y372684D01*
X232000Y369934D02*
Y372684D01*
X232400Y369934D02*
Y372684D01*
X232693Y375052D02*
X231087D01*
X231106Y375034*
Y377821*
X231087Y377802*
X232693*
X232674Y377821*
Y375034*
X232693Y375052*
X231106Y375200D02*
X232674D01*
X231106Y375600D02*
X232674D01*
X231106Y376000D02*
X232674D01*
X231106Y376400D02*
X232674D01*
X231106Y376800D02*
X232674D01*
X231106Y377200D02*
X232674D01*
X231106Y377600D02*
X232674D01*
X231200Y375052D02*
Y377802D01*
X231600Y375052D02*
Y377802D01*
X232000Y375052D02*
Y377802D01*
X232400Y375052D02*
Y377802D01*
X165880Y382723D02*
X167486D01*
X167467Y382742*
Y379955*
X167486Y379974*
X165880*
X165899Y379955*
Y382742*
X165880Y382723*
X165899Y380000D02*
X167467D01*
X165899Y380400D02*
X167467D01*
X165899Y380800D02*
X167467D01*
X165899Y381200D02*
X167467D01*
X165899Y381600D02*
X167467D01*
X165899Y382000D02*
X167467D01*
X165899Y382400D02*
X167467D01*
X166000Y379974D02*
Y382723D01*
X166400Y379974D02*
Y382723D01*
X166800Y379974D02*
Y382723D01*
X167200Y379974D02*
Y382723D01*
X165880Y377605D02*
X167486D01*
X167467Y377624*
Y374837*
X167486Y374856*
X165880*
X165899Y374837*
Y377624*
X165880Y377605*
X165899Y375200D02*
X167467D01*
X165899Y375600D02*
X167467D01*
X165899Y376000D02*
X167467D01*
X165899Y376400D02*
X167467D01*
X165899Y376800D02*
X167467D01*
X165899Y377200D02*
X167467D01*
X165899Y377600D02*
X167467D01*
X166000Y374856D02*
Y377605D01*
X166400Y374856D02*
Y377605D01*
X166800Y374856D02*
Y377605D01*
X167200Y374856D02*
Y377605D01*
X170063Y382723D02*
X171669D01*
X171650Y382742*
Y379955*
X171669Y379974*
X170063*
X170082Y379955*
Y382742*
X170063Y382723*
X170082Y380000D02*
X171650D01*
X170082Y380400D02*
X171650D01*
X170082Y380800D02*
X171650D01*
X170082Y381200D02*
X171650D01*
X170082Y381600D02*
X171650D01*
X170082Y382000D02*
X171650D01*
X170082Y382400D02*
X171650D01*
X170400Y379974D02*
Y382723D01*
X170800Y379974D02*
Y382723D01*
X171200Y379974D02*
Y382723D01*
X171600Y379974D02*
Y382723D01*
X170063Y377605D02*
X171669D01*
X171650Y377624*
Y374837*
X171669Y374856*
X170063*
X170082Y374837*
Y377624*
X170063Y377605*
X170082Y375200D02*
X171650D01*
X170082Y375600D02*
X171650D01*
X170082Y376000D02*
X171650D01*
X170082Y376400D02*
X171650D01*
X170082Y376800D02*
X171650D01*
X170082Y377200D02*
X171650D01*
X170082Y377600D02*
X171650D01*
X170400Y374856D02*
Y377605D01*
X170800Y374856D02*
Y377605D01*
X171200Y374856D02*
Y377605D01*
X171600Y374856D02*
Y377605D01*
X368206Y394110D02*
Y392504D01*
X368224Y392523*
X365437*
X365456Y392504*
Y394110*
X365437Y394091*
X368224*
X368206Y394110*
X365456Y392800D02*
X368206D01*
X365456Y393200D02*
X368206D01*
X365456Y393600D02*
X368206D01*
X365456Y394000D02*
X368206D01*
X365600Y392523D02*
Y394091D01*
X366000Y392523D02*
Y394091D01*
X366400Y392523D02*
Y394091D01*
X366800Y392523D02*
Y394091D01*
X367200Y392523D02*
Y394091D01*
X367600Y392523D02*
Y394091D01*
X368000Y392523D02*
Y394091D01*
X363087Y394110D02*
Y392504D01*
X363106Y392523*
X360319*
X360338Y392504*
Y394110*
X360319Y394091*
X363106*
X363087Y394110*
X360338Y392800D02*
X363087D01*
X360338Y393200D02*
X363087D01*
X360338Y393600D02*
X363087D01*
X360338Y394000D02*
X363087D01*
X360400Y392523D02*
Y394091D01*
X360800Y392523D02*
Y394091D01*
X361200Y392523D02*
Y394091D01*
X361600Y392523D02*
Y394091D01*
X362000Y392523D02*
Y394091D01*
X362400Y392523D02*
Y394091D01*
X362800Y392523D02*
Y394091D01*
X368206Y368027D02*
Y366421D01*
X368224Y366440*
X365437*
X365456Y366421*
Y368027*
X365437Y368009*
X368224*
X368206Y368027*
X365456Y366800D02*
X368206D01*
X365456Y367200D02*
X368206D01*
X365456Y367600D02*
X368206D01*
X365456Y368000D02*
X368206D01*
X365600Y366440D02*
Y368009D01*
X366000Y366440D02*
Y368009D01*
X366400Y366440D02*
Y368009D01*
X366800Y366440D02*
Y368009D01*
X367200Y366440D02*
Y368009D01*
X367600Y366440D02*
Y368009D01*
X368000Y366440D02*
Y368009D01*
X363087Y368027D02*
Y366421D01*
X363106Y366440*
X360319*
X360338Y366421*
Y368027*
X360319Y368009*
X363106*
X363087Y368027*
X360338Y366800D02*
X363087D01*
X360338Y367200D02*
X363087D01*
X360338Y367600D02*
X363087D01*
X360338Y368000D02*
X363087D01*
X360400Y366440D02*
Y368009D01*
X360800Y366440D02*
Y368009D01*
X361200Y366440D02*
Y368009D01*
X361600Y366440D02*
Y368009D01*
X362000Y366440D02*
Y368009D01*
X362400Y366440D02*
Y368009D01*
X362800Y366440D02*
Y368009D01*
X298324Y335547D02*
Y333941D01*
X298342Y333960*
X295555*
X295574Y333941*
Y335547*
X295555Y335528*
X298342*
X298324Y335547*
X295574Y334000D02*
X298324D01*
X295574Y334400D02*
X298324D01*
X295574Y334800D02*
X298324D01*
X295574Y335200D02*
X298324D01*
X295600Y333960D02*
Y335528D01*
X296000Y333960D02*
Y335528D01*
X296400Y333960D02*
Y335528D01*
X296800Y333960D02*
Y335528D01*
X297200Y333960D02*
Y335528D01*
X297600Y333960D02*
Y335528D01*
X298000Y333960D02*
Y335528D01*
X293206Y335547D02*
Y333941D01*
X293224Y333960*
X290437*
X290456Y333941*
Y335547*
X290437Y335528*
X293224*
X293206Y335547*
X290456Y334000D02*
X293206D01*
X290456Y334400D02*
X293206D01*
X290456Y334800D02*
X293206D01*
X290456Y335200D02*
X293206D01*
X290800Y333960D02*
Y335528D01*
X291200Y333960D02*
Y335528D01*
X291600Y333960D02*
Y335528D01*
X292000Y333960D02*
Y335528D01*
X292400Y333960D02*
Y335528D01*
X292800Y333960D02*
Y335528D01*
X293200Y333960D02*
Y335528D01*
X298816Y330626D02*
Y329020D01*
X298834Y329039*
X296047*
X296066Y329020*
Y330626*
X296047Y330607*
X298834*
X298816Y330626*
X296066Y329200D02*
X298816D01*
X296066Y329600D02*
X298816D01*
X296066Y330000D02*
X298816D01*
X296066Y330400D02*
X298816D01*
X296400Y329039D02*
Y330607D01*
X296800Y329039D02*
Y330607D01*
X297200Y329039D02*
Y330607D01*
X297600Y329039D02*
Y330607D01*
X298000Y329039D02*
Y330607D01*
X298400Y329039D02*
Y330607D01*
X298800Y329039D02*
Y330607D01*
X293698Y330626D02*
Y329020D01*
X293716Y329039*
X290929*
X290948Y329020*
Y330626*
X290929Y330607*
X293716*
X293698Y330626*
X290948Y329200D02*
X293698D01*
X290948Y329600D02*
X293698D01*
X290948Y330000D02*
X293698D01*
X290948Y330400D02*
X293698D01*
X291200Y329039D02*
Y330607D01*
X291600Y329039D02*
Y330607D01*
X292000Y329039D02*
Y330607D01*
X292400Y329039D02*
Y330607D01*
X292800Y329039D02*
Y330607D01*
X293200Y329039D02*
Y330607D01*
X293600Y329039D02*
Y330607D01*
X439201Y392996D02*
Y394602D01*
X439182Y394583*
X441969*
X441951Y394602*
Y392996*
X441969Y393015*
X439182*
X439201Y392996*
Y393200D02*
X441951D01*
X439201Y393600D02*
X441951D01*
X439201Y394000D02*
X441951D01*
X439201Y394400D02*
X441951D01*
X439200Y392997D02*
Y393015D01*
Y394583D02*
Y394601D01*
X439600Y393015D02*
Y394583D01*
X440000Y393015D02*
Y394583D01*
X440400Y393015D02*
Y394583D01*
X440800Y393015D02*
Y394583D01*
X441200Y393015D02*
Y394583D01*
X441600Y393015D02*
Y394583D01*
X444319Y392996D02*
Y394602D01*
X444300Y394583*
X447087*
X447069Y394602*
Y392996*
X447087Y393015*
X444300*
X444319Y392996*
Y393200D02*
X447069D01*
X444319Y393600D02*
X447069D01*
X444319Y394000D02*
X447069D01*
X444319Y394400D02*
X447069D01*
X444400Y393015D02*
Y394583D01*
X444800Y393015D02*
Y394583D01*
X445200Y393015D02*
Y394583D01*
X445600Y393015D02*
Y394583D01*
X446000Y393015D02*
Y394583D01*
X446400Y393015D02*
Y394583D01*
X446800Y393015D02*
Y394583D01*
X428374Y392996D02*
Y394602D01*
X428355Y394583*
X431143*
X431124Y394602*
Y392996*
X431143Y393015*
X428355*
X428374Y392996*
Y393200D02*
X431124D01*
X428374Y393600D02*
X431124D01*
X428374Y394000D02*
X431124D01*
X428374Y394400D02*
X431124D01*
X428400Y393015D02*
Y394583D01*
X428800Y393015D02*
Y394583D01*
X429200Y393015D02*
Y394583D01*
X429600Y393015D02*
Y394583D01*
X430000Y393015D02*
Y394583D01*
X430400Y393015D02*
Y394583D01*
X430800Y393015D02*
Y394583D01*
X433492Y392996D02*
Y394602D01*
X433474Y394583*
X436261*
X436242Y394602*
Y392996*
X436261Y393015*
X433474*
X433492Y392996*
Y393200D02*
X436242D01*
X433492Y393600D02*
X436242D01*
X433492Y394000D02*
X436242D01*
X433492Y394400D02*
X436242D01*
X433600Y393015D02*
Y394583D01*
X434000Y393015D02*
Y394583D01*
X434400Y393015D02*
Y394583D01*
X434800Y393015D02*
Y394583D01*
X435200Y393015D02*
Y394583D01*
X435600Y393015D02*
Y394583D01*
X436000Y393015D02*
Y394583D01*
X448859Y374117D02*
X447253D01*
X447272Y374099*
Y376886*
X447253Y376867*
X448859*
X448840Y376886*
Y374099*
X448859Y374117*
X447272Y374400D02*
X448840D01*
X447272Y374800D02*
X448840D01*
X447272Y375200D02*
X448840D01*
X447272Y375600D02*
X448840D01*
X447272Y376000D02*
X448840D01*
X447272Y376400D02*
X448840D01*
X447272Y376800D02*
X448840D01*
X447600Y374117D02*
Y376867D01*
X448000Y374117D02*
Y376867D01*
X448400Y374117D02*
Y376867D01*
X448800Y374117D02*
Y376867D01*
X448859Y379235D02*
X447253D01*
X447272Y379217*
Y382004*
X447253Y381985*
X448859*
X448840Y382004*
Y379217*
X448859Y379235*
X447272Y379600D02*
X448840D01*
X447272Y380000D02*
X448840D01*
X447272Y380400D02*
X448840D01*
X447272Y380800D02*
X448840D01*
X447272Y381200D02*
X448840D01*
X447272Y381600D02*
X448840D01*
X447268Y382000D02*
X447272D01*
X448840D02*
X448844D01*
X447600Y379235D02*
Y381985D01*
X448000Y379235D02*
Y381985D01*
X448400Y379235D02*
Y381985D01*
X448800Y379235D02*
Y381985D01*
X451320Y386913D02*
X449714D01*
X449732Y386894*
Y389681*
X449714Y389662*
X451320*
X451301Y389681*
Y386894*
X451320Y386913*
X449732Y387200D02*
X451301D01*
X449732Y387600D02*
X451301D01*
X449732Y388000D02*
X451301D01*
X449732Y388400D02*
X451301D01*
X449732Y388800D02*
X451301D01*
X449732Y389200D02*
X451301D01*
X449732Y389600D02*
X451301D01*
X450000Y386913D02*
Y389662D01*
X450400Y386913D02*
Y389662D01*
X450800Y386913D02*
Y389662D01*
X451200Y386913D02*
Y389662D01*
X451320Y392031D02*
X449714D01*
X449732Y392012*
Y394799*
X449714Y394780*
X451320*
X451301Y394799*
Y392012*
X451320Y392031*
X449732Y392400D02*
X451301D01*
X449732Y392800D02*
X451301D01*
X449732Y393200D02*
X451301D01*
X449732Y393600D02*
X451301D01*
X449732Y394000D02*
X451301D01*
X449732Y394400D02*
X451301D01*
X450000Y392031D02*
Y394780D01*
X450400Y392031D02*
Y394780D01*
X450800Y392031D02*
Y394780D01*
X451200Y392031D02*
Y394780D01*
X439201Y397425D02*
Y399031D01*
X439182Y399013*
X441969*
X441951Y399031*
Y397425*
X441969Y397444*
X439182*
X439201Y397425*
Y397600D02*
X441951D01*
X439201Y398000D02*
X441951D01*
X439201Y398400D02*
X441951D01*
X439201Y398800D02*
X441951D01*
X439200Y397426D02*
Y397444D01*
Y399013D02*
Y399030D01*
X439600Y397444D02*
Y399013D01*
X440000Y397444D02*
Y399013D01*
X440400Y397444D02*
Y399013D01*
X440800Y397444D02*
Y399013D01*
X441200Y397444D02*
Y399013D01*
X441600Y397444D02*
Y399013D01*
X444319Y397425D02*
Y399031D01*
X444300Y399013*
X447087*
X447069Y399031*
Y397425*
X447087Y397444*
X444300*
X444319Y397425*
Y397600D02*
X447069D01*
X444319Y398000D02*
X447069D01*
X444319Y398400D02*
X447069D01*
X444319Y398800D02*
X447069D01*
X444400Y397444D02*
Y399013D01*
X444800Y397444D02*
Y399013D01*
X445200Y397444D02*
Y399013D01*
X445600Y397444D02*
Y399013D01*
X446000Y397444D02*
Y399013D01*
X446400Y397444D02*
Y399013D01*
X446800Y397444D02*
Y399013D01*
X452796Y374117D02*
X451190D01*
X451209Y374099*
Y376886*
X451190Y376867*
X452796*
X452777Y376886*
Y374099*
X452796Y374117*
X451209Y374400D02*
X452777D01*
X451209Y374800D02*
X452777D01*
X451209Y375200D02*
X452777D01*
X451209Y375600D02*
X452777D01*
X451209Y376000D02*
X452777D01*
X451209Y376400D02*
X452777D01*
X451209Y376800D02*
X452777D01*
X451200Y374107D02*
Y374117D01*
Y376867D02*
Y376877D01*
X451600Y374117D02*
Y376867D01*
X452000Y374117D02*
Y376867D01*
X452400Y374117D02*
Y376867D01*
X452796Y379235D02*
X451190D01*
X451209Y379217*
Y382004*
X451190Y381985*
X452796*
X452777Y382004*
Y379217*
X452796Y379235*
X451209Y379600D02*
X452777D01*
X451209Y380000D02*
X452777D01*
X451209Y380400D02*
X452777D01*
X451209Y380800D02*
X452777D01*
X451209Y381200D02*
X452777D01*
X451209Y381600D02*
X452777D01*
X451205Y382000D02*
X451209D01*
X452777D02*
X452781D01*
X451200Y379226D02*
Y379235D01*
Y381985D02*
Y381995D01*
X451600Y379235D02*
Y381985D01*
X452000Y379235D02*
Y381985D01*
X452400Y379235D02*
Y381985D01*
X428374Y397425D02*
Y399031D01*
X428355Y399013*
X431143*
X431124Y399031*
Y397425*
X431143Y397444*
X428355*
X428374Y397425*
Y397600D02*
X431124D01*
X428374Y398000D02*
X431124D01*
X428374Y398400D02*
X431124D01*
X428374Y398800D02*
X431124D01*
X428400Y397444D02*
Y399013D01*
X428800Y397444D02*
Y399013D01*
X429200Y397444D02*
Y399013D01*
X429600Y397444D02*
Y399013D01*
X430000Y397444D02*
Y399013D01*
X430400Y397444D02*
Y399013D01*
X430800Y397444D02*
Y399013D01*
X433492Y397425D02*
Y399031D01*
X433474Y399013*
X436261*
X436242Y399031*
Y397425*
X436261Y397444*
X433474*
X433492Y397425*
Y397600D02*
X436242D01*
X433492Y398000D02*
X436242D01*
X433492Y398400D02*
X436242D01*
X433492Y398800D02*
X436242D01*
X433600Y397444D02*
Y399013D01*
X434000Y397444D02*
Y399013D01*
X434400Y397444D02*
Y399013D01*
X434800Y397444D02*
Y399013D01*
X435200Y397444D02*
Y399013D01*
X435600Y397444D02*
Y399013D01*
X436000Y397444D02*
Y399013D01*
X304676Y90090D02*
X307177Y92591D01*
X306680Y93088*
X304179Y90587*
X304676Y90090*
X304676*
X304276Y90490D02*
X305076D01*
X304483Y90890D02*
X305476D01*
X304883Y91290D02*
X305876D01*
X305283Y91690D02*
X306276D01*
X305683Y92090D02*
X306676D01*
X306083Y92490D02*
X307076D01*
X306483Y92890D02*
X306878D01*
X304400Y90366D02*
Y90807D01*
X304800Y90214D02*
Y91207D01*
X305200Y90614D02*
Y91607D01*
X305600Y91014D02*
Y92007D01*
X306000Y91414D02*
Y92407D01*
X306400Y91814D02*
Y92807D01*
X306800Y92214D02*
Y92968D01*
X306068Y88698D02*
X308569Y91199D01*
X308072Y91696*
X305571Y89195*
X306068Y88698*
X306068*
X305668Y89098D02*
X306468D01*
X305875Y89498D02*
X306868D01*
X306275Y89898D02*
X307268D01*
X306675Y90298D02*
X307668D01*
X307075Y90698D02*
X308068D01*
X307475Y91098D02*
X308468D01*
X307875Y91498D02*
X308270D01*
X305600Y89166D02*
Y89223D01*
X306000Y88766D02*
Y89623D01*
X306400Y89030D02*
Y90023D01*
X306800Y89430D02*
Y90423D01*
X307200Y89830D02*
Y90823D01*
X307600Y90230D02*
Y91223D01*
X308000Y90630D02*
Y91623D01*
X308400Y91030D02*
Y91368D01*
X307460Y87306D02*
X309961Y89807D01*
X309464Y90304*
X306963Y87803*
X307460Y87306*
X307460*
X307060Y87706D02*
X307860D01*
X307267Y88106D02*
X308260D01*
X307667Y88506D02*
X308660D01*
X308067Y88906D02*
X309060D01*
X308467Y89306D02*
X309460D01*
X308867Y89706D02*
X309860D01*
X309267Y90106D02*
X309662D01*
X307200Y87566D02*
Y88040D01*
X307600Y87446D02*
Y88440D01*
X308000Y87846D02*
Y88840D01*
X308400Y88246D02*
Y89240D01*
X308800Y88646D02*
Y89640D01*
X309200Y89046D02*
Y90040D01*
X309600Y89446D02*
Y90168D01*
X308852Y85914D02*
X311353Y88415D01*
X310856Y88912*
X308355Y86411*
X308852Y85914*
X308852*
X308452Y86314D02*
X309252D01*
X308659Y86714D02*
X309652D01*
X309059Y87114D02*
X310052D01*
X309459Y87514D02*
X310452D01*
X309859Y87914D02*
X310852D01*
X310259Y88314D02*
X311252D01*
X310659Y88714D02*
X311054D01*
X308400Y86366D02*
Y86456D01*
X308800Y85966D02*
Y86856D01*
X309200Y86262D02*
Y87256D01*
X309600Y86662D02*
Y87656D01*
X310000Y87062D02*
Y88056D01*
X310400Y87462D02*
Y88456D01*
X310800Y87862D02*
Y88856D01*
X311200Y88262D02*
Y88568D01*
X310244Y84522D02*
X312745Y87023D01*
X312248Y87520*
X309747Y85019*
X310244Y84522*
X310244*
X309844Y84922D02*
X310644D01*
X310051Y85322D02*
X311044D01*
X310451Y85722D02*
X311444D01*
X310851Y86122D02*
X311844D01*
X311251Y86522D02*
X312244D01*
X311651Y86922D02*
X312644D01*
X312051Y87322D02*
X312446D01*
X310000Y84766D02*
Y85272D01*
X310400Y84679D02*
Y85672D01*
X310800Y85079D02*
Y86072D01*
X311200Y85479D02*
Y86472D01*
X311600Y85879D02*
Y86872D01*
X312000Y86279D02*
Y87272D01*
X312400Y86679D02*
Y87368D01*
X311636Y83130D02*
X314137Y85631D01*
X313640Y86128*
X311139Y83627*
X311636Y83130*
X311636*
X311236Y83530D02*
X312036D01*
X311443Y83930D02*
X312436D01*
X311843Y84330D02*
X312836D01*
X312243Y84730D02*
X313236D01*
X312643Y85130D02*
X313636D01*
X313043Y85530D02*
X314036D01*
X313443Y85930D02*
X313838D01*
X311200Y83566D02*
Y83688D01*
X311600Y83166D02*
Y84088D01*
X312000Y83495D02*
Y84488D01*
X312400Y83895D02*
Y84888D01*
X312800Y84295D02*
Y85288D01*
X313200Y84695D02*
Y85688D01*
X313600Y85095D02*
Y86088D01*
X314000Y85495D02*
Y85768D01*
X313028Y81738D02*
X315529Y84240D01*
X315032Y84736*
X312531Y82235*
X313028Y81738*
X313028*
X312628Y82138D02*
X313428D01*
X312834Y82538D02*
X313828D01*
X313234Y82938D02*
X314228D01*
X313634Y83338D02*
X314628D01*
X314034Y83738D02*
X315028D01*
X314434Y84138D02*
X315428D01*
X314834Y84538D02*
X315230D01*
X312800Y81966D02*
Y82504D01*
X313200Y81911D02*
Y82904D01*
X313600Y82311D02*
Y83304D01*
X314000Y82711D02*
Y83704D01*
X314400Y83111D02*
Y84104D01*
X314800Y83511D02*
Y84504D01*
X315200Y83911D02*
Y84568D01*
X317542Y84240D02*
X320043Y81738D01*
X320540Y82235*
X318039Y84736*
X317542Y84240*
X320043Y81738D02*
X320043D01*
X319643Y82138D02*
X320443D01*
X319243Y82538D02*
X320236D01*
X318843Y82938D02*
X319836D01*
X318443Y83338D02*
X319436D01*
X318043Y83738D02*
X319036D01*
X317643Y84138D02*
X318636D01*
X317841Y84538D02*
X318236D01*
X317600Y84182D02*
Y84297D01*
X318000Y83782D02*
Y84697D01*
X318400Y83382D02*
Y84375D01*
X318800Y82982D02*
Y83975D01*
X319200Y82582D02*
Y83575D01*
X319600Y82182D02*
Y83175D01*
X320000Y81782D02*
Y82775D01*
X320400Y82095D02*
Y82375D01*
X318934Y85631D02*
X321435Y83130D01*
X321932Y83627*
X319431Y86128*
X318934Y85631*
X321435Y83130D02*
X321435D01*
X321035Y83530D02*
X321835D01*
X320635Y83930D02*
X321628D01*
X320235Y84330D02*
X321228D01*
X319835Y84730D02*
X320828D01*
X319435Y85130D02*
X320428D01*
X319035Y85530D02*
X320028D01*
X319233Y85930D02*
X319628D01*
X319200Y85366D02*
Y85897D01*
X319600Y84966D02*
Y85959D01*
X320000Y84566D02*
Y85559D01*
X320400Y84166D02*
Y85159D01*
X320800Y83766D02*
Y84759D01*
X321200Y83366D02*
Y84359D01*
X321600Y83295D02*
Y83959D01*
X320326Y87023D02*
X322827Y84522D01*
X323324Y85019*
X320823Y87520*
X320326Y87023*
X322827Y84522D02*
X322827D01*
X322427Y84922D02*
X323227D01*
X322027Y85322D02*
X323020D01*
X321627Y85722D02*
X322620D01*
X321227Y86122D02*
X322220D01*
X320827Y86522D02*
X321820D01*
X320427Y86922D02*
X321420D01*
X320625Y87322D02*
X321020D01*
X320400Y86949D02*
Y87097D01*
X320800Y86549D02*
Y87497D01*
X321200Y86149D02*
Y87143D01*
X321600Y85749D02*
Y86743D01*
X322000Y85349D02*
Y86343D01*
X322400Y84949D02*
Y85943D01*
X322800Y84549D02*
Y85543D01*
X323200Y84895D02*
Y85143D01*
X321718Y88415D02*
X324219Y85914D01*
X324716Y86411*
X322215Y88912*
X321718Y88415*
X324219Y85914D02*
X324219D01*
X323819Y86314D02*
X324619D01*
X323419Y86714D02*
X324412D01*
X323019Y87114D02*
X324012D01*
X322619Y87514D02*
X323612D01*
X322219Y87914D02*
X323212D01*
X321819Y88314D02*
X322812D01*
X322017Y88714D02*
X322412D01*
X322000Y88133D02*
Y88697D01*
X322400Y87733D02*
Y88727D01*
X322800Y87333D02*
Y88327D01*
X323200Y86933D02*
Y87927D01*
X323600Y86533D02*
Y87527D01*
X324000Y86133D02*
Y87127D01*
X324400Y86095D02*
Y86727D01*
X323110Y89807D02*
X325611Y87306D01*
X326108Y87803*
X323607Y90304*
X323607D02*
X323110Y89807D01*
X325611Y87306D02*
X325611D01*
X325211Y87706D02*
X326011D01*
X324811Y88106D02*
X325804D01*
X324411Y88506D02*
X325404D01*
X324011Y88906D02*
X325004D01*
X323611Y89306D02*
X324604D01*
X323211Y89706D02*
X324204D01*
X323409Y90106D02*
X323804D01*
X323200Y89717D02*
Y89897D01*
X323600Y89317D02*
Y90297D01*
X324000Y88917D02*
Y89910D01*
X324400Y88517D02*
Y89510D01*
X324800Y88117D02*
Y89110D01*
X325200Y87717D02*
Y88710D01*
X325600Y87317D02*
Y88310D01*
X326000Y87695D02*
Y87910D01*
X324502Y91199D02*
X327003Y88698D01*
X327499Y89195*
X324998Y91696*
X324502Y91199*
X327003Y88698D02*
X327003D01*
X326603Y89098D02*
X327403D01*
X326203Y89498D02*
X327196D01*
X325803Y89898D02*
X326796D01*
X325403Y90298D02*
X326396D01*
X325003Y90698D02*
X325996D01*
X324603Y91098D02*
X325596D01*
X324801Y91498D02*
X325196D01*
X324800Y90901D02*
Y91497D01*
X325200Y90501D02*
Y91494D01*
X325600Y90101D02*
Y91094D01*
X326000Y89701D02*
Y90694D01*
X326400Y89301D02*
Y90294D01*
X326800Y88901D02*
Y89894D01*
X327200Y88895D02*
Y89494D01*
X325894Y92591D02*
X328395Y90090D01*
X328891Y90587*
X326390Y93088*
X325894Y92591*
X328395Y90090D02*
X328395D01*
X327995Y90490D02*
X328795D01*
X327595Y90890D02*
X328588D01*
X327195Y91290D02*
X328188D01*
X326795Y91690D02*
X327788D01*
X326395Y92090D02*
X327388D01*
X325995Y92490D02*
X326988D01*
X326193Y92890D02*
X326588D01*
X326000Y92485D02*
Y92697D01*
X326400Y92085D02*
Y93078D01*
X326800Y91685D02*
Y92678D01*
X327200Y91285D02*
Y92278D01*
X327600Y90885D02*
Y91878D01*
X328000Y90485D02*
Y91478D01*
X328400Y90095D02*
Y91078D01*
X328800Y90495D02*
Y90678D01*
X326390Y95101D02*
X328891Y97602D01*
X328395Y98099*
X325894Y95598*
X326390Y95101*
X326390*
X325990Y95501D02*
X326790D01*
X326197Y95901D02*
X327190D01*
X326597Y96301D02*
X327590D01*
X326997Y96701D02*
X327990D01*
X327397Y97101D02*
X328390D01*
X327797Y97501D02*
X328790D01*
X328197Y97901D02*
X328592D01*
X326000Y95492D02*
Y95704D01*
X326400Y95111D02*
Y96104D01*
X326800Y95511D02*
Y96504D01*
X327200Y95911D02*
Y96904D01*
X327600Y96311D02*
Y97304D01*
X328000Y96711D02*
Y97704D01*
X328400Y97111D02*
Y98094D01*
X328800Y97511D02*
Y97694D01*
X324998Y96493D02*
X327499Y98994D01*
X327003Y99491*
X324502Y96990*
X324998Y96493*
X324998*
X324598Y96893D02*
X325398D01*
X324805Y97293D02*
X325798D01*
X325205Y97693D02*
X326198D01*
X325605Y98093D02*
X326598D01*
X326005Y98493D02*
X326998D01*
X326405Y98893D02*
X327398D01*
X326805Y99293D02*
X327201D01*
X324800Y96692D02*
Y97288D01*
X325200Y96695D02*
Y97688D01*
X325600Y97095D02*
Y98088D01*
X326000Y97495D02*
Y98488D01*
X326400Y97895D02*
Y98888D01*
X326800Y98295D02*
Y99288D01*
X327200Y98695D02*
Y99294D01*
X323607Y97885D02*
X326108Y100386D01*
X325611Y100883*
X323110Y98382*
X323607Y97885*
X323607D02*
X323607D01*
X323206Y98285D02*
X324007D01*
X323413Y98685D02*
X324407D01*
X323813Y99085D02*
X324807D01*
X324213Y99485D02*
X325207D01*
X324613Y99885D02*
X325607D01*
X325013Y100285D02*
X326007D01*
X325413Y100685D02*
X325809D01*
X323200Y98292D02*
Y98472D01*
X323600Y97892D02*
Y98872D01*
X324000Y98279D02*
Y99272D01*
X324400Y98679D02*
Y99672D01*
X324800Y99079D02*
Y100072D01*
X325200Y99479D02*
Y100472D01*
X325600Y99879D02*
Y100872D01*
X326000Y100279D02*
Y100494D01*
X322215Y99277D02*
X324716Y101778D01*
X324219Y102275*
X321718Y99774*
X322215Y99277*
X322215*
X321815Y99677D02*
X322615D01*
X322021Y100077D02*
X323015D01*
X322421Y100477D02*
X323415D01*
X322821Y100877D02*
X323815D01*
X323221Y101277D02*
X324215D01*
X323621Y101677D02*
X324615D01*
X324021Y102077D02*
X324417D01*
X322000Y99492D02*
Y100056D01*
X322400Y99462D02*
Y100456D01*
X322800Y99862D02*
Y100856D01*
X323200Y100262D02*
Y101256D01*
X323600Y100662D02*
Y101656D01*
X324000Y101062D02*
Y102056D01*
X324400Y101462D02*
Y102094D01*
X320823Y100669D02*
X323324Y103170D01*
X322827Y103667*
X320326Y101166*
X320823Y100669*
X320692Y100800D02*
X320954D01*
X320360Y101200D02*
X321354D01*
X320760Y101600D02*
X321754D01*
X321160Y102000D02*
X322154D01*
X321560Y102400D02*
X322554D01*
X321960Y102800D02*
X322954D01*
X322360Y103200D02*
X323294D01*
X322760Y103600D02*
X322894D01*
X320400Y101092D02*
Y101240D01*
X320800Y100692D02*
Y101640D01*
X321200Y101046D02*
Y102040D01*
X321600Y101446D02*
Y102440D01*
X322000Y101846D02*
Y102840D01*
X322400Y102246D02*
Y103240D01*
X322800Y102646D02*
Y103640D01*
X323200Y103046D02*
Y103294D01*
X319431Y102061D02*
X321932Y104562D01*
X321435Y105059*
X318934Y102557*
X318934D02*
X319431Y102061D01*
X319092Y102400D02*
X319770D01*
X319177Y102800D02*
X320170D01*
X319577Y103200D02*
X320570D01*
X319977Y103600D02*
X320970D01*
X320377Y104000D02*
X321370D01*
X320777Y104400D02*
X321770D01*
X321177Y104800D02*
X321694D01*
X319200Y102292D02*
Y102823D01*
X319600Y102230D02*
Y103223D01*
X320000Y102630D02*
Y103623D01*
X320400Y103030D02*
Y104023D01*
X320800Y103430D02*
Y104423D01*
X321200Y103830D02*
Y104823D01*
X321600Y104230D02*
Y104894D01*
X318039Y103453D02*
X320540Y105954D01*
X320043Y106450*
X317542Y103949*
X318039Y103453*
X317892Y103600D02*
X318186D01*
X317593Y104000D02*
X318586D01*
X317993Y104400D02*
X318986D01*
X318393Y104800D02*
X319386D01*
X318793Y105200D02*
X319786D01*
X319193Y105600D02*
X320186D01*
X319593Y106000D02*
X320494D01*
X319993Y106400D02*
X320094D01*
X317600Y103892D02*
Y104007D01*
X318000Y103492D02*
Y104407D01*
X318400Y103814D02*
Y104807D01*
X318800Y104214D02*
Y105207D01*
X319200Y104614D02*
Y105607D01*
X319600Y105014D02*
Y106007D01*
X320000Y105414D02*
Y106407D01*
X320400Y105814D02*
Y106094D01*
X312531Y105954D02*
X315032Y103453D01*
X315529Y103949*
X313028Y106450*
X312531Y105954*
X314885Y103600D02*
X315179D01*
X314485Y104000D02*
X315478D01*
X314085Y104400D02*
X315078D01*
X313685Y104800D02*
X314678D01*
X313285Y105200D02*
X314278D01*
X312885Y105600D02*
X313878D01*
X312577Y106000D02*
X313478D01*
X312977Y106400D02*
X313078D01*
X312800Y105685D02*
Y106223D01*
X313200Y105285D02*
Y106278D01*
X313600Y104885D02*
Y105878D01*
X314000Y104485D02*
Y105478D01*
X314400Y104085D02*
Y105078D01*
X314800Y103685D02*
Y104678D01*
X315200Y103621D02*
Y104278D01*
X311139Y104562D02*
X313640Y102061D01*
X314137Y102557*
X314137D02*
X311636Y105059D01*
X311139Y104562*
X313301Y102400D02*
X313979D01*
X312901Y102800D02*
X313894D01*
X312501Y103200D02*
X313494D01*
X312101Y103600D02*
X313094D01*
X311701Y104000D02*
X312694D01*
X311301Y104400D02*
X312294D01*
X311377Y104800D02*
X311894D01*
X311200Y104501D02*
Y104623D01*
X311600Y104101D02*
Y105023D01*
X312000Y103701D02*
Y104694D01*
X312400Y103301D02*
Y104294D01*
X312800Y102901D02*
Y103894D01*
X313200Y102501D02*
Y103494D01*
X313600Y102101D02*
Y103094D01*
X314000Y102421D02*
Y102694D01*
X309747Y103170D02*
X312248Y100669D01*
X312745Y101166*
X310244Y103667*
X309747Y103170*
X312117Y100800D02*
X312379D01*
X311717Y101200D02*
X312710D01*
X311317Y101600D02*
X312310D01*
X310917Y102000D02*
X311910D01*
X310517Y102400D02*
X311510D01*
X310117Y102800D02*
X311110D01*
X309777Y103200D02*
X310710D01*
X310177Y103600D02*
X310310D01*
X310000Y102917D02*
Y103423D01*
X310400Y102517D02*
Y103510D01*
X310800Y102117D02*
Y103110D01*
X311200Y101717D02*
Y102710D01*
X311600Y101317D02*
Y102310D01*
X312000Y100917D02*
Y101910D01*
X312400Y100821D02*
Y101510D01*
X308355Y101778D02*
X310856Y99277D01*
X311353Y99774*
X308852Y102275*
X308355Y101778*
X310856Y99277D02*
X310856D01*
X310456Y99677D02*
X311256D01*
X310056Y100077D02*
X311050D01*
X309656Y100477D02*
X310650D01*
X309256Y100877D02*
X310250D01*
X308856Y101277D02*
X309850D01*
X308456Y101677D02*
X309450D01*
X308654Y102077D02*
X309050D01*
X308400Y101733D02*
Y101823D01*
X308800Y101333D02*
Y102223D01*
X309200Y100933D02*
Y101927D01*
X309600Y100533D02*
Y101527D01*
X310000Y100133D02*
Y101127D01*
X310400Y99733D02*
Y100727D01*
X310800Y99333D02*
Y100327D01*
X311200Y99621D02*
Y99927D01*
X306963Y100386D02*
X309464Y97885D01*
X309961Y98382*
X307460Y100883*
X306963Y100386*
X309464Y97885D02*
X309464D01*
X309064Y98285D02*
X309864D01*
X308664Y98685D02*
X309658D01*
X308264Y99085D02*
X309258D01*
X307864Y99485D02*
X308858D01*
X307464Y99885D02*
X308458D01*
X307064Y100285D02*
X308058D01*
X307262Y100685D02*
X307658D01*
X307200Y100149D02*
Y100623D01*
X307600Y99749D02*
Y100743D01*
X308000Y99349D02*
Y100343D01*
X308400Y98949D02*
Y99943D01*
X308800Y98549D02*
Y99543D01*
X309200Y98149D02*
Y99143D01*
X309600Y98021D02*
Y98743D01*
X305571Y98994D02*
X308072Y96493D01*
X308569Y96990*
X306068Y99491*
X305571Y98994*
X308072Y96493D02*
X308072D01*
X307672Y96893D02*
X308472D01*
X307272Y97293D02*
X308266D01*
X306872Y97693D02*
X307866D01*
X306472Y98093D02*
X307466D01*
X306072Y98493D02*
X307066D01*
X305672Y98893D02*
X306666D01*
X305870Y99293D02*
X306266D01*
X305600Y98966D02*
Y99023D01*
X306000Y98566D02*
Y99423D01*
X306400Y98166D02*
Y99159D01*
X306800Y97766D02*
Y98759D01*
X307200Y97366D02*
Y98359D01*
X307600Y96966D02*
Y97959D01*
X308000Y96566D02*
Y97559D01*
X308400Y96821D02*
Y97159D01*
X304179Y97602D02*
X306680Y95101D01*
X307177Y95598*
X304676Y98099*
X304179Y97602*
X306680Y95101D02*
X306680D01*
X306280Y95501D02*
X307080D01*
X305880Y95901D02*
X306874D01*
X305480Y96301D02*
X306474D01*
X305080Y96701D02*
X306074D01*
X304680Y97101D02*
X305674D01*
X304280Y97501D02*
X305274D01*
X304478Y97901D02*
X304874D01*
X304400Y97382D02*
Y97823D01*
X304800Y96982D02*
Y97975D01*
X305200Y96582D02*
Y97575D01*
X305600Y96182D02*
Y97175D01*
X306000Y95782D02*
Y96775D01*
X306400Y95382D02*
Y96375D01*
X306800Y95221D02*
Y95975D01*
G54D75*
X429847Y371752D03*
X431816D03*
X433784D03*
X435753D03*
X437721D03*
X439690D03*
X441658D03*
X443627D03*
Y388287D03*
X441658D03*
X439690D03*
X437721D03*
X435753D03*
X433784D03*
X431816D03*
X429847D03*
G54D76*
X436737Y380020D03*
G54D242*
X316535Y121630D03*
X313752Y124413D03*
X310968Y127197D03*
X308184Y129981D03*
X305400Y132765D03*
X302616Y135549D03*
X299832Y138333D03*
X297048Y141117D03*
X294264Y143901D03*
X291480Y146685D03*
X288697Y149468D03*
X285913Y152252D03*
X283129Y155036D03*
X280345Y157820D03*
X277561Y160604D03*
X274777Y163388D03*
X271993Y166172D03*
X269209Y168956D03*
X266426Y171739D03*
X263642Y174523D03*
X260858Y177307D03*
X258074Y180091D03*
X255290Y182875D03*
X252506Y185659D03*
X249722Y188443D03*
X246938Y191227D03*
X244154Y194011D03*
X241371Y196794D03*
X238587Y199578D03*
X235803Y202362D03*
X319319Y124413D03*
X316535Y127197D03*
X313752Y129981D03*
X310968Y132765D03*
X308184Y135549D03*
X305400Y138333D03*
X302616Y141117D03*
X299832Y143901D03*
X297048Y146685D03*
X294264Y149468D03*
X291480Y152252D03*
X288697Y155036D03*
X285913Y157820D03*
X283129Y160604D03*
X280345Y163388D03*
X277561Y166172D03*
X274777Y168956D03*
X271993Y171739D03*
X269209Y174523D03*
X266426Y177307D03*
X263642Y180091D03*
X260858Y182875D03*
X258074Y185659D03*
X255290Y188443D03*
X252506Y191227D03*
X249722Y194011D03*
X246938Y196794D03*
X244154Y199578D03*
X241371Y202362D03*
X238587Y205146D03*
X322103Y127197D03*
X319319Y129981D03*
X316535Y132765D03*
X313752Y135549D03*
X310968Y138333D03*
X308184Y141117D03*
X305400Y143901D03*
X302616Y146685D03*
X299832Y149468D03*
X297048Y152252D03*
X294264Y155036D03*
X291480Y157820D03*
X288697Y160604D03*
X285913Y163388D03*
X283129Y166172D03*
X280345Y168956D03*
X277561Y171739D03*
X274777Y174523D03*
X271993Y177307D03*
X269209Y180091D03*
X266426Y182875D03*
X263642Y185659D03*
X260858Y188443D03*
X258074Y191227D03*
X255290Y194011D03*
X252506Y196794D03*
X249722Y199578D03*
X246938Y202362D03*
X244154Y205146D03*
X241371Y207930D03*
X324887Y129981D03*
X322103Y132765D03*
X319319Y135549D03*
X316535Y138333D03*
X313752Y141117D03*
X310968Y143901D03*
X308184Y146685D03*
X305400Y149468D03*
X302616Y152252D03*
X299832Y155036D03*
X297048Y157820D03*
X294264Y160604D03*
X291480Y163388D03*
X288697Y166172D03*
X285913Y168956D03*
X283129Y171739D03*
X280345Y174523D03*
X277561Y177307D03*
X274777Y180091D03*
X271993Y182875D03*
X269209Y185659D03*
X266426Y188443D03*
X263642Y191227D03*
X260858Y194011D03*
X258074Y196794D03*
X255290Y199578D03*
X252506Y202362D03*
X249722Y205146D03*
X246938Y207930D03*
X244154Y210714D03*
X327671Y132765D03*
X324887Y135549D03*
X322103Y138333D03*
X319319Y141117D03*
X316535Y143901D03*
X313752Y146685D03*
X310968Y149468D03*
X308184Y152252D03*
X305400Y155036D03*
X302616Y157820D03*
X299832Y160604D03*
X297048Y163388D03*
X294264Y166172D03*
X291480Y168956D03*
X288697Y171739D03*
X285913Y174523D03*
X283129Y177307D03*
X280345Y180091D03*
X277561Y182875D03*
X274777Y185659D03*
X271993Y188443D03*
X269209Y191227D03*
X266426Y194011D03*
X263642Y196794D03*
X260858Y199578D03*
X258074Y202362D03*
X255290Y205146D03*
X252506Y207930D03*
X249722Y210714D03*
X246938Y213498D03*
X330455Y135549D03*
X327671Y138333D03*
X324887Y141117D03*
X322103Y143901D03*
X319319Y146685D03*
X316535Y149468D03*
X313752Y152252D03*
X310968Y155036D03*
X308184Y157820D03*
X305400Y160604D03*
X302616Y163388D03*
X299832Y166172D03*
X297048Y168956D03*
X294264Y171739D03*
X291480Y174523D03*
X288697Y177307D03*
X285913Y180091D03*
X283129Y182875D03*
X280345Y185659D03*
X277561Y188443D03*
X274777Y191227D03*
X271993Y194011D03*
X269209Y196794D03*
X266426Y199578D03*
X263642Y202362D03*
X260858Y205146D03*
X258074Y207930D03*
X255290Y210714D03*
X252506Y213498D03*
X249722Y216282D03*
X333239Y138333D03*
X330455Y141117D03*
X327671Y143901D03*
X324887Y146685D03*
X322103Y149468D03*
X319319Y152252D03*
X316535Y155036D03*
X313752Y157820D03*
X310968Y160604D03*
X308184Y163388D03*
X305400Y166172D03*
X302616Y168956D03*
X299832Y171739D03*
X297048Y174523D03*
X294264Y177307D03*
X291480Y180091D03*
X288697Y182875D03*
X285913Y185659D03*
X283129Y188443D03*
X280345Y191227D03*
X277561Y194011D03*
X274777Y196794D03*
X271993Y199578D03*
X269209Y202362D03*
X266426Y205146D03*
X263642Y207930D03*
X260858Y210714D03*
X258074Y213498D03*
X255290Y216282D03*
X252506Y219066D03*
X336023Y141117D03*
X333239Y143901D03*
X330455Y146685D03*
X327671Y149468D03*
X324887Y152252D03*
X322103Y155036D03*
X319319Y157820D03*
X316535Y160604D03*
X313752Y163388D03*
X310968Y166172D03*
X308184Y168956D03*
X305400Y171739D03*
X302616Y174523D03*
X299832Y177307D03*
X297048Y180091D03*
X294264Y182875D03*
X291480Y185659D03*
X288697Y188443D03*
X285913Y191227D03*
X283129Y194011D03*
X280345Y196794D03*
X277561Y199578D03*
X274777Y202362D03*
X271993Y205146D03*
X269209Y207930D03*
X266426Y210714D03*
X263642Y213498D03*
X260858Y216282D03*
X258074Y219066D03*
X255290Y221849D03*
X338807Y143901D03*
X336023Y146685D03*
X333239Y149468D03*
X330455Y152252D03*
X327671Y155036D03*
X324887Y157820D03*
X322103Y160604D03*
X319319Y163388D03*
X316535Y166172D03*
X313752Y168956D03*
X310968Y171739D03*
X308184Y174523D03*
X305400Y177307D03*
X302616Y180091D03*
X299832Y182875D03*
X297048Y185659D03*
X294264Y188443D03*
X291480Y191227D03*
X288697Y194011D03*
X285913Y196794D03*
X283129Y199578D03*
X280345Y202362D03*
X277561Y205146D03*
X274777Y207930D03*
X271993Y210714D03*
X269209Y213498D03*
X266426Y216282D03*
X263642Y219066D03*
X260858Y221849D03*
X258074Y224633D03*
X341590Y146685D03*
X338807Y149468D03*
X336023Y152252D03*
X333239Y155036D03*
X330455Y157820D03*
X327671Y160604D03*
X324887Y163388D03*
X322103Y166172D03*
X319319Y168956D03*
X316535Y171739D03*
X313752Y174523D03*
X310968Y177307D03*
X308184Y180091D03*
X305400Y182875D03*
X302616Y185659D03*
X299832Y188443D03*
X297048Y191227D03*
X294264Y194011D03*
X291480Y196794D03*
X288697Y199578D03*
X285913Y202362D03*
X283129Y205146D03*
X280345Y207930D03*
X277561Y210714D03*
X274777Y213498D03*
X271993Y216282D03*
X269209Y219066D03*
X266426Y221849D03*
X263642Y224633D03*
X260858Y227417D03*
X344374Y149468D03*
X341590Y152252D03*
X338807Y155036D03*
X336023Y157820D03*
X333239Y160604D03*
X330455Y163388D03*
X327671Y166172D03*
X324887Y168956D03*
X322103Y171739D03*
X319319Y174523D03*
X316535Y177307D03*
X313752Y180091D03*
X310968Y182875D03*
X308184Y185659D03*
X305400Y188443D03*
X302616Y191227D03*
X299832Y194011D03*
X297048Y196794D03*
X294264Y199578D03*
X291480Y202362D03*
X288697Y205146D03*
X285913Y207930D03*
X283129Y210714D03*
X280345Y213498D03*
X277561Y216282D03*
X274777Y219066D03*
X271993Y221849D03*
X269209Y224633D03*
X266426Y227417D03*
X263642Y230201D03*
X347158Y152252D03*
X344374Y155036D03*
X341590Y157820D03*
X338807Y160604D03*
X336023Y163388D03*
X333239Y166172D03*
X330455Y168956D03*
X327671Y171739D03*
X324887Y174523D03*
X322103Y177307D03*
X319319Y180091D03*
X316535Y182875D03*
X313752Y185659D03*
X310968Y188443D03*
X308184Y191227D03*
X305400Y194011D03*
X302616Y196794D03*
X299832Y199578D03*
X297048Y202362D03*
X294264Y205146D03*
X291480Y207930D03*
X288697Y210714D03*
X285913Y213498D03*
X283129Y216282D03*
X280345Y219066D03*
X277561Y221849D03*
X274777Y224633D03*
X271993Y227417D03*
X269209Y230201D03*
X266426Y232985D03*
X349942Y155036D03*
X347158Y157820D03*
X344374Y160604D03*
X341590Y163388D03*
X338807Y166172D03*
X336023Y168956D03*
X333239Y171739D03*
X330455Y174523D03*
X327671Y177307D03*
X324887Y180091D03*
X322103Y182875D03*
X319319Y185659D03*
X316535Y188443D03*
X313752Y191227D03*
X310968Y194011D03*
X308184Y196794D03*
X305400Y199578D03*
X302616Y202362D03*
X299832Y205146D03*
X297048Y207930D03*
X294264Y210714D03*
X291480Y213498D03*
X288697Y216282D03*
X285913Y219066D03*
X283129Y221849D03*
X280345Y224633D03*
X277561Y227417D03*
X274777Y230201D03*
X271993Y232985D03*
X269209Y235769D03*
X352726Y157820D03*
X349942Y160604D03*
X347158Y163388D03*
X344374Y166172D03*
X341590Y168956D03*
X338807Y171739D03*
X336023Y174523D03*
X333239Y177307D03*
X330455Y180091D03*
X327671Y182875D03*
X324887Y185659D03*
X322103Y188443D03*
X319319Y191227D03*
X316535Y194011D03*
X313752Y196794D03*
X310968Y199578D03*
X308184Y202362D03*
X305400Y205146D03*
X302616Y207930D03*
X299832Y210714D03*
X297048Y213498D03*
X294264Y216282D03*
X291480Y219066D03*
X288697Y221849D03*
X285913Y224633D03*
X283129Y227417D03*
X280345Y230201D03*
X277561Y232985D03*
X274777Y235769D03*
X271993Y238553D03*
X355510Y160604D03*
X352726Y163388D03*
X349942Y166172D03*
X347158Y168956D03*
X344374Y171739D03*
X341590Y174523D03*
X338807Y177307D03*
X336023Y180091D03*
X333239Y182875D03*
X330455Y185659D03*
X327671Y188443D03*
X324887Y191227D03*
X322103Y194011D03*
X319319Y196794D03*
X316535Y199578D03*
X313752Y202362D03*
X310968Y205146D03*
X308184Y207930D03*
X305400Y210714D03*
X302616Y213498D03*
X299832Y216282D03*
X297048Y219066D03*
X294264Y221849D03*
X291480Y224633D03*
X288697Y227417D03*
X285913Y230201D03*
X283129Y232985D03*
X280345Y235769D03*
X277561Y238553D03*
X274777Y241337D03*
X358294Y163388D03*
X355510Y166172D03*
X352726Y168956D03*
X349942Y171739D03*
X347158Y174523D03*
X344374Y177307D03*
X341590Y180091D03*
X338807Y182875D03*
X336023Y185659D03*
X333239Y188443D03*
X330455Y191227D03*
X327671Y194011D03*
X324887Y196794D03*
X322103Y199578D03*
X319319Y202362D03*
X316535Y205146D03*
X313752Y207930D03*
X310968Y210714D03*
X308184Y213498D03*
X305400Y216282D03*
X302616Y219066D03*
X299832Y221849D03*
X297048Y224633D03*
X294264Y227417D03*
X291480Y230201D03*
X288697Y232985D03*
X285913Y235769D03*
X283129Y238553D03*
X280345Y241337D03*
X277561Y244120D03*
X361078Y166172D03*
X358294Y168956D03*
X355510Y171739D03*
X352726Y174523D03*
X349942Y177307D03*
X347158Y180091D03*
X344374Y182875D03*
X341590Y185659D03*
X338807Y188443D03*
X336023Y191227D03*
X333239Y194011D03*
X330455Y196794D03*
X327671Y199578D03*
X324887Y202362D03*
X322103Y205146D03*
X319319Y207930D03*
X316535Y210714D03*
X313752Y213498D03*
X310968Y216282D03*
X308184Y219066D03*
X305400Y221849D03*
X302616Y224633D03*
X299832Y227417D03*
X297048Y230201D03*
X294264Y232985D03*
X291480Y235769D03*
X288697Y238553D03*
X285913Y241337D03*
X283129Y244120D03*
X280345Y246904D03*
X363861Y168956D03*
X361078Y171739D03*
X358294Y174523D03*
X355510Y177307D03*
X352726Y180091D03*
X349942Y182875D03*
X347158Y185659D03*
X344374Y188443D03*
X341590Y191227D03*
X338807Y194011D03*
X336023Y196794D03*
X333239Y199578D03*
X330455Y202362D03*
X327671Y205146D03*
X324887Y207930D03*
X322103Y210714D03*
X319319Y213498D03*
X316535Y216282D03*
X313752Y219066D03*
X310968Y221849D03*
X308184Y224633D03*
X305400Y227417D03*
X302616Y230201D03*
X299832Y232985D03*
X297048Y235769D03*
X294264Y238553D03*
X291480Y241337D03*
X288697Y244120D03*
X285913Y246904D03*
X283129Y249688D03*
X366645Y171739D03*
X363861Y174523D03*
X361078Y177307D03*
X358294Y180091D03*
X355510Y182875D03*
X352726Y185659D03*
X349942Y188443D03*
X347158Y191227D03*
X344374Y194011D03*
X341590Y196794D03*
X338807Y199578D03*
X336023Y202362D03*
X333239Y205146D03*
X330455Y207930D03*
X327671Y210714D03*
X324887Y213498D03*
X322103Y216282D03*
X319319Y219066D03*
X316535Y221849D03*
X313752Y224633D03*
X310968Y227417D03*
X308184Y230201D03*
X305400Y232985D03*
X302616Y235769D03*
X299832Y238553D03*
X297048Y241337D03*
X294264Y244120D03*
X291480Y246904D03*
X288697Y249688D03*
X285913Y252472D03*
X369429Y174523D03*
X366645Y177307D03*
X363861Y180091D03*
X361078Y182875D03*
X358294Y185659D03*
X355510Y188443D03*
X352726Y191227D03*
X349942Y194011D03*
X347158Y196794D03*
X344374Y199578D03*
X341590Y202362D03*
X338807Y205146D03*
X336023Y207930D03*
X333239Y210714D03*
X330455Y213498D03*
X327671Y216282D03*
X324887Y219066D03*
X322103Y221849D03*
X319319Y224633D03*
X316535Y227417D03*
X313752Y230201D03*
X310968Y232985D03*
X308184Y235769D03*
X305400Y238553D03*
X302616Y241337D03*
X299832Y244120D03*
X297048Y246904D03*
X294264Y249688D03*
X291480Y252472D03*
X288697Y255256D03*
X372213Y177307D03*
X369429Y180091D03*
X366645Y182875D03*
X363861Y185659D03*
X361078Y188443D03*
X358294Y191227D03*
X355510Y194011D03*
X352726Y196794D03*
X349942Y199578D03*
X347158Y202362D03*
X344374Y205146D03*
X341590Y207930D03*
X338807Y210714D03*
X336023Y213498D03*
X333239Y216282D03*
X330455Y219066D03*
X327671Y221849D03*
X324887Y224633D03*
X322103Y227417D03*
X319319Y230201D03*
X316535Y232985D03*
X313752Y235769D03*
X310968Y238553D03*
X308184Y241337D03*
X305400Y244120D03*
X302616Y246904D03*
X299832Y249688D03*
X297048Y252472D03*
X294264Y255256D03*
X291480Y258040D03*
X374997Y180091D03*
X372213Y182875D03*
X369429Y185659D03*
X366645Y188443D03*
X363861Y191227D03*
X361078Y194011D03*
X358294Y196794D03*
X355510Y199578D03*
X352726Y202362D03*
X349942Y205146D03*
X347158Y207930D03*
X344374Y210714D03*
X341590Y213498D03*
X338807Y216282D03*
X336023Y219066D03*
X333239Y221849D03*
X330455Y224633D03*
X327671Y227417D03*
X324887Y230201D03*
X322103Y232985D03*
X319319Y235769D03*
X316535Y238553D03*
X313752Y241337D03*
X310968Y244120D03*
X308184Y246904D03*
X305400Y249688D03*
X302616Y252472D03*
X299832Y255256D03*
X297048Y258040D03*
X294264Y260824D03*
X377781Y182875D03*
X374997Y185659D03*
X372213Y188443D03*
X369429Y191227D03*
X366645Y194011D03*
X363861Y196794D03*
X361078Y199578D03*
X358294Y202362D03*
X355510Y205146D03*
X352726Y207930D03*
X349942Y210714D03*
X347158Y213498D03*
X344374Y216282D03*
X341590Y219066D03*
X338807Y221849D03*
X336023Y224633D03*
X333239Y227417D03*
X330455Y230201D03*
X327671Y232985D03*
X324887Y235769D03*
X322103Y238553D03*
X319319Y241337D03*
X316535Y244120D03*
X313752Y246904D03*
X310968Y249688D03*
X308184Y252472D03*
X305400Y255256D03*
X302616Y258040D03*
X299832Y260824D03*
X297048Y263608D03*
X380565Y185659D03*
X377781Y188443D03*
X374997Y191227D03*
X372213Y194011D03*
X369429Y196794D03*
X366645Y199578D03*
X363861Y202362D03*
X361078Y205146D03*
X358294Y207930D03*
X355510Y210714D03*
X352726Y213498D03*
X349942Y216282D03*
X347158Y219066D03*
X344374Y221849D03*
X341590Y224633D03*
X338807Y227417D03*
X336023Y230201D03*
X333239Y232985D03*
X330455Y235769D03*
X327671Y238553D03*
X324887Y241337D03*
X322103Y244120D03*
X319319Y246904D03*
X316535Y249688D03*
X313752Y252472D03*
X310968Y255256D03*
X308184Y258040D03*
X305400Y260824D03*
X302616Y263608D03*
X299832Y266392D03*
X383349Y188443D03*
X380565Y191227D03*
X377781Y194011D03*
X374997Y196794D03*
X372213Y199578D03*
X369429Y202362D03*
X366645Y205146D03*
X363861Y207930D03*
X361078Y210714D03*
X358294Y213498D03*
X355510Y216282D03*
X352726Y219066D03*
X349942Y221849D03*
X347158Y224633D03*
X344374Y227417D03*
X341590Y230201D03*
X338807Y232985D03*
X336023Y235769D03*
X333239Y238553D03*
X330455Y241337D03*
X327671Y244120D03*
X324887Y246904D03*
X322103Y249688D03*
X319319Y252472D03*
X316535Y255256D03*
X313752Y258040D03*
X310968Y260824D03*
X308184Y263608D03*
X305400Y266392D03*
X302616Y269175D03*
X386133Y191227D03*
X383349Y194011D03*
X380565Y196794D03*
X377781Y199578D03*
X374997Y202362D03*
X372213Y205146D03*
X369429Y207930D03*
X366645Y210714D03*
X363861Y213498D03*
X361078Y216282D03*
X358294Y219066D03*
X355510Y221849D03*
X352726Y224633D03*
X349942Y227417D03*
X347158Y230201D03*
X344374Y232985D03*
X341590Y235769D03*
X338807Y238553D03*
X336023Y241337D03*
X333239Y244120D03*
X330455Y246904D03*
X327671Y249688D03*
X324887Y252472D03*
X322103Y255256D03*
X319319Y258040D03*
X316535Y260824D03*
X313752Y263608D03*
X310968Y266392D03*
X308184Y269175D03*
X305400Y271959D03*
X388916Y194011D03*
X386133Y196794D03*
X383349Y199578D03*
X380565Y202362D03*
X377781Y205146D03*
X374997Y207930D03*
X372213Y210714D03*
X369429Y213498D03*
X366645Y216282D03*
X363861Y219066D03*
X361078Y221849D03*
X358294Y224633D03*
X355510Y227417D03*
X352726Y230201D03*
X349942Y232985D03*
X347158Y235769D03*
X344374Y238553D03*
X341590Y241337D03*
X338807Y244120D03*
X336023Y246904D03*
X333239Y249688D03*
X330455Y252472D03*
X327671Y255256D03*
X324887Y258040D03*
X322103Y260824D03*
X319319Y263608D03*
X316535Y266392D03*
X313752Y269175D03*
X310968Y271959D03*
X308184Y274743D03*
X391700Y196794D03*
X388916Y199578D03*
X386133Y202362D03*
X383349Y205146D03*
X380565Y207930D03*
X377781Y210714D03*
X374997Y213498D03*
X372213Y216282D03*
X369429Y219066D03*
X366645Y221849D03*
X363861Y224633D03*
X361078Y227417D03*
X358294Y230201D03*
X355510Y232985D03*
X352726Y235769D03*
X349942Y238553D03*
X347158Y241337D03*
X344374Y244120D03*
X341590Y246904D03*
X338807Y249688D03*
X336023Y252472D03*
X333239Y255256D03*
X330455Y258040D03*
X327671Y260824D03*
X324887Y263608D03*
X322103Y266392D03*
X319319Y269175D03*
X316535Y271959D03*
X313752Y274743D03*
X310968Y277527D03*
X394484Y199578D03*
X391700Y202362D03*
X388916Y205146D03*
X386133Y207930D03*
X383349Y210714D03*
X380565Y213498D03*
X377781Y216282D03*
X374997Y219066D03*
X372213Y221849D03*
X369429Y224633D03*
X366645Y227417D03*
X363861Y230201D03*
X361078Y232985D03*
X358294Y235769D03*
X355510Y238553D03*
X352726Y241337D03*
X349942Y244120D03*
X347158Y246904D03*
X344374Y249688D03*
X341590Y252472D03*
X338807Y255256D03*
X336023Y258040D03*
X333239Y260824D03*
X330455Y263608D03*
X327671Y266392D03*
X324887Y269175D03*
X322103Y271959D03*
X319319Y274743D03*
X316535Y277527D03*
X313752Y280311D03*
X397268Y202362D03*
X394484Y205146D03*
X391700Y207930D03*
X388916Y210714D03*
X386133Y213498D03*
X383349Y216282D03*
X380565Y219066D03*
X377781Y221849D03*
X374997Y224633D03*
X372213Y227417D03*
X369429Y230201D03*
X366645Y232985D03*
X363861Y235769D03*
X361078Y238553D03*
X358294Y241337D03*
X355510Y244120D03*
X352726Y246904D03*
X349942Y249688D03*
X347158Y252472D03*
X344374Y255256D03*
X341590Y258040D03*
X338807Y260824D03*
X336023Y263608D03*
X333239Y266392D03*
X330455Y269175D03*
X327671Y271959D03*
X324887Y274743D03*
X322103Y277527D03*
X319319Y280311D03*
X316535Y283095D03*
G54D243*
X447564Y370177D03*
G74*
X0Y0D02*
M02*
