*
*
G04 PADS 9.5 Build Number: 522968 generated Gerber (RS-274-X) file*
G04 PC Version=2.1*
*
%IN "fakeSCROD.pcb"*%
*
%MOIN*%
*
%FSLAX35Y35*%
*
*
*
*
G04 PC Standard Apertures*
*
*
G04 Thermal Relief Aperture macro.*
%AMTER*
1,1,$1,0,0*
1,0,$1-$2,0,0*
21,0,$3,$4,0,0,45*
21,0,$3,$4,0,0,135*
%
*
*
G04 Annular Aperture macro.*
%AMANN*
1,1,$1,0,0*
1,0,$2,0,0*
%
*
*
G04 Odd Aperture macro.*
%AMODD*
1,1,$1,0,0*
1,0,$1-0.005,0,0*
%
*
*
G04 PC Custom Aperture Macros*
*
*
*
*
*
*
G04 PC Aperture Table*
*
%ADD010C,0.001*%
%ADD012C,0.005*%
%ADD013C,0.01*%
%ADD016C,0.095*%
%ADD218C,0.04531*%
%ADD219C,0.02956*%
%ADD220R,0.0335X0.02169*%
%ADD223R,0.02169X0.0335*%
%ADD226R,0.062X0.062*%
%ADD235C,0.062*%
%ADD259C,0.162*%
%ADD270C,0.03743*%
%ADD271C,0.08861*%
%ADD272C,0.07287*%
%ADD273C,0.047*%
%ADD274C,0.077*%
%ADD275C,0.052*%
%ADD279R,0.05987X0.02798*%
%ADD280C,0.04743*%
%ADD281R,0.077X0.077*%
%ADD287R,0.01184X0.03153*%
%ADD290R,0.02169X0.08074*%
%ADD291C,0.01775*%
%ADD292R,0.04137X0.06106*%
%ADD293C,0.034*%
*
*
*
*
G04 PC Circuitry*
G04 Layer Name fakeSCROD.pcb - circuitry*
%LPD*%
*
*
G04 PC Custom Flashes*
G04 Layer Name fakeSCROD.pcb - flashes*
%LPD*%
*
*
G04 PC Circuitry*
G04 Layer Name fakeSCROD.pcb - circuitry*
%LPD*%
*
G54D10*
G54D12*
G01X505762Y100250D02*
X532821D01*
Y446207*
X505762*
Y100250*
X100250D02*
X127309D01*
Y446207*
X100250*
Y100250*
X505762Y445750D02*
X532821D01*
X505762Y445250D02*
X532821D01*
X505762Y444750D02*
X532821D01*
X505762Y444250D02*
X532821D01*
X505762Y443750D02*
X532821D01*
X505762Y443250D02*
X532821D01*
X505762Y442750D02*
X532821D01*
X505762Y442250D02*
X532821D01*
X505762Y441750D02*
X532821D01*
X505762Y441250D02*
X532821D01*
X505762Y440750D02*
X532821D01*
X505762Y440250D02*
X532821D01*
X505762Y439750D02*
X532821D01*
X505762Y439250D02*
X532821D01*
X505762Y438750D02*
X532821D01*
X505762Y438250D02*
X532821D01*
X505762Y437750D02*
X532821D01*
X505762Y437250D02*
X532821D01*
X505762Y436750D02*
X532821D01*
X505762Y436250D02*
X532821D01*
X505762Y435750D02*
X532821D01*
X505762Y435250D02*
X532821D01*
X505762Y434750D02*
X532821D01*
X505762Y434250D02*
X532821D01*
X505762Y433750D02*
X532821D01*
X505762Y433250D02*
X532821D01*
X505762Y432750D02*
X532821D01*
X505762Y432250D02*
X532821D01*
X505762Y431750D02*
X532821D01*
X505762Y431250D02*
X532821D01*
X505762Y430750D02*
X532821D01*
X505762Y430250D02*
X532821D01*
X505762Y429750D02*
X532821D01*
X505762Y429250D02*
X532821D01*
X505762Y428750D02*
X532821D01*
X505762Y428250D02*
X532821D01*
X505762Y427750D02*
X532821D01*
X505762Y427250D02*
X532821D01*
X505762Y426750D02*
X532821D01*
X505762Y426250D02*
X532821D01*
X505762Y425750D02*
X532821D01*
X505762Y425250D02*
X532821D01*
X505762Y424750D02*
X532821D01*
X505762Y424250D02*
X532821D01*
X505762Y423750D02*
X532821D01*
X505762Y423250D02*
X532821D01*
X505762Y422750D02*
X532821D01*
X505762Y422250D02*
X532821D01*
X505762Y421750D02*
X532821D01*
X505762Y421250D02*
X532821D01*
X505762Y420750D02*
X532821D01*
X505762Y420250D02*
X532821D01*
X505762Y419750D02*
X532821D01*
X505762Y419250D02*
X532821D01*
X505762Y418750D02*
X532821D01*
X505762Y418250D02*
X532821D01*
X505762Y417750D02*
X532821D01*
X505762Y417250D02*
X532821D01*
X505762Y416750D02*
X532821D01*
X505762Y416250D02*
X532821D01*
X505762Y415750D02*
X532821D01*
X505762Y415250D02*
X532821D01*
X505762Y414750D02*
X532821D01*
X505762Y414250D02*
X532821D01*
X505762Y413750D02*
X532821D01*
X505762Y413250D02*
X532821D01*
X505762Y412750D02*
X532821D01*
X505762Y412250D02*
X532821D01*
X505762Y411750D02*
X532821D01*
X505762Y411250D02*
X532821D01*
X505762Y410750D02*
X532821D01*
X505762Y410250D02*
X532821D01*
X505762Y409750D02*
X532821D01*
X505762Y409250D02*
X532821D01*
X505762Y408750D02*
X532821D01*
X505762Y408250D02*
X532821D01*
X505762Y407750D02*
X532821D01*
X505762Y407250D02*
X532821D01*
X505762Y406750D02*
X532821D01*
X505762Y406250D02*
X532821D01*
X505762Y405750D02*
X532821D01*
X505762Y405250D02*
X532821D01*
X505762Y404750D02*
X532821D01*
X505762Y404250D02*
X532821D01*
X505762Y403750D02*
X532821D01*
X505762Y403250D02*
X532821D01*
X505762Y402750D02*
X532821D01*
X505762Y402250D02*
X532821D01*
X505762Y401750D02*
X532821D01*
X505762Y401250D02*
X532821D01*
X505762Y400750D02*
X532821D01*
X505762Y400250D02*
X532821D01*
X505762Y399750D02*
X532821D01*
X505762Y399250D02*
X532821D01*
X505762Y398750D02*
X532821D01*
X505762Y398250D02*
X532821D01*
X505762Y397750D02*
X532821D01*
X505762Y397250D02*
X532821D01*
X505762Y396750D02*
X532821D01*
X505762Y396250D02*
X532821D01*
X505762Y395750D02*
X532821D01*
X505762Y395250D02*
X532821D01*
X505762Y394750D02*
X532821D01*
X505762Y394250D02*
X532821D01*
X505762Y393750D02*
X532821D01*
X505762Y393250D02*
X532821D01*
X505762Y392750D02*
X532821D01*
X505762Y392250D02*
X532821D01*
X505762Y391750D02*
X532821D01*
X505762Y391250D02*
X532821D01*
X505762Y390750D02*
X532821D01*
X505762Y390250D02*
X532821D01*
X505762Y389750D02*
X532821D01*
X505762Y389250D02*
X532821D01*
X505762Y388750D02*
X532821D01*
X505762Y388250D02*
X532821D01*
X505762Y387750D02*
X532821D01*
X505762Y387250D02*
X532821D01*
X505762Y386750D02*
X532821D01*
X505762Y386250D02*
X532821D01*
X505762Y385750D02*
X532821D01*
X505762Y385250D02*
X532821D01*
X505762Y384750D02*
X532821D01*
X505762Y384250D02*
X532821D01*
X505762Y383750D02*
X532821D01*
X505762Y383250D02*
X532821D01*
X505762Y382750D02*
X532821D01*
X505762Y382250D02*
X532821D01*
X505762Y381750D02*
X532821D01*
X505762Y381250D02*
X532821D01*
X505762Y380750D02*
X532821D01*
X505762Y380250D02*
X532821D01*
X505762Y379750D02*
X532821D01*
X505762Y379250D02*
X532821D01*
X505762Y378750D02*
X532821D01*
X505762Y378250D02*
X532821D01*
X505762Y377750D02*
X532821D01*
X505762Y377250D02*
X532821D01*
X505762Y376750D02*
X532821D01*
X505762Y376250D02*
X532821D01*
X505762Y375750D02*
X532821D01*
X505762Y375250D02*
X532821D01*
X505762Y374750D02*
X532821D01*
X505762Y374250D02*
X532821D01*
X505762Y373750D02*
X532821D01*
X505762Y373250D02*
X532821D01*
X505762Y372750D02*
X532821D01*
X505762Y372250D02*
X532821D01*
X505762Y371750D02*
X532821D01*
X505762Y371250D02*
X532821D01*
X505762Y370750D02*
X532821D01*
X505762Y370250D02*
X532821D01*
X505762Y369750D02*
X532821D01*
X505762Y369250D02*
X532821D01*
X505762Y368750D02*
X532821D01*
X505762Y368250D02*
X532821D01*
X505762Y367750D02*
X532821D01*
X505762Y367250D02*
X532821D01*
X505762Y366750D02*
X532821D01*
X505762Y366250D02*
X532821D01*
X505762Y365750D02*
X532821D01*
X505762Y365250D02*
X532821D01*
X505762Y364750D02*
X532821D01*
X505762Y364250D02*
X532821D01*
X505762Y363750D02*
X532821D01*
X505762Y363250D02*
X532821D01*
X505762Y362750D02*
X532821D01*
X505762Y362250D02*
X532821D01*
X505762Y361750D02*
X532821D01*
X505762Y361250D02*
X532821D01*
X505762Y360750D02*
X532821D01*
X505762Y360250D02*
X532821D01*
X505762Y359750D02*
X532821D01*
X505762Y359250D02*
X532821D01*
X505762Y358750D02*
X532821D01*
X505762Y358250D02*
X532821D01*
X505762Y357750D02*
X532821D01*
X505762Y357250D02*
X532821D01*
X505762Y356750D02*
X532821D01*
X505762Y356250D02*
X532821D01*
X505762Y355750D02*
X532821D01*
X505762Y355250D02*
X532821D01*
X505762Y354750D02*
X532821D01*
X505762Y354250D02*
X532821D01*
X505762Y353750D02*
X532821D01*
X505762Y353250D02*
X532821D01*
X505762Y352750D02*
X532821D01*
X505762Y352250D02*
X532821D01*
X505762Y351750D02*
X532821D01*
X505762Y351250D02*
X532821D01*
X505762Y350750D02*
X532821D01*
X505762Y350250D02*
X532821D01*
X505762Y349750D02*
X532821D01*
X505762Y349250D02*
X532821D01*
X505762Y348750D02*
X532821D01*
X505762Y348250D02*
X532821D01*
X505762Y347750D02*
X532821D01*
X505762Y347250D02*
X532821D01*
X505762Y346750D02*
X532821D01*
X505762Y346250D02*
X532821D01*
X505762Y345750D02*
X532821D01*
X505762Y345250D02*
X532821D01*
X505762Y344750D02*
X532821D01*
X505762Y344250D02*
X532821D01*
X505762Y343750D02*
X532821D01*
X505762Y343250D02*
X532821D01*
X505762Y342750D02*
X532821D01*
X505762Y342250D02*
X532821D01*
X505762Y341750D02*
X532821D01*
X505762Y341250D02*
X532821D01*
X505762Y340750D02*
X532821D01*
X505762Y340250D02*
X532821D01*
X505762Y339750D02*
X532821D01*
X505762Y339250D02*
X532821D01*
X505762Y338750D02*
X532821D01*
X505762Y338250D02*
X532821D01*
X505762Y337750D02*
X532821D01*
X505762Y337250D02*
X532821D01*
X505762Y336750D02*
X532821D01*
X505762Y336250D02*
X532821D01*
X505762Y335750D02*
X532821D01*
X505762Y335250D02*
X532821D01*
X505762Y334750D02*
X532821D01*
X505762Y334250D02*
X532821D01*
X505762Y333750D02*
X532821D01*
X505762Y333250D02*
X532821D01*
X505762Y332750D02*
X532821D01*
X505762Y332250D02*
X532821D01*
X505762Y331750D02*
X532821D01*
X505762Y331250D02*
X532821D01*
X505762Y330750D02*
X532821D01*
X505762Y330250D02*
X532821D01*
X505762Y329750D02*
X532821D01*
X505762Y329250D02*
X532821D01*
X505762Y328750D02*
X532821D01*
X505762Y328250D02*
X532821D01*
X505762Y327750D02*
X532821D01*
X505762Y327250D02*
X532821D01*
X505762Y326750D02*
X532821D01*
X505762Y326250D02*
X532821D01*
X505762Y325750D02*
X532821D01*
X505762Y325250D02*
X532821D01*
X505762Y324750D02*
X532821D01*
X505762Y324250D02*
X532821D01*
X505762Y323750D02*
X532821D01*
X505762Y323250D02*
X532821D01*
X505762Y322750D02*
X532821D01*
X505762Y322250D02*
X532821D01*
X505762Y321750D02*
X532821D01*
X505762Y321250D02*
X532821D01*
X505762Y320750D02*
X532821D01*
X505762Y320250D02*
X532821D01*
X505762Y319750D02*
X532821D01*
X505762Y319250D02*
X532821D01*
X505762Y318750D02*
X532821D01*
X505762Y318250D02*
X532821D01*
X505762Y317750D02*
X532821D01*
X505762Y317250D02*
X532821D01*
X505762Y316750D02*
X532821D01*
X505762Y316250D02*
X532821D01*
X505762Y315750D02*
X532821D01*
X505762Y315250D02*
X532821D01*
X505762Y314750D02*
X532821D01*
X505762Y314250D02*
X532821D01*
X505762Y313750D02*
X532821D01*
X505762Y313250D02*
X532821D01*
X505762Y312750D02*
X532821D01*
X505762Y312250D02*
X532821D01*
X505762Y311750D02*
X532821D01*
X505762Y311250D02*
X532821D01*
X505762Y310750D02*
X532821D01*
X505762Y310250D02*
X532821D01*
X505762Y309750D02*
X532821D01*
X505762Y309250D02*
X532821D01*
X505762Y308750D02*
X532821D01*
X505762Y308250D02*
X532821D01*
X505762Y307750D02*
X532821D01*
X505762Y307250D02*
X532821D01*
X505762Y306750D02*
X532821D01*
X505762Y306250D02*
X532821D01*
X505762Y305750D02*
X532821D01*
X505762Y305250D02*
X532821D01*
X505762Y304750D02*
X532821D01*
X505762Y304250D02*
X532821D01*
X505762Y303750D02*
X532821D01*
X505762Y303250D02*
X532821D01*
X505762Y302750D02*
X532821D01*
X505762Y302250D02*
X532821D01*
X505762Y301750D02*
X532821D01*
X505762Y301250D02*
X532821D01*
X505762Y300750D02*
X532821D01*
X505762Y300250D02*
X532821D01*
X505762Y299750D02*
X532821D01*
X505762Y299250D02*
X532821D01*
X505762Y298750D02*
X532821D01*
X505762Y298250D02*
X532821D01*
X505762Y297750D02*
X532821D01*
X505762Y297250D02*
X532821D01*
X505762Y296750D02*
X532821D01*
X505762Y296250D02*
X532821D01*
X505762Y295750D02*
X532821D01*
X505762Y295250D02*
X532821D01*
X505762Y294750D02*
X532821D01*
X505762Y294250D02*
X532821D01*
X505762Y293750D02*
X532821D01*
X505762Y293250D02*
X532821D01*
X505762Y292750D02*
X532821D01*
X505762Y292250D02*
X532821D01*
X505762Y291750D02*
X532821D01*
X505762Y291250D02*
X532821D01*
X505762Y290750D02*
X532821D01*
X505762Y290250D02*
X532821D01*
X505762Y289750D02*
X532821D01*
X505762Y289250D02*
X532821D01*
X505762Y288750D02*
X532821D01*
X505762Y288250D02*
X532821D01*
X505762Y287750D02*
X532821D01*
X505762Y287250D02*
X532821D01*
X505762Y286750D02*
X532821D01*
X505762Y286250D02*
X532821D01*
X505762Y285750D02*
X532821D01*
X505762Y285250D02*
X532821D01*
X505762Y284750D02*
X532821D01*
X505762Y284250D02*
X532821D01*
X505762Y283750D02*
X532821D01*
X505762Y283250D02*
X532821D01*
X505762Y282750D02*
X532821D01*
X505762Y282250D02*
X532821D01*
X505762Y281750D02*
X532821D01*
X505762Y281250D02*
X532821D01*
X505762Y280750D02*
X532821D01*
X505762Y280250D02*
X532821D01*
X505762Y279750D02*
X532821D01*
X505762Y279250D02*
X532821D01*
X505762Y278750D02*
X532821D01*
X505762Y278250D02*
X532821D01*
X505762Y277750D02*
X532821D01*
X505762Y277250D02*
X532821D01*
X505762Y276750D02*
X532821D01*
X505762Y276250D02*
X532821D01*
X505762Y275750D02*
X532821D01*
X505762Y275250D02*
X532821D01*
X505762Y274750D02*
X532821D01*
X505762Y274250D02*
X532821D01*
X505762Y273750D02*
X532821D01*
X505762Y273250D02*
X532821D01*
X505762Y272750D02*
X532821D01*
X505762Y272250D02*
X532821D01*
X505762Y271750D02*
X532821D01*
X505762Y271250D02*
X532821D01*
X505762Y270750D02*
X532821D01*
X505762Y270250D02*
X532821D01*
X505762Y269750D02*
X532821D01*
X505762Y269250D02*
X532821D01*
X505762Y268750D02*
X532821D01*
X505762Y268250D02*
X532821D01*
X505762Y267750D02*
X532821D01*
X505762Y267250D02*
X532821D01*
X505762Y266750D02*
X532821D01*
X505762Y266250D02*
X532821D01*
X505762Y265750D02*
X532821D01*
X505762Y265250D02*
X532821D01*
X505762Y264750D02*
X532821D01*
X505762Y264250D02*
X532821D01*
X505762Y263750D02*
X532821D01*
X505762Y263250D02*
X532821D01*
X505762Y262750D02*
X532821D01*
X505762Y262250D02*
X532821D01*
X505762Y261750D02*
X532821D01*
X505762Y261250D02*
X532821D01*
X505762Y260750D02*
X532821D01*
X505762Y260250D02*
X532821D01*
X505762Y259750D02*
X532821D01*
X505762Y259250D02*
X532821D01*
X505762Y258750D02*
X532821D01*
X505762Y258250D02*
X532821D01*
X505762Y257750D02*
X532821D01*
X505762Y257250D02*
X532821D01*
X505762Y256750D02*
X532821D01*
X505762Y256250D02*
X532821D01*
X505762Y255750D02*
X532821D01*
X505762Y255250D02*
X532821D01*
X505762Y254750D02*
X532821D01*
X505762Y254250D02*
X532821D01*
X505762Y253750D02*
X532821D01*
X505762Y253250D02*
X532821D01*
X505762Y252750D02*
X532821D01*
X505762Y252250D02*
X532821D01*
X505762Y251750D02*
X532821D01*
X505762Y251250D02*
X532821D01*
X505762Y250750D02*
X532821D01*
X505762Y250250D02*
X532821D01*
X505762Y249750D02*
X532821D01*
X505762Y249250D02*
X532821D01*
X505762Y248750D02*
X532821D01*
X505762Y248250D02*
X532821D01*
X505762Y247750D02*
X532821D01*
X505762Y247250D02*
X532821D01*
X505762Y246750D02*
X532821D01*
X505762Y246250D02*
X532821D01*
X505762Y245750D02*
X532821D01*
X505762Y245250D02*
X532821D01*
X505762Y244750D02*
X532821D01*
X505762Y244250D02*
X532821D01*
X505762Y243750D02*
X532821D01*
X505762Y243250D02*
X532821D01*
X505762Y242750D02*
X532821D01*
X505762Y242250D02*
X532821D01*
X505762Y241750D02*
X532821D01*
X505762Y241250D02*
X532821D01*
X505762Y240750D02*
X532821D01*
X505762Y240250D02*
X532821D01*
X505762Y239750D02*
X532821D01*
X505762Y239250D02*
X532821D01*
X505762Y238750D02*
X532821D01*
X505762Y238250D02*
X532821D01*
X505762Y237750D02*
X532821D01*
X505762Y237250D02*
X532821D01*
X505762Y236750D02*
X532821D01*
X505762Y236250D02*
X532821D01*
X505762Y235750D02*
X532821D01*
X505762Y235250D02*
X532821D01*
X505762Y234750D02*
X532821D01*
X505762Y234250D02*
X532821D01*
X505762Y233750D02*
X532821D01*
X505762Y233250D02*
X532821D01*
X505762Y232750D02*
X532821D01*
X505762Y232250D02*
X532821D01*
X505762Y231750D02*
X532821D01*
X505762Y231250D02*
X532821D01*
X505762Y230750D02*
X532821D01*
X505762Y230250D02*
X532821D01*
X505762Y229750D02*
X532821D01*
X505762Y229250D02*
X532821D01*
X505762Y228750D02*
X532821D01*
X505762Y228250D02*
X532821D01*
X505762Y227750D02*
X532821D01*
X505762Y227250D02*
X532821D01*
X505762Y226750D02*
X532821D01*
X505762Y226250D02*
X532821D01*
X505762Y225750D02*
X532821D01*
X505762Y225250D02*
X532821D01*
X505762Y224750D02*
X532821D01*
X505762Y224250D02*
X532821D01*
X505762Y223750D02*
X532821D01*
X505762Y223250D02*
X532821D01*
X505762Y222750D02*
X532821D01*
X505762Y222250D02*
X532821D01*
X505762Y221750D02*
X532821D01*
X505762Y221250D02*
X532821D01*
X505762Y220750D02*
X532821D01*
X505762Y220250D02*
X532821D01*
X505762Y219750D02*
X532821D01*
X505762Y219250D02*
X532821D01*
X505762Y218750D02*
X532821D01*
X505762Y218250D02*
X532821D01*
X505762Y217750D02*
X532821D01*
X505762Y217250D02*
X532821D01*
X505762Y216750D02*
X532821D01*
X505762Y216250D02*
X532821D01*
X505762Y215750D02*
X532821D01*
X505762Y215250D02*
X532821D01*
X505762Y214750D02*
X532821D01*
X505762Y214250D02*
X532821D01*
X505762Y213750D02*
X532821D01*
X505762Y213250D02*
X532821D01*
X505762Y212750D02*
X532821D01*
X505762Y212250D02*
X532821D01*
X505762Y211750D02*
X532821D01*
X505762Y211250D02*
X532821D01*
X505762Y210750D02*
X532821D01*
X505762Y210250D02*
X532821D01*
X505762Y209750D02*
X532821D01*
X505762Y209250D02*
X532821D01*
X505762Y208750D02*
X532821D01*
X505762Y208250D02*
X532821D01*
X505762Y207750D02*
X532821D01*
X505762Y207250D02*
X532821D01*
X505762Y206750D02*
X532821D01*
X505762Y206250D02*
X532821D01*
X505762Y205750D02*
X532821D01*
X505762Y205250D02*
X532821D01*
X505762Y204750D02*
X532821D01*
X505762Y204250D02*
X532821D01*
X505762Y203750D02*
X532821D01*
X505762Y203250D02*
X532821D01*
X505762Y202750D02*
X532821D01*
X505762Y202250D02*
X532821D01*
X505762Y201750D02*
X532821D01*
X505762Y201250D02*
X532821D01*
X505762Y200750D02*
X532821D01*
X505762Y200250D02*
X532821D01*
X505762Y199750D02*
X532821D01*
X505762Y199250D02*
X532821D01*
X505762Y198750D02*
X532821D01*
X505762Y198250D02*
X532821D01*
X505762Y197750D02*
X532821D01*
X505762Y197250D02*
X532821D01*
X505762Y196750D02*
X532821D01*
X505762Y196250D02*
X532821D01*
X505762Y195750D02*
X532821D01*
X505762Y195250D02*
X532821D01*
X505762Y194750D02*
X532821D01*
X505762Y194250D02*
X532821D01*
X505762Y193750D02*
X532821D01*
X505762Y193250D02*
X532821D01*
X505762Y192750D02*
X532821D01*
X505762Y192250D02*
X532821D01*
X505762Y191750D02*
X532821D01*
X505762Y191250D02*
X532821D01*
X505762Y190750D02*
X532821D01*
X505762Y190250D02*
X532821D01*
X505762Y189750D02*
X532821D01*
X505762Y189250D02*
X532821D01*
X505762Y188750D02*
X532821D01*
X505762Y188250D02*
X532821D01*
X505762Y187750D02*
X532821D01*
X505762Y187250D02*
X532821D01*
X505762Y186750D02*
X532821D01*
X505762Y186250D02*
X532821D01*
X505762Y185750D02*
X532821D01*
X505762Y185250D02*
X532821D01*
X505762Y184750D02*
X532821D01*
X505762Y184250D02*
X532821D01*
X505762Y183750D02*
X532821D01*
X505762Y183250D02*
X532821D01*
X505762Y182750D02*
X532821D01*
X505762Y182250D02*
X532821D01*
X505762Y181750D02*
X532821D01*
X505762Y181250D02*
X532821D01*
X505762Y180750D02*
X532821D01*
X505762Y180250D02*
X532821D01*
X505762Y179750D02*
X532821D01*
X505762Y179250D02*
X532821D01*
X505762Y178750D02*
X532821D01*
X505762Y178250D02*
X532821D01*
X505762Y177750D02*
X532821D01*
X505762Y177250D02*
X532821D01*
X505762Y176750D02*
X532821D01*
X505762Y176250D02*
X532821D01*
X505762Y175750D02*
X532821D01*
X505762Y175250D02*
X532821D01*
X505762Y174750D02*
X532821D01*
X505762Y174250D02*
X532821D01*
X505762Y173750D02*
X532821D01*
X505762Y173250D02*
X532821D01*
X505762Y172750D02*
X532821D01*
X505762Y172250D02*
X532821D01*
X505762Y171750D02*
X532821D01*
X505762Y171250D02*
X532821D01*
X505762Y170750D02*
X532821D01*
X505762Y170250D02*
X532821D01*
X505762Y169750D02*
X532821D01*
X505762Y169250D02*
X532821D01*
X505762Y168750D02*
X532821D01*
X505762Y168250D02*
X532821D01*
X505762Y167750D02*
X532821D01*
X505762Y167250D02*
X532821D01*
X505762Y166750D02*
X532821D01*
X505762Y166250D02*
X532821D01*
X505762Y165750D02*
X532821D01*
X505762Y165250D02*
X532821D01*
X505762Y164750D02*
X532821D01*
X505762Y164250D02*
X532821D01*
X505762Y163750D02*
X532821D01*
X505762Y163250D02*
X532821D01*
X505762Y162750D02*
X532821D01*
X505762Y162250D02*
X532821D01*
X505762Y161750D02*
X532821D01*
X505762Y161250D02*
X532821D01*
X505762Y160750D02*
X532821D01*
X505762Y160250D02*
X532821D01*
X505762Y159750D02*
X532821D01*
X505762Y159250D02*
X532821D01*
X505762Y158750D02*
X532821D01*
X505762Y158250D02*
X532821D01*
X505762Y157750D02*
X532821D01*
X505762Y157250D02*
X532821D01*
X505762Y156750D02*
X532821D01*
X505762Y156250D02*
X532821D01*
X505762Y155750D02*
X532821D01*
X505762Y155250D02*
X532821D01*
X505762Y154750D02*
X532821D01*
X505762Y154250D02*
X532821D01*
X505762Y153750D02*
X532821D01*
X505762Y153250D02*
X532821D01*
X505762Y152750D02*
X532821D01*
X505762Y152250D02*
X532821D01*
X505762Y151750D02*
X532821D01*
X505762Y151250D02*
X532821D01*
X505762Y150750D02*
X532821D01*
X505762Y150250D02*
X532821D01*
X505762Y149750D02*
X532821D01*
X505762Y149250D02*
X532821D01*
X505762Y148750D02*
X532821D01*
X505762Y148250D02*
X532821D01*
X505762Y147750D02*
X532821D01*
X505762Y147250D02*
X532821D01*
X505762Y146750D02*
X532821D01*
X505762Y146250D02*
X532821D01*
X505762Y145750D02*
X532821D01*
X505762Y145250D02*
X532821D01*
X505762Y144750D02*
X532821D01*
X505762Y144250D02*
X532821D01*
X505762Y143750D02*
X532821D01*
X505762Y143250D02*
X532821D01*
X505762Y142750D02*
X532821D01*
X505762Y142250D02*
X532821D01*
X505762Y141750D02*
X532821D01*
X505762Y141250D02*
X532821D01*
X505762Y140750D02*
X532821D01*
X505762Y140250D02*
X532821D01*
X505762Y139750D02*
X532821D01*
X505762Y139250D02*
X532821D01*
X505762Y138750D02*
X532821D01*
X505762Y138250D02*
X532821D01*
X505762Y137750D02*
X532821D01*
X505762Y137250D02*
X532821D01*
X505762Y136750D02*
X532821D01*
X505762Y136250D02*
X532821D01*
X505762Y135750D02*
X532821D01*
X505762Y135250D02*
X532821D01*
X505762Y134750D02*
X532821D01*
X505762Y134250D02*
X532821D01*
X505762Y133750D02*
X532821D01*
X505762Y133250D02*
X532821D01*
X505762Y132750D02*
X532821D01*
X505762Y132250D02*
X532821D01*
X505762Y131750D02*
X532821D01*
X505762Y131250D02*
X532821D01*
X505762Y130750D02*
X532821D01*
X505762Y130250D02*
X532821D01*
X505762Y129750D02*
X532821D01*
X505762Y129250D02*
X532821D01*
X505762Y128750D02*
X532821D01*
X505762Y128250D02*
X532821D01*
X505762Y127750D02*
X532821D01*
X505762Y127250D02*
X532821D01*
X505762Y126750D02*
X532821D01*
X505762Y126250D02*
X532821D01*
X505762Y125750D02*
X532821D01*
X505762Y125250D02*
X532821D01*
X505762Y124750D02*
X532821D01*
X505762Y124250D02*
X532821D01*
X505762Y123750D02*
X532821D01*
X505762Y123250D02*
X532821D01*
X505762Y122750D02*
X532821D01*
X505762Y122250D02*
X532821D01*
X505762Y121750D02*
X532821D01*
X505762Y121250D02*
X532821D01*
X505762Y120750D02*
X532821D01*
X505762Y120250D02*
X532821D01*
X505762Y119750D02*
X532821D01*
X505762Y119250D02*
X532821D01*
X505762Y118750D02*
X532821D01*
X505762Y118250D02*
X532821D01*
X505762Y117750D02*
X532821D01*
X505762Y117250D02*
X532821D01*
X505762Y116750D02*
X532821D01*
X505762Y116250D02*
X532821D01*
X505762Y115750D02*
X532821D01*
X505762Y115250D02*
X532821D01*
X505762Y114750D02*
X532821D01*
X505762Y114250D02*
X532821D01*
X505762Y113750D02*
X532821D01*
X505762Y113250D02*
X532821D01*
X505762Y112750D02*
X532821D01*
X505762Y112250D02*
X532821D01*
X505762Y111750D02*
X532821D01*
X505762Y111250D02*
X532821D01*
X505762Y110750D02*
X532821D01*
X505762Y110250D02*
X532821D01*
X505762Y109750D02*
X532821D01*
X505762Y109250D02*
X532821D01*
X505762Y108750D02*
X532821D01*
X505762Y108250D02*
X532821D01*
X505762Y107750D02*
X532821D01*
X505762Y107250D02*
X532821D01*
X505762Y106750D02*
X532821D01*
X505762Y106250D02*
X532821D01*
X505762Y105750D02*
X532821D01*
X505762Y105250D02*
X532821D01*
X505762Y104750D02*
X532821D01*
X505762Y104250D02*
X532821D01*
X505762Y103750D02*
X532821D01*
X505762Y103250D02*
X532821D01*
X505762Y102750D02*
X532821D01*
X505762Y102250D02*
X532821D01*
X505762Y101750D02*
X532821D01*
X505762Y101250D02*
X532821D01*
X505762Y100750D02*
X532821D01*
X505762Y100250D02*
Y446207D01*
X506262Y100250D02*
Y446207D01*
X506762Y100250D02*
Y446207D01*
X507262Y100250D02*
Y446207D01*
X507762Y100250D02*
Y446207D01*
X508262Y100250D02*
Y446207D01*
X508762Y100250D02*
Y446207D01*
X509262Y100250D02*
Y446207D01*
X509762Y100250D02*
Y446207D01*
X510262Y100250D02*
Y446207D01*
X510762Y100250D02*
Y446207D01*
X511262Y100250D02*
Y446207D01*
X511762Y100250D02*
Y446207D01*
X512262Y100250D02*
Y446207D01*
X512762Y100250D02*
Y446207D01*
X513262Y100250D02*
Y446207D01*
X513762Y100250D02*
Y446207D01*
X514262Y100250D02*
Y446207D01*
X514762Y100250D02*
Y446207D01*
X515262Y100250D02*
Y446207D01*
X515762Y100250D02*
Y446207D01*
X516262Y100250D02*
Y446207D01*
X516762Y100250D02*
Y446207D01*
X517262Y100250D02*
Y446207D01*
X517762Y100250D02*
Y446207D01*
X518262Y100250D02*
Y446207D01*
X518762Y100250D02*
Y446207D01*
X519262Y100250D02*
Y446207D01*
X519762Y100250D02*
Y446207D01*
X520262Y100250D02*
Y446207D01*
X520762Y100250D02*
Y446207D01*
X521262Y100250D02*
Y446207D01*
X521762Y100250D02*
Y446207D01*
X522262Y100250D02*
Y446207D01*
X522762Y100250D02*
Y446207D01*
X523262Y100250D02*
Y446207D01*
X523762Y100250D02*
Y446207D01*
X524262Y100250D02*
Y446207D01*
X524762Y100250D02*
Y446207D01*
X525262Y100250D02*
Y446207D01*
X525762Y100250D02*
Y446207D01*
X526262Y100250D02*
Y446207D01*
X526762Y100250D02*
Y446207D01*
X527262Y100250D02*
Y446207D01*
X527762Y100250D02*
Y446207D01*
X528262Y100250D02*
Y446207D01*
X528762Y100250D02*
Y446207D01*
X529262Y100250D02*
Y446207D01*
X529762Y100250D02*
Y446207D01*
X530262Y100250D02*
Y446207D01*
X530762Y100250D02*
Y446207D01*
X531262Y100250D02*
Y446207D01*
X531762Y100250D02*
Y446207D01*
X532262Y100250D02*
Y446207D01*
X532762Y100250D02*
Y446207D01*
X100250Y445750D02*
X127309D01*
X100250Y445250D02*
X127309D01*
X100250Y444750D02*
X127309D01*
X100250Y444250D02*
X127309D01*
X100250Y443750D02*
X127309D01*
X100250Y443250D02*
X127309D01*
X100250Y442750D02*
X127309D01*
X100250Y442250D02*
X127309D01*
X100250Y441750D02*
X127309D01*
X100250Y441250D02*
X127309D01*
X100250Y440750D02*
X127309D01*
X100250Y440250D02*
X127309D01*
X100250Y439750D02*
X127309D01*
X100250Y439250D02*
X127309D01*
X100250Y438750D02*
X127309D01*
X100250Y438250D02*
X127309D01*
X100250Y437750D02*
X127309D01*
X100250Y437250D02*
X127309D01*
X100250Y436750D02*
X127309D01*
X100250Y436250D02*
X127309D01*
X100250Y435750D02*
X127309D01*
X100250Y435250D02*
X127309D01*
X100250Y434750D02*
X127309D01*
X100250Y434250D02*
X127309D01*
X100250Y433750D02*
X127309D01*
X100250Y433250D02*
X127309D01*
X100250Y432750D02*
X127309D01*
X100250Y432250D02*
X127309D01*
X100250Y431750D02*
X127309D01*
X100250Y431250D02*
X127309D01*
X100250Y430750D02*
X127309D01*
X100250Y430250D02*
X127309D01*
X100250Y429750D02*
X127309D01*
X100250Y429250D02*
X127309D01*
X100250Y428750D02*
X127309D01*
X100250Y428250D02*
X127309D01*
X100250Y427750D02*
X127309D01*
X100250Y427250D02*
X127309D01*
X100250Y426750D02*
X127309D01*
X100250Y426250D02*
X127309D01*
X100250Y425750D02*
X127309D01*
X100250Y425250D02*
X127309D01*
X100250Y424750D02*
X127309D01*
X100250Y424250D02*
X127309D01*
X100250Y423750D02*
X127309D01*
X100250Y423250D02*
X127309D01*
X100250Y422750D02*
X127309D01*
X100250Y422250D02*
X127309D01*
X100250Y421750D02*
X127309D01*
X100250Y421250D02*
X127309D01*
X100250Y420750D02*
X127309D01*
X100250Y420250D02*
X127309D01*
X100250Y419750D02*
X127309D01*
X100250Y419250D02*
X127309D01*
X100250Y418750D02*
X127309D01*
X100250Y418250D02*
X127309D01*
X100250Y417750D02*
X127309D01*
X100250Y417250D02*
X127309D01*
X100250Y416750D02*
X127309D01*
X100250Y416250D02*
X127309D01*
X100250Y415750D02*
X127309D01*
X100250Y415250D02*
X127309D01*
X100250Y414750D02*
X127309D01*
X100250Y414250D02*
X127309D01*
X100250Y413750D02*
X127309D01*
X100250Y413250D02*
X127309D01*
X100250Y412750D02*
X127309D01*
X100250Y412250D02*
X127309D01*
X100250Y411750D02*
X127309D01*
X100250Y411250D02*
X127309D01*
X100250Y410750D02*
X127309D01*
X100250Y410250D02*
X127309D01*
X100250Y409750D02*
X127309D01*
X100250Y409250D02*
X127309D01*
X100250Y408750D02*
X127309D01*
X100250Y408250D02*
X127309D01*
X100250Y407750D02*
X127309D01*
X100250Y407250D02*
X127309D01*
X100250Y406750D02*
X127309D01*
X100250Y406250D02*
X127309D01*
X100250Y405750D02*
X127309D01*
X100250Y405250D02*
X127309D01*
X100250Y404750D02*
X127309D01*
X100250Y404250D02*
X127309D01*
X100250Y403750D02*
X127309D01*
X100250Y403250D02*
X127309D01*
X100250Y402750D02*
X127309D01*
X100250Y402250D02*
X127309D01*
X100250Y401750D02*
X127309D01*
X100250Y401250D02*
X127309D01*
X100250Y400750D02*
X127309D01*
X100250Y400250D02*
X127309D01*
X100250Y399750D02*
X127309D01*
X100250Y399250D02*
X127309D01*
X100250Y398750D02*
X127309D01*
X100250Y398250D02*
X127309D01*
X100250Y397750D02*
X127309D01*
X100250Y397250D02*
X127309D01*
X100250Y396750D02*
X127309D01*
X100250Y396250D02*
X127309D01*
X100250Y395750D02*
X127309D01*
X100250Y395250D02*
X127309D01*
X100250Y394750D02*
X127309D01*
X100250Y394250D02*
X127309D01*
X100250Y393750D02*
X127309D01*
X100250Y393250D02*
X127309D01*
X100250Y392750D02*
X127309D01*
X100250Y392250D02*
X127309D01*
X100250Y391750D02*
X127309D01*
X100250Y391250D02*
X127309D01*
X100250Y390750D02*
X127309D01*
X100250Y390250D02*
X127309D01*
X100250Y389750D02*
X127309D01*
X100250Y389250D02*
X127309D01*
X100250Y388750D02*
X127309D01*
X100250Y388250D02*
X127309D01*
X100250Y387750D02*
X127309D01*
X100250Y387250D02*
X127309D01*
X100250Y386750D02*
X127309D01*
X100250Y386250D02*
X127309D01*
X100250Y385750D02*
X127309D01*
X100250Y385250D02*
X127309D01*
X100250Y384750D02*
X127309D01*
X100250Y384250D02*
X127309D01*
X100250Y383750D02*
X127309D01*
X100250Y383250D02*
X127309D01*
X100250Y382750D02*
X127309D01*
X100250Y382250D02*
X127309D01*
X100250Y381750D02*
X127309D01*
X100250Y381250D02*
X127309D01*
X100250Y380750D02*
X127309D01*
X100250Y380250D02*
X127309D01*
X100250Y379750D02*
X127309D01*
X100250Y379250D02*
X127309D01*
X100250Y378750D02*
X127309D01*
X100250Y378250D02*
X127309D01*
X100250Y377750D02*
X127309D01*
X100250Y377250D02*
X127309D01*
X100250Y376750D02*
X127309D01*
X100250Y376250D02*
X127309D01*
X100250Y375750D02*
X127309D01*
X100250Y375250D02*
X127309D01*
X100250Y374750D02*
X127309D01*
X100250Y374250D02*
X127309D01*
X100250Y373750D02*
X127309D01*
X100250Y373250D02*
X127309D01*
X100250Y372750D02*
X127309D01*
X100250Y372250D02*
X127309D01*
X100250Y371750D02*
X127309D01*
X100250Y371250D02*
X127309D01*
X100250Y370750D02*
X127309D01*
X100250Y370250D02*
X127309D01*
X100250Y369750D02*
X127309D01*
X100250Y369250D02*
X127309D01*
X100250Y368750D02*
X127309D01*
X100250Y368250D02*
X127309D01*
X100250Y367750D02*
X127309D01*
X100250Y367250D02*
X127309D01*
X100250Y366750D02*
X127309D01*
X100250Y366250D02*
X127309D01*
X100250Y365750D02*
X127309D01*
X100250Y365250D02*
X127309D01*
X100250Y364750D02*
X127309D01*
X100250Y364250D02*
X127309D01*
X100250Y363750D02*
X127309D01*
X100250Y363250D02*
X127309D01*
X100250Y362750D02*
X127309D01*
X100250Y362250D02*
X127309D01*
X100250Y361750D02*
X127309D01*
X100250Y361250D02*
X127309D01*
X100250Y360750D02*
X127309D01*
X100250Y360250D02*
X127309D01*
X100250Y359750D02*
X127309D01*
X100250Y359250D02*
X127309D01*
X100250Y358750D02*
X127309D01*
X100250Y358250D02*
X127309D01*
X100250Y357750D02*
X127309D01*
X100250Y357250D02*
X127309D01*
X100250Y356750D02*
X127309D01*
X100250Y356250D02*
X127309D01*
X100250Y355750D02*
X127309D01*
X100250Y355250D02*
X127309D01*
X100250Y354750D02*
X127309D01*
X100250Y354250D02*
X127309D01*
X100250Y353750D02*
X127309D01*
X100250Y353250D02*
X127309D01*
X100250Y352750D02*
X127309D01*
X100250Y352250D02*
X127309D01*
X100250Y351750D02*
X127309D01*
X100250Y351250D02*
X127309D01*
X100250Y350750D02*
X127309D01*
X100250Y350250D02*
X127309D01*
X100250Y349750D02*
X127309D01*
X100250Y349250D02*
X127309D01*
X100250Y348750D02*
X127309D01*
X100250Y348250D02*
X127309D01*
X100250Y347750D02*
X127309D01*
X100250Y347250D02*
X127309D01*
X100250Y346750D02*
X127309D01*
X100250Y346250D02*
X127309D01*
X100250Y345750D02*
X127309D01*
X100250Y345250D02*
X127309D01*
X100250Y344750D02*
X127309D01*
X100250Y344250D02*
X127309D01*
X100250Y343750D02*
X127309D01*
X100250Y343250D02*
X127309D01*
X100250Y342750D02*
X127309D01*
X100250Y342250D02*
X127309D01*
X100250Y341750D02*
X127309D01*
X100250Y341250D02*
X127309D01*
X100250Y340750D02*
X127309D01*
X100250Y340250D02*
X127309D01*
X100250Y339750D02*
X127309D01*
X100250Y339250D02*
X127309D01*
X100250Y338750D02*
X127309D01*
X100250Y338250D02*
X127309D01*
X100250Y337750D02*
X127309D01*
X100250Y337250D02*
X127309D01*
X100250Y336750D02*
X127309D01*
X100250Y336250D02*
X127309D01*
X100250Y335750D02*
X127309D01*
X100250Y335250D02*
X127309D01*
X100250Y334750D02*
X127309D01*
X100250Y334250D02*
X127309D01*
X100250Y333750D02*
X127309D01*
X100250Y333250D02*
X127309D01*
X100250Y332750D02*
X127309D01*
X100250Y332250D02*
X127309D01*
X100250Y331750D02*
X127309D01*
X100250Y331250D02*
X127309D01*
X100250Y330750D02*
X127309D01*
X100250Y330250D02*
X127309D01*
X100250Y329750D02*
X127309D01*
X100250Y329250D02*
X127309D01*
X100250Y328750D02*
X127309D01*
X100250Y328250D02*
X127309D01*
X100250Y327750D02*
X127309D01*
X100250Y327250D02*
X127309D01*
X100250Y326750D02*
X127309D01*
X100250Y326250D02*
X127309D01*
X100250Y325750D02*
X127309D01*
X100250Y325250D02*
X127309D01*
X100250Y324750D02*
X127309D01*
X100250Y324250D02*
X127309D01*
X100250Y323750D02*
X127309D01*
X100250Y323250D02*
X127309D01*
X100250Y322750D02*
X127309D01*
X100250Y322250D02*
X127309D01*
X100250Y321750D02*
X127309D01*
X100250Y321250D02*
X127309D01*
X100250Y320750D02*
X127309D01*
X100250Y320250D02*
X127309D01*
X100250Y319750D02*
X127309D01*
X100250Y319250D02*
X127309D01*
X100250Y318750D02*
X127309D01*
X100250Y318250D02*
X127309D01*
X100250Y317750D02*
X127309D01*
X100250Y317250D02*
X127309D01*
X100250Y316750D02*
X127309D01*
X100250Y316250D02*
X127309D01*
X100250Y315750D02*
X127309D01*
X100250Y315250D02*
X127309D01*
X100250Y314750D02*
X127309D01*
X100250Y314250D02*
X127309D01*
X100250Y313750D02*
X127309D01*
X100250Y313250D02*
X127309D01*
X100250Y312750D02*
X127309D01*
X100250Y312250D02*
X127309D01*
X100250Y311750D02*
X127309D01*
X100250Y311250D02*
X127309D01*
X100250Y310750D02*
X127309D01*
X100250Y310250D02*
X127309D01*
X100250Y309750D02*
X127309D01*
X100250Y309250D02*
X127309D01*
X100250Y308750D02*
X127309D01*
X100250Y308250D02*
X127309D01*
X100250Y307750D02*
X127309D01*
X100250Y307250D02*
X127309D01*
X100250Y306750D02*
X127309D01*
X100250Y306250D02*
X127309D01*
X100250Y305750D02*
X127309D01*
X100250Y305250D02*
X127309D01*
X100250Y304750D02*
X127309D01*
X100250Y304250D02*
X127309D01*
X100250Y303750D02*
X127309D01*
X100250Y303250D02*
X127309D01*
X100250Y302750D02*
X127309D01*
X100250Y302250D02*
X127309D01*
X100250Y301750D02*
X127309D01*
X100250Y301250D02*
X127309D01*
X100250Y300750D02*
X127309D01*
X100250Y300250D02*
X127309D01*
X100250Y299750D02*
X127309D01*
X100250Y299250D02*
X127309D01*
X100250Y298750D02*
X127309D01*
X100250Y298250D02*
X127309D01*
X100250Y297750D02*
X127309D01*
X100250Y297250D02*
X127309D01*
X100250Y296750D02*
X127309D01*
X100250Y296250D02*
X127309D01*
X100250Y295750D02*
X127309D01*
X100250Y295250D02*
X127309D01*
X100250Y294750D02*
X127309D01*
X100250Y294250D02*
X127309D01*
X100250Y293750D02*
X127309D01*
X100250Y293250D02*
X127309D01*
X100250Y292750D02*
X127309D01*
X100250Y292250D02*
X127309D01*
X100250Y291750D02*
X127309D01*
X100250Y291250D02*
X127309D01*
X100250Y290750D02*
X127309D01*
X100250Y290250D02*
X127309D01*
X100250Y289750D02*
X127309D01*
X100250Y289250D02*
X127309D01*
X100250Y288750D02*
X127309D01*
X100250Y288250D02*
X127309D01*
X100250Y287750D02*
X127309D01*
X100250Y287250D02*
X127309D01*
X100250Y286750D02*
X127309D01*
X100250Y286250D02*
X127309D01*
X100250Y285750D02*
X127309D01*
X100250Y285250D02*
X127309D01*
X100250Y284750D02*
X127309D01*
X100250Y284250D02*
X127309D01*
X100250Y283750D02*
X127309D01*
X100250Y283250D02*
X127309D01*
X100250Y282750D02*
X127309D01*
X100250Y282250D02*
X127309D01*
X100250Y281750D02*
X127309D01*
X100250Y281250D02*
X127309D01*
X100250Y280750D02*
X127309D01*
X100250Y280250D02*
X127309D01*
X100250Y279750D02*
X127309D01*
X100250Y279250D02*
X127309D01*
X100250Y278750D02*
X127309D01*
X100250Y278250D02*
X127309D01*
X100250Y277750D02*
X127309D01*
X100250Y277250D02*
X127309D01*
X100250Y276750D02*
X127309D01*
X100250Y276250D02*
X127309D01*
X100250Y275750D02*
X127309D01*
X100250Y275250D02*
X127309D01*
X100250Y274750D02*
X127309D01*
X100250Y274250D02*
X127309D01*
X100250Y273750D02*
X127309D01*
X100250Y273250D02*
X127309D01*
X100250Y272750D02*
X127309D01*
X100250Y272250D02*
X127309D01*
X100250Y271750D02*
X127309D01*
X100250Y271250D02*
X127309D01*
X100250Y270750D02*
X127309D01*
X100250Y270250D02*
X127309D01*
X100250Y269750D02*
X127309D01*
X100250Y269250D02*
X127309D01*
X100250Y268750D02*
X127309D01*
X100250Y268250D02*
X127309D01*
X100250Y267750D02*
X127309D01*
X100250Y267250D02*
X127309D01*
X100250Y266750D02*
X127309D01*
X100250Y266250D02*
X127309D01*
X100250Y265750D02*
X127309D01*
X100250Y265250D02*
X127309D01*
X100250Y264750D02*
X127309D01*
X100250Y264250D02*
X127309D01*
X100250Y263750D02*
X127309D01*
X100250Y263250D02*
X127309D01*
X100250Y262750D02*
X127309D01*
X100250Y262250D02*
X127309D01*
X100250Y261750D02*
X127309D01*
X100250Y261250D02*
X127309D01*
X100250Y260750D02*
X127309D01*
X100250Y260250D02*
X127309D01*
X100250Y259750D02*
X127309D01*
X100250Y259250D02*
X127309D01*
X100250Y258750D02*
X127309D01*
X100250Y258250D02*
X127309D01*
X100250Y257750D02*
X127309D01*
X100250Y257250D02*
X127309D01*
X100250Y256750D02*
X127309D01*
X100250Y256250D02*
X127309D01*
X100250Y255750D02*
X127309D01*
X100250Y255250D02*
X127309D01*
X100250Y254750D02*
X127309D01*
X100250Y254250D02*
X127309D01*
X100250Y253750D02*
X127309D01*
X100250Y253250D02*
X127309D01*
X100250Y252750D02*
X127309D01*
X100250Y252250D02*
X127309D01*
X100250Y251750D02*
X127309D01*
X100250Y251250D02*
X127309D01*
X100250Y250750D02*
X127309D01*
X100250Y250250D02*
X127309D01*
X100250Y249750D02*
X127309D01*
X100250Y249250D02*
X127309D01*
X100250Y248750D02*
X127309D01*
X100250Y248250D02*
X127309D01*
X100250Y247750D02*
X127309D01*
X100250Y247250D02*
X127309D01*
X100250Y246750D02*
X127309D01*
X100250Y246250D02*
X127309D01*
X100250Y245750D02*
X127309D01*
X100250Y245250D02*
X127309D01*
X100250Y244750D02*
X127309D01*
X100250Y244250D02*
X127309D01*
X100250Y243750D02*
X127309D01*
X100250Y243250D02*
X127309D01*
X100250Y242750D02*
X127309D01*
X100250Y242250D02*
X127309D01*
X100250Y241750D02*
X127309D01*
X100250Y241250D02*
X127309D01*
X100250Y240750D02*
X127309D01*
X100250Y240250D02*
X127309D01*
X100250Y239750D02*
X127309D01*
X100250Y239250D02*
X127309D01*
X100250Y238750D02*
X127309D01*
X100250Y238250D02*
X127309D01*
X100250Y237750D02*
X127309D01*
X100250Y237250D02*
X127309D01*
X100250Y236750D02*
X127309D01*
X100250Y236250D02*
X127309D01*
X100250Y235750D02*
X127309D01*
X100250Y235250D02*
X127309D01*
X100250Y234750D02*
X127309D01*
X100250Y234250D02*
X127309D01*
X100250Y233750D02*
X127309D01*
X100250Y233250D02*
X127309D01*
X100250Y232750D02*
X127309D01*
X100250Y232250D02*
X127309D01*
X100250Y231750D02*
X127309D01*
X100250Y231250D02*
X127309D01*
X100250Y230750D02*
X127309D01*
X100250Y230250D02*
X127309D01*
X100250Y229750D02*
X127309D01*
X100250Y229250D02*
X127309D01*
X100250Y228750D02*
X127309D01*
X100250Y228250D02*
X127309D01*
X100250Y227750D02*
X127309D01*
X100250Y227250D02*
X127309D01*
X100250Y226750D02*
X127309D01*
X100250Y226250D02*
X127309D01*
X100250Y225750D02*
X127309D01*
X100250Y225250D02*
X127309D01*
X100250Y224750D02*
X127309D01*
X100250Y224250D02*
X127309D01*
X100250Y223750D02*
X127309D01*
X100250Y223250D02*
X127309D01*
X100250Y222750D02*
X127309D01*
X100250Y222250D02*
X127309D01*
X100250Y221750D02*
X127309D01*
X100250Y221250D02*
X127309D01*
X100250Y220750D02*
X127309D01*
X100250Y220250D02*
X127309D01*
X100250Y219750D02*
X127309D01*
X100250Y219250D02*
X127309D01*
X100250Y218750D02*
X127309D01*
X100250Y218250D02*
X127309D01*
X100250Y217750D02*
X127309D01*
X100250Y217250D02*
X127309D01*
X100250Y216750D02*
X127309D01*
X100250Y216250D02*
X127309D01*
X100250Y215750D02*
X127309D01*
X100250Y215250D02*
X127309D01*
X100250Y214750D02*
X127309D01*
X100250Y214250D02*
X127309D01*
X100250Y213750D02*
X127309D01*
X100250Y213250D02*
X127309D01*
X100250Y212750D02*
X127309D01*
X100250Y212250D02*
X127309D01*
X100250Y211750D02*
X127309D01*
X100250Y211250D02*
X127309D01*
X100250Y210750D02*
X127309D01*
X100250Y210250D02*
X127309D01*
X100250Y209750D02*
X127309D01*
X100250Y209250D02*
X127309D01*
X100250Y208750D02*
X127309D01*
X100250Y208250D02*
X127309D01*
X100250Y207750D02*
X127309D01*
X100250Y207250D02*
X127309D01*
X100250Y206750D02*
X127309D01*
X100250Y206250D02*
X127309D01*
X100250Y205750D02*
X127309D01*
X100250Y205250D02*
X127309D01*
X100250Y204750D02*
X127309D01*
X100250Y204250D02*
X127309D01*
X100250Y203750D02*
X127309D01*
X100250Y203250D02*
X127309D01*
X100250Y202750D02*
X127309D01*
X100250Y202250D02*
X127309D01*
X100250Y201750D02*
X127309D01*
X100250Y201250D02*
X127309D01*
X100250Y200750D02*
X127309D01*
X100250Y200250D02*
X127309D01*
X100250Y199750D02*
X127309D01*
X100250Y199250D02*
X127309D01*
X100250Y198750D02*
X127309D01*
X100250Y198250D02*
X127309D01*
X100250Y197750D02*
X127309D01*
X100250Y197250D02*
X127309D01*
X100250Y196750D02*
X127309D01*
X100250Y196250D02*
X127309D01*
X100250Y195750D02*
X127309D01*
X100250Y195250D02*
X127309D01*
X100250Y194750D02*
X127309D01*
X100250Y194250D02*
X127309D01*
X100250Y193750D02*
X127309D01*
X100250Y193250D02*
X127309D01*
X100250Y192750D02*
X127309D01*
X100250Y192250D02*
X127309D01*
X100250Y191750D02*
X127309D01*
X100250Y191250D02*
X127309D01*
X100250Y190750D02*
X127309D01*
X100250Y190250D02*
X127309D01*
X100250Y189750D02*
X127309D01*
X100250Y189250D02*
X127309D01*
X100250Y188750D02*
X127309D01*
X100250Y188250D02*
X127309D01*
X100250Y187750D02*
X127309D01*
X100250Y187250D02*
X127309D01*
X100250Y186750D02*
X127309D01*
X100250Y186250D02*
X127309D01*
X100250Y185750D02*
X127309D01*
X100250Y185250D02*
X127309D01*
X100250Y184750D02*
X127309D01*
X100250Y184250D02*
X127309D01*
X100250Y183750D02*
X127309D01*
X100250Y183250D02*
X127309D01*
X100250Y182750D02*
X127309D01*
X100250Y182250D02*
X127309D01*
X100250Y181750D02*
X127309D01*
X100250Y181250D02*
X127309D01*
X100250Y180750D02*
X127309D01*
X100250Y180250D02*
X127309D01*
X100250Y179750D02*
X127309D01*
X100250Y179250D02*
X127309D01*
X100250Y178750D02*
X127309D01*
X100250Y178250D02*
X127309D01*
X100250Y177750D02*
X127309D01*
X100250Y177250D02*
X127309D01*
X100250Y176750D02*
X127309D01*
X100250Y176250D02*
X127309D01*
X100250Y175750D02*
X127309D01*
X100250Y175250D02*
X127309D01*
X100250Y174750D02*
X127309D01*
X100250Y174250D02*
X127309D01*
X100250Y173750D02*
X127309D01*
X100250Y173250D02*
X127309D01*
X100250Y172750D02*
X127309D01*
X100250Y172250D02*
X127309D01*
X100250Y171750D02*
X127309D01*
X100250Y171250D02*
X127309D01*
X100250Y170750D02*
X127309D01*
X100250Y170250D02*
X127309D01*
X100250Y169750D02*
X127309D01*
X100250Y169250D02*
X127309D01*
X100250Y168750D02*
X127309D01*
X100250Y168250D02*
X127309D01*
X100250Y167750D02*
X127309D01*
X100250Y167250D02*
X127309D01*
X100250Y166750D02*
X127309D01*
X100250Y166250D02*
X127309D01*
X100250Y165750D02*
X127309D01*
X100250Y165250D02*
X127309D01*
X100250Y164750D02*
X127309D01*
X100250Y164250D02*
X127309D01*
X100250Y163750D02*
X127309D01*
X100250Y163250D02*
X127309D01*
X100250Y162750D02*
X127309D01*
X100250Y162250D02*
X127309D01*
X100250Y161750D02*
X127309D01*
X100250Y161250D02*
X127309D01*
X100250Y160750D02*
X127309D01*
X100250Y160250D02*
X127309D01*
X100250Y159750D02*
X127309D01*
X100250Y159250D02*
X127309D01*
X100250Y158750D02*
X127309D01*
X100250Y158250D02*
X127309D01*
X100250Y157750D02*
X127309D01*
X100250Y157250D02*
X127309D01*
X100250Y156750D02*
X127309D01*
X100250Y156250D02*
X127309D01*
X100250Y155750D02*
X127309D01*
X100250Y155250D02*
X127309D01*
X100250Y154750D02*
X127309D01*
X100250Y154250D02*
X127309D01*
X100250Y153750D02*
X127309D01*
X100250Y153250D02*
X127309D01*
X100250Y152750D02*
X127309D01*
X100250Y152250D02*
X127309D01*
X100250Y151750D02*
X127309D01*
X100250Y151250D02*
X127309D01*
X100250Y150750D02*
X127309D01*
X100250Y150250D02*
X127309D01*
X100250Y149750D02*
X127309D01*
X100250Y149250D02*
X127309D01*
X100250Y148750D02*
X127309D01*
X100250Y148250D02*
X127309D01*
X100250Y147750D02*
X127309D01*
X100250Y147250D02*
X127309D01*
X100250Y146750D02*
X127309D01*
X100250Y146250D02*
X127309D01*
X100250Y145750D02*
X127309D01*
X100250Y145250D02*
X127309D01*
X100250Y144750D02*
X127309D01*
X100250Y144250D02*
X127309D01*
X100250Y143750D02*
X127309D01*
X100250Y143250D02*
X127309D01*
X100250Y142750D02*
X127309D01*
X100250Y142250D02*
X127309D01*
X100250Y141750D02*
X127309D01*
X100250Y141250D02*
X127309D01*
X100250Y140750D02*
X127309D01*
X100250Y140250D02*
X127309D01*
X100250Y139750D02*
X127309D01*
X100250Y139250D02*
X127309D01*
X100250Y138750D02*
X127309D01*
X100250Y138250D02*
X127309D01*
X100250Y137750D02*
X127309D01*
X100250Y137250D02*
X127309D01*
X100250Y136750D02*
X127309D01*
X100250Y136250D02*
X127309D01*
X100250Y135750D02*
X127309D01*
X100250Y135250D02*
X127309D01*
X100250Y134750D02*
X127309D01*
X100250Y134250D02*
X127309D01*
X100250Y133750D02*
X127309D01*
X100250Y133250D02*
X127309D01*
X100250Y132750D02*
X127309D01*
X100250Y132250D02*
X127309D01*
X100250Y131750D02*
X127309D01*
X100250Y131250D02*
X127309D01*
X100250Y130750D02*
X127309D01*
X100250Y130250D02*
X127309D01*
X100250Y129750D02*
X127309D01*
X100250Y129250D02*
X127309D01*
X100250Y128750D02*
X127309D01*
X100250Y128250D02*
X127309D01*
X100250Y127750D02*
X127309D01*
X100250Y127250D02*
X127309D01*
X100250Y126750D02*
X127309D01*
X100250Y126250D02*
X127309D01*
X100250Y125750D02*
X127309D01*
X100250Y125250D02*
X127309D01*
X100250Y124750D02*
X127309D01*
X100250Y124250D02*
X127309D01*
X100250Y123750D02*
X127309D01*
X100250Y123250D02*
X127309D01*
X100250Y122750D02*
X127309D01*
X100250Y122250D02*
X127309D01*
X100250Y121750D02*
X127309D01*
X100250Y121250D02*
X127309D01*
X100250Y120750D02*
X127309D01*
X100250Y120250D02*
X127309D01*
X100250Y119750D02*
X127309D01*
X100250Y119250D02*
X127309D01*
X100250Y118750D02*
X127309D01*
X100250Y118250D02*
X127309D01*
X100250Y117750D02*
X127309D01*
X100250Y117250D02*
X127309D01*
X100250Y116750D02*
X127309D01*
X100250Y116250D02*
X127309D01*
X100250Y115750D02*
X127309D01*
X100250Y115250D02*
X127309D01*
X100250Y114750D02*
X127309D01*
X100250Y114250D02*
X127309D01*
X100250Y113750D02*
X127309D01*
X100250Y113250D02*
X127309D01*
X100250Y112750D02*
X127309D01*
X100250Y112250D02*
X127309D01*
X100250Y111750D02*
X127309D01*
X100250Y111250D02*
X127309D01*
X100250Y110750D02*
X127309D01*
X100250Y110250D02*
X127309D01*
X100250Y109750D02*
X127309D01*
X100250Y109250D02*
X127309D01*
X100250Y108750D02*
X127309D01*
X100250Y108250D02*
X127309D01*
X100250Y107750D02*
X127309D01*
X100250Y107250D02*
X127309D01*
X100250Y106750D02*
X127309D01*
X100250Y106250D02*
X127309D01*
X100250Y105750D02*
X127309D01*
X100250Y105250D02*
X127309D01*
X100250Y104750D02*
X127309D01*
X100250Y104250D02*
X127309D01*
X100250Y103750D02*
X127309D01*
X100250Y103250D02*
X127309D01*
X100250Y102750D02*
X127309D01*
X100250Y102250D02*
X127309D01*
X100250Y101750D02*
X127309D01*
X100250Y101250D02*
X127309D01*
X100250Y100750D02*
X127309D01*
X100250Y100250D02*
Y446207D01*
X100750Y100250D02*
Y446207D01*
X101250Y100250D02*
Y446207D01*
X101750Y100250D02*
Y446207D01*
X102250Y100250D02*
Y446207D01*
X102750Y100250D02*
Y446207D01*
X103250Y100250D02*
Y446207D01*
X103750Y100250D02*
Y446207D01*
X104250Y100250D02*
Y446207D01*
X104750Y100250D02*
Y446207D01*
X105250Y100250D02*
Y446207D01*
X105750Y100250D02*
Y446207D01*
X106250Y100250D02*
Y446207D01*
X106750Y100250D02*
Y446207D01*
X107250Y100250D02*
Y446207D01*
X107750Y100250D02*
Y446207D01*
X108250Y100250D02*
Y446207D01*
X108750Y100250D02*
Y446207D01*
X109250Y100250D02*
Y446207D01*
X109750Y100250D02*
Y446207D01*
X110250Y100250D02*
Y446207D01*
X110750Y100250D02*
Y446207D01*
X111250Y100250D02*
Y446207D01*
X111750Y100250D02*
Y446207D01*
X112250Y100250D02*
Y446207D01*
X112750Y100250D02*
Y446207D01*
X113250Y100250D02*
Y446207D01*
X113750Y100250D02*
Y446207D01*
X114250Y100250D02*
Y446207D01*
X114750Y100250D02*
Y446207D01*
X115250Y100250D02*
Y446207D01*
X115750Y100250D02*
Y446207D01*
X116250Y100250D02*
Y446207D01*
X116750Y100250D02*
Y446207D01*
X117250Y100250D02*
Y446207D01*
X117750Y100250D02*
Y446207D01*
X118250Y100250D02*
Y446207D01*
X118750Y100250D02*
Y446207D01*
X119250Y100250D02*
Y446207D01*
X119750Y100250D02*
Y446207D01*
X120250Y100250D02*
Y446207D01*
X120750Y100250D02*
Y446207D01*
X121250Y100250D02*
Y446207D01*
X121750Y100250D02*
Y446207D01*
X122250Y100250D02*
Y446207D01*
X122750Y100250D02*
Y446207D01*
X123250Y100250D02*
Y446207D01*
X123750Y100250D02*
Y446207D01*
X124250Y100250D02*
Y446207D01*
X124750Y100250D02*
Y446207D01*
X125250Y100250D02*
Y446207D01*
X125750Y100250D02*
Y446207D01*
X126250Y100250D02*
Y446207D01*
X126750Y100250D02*
Y446207D01*
X127250Y100250D02*
Y446207D01*
G54D13*
X100000Y100000D02*
X117717D01*
X125591Y92126D02*
G75*
G03X117717Y100000I-7874J-0D01*
G01X125591Y92126D02*
Y48819D01*
G03X133465Y40945I7874J-0*
G01X186614*
G03X194488Y48819I0J7874*
G01Y92126*
X202362Y100000D02*
G03X194488Y92126I0J-7874D01*
G01X202362Y100000D02*
X430709D01*
X438583Y92126D02*
G03X430709Y100000I-7874J-0D01*
G01X438583Y92126D02*
Y48819D01*
G03X446457Y40945I7874J-0*
G01X499606*
G03X507480Y48819I0J7874*
G01Y92126*
X515354Y100000D02*
G03X507480Y92126I0J-7874D01*
G01X515354Y100000D02*
X533071D01*
Y205315*
X519291*
Y232874D02*
G03Y205315I0J-13780D01*
G01Y232874D02*
X533071D01*
Y323425*
X519291*
Y350984D02*
G03Y323425I0J-13779D01*
G01Y350984D02*
X533071D01*
Y446457*
G03X525197Y454331I-7874J-0*
G01X107874*
G03X100000Y446457I0J-7874*
G01Y350000*
X113780*
Y322441D02*
G03Y350000I-0J13779D01*
G01Y322441D02*
X100000D01*
Y231890*
X113780*
Y204331D02*
G03Y231890I-0J13779D01*
G01Y204331D02*
X100000D01*
Y100000*
X149213Y235827D02*
X170866D01*
Y201181*
X149213*
Y235827*
X461220D02*
X484843D01*
Y201181*
X461220*
Y235827*
X132480Y291929D02*
X187598D01*
Y266339*
X132480*
Y291929*
X445472Y266929D02*
X500591D01*
Y291929*
X445472*
Y266929*
G54D16*
X284155Y133265D03*
X348131Y118501D03*
X284155D03*
X203246Y243501D03*
X227853Y224800D03*
X202462Y107674D03*
X221163D03*
X348131Y133265D03*
X414076Y107674D03*
X383565D03*
X249506Y244485D03*
G54D218*
X135039Y138583D03*
X363386D03*
X309449Y300394D03*
G54D219*
X269685Y138583D03*
X498031D03*
X309449Y435039D03*
G54D220*
X398819Y157087D03*
X393701D03*
X414567Y153150D03*
X409449D03*
X407677Y157087D03*
X402559D03*
X387992D03*
X382874D03*
X384055Y153150D03*
X378937D03*
X423425Y157087D03*
X418307D03*
X216732Y162992D03*
X211614D03*
X228543D03*
X223425D03*
X220669Y157087D03*
X215551D03*
X230512D03*
X225394D03*
X210827Y178740D03*
X205709D03*
X238386Y174803D03*
X233268D03*
X222638D03*
X217520D03*
X222638Y178740D03*
X217520D03*
X250197Y176772D03*
X245079D03*
X309252Y285039D03*
X304134D03*
X279724Y267323D03*
X274606D03*
X293504Y273228D03*
X288386D03*
X289567Y269291D03*
X284449D03*
X409646Y237795D03*
X404528D03*
X437205Y176772D03*
X432087D03*
X421457Y180709D03*
X416339D03*
X417520Y168898D03*
X412402D03*
X393898Y245669D03*
X388780D03*
X437205Y259449D03*
X432087D03*
X425394D03*
X420276D03*
X413583D03*
X408465D03*
X401772D03*
X396654D03*
X387992D03*
X382874D03*
X376181D03*
X371063D03*
X364370D03*
X359252D03*
X352559D03*
X347441D03*
X435236Y224016D03*
X430118D03*
X435236Y218110D03*
X430118D03*
X421457Y224016D03*
X416339D03*
X421457Y218110D03*
X416339D03*
X409646Y224016D03*
X404528D03*
X409646Y218110D03*
X404528D03*
X397835Y224016D03*
X392717D03*
X411614Y231890D03*
X406496D03*
X386024D03*
X380906D03*
X386024Y237795D03*
X380906D03*
X397835Y231890D03*
X392717D03*
X397835Y237795D03*
X392717D03*
X433268Y180709D03*
X428150D03*
X427362Y172835D03*
X422244D03*
X433268Y166929D03*
X428150D03*
X279724Y273228D03*
X274606D03*
X291535Y281102D03*
X286417D03*
X233268Y240748D03*
X238386D03*
X409646Y172835D03*
X404528D03*
X409646Y178740D03*
X404528D03*
X407677Y184646D03*
X402559D03*
X229528Y236811D03*
X224409D03*
G54D223*
X232874Y250197D03*
Y245079D03*
X236811Y250197D03*
Y245079D03*
X219094Y237205D03*
Y242323D03*
X367717Y243110D03*
Y248228D03*
G54D226*
X416929Y326378D03*
G54D235*
X462205Y102953D03*
X452205Y112953D03*
Y92953D03*
X472205D03*
Y112953D03*
X178465Y68504D03*
X140669D03*
X491457D03*
X453661D03*
X409055Y326378D03*
X416929Y318504D03*
X409055D03*
X416929Y310630D03*
X409055D03*
X416929Y302756D03*
X409055D03*
X416929Y294882D03*
X409055D03*
X416929Y287008D03*
X409055D03*
X416929Y279134D03*
X409055D03*
X155118Y102953D03*
X145118Y112953D03*
Y92953D03*
X165118D03*
Y112953D03*
G54D259*
X113780Y159055D03*
X519291Y277165D03*
Y159055D03*
Y395276D03*
X113780D03*
Y277165D03*
G54D270*
X392323Y324409D03*
X382480Y327362D03*
X392323Y330315D03*
X382480Y333268D03*
X392323Y336220D03*
G54D271*
X387402Y316535D03*
Y344094D03*
G54D272*
X224016Y265354D03*
X245669D03*
G54D273*
X159567Y45472D03*
X178465D03*
X140669D03*
X131496Y62205D03*
Y81890D03*
Y100394D03*
X188583Y62205D03*
Y81890D03*
Y100394D03*
X472559Y45472D03*
X491457D03*
X453661D03*
X444488Y62205D03*
Y81890D03*
Y100394D03*
X501575Y62205D03*
Y81890D03*
Y100394D03*
G54D274*
X131496Y72047D03*
Y111417D03*
X153858D03*
X175118Y111418D03*
X188583Y52362D03*
Y91732D03*
X131496Y150787D03*
Y190157D03*
X188583Y131102D03*
Y170472D03*
X165276Y190157D03*
X444488Y72047D03*
Y111417D03*
X466850D03*
X488110Y111418D03*
X501575Y52362D03*
Y91732D03*
X444488Y150787D03*
Y190157D03*
X501575Y131102D03*
Y170472D03*
X478268Y190157D03*
G54D275*
X211504Y418898D03*
X425504Y430898D03*
G54D279*
X225984Y244685D03*
G54D280*
X354134Y311220D03*
Y330118D03*
X280512Y311220D03*
Y330118D03*
G54D281*
X198425Y379528D03*
X208425D03*
X218425D03*
X228425D03*
X238425D03*
X248425D03*
X258425D03*
X268425D03*
X278425D03*
X288425D03*
X198425Y369528D03*
X208425D03*
X218425D03*
X228425D03*
X238425D03*
X248425D03*
X258425D03*
X268425D03*
X278425D03*
X288425D03*
X198425Y359528D03*
X208425D03*
X218425D03*
X228425D03*
X238425D03*
X248425D03*
X258425D03*
X268425D03*
X278425D03*
X288425D03*
X198425Y349528D03*
X208425D03*
X218425D03*
X228425D03*
X238425D03*
X248425D03*
X258425D03*
X268425D03*
X278425D03*
X288425D03*
G54D287*
X224016Y248327D03*
X225984D03*
X227953D03*
Y241043D03*
X225984D03*
X224016D03*
G54D290*
X146181Y84646D03*
X149331D03*
X152480D03*
X155630D03*
X158780D03*
X161929D03*
X165079D03*
X168228D03*
X171378D03*
X174528D03*
X172953Y52362D03*
X169803D03*
X166654D03*
X163504D03*
X160354D03*
X157205D03*
X154055D03*
X150906D03*
X147756D03*
X144606D03*
X459173Y84646D03*
X462323D03*
X465472D03*
X468622D03*
X471772D03*
X474921D03*
X478071D03*
X481220D03*
X484370D03*
X487520D03*
X485945Y52362D03*
X482795D03*
X479646D03*
X476496D03*
X473346D03*
X470197D03*
X467047D03*
X463898D03*
X460748D03*
X457598D03*
G54D291*
X138583Y230315D02*
X143307D01*
Y212205*
X138583*
Y230315*
Y213587D02*
X143307D01*
X138583Y215362D02*
X143307D01*
X138583Y217137D02*
X143307D01*
X138583Y218912D02*
X143307D01*
X138583Y220687D02*
X143307D01*
X138583Y222461D02*
X143307D01*
X138583Y224236D02*
X143307D01*
X138583Y226011D02*
X143307D01*
X138583Y227786D02*
X143307D01*
X138583Y229561D02*
X143307D01*
X139046Y212205D02*
Y230315D01*
X140820Y212205D02*
Y230315D01*
X142595Y212205D02*
Y230315D01*
X176772D02*
X181496D01*
Y212205*
X176772*
Y230315*
Y213587D02*
X181496D01*
X176772Y215362D02*
X181496D01*
X176772Y217137D02*
X181496D01*
X176772Y218912D02*
X181496D01*
X176772Y220687D02*
X181496D01*
X176772Y222461D02*
X181496D01*
X176772Y224236D02*
X181496D01*
X176772Y226011D02*
X181496D01*
X176772Y227786D02*
X181496D01*
X176772Y229561D02*
X181496D01*
X178091Y212205D02*
Y230315D01*
X179866Y212205D02*
Y230315D01*
X451575D02*
X456299D01*
Y212205*
X451575*
Y230315*
Y213587D02*
X456299D01*
X451575Y215362D02*
X456299D01*
X451575Y217137D02*
X456299D01*
X451575Y218912D02*
X456299D01*
X451575Y220687D02*
X456299D01*
X451575Y222461D02*
X456299D01*
X451575Y224236D02*
X456299D01*
X451575Y226011D02*
X456299D01*
X451575Y227786D02*
X456299D01*
X451575Y229561D02*
X456299D01*
X453186Y212205D02*
Y230315D01*
X454961Y212205D02*
Y230315D01*
X489764D02*
X494488D01*
Y212205*
X489764*
Y230315*
Y213587D02*
X494488D01*
X489764Y215362D02*
X494488D01*
X489764Y217137D02*
X494488D01*
X489764Y218912D02*
X494488D01*
X489764Y220687D02*
X494488D01*
X489764Y222461D02*
X494488D01*
X489764Y224236D02*
X494488D01*
X489764Y226011D02*
X494488D01*
X489764Y227786D02*
X494488D01*
X489764Y229561D02*
X494488D01*
X490457Y212205D02*
Y230315D01*
X492231Y212205D02*
Y230315D01*
X494006Y212205D02*
Y230315D01*
G54D292*
X344882Y295472D03*
Y305315D03*
X337008Y295472D03*
Y305315D03*
X329134Y295472D03*
Y305315D03*
X321260Y295472D03*
Y305315D03*
X313386Y295472D03*
Y305315D03*
X305512Y295472D03*
Y305315D03*
X297638Y295472D03*
Y305315D03*
X289764Y295472D03*
Y305315D03*
G54D293*
X416004Y431398D03*
X411004D03*
X406004D03*
X401004D03*
X396004D03*
X391004D03*
X386004D03*
X381004D03*
X376004D03*
X371004D03*
X366004D03*
X361004D03*
X356004D03*
X351004D03*
X346004D03*
X341004D03*
X336004D03*
X331004D03*
X326004D03*
X321004D03*
X316004D03*
X311004D03*
X306004D03*
X301004D03*
X296004D03*
X291004D03*
X286004D03*
X281004D03*
X276004D03*
X271004D03*
X266004D03*
X261004D03*
X256004D03*
X251004D03*
X246004D03*
X241004D03*
X236004D03*
X231004D03*
X226004D03*
X221004D03*
X416004Y426398D03*
X411004D03*
X406004D03*
X401004D03*
X396004D03*
X391004D03*
X386004D03*
X381004D03*
X376004D03*
X371004D03*
X366004D03*
X361004D03*
X356004D03*
X351004D03*
X346004D03*
X341004D03*
X336004D03*
X331004D03*
X326004D03*
X321004D03*
X316004D03*
X311004D03*
X306004D03*
X301004D03*
X296004D03*
X291004D03*
X286004D03*
X281004D03*
X276004D03*
X271004D03*
X266004D03*
X261004D03*
X256004D03*
X251004D03*
X246004D03*
X241004D03*
X236004D03*
X231004D03*
X226004D03*
X221004D03*
X416004Y411398D03*
X411004D03*
X406004D03*
X401004D03*
X396004D03*
X391004D03*
X386004D03*
X381004D03*
X376004D03*
X371004D03*
X366004D03*
X361004D03*
X356004D03*
X351004D03*
X346004D03*
X341004D03*
X336004D03*
X331004D03*
X326004D03*
X321004D03*
X316004D03*
X311004D03*
X306004D03*
X301004D03*
X296004D03*
X291004D03*
X286004D03*
X281004D03*
X276004D03*
X271004D03*
X266004D03*
X261004D03*
X256004D03*
X251004D03*
X246004D03*
X241004D03*
X236004D03*
X231004D03*
X226004D03*
X221004D03*
X416004Y406398D03*
X411004D03*
X406004D03*
X401004D03*
X396004D03*
X391004D03*
X386004D03*
X381004D03*
X376004D03*
X371004D03*
X366004D03*
X361004D03*
X356004D03*
X351004D03*
X346004D03*
X341004D03*
X336004D03*
X331004D03*
X326004D03*
X321004D03*
X316004D03*
X311004D03*
X306004D03*
X301004D03*
X296004D03*
X291004D03*
X286004D03*
X281004D03*
X276004D03*
X271004D03*
X266004D03*
X261004D03*
X256004D03*
X251004D03*
X246004D03*
X241004D03*
X236004D03*
X231004D03*
X226004D03*
X221004D03*
G74*
X0Y0D02*
M02*
