G04 This is an RS-274x file exported by *
G04 gerbv version 2.4.0 *
G04 More information is available about gerbv at *
G04 http://gerbv.gpleda.org/ *
G04 --End of header info--*
%MOIN*%
%FSLAX23Y23*%
%IPPOS*%
%IN "fakeSCROD.pcb"*%
G04 --Define apertures--*
%ADD10C,0.0010*%
%ADD11C,0.0100*%
%ADD12R,0.0098X0.0295*%
%ADD13C,0.0320*%
G04 --Start main section--*
G54D11*
G01X01000Y01000D02*
G01X01177Y01000D01*
G01X01256Y00921D02*
G75*
G03X01177Y01000I-0079J00000D01*
G01X01256Y00921D02*
G01X01256Y00488D01*
G01X01256Y00488D02*
G75*
G03X01335Y00409I00079J00000D01*
G01X01335Y00409D02*
G01X01866Y00409D01*
G01X01866Y00409D02*
G75*
G03X01945Y00488I00000J00079D01*
G01X01945Y00488D02*
G01X01945Y00921D01*
G01X02024Y01000D02*
G75*
G03X01945Y00921I00000J-0079D01*
G01X02024Y01000D02*
G01X04307Y01000D01*
G01X04386Y00921D02*
G75*
G03X04307Y01000I-0079J00000D01*
G01X04386Y00921D02*
G01X04386Y00488D01*
G01X04386Y00488D02*
G75*
G03X04465Y00409I00079J00000D01*
G01X04465Y00409D02*
G01X04996Y00409D01*
G01X04996Y00409D02*
G75*
G03X05075Y00488I00000J00079D01*
G01X05075Y00488D02*
G01X05075Y00921D01*
G01X05154Y01000D02*
G75*
G03X05075Y00921I00000J-0079D01*
G01X05154Y01000D02*
G01X05331Y01000D01*
G01X05331Y01000D02*
G01X05331Y02053D01*
G01X05331Y02053D02*
G01X05193Y02053D01*
G01X05193Y02329D02*
G75*
G03X05193Y02053I00000J-0138D01*
G01X05193Y02329D02*
G01X05331Y02329D01*
G01X05331Y02329D02*
G01X05331Y03234D01*
G01X05331Y03234D02*
G01X05193Y03234D01*
G01X05193Y03510D02*
G75*
G03X05193Y03234I00000J-0138D01*
G01X05193Y03510D02*
G01X05331Y03510D01*
G01X05331Y03510D02*
G01X05331Y04465D01*
G01X05331Y04465D02*
G75*
G03X05252Y04543I-0079J00000D01*
G01X05252Y04543D02*
G01X01079Y04543D01*
G01X01079Y04543D02*
G75*
G03X01000Y04465I00000J-0079D01*
G01X01000Y04465D02*
G01X01000Y03500D01*
G01X01000Y03500D02*
G01X01138Y03500D01*
G01X01138Y03224D02*
G75*
G03X01138Y03500I00000J00138D01*
G01X01138Y03224D02*
G01X01000Y03224D01*
G01X01000Y03224D02*
G01X01000Y02319D01*
G01X01000Y02319D02*
G01X01138Y02319D01*
G01X01138Y02043D02*
G75*
G03X01138Y02319I00000J00138D01*
G01X01138Y02043D02*
G01X01000Y02043D01*
G01X01000Y02043D02*
G01X01000Y01000D01*
G01X01492Y02358D02*
G01X01709Y02358D01*
G01X01709Y02358D02*
G01X01709Y02012D01*
G01X01709Y02012D02*
G01X01492Y02012D01*
G01X01492Y02012D02*
G01X01492Y02358D01*
G01X04612Y02358D02*
G01X04848Y02358D01*
G01X04848Y02358D02*
G01X04848Y02012D01*
G01X04848Y02012D02*
G01X04612Y02012D01*
G01X04612Y02012D02*
G01X04612Y02358D01*
G01X01325Y02919D02*
G01X01876Y02919D01*
G01X01876Y02919D02*
G01X01876Y02663D01*
G01X01876Y02663D02*
G01X01325Y02663D01*
G01X01325Y02663D02*
G01X01325Y02919D01*
G01X04455Y02669D02*
G01X05006Y02669D01*
G01X05006Y02669D02*
G01X05006Y02919D01*
G01X05006Y02919D02*
G01X04455Y02919D01*
G01X04455Y02919D02*
G01X04455Y02669D01*
G54D13*
G01X04160Y04314D03*
G01X04110Y04314D03*
G01X04060Y04314D03*
G01X04010Y04314D03*
G01X03960Y04314D03*
G01X03910Y04314D03*
G01X03860Y04314D03*
G01X03810Y04314D03*
G01X03760Y04314D03*
G01X03710Y04314D03*
G01X03660Y04314D03*
G01X03610Y04314D03*
G01X03560Y04314D03*
G01X03510Y04314D03*
G01X03460Y04314D03*
G01X03410Y04314D03*
G01X03360Y04314D03*
G01X03310Y04314D03*
G01X03260Y04314D03*
G01X03210Y04314D03*
G01X03160Y04314D03*
G01X03110Y04314D03*
G01X03060Y04314D03*
G01X03010Y04314D03*
G01X02960Y04314D03*
G01X02910Y04314D03*
G01X02860Y04314D03*
G01X02810Y04314D03*
G01X02760Y04314D03*
G01X02710Y04314D03*
G01X02660Y04314D03*
G01X02610Y04314D03*
G01X02560Y04314D03*
G01X02510Y04314D03*
G01X02460Y04314D03*
G01X02410Y04314D03*
G01X02360Y04314D03*
G01X02310Y04314D03*
G01X02260Y04314D03*
G01X02210Y04314D03*
G01X04160Y04264D03*
G01X04110Y04264D03*
G01X04060Y04264D03*
G01X04010Y04264D03*
G01X03960Y04264D03*
G01X03910Y04264D03*
G01X03860Y04264D03*
G01X03810Y04264D03*
G01X03760Y04264D03*
G01X03710Y04264D03*
G01X03660Y04264D03*
G01X03610Y04264D03*
G01X03560Y04264D03*
G01X03510Y04264D03*
G01X03460Y04264D03*
G01X03410Y04264D03*
G01X03360Y04264D03*
G01X03310Y04264D03*
G01X03260Y04264D03*
G01X03210Y04264D03*
G01X03160Y04264D03*
G01X03110Y04264D03*
G01X03060Y04264D03*
G01X03010Y04264D03*
G01X02960Y04264D03*
G01X02910Y04264D03*
G01X02860Y04264D03*
G01X02810Y04264D03*
G01X02760Y04264D03*
G01X02710Y04264D03*
G01X02660Y04264D03*
G01X02610Y04264D03*
G01X02560Y04264D03*
G01X02510Y04264D03*
G01X02460Y04264D03*
G01X02410Y04264D03*
G01X02360Y04264D03*
G01X02310Y04264D03*
G01X02260Y04264D03*
G01X02210Y04264D03*
G01X04160Y04114D03*
G01X04110Y04114D03*
G01X04060Y04114D03*
G01X04010Y04114D03*
G01X03960Y04114D03*
G01X03910Y04114D03*
G01X03860Y04114D03*
G01X03810Y04114D03*
G01X03760Y04114D03*
G01X03710Y04114D03*
G01X03660Y04114D03*
G01X03610Y04114D03*
G01X03560Y04114D03*
G01X03510Y04114D03*
G01X03460Y04114D03*
G01X03410Y04114D03*
G01X03360Y04114D03*
G01X03310Y04114D03*
G01X03260Y04114D03*
G01X03210Y04114D03*
G01X03160Y04114D03*
G01X03110Y04114D03*
G01X03060Y04114D03*
G01X03010Y04114D03*
G01X02960Y04114D03*
G01X02910Y04114D03*
G01X02860Y04114D03*
G01X02810Y04114D03*
G01X02760Y04114D03*
G01X02710Y04114D03*
G01X02660Y04114D03*
G01X02610Y04114D03*
G01X02560Y04114D03*
G01X02510Y04114D03*
G01X02460Y04114D03*
G01X02410Y04114D03*
G01X02360Y04114D03*
G01X02310Y04114D03*
G01X02260Y04114D03*
G01X02210Y04114D03*
G01X04160Y04064D03*
G01X04110Y04064D03*
G01X04060Y04064D03*
G01X04010Y04064D03*
G01X03960Y04064D03*
G01X03910Y04064D03*
G01X03860Y04064D03*
G01X03810Y04064D03*
G01X03760Y04064D03*
G01X03710Y04064D03*
G01X03660Y04064D03*
G01X03610Y04064D03*
G01X03560Y04064D03*
G01X03510Y04064D03*
G01X03460Y04064D03*
G01X03410Y04064D03*
G01X03360Y04064D03*
G01X03310Y04064D03*
G01X03260Y04064D03*
G01X03210Y04064D03*
G01X03160Y04064D03*
G01X03110Y04064D03*
G01X03060Y04064D03*
G01X03010Y04064D03*
G01X02960Y04064D03*
G01X02910Y04064D03*
G01X02860Y04064D03*
G01X02810Y04064D03*
G01X02760Y04064D03*
G01X02710Y04064D03*
G01X02660Y04064D03*
G01X02610Y04064D03*
G01X02560Y04064D03*
G01X02510Y04064D03*
G01X02460Y04064D03*
G01X02410Y04064D03*
G01X02360Y04064D03*
G01X02310Y04064D03*
G01X02260Y04064D03*
G01X02210Y04064D03*
M02*
